<svg xmlns="http://www.w3.org/2000/svg" width="69.449" height="71.606" viewBox="0 0 69.449 71.606">
  <g id="组_2108" data-name="组 2108" transform="translate(-102.4 -97.28)">
    <path id="路径_275" data-name="路径 275" d="M102.4,849.114c0,2.382,15.45,4.314,34.509,4.314s34.509-1.931,34.509-4.314-15.45-4.314-34.509-4.314S102.4,846.731,102.4,849.114Z" transform="translate(0 -684.542)" fill="#afafaf" opacity="0.1"/>
    <path id="路径_276" data-name="路径 276" d="M116.736,120.832a1.294,1.294,0,1,0,1.294-1.294A1.327,1.327,0,0,0,116.736,120.832Zm68.241,38.348c-1.639.431-1.984.776-2.372,2.372-.431-1.639-.776-1.984-2.372-2.372,1.6-.431,1.984-.776,2.372-2.372C182.993,158.4,183.338,158.792,184.977,159.18ZM123.94,116.3c-2.114.561-2.545.992-3.106,3.106-.561-2.114-.992-2.545-3.106-3.106,2.114-.561,2.545-1.035,3.106-3.106C121.352,115.311,121.826,115.742,123.94,116.3Zm51.763-7.419c-1.294.345-1.553.6-1.9,1.9-.345-1.294-.6-1.553-1.9-1.9,1.294-.345,1.553-.6,1.9-1.9C174.107,108.28,174.409,108.538,175.7,108.884Zm5.565-6.643c-3.365.863-4.055,1.6-4.961,4.961-.863-3.365-1.6-4.055-4.961-4.961,3.365-.863,4.055-1.6,4.961-4.961C177.169,100.6,177.9,101.335,181.267,102.241Z" transform="translate(-13.128)" fill="#afafaf" opacity="0.5"/>
    <path id="路径_278" data-name="路径 278" d="M222.974,210.6v-.086c0-.086-.043-.129-.043-.216v-.043l-9.274-24.2a9.919,9.919,0,0,0-9.447-6.859H183.116a9.919,9.919,0,0,0-9.447,6.859l-9.274,24.2v.043a.389.389,0,0,0-.043.216v17.427a9.923,9.923,0,0,0,9.921,9.921H213.1a9.923,9.923,0,0,0,9.921-9.921V210.689C222.974,210.646,222.974,210.646,222.974,210.6Zm-46.889-23.638a.042.042,0,0,1,.043-.043,7.26,7.26,0,0,1,6.988-5.133h21.05a7.367,7.367,0,0,1,7.031,5.09.042.042,0,0,0,.043.043l8.584,22.431H200.112a1.271,1.271,0,0,0-1.294,1.294,5.176,5.176,0,0,1-10.353,0,1.271,1.271,0,0,0-1.294-1.294H167.5Zm44.3,40.979a7.327,7.327,0,0,1-7.333,7.333H174.23a7.327,7.327,0,0,1-7.333-7.333v-15.96h19.109a7.74,7.74,0,0,0,15.27,0h19.109Z" transform="translate(-56.733 -75.018)" fill="#afafaf" opacity="0.5"/>
    <path id="路径_279" data-name="路径 279" d="M275.224,273.8a2.136,2.136,0,0,1-2.157-2.157v-4.314H253.44l7.074-18.462.043-.086a4.35,4.35,0,0,1,4.141-3.02h21.05a4.35,4.35,0,0,1,4.141,3.02l.043.086,7.074,18.462H277.38v4.314A2.136,2.136,0,0,1,275.224,273.8Z" transform="translate(-138.315 -135.971)" fill="#afafaf" opacity="0.2"/>
  </g>
</svg>
