<svg xmlns="http://www.w3.org/2000/svg" xmlns:xlink="http://www.w3.org/1999/xlink" width="24" height="24" viewBox="0 0 24 24" fill="none">
<path    stroke="currentColor" stroke-width="2" stroke-linejoin="round" stroke-linecap="round"  d="M2 21L22 21">
</path>
<path   fill="currentColor"  d="M5 10L9 10C10.1046 10 11 10.8954 11 12L11 20C11 21.1046 10.1046 22 9 22L5 22C3.89543 22 3 21.1046 3 20L3 12C3 10.8954 3.89543 10 5 10ZM5 12C5 12 5 12 5 12L5 20C5 20 5 20 5 20L9 20C9 20 9 20 9 20L9 12C9 12 9 12 9 12L5 12Z">
</path>
<path   fill="currentColor"  d="M11 1L19 1C20.1046 1 21 1.89543 21 3L21 20C21 21.1046 20.1046 22 19 22L11 22C9.89543 22 9 21.1046 9 20L9 3C9 1.89543 9.89543 1 11 1ZM11 3C11 3 11 3 11 3L11 20C11 20 11 20 11 20L19 20C19 20 19 20 19 20L19 3C19 3 19 3 19 3L11 3Z">
</path>
<path    stroke="currentColor" stroke-width="2" stroke-linejoin="round" stroke-linecap="round"  d="M14 16L16 16">
</path>
<path    stroke="currentColor" stroke-width="2" stroke-linejoin="round" stroke-linecap="round"  d="M6 16L8 16">
</path>
<path    stroke="currentColor" stroke-width="2" stroke-linejoin="round" stroke-linecap="round"  d="M14 11.5L16 11.5">
</path>
<path    stroke="currentColor" stroke-width="2" stroke-linejoin="round" stroke-linecap="round"  d="M14 7L16 7">
</path>
</svg>
