<svg xmlns="http://www.w3.org/2000/svg" xmlns:xlink="http://www.w3.org/1999/xlink" width="24" height="24" viewBox="0 0 24 24" fill="none">
<path d="M14 1.95312L10 1.95312C9.39053 2.01032 9.05719 2.34365 9 2.95312L9 5.95315L2.5 5.95315C1.94772 5.95315 1.5 6.40087 1.5 6.95315L1.5 10.9531C1.5 11.5054 1.94772 11.9531 2.5 11.9531L21.5 11.9531C22.0523 11.9531 22.5 11.5054 22.5 10.9531L22.5 6.95315C22.5 6.40087 22.0523 5.95315 21.5 5.95315L15 5.95315L15 2.95312C15 2.40084 14.5523 1.95312 14 1.95312ZM11 3.95312L11 6.95315C11 7.50542 10.5523 7.95315 10 7.95315L3.5 7.95315L3.5 9.95312L20.5 9.95312L20.5 7.95315L14 7.95315C13.4477 7.95315 13 7.50542 13 6.95315L13 3.95312L11 3.95312Z" fill-rule="evenodd"  fill="currentColor" >
</path>
<path d="M5 19L19 19L19 12L5 12L5 19ZM3 11L3 20C3.05719 20.6095 3.39052 20.9428 4 21L20 21C20.5523 21 21 20.5523 21 20L21 11C21 10.4477 20.5523 10 20 10L4 10C3.44772 10 3 10.4477 3 11Z" fill-rule="evenodd"  fill="currentColor" >
</path>
<path d="M7 19.9527L7 16.9609C7 16.8953 7.0064 16.8302 7.01922 16.7658C7.03202 16.7014 7.05099 16.6389 7.07612 16.5783C7.10125 16.5176 7.13205 16.46 7.16853 16.4054C7.20501 16.3508 7.24646 16.3003 7.29289 16.2538C7.33932 16.2074 7.38983 16.1659 7.44443 16.1295C7.49902 16.093 7.55665 16.0622 7.61732 16.0371C7.67798 16.0119 7.74051 15.993 7.80491 15.9802C7.86931 15.9673 7.93434 15.9609 8 15.9609C8.06566 15.9609 8.13069 15.9673 8.19509 15.9802C8.25949 15.993 8.32202 16.0119 8.38268 16.0371C8.44335 16.0622 8.50098 16.093 8.55557 16.1295C8.61017 16.1659 8.66068 16.2074 8.70711 16.2538C8.75354 16.3003 8.79499 16.3508 8.83147 16.4054C8.86795 16.46 8.89875 16.5176 8.92388 16.5783C8.94901 16.6389 8.96798 16.7014 8.98079 16.7658C8.9936 16.8302 9 16.8953 9 16.9609L9 19.9527C9 20.0183 8.9936 20.0834 8.98079 20.1478C8.96797 20.2122 8.94901 20.2747 8.92388 20.3354C8.89875 20.396 8.86795 20.4537 8.83147 20.5083C8.79499 20.5629 8.75354 20.6134 8.70711 20.6598C8.66068 20.7062 8.61017 20.7477 8.55557 20.7842C8.50098 20.8206 8.44335 20.8514 8.38268 20.8766C8.32202 20.9017 8.25949 20.9207 8.19509 20.9335C8.13069 20.9463 8.06566 20.9527 8 20.9527C7.93434 20.9527 7.86931 20.9463 7.80491 20.9335C7.74051 20.9207 7.67798 20.9017 7.61732 20.8766C7.55665 20.8514 7.49902 20.8206 7.44443 20.7842C7.38983 20.7477 7.33932 20.7062 7.29289 20.6598C7.24646 20.6134 7.20501 20.5629 7.16853 20.5083C7.13205 20.4537 7.10125 20.396 7.07612 20.3354C7.05099 20.2747 7.03202 20.2122 7.01922 20.1478C7.0064 20.0834 7 20.0183 7 19.9527Z" fill-rule="evenodd"  fill="currentColor" >
</path>
<path d="M11 19.9453L11 16.9453C11 16.8797 11.0064 16.8146 11.0192 16.7502C11.032 16.6858 11.051 16.6233 11.0761 16.5626C11.1012 16.502 11.1321 16.4443 11.1685 16.3897C11.205 16.3351 11.2465 16.2846 11.2929 16.2382C11.3393 16.1918 11.3898 16.1503 11.4444 16.1138C11.499 16.0774 11.5567 16.0466 11.6173 16.0214C11.678 15.9963 11.7405 15.9773 11.8049 15.9645C11.8693 15.9517 11.9343 15.9453 12 15.9453C12.0657 15.9453 12.1307 15.9517 12.1951 15.9645C12.2595 15.9773 12.322 15.9963 12.3827 16.0214C12.4433 16.0466 12.501 16.0774 12.5556 16.1138C12.6102 16.1503 12.6607 16.1918 12.7071 16.2382C12.7535 16.2846 12.795 16.3351 12.8315 16.3897C12.8679 16.4443 12.8988 16.502 12.9239 16.5626C12.949 16.6233 12.968 16.6858 12.9808 16.7502C12.9936 16.8146 13 16.8797 13 16.9453L13 19.9453C13 20.011 12.9936 20.076 12.9808 20.1404C12.968 20.2048 12.949 20.2673 12.9239 20.328C12.8988 20.3887 12.8679 20.4463 12.8315 20.5009C12.795 20.5555 12.7535 20.606 12.7071 20.6524C12.6607 20.6988 12.6102 20.7403 12.5556 20.7768C12.501 20.8133 12.4433 20.8441 12.3827 20.8692C12.322 20.8943 12.2595 20.9133 12.1951 20.9261C12.1307 20.9389 12.0657 20.9453 12 20.9453C11.9343 20.9453 11.8693 20.9389 11.8049 20.9261C11.7405 20.9133 11.678 20.8943 11.6173 20.8692C11.5567 20.8441 11.499 20.8133 11.4444 20.7768C11.3898 20.7403 11.3393 20.6988 11.2929 20.6524C11.2465 20.606 11.205 20.5555 11.1685 20.5009C11.1321 20.4463 11.1012 20.3887 11.0761 20.328C11.051 20.2673 11.032 20.2048 11.0192 20.1404C11.0064 20.076 11 20.011 11 19.9453Z" fill-rule="evenodd"  fill="currentColor" >
</path>
<path d="M15 19.9527L15 16.9609C15 16.8953 15.0064 16.8302 15.0192 16.7658C15.032 16.7014 15.051 16.6389 15.0761 16.5783C15.1012 16.5176 15.1321 16.46 15.1685 16.4054C15.205 16.3508 15.2465 16.3003 15.2929 16.2538C15.3393 16.2074 15.3898 16.1659 15.4444 16.1295C15.499 16.093 15.5567 16.0622 15.6173 16.0371C15.678 16.0119 15.7405 15.993 15.8049 15.9802C15.8693 15.9673 15.9343 15.9609 16 15.9609C16.0657 15.9609 16.1307 15.9673 16.1951 15.9802C16.2595 15.993 16.322 16.0119 16.3827 16.0371C16.4433 16.0622 16.501 16.093 16.5556 16.1295C16.6102 16.1659 16.6607 16.2074 16.7071 16.2538C16.7535 16.3003 16.795 16.3508 16.8315 16.4054C16.8679 16.46 16.8988 16.5176 16.9239 16.5783C16.949 16.6389 16.968 16.7014 16.9808 16.7658C16.9936 16.8302 17 16.8953 17 16.9609L17 19.9527C17 20.0183 16.9936 20.0834 16.9808 20.1478C16.968 20.2122 16.949 20.2747 16.9239 20.3354C16.8988 20.396 16.8679 20.4537 16.8315 20.5083C16.795 20.5629 16.7535 20.6134 16.7071 20.6598C16.6607 20.7062 16.6102 20.7477 16.5556 20.7842C16.501 20.8206 16.4433 20.8514 16.3827 20.8766C16.322 20.9017 16.2595 20.9207 16.1951 20.9335C16.1307 20.9463 16.0657 20.9527 16 20.9527C15.9343 20.9527 15.8693 20.9463 15.8049 20.9335C15.7405 20.9207 15.678 20.9017 15.6173 20.8766C15.5567 20.8514 15.499 20.8206 15.4444 20.7842C15.3898 20.7477 15.3393 20.7062 15.2929 20.6598C15.2465 20.6134 15.205 20.5629 15.1685 20.5083C15.1321 20.4537 15.1012 20.396 15.0761 20.3354C15.051 20.2747 15.032 20.2122 15.0192 20.1478C15.0064 20.0834 15 20.0183 15 19.9527Z" fill-rule="evenodd"  fill="currentColor" >
</path>
<path d="M6 19L18 19C18.0657 19 18.1307 19.0064 18.1951 19.0192C18.2595 19.032 18.322 19.051 18.3827 19.0761C18.4434 19.1012 18.501 19.1321 18.5556 19.1685C18.6102 19.205 18.6607 19.2465 18.7071 19.2929C18.7535 19.3393 18.795 19.3898 18.8315 19.4444C18.868 19.499 18.8988 19.5567 18.9239 19.6173C18.949 19.678 18.968 19.7405 18.9808 19.8049C18.9936 19.8693 19 19.9343 19 20C19 20.0657 18.9936 20.1307 18.9808 20.1951C18.968 20.2595 18.949 20.322 18.9239 20.3827C18.8988 20.4433 18.868 20.501 18.8315 20.5556C18.795 20.6102 18.7535 20.6607 18.7071 20.7071C18.6607 20.7535 18.6102 20.795 18.5556 20.8315C18.501 20.8679 18.4434 20.8988 18.3827 20.9239C18.322 20.949 18.2595 20.968 18.1951 20.9808C18.1307 20.9936 18.0657 21 18 21L6 21C5.93434 21 5.86931 20.9936 5.80491 20.9808C5.74051 20.968 5.67798 20.949 5.61732 20.9239C5.55665 20.8988 5.49902 20.8679 5.44443 20.8315C5.38983 20.795 5.33932 20.7535 5.29289 20.7071C5.24646 20.6607 5.20501 20.6102 5.16853 20.5556C5.13205 20.501 5.10125 20.4433 5.07612 20.3827C5.05099 20.322 5.03202 20.2595 5.01922 20.1951C5.0064 20.1307 5 20.0657 5 20C5 19.9343 5.0064 19.8693 5.01922 19.8049C5.03202 19.7405 5.05099 19.678 5.07612 19.6173C5.10125 19.5567 5.13205 19.499 5.16853 19.4444C5.20501 19.3898 5.24646 19.3393 5.29289 19.2929C5.33932 19.2465 5.38983 19.205 5.44443 19.1685C5.49902 19.1321 5.55665 19.1012 5.61732 19.0761C5.67798 19.051 5.74051 19.032 5.80491 19.0192C5.86931 19.0064 5.93434 19 6 19Z" fill-rule="evenodd"  fill="currentColor" >
</path>
</svg>
