<svg xmlns="http://www.w3.org/2000/svg" xmlns:xlink="http://www.w3.org/1999/xlink" width="10" height="10" viewBox="0 0 10 10" fill="none">
<path d="M0.871198 1.69949C0.818449 1.8141 0.839117 1.9625 0.933201 2.1447L3.83303 5.53142L3.83303 8.00795C3.83303 8.16653 3.92303 8.31132 4.06521 8.38153L5.5652 9.12228C5.84212 9.25903 6.16637 9.05753 6.16637 8.7487L6.16637 5.53142L9.0662 2.1447C9.29766 1.87437 9.10557 1.45703 8.7497 1.45703L1.2497 1.45703C1.05012 1.50406 0.923948 1.58488 0.871198 1.69949ZM2.155 2.29036L4.5662 5.10641C4.63084 5.1819 4.66637 5.27802 4.66637 5.37741L4.66637 7.74899L5.33303 8.07824L5.33303 5.37741C5.33303 5.27802 5.36856 5.1819 5.4332 5.10641L7.84441 2.29036L2.155 2.29036Z" fill-rule="evenodd"  fill="currentColor" >
</path>
</svg>
