<svg xmlns="http://www.w3.org/2000/svg" xmlns:xlink="http://www.w3.org/1999/xlink" width="24" height="24" viewBox="0 0 24 24" fill="none">
<path d="M3.91016 5.99572L3.91016 3.35938C3.91016 3.29371 3.90375 3.22868 3.89094 3.16428C3.87813 3.09989 3.85916 3.03735 3.83404 2.97669C3.80891 2.91603 3.7781 2.8584 3.74163 2.8038C3.70515 2.74921 3.66369 2.6987 3.61726 2.65227C3.57083 2.60584 3.52032 2.56438 3.46573 2.52791C3.41113 2.49143 3.3535 2.46062 3.29284 2.4355C3.23218 2.41037 3.16965 2.3914 3.10525 2.37859C3.04085 2.36578 2.97582 2.35938 2.91016 2.35938C2.8445 2.35938 2.77947 2.36578 2.71507 2.37859C2.65067 2.3914 2.58814 2.41037 2.52747 2.4355C2.46681 2.46062 2.40918 2.49143 2.35459 2.5279C2.29999 2.56438 2.24948 2.60584 2.20305 2.65227C2.15662 2.6987 2.11517 2.74921 2.07869 2.8038C2.04221 2.8584 2.0114 2.91603 1.98628 2.97669C1.96115 3.03735 1.94218 3.09989 1.92937 3.16428C1.91656 3.22868 1.91016 3.29371 1.91016 3.35938L1.91016 6.99573C1.91016 7.54802 2.35787 7.99573 2.91016 7.99573L6.54653 7.99573C6.61219 7.99573 6.67722 7.98932 6.74162 7.97651C6.80602 7.96371 6.86855 7.94474 6.92921 7.9196C6.98987 7.89448 7.0475 7.86368 7.1021 7.8272C7.15669 7.79072 7.2072 7.74927 7.25364 7.70284C7.30006 7.65641 7.34152 7.6059 7.378 7.55129C7.41448 7.4967 7.44528 7.43907 7.47041 7.37842C7.49553 7.31775 7.5145 7.25522 7.52731 7.19081C7.54012 7.12642 7.54653 7.06139 7.54653 6.99573C7.54653 6.93007 7.54012 6.86504 7.52731 6.80063C7.5145 6.73624 7.49553 6.67371 7.47041 6.61305C7.44528 6.55238 7.41448 6.49475 7.378 6.44016C7.34152 6.38556 7.30006 6.33505 7.25364 6.28862C7.2072 6.24219 7.15669 6.20074 7.1021 6.16426C7.0475 6.12778 6.98987 6.09698 6.92921 6.07186C6.86855 6.04672 6.80602 6.02775 6.74162 6.01495C6.67722 6.00213 6.61219 5.99572 6.54653 5.99572L3.91016 5.99572Z" fill-rule="evenodd"  fill="currentColor" >
</path>
<path d="M12 21C7.02944 21 3 16.9706 3 12C3 11.9343 2.9936 11.8693 2.98078 11.8049C2.96798 11.7405 2.94901 11.678 2.92388 11.6173C2.89875 11.5567 2.86795 11.499 2.83147 11.4444C2.79499 11.3898 2.75354 11.3393 2.70711 11.2929C2.66068 11.2465 2.61017 11.205 2.55557 11.1685C2.50098 11.132 2.44335 11.1012 2.38268 11.0761C2.32202 11.051 2.25949 11.032 2.19509 11.0192C2.13069 11.0064 2.06566 11 2 11C1.93434 11 1.86931 11.0064 1.80491 11.0192C1.74051 11.032 1.67798 11.051 1.61732 11.0761C1.55665 11.1012 1.49902 11.132 1.44443 11.1685C1.38983 11.205 1.33932 11.2465 1.29289 11.2929C1.24646 11.3393 1.20501 11.3898 1.16853 11.4444C1.13205 11.499 1.10125 11.5567 1.07612 11.6173C1.05099 11.678 1.03202 11.7405 1.01921 11.8049C1.0064 11.8693 1 11.9343 1 12C1 18.0751 5.92487 23 12 23C18.0751 23 23 18.0751 23 12C23 5.92487 18.0751 1 12 1C7.77537 1 4.60262 2.82761 2.48176 6.48283C2.39205 6.63137 2.33989 6.80513 2.33842 6.99097L2.33838 6.99905L2.33842 7.00713C2.34276 7.5557 2.7888 7.99905 3.33838 7.99905C3.71474 7.99905 4.04253 7.79115 4.21318 7.48392C5.94893 4.49464 8.54453 3 12 3C16.9706 3 21 7.02944 21 12C21 16.9706 16.9706 21 12 21Z" fill-rule="evenodd"  fill="currentColor" >
</path>
<path d="M13.002 11.5902L13.0026 6.0002L13.0026 5.99995L13.0026 5.99919C13.0025 5.93357 12.996 5.86858 12.9832 5.80423C12.9704 5.73987 12.9514 5.67739 12.9262 5.61678C12.9011 5.55617 12.8702 5.49859 12.8338 5.44404C12.7973 5.38949 12.7558 5.33903 12.7094 5.29264C12.663 5.24626 12.6125 5.20484 12.5579 5.1684C12.5034 5.13195 12.4457 5.10118 12.3851 5.07607C12.3245 5.05097 12.262 5.03201 12.1976 5.01921C12.1333 5.00641 12.0683 5.00001 12.0027 5L12.0026 5L11.9993 5C11.9338 5.00022 11.8689 5.0068 11.8047 5.01977C11.7405 5.03273 11.6781 5.05182 11.6177 5.07704C11.5572 5.10226 11.4997 5.13312 11.4453 5.16963C11.3909 5.20614 11.3406 5.2476 11.2943 5.294C11.2481 5.3404 11.2068 5.39087 11.1704 5.44539C11.1341 5.49991 11.1034 5.55744 11.0784 5.618C11.0534 5.67855 11.0345 5.74095 11.0217 5.80522C11.0089 5.86949 11.0026 5.93438 11.0026 5.9999L11.0026 6L11.002 12.0043C11.0019 12.2696 11.1073 12.524 11.2948 12.7115L15.5341 16.9507L15.5345 16.9512C15.7155 17.1322 15.9655 17.2441 16.2417 17.2441C16.5178 17.2441 16.7678 17.1322 16.9488 16.9512C17.1297 16.7702 17.2417 16.5202 17.2417 16.2441C17.2417 16.1115 17.2163 15.9839 17.1655 15.8614C17.1148 15.7389 17.0425 15.6308 16.9488 15.537L16.9481 15.5364L13.002 11.5902Z" fill-rule="evenodd"  fill="currentColor" >
</path>
</svg>
