<svg xmlns="http://www.w3.org/2000/svg" xmlns:xlink="http://www.w3.org/1999/xlink" width="24" height="24" viewBox="0 0 24 24" fill="none">
<path d="M8.49789 3.84375C8.86119 3.84375 9.19588 4.04076 9.37223 4.35838L10.5954 6.56178C10.7556 6.85029 10.7631 7.19923 10.6155 7.49438L9.43713 9.85125C9.43713 9.85125 9.77863 11.6069 11.2078 13.0361C12.637 14.4654 14.3869 14.801 14.3869 14.801L16.7433 13.6228C17.0387 13.475 17.3879 13.4827 17.6765 13.6432L19.8861 14.8716C20.2034 15.0481 20.4002 15.3826 20.4002 15.7457L20.4002 18.2824C20.4002 19.5742 19.2003 20.5073 17.9762 20.0942C15.4623 19.246 11.5599 17.6309 9.08653 15.1574C6.61309 12.684 4.998 8.78168 4.14973 6.26774C3.73672 5.04368 4.66976 3.84375 5.96159 3.84375L8.49789 3.84375Z" stroke="currentColor" stroke-width="2" stroke-linejoin="round"  >
</path>
</svg>
