<svg xmlns="http://www.w3.org/2000/svg" xmlns:xlink="http://www.w3.org/1999/xlink" width="24" height="24" viewBox="0 0 24 24" fill="none">
<path d="M1.5 2L3.25 2C3.70887 2 4.10885 2.3123 4.22014 2.75746L4.78078 5L22 5C22.6506 5 23.1279 5.61139 22.9701 6.24254L20.4701 16.2425C20.3589 16.6877 19.9589 17 19.5 17L6.5 17C6.04113 17 5.64115 16.6877 5.52986 16.2425L2.46922 4L1.5 4C1.43434 4 1.36931 3.9936 1.30491 3.98078C1.24051 3.96798 1.17798 3.94901 1.11732 3.92388C1.05665 3.89875 0.999025 3.86795 0.94443 3.83147C0.889835 3.79499 0.839322 3.75354 0.792893 3.70711C0.746464 3.66068 0.70501 3.61017 0.668531 3.55557C0.632052 3.50098 0.601248 3.44335 0.576121 3.38268C0.550993 3.32202 0.532024 3.25949 0.519215 3.19509C0.506405 3.13069 0.5 3.06566 0.5 3C0.5 2.93434 0.506405 2.86931 0.519215 2.80491C0.532025 2.74051 0.550994 2.67798 0.576121 2.61732C0.601248 2.55665 0.632051 2.49902 0.66853 2.44443C0.705009 2.38983 0.746464 2.33932 0.792893 2.29289C0.839322 2.24646 0.889835 2.20501 0.94443 2.16853C0.999025 2.13205 1.05665 2.10125 1.11732 2.07612C1.17798 2.05099 1.24051 2.03202 1.30491 2.01922C1.36931 2.00641 1.43434 2 1.5 2ZM7.28078 15L5.28078 7L20.7192 7L18.7192 15L7.28078 15Z" fill-rule="evenodd"  fill="currentColor" >
</path>
<path d="M6.5 22C7.88071 22 9 20.8807 9 19.5C9 18.1193 7.88071 17 6.5 17C5.11929 17 4 18.1193 4 19.5C4 20.8807 5.11929 22 6.5 22ZM6.5 19C6.77614 19 7 19.2239 7 19.5C7 19.7761 6.77614 20 6.5 20C6.22386 20 6 19.7761 6 19.5C6 19.2239 6.22386 19 6.5 19Z" fill-rule="evenodd"  fill="currentColor" >
</path>
<path d="M19.5 22C20.8807 22 22 20.8807 22 19.5C22 18.1193 20.8807 17 19.5 17C18.1193 17 17 18.1193 17 19.5C17 20.8807 18.1193 22 19.5 22ZM19.5 19C19.7761 19 20 19.2239 20 19.5C20 19.7761 19.7761 20 19.5 20C19.2239 20 19 19.7761 19 19.5C19 19.2239 19.2239 19 19.5 19Z" fill-rule="evenodd"  fill="currentColor" >
</path>
</svg>
