<svg xmlns="http://www.w3.org/2000/svg" xmlns:xlink="http://www.w3.org/1999/xlink" width="16" height="16" viewBox="0 0 16 16" fill="none">
<path d="M1.9974 6.33333C1.9974 4.67662 3.34032 3.33356 4.99698 3.33333L4.9974 3.33333C6.03539 3.33333 6.8537 3.75837 7.45232 4.60844L7.4529 4.60927C7.5857 4.79727 7.79135 4.89127 7.86113 4.89127C7.87393 4.89127 7.88216 4.8881 7.88452 4.88177C8.12553 4.92265 8.3854 4.83154 8.54246 4.60844C9.14108 3.75837 9.9594 3.33333 10.9974 3.33333C12.6543 3.33333 13.9974 4.67648 13.9974 6.33333C13.9974 7.81004 13.2423 9.311 11.732 10.8362C10.4937 12.0867 9.24886 12.9421 7.9974 13.4025C6.74592 12.9421 5.50105 12.0867 4.26278 10.8362C2.75252 9.311 1.9974 7.81004 1.9974 6.33333ZM4.99789 2C6.20286 2.00011 7.20269 2.39662 7.9974 3.18955C8.7922 2.39652 9.7922 2 10.9974 2C13.3906 2 15.3307 3.9401 15.3307 6.33333C15.3307 8.17568 14.447 9.98934 12.6795 11.7743C11.2223 13.2459 9.73171 14.2349 8.20766 14.7414L8.20653 14.7417C8.1386 14.7642 8.06826 14.7754 8.04993 14.7754C8.04573 14.7754 8.04426 14.7748 8.04626 14.7736C7.95912 14.78 7.87106 14.7693 7.78716 14.7414C6.26311 14.2349 4.77251 13.2459 3.31534 11.7743C1.54782 9.98934 0.664062 8.17568 0.664062 6.33333C0.664062 3.9401 2.60416 2 4.9974 2L4.99789 2Z" fill-rule="evenodd"  fill="currentColor" >
</path>
</svg>
