<svg xmlns="http://www.w3.org/2000/svg" xmlns:xlink="http://www.w3.org/1999/xlink" width="14" height="14" viewBox="0 0 14 14" fill="none">
<path d="M12.0303 4.96231C12.0477 4.94407 12.0642 4.92498 12.0798 4.90506C12.0954 4.88511 12.11 4.86441 12.1236 4.84296C12.1372 4.82152 12.1498 4.79943 12.1614 4.7767C12.173 4.75394 12.1835 4.73065 12.1929 4.70685C12.2023 4.68301 12.2106 4.65876 12.2177 4.63408C12.2248 4.60938 12.2308 4.58439 12.2356 4.55911C12.2404 4.53381 12.244 4.50832 12.2464 4.48264C12.2488 4.457 12.25 4.43127 12.25 4.40547C12.25 4.37967 12.2488 4.35394 12.2464 4.32829C12.244 4.30262 12.2404 4.27713 12.2356 4.25183C12.2308 4.22655 12.2248 4.20156 12.2177 4.17686C12.2106 4.15218 12.2023 4.12793 12.1929 4.10409C12.1835 4.08028 12.173 4.057 12.1614 4.03424C12.1498 4.01151 12.1372 3.98942 12.1236 3.96797C12.11 3.94653 12.0954 3.92583 12.0798 3.90588C12.0642 3.88596 12.0477 3.86687 12.0303 3.84863C12.0129 3.83038 11.9948 3.81309 11.9758 3.79673C11.9568 3.78035 11.9371 3.76501 11.9167 3.7507C11.8962 3.73637 11.8752 3.72313 11.8535 3.71097C11.8319 3.69879 11.8097 3.68777 11.787 3.6779C11.7643 3.66803 11.7412 3.65935 11.7177 3.65187C11.6942 3.64439 11.6704 3.63813 11.6463 3.63309C11.6222 3.62808 11.5979 3.6243 11.5735 3.62175C11.5491 3.61923 11.5246 3.61797 11.5 3.61797C11.4754 3.61797 11.4509 3.61923 11.4265 3.62175C11.4021 3.6243 11.3778 3.62808 11.3537 3.63309C11.3296 3.63813 11.3058 3.64439 11.2823 3.65187C11.2588 3.65935 11.2357 3.66803 11.213 3.6779C11.1903 3.68777 11.1681 3.69879 11.1465 3.71097C11.1248 3.72313 11.1038 3.73637 11.0833 3.7507C11.0629 3.76501 11.0432 3.78035 11.0242 3.79673C11.0052 3.81309 10.9871 3.83038 10.9697 3.84863L7 8.01678L3.03033 3.84863C3.01296 3.83038 2.99478 3.81309 2.9758 3.79673C2.95681 3.78035 2.9371 3.76501 2.91668 3.7507C2.89626 3.73637 2.87521 3.72313 2.85355 3.71097C2.83188 3.69879 2.80971 3.68777 2.78701 3.6779C2.76432 3.66803 2.74122 3.65935 2.71771 3.65187C2.69421 3.64439 2.67041 3.63813 2.64632 3.63309C2.62223 3.62808 2.59796 3.6243 2.57351 3.62175C2.54907 3.61923 2.52456 3.61797 2.5 3.61797C2.47544 3.61797 2.45093 3.61923 2.42649 3.62175C2.40204 3.6243 2.37777 3.62808 2.35368 3.63309C2.32959 3.63813 2.30579 3.64439 2.28229 3.65187C2.25878 3.65935 2.23568 3.66803 2.21299 3.6779C2.19029 3.68777 2.16812 3.69879 2.14645 3.71097C2.12479 3.72313 2.10374 3.73637 2.08332 3.7507C2.0629 3.76501 2.04319 3.78035 2.0242 3.79673C2.00522 3.81309 1.98704 3.83038 1.96967 3.84863C1.93485 3.88519 1.90376 3.92498 1.8764 3.96797C1.84904 4.01094 1.82594 4.05632 1.80709 4.10409C1.78824 4.15187 1.77402 4.20111 1.76441 4.25183C1.7548 4.30254 1.75 4.35376 1.75 4.40547C1.75 4.45718 1.7548 4.5084 1.76441 4.55911C1.77402 4.60983 1.78824 4.65907 1.80709 4.70685C1.82594 4.75462 1.84904 4.79999 1.8764 4.84296C1.90376 4.88596 1.93485 4.92574 1.96967 4.96231L6.46968 9.68731C6.76255 9.99485 7.23745 9.99485 7.53032 9.68731L12.0303 4.96231Z"   fill="currentColor" >
</path>
</svg>
