<svg xmlns="http://www.w3.org/2000/svg" xmlns:xlink="http://www.w3.org/1999/xlink" width="16" height="16" viewBox="0 0 16 16" fill="none">
<path d="M7.9974 1.9987C11.3111 1.9987 13.9974 4.68496 13.9974 7.9987C13.9974 11.3124 11.3111 13.9987 7.9974 13.9987C4.68369 13.9987 1.9974 11.3124 1.9974 7.9987C1.9974 4.68496 4.68369 1.9987 7.9974 1.9987ZM7.9974 15.332C12.0475 15.332 15.3307 12.0488 15.3307 7.9987C15.3307 3.94863 12.0475 0.665364 7.9974 0.665364C3.94731 0.665364 0.664062 3.94863 0.664062 7.9987C0.664062 12.0488 3.94731 15.332 7.9974 15.332Z" fill-rule="evenodd"  fill="#ffffff" >
</path>
<path d="M10.474 7.5299L7.47436 4.53025L7.47401 4.5299C7.35337 4.40926 7.1867 4.33464 7.0026 4.33464C6.81851 4.33464 6.65184 4.40926 6.5312 4.5299C6.41056 4.65054 6.33594 4.81721 6.33594 5.0013C6.33594 5.08971 6.35285 5.17475 6.38668 5.25642C6.42052 5.3381 6.46869 5.41019 6.5312 5.47271L9.0598 8.0013L6.5312 10.5299C6.41056 10.6505 6.33594 10.8172 6.33594 11.0013C6.33594 11.1854 6.41056 11.3521 6.5312 11.4727C6.65184 11.5933 6.81851 11.668 7.0026 11.668C7.1867 11.668 7.35337 11.5933 7.47401 11.4727L10.474 8.47271C10.7344 8.21236 10.7344 7.79025 10.474 7.5299Z" fill-rule="evenodd"  fill="#ffffff" >
</path>
</svg>
