<svg xmlns="http://www.w3.org/2000/svg" xmlns:xlink="http://www.w3.org/1999/xlink" width="16" height="16" viewBox="0 0 16 16" fill="none">
<path d="M14.0003 8.00065C14.0003 4.68692 11.3141 2.00065 8.00033 2.00065C4.68662 2.00065 2.00033 4.68692 2.00033 8.00065C2.00033 11.3144 4.68662 14.0007 8.00033 14.0007C11.3141 14.0007 14.0003 11.3144 14.0003 8.00065ZM0.666992 8.00065C0.666992 3.95058 3.95024 0.667317 8.00033 0.667317C12.0504 0.667317 15.3337 3.95058 15.3337 8.00065C15.3337 12.0507 12.0504 15.334 8.00033 15.334C3.95024 15.334 0.666992 12.0507 0.666992 8.00065Z" fill-rule="evenodd"  fill="#ff8d0e" >
</path>
<path d="M8.47108 5.52794L11.4707 8.52759L11.4711 8.52794C11.5917 8.64859 11.6663 8.81525 11.6663 8.99935C11.6663 9.18344 11.5917 9.35011 11.4711 9.47075C11.3504 9.5914 11.1838 9.66602 10.9997 9.66602C10.9113 9.66602 10.8262 9.6491 10.7446 9.61527C10.6629 9.58144 10.5908 9.53327 10.5283 9.47075L7.99967 6.94216L5.47108 9.47075C5.35044 9.5914 5.18377 9.66602 4.99967 9.66602C4.81558 9.66602 4.64891 9.5914 4.52827 9.47075C4.40763 9.35011 4.33301 9.18344 4.33301 8.99935C4.33301 8.81525 4.40763 8.64859 4.52827 8.52794L7.52827 5.52794C7.78862 5.2676 8.21073 5.2676 8.47108 5.52794Z" fill-rule="evenodd"  fill="#ff8d0e" >
</path>
</svg>
