<svg xmlns="http://www.w3.org/2000/svg" xmlns:xlink="http://www.w3.org/1999/xlink" width="24" height="24" viewBox="0 0 24 24" fill="none">
<path d="M2 6L22 6L22 10L21.3008 10.4195C20.1924 11.0846 18.8076 11.0846 17.6992 10.4195L17 10L16.3008 10.4195C15.1924 11.0846 13.8076 11.0846 12.6993 10.4195L12 10L11.3007 10.4195C10.1924 11.0846 8.80765 11.0846 7.69925 10.4195L7 10L6.30075 10.4195C5.19235 11.0846 3.80765 11.0846 2.69927 10.4195L2 10L2 6Z" stroke="currentColor" stroke-width="2" stroke-linejoin="round" stroke-linecap="round" >
</path>
<path    stroke="currentColor" stroke-width="2" stroke-linejoin="round" stroke-linecap="round"  d="M4 11.2444L4 22L20 22L20 11">
</path>
<path    stroke="currentColor" stroke-width="2" stroke-linejoin="round" stroke-linecap="round"  d="M4 5.9111L4 2L20 2L20 6">
</path>
<rect x="9.5" y="16" width="5" height="6" stroke="currentColor" stroke-width="2" stroke-linejoin="round" stroke-linecap="round" >
</rect>
</svg>
