<svg xmlns="http://www.w3.org/2000/svg" xmlns:xlink="http://www.w3.org/1999/xlink" width="16" height="16" viewBox="0 0 16 16" fill="none">
<path d="M7.99992 14.6673C9.84085 14.6673 11.5075 13.9211 12.714 12.7147C13.9204 11.5083 14.6666 9.84158 14.6666 8.00065C14.6666 6.15972 13.9204 4.49305 12.714 3.2866C11.5075 2.08018 9.84085 1.33398 7.99992 1.33398C6.15899 1.33398 4.49232 2.08018 3.28587 3.2866C2.07945 4.49305 1.33325 6.15972 1.33325 8.00065C1.33325 9.84158 2.07945 11.5083 3.28587 12.7147C4.49232 13.9211 6.15899 14.6673 7.99992 14.6673Z"   fill="currentColor" >
</path>
<path d="M12.2427 12.2439C11.0711 13.4155 9.65693 14.0013 8.00008 14.0013C6.34325 14.0013 4.92904 13.4155 3.75744 12.2439C2.58587 11.0723 2.00008 9.65815 2.00008 8.0013C2.00008 6.34447 2.58587 4.93025 3.75743 3.75866C4.92903 2.58709 6.34325 2.0013 8.00008 2.0013C9.65693 2.0013 11.0711 2.58709 12.2427 3.75866C13.4143 4.93025 14.0001 6.34447 14.0001 8.0013C14.0001 9.65815 13.4143 11.0723 12.2427 12.2439ZM2.81463 13.1868C4.24658 14.6187 5.97506 15.3346 8.00008 15.3346C10.0251 15.3346 11.7536 14.6187 13.1855 13.1868C14.6175 11.7548 15.3334 10.0263 15.3334 8.0013C15.3334 5.97628 14.6175 4.2478 13.1855 2.81586C11.7536 1.38393 10.0251 0.667969 8.00008 0.667969C5.97506 0.667969 4.24658 1.38393 2.81463 2.81585C1.38271 4.2478 0.666748 5.97628 0.666748 8.0013C0.666748 10.0263 1.38271 11.7548 2.81463 13.1868Z" fill-rule="evenodd"  fill="currentColor" >
</path>
<path d="M10.862 5.52925L10.8617 5.5296L7.33342 9.05784L5.80482 7.52924L5.80471 7.52914C5.68407 7.40856 5.51745 7.33398 5.33341 7.33398L5.3334 7.33398C5.14937 7.33399 4.98275 7.40856 4.86212 7.52914L4.86201 7.52924L4.8619 7.52936C4.74132 7.64999 4.66675 7.81661 4.66675 8.00065C4.66675 8.18469 4.74132 8.35131 4.8619 8.47194L4.86201 8.47206L6.86201 10.4721C7.12236 10.7324 7.54447 10.7324 7.80482 10.4721L11.8045 6.47241L11.8048 6.47206C11.9255 6.35141 12.0001 6.18475 12.0001 6.00065C12.0001 5.81656 11.9255 5.64989 11.8048 5.52925C11.6842 5.4086 11.5175 5.33398 11.3334 5.33398C11.245 5.33398 11.16 5.3509 11.0783 5.38473C10.9966 5.41856 10.9245 5.46673 10.862 5.52925Z" fill-rule="evenodd"  fill="#FFFFFF" >
</path>
</svg>
