<svg xmlns="http://www.w3.org/2000/svg" xmlns:xlink="http://www.w3.org/1999/xlink" width="12" height="12" viewBox="0 0 12 12" fill="none">
<path d="M6 11C8.76143 11 11 8.76143 11 6C11 3.23857 8.76143 1 6 1C3.23857 1 1 3.23857 1 6C1 8.76143 3.23857 11 6 11Z"   fill="currentColor" >
</path>
<path d="M10.5 6C10.5 8.4853 8.4853 10.5 6 10.5C3.51472 10.5 1.5 8.4853 1.5 6C1.5 3.51472 3.51472 1.5 6 1.5C8.4853 1.5 10.5 3.51472 10.5 6ZM0.5 6C0.5 9.03755 2.96244 11.5 6 11.5C9.03755 11.5 11.5 9.03755 11.5 6C11.5 2.96244 9.03755 0.5 6 0.5C2.96244 0.5 0.5 2.96244 0.5 6Z" fill-rule="evenodd"  fill="currentColor" >
</path>
<path d="M6.50197 5.79511L6.50225 3.00005L6.50225 2.99997L6.50225 2.9996C6.50223 2.96678 6.499 2.93429 6.49258 2.90211C6.48615 2.86994 6.47666 2.8387 6.46408 2.80839C6.45151 2.77808 6.4361 2.74929 6.41786 2.72202C6.39962 2.69475 6.37889 2.66951 6.35568 2.64632C6.33247 2.62313 6.30722 2.60242 6.27994 2.5842C6.25265 2.56598 6.22385 2.55059 6.19354 2.53804C6.16322 2.52548 6.13197 2.51601 6.09979 2.50961C6.06761 2.50321 6.03511 2.5 6.0023 2.5L6.00225 2.5C5.96942 2.5 5.93691 2.5032 5.90471 2.50961C5.87252 2.51601 5.84125 2.52549 5.81092 2.53806C5.78059 2.55062 5.75178 2.56602 5.72448 2.58425C5.69719 2.60249 5.67193 2.62322 5.64872 2.64643C5.6255 2.66964 5.60478 2.69489 5.58654 2.72219C5.5683 2.74948 5.55289 2.7783 5.54033 2.80862C5.52776 2.83895 5.51828 2.87021 5.51187 2.90241C5.50546 2.93461 5.50226 2.96712 5.50225 2.99995L5.50225 3L5.50195 6.00215C5.50194 6.13478 5.55462 6.26197 5.6484 6.35575L7.76802 8.47535L7.76825 8.4756C7.85873 8.5661 7.98373 8.62205 8.1218 8.62205C8.25987 8.62205 8.38487 8.5661 8.47536 8.4756C8.56584 8.3851 8.6218 8.2601 8.6218 8.12205C8.6218 8.05575 8.60912 7.99197 8.58374 7.93071C8.55837 7.86945 8.52224 7.81538 8.47536 7.76849L8.47504 7.76818L6.50197 5.79511Z" fill-rule="evenodd"  fill="#FFFFFF" >
</path>
</svg>
