<svg xmlns="http://www.w3.org/2000/svg" xmlns:xlink="http://www.w3.org/1999/xlink" width="16" height="16" viewBox="0 0 16 16" fill="none">
<g  clip-path="url(#clip-path-69_100)">
<path d="M13.9993 7.9974C13.9993 11.3111 11.3131 13.9974 7.99935 13.9974C4.68564 13.9974 1.99935 11.3111 1.99935 7.9974C1.99935 4.68369 4.68564 1.9974 7.99935 1.9974C11.3131 1.9974 13.9993 4.68369 13.9993 7.9974ZM0.666016 7.9974C0.666016 12.0475 3.94926 15.3307 7.99935 15.3307C12.0494 15.3307 15.3327 12.0475 15.3327 7.9974C15.3327 3.94731 12.0494 0.664062 7.99935 0.664062C3.94926 0.664062 0.666016 3.94731 0.666016 7.9974Z" fill-rule="evenodd"  fill="currentColor" >
</path>
<path d="M5.00065 6L11.0007 6C11.0444 6 11.0878 6.00427 11.1307 6.01281C11.1736 6.02135 11.2153 6.034 11.2558 6.05075C11.2962 6.0675 11.3346 6.08803 11.371 6.11235C11.4074 6.13667 11.4411 6.16431 11.4721 6.19526C11.503 6.22621 11.5306 6.25989 11.555 6.29629C11.5793 6.33268 11.5998 6.3711 11.6166 6.41154C11.6333 6.45199 11.646 6.49367 11.6545 6.53661C11.663 6.57954 11.6673 6.62289 11.6673 6.66667C11.6673 6.71044 11.663 6.75379 11.6545 6.79673C11.646 6.83966 11.6333 6.88135 11.6166 6.92179C11.5998 6.96223 11.5793 7.00065 11.555 7.03705C11.5306 7.07344 11.503 7.10712 11.4721 7.13807C11.4411 7.16902 11.4074 7.19666 11.371 7.22098C11.3346 7.2453 11.2962 7.26583 11.2558 7.28259C11.2153 7.29934 11.1736 7.31198 11.1307 7.32052C11.0878 7.32906 11.0444 7.33333 11.0007 7.33333L5.00065 7.33333C4.95688 7.33333 4.91352 7.32906 4.87059 7.32052C4.82766 7.31198 4.78597 7.29934 4.74553 7.28259C4.70509 7.26583 4.66667 7.2453 4.63027 7.22098C4.59387 7.19666 4.5602 7.16902 4.52925 7.13807C4.49829 7.10712 4.47066 7.07344 4.44634 7.03705C4.42202 7.00065 4.40148 6.96223 4.38473 6.92179C4.36798 6.88135 4.35533 6.83966 4.34679 6.79673C4.33825 6.75379 4.33398 6.71044 4.33398 6.66667C4.33398 6.62289 4.33825 6.57954 4.34679 6.53661C4.35533 6.49367 4.36798 6.45199 4.38473 6.41154C4.40148 6.3711 4.42202 6.33268 4.44634 6.29629C4.47066 6.25989 4.49829 6.22621 4.52925 6.19526C4.5602 6.16431 4.59387 6.13667 4.63027 6.11235C4.66667 6.08803 4.70509 6.0675 4.74553 6.05075C4.78597 6.034 4.82766 6.02135 4.87059 6.01281C4.91352 6.00427 4.95688 6 5.00065 6Z" fill-rule="evenodd"  fill="currentColor" >
</path>
<path d="M8.86128 5.47401L10.5279 7.14068L11.666 6.66764C11.6656 6.48419 11.591 6.31816 11.4708 6.19787L11.4708 6.19786L9.8042 4.53132L9.80409 4.5312C9.68344 4.41056 9.51678 4.33594 9.33268 4.33594C9.14859 4.33594 8.98192 4.41056 8.86128 4.5312C8.74063 4.65184 8.66602 4.81851 8.66602 5.0026C8.66602 5.1867 8.74063 5.35337 8.86128 5.47401Z" fill-rule="evenodd"  fill="currentColor" >
</path>
<path d="M10.9993 10L4.99935 10C4.95558 10 4.91222 9.99573 4.86929 9.98719C4.82636 9.97865 4.78467 9.966 4.74423 9.94925C4.70378 9.9325 4.66536 9.91197 4.62897 9.88765C4.59257 9.86333 4.5589 9.83569 4.52794 9.80474C4.49699 9.77378 4.46936 9.74011 4.44504 9.70371C4.42072 9.66732 4.40018 9.6289 4.38343 9.58846C4.36668 9.54801 4.35403 9.50633 4.34549 9.46339C4.33695 9.42046 4.33268 9.37711 4.33268 9.33333C4.33268 9.28956 4.33695 9.24621 4.34549 9.20327C4.35403 9.16034 4.36668 9.11865 4.38343 9.07821C4.40018 9.03777 4.42072 8.99935 4.44504 8.96295C4.46936 8.92656 4.49699 8.89288 4.52794 8.86193C4.5589 8.83098 4.59257 8.80334 4.62897 8.77902C4.66536 8.7547 4.70378 8.73417 4.74423 8.71741C4.78467 8.70066 4.82636 8.68802 4.86929 8.67948C4.91222 8.67094 4.95558 8.66667 4.99935 8.66667L10.9993 8.66667C11.0431 8.66667 11.0865 8.67094 11.1294 8.67948C11.1723 8.68802 11.214 8.70066 11.2545 8.71741C11.2949 8.73417 11.3333 8.7547 11.3697 8.77902C11.4061 8.80334 11.4398 8.83098 11.4708 8.86193C11.5017 8.89288 11.5293 8.92656 11.5537 8.96295C11.578 8.99935 11.5985 9.03777 11.6153 9.07821C11.632 9.11865 11.6447 9.16034 11.6532 9.20327C11.6617 9.24621 11.666 9.28956 11.666 9.33333C11.666 9.37711 11.6617 9.42046 11.6532 9.46339C11.6447 9.50633 11.632 9.54801 11.6153 9.58846C11.5985 9.6289 11.578 9.66732 11.5537 9.70371C11.5293 9.74011 11.5017 9.77378 11.4708 9.80474C11.4398 9.83569 11.4061 9.86333 11.3697 9.88765C11.3333 9.91197 11.2949 9.9325 11.2545 9.94925C11.214 9.966 11.1723 9.97865 11.1294 9.98719C11.0865 9.99573 11.0431 10 10.9993 10Z" fill-rule="evenodd"  fill="currentColor" >
</path>
<path d="M7.13872 10.526L5.47206 8.85932L4.33398 9.33236C4.33442 9.51581 4.40896 9.68184 4.52924 9.80213L4.52924 9.80214L6.1958 11.4687L6.19591 11.4688C6.31656 11.5894 6.48322 11.6641 6.66732 11.6641C6.85141 11.6641 7.01808 11.5894 7.13872 11.4688C7.25937 11.3482 7.33398 11.1815 7.33398 10.9974C7.33398 10.8133 7.25937 10.6466 7.13872 10.526Z" fill-rule="evenodd"  fill="currentColor" >
</path>
</g>
<defs>
<clipPath id="clip-path-69_100">
<path d="M0 16L16 16L16 0L0 0L0 16Z" fill="white"/>
</clipPath>
</defs>
</svg>
