<svg xmlns="http://www.w3.org/2000/svg" xmlns:xlink="http://www.w3.org/1999/xlink" width="8" height="8" viewBox="0 0 8 8" fill="none">
<path d="M1.33333 0L6.66667 0C7.40307 0 8 0.596954 8 1.33333L8 6.66667C8 7.40307 7.40307 8 6.66667 8L1.33333 8C0.596954 8 -1.35273e-16 7.40307 0 6.66667L1.63286e-15 1.33333C1.67795e-15 0.596954 0.596954 -9.018e-17 1.33333 0Z"   fill="currentColor" >
</path>
<path d="M4.00027 1.35938L3.15124 3.09238L1.22269 3.37203L2.61976 4.73786L2.2858 6.63715L4.00027 5.72315L5.7151 6.63715L5.3836 4.73786L6.77824 3.37203L4.86037 3.09238L4.00027 1.35938Z"   fill="#FFFFFF" >
</path>
<path d="M3.99932 1.07813C3.91627 1.07834 3.83336 1.13019 3.75058 1.23369L2.96605 2.83504L1.18259 3.09365C0.954887 3.12667 0.863743 3.40634 1.02826 3.56718L2.32056 4.8306L2.01198 6.58557C1.97189 6.8136 2.21194 6.98771 2.41623 6.87879L4.00005 6.03446L5.5842 6.87882C5.78837 6.98762 6.02828 6.81382 5.9885 6.58593L5.68214 4.8306L6.97237 3.56701C7.13659 3.40618 7.04556 3.12685 6.81809 3.09368L5.04423 2.83503L4.24884 1.23241C4.16554 1.12934 4.08237 1.07791 3.99932 1.07813ZM4.00164 1.98399L3.40045 3.21111C3.36009 3.2935 3.28166 3.35064 3.19087 3.36381L1.8185 3.56281L2.8137 4.53576C2.87927 4.59987 2.90898 4.69218 2.8931 4.78249L2.65785 6.12043L3.86936 5.47457C3.95102 5.43101 4.049 5.43101 4.1307 5.47454L5.34339 6.1209L5.10973 4.78215C5.094 4.69204 5.12364 4.59993 5.189 4.53593L6.18298 3.56251L4.82006 3.36377C4.72984 3.35062 4.65184 3.29405 4.61131 3.21239L4.00164 1.98399Z" fill-rule="evenodd"  fill="#FFFFFF" >
</path>
</svg>
