<svg xmlns="http://www.w3.org/2000/svg" xmlns:xlink="http://www.w3.org/1999/xlink" width="24" height="24" viewBox="0 0 24 24" fill="none">
<path d="M6.75 16C7.44035 16 8 15.4403 8 14.75C8 14.0597 7.44035 13.5 6.75 13.5C6.05965 13.5 5.5 14.0597 5.5 14.75C5.5 15.4403 6.05965 16 6.75 16Z" fill-rule="evenodd"  fill="currentColor" >
</path>
<path d="M17.25 16C17.9403 16 18.5 15.4403 18.5 14.75C18.5 14.0597 17.9403 13.5 17.25 13.5C16.5597 13.5 16 14.0597 16 14.75C16 15.4403 16.5597 16 17.25 16Z" fill-rule="evenodd"  fill="currentColor" >
</path>
<path d="M3.5 18.5C2.67158 18.5 2 17.8284 2 17L2 12.3548C2 11.2182 2.64243 10.1791 3.6593 9.6711L4.00027 9.50075L5.15525 4.54597C5.3663 3.64058 6.17335 3 7.103 3L16.9472 3C17.8838 3 18.695 3.64999 18.899 4.56408L20.0016 9.50075L20.3417 9.6708C21.358 10.179 22 11.2177 22 12.354L22 17C22 17.8284 21.3284 18.5 20.5 18.5L19.5016 18.5L19.5016 19C19.5016 20.1045 18.6054 21 17.5008 21C16.3962 21 15.5 20.1045 15.5 19L15.5 18.5L8.5 18.5L8.5 19.0002C8.5 20.1047 7.60465 21 6.50015 21C5.39565 21 4.50027 20.1047 4.50027 19.0002L4.50027 18.5L3.5 18.5Z"   fill="currentColor" >
</path>
<path d="M1 17C1 18.3807 2.11929 19.5 3.5 19.5L3.54172 19.5C3.7797 20.9188 5.01368 22 6.50015 22C7.98662 22 9.22057 20.9188 9.45854 19.5L14.5415 19.5C14.7797 20.9189 16.0143 22 17.5008 22C18.9877 22 20.222 20.9191 20.4601 19.5L20.5 19.5C21.8807 19.5 23 18.3807 23 17L23 12.354C23 10.7381 22.2914 9.56008 20.8741 8.81993L19.875 4.34616C19.5258 2.78205 18.5499 2 16.9472 2L7.103 2C5.51561 2 4.54173 2.77298 4.18136 4.31895L3.13282 8.81708C1.71094 9.55673 1 10.736 1 12.3548L1 17ZM4.50026 17.5L3.5 17.5C3.22386 17.5 3 17.2761 3 17L3 12.3548C3 11.5305 3.36872 10.9341 4.10617 10.5657L4.4472 10.3953C4.71344 10.2623 4.90659 10.0176 4.97416 9.72777L6.12914 4.77299C6.24927 4.25766 6.57389 4 7.103 4L16.9472 4C17.4814 4 17.8067 4.26067 17.9231 4.782L19.0256 9.71871C19.0912 10.0123 19.2854 10.2607 19.5544 10.3952L19.8945 10.5653C20.6315 10.9338 21 11.53 21 12.354L21 17C21 17.2761 20.7761 17.5 20.5 17.5L19.5016 17.5C18.9493 17.5 18.5016 17.9477 18.5016 18.5L18.5016 19C18.5016 19.5527 18.0535 20 17.5008 20C16.9485 20 16.5 19.5523 16.5 19L16.5 18.5C16.5 17.9477 16.0523 17.5 15.5 17.5L8.5 17.5C7.94772 17.5 7.5 17.9477 7.5 18.5L7.5 19.0002C7.5 19.5524 7.05235 20 6.50015 20C5.94795 20 5.50026 19.5524 5.50026 19.0002L5.50026 18.5C5.50026 17.9477 5.05255 17.5 4.50026 17.5Z" fill-rule="evenodd"  fill="currentColor" >
</path>
<path d="M7 11L17 11L16.174 7.28305C16.0723 6.82555 15.6665 6.5 15.1979 6.5L8.80215 6.5C8.33345 6.5 7.92765 6.82555 7.826 7.28305L7 11Z"   fill="#FFFFFF" >
</path>
<path d="M8.24629 10L15.7531 10L15.1975 7.5L8.80185 7.5L8.24629 10ZM6.84948 7.06615L6.02348 10.7831C5.95962 11.501 6.28501 11.9066 6.99967 12L16.9997 12C17.6394 12 18.1147 11.4076 17.9759 10.7831L17.1499 7.06612C16.9179 6.02204 16.2671 5.5 15.1975 5.5L8.80182 5.5C7.73224 5.5 7.08146 6.02205 6.84948 7.06615Z" fill-rule="evenodd"  fill="#FFFFFF" >
</path>
</svg>
