<svg xmlns="http://www.w3.org/2000/svg" xmlns:xlink="http://www.w3.org/1999/xlink" width="24" height="24" viewBox="0 0 24 24" fill="none">
<path d="M3.5 20L21.5 20C21.5657 20 21.6307 20.0064 21.6951 20.0192C21.7595 20.032 21.822 20.051 21.8827 20.0761C21.9434 20.1012 22.001 20.1321 22.0556 20.1685C22.1102 20.205 22.1607 20.2465 22.2071 20.2929C22.2535 20.3393 22.295 20.3898 22.3315 20.4444C22.368 20.499 22.3988 20.5567 22.4239 20.6173C22.449 20.678 22.468 20.7405 22.4808 20.8049C22.4936 20.8693 22.5 20.9343 22.5 21C22.5 21.0657 22.4936 21.1307 22.4808 21.1951C22.468 21.2595 22.449 21.322 22.4239 21.3827C22.3988 21.4433 22.368 21.501 22.3315 21.5556C22.295 21.6102 22.2535 21.6607 22.2071 21.7071C22.1607 21.7535 22.1102 21.795 22.0556 21.8315C22.001 21.8679 21.9434 21.8988 21.8827 21.9239C21.822 21.949 21.7595 21.968 21.6951 21.9808C21.6307 21.9936 21.5657 22 21.5 22L3.5 22C3.43434 22 3.36931 21.9936 3.30491 21.9808C3.24051 21.968 3.17798 21.949 3.11732 21.9239C3.05665 21.8988 2.99902 21.8679 2.94443 21.8315C2.88983 21.795 2.83932 21.7535 2.79289 21.7071C2.74646 21.6607 2.70501 21.6102 2.66853 21.5556C2.63205 21.501 2.60125 21.4433 2.57612 21.3827C2.55099 21.322 2.53202 21.2595 2.51922 21.1951C2.50641 21.1307 2.5 21.0657 2.5 21C2.5 20.9343 2.50641 20.8693 2.51922 20.8049C2.53203 20.7405 2.55099 20.678 2.57612 20.6173C2.60125 20.5567 2.63205 20.499 2.66853 20.4444C2.70501 20.3898 2.74646 20.3393 2.79289 20.2929C2.83932 20.2465 2.88983 20.205 2.94443 20.1685C2.99902 20.1321 3.05665 20.1012 3.11732 20.0761C3.17798 20.051 3.24051 20.032 3.30491 20.0192C3.36931 20.0064 3.43434 20 3.5 20Z" fill-rule="evenodd"  fill="currentColor" >
</path>
<path d="M6.5 13.7738L6.5 16L8.74426 16L18.0861 6.65405L15.8478 4.41479L6.5 13.7738ZM15.14 2.29332L4.79247 12.6533C4.60134 12.8501 4.50385 13.0856 4.5 13.36L4.5 17C4.5 17.5523 4.94771 18 5.5 18L9.1586 18C9.42389 18 9.67831 17.8946 9.86586 17.707L20.2073 7.361C20.5976 6.97051 20.5976 6.33759 20.2073 5.9471L16.5548 2.29305C16.1641 1.90221 15.5305 1.90233 15.14 2.29332Z" fill-rule="evenodd"  fill="currentColor" >
</path>
</svg>
