<svg xmlns="http://www.w3.org/2000/svg" xmlns:xlink="http://www.w3.org/1999/xlink" width="20" height="20" viewBox="0 0 20 20" fill="none">
<path d="M1.90293 6.59265C1.62456 6.81609 1.35526 7.05109 1.09505 7.29765C1.09173 7.30078 1.08844 7.30394 1.08517 7.30713C1.07803 7.31411 1.07101 7.32121 1.06412 7.32844C0.921528 7.47798 0.833984 7.68047 0.833984 7.90341C0.833984 8.12548 0.920847 8.32725 1.06245 8.47663C1.063 8.47721 1.06355 8.47778 1.0641 8.47835C1.07534 8.49015 1.08691 8.5016 1.09883 8.51272C1.24771 8.6517 1.44758 8.73674 1.66732 8.73674C1.88939 8.73674 2.09117 8.64988 2.24054 8.50828C2.46789 8.29282 2.70311 8.08753 2.9462 7.89241C5.13044 6.13933 7.6287 5.31733 10.441 5.4264C13.2685 5.53606 15.7085 6.56336 17.7607 8.50828C17.9102 8.64988 18.1119 8.73674 18.334 8.73674C18.5578 8.73674 18.7611 8.64849 18.9107 8.5049C18.9192 8.49683 18.9274 8.48858 18.9355 8.48016C19.0781 8.3315 19.1661 8.13009 19.1673 7.90812L19.1673 7.90375L19.1673 7.90341C19.1673 7.66524 19.0674 7.4504 18.9072 7.29854L18.9062 7.29765C16.5507 5.06572 13.7505 3.88684 10.5056 3.76099C7.27848 3.63583 4.41094 4.57972 1.90293 6.59265Z" fill-rule="evenodd"  fill="currentColor" >
</path>
<path d="M4.75769 11.3377C6.20559 9.89035 7.95324 9.16667 10.0007 9.16667C12.0484 9.16667 13.7963 9.8906 15.2444 11.3385L15.2447 11.3388C15.3955 11.4896 15.6038 11.5829 15.8339 11.5829L15.834 11.5829C16.0641 11.5829 16.2724 11.4896 16.4232 11.3388C16.5741 11.188 16.6673 10.9797 16.6673 10.7496C16.6673 10.5195 16.5741 10.3111 16.4232 10.1603C14.6497 8.38678 12.5088 7.5 10.0007 7.5C7.49247 7.5 5.35161 8.38678 3.57806 10.1603C3.53937 10.199 3.50482 10.2411 3.47442 10.2866C3.44403 10.3321 3.41836 10.3801 3.39742 10.4307C3.37648 10.4812 3.36067 10.5333 3.35 10.587C3.33932 10.6407 3.33398 10.6949 3.33398 10.7496C3.33398 10.8043 3.33932 10.8585 3.35 10.9122C3.36067 10.9658 3.37648 11.0179 3.39742 11.0685C3.41836 11.119 3.44403 11.1671 3.47443 11.2126C3.50483 11.2581 3.53937 11.3001 3.57806 11.3388C3.6562 11.417 3.74632 11.4772 3.84842 11.5195C3.95051 11.5618 4.05681 11.5829 4.16732 11.5829C3.70708 11.5829 3.33398 11.2098 3.33398 10.7496C3.33398 10.2894 3.70708 9.91625 4.16732 9.91625C4.62756 9.91625 5.00065 10.2894 5.00065 10.7496C5.00065 10.9791 4.90784 11.187 4.75769 11.3377ZM4.75657 11.3388C4.67843 11.417 4.58831 11.4772 4.48622 11.5195C4.38412 11.5618 4.27782 11.5829 4.16732 11.5829L4.75769 11.3377L4.75657 11.3388Z" fill-rule="evenodd"  fill="currentColor" >
</path>
<path d="M15.2423 11.3377C13.7944 9.89035 12.0468 9.16667 9.99935 9.16667C7.95157 9.16667 6.20365 9.8906 4.7556 11.3385L4.75527 11.3388C4.60452 11.4896 4.39618 11.5829 4.1661 11.5829L4.16602 11.5829C3.93593 11.5829 3.7276 11.4896 3.57677 11.3388C3.42593 11.188 3.33268 10.9797 3.33268 10.7496C3.33268 10.5195 3.42593 10.3111 3.57677 10.1603C5.35032 8.38678 7.49118 7.5 9.99935 7.5C12.5075 7.5 14.6484 8.38678 16.4219 10.1603C16.4606 10.199 16.4952 10.2411 16.5256 10.2866C16.556 10.3321 16.5816 10.3801 16.6026 10.4307C16.6235 10.4812 16.6393 10.5333 16.65 10.587C16.6607 10.6407 16.666 10.6949 16.666 10.7496C16.666 10.8043 16.6607 10.8585 16.65 10.9122C16.6393 10.9658 16.6235 11.0179 16.6026 11.0685C16.5816 11.119 16.556 11.1671 16.5256 11.2126C16.4952 11.2581 16.4606 11.3001 16.4219 11.3388C16.3438 11.417 16.2537 11.4772 16.1516 11.5195C16.0495 11.5618 15.9432 11.5829 15.8327 11.5829C16.2929 11.5829 16.666 11.2098 16.666 10.7496C16.666 10.2894 16.2929 9.91625 15.8327 9.91625C15.3724 9.91625 14.9993 10.2894 14.9993 10.7496C14.9993 10.9791 15.0922 11.187 15.2423 11.3377ZM15.2434 11.3388C15.3216 11.417 15.4117 11.4772 15.5138 11.5195C15.6159 11.5618 15.7222 11.5829 15.8327 11.5829L15.2423 11.3377L15.2434 11.3388Z" fill-rule="evenodd"  fill="currentColor" >
</path>
<path d="M7.25657 14.0533C8.77208 12.5378 11.2292 12.5378 12.7447 14.0533C12.8955 14.2041 13.1039 14.2974 13.334 14.2974C13.5641 14.2974 13.7724 14.2041 13.9232 14.0533C14.074 13.9025 14.1673 13.6942 14.1673 13.4641C14.1673 13.2339 14.074 13.0256 13.9232 12.8748L13.9228 12.8744C11.7564 10.7084 8.24431 10.7085 6.07806 12.8748C5.92726 13.0256 5.83398 13.2339 5.83398 13.4641C5.83398 13.6942 5.92726 13.9025 6.07806 14.0533C6.22887 14.2041 6.4372 14.2974 6.66732 14.2974L6.66737 14.2974C6.89747 14.2974 7.10578 14.2041 7.25657 14.0533Z" fill-rule="evenodd"  fill="currentColor" >
</path>
<path d="M10.0007 16.6693C10.5759 16.6693 11.0423 16.2029 11.0423 15.6276C11.0423 15.0523 10.5759 14.5859 10.0007 14.5859C9.42536 14.5859 8.95898 15.0523 8.95898 15.6276C8.95898 16.2029 9.42536 16.6693 10.0007 16.6693Z" fill-rule="evenodd"  fill="currentColor" >
</path>
</svg>
