<svg xmlns="http://www.w3.org/2000/svg" xmlns:xlink="http://www.w3.org/1999/xlink" width="20" height="20" viewBox="0 0 20 20" fill="none">
<path d="M17.5006 2.5L2.50065 2.5C1.58018 2.5 0.833984 3.24619 0.833984 4.16667L0.833984 10.8333C0.833984 11.7538 1.58018 12.5 2.50065 12.5L17.5006 12.5C18.4211 12.5 19.1673 11.7538 19.1673 10.8333L19.1673 4.16667C19.1673 3.24619 18.4211 2.5 17.5006 2.5ZM2.50065 10.8333L2.50065 4.16667L17.5006 4.16667L17.5006 10.8333L2.50065 10.8333Z" fill-rule="evenodd"  fill="currentColor" >
</path>
<path d="M4.16602 8.33333L4.16602 11.6667C4.16602 12.1269 4.53911 12.5 4.99935 12.5L14.9993 12.5C15.4596 12.5 15.8327 12.1269 15.8327 11.6667L15.8327 8.33333C15.8327 7.8731 15.4596 7.5 14.9993 7.5L4.99935 7.5C4.53911 7.5 4.16602 7.8731 4.16602 8.33333ZM5.83268 10.8333L5.83268 9.16667L14.166 9.16667L14.166 10.8333L5.83268 10.8333Z" fill-rule="evenodd"  fill="currentColor" >
</path>
<path d="M15 5C15.0547 5 15.1089 5.00534 15.1626 5.01601C15.2162 5.02669 15.2683 5.04249 15.3189 5.06343C15.3695 5.08437 15.4175 5.11004 15.463 5.14044C15.5085 5.17084 15.5506 5.20539 15.5893 5.24408C15.6279 5.28277 15.6625 5.32486 15.6929 5.37036C15.7233 5.41585 15.749 5.46388 15.7699 5.51443C15.7908 5.56498 15.8066 5.61709 15.8173 5.67076C15.828 5.72442 15.8333 5.77862 15.8333 5.83333C15.8333 5.88805 15.828 5.94224 15.8173 5.99591C15.8066 6.04957 15.7908 6.10168 15.7699 6.15224C15.749 6.20279 15.7233 6.25081 15.6929 6.29631C15.6625 6.3418 15.6279 6.3839 15.5893 6.42259C15.5506 6.46128 15.5085 6.49583 15.463 6.52622C15.4175 6.55662 15.3695 6.58229 15.3189 6.60323C15.2683 6.62417 15.2162 6.63998 15.1626 6.65065C15.1089 6.66133 15.0547 6.66667 15 6.66667L13.3333 6.66667C13.2786 6.66667 13.2244 6.66133 13.1708 6.65065C13.1171 6.63998 13.065 6.62417 13.0144 6.60323C12.9639 6.58229 12.9159 6.55662 12.8704 6.52623C12.8249 6.49583 12.7828 6.46128 12.7441 6.42259C12.7054 6.3839 12.6708 6.3418 12.6404 6.29631C12.61 6.25081 12.5844 6.20279 12.5634 6.15224C12.5425 6.10168 12.5267 6.04957 12.516 5.99591C12.5053 5.94224 12.5 5.88805 12.5 5.83333C12.5 5.77862 12.5053 5.72442 12.516 5.67076C12.5267 5.61709 12.5425 5.56498 12.5634 5.51443C12.5844 5.46388 12.61 5.41585 12.6404 5.37036C12.6708 5.32486 12.7054 5.28277 12.7441 5.24408C12.7828 5.20539 12.8249 5.17084 12.8704 5.14044C12.9159 5.11004 12.9639 5.08437 13.0144 5.06343C13.065 5.04249 13.1171 5.02669 13.1708 5.01601C13.2244 5.00534 13.2786 5 13.3333 5L15 5Z" fill-rule="evenodd"  fill="currentColor" >
</path>
<path d="M10.8327 14.1693L10.8327 16.6693C10.8327 16.724 10.8273 16.7782 10.8167 16.8318C10.806 16.8855 10.7902 16.9376 10.7692 16.9882C10.7483 17.0387 10.7226 17.0868 10.6922 17.1322C10.6618 17.1777 10.6273 17.2198 10.5886 17.2585C10.5499 17.2972 10.5078 17.3318 10.4623 17.3622C10.4168 17.3926 10.3688 17.4182 10.3183 17.4392C10.2677 17.4601 10.2156 17.4759 10.1619 17.4866C10.1083 17.4973 10.0541 17.5026 9.99935 17.5026C9.94463 17.5026 9.89044 17.4973 9.83677 17.4866C9.78311 17.4759 9.731 17.4601 9.68045 17.4392C9.62989 17.4182 9.58187 17.3926 9.53637 17.3622C9.49088 17.3318 9.44878 17.2972 9.41009 17.2585C9.3714 17.2198 9.33686 17.1777 9.30646 17.1322C9.27606 17.0868 9.25039 17.0387 9.22945 16.9882C9.20851 16.9376 9.1927 16.8855 9.18203 16.8318C9.17135 16.7782 9.16602 16.724 9.16602 16.6693L9.16602 14.1693C9.16602 14.1146 9.17135 14.0604 9.18203 14.0067C9.1927 13.953 9.20851 13.9009 9.22945 13.8504C9.25039 13.7998 9.27606 13.7518 9.30646 13.7063C9.33686 13.6608 9.3714 13.6187 9.41009 13.58C9.44878 13.5413 9.49088 13.5068 9.53637 13.4764C9.58187 13.446 9.62989 13.4203 9.68045 13.3994C9.731 13.3784 9.78311 13.3626 9.83677 13.3519C9.89044 13.3413 9.94463 13.3359 9.99935 13.3359C10.0541 13.3359 10.1083 13.3413 10.1619 13.3519C10.2156 13.3626 10.2677 13.3784 10.3183 13.3994C10.3688 13.4203 10.4168 13.446 10.4623 13.4764C10.5078 13.5068 10.5499 13.5413 10.5886 13.58C10.6273 13.6187 10.6618 13.6608 10.6922 13.7063C10.7226 13.7518 10.7483 13.7998 10.7692 13.8504C10.7902 13.9009 10.806 13.953 10.8167 14.0067C10.8273 14.0604 10.8327 14.1146 10.8327 14.1693Z" fill-rule="evenodd"  fill="currentColor" >
</path>
<path d="M7.50065 14.9974L7.50065 15.8307C7.50065 15.8854 7.49531 15.9396 7.48464 15.9933C7.47396 16.047 7.45816 16.0991 7.43722 16.1496C7.41628 16.2002 7.39061 16.2482 7.36021 16.2937C7.32981 16.3392 7.29526 16.3813 7.25657 16.42C7.21788 16.4587 7.17579 16.4932 7.13029 16.5236C7.0848 16.554 7.03677 16.5797 6.98622 16.6006C6.93567 16.6216 6.88356 16.6374 6.82989 16.6481C6.77623 16.6587 6.72204 16.6641 6.66732 16.6641C6.6126 16.6641 6.55841 16.6587 6.50474 16.6481C6.45108 16.6374 6.39897 16.6216 6.34842 16.6006C6.29786 16.5797 6.24984 16.554 6.20434 16.5236C6.15885 16.4932 6.11675 16.4587 6.07806 16.42C6.03937 16.3813 6.00483 16.3392 5.97443 16.2937C5.94403 16.2482 5.91836 16.2002 5.89742 16.1496C5.87648 16.0991 5.86067 16.047 5.85 15.9933C5.83932 15.9396 5.83398 15.8854 5.83398 15.8307L5.83398 14.9974C5.83398 14.9427 5.83932 14.8885 5.85 14.8348C5.86067 14.7812 5.87648 14.729 5.89742 14.6785C5.91836 14.6279 5.94403 14.5799 5.97443 14.5344C6.00483 14.4889 6.03937 14.4468 6.07806 14.4081C6.11675 14.3694 6.15885 14.3349 6.20434 14.3045C6.24984 14.2741 6.29786 14.2484 6.34842 14.2275C6.39897 14.2066 6.45108 14.1907 6.50474 14.1801C6.55841 14.1694 6.6126 14.1641 6.66732 14.1641C6.72204 14.1641 6.77623 14.1694 6.82989 14.1801C6.88356 14.1908 6.93567 14.2066 6.98622 14.2275C7.03677 14.2484 7.0848 14.2741 7.13029 14.3045C7.17579 14.3349 7.21788 14.3694 7.25657 14.4081C7.29526 14.4468 7.32981 14.4889 7.36021 14.5344C7.39061 14.5799 7.41628 14.6279 7.43722 14.6785C7.45816 14.729 7.47396 14.7812 7.48464 14.8348C7.49531 14.8885 7.50065 14.9427 7.50065 14.9974Z" fill-rule="evenodd"  fill="currentColor" >
</path>
<path d="M14.1667 14.9974L14.1667 15.8307C14.1667 15.8854 14.1613 15.9396 14.1507 15.9933C14.14 16.047 14.1242 16.0991 14.1032 16.1496C14.0823 16.2002 14.0566 16.2482 14.0262 16.2937C13.9958 16.3392 13.9613 16.3813 13.9226 16.42C13.8839 16.4587 13.8418 16.4932 13.7963 16.5236C13.7508 16.554 13.7028 16.5797 13.6522 16.6006C13.6017 16.6216 13.5496 16.6374 13.4959 16.6481C13.4422 16.6587 13.3881 16.6641 13.3333 16.6641C13.2786 16.6641 13.2244 16.6587 13.1708 16.6481C13.1171 16.6374 13.065 16.6216 13.0144 16.6006C12.9639 16.5797 12.9159 16.554 12.8704 16.5236C12.8249 16.4932 12.7828 16.4587 12.7441 16.42C12.7054 16.3813 12.6708 16.3392 12.6404 16.2937C12.61 16.2482 12.5844 16.2002 12.5634 16.1496C12.5425 16.0991 12.5267 16.047 12.516 15.9933C12.5053 15.9396 12.5 15.8854 12.5 15.8307L12.5 14.9974C12.5 14.9427 12.5053 14.8885 12.516 14.8348C12.5267 14.7812 12.5425 14.729 12.5634 14.6785C12.5844 14.6279 12.61 14.5799 12.6404 14.5344C12.6708 14.4889 12.7054 14.4468 12.7441 14.4081C12.7828 14.3694 12.8249 14.3349 12.8704 14.3045C12.9159 14.2741 12.9639 14.2484 13.0144 14.2275C13.065 14.2066 13.1171 14.1907 13.1708 14.1801C13.2244 14.1694 13.2786 14.1641 13.3333 14.1641C13.3881 14.1641 13.4422 14.1694 13.4959 14.1801C13.5496 14.1908 13.6017 14.2066 13.6522 14.2275C13.7028 14.2484 13.7508 14.2741 13.7963 14.3045C13.8418 14.3349 13.8839 14.3694 13.9226 14.4081C13.9613 14.4468 13.9958 14.4889 14.0262 14.5344C14.0566 14.5799 14.0823 14.6279 14.1032 14.6785C14.1242 14.729 14.14 14.7812 14.1507 14.8348C14.1613 14.8885 14.1667 14.9427 14.1667 14.9974Z" fill-rule="evenodd"  fill="currentColor" >
</path>
</svg>
