<svg xmlns="http://www.w3.org/2000/svg" xmlns:xlink="http://www.w3.org/1999/xlink" width="20" height="20" viewBox="0 0 20 20" fill="none">
<path d="M0.833333 7.5L15.8333 7.5C16.2936 7.5 16.6667 7.8731 16.6667 8.33333C16.6667 11.1816 15.9857 13.5094 14.6238 15.3167C13.1084 17.3278 11.0116 18.3333 8.33333 18.3333C5.6551 18.3333 3.55826 17.3278 2.0428 15.3167C0.680933 13.5094 0 11.1816 0 8.33333C0 8.22306 0.0210586 8.11697 0.0631758 8.01505C0.105293 7.91314 0.165276 7.82313 0.243125 7.74503C0.243759 7.74439 0.244395 7.74376 0.245032 7.74312C0.323133 7.66528 0.41314 7.60529 0.515053 7.56318C0.616967 7.52106 0.72306 7.5 0.833333 7.5ZM8.33333 16.6667C4.11696 16.6667 1.90059 14.1667 1.68422 9.16667L14.9824 9.16667C14.7661 14.1667 12.5497 16.6667 8.33333 16.6667Z" fill-rule="evenodd"  fill="currentColor" >
</path>
<path d="M7.5 5.83073L7.5 2.4974C7.5 2.44268 7.50534 2.38849 7.51601 2.33482C7.52669 2.28115 7.54249 2.22905 7.56343 2.17849C7.58437 2.12794 7.61004 2.07992 7.64044 2.03442C7.67084 1.98892 7.70539 1.94683 7.74408 1.90814C7.78277 1.86945 7.82486 1.8349 7.87036 1.8045C7.91585 1.77411 7.96388 1.74844 8.01443 1.7275C8.06498 1.70656 8.11709 1.69075 8.17076 1.68008C8.22442 1.6694 8.27862 1.66406 8.33333 1.66406C8.38805 1.66406 8.44224 1.6694 8.49591 1.68008C8.54957 1.69075 8.60168 1.70656 8.65224 1.7275C8.70279 1.74844 8.75081 1.77411 8.79631 1.8045C8.8418 1.8349 8.8839 1.86945 8.92259 1.90814C8.96128 1.94683 8.99582 1.98892 9.02622 2.03442C9.05662 2.07992 9.08229 2.12794 9.10323 2.17849C9.12417 2.22905 9.13998 2.28115 9.15065 2.33482C9.16133 2.38849 9.16667 2.44268 9.16667 2.4974L9.16667 5.83073C9.16667 5.88545 9.16133 5.93964 9.15065 5.9933C9.13998 6.04697 9.12417 6.09908 9.10323 6.14963C9.08229 6.20018 9.05662 6.24821 9.02623 6.2937C8.99583 6.3392 8.96128 6.38129 8.92259 6.41999C8.8839 6.45868 8.8418 6.49322 8.79631 6.52362C8.75081 6.55402 8.70279 6.57969 8.65224 6.60063C8.60168 6.62157 8.54957 6.63738 8.49591 6.64805C8.44224 6.65873 8.38805 6.66406 8.33333 6.66406C8.27862 6.66406 8.22442 6.65873 8.17076 6.64805C8.11709 6.63738 8.06498 6.62157 8.01443 6.60063C7.96388 6.57969 7.91585 6.55402 7.87036 6.52362C7.82486 6.49322 7.78277 6.45868 7.74408 6.41999C7.70539 6.38129 7.67084 6.3392 7.64044 6.2937C7.61004 6.24821 7.58437 6.20018 7.56343 6.14963C7.54249 6.09908 7.52669 6.04697 7.51601 5.9933C7.50534 5.93964 7.5 5.88545 7.5 5.83073Z" fill-rule="evenodd"  fill="currentColor" >
</path>
<path d="M11.666 4.16927C11.666 4.11455 11.6714 4.06036 11.682 4.0067C11.6927 3.95303 11.7085 3.90092 11.7295 3.85037C11.7504 3.79982 11.7761 3.75179 11.8065 3.7063C11.8369 3.6608 11.8714 3.61871 11.9101 3.58001C11.9488 3.54132 11.9909 3.50678 12.0364 3.47638C12.0819 3.44598 12.1299 3.42031 12.1804 3.39937C12.231 3.37843 12.2831 3.36262 12.3368 3.35195C12.3904 3.34127 12.4446 3.33594 12.4993 3.33594C12.5541 3.33594 12.6083 3.34127 12.6619 3.35195C12.7156 3.36262 12.7677 3.37843 12.8183 3.39937C12.8688 3.42031 12.9168 3.44598 12.9623 3.47638C13.0078 3.50678 13.0499 3.54132 13.0886 3.58001C13.1273 3.61871 13.1618 3.6608 13.1922 3.7063C13.2226 3.75179 13.2483 3.79982 13.2692 3.85037C13.2902 3.90092 13.306 3.95303 13.3167 4.0067C13.3273 4.06036 13.3327 4.11455 13.3327 4.16927L13.3327 5.83594C13.3327 5.89065 13.3273 5.94485 13.3167 5.99851C13.306 6.05218 13.2902 6.10429 13.2692 6.15484C13.2483 6.20539 13.2226 6.25342 13.1922 6.29891C13.1618 6.34441 13.1273 6.3865 13.0886 6.4252C13.0499 6.46388 13.0078 6.49843 12.9623 6.52883C12.9168 6.55923 12.8688 6.5849 12.8183 6.60584C12.7677 6.62678 12.7156 6.64258 12.6619 6.65326C12.6083 6.66393 12.5541 6.66927 12.4993 6.66927C12.4446 6.66927 12.3904 6.66393 12.3368 6.65325C12.2831 6.64258 12.231 6.62678 12.1804 6.60584C12.1299 6.5849 12.0819 6.55923 12.0364 6.52883C11.9909 6.49843 11.9488 6.46388 11.9101 6.4252C11.8714 6.3865 11.8369 6.34441 11.8065 6.29891C11.7761 6.25342 11.7504 6.20539 11.7295 6.15484C11.7085 6.10429 11.6927 6.05218 11.682 5.99851C11.6714 5.94485 11.666 5.89065 11.666 5.83594L11.666 4.16927Z" fill-rule="evenodd"  fill="currentColor" >
</path>
<path d="M3.33398 4.16927C3.33398 4.11455 3.33932 4.06036 3.35 4.0067C3.36067 3.95303 3.37648 3.90092 3.39742 3.85037C3.41836 3.79982 3.44403 3.75179 3.47443 3.7063C3.50483 3.6608 3.53937 3.61871 3.57806 3.58001C3.61675 3.54132 3.65885 3.50678 3.70434 3.47638C3.74984 3.44598 3.79786 3.42031 3.84842 3.39937C3.89897 3.37843 3.95108 3.36262 4.00474 3.35195C4.05841 3.34127 4.1126 3.33594 4.16732 3.33594C4.22203 3.33594 4.27623 3.34127 4.32989 3.35195C4.38356 3.36262 4.43567 3.37843 4.48622 3.39937C4.53677 3.42031 4.5848 3.44598 4.63029 3.47638C4.67579 3.50678 4.71788 3.54132 4.75657 3.58001C4.79526 3.61871 4.82981 3.6608 4.86021 3.7063C4.89061 3.75179 4.91628 3.79982 4.93722 3.85037C4.95816 3.90092 4.97396 3.95303 4.98464 4.0067C4.99531 4.06036 5.00065 4.11455 5.00065 4.16927L5.00065 5.83594C5.00065 5.89065 4.99531 5.94485 4.98464 5.99851C4.97396 6.05218 4.95816 6.10429 4.93722 6.15484C4.91628 6.20539 4.89061 6.25342 4.86021 6.29891C4.82981 6.34441 4.79526 6.3865 4.75657 6.4252C4.71788 6.46388 4.67579 6.49843 4.63029 6.52883C4.5848 6.55923 4.53677 6.5849 4.48622 6.60584C4.43567 6.62678 4.38356 6.64258 4.32989 6.65326C4.27623 6.66393 4.22203 6.66927 4.16732 6.66927C4.1126 6.66927 4.05841 6.66393 4.00474 6.65325C3.95108 6.64258 3.89897 6.62678 3.84842 6.60584C3.79786 6.5849 3.74984 6.55923 3.70434 6.52883C3.65885 6.49843 3.61675 6.46388 3.57806 6.4252C3.53937 6.3865 3.50483 6.34441 3.47443 6.29891C3.44403 6.25342 3.41836 6.20539 3.39742 6.15484C3.37648 6.10429 3.36067 6.05218 3.35 5.99851C3.33932 5.94485 3.33398 5.89065 3.33398 5.83594L3.33398 4.16927Z" fill-rule="evenodd"  fill="currentColor" >
</path>
<path d="M14.9773 9.14266C14.9069 10.3641 14.6816 11.4713 14.3013 12.464C14.3007 12.4658 14.3 12.4675 14.2994 12.4692C14.2911 12.4912 14.2838 12.5134 14.2774 12.536C14.2491 12.6364 14.24 12.7385 14.25 12.8423C14.2601 12.9461 14.2886 13.0445 14.3356 13.1376L14.3354 13.1372C14.3412 13.1487 14.3468 13.1594 14.3524 13.1694C14.4001 13.2544 14.4607 13.3287 14.5344 13.3925C14.6081 13.4562 14.6904 13.5055 14.7814 13.5403C14.7831 13.541 14.7848 13.5416 14.7866 13.5423C14.8085 13.5505 14.8308 13.5578 14.8533 13.5642C15.2988 13.6898 15.7644 13.7526 16.2502 13.7526C18.7502 13.7526 20.0002 12.8498 20.0002 11.0443C20.0002 9.23872 18.7502 8.33594 16.2502 8.33594C16.0745 8.33594 15.9005 8.34435 15.7282 8.36117C15.5239 8.38113 15.342 8.47402 15.3022 8.51547C15.294 8.52399 15.2918 8.53034 15.2967 8.53344C15.1129 8.6769 14.9915 8.89556 14.9773 9.14266ZM16.1801 12.0853C16.2034 12.0857 16.2267 12.0859 16.2502 12.0859C17.6391 12.0859 18.3335 11.7387 18.3335 11.0443C18.3335 10.8298 18.1763 10.6215 17.8619 10.4194C17.505 10.19 17.0765 10.0552 16.5764 10.0153C16.4965 10.7399 16.3644 11.4299 16.1801 12.0853Z" fill-rule="evenodd"  fill="currentColor" >
</path>
</svg>
