<svg xmlns="http://www.w3.org/2000/svg" xmlns:xlink="http://www.w3.org/1999/xlink" width="20" height="20" viewBox="0 0 20 20" fill="none">
<path d="M10 17.2783C10.8979 16.5473 11.7989 15.6591 12.703 14.6137C14.7899 12.2008 15.8333 9.96933 15.8333 7.91927C15.8333 6.43406 15.2702 5.16357 14.1441 4.1078C13.0026 3.03767 11.6213 2.5026 10 2.5026C8.37873 2.5026 6.99737 3.03767 5.8559 4.1078C4.72974 5.16357 4.16667 6.43406 4.16667 7.91927C4.16667 9.96933 5.2101 12.2008 7.29697 14.6137C8.20108 15.6591 9.10209 16.5473 10 17.2783ZM6.03637 15.704C7.18655 17.0339 8.34109 18.1334 9.5 19.0026C9.83333 19.2248 10.1667 19.2248 10.5 19.0026C11.6589 18.1334 12.8134 17.0339 13.9637 15.704C16.3212 12.9781 17.5 10.3832 17.5 7.91927C17.5 5.95269 16.7613 4.2769 15.284 2.8919C13.822 1.52126 12.0607 0.835938 10 0.835938C7.93935 0.835938 6.17802 1.52126 4.716 2.8919C3.23867 4.2769 2.5 5.95269 2.5 7.91927C2.5 10.3831 3.67879 12.978 6.03637 15.704Z" fill-rule="evenodd"  fill="currentColor" >
</path>
<path d="M9.58268 5.83333L9.58268 12.5C9.58268 12.5547 9.57734 12.6089 9.56667 12.6626C9.55599 12.7162 9.54019 12.7683 9.51925 12.8189C9.49831 12.8695 9.47264 12.9175 9.44224 12.963C9.41184 13.0085 9.3773 13.0506 9.3386 13.0893C9.29991 13.1279 9.25782 13.1625 9.21232 13.1929C9.16683 13.2233 9.1188 13.249 9.06825 13.2699C9.0177 13.2908 8.96559 13.3066 8.91192 13.3173C8.85826 13.328 8.80407 13.3333 8.74935 13.3333C8.69463 13.3333 8.64044 13.328 8.58677 13.3173C8.53311 13.3066 8.481 13.2908 8.43045 13.2699C8.37989 13.249 8.33187 13.2233 8.28637 13.1929C8.24088 13.1625 8.19878 13.1279 8.16009 13.0893C8.1214 13.0506 8.08686 13.0085 8.05646 12.963C8.02606 12.9175 8.00039 12.8695 7.97945 12.8189C7.95851 12.7683 7.9427 12.7162 7.93203 12.6626C7.92135 12.6089 7.91602 12.5547 7.91602 12.5L7.91602 5.83333C7.91602 5.77862 7.92135 5.72442 7.93203 5.67076C7.9427 5.61709 7.95851 5.56498 7.97945 5.51443C8.00039 5.46388 8.02606 5.41585 8.05646 5.37036C8.08686 5.32486 8.1214 5.28277 8.16009 5.24408C8.19878 5.20539 8.24088 5.17084 8.28637 5.14044C8.33187 5.11004 8.37989 5.08437 8.43045 5.06343C8.481 5.04249 8.53311 5.02669 8.58677 5.01601C8.64044 5.00534 8.69463 5 8.74935 5C8.80407 5 8.85826 5.00534 8.91192 5.01601C8.96559 5.02669 9.0177 5.04249 9.06825 5.06343C9.1188 5.08437 9.16683 5.11004 9.21232 5.14044C9.25782 5.17084 9.29991 5.20539 9.3386 5.24408C9.3773 5.28277 9.41184 5.32486 9.44224 5.37036C9.47264 5.41585 9.49831 5.46388 9.51925 5.51443C9.54019 5.56498 9.556 5.61709 9.56667 5.67076C9.57734 5.72442 9.58268 5.77862 9.58268 5.83333Z" fill-rule="evenodd"  fill="currentColor" >
</path>
<path d="M11.2493 5L8.74935 5C8.24145 5.04766 7.96367 5.32544 7.91602 5.83333L7.91602 9.16667C7.91602 9.6269 8.28911 10 8.74935 10L11.2493 10C12.6301 10 13.7493 8.88071 13.7493 7.5C13.7493 6.11929 12.6301 5 11.2493 5ZM9.58268 6.66667L9.58268 8.33333L11.2493 8.33333C11.7096 8.33333 12.0827 7.96023 12.0827 7.5C12.0827 7.03977 11.7096 6.66667 11.2493 6.66667L9.58268 6.66667Z" fill-rule="evenodd"  fill="currentColor" >
</path>
</svg>
