<svg xmlns="http://www.w3.org/2000/svg" xmlns:xlink="http://www.w3.org/1999/xlink" width="16" height="16" viewBox="0 0 16 16" fill="none">
<path d="M13.9993 7.9974C13.9993 11.3111 11.3131 13.9974 7.99935 13.9974C4.68564 13.9974 1.99935 11.3111 1.99935 7.9974C1.99935 4.68369 4.68564 1.9974 7.99935 1.9974C11.3131 1.9974 13.9993 4.68369 13.9993 7.9974ZM0.666016 7.9974C0.666016 12.0475 3.94926 15.3307 7.99935 15.3307C12.0494 15.3307 15.3327 12.0475 15.3327 7.9974C15.3327 3.94731 12.0494 0.664062 7.99935 0.664062C3.94926 0.664062 0.666016 3.94731 0.666016 7.9974Z" fill-rule="evenodd"  fill="currentColor" >
</path>
<path d="M6.00065 6.66406L10.0007 6.66406C10.0444 6.66406 10.0878 6.66833 10.1307 6.67687C10.1736 6.68541 10.2153 6.69806 10.2558 6.71481C10.2962 6.73156 10.3346 6.7521 10.371 6.77642C10.4074 6.80074 10.4411 6.82837 10.4721 6.85932C10.503 6.89028 10.5306 6.92395 10.555 6.96035C10.5793 6.99675 10.5998 7.03516 10.6166 7.07561C10.6333 7.11605 10.646 7.15774 10.6545 7.20067C10.663 7.2436 10.6673 7.28696 10.6673 7.33073C10.6673 7.3745 10.663 7.41786 10.6545 7.46079C10.646 7.50372 10.6333 7.54541 10.6166 7.58585C10.5998 7.62629 10.5793 7.66471 10.555 7.70111C10.5306 7.73751 10.503 7.77118 10.4721 7.80213C10.4411 7.83309 10.4074 7.86072 10.371 7.88504C10.3346 7.90936 10.2962 7.9299 10.2558 7.94665C10.2153 7.9634 10.1736 7.97605 10.1307 7.98459C10.0878 7.99313 10.0444 7.9974 10.0007 7.9974L6.00065 7.9974C5.95688 7.9974 5.91352 7.99313 5.87059 7.98459C5.82766 7.97605 5.78597 7.9634 5.74553 7.94665C5.70509 7.9299 5.66667 7.90936 5.63027 7.88504C5.59387 7.86072 5.5602 7.83309 5.52925 7.80213C5.49829 7.77118 5.47066 7.73751 5.44634 7.70111C5.42202 7.66471 5.40148 7.62629 5.38473 7.58585C5.36798 7.54541 5.35533 7.50372 5.34679 7.46079C5.33825 7.41786 5.33398 7.3745 5.33398 7.33073C5.33398 7.28696 5.33825 7.2436 5.34679 7.20067C5.35533 7.15774 5.36798 7.11605 5.38473 7.07561C5.40148 7.03516 5.42202 6.99675 5.44634 6.96035C5.47066 6.92395 5.49829 6.89028 5.52925 6.85932C5.5602 6.82837 5.59387 6.80074 5.63027 6.77642C5.66667 6.7521 5.70509 6.73156 5.74553 6.71481C5.78597 6.69806 5.82766 6.68541 5.87059 6.67687C5.91352 6.66833 5.95688 6.66406 6.00065 6.66406Z" fill-rule="evenodd"  fill="currentColor" >
</path>
<path d="M6.00065 8.66406L10.0007 8.66406C10.0444 8.66406 10.0878 8.66833 10.1307 8.67687C10.1736 8.68541 10.2153 8.69806 10.2558 8.71481C10.2962 8.73156 10.3346 8.7521 10.371 8.77642C10.4074 8.80074 10.4411 8.82837 10.4721 8.85932C10.503 8.89028 10.5306 8.92395 10.555 8.96035C10.5793 8.99675 10.5998 9.03516 10.6166 9.07561C10.6333 9.11605 10.646 9.15774 10.6545 9.20067C10.663 9.2436 10.6673 9.28695 10.6673 9.33073C10.6673 9.3745 10.663 9.41786 10.6545 9.46079C10.646 9.50372 10.6333 9.54541 10.6166 9.58585C10.5998 9.62629 10.5793 9.66471 10.555 9.70111C10.5306 9.73751 10.503 9.77118 10.4721 9.80213C10.4411 9.83309 10.4074 9.86072 10.371 9.88504C10.3346 9.90936 10.2962 9.9299 10.2558 9.94665C10.2153 9.9634 10.1736 9.97605 10.1307 9.98459C10.0878 9.99313 10.0444 9.9974 10.0007 9.9974L6.00065 9.9974C5.95688 9.9974 5.91352 9.99313 5.87059 9.98459C5.82766 9.97605 5.78597 9.9634 5.74553 9.94665C5.70509 9.9299 5.66667 9.90936 5.63027 9.88504C5.59387 9.86072 5.5602 9.83309 5.52925 9.80213C5.49829 9.77118 5.47066 9.73751 5.44634 9.70111C5.42202 9.66471 5.40148 9.62629 5.38473 9.58585C5.36798 9.54541 5.35533 9.50372 5.34679 9.46079C5.33825 9.41786 5.33398 9.3745 5.33398 9.33073C5.33398 9.28695 5.33825 9.2436 5.34679 9.20067C5.35533 9.15774 5.36798 9.11605 5.38473 9.07561C5.40148 9.03516 5.42202 8.99675 5.44634 8.96035C5.47066 8.92395 5.49829 8.89028 5.52925 8.85932C5.5602 8.82837 5.59387 8.80074 5.63027 8.77642C5.66667 8.7521 5.70509 8.73156 5.74553 8.71481C5.78597 8.69806 5.82766 8.68541 5.87059 8.67687C5.91352 8.66833 5.95688 8.66406 6.00065 8.66406Z" fill-rule="evenodd"  fill="currentColor" >
</path>
<path d="M8.66927 7.33073L8.66927 11.3307C8.66927 11.3745 8.665 11.4179 8.65646 11.4608C8.64792 11.5037 8.63527 11.5454 8.61852 11.5858C8.60177 11.6263 8.58124 11.6647 8.55692 11.7011C8.5326 11.7375 8.50496 11.7712 8.47401 11.8021C8.44306 11.8331 8.40938 11.8607 8.37298 11.885C8.33659 11.9094 8.29817 11.9299 8.25773 11.9466C8.21728 11.9634 8.1756 11.976 8.13266 11.9846C8.08973 11.9931 8.04638 11.9974 8.0026 11.9974C7.95883 11.9974 7.91548 11.9931 7.87254 11.9846C7.82961 11.976 7.78792 11.9634 7.74748 11.9466C7.70704 11.9299 7.66862 11.9094 7.63222 11.885C7.59583 11.8607 7.56215 11.8331 7.5312 11.8021C7.50025 11.7712 7.47261 11.7375 7.44829 11.7011C7.42397 11.6647 7.40344 11.6263 7.38668 11.5858C7.36993 11.5454 7.35729 11.5037 7.34875 11.4608C7.34021 11.4179 7.33594 11.3745 7.33594 11.3307L7.33594 7.33073C7.33594 7.28696 7.34021 7.2436 7.34875 7.20067C7.35729 7.15774 7.36993 7.11605 7.38668 7.07561C7.40344 7.03516 7.42397 6.99675 7.44829 6.96035C7.47261 6.92395 7.50025 6.89028 7.5312 6.85932C7.56215 6.82837 7.59583 6.80074 7.63222 6.77642C7.66862 6.7521 7.70704 6.73156 7.74748 6.71481C7.78792 6.69806 7.82961 6.68541 7.87254 6.67687C7.91548 6.66833 7.95883 6.66406 8.0026 6.66406C8.04638 6.66406 8.08973 6.66833 8.13266 6.67687C8.1756 6.68541 8.21728 6.69806 8.25773 6.71481C8.29817 6.73156 8.33659 6.7521 8.37298 6.77642C8.40938 6.80074 8.44306 6.82837 8.47401 6.85932C8.50496 6.89028 8.5326 6.92395 8.55692 6.96035C8.58124 6.99675 8.60177 7.03516 8.61852 7.07561C8.63528 7.11605 8.64792 7.15774 8.65646 7.20067C8.665 7.2436 8.66927 7.28696 8.66927 7.33073Z" fill-rule="evenodd"  fill="currentColor" >
</path>
<path d="M8.47206 7.47401L10.4718 5.47427L10.4721 5.47401C10.5927 5.35337 10.6673 5.1867 10.6673 5.0026C10.6673 4.81851 10.5927 4.65184 10.4721 4.5312C10.3514 4.41056 10.1847 4.33594 10.0007 4.33594C9.91225 4.33594 9.82721 4.35285 9.74553 4.38668C9.66386 4.42052 9.59176 4.46869 9.52924 4.5312L9.52898 4.53147L8.00065 6.0598L6.47206 4.5312C6.35141 4.41056 6.18475 4.33594 6.00065 4.33594C5.81656 4.33594 5.64989 4.41056 5.52925 4.5312C5.4086 4.65184 5.33398 4.81851 5.33398 5.0026C5.33398 5.1867 5.4086 5.35337 5.52925 5.47401L5.52936 5.47413L7.52924 7.47401C7.7896 7.73436 8.2117 7.73436 8.47206 7.47401Z" fill-rule="evenodd"  fill="currentColor" >
</path>
</svg>
