<svg xmlns="http://www.w3.org/2000/svg" xmlns:xlink="http://www.w3.org/1999/xlink" width="24" height="24" viewBox="0 0 24 24" fill="none">
<path d="M2 10L12 3L22 10L22 21L2 21L2 10Z" stroke="currentColor" stroke-width="2" stroke-linejoin="round" stroke-linecap="round" >
</path>
<path d="M13.7004 7.89844C14.2004 7.89844 14.7004 7.99844 15.1004 8.19844L14.3004 8.99844C13.8004 9.49844 13.8004 10.1984 14.3004 10.6984C14.8004 11.1984 15.6004 11.1984 16.0004 10.6984L16.7004 9.99844C16.8004 10.2984 16.9004 10.6984 16.9004 11.0984C16.9004 12.8984 15.4004 14.2984 13.6004 14.2984C13.2004 14.2984 12.8004 14.1984 12.4004 14.0984L9.10039 17.3984C8.60039 17.8984 7.80039 17.8984 7.40039 17.3984C6.90039 16.8984 6.90039 16.1984 7.40039 15.6984L10.7004 12.4984C10.5004 12.0984 10.4004 11.6984 10.4004 11.1984C10.4004 9.29844 11.9004 7.89844 13.7004 7.89844Z" stroke="currentColor" stroke-width="2" stroke-linejoin="round"  >
</path>
</svg>
