<svg xmlns="http://www.w3.org/2000/svg" xmlns:xlink="http://www.w3.org/1999/xlink" width="16" height="16" viewBox="0 0 16 16" fill="none">
<path d="M13.9993 7.9974C13.9993 11.3111 11.3131 13.9974 7.99935 13.9974C4.68564 13.9974 1.99935 11.3111 1.99935 7.9974C1.99935 4.68369 4.68564 1.9974 7.99935 1.9974C11.3131 1.9974 13.9993 4.68369 13.9993 7.9974ZM0.666016 7.9974C0.666016 12.0475 3.94926 15.3307 7.99935 15.3307C12.0494 15.3307 15.3327 12.0475 15.3327 7.9974C15.3327 3.94731 12.0494 0.664062 7.99935 0.664062C3.94926 0.664062 0.666016 3.94731 0.666016 7.9974Z" fill-rule="evenodd"  fill="currentColor" >
</path>
<path d="M8.6693 7.72942L8.66967 4.00274L8.66967 4.00257L8.66967 4.00206C8.66964 3.95832 8.66533 3.91499 8.65677 3.87209C8.64821 3.82919 8.63554 3.78753 8.61878 3.74712C8.60201 3.70672 8.58147 3.66833 8.55714 3.63196C8.53282 3.5956 8.50519 3.56196 8.47424 3.53103C8.4433 3.50011 8.40963 3.4725 8.37325 3.4482C8.33687 3.42391 8.29847 3.40339 8.25805 3.38665C8.21763 3.36992 8.17596 3.35728 8.13306 3.34875C8.09015 3.34021 8.04682 3.33594 8.00307 3.33594L8.003 3.33594L8.00085 3.33594C7.95717 3.33608 7.91392 3.34047 7.8711 3.34912C7.82828 3.35776 7.78672 3.37049 7.7464 3.3873C7.70609 3.40411 7.6678 3.42469 7.63153 3.44903C7.59525 3.47337 7.5617 3.501 7.53086 3.53194C7.50002 3.56287 7.47249 3.59652 7.44827 3.63286C7.42404 3.66921 7.40358 3.70757 7.3869 3.74793C7.37021 3.7883 7.35761 3.82991 7.34911 3.87275C7.3406 3.9156 7.33634 3.95886 7.33634 4.00254L7.33634 4.0026L7.33594 8.00547C7.33592 8.1823 7.40616 8.3519 7.5312 8.47694L10.3574 11.3031L10.3577 11.3034C10.4783 11.4241 10.645 11.4987 10.8291 11.4987C11.0132 11.4987 11.1798 11.4241 11.3005 11.3034C11.4211 11.1827 11.4957 11.0161 11.4957 10.832C11.4957 10.7436 11.4788 10.6586 11.445 10.5769C11.4112 10.4952 11.363 10.4231 11.3005 10.3606L11.3001 10.3602L8.6693 7.72942Z" fill-rule="evenodd"  fill="currentColor" >
</path>
</svg>
