<svg xmlns="http://www.w3.org/2000/svg" xmlns:xlink="http://www.w3.org/1999/xlink" width="24" height="24" viewBox="0 0 24 24" fill="none">
<path d="M21 12C21 16.9706 16.9706 21 12 21C7.02944 21 3 16.9706 3 12C3 7.02944 7.02944 3 12 3C16.9706 3 21 7.02944 21 12ZM1 12C1 18.0751 5.92487 23 12 23C18.0751 23 23 18.0751 23 12C23 5.92487 18.0751 1 12 1C5.92487 1 1 5.92487 1 12Z" fill-rule="evenodd"  fill="#fff" >
</path>
<path d="M14.1216 8.46477L14.1212 8.46517L8.46477 14.1216C8.371 14.2154 8.29874 14.3235 8.248 14.446C8.19725 14.5686 8.17188 14.6961 8.17188 14.8287C8.17188 15.1049 8.2838 15.3549 8.46477 15.5358C8.64573 15.7168 8.89573 15.8287 9.17188 15.8287C9.44802 15.8287 9.69802 15.7168 9.87898 15.5358L9.87938 15.5354L15.5354 9.87938L15.5358 9.87898C15.7168 9.69802 15.8287 9.44802 15.8287 9.17188C15.8287 8.89573 15.7168 8.64573 15.5358 8.46477C15.3549 8.2838 15.1049 8.17188 14.8287 8.17188C14.6961 8.17188 14.5686 8.19725 14.446 8.248C14.3235 8.29874 14.2154 8.371 14.1216 8.46477Z" fill-rule="evenodd"  fill="#fff" >
</path>
<path d="M15.5353 14.1211L15.5358 14.1216C15.7168 14.3026 15.8287 14.5526 15.8287 14.8287C15.8287 15.1049 15.7168 15.3549 15.5358 15.5358C15.3549 15.7168 15.1049 15.8287 14.8287 15.8287C14.5526 15.8287 14.3026 15.7168 14.1216 15.5358L8.46477 9.87898C8.2838 9.69802 8.17188 9.44802 8.17188 9.17188C8.17188 8.89573 8.2838 8.64573 8.46477 8.46477C8.64573 8.2838 8.89573 8.17188 9.17188 8.17188C9.44802 8.17188 9.69802 8.2838 9.87898 8.46477L15.5353 14.1211Z" fill-rule="evenodd"  fill="#fff" >
</path>
</svg>
