<svg xmlns="http://www.w3.org/2000/svg" xmlns:xlink="http://www.w3.org/1999/xlink" width="24" height="24" viewBox="0 0 24 24" fill="none">
<path d="M7.39541 12.9091L15.4954 20.6234C15.5267 20.6532 15.5594 20.6814 15.5936 20.7081C15.6278 20.7349 15.6632 20.7599 15.7 20.7833C15.7368 20.8067 15.7746 20.8283 15.8136 20.8482C15.8526 20.868 15.8925 20.886 15.9334 20.9022C15.9742 20.9183 16.0158 20.9324 16.0581 20.9447C16.1004 20.9569 16.1433 20.9671 16.1866 20.9753C16.23 20.9835 16.2737 20.9897 16.3177 20.9938C16.3617 20.9979 16.4058 21 16.45 21C16.4942 21 16.5383 20.9979 16.5823 20.9938C16.6263 20.9897 16.67 20.9835 16.7134 20.9753C16.7567 20.9671 16.7996 20.9569 16.8419 20.9447C16.8842 20.9324 16.9258 20.9183 16.9666 20.9022C17.0075 20.886 17.0474 20.868 17.0864 20.8482C17.1254 20.8283 17.1632 20.8067 17.2 20.7833C17.2368 20.7599 17.2722 20.7349 17.3064 20.7081C17.3406 20.6814 17.3733 20.6532 17.4046 20.6234C17.4359 20.5936 17.4655 20.5625 17.4935 20.5299C17.5216 20.4974 17.5479 20.4636 17.5725 20.4286C17.597 20.3936 17.6197 20.3575 17.6406 20.3204C17.6614 20.2832 17.6803 20.2452 17.6973 20.2063C17.7142 20.1674 17.7291 20.1278 17.7419 20.0875C17.7547 20.0472 17.7654 20.0064 17.7741 19.9651C17.7827 19.9238 17.7892 19.8822 17.7935 19.8403C17.7978 19.7984 17.8 19.7564 17.8 19.7143C17.8 19.6722 17.7978 19.6302 17.7935 19.5883C17.7892 19.5464 17.7827 19.5048 17.7741 19.4634C17.7654 19.4222 17.7547 19.3814 17.7419 19.341C17.7291 19.3008 17.7142 19.2612 17.6973 19.2222C17.6803 19.1834 17.6614 19.1454 17.6406 19.1082C17.6197 19.0711 17.597 19.035 17.5725 19C17.5479 18.965 17.5216 18.9312 17.4935 18.8986C17.4655 18.8661 17.4359 18.8349 17.4046 18.8052L10.2592 12L17.4046 5.19485C17.4359 5.16508 17.4655 5.13391 17.4935 5.10137C17.5216 5.06882 17.5479 5.03503 17.5725 5.00002C17.597 4.96501 17.6197 4.92893 17.6406 4.8918C17.6614 4.85466 17.6803 4.81664 17.6973 4.77774C17.7142 4.73883 17.7291 4.69923 17.7419 4.65894C17.7547 4.61864 17.7654 4.57784 17.7741 4.53654C17.7827 4.49524 17.7892 4.45364 17.7935 4.41174C17.7978 4.36983 17.8 4.32782 17.8 4.28571C17.8 4.24361 17.7978 4.2016 17.7935 4.15969C17.7892 4.11779 17.7827 4.07618 17.7741 4.03488C17.7654 3.99358 17.7547 3.95279 17.7419 3.91249C17.7291 3.8722 17.7142 3.8326 17.6973 3.79369C17.6803 3.75479 17.6614 3.71677 17.6406 3.67963C17.6197 3.64249 17.597 3.60642 17.5725 3.57141C17.5479 3.5364 17.5216 3.50261 17.4935 3.47006C17.4655 3.43751 17.4359 3.40635 17.4046 3.37658C17.3419 3.31688 17.2737 3.26358 17.2 3.21668C17.1263 3.16978 17.0485 3.13017 16.9666 3.09787C16.8847 3.06556 16.8003 3.04117 16.7134 3.0247C16.6264 3.00823 16.5387 3 16.45 3C16.3614 3 16.2736 3.00823 16.1866 3.0247C16.0997 3.04117 16.0153 3.06556 15.9334 3.09787C15.8515 3.13017 15.7737 3.16978 15.7 3.21668C15.6263 3.26358 15.5581 3.31688 15.4954 3.37658L7.39541 11.0909C6.8682 11.5929 6.8682 12.4071 7.39541 12.9091Z"   fill="currentColor" >
</path>
</svg>
