<svg xmlns="http://www.w3.org/2000/svg" xmlns:xlink="http://www.w3.org/1999/xlink" width="32" height="32" viewBox="0 0 32 32" fill="none">
<path d="M10 8L12 4L20 4L22 8L10 8Z" stroke="currentColor" stroke-width="2.6666666666666674" stroke-linejoin="round"  >
</path>
<path   fill="currentColor"  d="M4.67207 6.66654L27.3383 6.66654C29.1795 6.66654 30.672 8.15907 30.672 10.0002L30.672 25.9998C30.672 27.8409 29.1795 29.3335 27.3383 29.3335L4.67207 29.3335C2.83094 29.3335 1.33841 27.8409 1.33841 25.9998L1.33841 10.0002C1.33841 8.15907 2.83094 6.66654 4.67207 6.66654ZM4.67207 9.33346C4.30384 9.33346 4.00534 9.63197 4.00534 10.0002L4.00534 25.9998C4.00534 26.368 4.30384 26.6665 4.67207 26.6665L27.3383 26.6665C27.7066 26.6665 28.0051 26.368 28.0051 25.9998L28.0051 10.0002C28.0051 9.63197 27.7066 9.33346 27.3383 9.33346L4.67207 9.33346Z">
</path>
<path d="M16.0052 23.3307C18.9507 23.3307 21.3385 20.9429 21.3385 17.9974C21.3385 15.0519 18.9507 12.6641 16.0052 12.6641C13.0597 12.6641 10.6719 15.0519 10.6719 17.9974C10.6719 20.9429 13.0597 23.3307 16.0052 23.3307Z" stroke="currentColor" stroke-width="2.6666666666666674" stroke-linejoin="round"  >
</path>
</svg>
