<svg xmlns="http://www.w3.org/2000/svg" xmlns:xlink="http://www.w3.org/1999/xlink" width="32" height="32" viewBox="0 0 32 32" fill="none">
<path d="M3.34375 6.66536C3.34375 5.92898 3.9407 5.33203 4.67708 5.33203L27.3438 5.33203C28.0802 5.33203 28.6771 5.92898 28.6771 6.66536L28.6771 25.332C28.6771 26.0684 28.0802 26.6654 27.3438 26.6654L4.67708 26.6654C3.9407 26.6654 3.34375 26.0684 3.34375 25.332L3.34375 6.66536Z" stroke="currentColor" stroke-width="2.666666666666666" stroke-linejoin="round" stroke-linecap="round" >
</path>
<path d="M9.65625 12C10.2085 12 10.6562 11.5523 10.6562 11C10.6562 10.4477 10.2085 10 9.65625 10C9.10398 10 8.65625 10.4477 8.65625 11C8.65625 11.5523 9.10398 12 9.65625 12Z" stroke="currentColor" stroke-width="2.666666666666666" stroke-linejoin="round" stroke-linecap="round" >
</path>
<path d="M10.0104 16L13.3438 18.6667L17.3438 14L28.6771 22.6667L28.6771 25.3333C28.6771 26.0697 28.0802 26.6667 27.3438 26.6667L4.67708 26.6667C3.9407 26.6667 3.34375 26.0697 3.34375 25.3333L3.34375 22.6667L10.0104 16Z" stroke="currentColor" stroke-width="2.666666666666666" stroke-linejoin="round"  >
</path>
</svg>
