<svg xmlns="http://www.w3.org/2000/svg" xmlns:xlink="http://www.w3.org/1999/xlink" width="20" height="20" viewBox="0 0 20 20" fill="none">
<path d="M14.7559 13.5774L14.7553 13.5768L6.42276 5.24424L6.42259 5.24408C6.27178 5.09327 6.06345 5 5.83333 5C5.60322 5 5.39488 5.09327 5.24408 5.24408C5.09327 5.39488 5 5.60322 5 5.83333C5 6.06345 5.09327 6.27178 5.24408 6.42259L5.24424 6.42276L13.5768 14.7553L13.5774 14.7559C13.7282 14.9067 13.9366 15 14.1667 15C14.3968 15 14.6051 14.9067 14.7559 14.7559C14.9067 14.6051 15 14.3968 15 14.1667C15 13.9366 14.9067 13.7282 14.7559 13.5774Z" fill-rule="evenodd"  fill="currentColor" >
</path>
<path d="M13.5774 5.24408L13.577 5.24451L5.24451 13.577L5.24408 13.5774C5.16594 13.6556 5.10572 13.7457 5.06343 13.8478C5.02114 13.9499 5 14.0562 5 14.1667C5 14.3968 5.09327 14.6051 5.24408 14.7559C5.39488 14.9067 5.60322 15 5.83333 15C6.06345 15 6.27179 14.9067 6.42259 14.7559L6.42302 14.7555L14.7555 6.42302L14.7559 6.42259C14.9067 6.27179 15 6.06345 15 5.83333C15 5.60322 14.9067 5.39488 14.7559 5.24408C14.6051 5.09327 14.3968 5 14.1667 5C14.0562 5 13.9499 5.02114 13.8478 5.06343C13.7457 5.10572 13.6556 5.16594 13.5774 5.24408Z" fill-rule="evenodd"  fill="currentColor" >
</path>
</svg>
