<svg xmlns="http://www.w3.org/2000/svg" xmlns:xlink="http://www.w3.org/1999/xlink" width="24" height="24" viewBox="0 0 24 24" fill="none">
<path d="M12 1C9.24 1 7 3.24 7 6C7 8.76 9.24 11 12 11C14.76 11 17 8.76 17 6C17 3.24 14.76 1 12 1ZM12 9C13.66 9 15 7.66 15 6C15 4.34 13.66 3 12 3C10.34 3 9 4.34 9 6C9 7.66 10.34 9 12 9Z" fill-rule="evenodd"  fill="currentColor" >
</path>
<path d="M20 22C20 22.03 20 22.07 20 22.1C20.01 22.13 20.01 22.16 20.02 22.2C20.03 22.23 20.03 22.26 20.04 22.29C20.05 22.32 20.06 22.35 20.08 22.38C20.09 22.41 20.1 22.44 20.12 22.47C20.13 22.5 20.15 22.53 20.17 22.56C20.19 22.58 20.21 22.61 20.23 22.63C20.25 22.66 20.27 22.68 20.29 22.71C20.32 22.73 20.34 22.75 20.37 22.77C20.39 22.79 20.42 22.81 20.44 22.83C20.47 22.85 20.5 22.87 20.53 22.88C20.56 22.9 20.59 22.91 20.62 22.92C20.65 22.94 20.68 22.95 20.71 22.96C20.74 22.97 20.77 22.97 20.8 22.98C20.84 22.99 20.87 22.99 20.9 23C20.93 23 20.97 23 21 23C21.03 23 21.07 23 21.1 23C21.13 22.99 21.16 22.99 21.2 22.98C21.23 22.97 21.26 22.97 21.29 22.96C21.32 22.95 21.35 22.94 21.38 22.92C21.41 22.91 21.44 22.9 21.47 22.88C21.5 22.87 21.53 22.85 21.56 22.83C21.58 22.81 21.61 22.79 21.63 22.77C21.66 22.75 21.68 22.73 21.71 22.71C21.73 22.68 21.75 22.66 21.77 22.63C21.79 22.61 21.81 22.58 21.83 22.56C21.85 22.53 21.87 22.5 21.88 22.47C21.9 22.44 21.91 22.41 21.92 22.38C21.94 22.35 21.95 22.32 21.96 22.29C21.97 22.26 21.97 22.23 21.98 22.2C21.99 22.16 21.99 22.13 22 22.1C22 22.07 22 22.03 22 22C22 16.48 17.52 12 12 12C6.48 12 2 16.48 2 22C2 22.03 2 22.07 2 22.1C2.01 22.13 2.01 22.16 2.02 22.2C2.03 22.23 2.03 22.26 2.04 22.29C2.05 22.32 2.06 22.35 2.08 22.38C2.09 22.41 2.1 22.44 2.12 22.47C2.13 22.5 2.15 22.53 2.17 22.56C2.19 22.58 2.21 22.61 2.23 22.63C2.25 22.66 2.27 22.68 2.29 22.71C2.32 22.73 2.34 22.75 2.37 22.77C2.39 22.79 2.42 22.81 2.44 22.83C2.47 22.85 2.5 22.87 2.53 22.88C2.56 22.9 2.59 22.91 2.62 22.92C2.65 22.94 2.68 22.95 2.71 22.96C2.74 22.97 2.77 22.97 2.8 22.98C2.84 22.99 2.87 22.99 2.9 23C2.93 23 2.97 23 3 23C3.03 23 3.07 23 3.1 23C3.13 22.99 3.16 22.99 3.2 22.98C3.23 22.97 3.26 22.97 3.29 22.96C3.32 22.95 3.35 22.94 3.38 22.92C3.41 22.91 3.44 22.9 3.47 22.88C3.5 22.87 3.53 22.85 3.56 22.83C3.58 22.81 3.61 22.79 3.63 22.77C3.66 22.75 3.68 22.73 3.71 22.71C3.73 22.68 3.75 22.66 3.77 22.63C3.79 22.61 3.81 22.58 3.83 22.56C3.85 22.53 3.87 22.5 3.88 22.47C3.9 22.44 3.91 22.41 3.92 22.38C3.94 22.35 3.95 22.32 3.96 22.29C3.97 22.26 3.97 22.23 3.98 22.2C3.99 22.16 3.99 22.13 4 22.1C4 22.07 4 22.03 4 22C4 17.58 7.58 14 12 14C16.42 14 20 17.58 20 22Z"   fill="currentColor" >
</path>
</svg>
