<svg xmlns="http://www.w3.org/2000/svg" xmlns:xlink="http://www.w3.org/1999/xlink" width="16" height="16" viewBox="0 0 16 16" fill="none">
<path d="M5.6694 2.25106C5.64855 2.2312 5.62674 2.21237 5.60397 2.19457C5.58117 2.17674 5.55751 2.16004 5.533 2.14447C5.50849 2.12887 5.48325 2.11446 5.45727 2.10123C5.43126 2.08797 5.40465 2.07597 5.37744 2.06523C5.3502 2.05449 5.32248 2.04504 5.29428 2.0369C5.26605 2.02876 5.23749 2.02194 5.2086 2.01646C5.17968 2.011 5.15055 2.00689 5.12121 2.00411C5.0919 2.00137 5.0625 2 5.03301 2C5.00352 2 4.97412 2.00137 4.94481 2.00411C4.91547 2.00689 4.88634 2.011 4.85742 2.01646C4.82853 2.02194 4.79997 2.02876 4.77174 2.0369C4.74354 2.04504 4.71582 2.05449 4.68858 2.06523C4.66137 2.07597 4.63476 2.08797 4.60875 2.10123C4.58277 2.11446 4.55752 2.12887 4.53301 2.14447C4.5085 2.16004 4.48485 2.17674 4.46205 2.19457C4.43928 2.21237 4.41747 2.2312 4.39662 2.25106C4.37577 2.27091 4.356 2.29169 4.33731 2.31337C4.31859 2.33509 4.30105 2.35761 4.2847 2.38096C4.26832 2.4043 4.25319 2.42834 4.2393 2.45309C4.22538 2.47786 4.21278 2.5032 4.2015 2.52911C4.19022 2.55506 4.1803 2.58146 4.17175 2.60831C4.1632 2.6352 4.15605 2.6624 4.15029 2.68991C4.14456 2.71746 4.14024 2.7452 4.13733 2.77314C4.13445 2.80106 4.13301 2.82906 4.13301 2.85714C4.13301 2.88523 4.13445 2.91323 4.13733 2.94114C4.14024 2.96909 4.14456 2.99683 4.15029 3.02437C4.15605 3.05189 4.1632 3.07909 4.17175 3.10597C4.1803 3.13283 4.19022 3.15923 4.2015 3.18517C4.21278 3.21109 4.22538 3.23643 4.2393 3.2612C4.25319 3.28594 4.26832 3.30999 4.2847 3.33333C4.30105 3.35667 4.31859 3.3792 4.33731 3.40091C4.356 3.4226 4.37577 3.44337 4.39662 3.46323L9.16022 8L4.39662 12.5368C4.37577 12.5566 4.356 12.5774 4.33731 12.5991C4.31859 12.6208 4.30105 12.6433 4.2847 12.6667C4.26832 12.69 4.25319 12.714 4.2393 12.7388C4.22538 12.7636 4.21278 12.7889 4.2015 12.8148C4.19022 12.8408 4.1803 12.8672 4.17175 12.894C4.1632 12.9209 4.15605 12.9481 4.15029 12.9756C4.14456 13.0032 4.14024 13.0309 4.13733 13.0588C4.13445 13.0868 4.13301 13.1148 4.13301 13.1429C4.13301 13.1709 4.13445 13.1989 4.13733 13.2269C4.14024 13.2548 4.14456 13.2825 4.15029 13.3101C4.15605 13.3376 4.1632 13.3648 4.17175 13.3917C4.1803 13.4185 4.19022 13.4449 4.2015 13.4709C4.21278 13.4968 4.22538 13.5222 4.2393 13.5469C4.25319 13.5717 4.26832 13.5957 4.2847 13.6191C4.30105 13.6424 4.31859 13.6649 4.33731 13.6866C4.356 13.7083 4.37577 13.7291 4.39662 13.7489C4.43841 13.7887 4.48387 13.8243 4.53301 13.8555C4.58212 13.8868 4.63398 13.9132 4.68858 13.9348C4.74318 13.9563 4.79946 13.9726 4.85742 13.9835C4.91538 13.9945 4.97391 14 5.03301 14C5.09211 14 5.15064 13.9945 5.2086 13.9835C5.26656 13.9726 5.32284 13.9563 5.37744 13.9348C5.43204 13.9132 5.48389 13.8868 5.533 13.8555C5.58214 13.8243 5.62761 13.7887 5.6694 13.7489L11.0694 8.60609C11.4209 8.27137 11.4209 7.72863 11.0694 7.39391L5.6694 2.25106Z"   fill="#a6a6a6" >
</path>
</svg>
