<svg xmlns="http://www.w3.org/2000/svg" xmlns:xlink="http://www.w3.org/1999/xlink" width="24" height="24" viewBox="0 0 24 24" fill="none">
<path    stroke="currentColor" stroke-width="2" stroke-linejoin="round" stroke-linecap="round"  d="M4.92893 16.375C3.11929 16.9179 2 17.6679 2 18.4963C2 20.1532 6.47715 21.4963 12 21.4963C17.5229 21.4963 22 20.1532 22 18.4963C22 17.6679 20.8807 16.9179 19.0711 16.375">
</path>
<path d="M12 17.5C12 17.5 18.5 13.252 18.5 8.3409C18.5 4.83892 15.5899 2 12 2C8.41015 2 5.5 4.83892 5.5 8.3409C5.5 13.252 12 17.5 12 17.5Z" stroke="currentColor" stroke-width="2" stroke-linejoin="round"  >
</path>
<path d="M12 11C13.3807 11 14.5 9.8807 14.5 8.5C14.5 7.1193 13.3807 6 12 6C10.6193 6 9.5 7.1193 9.5 8.5C9.5 9.8807 10.6193 11 12 11Z" stroke="currentColor" stroke-width="2" stroke-linejoin="round"  >
</path>
</svg>
