<svg xmlns="http://www.w3.org/2000/svg" xmlns:xlink="http://www.w3.org/1999/xlink" width="20" height="20" viewBox="0 0 20 20" fill="none">
<path d="M16.6663 8.7526C16.6663 4.38035 13.1219 0.835938 8.74967 0.835938C4.37742 0.835938 0.833008 4.38035 0.833008 8.7526C0.833008 13.1249 4.37742 16.6693 8.74967 16.6693C13.1219 16.6693 16.6663 13.1249 16.6663 8.7526ZM2.49967 8.7526C2.49967 12.2044 5.29789 15.0026 8.74967 15.0026C12.2015 15.0026 14.9997 12.2044 14.9997 8.7526C14.9997 5.30082 12.2015 2.5026 8.74967 2.5026C5.29789 2.5026 2.49967 5.30082 2.49967 8.7526Z" fill-rule="evenodd"  fill="#888888" >
</path>
<path d="M10.5142 6.55968C10.5527 6.5985 10.5947 6.63318 10.6401 6.66373C10.6855 6.69429 10.7334 6.72012 10.7839 6.74123C10.8344 6.76233 10.8865 6.77831 10.9401 6.78917C10.9937 6.80002 11.0479 6.80554 11.1026 6.80573C11.1573 6.80591 11.2115 6.80075 11.2652 6.79025C11.3189 6.77976 11.3711 6.76413 11.4217 6.74336C11.4723 6.72259 11.5205 6.69708 11.5661 6.66683C11.6117 6.63659 11.6539 6.60218 11.6927 6.56362C11.7121 6.54438 11.7304 6.52425 11.7478 6.50321C11.7652 6.48217 11.7815 6.46033 11.7967 6.43768C11.812 6.41504 11.8261 6.39171 11.839 6.36768C11.852 6.34366 11.8637 6.31905 11.8742 6.29387C11.8848 6.26869 11.894 6.24306 11.902 6.21697C11.9101 6.19088 11.9168 6.16445 11.9222 6.1377C11.9276 6.11095 11.9317 6.084 11.9344 6.05685C11.9372 6.0297 11.9387 6.00248 11.9387 5.97518C11.9388 5.94789 11.9376 5.92066 11.935 5.89349C11.9324 5.86632 11.9285 5.83934 11.9233 5.81255C11.918 5.78577 11.9115 5.7593 11.9037 5.73316C11.8958 5.70702 11.8867 5.68132 11.8764 5.65607C11.866 5.63082 11.8544 5.60614 11.8417 5.58203C11.8289 5.55791 11.8149 5.53448 11.7998 5.51174C11.7847 5.489 11.7686 5.46705 11.7514 5.44589C11.7341 5.42474 11.7159 5.40448 11.6966 5.38511C10.9173 4.60053 9.85711 4.16406 8.75124 4.16406C7.60454 4.16406 6.62269 4.56974 5.80569 5.3811C5.76687 5.41966 5.73218 5.46164 5.70162 5.50703C5.67106 5.55242 5.64523 5.60035 5.62411 5.65083C5.603 5.70131 5.58701 5.75336 5.57615 5.80699C5.56529 5.86062 5.55976 5.9148 5.55958 5.96951C5.55939 6.02423 5.56454 6.07844 5.57503 6.13214C5.58551 6.18584 5.60114 6.23801 5.6219 6.28863C5.64267 6.33926 5.66818 6.38737 5.69842 6.43297C5.72866 6.47857 5.76306 6.52078 5.80161 6.55961C5.82085 6.57898 5.84098 6.59735 5.86202 6.61474C5.88306 6.63213 5.90489 6.64844 5.92753 6.66368C5.95018 6.67892 5.97351 6.69302 5.99753 6.70597C6.02156 6.71892 6.04616 6.73066 6.07134 6.74119C6.09652 6.75172 6.12215 6.76099 6.14824 6.769C6.17433 6.77702 6.20075 6.78373 6.2275 6.78915C6.25425 6.79457 6.2812 6.79866 6.30835 6.80143C6.33551 6.8042 6.36273 6.80563 6.39002 6.80573C6.41731 6.80582 6.44455 6.80458 6.47172 6.802C6.49889 6.79941 6.52586 6.79551 6.55265 6.79028C6.57944 6.78504 6.6059 6.77851 6.63205 6.77068C6.65819 6.76285 6.68389 6.75375 6.70914 6.7434C6.73439 6.73304 6.75908 6.72147 6.78319 6.70868C6.80731 6.6959 6.83074 6.68197 6.85348 6.66688C6.87622 6.6518 6.89818 6.63564 6.91933 6.6184C6.94049 6.60115 6.96075 6.58292 6.98012 6.56369C7.47215 6.07505 8.06252 5.83073 8.75124 5.83073C9.41315 5.83073 10.0477 6.09007 10.5142 6.55968ZM14.4325 13.2501C14.4132 13.2308 14.393 13.2125 14.3719 13.1952C14.3509 13.1779 14.329 13.1616 14.3063 13.1464C14.2836 13.1313 14.2602 13.1172 14.2362 13.1044C14.2121 13.0915 14.1875 13.0798 14.1623 13.0694C14.1371 13.0589 14.1114 13.0497 14.0853 13.0418C14.0592 13.0338 14.0327 13.0272 14.0059 13.0219C13.9792 13.0165 13.9522 13.0125 13.9251 13.0098C13.8979 13.0071 13.8707 13.0058 13.8434 13.0057C13.8161 13.0057 13.7889 13.007 13.7617 13.0097C13.7346 13.0124 13.7076 13.0163 13.6808 13.0216C13.654 13.027 13.6276 13.0336 13.6015 13.0415C13.5753 13.0494 13.5497 13.0585 13.5244 13.069C13.4992 13.0794 13.4746 13.091 13.4505 13.1039C13.4264 13.1168 13.403 13.1308 13.3803 13.1459C13.3576 13.161 13.3357 13.1773 13.3146 13.1946C13.2935 13.2119 13.2733 13.2302 13.254 13.2495C13.2347 13.2688 13.2164 13.2889 13.199 13.31C13.1817 13.3311 13.1655 13.353 13.1503 13.3757C13.1351 13.3984 13.1211 13.4217 13.1082 13.4458C13.0953 13.4699 13.0836 13.4945 13.0732 13.5197C13.0627 13.5449 13.0535 13.5706 13.0456 13.5967C13.0377 13.6228 13.031 13.6492 13.0257 13.676C13.0203 13.7028 13.0163 13.7297 13.0136 13.7569C13.0109 13.7841 13.0096 13.8113 13.0096 13.8386C13.0095 13.8659 13.0109 13.8931 13.0135 13.9203C13.0162 13.9474 13.0202 13.9744 13.0255 14.0011C13.0308 14.0279 13.0374 14.0544 13.0453 14.0805C13.0532 14.1066 13.0624 14.1323 13.0728 14.1575C13.0832 14.1827 13.0949 14.2074 13.1077 14.2315C13.1206 14.2555 13.1346 14.2789 13.1497 14.3016C13.1649 14.3243 13.1811 14.3462 13.1984 14.3674C13.2157 14.3885 13.234 14.4087 13.2533 14.428L16.7867 17.9655C16.8059 17.9848 16.8261 18.0031 16.8472 18.0204C16.8683 18.0377 16.8902 18.054 16.9129 18.0692C16.9355 18.0844 16.9589 18.0984 16.983 18.1113C17.007 18.1241 17.0317 18.1358 17.0569 18.1463C17.0821 18.1567 17.1078 18.1659 17.1339 18.1739C17.16 18.1818 17.1864 18.1884 17.2132 18.1938C17.2399 18.1991 17.2669 18.2032 17.2941 18.2059C17.3212 18.2085 17.3485 18.2099 17.3757 18.2099C17.403 18.2099 17.4303 18.2086 17.4574 18.2059C17.4846 18.2033 17.5115 18.1993 17.5383 18.194C17.5651 18.1887 17.5915 18.1821 17.6177 18.1741C17.6438 18.1663 17.6695 18.1571 17.6947 18.1466C17.7199 18.1362 17.7446 18.1246 17.7687 18.1117C17.7927 18.0989 17.8161 18.0849 17.8388 18.0697C17.8615 18.0546 17.8834 18.0384 17.9045 18.0211C17.9256 18.0038 17.9459 17.9855 17.9652 17.9661C17.9845 17.9469 18.0028 17.9267 18.0201 17.9056C18.0374 17.8845 18.0537 17.8626 18.0689 17.8399C18.084 17.8173 18.0981 17.7939 18.1109 17.7698C18.1238 17.7458 18.1355 17.7211 18.1459 17.6959C18.1564 17.6707 18.1656 17.6451 18.1735 17.6189C18.1815 17.5928 18.1881 17.5664 18.1934 17.5396C18.1988 17.5129 18.2028 17.4859 18.2055 17.4587C18.2082 17.4316 18.2095 17.4043 18.2096 17.3771C18.2096 17.3498 18.2083 17.3225 18.2056 17.2954C18.2029 17.2682 18.199 17.2413 18.1937 17.2145C18.1884 17.1877 18.1817 17.1613 18.1738 17.1351C18.1659 17.109 18.1568 17.0833 18.1463 17.0581C18.1359 17.0329 18.1243 17.0082 18.1114 16.9841C18.0985 16.9601 18.0845 16.9367 18.0694 16.914C18.0543 16.8913 18.038 16.8694 18.0207 16.8483C18.0034 16.8272 17.9851 16.807 17.9658 16.7876L14.4325 13.2501Z" fill-rule="evenodd"  fill="#888888" >
</path>
</svg>
