<svg xmlns="http://www.w3.org/2000/svg" xmlns:xlink="http://www.w3.org/1999/xlink" width="274.51611328125" height="158.244140625" viewBox="0 0 274.51611328125 158.244140625" fill="none">
<path    stroke="rgba(211, 220, 244, 1.00)" stroke-width="20" stroke-linejoin="round" stroke-linecap="round"  d="M10 139.875L264.516 139.875">
</path>
<rect x="121.61328125" y="118.7421875" width="11.612907409667969" height="17.262664794921875"   fill="url(#linear_fill_78_360)" >
</rect>
<rect  x="113.548828125" y="133.265625" width="27.74193572998047" height="5.0013275146484375" rx="2.5006637573242188"    fill="#5D83FF" >
</rect>
<rect  x="47.7421875" y="14.5234375" width="164.83870697021484" height="104.22133255004883" rx="52.110666275024414"    fill="url(#linear_fill_78_362_0)" >
</rect>
<path   fill="rgba(93, 131, 255, 1.00)"  d="M99.8529 5.52344L160.47 5.52344C194.221 5.52344 221.581 32.8836 221.581 66.6341Q221.581 91.947 203.682 109.846Q185.783 127.745 160.47 127.745L99.8529 127.745C66.1024 127.745 38.7422 100.385 38.7422 66.6341Q38.7422 41.3212 56.6411 23.4223Q74.54 5.52344 99.8529 5.52343L99.8529 5.52344ZM99.8529 23.5234Q81.9958 23.5234 69.369 36.1503Q56.7422 48.7771 56.7422 66.6341C56.7422 90.4435 76.0435 109.745 99.8529 109.745L160.47 109.745Q178.327 109.745 190.954 97.1179Q203.581 84.4911 203.581 66.6341C203.581 42.8247 184.28 23.5234 160.47 23.5234L99.8529 23.5234L99.8529 23.5234Z">
</path>
<ellipse cx="63.06527328491211" cy="27.59000015258789" rx="4.838710784912109" ry="4.840000152587891" stroke="rgba(254, 159, 57, 1.00)" stroke-width="24"      fill="#FFFFFF" >
</ellipse>
<ellipse cx="78.54867172241211" cy="27.59000015258789" rx="4.838710784912109" ry="4.840000152587891" stroke="rgba(93, 131, 255, 1.00)" stroke-width="18" stroke-linejoin="round" stroke-linecap="round"    fill="url(#linear_fill_78_364)" >
</ellipse>
<ellipse cx="93.38753890991211" cy="27.59000015258789" rx="4.838710784912109" ry="4.840000152587891" stroke="rgba(93, 131, 255, 1.00)" stroke-width="18" stroke-linejoin="round" stroke-linecap="round"    fill="url(#linear_fill_78_365)" >
</ellipse>
<path     fill="url(#linear_fill_78_366_0)"  d="M47.2588 102.609L211.452 103.255">
</path>
<path    stroke="rgba(93, 131, 255, 1.00)" stroke-width="18"    d="M47.2588 102.609L211.452 103.255">
</path>
<rect  x="70.3232421875" y="42.2734375" width="43.38710021972656" height="43.39866638183594" rx="21.69355010986328"    fill="#3A3A77" >
</rect>
<path d="M146.67 36.2807C143.528 37.5036 140.379 38.7281 137.344 40.2059C134.847 41.4224 132.515 42.9163 130.108 44.2941C128.192 45.3912 125.086 47.132 125.657 49.8053C126.141 52.1107 129.089 52.2253 130.955 52.0639C133.757 51.8171 136.476 50.9701 139.108 50.0214C142.102 48.9421 145.039 47.7257 148.094 46.8222C148.507 46.7012 148.92 46.5802 149.338 46.4786C149.536 46.4318 149.734 46.3914 149.934 46.3543C150.297 46.285 149.667 46.3689 149.899 46.3543C150.005 46.3543 150.112 46.335 150.221 46.3334C150.296 46.3334 150.383 46.3495 150.45 46.343C150.071 46.3818 150.128 46.2737 150.305 46.343C150.279 46.335 150.253 46.3259 150.228 46.3156C150.202 46.3055 150.177 46.2944 150.152 46.2822C150.127 46.2701 150.103 46.257 150.08 46.243C150.056 46.2289 150.033 46.214 150.011 46.1982C149.988 46.1823 149.966 46.1655 149.945 46.148C149.924 46.1304 149.904 46.112 149.884 46.0928C149.864 46.0736 149.845 46.0536 149.827 46.033C149.809 46.0123 149.792 45.991 149.775 45.9689C149.759 45.9469 149.743 45.9242 149.729 45.9008C149.714 45.8776 149.7 45.8538 149.688 45.8295C149.675 45.8051 149.663 45.7803 149.652 45.755C149.641 45.7297 149.632 45.7041 149.623 45.678C149.614 45.6519 149.606 45.6255 149.6 45.5988C149.593 45.5722 149.587 45.5453 149.583 45.5182C149.578 45.491 149.575 45.4638 149.572 45.4364C149.57 45.409 149.568 45.3816 149.568 45.3541C149.568 45.4928 149.66 44.9233 149.584 45.2315C149.509 45.5396 149.718 45.0072 149.597 45.2202C149.536 45.3283 149.48 45.4396 149.413 45.5428C149.365 45.6219 149.309 45.6945 149.262 45.7735C149.147 45.9607 149.473 45.5364 149.297 45.73C149.139 45.9098 148.971 46.0792 148.792 46.2382L148.649 46.3576C148.409 46.5689 148.85 46.2156 148.68 46.3382C148.56 46.4237 148.442 46.5124 148.323 46.5963C147.854 46.9271 147.367 47.2417 146.9 47.5643C145.797 48.3533 144.759 49.2777 144.357 50.6297C144.089 51.5283 144.16 52.5011 144.789 53.2304C145.288 53.808 146.079 54.0194 146.812 54.021C148.425 54.021 150.038 53.3143 151.489 52.6948C153.023 52.0494 154.513 51.2944 155.984 50.5135C157.144 49.8988 158.321 49.2987 159.465 48.6533C160.154 48.2661 160.836 47.866 161.538 47.503C161.86 47.3417 162.197 47.1707 162.536 47.019C162.297 47.1223 162.734 46.9432 162.815 46.9142C163.021 46.84 163.23 46.7722 163.442 46.7141C163.604 46.6689 163.765 46.6302 163.942 46.5963C164.046 46.577 164.526 46.5302 164.191 46.5528C164.328 46.5431 164.463 46.5254 164.6 46.5221C164.776 46.5221 165.157 46.6109 164.66 46.4963C164.95 46.5641 164.444 46.3737 164.546 46.4318C164.486 46.3912 164.43 46.3463 164.378 46.2969C164.325 46.2475 164.277 46.1944 164.233 46.1373C164.188 46.0803 164.148 46.0203 164.113 45.9571C164.079 45.894 164.049 45.8285 164.025 45.7606C163.936 45.4138 163.983 45.346 163.981 45.4848C163.981 45.1621 164.039 45.0814 164.012 45.2202C164.005 45.2507 163.996 45.2803 163.984 45.3089C163.91 45.5073 164.175 44.9636 164.047 45.1476C163.079 46.5834 161.747 48.6017 162.918 50.3102C164.089 52.0188 166.452 51.8235 168.241 51.5654C169.004 51.4502 169.76 51.296 170.509 51.1027C171.257 50.9094 171.993 50.6781 172.717 50.4086C174.404 49.7924 176.046 49.0599 177.686 48.3274L178.865 47.8015L179.421 47.5579L179.7 47.4353L179.9 47.3498C179.796 47.3949 179.789 47.3966 179.884 47.3498C180.704 47.0271 181.533 46.6915 182.317 46.2866C182.78 46.0478 183.213 45.759 183.663 45.4993C183.878 45.375 184.096 45.254 184.318 45.1427L184.48 45.0637C184.67 44.9701 184.608 45.1024 184.399 45.0943C184.499 45.0773 184.594 45.0467 184.684 45.0024C184.362 45.1879 183.717 44.862 183.475 44.5587C183.452 44.5304 183.431 44.5012 183.412 44.4711C183.392 44.4409 183.374 44.4098 183.357 44.378C183.341 44.3461 183.326 44.3134 183.312 44.2801C183.298 44.2468 183.286 44.213 183.276 44.1786C183.265 44.1441 183.256 44.1092 183.249 44.0741C183.242 44.0388 183.237 44.0032 183.233 43.9674C183.228 43.9316 183.226 43.8957 183.226 43.8598C183.225 43.8238 183.226 43.7878 183.23 43.752C183.271 43.3955 183.18 43.7682 183.181 43.8198C183.181 43.8085 183.354 43.4632 183.25 43.6585C183.223 43.7101 183.199 43.7649 183.171 43.8198C182.965 44.2183 182.715 44.5926 182.471 44.9685C182.25 45.3089 181.987 45.6687 181.891 46.0656C181.845 46.2565 181.81 46.4492 181.784 46.6436C181.757 46.8381 181.74 47.0333 181.733 47.2293C181.725 47.4253 181.727 47.6213 181.739 47.8172C181.751 48.013 181.772 48.2079 181.802 48.4017C182 49.8746 182.721 51.2508 184.071 51.9704C186.3 53.1577 189.042 52.5464 191.386 52.0946C191.892 51.9978 192.399 51.8978 192.909 51.8155C193.025 51.7961 193.147 51.788 193.26 51.7606C192.829 51.8623 193.167 51.7735 193.294 51.7606C193.523 51.7364 193.752 51.7203 193.981 51.7171C194.741 51.7074 195.468 51.0572 195.433 50.2651C195.397 49.4729 194.788 48.8034 193.981 48.8131C192.884 48.8276 191.788 49.0696 190.713 49.2761C190.157 49.3826 189.599 49.4907 189.038 49.581C188.9 49.602 188.763 49.6197 188.626 49.6423C188.423 49.6762 188.909 49.6117 188.704 49.6326L188.499 49.6568C188.213 49.6891 187.928 49.7149 187.641 49.7294C187.381 49.7423 187.12 49.7472 186.86 49.7391C186.734 49.7391 186.609 49.7278 186.484 49.7165C186.423 49.7032 186.361 49.6967 186.299 49.6972C186.52 49.7294 186.573 49.7359 186.46 49.7181L186.326 49.6956C186.098 49.6486 185.874 49.5894 185.652 49.5181C185.428 49.4519 185.737 49.552 185.763 49.5713C185.712 49.5438 185.658 49.5201 185.602 49.5003C185.478 49.439 185.363 49.3632 185.244 49.2906C185.047 49.1712 185.488 49.5132 185.213 49.2583C185.173 49.2228 185.026 49.018 184.98 49.0147C185.005 49.0147 185.176 49.3132 185.046 49.1002C185.009 49.0389 184.967 48.9808 184.93 48.9179C184.892 48.855 184.862 48.784 184.825 48.7211C184.92 48.8824 184.875 48.8534 184.825 48.6953C184.773 48.5456 184.73 48.3934 184.697 48.2387C184.681 48.1613 184.67 48.0774 184.652 48.0032C184.604 47.7902 184.663 48.2452 184.652 48.0274C184.641 47.6853 184.628 47.3562 184.652 47.0142C184.676 46.6722 184.652 47.0642 184.642 47.0642C184.633 47.0642 184.683 46.8771 184.683 46.8512C184.694 46.6399 184.492 47.1933 184.602 47.04C184.712 46.8867 184.781 46.7335 184.875 46.5883C185.117 46.2124 185.368 45.8413 185.586 45.4589C185.852 44.9749 186.107 44.449 186.112 43.8892C186.112 43.8613 186.112 43.8334 186.112 43.8054C186.111 43.7776 186.109 43.7497 186.107 43.7219C186.105 43.6941 186.101 43.6664 186.097 43.6388C186.094 43.611 186.09 43.5834 186.086 43.556C186.08 43.5286 186.075 43.5013 186.068 43.4741C186.062 43.4468 186.055 43.4198 186.047 43.3931C186.04 43.3662 186.032 43.3396 186.023 43.3132C186.013 43.2868 186.004 43.2606 185.994 43.2346C185.983 43.2086 185.972 43.1829 185.962 43.1575C185.95 43.1321 185.938 43.107 185.925 43.0822C185.912 43.0573 185.898 43.0328 185.884 43.0086C185.87 42.9845 185.856 42.9607 185.841 42.9373C185.826 42.9137 185.81 42.8907 185.794 42.8681C185.778 42.8454 185.761 42.8231 185.744 42.8013C185.727 42.7795 185.709 42.7581 185.691 42.7371C185.672 42.7161 185.654 42.6956 185.634 42.6756C185.615 42.6555 185.595 42.6359 185.575 42.6169C185.554 42.5979 185.533 42.5793 185.512 42.5612C185.49 42.5433 185.468 42.5258 185.446 42.5088C185.424 42.4919 185.401 42.4755 185.378 42.4596C185.355 42.4438 185.332 42.4285 185.309 42.4138C185.285 42.3991 185.261 42.3851 185.236 42.3715C185.212 42.3581 185.188 42.3452 185.162 42.3329C185.137 42.3206 185.112 42.3089 185.086 42.2979C185.06 42.2869 185.034 42.2764 185.009 42.2666C184.983 42.257 184.956 42.2479 184.93 42.2394C184.903 42.2309 184.876 42.2231 184.849 42.216C184.822 42.2089 184.795 42.2024 184.768 42.1966C184.74 42.1908 184.713 42.1857 184.686 42.1813C184.658 42.1768 184.63 42.173 184.602 42.17C184.575 42.1669 184.548 42.1645 184.52 42.1627C184.492 42.161 184.464 42.16 184.436 42.1597C183.409 42.1726 182.412 42.8679 181.565 43.3923C181.27 43.5751 180.968 43.7434 180.659 43.8972C180.488 43.9811 180.315 44.0586 180.142 44.1376L179.881 44.2522C180.067 44.1715 179.842 44.2683 179.768 44.299C178.928 44.6474 178.089 44.9991 177.257 45.3686C174.855 46.4334 172.823 47.4417 170.286 48.1613C169.53 48.3784 168.765 48.5559 167.991 48.6937C167.792 48.7292 167.589 48.7501 167.391 48.7889C167.875 48.6969 167.53 48.7695 167.405 48.7889C167.281 48.8082 167.16 48.8147 167.036 48.8244C166.654 48.8566 166.272 48.8615 165.889 48.8389C165.804 48.8389 165.718 48.8179 165.634 48.8147C165.6 48.8147 166.038 48.8953 165.718 48.8147C165.557 48.7776 165.412 48.7308 165.257 48.6872C165.102 48.6437 165.609 48.8824 165.367 48.7292C165.315 48.6915 165.261 48.6576 165.205 48.6275C165.068 48.5614 165.497 48.9244 165.3 48.6872C165.139 48.4968 165.547 49.0228 165.371 48.7808C165.357 48.753 165.342 48.7262 165.326 48.7001C165.226 48.5856 165.418 48.8873 165.415 48.9147C165.407 48.8487 165.39 48.7852 165.363 48.7243C165.297 48.563 165.399 48.9308 165.392 48.9534C165.395 48.9163 165.395 48.8792 165.392 48.8421C165.392 48.805 165.392 48.763 165.392 48.7259C165.392 48.5646 165.488 48.5098 165.365 48.8615C165.425 48.6755 165.475 48.4867 165.513 48.2952C165.559 48.0903 165.334 48.6437 165.495 48.3404C165.546 48.2468 165.594 48.1532 165.647 48.0612C166.055 47.3627 166.65 46.7254 166.831 45.9155C166.836 45.8919 166.842 45.8681 166.847 45.8442C166.853 45.8203 166.857 45.7964 166.86 45.7724C166.864 45.7483 166.868 45.7242 166.871 45.7C166.874 45.6759 166.876 45.6517 166.878 45.6274C166.88 45.6031 166.882 45.5788 166.883 45.5545C166.884 45.53 166.884 45.5057 166.884 45.4814C166.884 45.457 166.884 45.4326 166.883 45.4083C166.882 45.384 166.88 45.3597 166.88 45.3354C166.877 45.311 166.875 45.2868 166.871 45.2626C166.868 45.2384 166.865 45.2143 166.862 45.1903C166.857 45.1662 166.853 45.1422 166.849 45.1184C166.843 45.0945 166.838 45.0707 166.833 45.0471C166.826 45.0234 166.82 44.9998 166.813 44.9764C166.807 44.953 166.8 44.9298 166.792 44.9067C166.784 44.8836 166.775 44.8606 166.766 44.8378C166.758 44.815 166.749 44.7924 166.741 44.7701C166.731 44.7476 166.721 44.7253 166.71 44.7033C166.699 44.6813 166.689 44.6595 166.678 44.6379C166.666 44.6164 166.654 44.5951 166.642 44.5739C166.63 44.5528 166.618 44.532 166.604 44.5114C166.591 44.4908 166.577 44.4705 166.563 44.4504C166.55 44.4303 166.536 44.4105 166.521 44.3911C166.506 44.3716 166.491 44.3525 166.476 44.3336C166.461 44.3147 166.446 44.2962 166.43 44.278C166.413 44.2597 166.397 44.2418 166.38 44.2243C166.362 44.2067 166.345 44.1895 166.328 44.1726C166.311 44.1557 166.293 44.1392 166.275 44.1231C166.256 44.107 166.238 44.0912 166.218 44.0758C166.199 44.0605 166.18 44.0455 166.16 44.0308C166.141 44.0162 166.121 44.0019 166.102 43.9881C166.082 43.9743 166.061 43.9609 166.041 43.9479C166.02 43.9349 165.999 43.9223 165.978 43.9101C165.423 43.5972 164.749 43.5875 164.134 43.6633C161.292 43.986 158.907 45.6816 156.43 46.9803C155.378 47.5321 154.342 48.1096 153.284 48.6517C152.544 49.0292 151.797 49.3955 151.042 49.7407C150.855 49.8262 150.67 49.9021 150.481 49.9924L150.159 50.1279C149.88 50.2489 150.467 50.0037 150.123 50.1424C149.744 50.3038 149.362 50.449 148.975 50.5877C148.333 50.8136 147.679 50.9911 147.012 51.1201C146.802 51.1621 147.467 51.0798 147.123 51.1024L146.934 51.1153C146.812 51.1153 146.691 51.104 146.57 51.1153C146.449 51.1266 146.999 51.2185 146.765 51.1395C146.719 51.1246 146.673 51.1128 146.626 51.104C146.386 51.0556 146.973 51.2653 146.818 51.1879C146.663 51.1104 146.576 50.9814 146.954 51.3153C146.923 51.2879 146.894 51.2605 146.867 51.2314C146.746 51.1008 147.121 51.6057 147.007 51.4025C146.892 51.1992 147.15 51.7429 147.089 51.6025C147.06 51.5331 147.034 51.296 147.079 51.6251C147.125 51.9542 147.117 51.546 147.105 51.4541C147.105 51.4541 147.018 51.8655 147.075 51.6993C147.086 51.6687 147.086 51.6316 147.094 51.6009C147.123 51.4944 147.165 51.3847 147.188 51.2782C147.225 51.0975 147.049 51.5299 147.146 51.3734C147.176 51.3218 147.199 51.2653 147.228 51.2121C147.288 51.1056 147.362 51.0088 147.425 50.9039C147.52 50.7426 147.234 51.1104 147.368 50.9798C147.412 50.9362 147.449 50.8846 147.491 50.8394C147.588 50.7329 147.689 50.6329 147.794 50.5361C147.899 50.4393 147.989 50.3635 148.089 50.2812C148.14 50.236 148.194 50.1946 148.25 50.157C147.971 50.328 148.128 50.2505 148.196 50.2021C148.446 50.0279 148.692 49.8504 148.946 49.681C149.989 48.9792 151.031 48.2936 151.762 47.2497C152.492 46.2059 152.912 44.5071 151.534 43.7488C150.615 43.2406 149.491 43.4632 148.525 43.6972C147.449 43.9602 146.381 44.299 145.333 44.6507C142.234 45.6864 139.236 46.9997 136.121 47.9838C134.673 48.4575 133.198 48.8232 131.696 49.0809L131.476 49.1148L131.355 49.1325C131.194 49.1599 131.726 49.0857 131.55 49.1051C131.339 49.1293 131.128 49.1551 130.915 49.1728C130.482 49.2119 130.048 49.2275 129.613 49.2196C129.404 49.2196 129.194 49.1938 128.984 49.1793C128.747 49.1632 129.134 49.1906 129.146 49.2019C129.097 49.1901 129.048 49.1821 128.999 49.1777C128.881 49.1535 128.763 49.1325 128.647 49.1002C128.558 49.076 128.475 49.0422 128.387 49.018C128.178 48.9599 128.72 49.2083 128.442 49.0341C128.239 48.9066 128.333 48.8728 128.487 49.097C128.461 49.0701 128.432 49.0454 128.402 49.0228C128.258 48.8728 128.436 48.9276 128.484 49.147C128.468 49.1141 128.448 49.0829 128.426 49.0534C128.347 48.9082 128.521 49.1018 128.505 49.247C128.498 49.2096 128.487 49.173 128.473 49.1373C128.434 48.976 128.547 49.1373 128.497 49.3438C128.508 49.2562 128.508 49.1685 128.497 49.0809C128.518 49.1148 128.405 49.4584 128.483 49.2422C128.504 49.186 128.52 49.1284 128.531 49.0696C128.552 48.9082 128.37 49.3664 128.463 49.2309C128.489 49.1906 128.507 49.1438 128.529 49.1035C128.579 49.0147 128.644 48.9421 128.691 48.8486C128.781 48.6969 128.486 49.0776 128.615 48.9518C128.654 48.9115 128.689 48.8663 128.726 48.8244C128.817 48.7259 128.91 48.6324 129.008 48.5404C129.107 48.4484 129.194 48.3791 129.291 48.2903C129.339 48.2484 129.391 48.2081 129.441 48.1677C129.639 48.0064 129.404 48.1871 129.383 48.2097C129.57 47.9951 129.913 47.8289 130.152 47.6724C130.655 47.3498 131.175 47.0368 131.699 46.7383C132.631 46.2091 133.549 45.6735 134.46 45.1088C135.867 44.2416 137.313 43.4479 138.8 42.7276C139.513 42.3813 140.233 42.0473 140.96 41.7257C141.312 41.5644 141.665 41.4143 142.018 41.2643L142.284 41.1497C142.51 41.0545 142.113 41.2223 142.339 41.1271L142.941 40.8771C144.43 40.264 145.931 39.68 147.433 39.1024C148.138 38.8281 148.705 38.1151 148.446 37.3164C148.225 36.6308 147.418 36.0064 146.66 36.3017L146.67 36.2807Z"   fill="#FE9F39" >
</path>
<path d="M94.5041 66.6774C94.6576 66.627 94.8096 66.5722 94.9599 66.5128C95.1102 66.4534 95.2588 66.3897 95.4054 66.3216C95.552 66.2535 95.6963 66.1812 95.8388 66.1046C95.981 66.0281 96.121 65.9473 96.2586 65.8625C96.3962 65.7776 96.531 65.6888 96.6634 65.5961C96.7959 65.5033 96.9254 65.4067 97.052 65.3064C97.1786 65.2059 97.3023 65.1018 97.4228 64.9942C97.5433 64.8865 97.6607 64.7754 97.7747 64.6609C97.8888 64.5462 97.9992 64.4284 98.1063 64.3074C98.2134 64.1863 98.3168 64.0621 98.4165 63.9349C98.5163 63.8077 98.6123 63.6777 98.7044 63.5449C98.7965 63.4121 98.8847 63.2767 98.9688 63.1387C99.0529 63.0006 99.1329 62.8602 99.2089 62.7174C99.2847 62.5747 99.3563 62.4299 99.4238 62.283C99.491 62.1361 99.5541 61.9872 99.6128 61.8366C99.6713 61.6859 99.7255 61.5336 99.775 61.3798C99.8247 61.2259 99.8699 61.0707 99.9104 60.9142C99.9509 60.7577 99.9868 60.6002 100.018 60.4417C100.049 60.283 100.076 60.1236 100.098 59.9635C100.12 59.8033 100.137 59.6426 100.149 59.4814C100.161 59.3202 100.169 59.1587 100.172 58.9971C100.175 58.8355 100.173 58.674 100.166 58.5124C100.16 58.3509 100.149 58.1897 100.133 58.0289C100.117 57.868 100.096 57.7078 100.07 57.5482C100.045 57.3885 100.015 57.2298 99.9796 57.0719C99.9447 56.914 99.9052 56.7573 99.8612 56.6018C99.8171 56.4463 99.7686 56.2922 99.7154 56.1396C99.6623 55.9868 99.6047 55.8358 99.5426 55.6865C99.4805 55.5373 99.4142 55.39 99.3436 55.2446C99.2728 55.0992 99.198 54.956 99.1189 54.815C99.0397 54.6741 98.9565 54.5356 98.8692 54.3996C98.782 54.2634 98.6909 54.13 98.5957 53.9993C98.5005 53.8686 98.4017 53.7409 98.2991 53.616C98.1963 53.4911 98.0902 53.3694 97.9804 53.2507C97.8705 53.1321 97.7575 53.0169 97.6409 52.905C97.5242 52.793 97.4044 52.6846 97.2815 52.5796C97.1584 52.4747 97.0325 52.3735 96.9036 52.2759C96.7747 52.1785 96.643 52.0849 96.5086 51.9952C96.3742 51.9054 96.2371 51.8197 96.0976 51.7381C95.9581 51.6564 95.8165 51.5789 95.6725 51.5056C95.5284 51.4322 95.3823 51.3632 95.2342 51.2986C95.086 51.2338 94.9362 51.1735 94.7846 51.1176C94.6329 51.0616 94.4798 51.0102 94.3251 50.9633C94.1704 50.9166 94.0145 50.8743 93.8573 50.8365C93.7002 50.7988 93.5421 50.7658 93.3829 50.7375C93.2238 50.7091 93.064 50.6854 92.9036 50.6663C92.7431 50.6474 92.5821 50.6331 92.4207 50.6236C92.2594 50.6141 92.0979 50.6094 91.9363 50.6094C91.7747 50.6094 91.6133 50.6141 91.452 50.6236C91.2906 50.6331 91.1296 50.6474 90.9691 50.6663C90.8087 50.6854 90.6489 50.7091 90.4897 50.7375C90.3306 50.7658 90.1725 50.7988 90.0154 50.8365C89.8582 50.8743 89.7023 50.9166 89.5476 50.9633C89.3929 51.0102 89.2397 51.0616 89.0881 51.1176C88.9365 51.1735 88.7866 51.2338 88.6384 51.2986C88.4904 51.3632 88.3443 51.4322 88.2002 51.5056C88.0562 51.5789 87.9145 51.6564 87.775 51.7381C87.6355 51.8197 87.4985 51.9054 87.3641 51.9952C87.2297 52.0849 87.098 52.1785 86.9691 52.2759C86.8402 52.3735 86.7142 52.4747 86.5912 52.5796C86.4683 52.6846 86.3485 52.793 86.232 52.905C86.1153 53.0169 86.0021 53.1321 85.8923 53.2507C85.7825 53.3694 85.6763 53.4911 85.5736 53.616C85.471 53.7409 85.3721 53.8686 85.277 53.9993C85.1818 54.13 85.0906 54.2634 85.0034 54.3996C84.9161 54.5356 84.8329 54.6741 84.7538 54.815C84.6747 54.956 84.5998 55.0992 84.5291 55.2446C84.4584 55.39 84.3921 55.5373 84.33 55.6865C84.268 55.8358 84.2104 55.9868 84.1573 56.1396C84.1041 56.2922 84.0555 56.4463 84.0115 56.6018C83.9674 56.7573 83.928 56.914 83.8931 57.0719C83.8582 57.2298 83.8279 57.3885 83.8025 57.5482C83.777 57.7078 83.7562 57.868 83.7401 58.0288C83.724 58.1897 83.7127 58.3509 83.7062 58.5124C83.6995 58.674 83.6976 58.8355 83.7005 58.9971C83.7034 59.1587 83.7111 59.3202 83.7236 59.4814C83.736 59.6426 83.7531 59.8033 83.775 59.9635C83.7969 60.1236 83.8234 60.283 83.8547 60.4417C83.8859 60.6002 83.9218 60.7577 83.9623 60.9142C84.0028 61.0707 84.048 61.2259 84.0976 61.3798C84.1472 61.5336 84.2013 61.6859 84.2599 61.8366C84.3185 61.9872 84.3815 62.1361 84.4489 62.283C84.5162 62.4299 84.5878 62.5747 84.6638 62.7174C84.7397 62.8602 84.8197 63.0005 84.9039 63.1385C84.988 63.2766 85.0761 63.4121 85.1683 63.5449C85.2604 63.6777 85.3563 63.8077 85.456 63.9349C85.5558 64.0621 85.6592 64.1862 85.7663 64.3072C85.8734 64.4283 85.984 64.5462 86.098 64.6609C86.212 64.7754 86.3294 64.8865 86.4499 64.9942C86.5704 65.1018 86.694 65.2059 86.8207 65.3064C86.9474 65.4067 87.0769 65.5033 87.2092 65.5961C87.3416 65.6888 87.4765 65.7776 87.6141 65.8625C87.7517 65.9473 87.8917 66.0281 88.0339 66.1046C88.1763 66.1812 88.3207 66.2535 88.4673 66.3216C88.614 66.3897 88.7625 66.4534 88.9128 66.5128C89.0631 66.5722 89.215 66.627 89.3686 66.6774C89.1829 66.7036 88.9979 66.734 88.8136 66.7685C88.6293 66.803 88.4459 66.8416 88.2633 66.8844C88.0807 66.9271 87.8992 66.9737 87.7188 67.0246C87.5382 67.0754 87.3589 67.1302 87.1809 67.1891C87.0028 67.2478 86.8261 67.3106 86.6509 67.3772C86.4756 67.4439 86.3019 67.5145 86.1299 67.5889C85.9577 67.6633 85.7874 67.7415 85.6188 67.8236C85.4501 67.9058 85.2834 67.9914 85.1186 68.081C84.9539 68.1703 84.7912 68.2634 84.6305 68.3602C84.4699 68.4569 84.3115 68.5572 84.1552 68.661C83.9991 68.7647 83.8453 68.872 83.6939 68.9827C83.5425 69.0933 83.3936 69.2072 83.2473 69.3245C83.1011 69.4418 82.9575 69.5623 82.8165 69.6861C82.6755 69.8098 82.5374 69.9366 82.4021 70.0665C82.2669 70.1964 82.1346 70.3291 82.0052 70.465C81.8759 70.6007 81.7496 70.7393 81.6263 70.8807C81.5032 71.0222 81.3833 71.1663 81.2665 71.313C81.1497 71.4598 81.0363 71.609 80.9262 71.7608C80.8161 71.9126 80.7094 72.0669 80.6062 72.2234C80.503 72.38 80.4033 72.5388 80.3071 72.6998C80.211 72.8609 80.1185 73.0241 80.0297 73.1891C79.9408 73.3543 79.8556 73.5214 79.7742 73.6904C79.6928 73.8593 79.6153 74.0298 79.5415 74.2023C79.4676 74.3747 79.3977 74.5488 79.3317 74.7243C79.2656 74.8999 79.2035 75.0767 79.1454 75.255C79.0872 75.4332 79.033 75.6128 78.9828 75.7937C78.9327 75.9743 78.8866 76.156 78.8446 76.3388C78.8025 76.5216 78.7646 76.7052 78.7307 76.8898C78.6968 77.0742 78.6671 77.2594 78.6415 77.4451C78.6159 77.6309 78.5945 77.8173 78.5771 78.0039C78.5598 78.1906 78.5467 78.3777 78.5378 78.565C78.5289 78.7523 78.5241 78.9398 78.5234 79.1275L78.5234 85.6711L105.349 85.6711L105.349 79.1275C105.349 78.9398 105.344 78.7523 105.335 78.565C105.326 78.3777 105.313 78.1906 105.296 78.0039C105.278 77.8173 105.257 77.6309 105.231 77.4451C105.206 77.2594 105.176 77.0742 105.142 76.8898C105.108 76.7052 105.07 76.5216 105.028 76.3388C104.986 76.156 104.94 75.9743 104.89 75.7937C104.84 75.6128 104.786 75.4332 104.727 75.255C104.669 75.0767 104.607 74.8999 104.541 74.7243C104.475 74.5488 104.405 74.3747 104.331 74.2023C104.257 74.0298 104.18 73.8593 104.098 73.6904C104.017 73.5214 103.932 73.3543 103.843 73.1891C103.754 73.0241 103.662 72.8609 103.566 72.6998C103.469 72.5388 103.37 72.38 103.266 72.2234C103.163 72.0669 103.056 71.9126 102.946 71.7608C102.836 71.609 102.723 71.4598 102.606 71.313C102.489 71.1663 102.369 71.0222 102.246 70.8807C102.123 70.7393 101.997 70.6007 101.867 70.465C101.738 70.3291 101.606 70.1964 101.471 70.0665C101.335 69.9366 101.197 69.8098 101.056 69.6861C100.915 69.5623 100.772 69.442 100.625 69.3247C100.479 69.2074 100.33 69.0933 100.179 68.9827C100.027 68.872 99.8736 68.7647 99.7175 68.661C99.5612 68.5572 99.4028 68.4569 99.2421 68.3602C99.0815 68.2634 98.9188 68.1703 98.7541 68.081C98.5892 67.9914 98.4225 67.9058 98.2539 67.8236C98.0854 67.7415 97.9149 67.6633 97.7428 67.5889C97.5707 67.5145 97.397 67.4439 97.2217 67.3772C97.0465 67.3106 96.8699 67.2478 96.6918 67.1891C96.5138 67.1302 96.3344 67.0754 96.1539 67.0246C95.9734 66.9737 95.792 66.9271 95.6094 66.8844C95.4268 66.8416 95.2434 66.803 95.0591 66.7685C94.8747 66.734 94.6897 66.7036 94.5041 66.6774Z"   fill="#FFFFFF" >
</path>
<rect  x="127.9033203125" y="60.5" width="59.19354248046875" height="5.8079986572265625" rx="2.9039993286132812"    fill="#5D83FF" >
</rect>
<rect  x="127.9033203125" y="78.25" width="46.45161437988281" height="5.807991027832031" rx="2.9039955139160156"    fill="#5D83FF" >
</rect>
<rect  x="180.484375" y="90.1875" width="10" height="3.2266693115234375" rx="1.6133346557617188"    fill="#FE9F39" >
</rect>
<rect  x="194.8388671875" y="90.1875" width="7.4193572998046875" height="3.2266693115234375" rx="1.6133346557617188"    fill="#FE9F39" >
</rect>
<path d="M199.516 125.844L194.839 140.848L209.516 134.878L199.516 125.844Z"   fill="#FE9F39" >
</path>
<rect  transform="matrix(0.7475941181182861, 0.6641554832458496, -0.6639574766159058, 0.7477700710296631, 244.8134765625, 74.71875)" x="0" y="0" width="13.711293823967647" height="69.52646885768911" rx="6.855646911983824"    fill="#3A3A77" >
</rect>
<path d="M91.8969 147.295C107.381 145.336 122.831 143.224 138.349 141.564C149.586 140.362 160.849 139.422 172.115 138.537C176.865 138.165 181.618 137.766 186.378 137.531L184.978 135.693C185.013 135.592 185.058 135.495 185.113 135.401C185.167 135.309 185.229 135.222 185.3 135.14C185.115 135.34 185.479 134.958 185.482 135.011C185.486 135.064 185.16 135.217 185.116 135.24C184.726 135.461 184.31 135.646 183.902 135.83C183.64 135.946 183.376 136.059 183.113 136.172C183.051 136.205 182.986 136.232 182.918 136.255C182.723 136.335 182.528 136.416 182.331 136.497C181.524 136.827 180.718 137.142 179.899 137.465C175.544 139.165 171.158 140.783 166.784 142.429C161.855 144.284 156.928 146.149 152.045 148.122C148.26 149.653 144.402 151.17 140.823 153.149C139.884 153.669 138.842 154.242 138.136 155.064C137.613 155.673 137.276 156.516 137.713 157.273C138.087 157.928 138.771 158.099 139.458 158.177C140.711 158.319 142.005 158.207 143.26 158.13C145.419 157.996 147.576 157.796 149.731 157.581C158.637 156.694 167.515 155.536 176.392 154.388C192.886 152.257 209.065 148.403 225.276 144.773C227.276 144.327 229.277 143.885 231.279 143.447C233.105 143.05 232.332 140.249 230.508 140.646C213.358 144.373 196.284 148.793 178.873 151.165C170.64 152.287 162.392 153.303 154.128 154.214C149.876 154.682 145.592 155.206 141.313 155.318C140.768 155.332 140.229 155.318 139.686 155.297C139.313 155.281 139.782 155.316 139.765 155.313C139.696 155.306 139.63 155.292 139.565 155.271C139.31 155.171 139.908 155.432 139.776 155.363C139.805 155.382 139.834 155.403 139.861 155.426C139.889 155.447 139.915 155.47 139.941 155.494C139.967 155.517 139.992 155.542 140.016 155.568C140.04 155.594 140.064 155.621 140.086 155.648C140.108 155.675 140.129 155.703 140.149 155.732C140.169 155.761 140.188 155.792 140.206 155.823C140.223 155.853 140.24 155.884 140.255 155.915C140.271 155.947 140.285 155.979 140.298 156.012C140.311 156.045 140.323 156.078 140.334 156.112C140.344 156.145 140.354 156.179 140.362 156.213C140.37 156.248 140.377 156.282 140.383 156.316C140.388 156.352 140.392 156.387 140.395 156.421C140.398 156.457 140.4 156.492 140.4 156.528C140.4 156.563 140.4 156.598 140.397 156.633C140.395 156.668 140.391 156.703 140.386 156.738C140.381 156.773 140.375 156.808 140.368 156.842C140.432 156.554 140.229 157.131 140.287 157.015C140.394 156.802 140.476 156.949 140.189 157.118C140.318 157.009 140.437 156.888 140.545 156.757C140.644 156.662 140.982 156.445 140.545 156.757C140.642 156.689 140.737 156.617 140.834 156.549C141.06 156.387 141.294 156.245 141.529 156.103C142.905 155.3 144.321 154.577 145.778 153.934C146.694 153.511 147.616 153.104 148.544 152.706C148.792 152.598 149.042 152.493 149.29 152.383C149.613 152.248 149.384 152.341 149.713 152.204C150.287 151.964 150.865 151.72 151.44 151.488C156.173 149.552 160.957 147.725 165.737 145.918C170.232 144.223 174.74 142.556 179.224 140.83C180.802 140.222 182.376 139.609 183.934 138.955C184.902 138.554 185.929 138.179 186.811 137.616C187.221 137.355 187.692 136.971 187.779 136.464C187.94 135.59 187.397 134.577 186.379 134.627C176.645 135.111 166.919 136.026 157.213 136.86C144.194 137.981 131.2 139.389 118.236 141.019C109.453 142.119 100.679 143.277 91.8969 144.394C91.1195 144.492 90.4453 144.991 90.4453 145.846C90.4453 146.554 91.1131 147.396 91.8969 147.298L91.8969 147.295Z"   fill="#FE9F39" >
</path>
<path d="M239.033 6.61467L232.097 0L224.355 13.3907L239.033 6.61467Z"   fill="#D3DCF4" >
</path>
<path d="M247.42 16.1328L226.452 18.5528L247.42 25.3288L247.42 16.1328Z"   fill="#D3DCF4" >
</path>
<g opacity="0.3">
<path d="M27.0489 134.571L21.7602 131.52C21.3714 131.289 21.4118 130.889 21.8714 130.623L26.8956 127.719C27.3553 127.454 28.0602 127.425 28.4472 127.656L33.7376 130.705C34.1376 130.936 34.086 131.337 33.6263 131.604L28.6037 134.508C28.144 134.764 27.4489 134.8 27.0489 134.571Z"   fill="#C9CFE5" >
</path>
</g>
<path d="M34.0067 128.604C34.0083 128.588 34.0083 128.572 34.0067 128.556L34.0067 73.2188L21.4922 73.2188L21.4922 128.616C21.4936 128.636 21.4964 128.657 21.5006 128.677C21.5047 128.698 21.5101 128.717 21.517 128.737C21.5238 128.756 21.5319 128.775 21.5412 128.793C21.5506 128.811 21.5611 128.829 21.5728 128.846C21.5846 128.864 21.5973 128.88 21.6112 128.895C21.6251 128.911 21.6399 128.926 21.6557 128.938C21.6715 128.951 21.6882 128.964 21.7056 128.976C21.7231 128.986 21.7412 128.996 21.7599 129.005L27.0486 132.054C27.4486 132.283 28.1438 132.249 28.6019 131.989L33.6244 129.085C33.6481 129.074 33.6711 129.062 33.6933 129.048C33.7156 129.035 33.737 129.021 33.7575 129.005C33.7782 128.988 33.7978 128.971 33.8164 128.953C33.8349 128.935 33.8523 128.916 33.8688 128.896C33.8851 128.876 33.9003 128.855 33.9143 128.832C33.9283 128.811 33.9409 128.788 33.9522 128.764C33.9636 128.74 33.9735 128.716 33.982 128.692C33.9906 128.668 33.9978 128.643 34.0035 128.617L34.0067 128.604Z"   fill="url(#linear_fill_78_384)" >
</path>
<path d="M27.0489 76.6895L21.7602 73.6387C21.3714 73.408 21.4118 73.0063 21.8714 72.7417L26.8956 69.8377C27.3553 69.5715 28.0602 69.5425 28.4472 69.7716C28.7064 69.9254 30.4698 70.9428 33.7376 72.824C34.1376 73.0531 34.086 73.4548 33.6263 73.7194L28.6037 76.6234C28.144 76.8912 27.4489 76.917 27.0489 76.6895Z"   fill="#FAFBFD" >
</path>
<g opacity="0.3">
<path d="M43.3774 137.848L32.4097 131.527C31.5807 131.053 31.6839 130.22 32.6403 129.669L43.0645 123.665C44.0194 123.115 45.4629 123.057 46.2903 123.532L57.258 129.853C58.0838 130.337 57.9806 131.161 57.0257 131.713L46.6065 137.714C45.6452 138.266 44.2048 138.324 43.3774 137.848Z"   fill="#A0B3F8" >
</path>
</g>
<path d="M57.8084 126.454C57.8116 126.421 57.8116 126.388 57.8084 126.354L57.8084 102.562L31.8535 102.562L31.8535 126.474C31.8535 126.775 32.0358 127.056 32.4116 127.28L43.3793 133.598C44.2051 134.082 45.6503 134.016 46.6051 133.466L57.0245 127.458C57.5084 127.18 57.7697 126.829 57.8019 126.49L57.8084 126.454Z"   fill="url(#linear_fill_78_388)" >
</path>
<path d="M43.3774 109.756L32.4097 103.429C31.5807 102.945 31.6839 102.119 32.6403 101.57L43.0645 95.5559C44.0194 95.0074 45.4645 94.9461 46.2903 95.4236L57.258 101.743C58.0838 102.227 57.9806 103.053 57.0273 103.602L46.6065 109.616C45.6452 110.173 44.2048 110.234 43.3774 109.756Z"   fill="url(#linear_fill_78_389)" >
</path>
<defs>
<linearGradient id="linear_fill_78_360" x1="121.61328125" y1="127.37351989746094" x2="133.22618865966797" y2="127.37351989746094" gradientUnits="userSpaceOnUse">
<stop offset="0" stop-color="#EBF4FF"  />
<stop offset="1" stop-color="#EBE1FF"  />
</linearGradient>
<linearGradient id="linear_fill_78_362_0" x1="47.7421875" y1="66.63410377502441" x2="212.58089447021484" y2="66.63410377502441" gradientUnits="userSpaceOnUse">
<stop offset="0" stop-color="#EBF4FF"  />
<stop offset="1" stop-color="#EBE1FF"  />
</linearGradient>
<linearGradient id="linear_fill_78_364" x1="73.7099609375" y1="27.59000015258789" x2="83.38738250732422" y2="27.59000015258789" gradientUnits="userSpaceOnUse">
<stop offset="0" stop-color="#EBF4FF"  />
<stop offset="1" stop-color="#EBEBFF"  />
</linearGradient>
<linearGradient id="linear_fill_78_365" x1="88.548828125" y1="-46.13933550516764" x2="98.22624969482422" y2="-46.13933550516764" gradientUnits="userSpaceOnUse">
<stop offset="0" stop-color="#EBF4FF"  />
<stop offset="1" stop-color="#EBEBFF"  />
</linearGradient>
<linearGradient id="linear_fill_78_366_0" x1="47.2587890625" y1="102.931640625" x2="211.45233154296875" y2="102.931640625" gradientUnits="userSpaceOnUse">
<stop offset="0" stop-color="#EBF4FF"  />
<stop offset="1" stop-color="#EBEBFF"  />
</linearGradient>
<linearGradient id="linear_fill_78_384" x1="21.467994689941406" y1="102.892578125" x2="34.00025177001953" y2="102.892578125" gradientUnits="userSpaceOnUse">
<stop offset="0" stop-color="#EAEFF5"  />
<stop offset="0.99" stop-color="#DEE1F0"  />
</linearGradient>
<linearGradient id="linear_fill_78_388" x1="33.307769775390625" y1="118.533203125" x2="58.998619079589844" y2="118.533203125" gradientUnits="userSpaceOnUse">
<stop offset="0" stop-color="#548FFF"  />
<stop offset="1" stop-color="#949FFF"  />
</linearGradient>
<linearGradient id="linear_fill_78_389" x1="31.85162353515625" y1="102.58984375" x2="57.812904357910156" y2="102.58984375" gradientUnits="userSpaceOnUse">
<stop offset="0" stop-color="#EBF4FF"  />
<stop offset="1" stop-color="#EBEBFF"  />
</linearGradient>
</defs>
</svg>
