<svg xmlns="http://www.w3.org/2000/svg" xmlns:xlink="http://www.w3.org/1999/xlink" width="112" height="112" viewBox="0 0 112 112" fill="none">
<path d="M56.0013 56.0052C90.2235 56.0052 107.335 49.783 107.335 37.3385C107.335 24.8941 90.2235 18.6719 56.0013 18.6719C25.7758 18.6719 8.89811 23.5256 5.36813 33.233C4.90136 34.5167 4.66797 35.8852 4.66797 37.3385C4.66797 43.5193 10.3326 48.3091 21.662 51.7079C31.2116 54.5728 42.658 56.0052 56.0013 56.0052ZM87.6585 31.9089C94.5537 33.9774 98.0013 35.7873 98.0013 37.3385C98.0013 38.8898 94.5537 40.6996 87.6585 42.7682C78.9838 45.3706 68.4314 46.6719 56.0013 46.6719C43.5712 46.6719 33.0188 45.3706 24.3439 42.7682C17.4488 40.6996 14.0013 38.8898 14.0013 37.3385C14.0013 35.7873 17.4488 33.9774 24.3439 31.9089C33.0188 29.3064 43.5712 28.0052 56.0013 28.0052C68.4314 28.0052 78.9838 29.3064 87.6585 31.9089Z" fill-rule="evenodd"  fill="#FEE8C9" >
</path>
<path d="M28.3531 72.2166C27.7697 72.7728 27.0424 73.1794 26.2328 73.375C18.0785 75.5411 14.0013 77.5289 14.0013 79.3385C14.0013 80.8898 17.4488 82.6996 24.3439 84.7682C33.0188 87.3706 43.5713 88.6719 56.0013 88.6719C68.4314 88.6719 78.9838 87.3706 87.6585 84.7682C94.5537 82.6996 98.0013 80.8898 98.0013 79.3385C98.0013 77.5289 93.9242 75.5411 85.7699 73.375C83.7231 72.8807 82.2023 71.0372 82.2023 68.8385C82.2023 67.6103 82.6769 66.4929 83.4529 65.6596C83.5292 65.5776 83.6082 65.4984 83.69 65.4221C84.1218 65.0203 84.6123 64.7115 85.1614 64.4957C85.7102 64.2798 86.2794 64.1719 86.8689 64.1719C87.3202 64.1719 87.7565 64.2359 88.1695 64.3554C100.946 67.7566 107.335 72.751 107.335 79.3385C107.335 91.783 90.2235 98.0052 56.0013 98.0052C42.658 98.0052 31.2116 96.5728 21.662 93.7079C10.3326 90.3091 4.66797 85.5193 4.66797 79.3385C4.66797 72.7509 11.0564 67.7566 23.8332 64.3554C24.2459 64.2359 24.6822 64.1719 25.1334 64.1719C27.7107 64.1719 29.8001 66.2612 29.8001 68.8385C29.8001 70.0769 29.3177 71.2025 28.5307 72.0379C28.4731 72.0991 28.4139 72.1586 28.3531 72.2166Z" fill-rule="evenodd"  fill="#FEE8C9" >
</path>
<path d="M28.3531 51.2166C27.7697 51.7728 27.0424 52.1794 26.2328 52.375C18.0785 54.5411 14.0013 56.5289 14.0013 58.3385C14.0013 59.8898 17.4488 61.6996 24.3439 63.7681C33.0188 66.3706 43.5713 67.6719 56.0013 67.6719C68.4314 67.6719 78.9838 66.3706 87.6585 63.7681C94.5537 61.6996 98.0013 59.8898 98.0013 58.3385C98.0013 56.5289 93.9242 54.5411 85.7699 52.375C83.7231 51.8807 82.2023 50.0372 82.2023 47.8385C82.2023 46.6103 82.6769 45.4929 83.4529 44.6596C83.5292 44.5776 83.6082 44.4984 83.69 44.4221C84.1218 44.0203 84.6123 43.7115 85.1614 43.4957C85.7102 43.2798 86.2794 43.1719 86.8689 43.1719C87.3202 43.1719 87.7565 43.2359 88.1695 43.3554C100.946 46.7566 107.335 51.7509 107.335 58.3385C107.335 70.783 90.2235 77.0052 56.0013 77.0052C42.658 77.0052 31.2116 75.5727 21.662 72.7078C10.3326 69.309 4.66797 64.5193 4.66797 58.3385C4.66797 51.7509 11.0564 46.7565 23.8332 43.3554C24.2459 43.2359 24.6822 43.1719 25.1334 43.1719C27.7107 43.1719 29.8001 45.2612 29.8001 47.8385C29.8001 49.0769 29.3177 50.2025 28.5307 51.0379C28.4731 51.0991 28.4139 51.1586 28.3531 51.2166Z" fill-rule="evenodd"  fill="#FEE8C9" >
</path>
<path d="M26.3324 64.3195C34.7524 66.5484 44.642 67.6628 56.0013 67.6628C67.3624 67.6628 77.2536 66.548 85.6747 64.3183C86.0663 64.2147 86.4676 64.1628 86.5707 64.1628C86.5945 64.1628 86.602 64.1656 86.5903 64.1712C87.0841 64.1416 87.5815 64.1907 88.0636 64.3183C100.911 67.72 107.335 72.7238 107.335 79.3295C107.335 91.7739 90.2235 97.9962 56.0013 97.9962C42.658 97.9962 31.2116 96.5637 21.662 93.6988C10.3326 90.3 4.66797 85.5103 4.66797 79.3295C4.66797 72.7238 11.0916 67.72 23.9389 64.3183L23.9389 64.3183C24.7352 64.1075 25.5314 64.1074 26.3277 64.3183L26.3278 64.3183L26.3279 64.3183L26.3324 64.3195ZM25.1632 73.6555C17.7219 75.7095 14.0013 77.6008 14.0013 79.3295C14.0013 80.8807 17.4488 82.6906 24.3439 84.7591C33.0188 87.3616 43.5713 88.6628 56.0013 88.6628C68.4314 88.6628 78.9838 87.3616 87.6585 84.7591C94.5537 82.6906 98.0013 80.8807 98.0013 79.3295C98.0013 77.6008 94.2807 75.7095 86.8395 73.6555C77.9159 75.8826 67.6365 76.9962 56.0013 76.9962C44.366 76.9962 34.0867 75.8826 25.1632 73.6555Z" fill-rule="evenodd"  fill="#FEE8C9" >
</path>
</svg>
