<svg xmlns="http://www.w3.org/2000/svg" xmlns:xlink="http://www.w3.org/1999/xlink" width="24" height="20" viewBox="0 0 24 20" fill="none">
<path d="M10.375 13.735C10.3663 13.735 10.3587 13.735 10.35 13.735C10.3413 13.735 10.3337 13.73 10.325 13.73C10.3163 13.73 10.3087 13.73 10.3 13.73C10.2913 13.73 10.2786 13.725 10.27 13.725C10.2614 13.725 10.2536 13.725 10.245 13.725C10.2364 13.725 10.2285 13.72 10.22 13.72C10.2114 13.72 10.2035 13.715 10.195 13.715C10.1865 13.715 10.1784 13.71 10.17 13.71C10.1616 13.71 10.1534 13.7 10.145 13.7C10.1367 13.7 10.1283 13.695 10.12 13.695C10.1117 13.695 10.1032 13.685 10.095 13.685C10.0868 13.685 10.0781 13.675 10.07 13.675C10.0619 13.675 10.053 13.665 10.045 13.665C10.037 13.665 10.0279 13.655 10.02 13.655C10.0121 13.655 10.0077 13.645 10 13.645C9.99226 13.645 9.9826 13.63 9.975 13.63C9.9674 13.63 9.96247 13.62 9.955 13.62C9.94753 13.62 9.93733 13.605 9.93 13.605C9.92267 13.605 9.91717 13.59 9.91 13.59C9.90283 13.59 9.897 13.5802 9.89 13.575C9.88298 13.5699 9.87182 13.5654 9.865 13.56C9.85816 13.5546 9.85166 13.5506 9.845 13.545C9.83834 13.5394 9.83147 13.5308 9.825 13.525C9.81853 13.5192 9.81629 13.516 9.81 13.51C9.80373 13.504 9.79608 13.4962 9.79 13.49C9.78392 13.4838 9.77588 13.4764 9.77 13.47C9.76412 13.4636 9.76067 13.4566 9.755 13.45C9.74931 13.4434 9.74045 13.4368 9.735 13.43C9.72955 13.4232 9.72524 13.4169 9.72 13.41C9.71476 13.4031 9.71002 13.3971 9.705 13.39C9.7 13.3829 9.69 13.3772 9.69 13.37C9.69 13.3627 9.675 13.3524 9.675 13.345L9.625 13.235L5.44 7.71C5.43373 7.69771 5.42 7.68291 5.42 7.67C5.42 7.65709 5.41 7.64838 5.41 7.635C5.41 7.62162 5.4 7.60367 5.4 7.59C5.4 7.57633 5.4 7.56379 5.4 7.55C5.4 7.54365 5.4 7.53635 5.4 7.53C5.4 7.52365 5.4 7.52131 5.4 7.515C5.4 7.50869 5.405 7.50127 5.405 7.495C5.405 7.48873 5.41 7.48119 5.41 7.475C5.41 7.46879 5.415 7.46111 5.415 7.455C5.415 7.44887 5.42 7.44603 5.42 7.44C5.42 7.43396 5.425 7.42594 5.425 7.42C5.425 7.41408 5.435 7.4108 5.435 7.405C5.435 7.3992 5.44 7.39066 5.44 7.385C5.44 7.37932 5.45 7.37553 5.45 7.37C5.45 7.36447 5.46 7.36037 5.46 7.355C5.46 7.34963 5.47 7.34019 5.47 7.335C5.47 7.32982 5.48 7.32 5.48 7.32L5.495 7.305L5.505 7.295L5.52 7.28L5.535 7.265C5.535 7.265 5.54498 7.255 5.55 7.255C5.55504 7.255 5.55978 7.245 5.565 7.245C5.57022 7.245 5.57461 7.235 5.58 7.235C5.58539 7.235 5.58945 7.225 5.595 7.225C5.60055 7.225 5.60931 7.215 5.615 7.215C5.62069 7.215 5.62416 7.205 5.63 7.205C5.63582 7.205 5.64404 7.2 5.65 7.2C5.65594 7.2 5.65894 7.19 5.665 7.19C5.67104 7.19 5.67884 7.185 5.685 7.185C5.69114 7.185 5.69878 7.18 5.705 7.18C5.71123 7.18 5.71873 7.18 5.725 7.18C5.73127 7.18 5.73369 7.175 5.74 7.175C5.74633 7.175 5.75365 7.175 5.76 7.175C5.76635 7.175 5.77363 7.175 5.78 7.175C5.78635 7.175 5.79363 7.175 5.8 7.175C5.89006 7.175 5.97296 7.20299 6.04 7.25L10.62 9.98C10.6298 9.98601 10.64 9.99428 10.65 10C10.66 10.0057 10.6698 10.0096 10.68 10.015C10.6902 10.0204 10.6997 10.0248 10.71 10.03C10.7203 10.0352 10.7296 10.045 10.74 10.045C10.7505 10.045 10.7644 10.06 10.775 10.06C10.7856 10.06 10.7943 10.075 10.805 10.075C10.8157 10.075 10.8242 10.085 10.835 10.085C10.8458 10.085 10.8591 10.1 10.87 10.1C10.8809 10.1 10.894 10.11 10.905 10.11C10.916 10.11 10.9239 10.12 10.935 10.12C10.9461 10.12 10.9588 10.13 10.97 10.13C10.9812 10.13 10.9937 10.135 11.005 10.135C11.0163 10.135 11.0237 10.145 11.035 10.145C11.0463 10.145 11.0586 10.15 11.07 10.15C11.0814 10.15 11.0936 10.155 11.105 10.155C11.1164 10.155 11.1285 10.16 11.14 10.16C11.1515 10.16 11.1635 10.16 11.175 10.16C11.1865 10.16 11.1985 10.165 11.21 10.165C11.2215 10.165 11.2335 10.165 11.245 10.165C11.2565 10.165 11.2684 10.165 11.28 10.165C11.2915 10.165 11.3035 10.165 11.315 10.165C11.3265 10.165 11.3335 10.165 11.345 10.165C11.3565 10.165 11.3685 10.16 11.38 10.16C11.3915 10.16 11.4035 10.16 11.415 10.16C11.4265 10.16 11.4386 10.155 11.45 10.155C11.4614 10.155 11.4736 10.15 11.485 10.15C11.4964 10.15 11.5087 10.14 11.52 10.14C11.5313 10.14 11.5388 10.135 11.55 10.135C11.5613 10.135 11.5738 10.125 11.585 10.125C11.5962 10.125 11.6089 10.12 11.62 10.12C11.6311 10.12 11.644 10.11 11.655 10.11C11.666 10.11 11.6741 10.095 11.685 10.095L21.815 4C19.6396 1.58 16.0626 0 12.01 0C5.37768 0 0 4.22901 0 9.445C0 12.291 1.61836 14.854 4.15 16.585C4.15635 16.585 4.16378 16.6 4.17 16.6C4.17623 16.6 4.17892 16.61 4.185 16.61C4.19108 16.61 4.19904 16.625 4.205 16.625C4.21094 16.625 4.2142 16.64 4.22 16.64C4.2258 16.64 4.23435 16.6499 4.24 16.655C4.24565 16.6601 4.24951 16.6647 4.255 16.67C4.26049 16.6753 4.26468 16.6796 4.27 16.685C4.27534 16.6904 4.27986 16.6994 4.285 16.705C4.29016 16.7106 4.305 16.7143 4.305 16.72C4.305 16.7257 4.315 16.7291 4.315 16.735C4.315 16.7409 4.33 16.749 4.33 16.755C4.33 16.761 4.345 16.7688 4.345 16.775C4.345 16.7812 4.36 16.7837 4.36 16.79C4.36 16.7963 4.37 16.8036 4.37 16.81C4.37 16.8164 4.38 16.8235 4.38 16.83C4.38 16.8366 4.395 16.8433 4.395 16.85C4.395 16.8567 4.405 16.8632 4.405 16.87C4.405 16.8768 4.415 16.8831 4.415 16.89C4.415 16.8969 4.425 16.903 4.425 16.91C4.425 16.917 4.43 16.9279 4.43 16.935C4.43 16.942 4.44 16.9478 4.44 16.955C4.44 16.9621 4.45 16.9678 4.45 16.975C4.45 16.9822 4.455 16.9927 4.455 17C4.455 17.0073 4.46 17.0126 4.46 17.02C4.46 17.0274 4.465 17.0326 4.465 17.04C4.465 17.0474 4.47 17.0576 4.47 17.065C4.47 17.0725 4.475 17.0775 4.475 17.085C4.475 17.0925 4.48 17.1025 4.48 17.11C4.48 17.1175 4.48 17.1224 4.48 17.13C4.48 17.1376 4.485 17.1474 4.485 17.155C4.485 17.1626 4.485 17.1674 4.485 17.175C4.485 17.1826 4.485 17.1924 4.485 17.2C4.485 17.2411 4.47704 17.2795 4.47 17.32C4.46296 17.3605 4.4577 17.4009 4.445 17.44L3.9 19.345C3.87399 19.435 3.835 19.5269 3.835 19.62C3.835 19.83 4.01486 20 4.235 20C4.32105 20 4.39194 19.9698 4.465 19.93L7.095 18.5C7.29314 18.392 7.50385 18.325 7.735 18.325C7.85807 18.325 7.97194 18.339 8.085 18.37C9.3108 18.703 10.6351 18.89 12.005 18.89C18.6373 18.89 24 14.714 24 9.5C24 7.919 23.5165 6.37799 22.645 5.07L10.825 13.605L10.735 13.65C10.707 13.6635 10.6793 13.6747 10.65 13.685C10.6207 13.6953 10.5903 13.7031 10.56 13.71C10.5297 13.7169 10.5009 13.73 10.47 13.73C10.4391 13.73 10.4061 13.735 10.375 13.735Z"   fill="#15BA11" >
</path>
</svg>
