<svg xmlns="http://www.w3.org/2000/svg" xmlns:xlink="http://www.w3.org/1999/xlink" width="22" height="22" viewBox="0 0 22 22" fill="none">
<g  clip-path="url(#clip-path-81_35)">
<path d="M22.0011 15.0612L22.0011 4.2295C22.0011 4.16028 21.9994 4.0911 21.9959 4.02196C21.9925 3.95282 21.9873 3.88382 21.9804 3.81494C21.9738 3.74606 21.9652 3.67737 21.9551 3.6089C21.945 3.54043 21.933 3.47226 21.9194 3.40439C21.9059 3.3365 21.8909 3.26898 21.8739 3.20184C21.8569 3.1347 21.8384 3.06803 21.8185 3.0018C21.7983 2.93556 21.7766 2.86986 21.7531 2.8047C21.7297 2.73954 21.7048 2.67498 21.6784 2.61102C21.652 2.54708 21.6238 2.48383 21.5944 2.42127C21.5647 2.35871 21.5336 2.29689 21.5009 2.23586C21.4682 2.17482 21.4341 2.11462 21.3985 2.05526C21.3629 1.99589 21.3259 1.93744 21.2874 1.87989C21.2489 1.82235 21.2091 1.76578 21.1678 1.71019C21.1266 1.6546 21.084 1.60005 21.0401 1.54655C20.9961 1.49305 20.9509 1.44066 20.9044 1.38938C20.858 1.3381 20.8102 1.28799 20.7613 1.23905C20.7123 1.19011 20.6622 1.1424 20.6109 1.09592C20.5596 1.04943 20.5072 1.00424 20.4537 0.960332C20.4002 0.916425 20.3456 0.873853 20.29 0.832623C20.2344 0.791392 20.1778 0.751547 20.1203 0.713092C20.0627 0.674637 20.0043 0.637618 19.9449 0.602031C19.8855 0.566446 19.8253 0.532338 19.7643 0.499705C19.7032 0.467075 19.6414 0.435961 19.5788 0.406362C19.5163 0.376763 19.453 0.348717 19.389 0.322223C19.3251 0.29573 19.2605 0.270819 19.1954 0.247494C19.1302 0.224168 19.0645 0.202456 18.9983 0.182355C18.932 0.162253 18.8653 0.143789 18.7982 0.12696C18.731 0.110132 18.6635 0.0949596 18.5956 0.0814445C18.5278 0.0679293 18.4596 0.0560869 18.3911 0.0459173C18.3226 0.0357479 18.254 0.0272635 18.1851 0.0204641C18.1162 0.0136648 18.0472 0.00855877 17.978 0.00514604C17.9089 0.0017333 17.8397 1.79528e-05 17.7705 0L4.2295 0C4.1603 3.59595e-05 4.09112 0.00176874 4.022 0.00519834C3.95289 0.00862793 3.88388 0.0137502 3.815 0.0205652C3.74614 0.0273803 3.67748 0.0358798 3.60901 0.0460636C3.54056 0.0562476 3.47239 0.068104 3.40452 0.0816325C3.33665 0.095161 3.26915 0.110345 3.20201 0.127186C3.13487 0.144026 3.0682 0.162502 3.00199 0.182614C2.93575 0.202726 2.87008 0.224449 2.80491 0.247784C2.73975 0.271118 2.67521 0.296037 2.61127 0.322538C2.54736 0.349039 2.48411 0.377094 2.42155 0.406699C2.35898 0.436305 2.29719 0.467425 2.23616 0.500062C2.17512 0.532699 2.11494 0.566814 2.05558 0.602403C1.99622 0.637991 1.93778 0.675015 1.88023 0.713475C1.8227 0.751934 1.76613 0.791779 1.71055 0.833012C1.65496 0.874244 1.60042 0.916816 1.54692 0.960725C1.49343 1.00464 1.44104 1.04983 1.38976 1.09631C1.33848 1.14279 1.28837 1.1905 1.23944 1.23944C1.1905 1.28838 1.14279 1.33848 1.09631 1.38976C1.04983 1.44104 1.00463 1.49343 0.960725 1.54692C0.916816 1.60042 0.874244 1.65496 0.833011 1.71055C0.791779 1.76613 0.751934 1.8227 0.713475 1.88024C0.675015 1.93778 0.637991 1.99622 0.602402 2.05558C0.566814 2.11494 0.532699 2.17512 0.500062 2.23616C0.467425 2.2972 0.436305 2.35898 0.406699 2.42155C0.377094 2.48411 0.349039 2.54736 0.322538 2.61128C0.296037 2.67521 0.271118 2.73975 0.247784 2.80491C0.224449 2.87008 0.202726 2.93575 0.182614 3.00199C0.162502 3.06821 0.144026 3.13487 0.127186 3.20201C0.110345 3.26915 0.0951609 3.33665 0.0816325 3.40452C0.068104 3.47239 0.0562476 3.54056 0.0460638 3.60901C0.0358798 3.67748 0.0273803 3.74614 0.0205652 3.815C0.0137502 3.88388 0.00862795 3.95289 0.00519834 4.022C0.00176874 4.09112 3.59614e-05 4.1603 0 4.2295L0 17.7705C1.7984e-05 17.8397 0.00173348 17.9089 0.0051465 17.978C0.0085595 18.0472 0.0136659 18.1162 0.0204657 18.185C0.0272656 18.2539 0.0357506 18.3226 0.0459209 18.3911C0.0560912 18.4595 0.0679344 18.5277 0.0814505 18.5956C0.0949667 18.6634 0.11014 18.731 0.126969 18.7981C0.143799 18.8652 0.162265 18.9319 0.182368 18.9981C0.20247 19.0644 0.224185 19.1301 0.247513 19.1952C0.270838 19.2604 0.29575 19.3249 0.322246 19.3889C0.348741 19.4528 0.376789 19.5161 0.406388 19.5786C0.435987 19.6412 0.467105 19.703 0.499737 19.7641C0.53237 19.8251 0.566481 19.8853 0.602069 19.9447C0.637658 20.004 0.67468 20.0625 0.713137 20.12C0.751594 20.1776 0.791439 20.2341 0.832672 20.2897C0.873907 20.3453 0.916478 20.3999 0.960388 20.4534C1.0043 20.5069 1.0495 20.5593 1.09598 20.6105C1.14246 20.6618 1.19017 20.7119 1.23911 20.7609C1.28805 20.8098 1.33817 20.8575 1.38945 20.904C1.44074 20.9505 1.49313 20.9957 1.54663 21.0396C1.60013 21.0835 1.65468 21.1261 1.71027 21.1673C1.76586 21.2086 1.82243 21.2484 1.87997 21.2869C1.93752 21.3253 1.99598 21.3623 2.05534 21.3979C2.1147 21.4335 2.17491 21.4676 2.23594 21.5003C2.29698 21.5329 2.35879 21.5641 2.42135 21.5935C2.48392 21.6232 2.54717 21.6513 2.6111 21.6777C2.67506 21.7042 2.7396 21.7291 2.80476 21.7525C2.86993 21.7759 2.93562 21.7976 3.00186 21.8176C3.0681 21.8378 3.13478 21.8563 3.20192 21.873C3.26906 21.89 3.33657 21.905 3.40444 21.9186C3.47233 21.9321 3.5405 21.9439 3.60897 21.954C3.67744 21.9641 3.7461 21.9727 3.81498 21.9796C3.88386 21.9862 3.95287 21.9914 4.02198 21.9948C4.09112 21.9983 4.1603 22 4.2295 22L17.7705 22C17.8319 22 17.8933 21.9987 17.9546 21.9959C18.0159 21.9931 18.0772 21.989 18.1383 21.9837C18.1995 21.9783 18.2605 21.9716 18.3214 21.9637C18.3822 21.9557 18.4429 21.9463 18.5034 21.9355C18.5638 21.925 18.624 21.913 18.6839 21.8997C18.7439 21.8863 18.8035 21.8717 18.8628 21.8558C18.9221 21.8399 18.9811 21.8228 19.0396 21.8045C19.0982 21.786 19.1563 21.7663 19.214 21.7452C19.2717 21.7244 19.3289 21.702 19.3856 21.6786C19.4424 21.6552 19.4986 21.6307 19.5543 21.6047C19.6099 21.5787 19.665 21.5516 19.7195 21.5233C19.774 21.4949 19.8278 21.4656 19.881 21.4349C19.9342 21.4043 19.9867 21.3725 20.0385 21.3396C20.0904 21.3066 20.1414 21.2726 20.1918 21.2375C20.2421 21.2023 20.2917 21.1661 20.3404 21.1288C20.3892 21.0915 20.4371 21.0532 20.4842 21.0138C20.5313 20.9744 20.5775 20.934 20.6229 20.8926C20.6682 20.8512 20.7126 20.8089 20.7561 20.7655C20.7996 20.7222 20.8422 20.678 20.8837 20.6328C20.9253 20.5876 20.9659 20.5415 21.0054 20.4946C21.045 20.4476 21.0836 20.3999 21.121 20.3513C21.1585 20.3026 21.195 20.2533 21.2303 20.203C21.2656 20.1528 21.2999 20.1019 21.333 20.0502C21.3661 19.9985 21.3981 19.9461 21.429 19.893C21.4598 19.84 21.4895 19.7862 21.5181 19.7319C21.5467 19.6775 21.574 19.6225 21.6 19.567C21.626 19.5114 21.6509 19.4553 21.6747 19.3987C21.6984 19.342 21.7207 19.2849 21.742 19.2273C21.7632 19.1697 21.7832 19.1116 21.8019 19.0531C21.8206 18.9946 21.8378 18.9358 21.8539 18.8765C21.87 18.8173 21.8848 18.7577 21.8984 18.6979C21.9119 18.638 21.9242 18.5778 21.9351 18.5174C20.8131 18.0312 15.9511 15.9324 13.4178 14.7224C11.4906 17.0577 9.471 18.4591 6.4284 18.4591C3.38581 18.4591 1.3541 16.5847 1.5983 14.2901C1.7589 12.7853 2.79181 10.3246 7.2765 10.7459C9.6415 10.9681 10.7228 11.4092 12.6511 12.0461C13.1494 11.1309 13.5641 10.1244 13.8787 9.0541L5.3295 9.0541L5.3295 8.2071L9.56009 8.2071L9.56009 6.68469L4.4 6.68469L4.4 5.753L9.559 5.753L9.559 3.5585C9.559 3.5585 9.60519 3.21531 9.98469 3.21531L12.1 3.21531L12.1 5.753L17.6 5.753L17.6 6.68581L12.1 6.68581L12.1 8.206L16.5869 8.206C16.5386 8.40596 16.4868 8.60497 16.4314 8.80307C16.376 9.00118 16.3171 9.19821 16.2546 9.39421C16.1922 9.59022 16.1264 9.78504 16.057 9.9787C15.9876 10.1723 15.9148 10.3647 15.8386 10.5558C15.7624 10.7468 15.6828 10.9364 15.5999 11.1247C15.5169 11.3129 15.4306 11.4996 15.341 11.6847C15.2514 11.8699 15.1585 12.0534 15.0623 12.2352C14.9661 12.417 14.8668 12.5971 14.7642 12.7754C16.0677 13.2484 22 15.0612 22 15.0612L22.0011 15.0612ZM6.09181 17.0071C2.8765 17.0071 2.36831 14.9776 2.53881 14.1295C2.7071 13.2847 3.63881 12.1825 5.42631 12.1825C7.48 12.1825 9.32031 12.7083 11.5291 13.7841C9.97809 15.8037 8.07181 17.0071 6.09181 17.0071Z"   fill="#009FE8" >
</path>
</g>
<defs>
<clipPath id="clip-path-81_35">
<path d="M0 22L22 22L22 0L0 0L0 22Z" fill="white"/>
</clipPath>
</defs>
</svg>
