<svg xmlns="http://www.w3.org/2000/svg" xmlns:xlink="http://www.w3.org/1999/xlink" width="48" height="48" viewBox="0 0 48 48" fill="none">
<circle cx="24" cy="24" r="24"   fill="#1ED76D" >
</circle>
<path   fill-rule="evenodd"  fill="#FFFFFF"  d="M32.6656 22.4741C32.5629 16.6719 27.8274 12 22.0007 12C16.1096 12 11.334 16.7756 11.334 22.6667C11.334 25.4467 12.3975 27.9784 14.1399 29.8769L13.3409 34.6838L18.084 32.6466C20.1738 33.3415 22.146 33.5152 24.0007 33.1677">
</path>
<path d="M28.544 16.0093C30.3576 17.7929 31.2869 19.9548 31.3319 22.4951C31.3444 23.2206 31.9364 23.8049 32.6649 23.8049C33.3999 23.8049 33.996 23.2102 33.9983 22.4758L33.9983 22.4718L33.9983 22.4715L33.9983 22.4667C33.9983 22.4604 33.9982 22.4542 33.998 22.4479L33.998 22.4439C33.9392 19.1788 32.7445 16.4002 30.4139 14.108C28.0794 11.812 25.2748 10.6641 22 10.6641C15.3726 10.6641 10 16.0366 10 22.6641C10 25.5555 10.9069 28.093 12.7208 30.2766L12.025 34.4626C11.8521 35.5026 12.8977 36.3223 13.8665 35.9063L18.1545 34.0646C20.2739 34.6979 22.2959 34.8365 24.2208 34.4803C24.8493 34.3755 25.3292 33.8311 25.3333 33.1738L25.3333 33.1657L25.3333 33.1646L25.3333 33.1565C25.3287 32.4241 24.7335 31.8318 24 31.8318L23.9995 31.8318L23.9914 31.8318C23.9019 31.8323 23.8146 31.8418 23.7302 31.8591C22.1084 32.1582 20.3664 31.998 18.504 31.3787C18.3491 31.3273 18.1874 31.305 18.1453 31.3069C18.1357 31.3073 18.1323 31.3089 18.1366 31.3117C17.9394 31.3038 17.7413 31.3398 17.5571 31.4189L15.0556 32.4934L15.4546 30.093C15.5218 29.6882 15.399 29.275 15.1216 28.9727C13.485 27.1894 12.6667 25.0866 12.6667 22.6641C12.6667 17.5094 16.8453 13.3307 22 13.3307C24.547 13.3307 26.7284 14.2236 28.544 16.0093Z" fill-rule="evenodd"  fill="#FFFFFF" >
</path>
<path d="M18.084 21.6473C18.9124 21.6473 19.584 20.9707 19.584 20.1361C19.584 19.3016 18.9124 18.625 18.084 18.625C17.2556 18.625 16.584 19.3016 16.584 20.1361C16.584 20.9707 17.2556 21.6473 18.084 21.6473Z"   fill="#1ED76D" >
</path>
<path d="M24.084 21.6473C24.9124 21.6473 25.584 20.9707 25.584 20.1361C25.584 19.3016 24.9124 18.625 24.084 18.625C23.2556 18.625 22.584 19.3016 22.584 20.1361C22.584 20.9707 23.2556 21.6473 24.084 21.6473Z"   fill="#1ED76D" >
</path>
<path   fill-rule="evenodd"  fill="#FFFFFF"  d="M33.8405 34.6195C32.675 35.4868 31.2305 36 29.666 36C25.8 36 22.666 32.866 22.666 29C22.666 25.134 25.8 22 29.666 22C33.532 22 36.666 25.134 36.666 29C36.666 30.0665 36.4275 31.0773 36.0009 31.9819">
</path>
<path d="M35.1752 34.6218C35.1736 35.064 34.9567 35.4555 34.6239 35.697C33.1544 36.7862 31.5022 37.3307 29.6673 37.3307C25.0649 37.3307 21.334 33.5998 21.334 28.9974C21.334 24.395 25.0649 20.6641 29.6673 20.6641C34.2697 20.6641 38.0007 24.395 38.0007 28.9974C38.0007 30.2333 37.7411 31.4071 37.222 32.5186C37.0149 32.9863 36.5466 33.3126 36.0023 33.3126C35.2774 33.3126 34.6876 32.7342 34.6694 32.0137C34.6691 32.0022 34.6689 31.9907 34.6689 31.9793L34.669 31.9696C34.6704 31.7607 34.72 31.5632 34.8071 31.3876C35.1583 30.6342 35.334 29.8375 35.334 28.9974C35.334 25.8678 32.7969 23.3307 29.6673 23.3307C26.5377 23.3307 24.0007 25.8678 24.0007 28.9974C24.0007 32.127 26.5377 34.6641 29.6673 34.6641C30.9149 34.6641 32.0377 34.2943 33.0358 33.5548C33.2585 33.3855 33.536 33.2847 33.837 33.2836L33.8413 33.2836L33.8419 33.2836L33.8467 33.2836C34.5792 33.2862 35.1726 33.8795 35.1752 34.6121L35.1752 34.6164L35.1752 34.6169L35.1752 34.6218Z" fill-rule="evenodd"  fill="#FFFFFF" >
</path>
<path   fill-rule="evenodd"  fill="#FFFFFF"  d="M36.0022 31.9844L36.6673 36.0025L33.8418 34.622">
</path>
<path d="M36.0015 30.6484C36.6713 30.6484 37.2257 31.1422 37.3205 31.7856L37.9821 35.7822C38.159 36.8511 37.0548 37.6735 36.0813 37.1979L33.2821 35.8303C33.1484 35.7684 33.0266 35.6851 32.9212 35.5846C32.9055 35.5696 32.8902 35.5543 32.8753 35.5386C32.6483 35.3002 32.5087 34.9779 32.5078 34.6229L32.5078 34.6194L32.5078 34.6162L32.5078 34.6161C32.5087 34.2542 32.6537 33.9263 32.8885 33.6866C32.895 33.6799 32.9016 33.6733 32.9083 33.6668C33.1481 33.4319 33.4762 33.2869 33.8382 33.2861L33.8411 33.2861L33.8441 33.2861C34.0628 33.2866 34.2691 33.3397 34.451 33.4334L34.929 33.667L34.6902 32.2242C34.6758 32.1456 34.6682 32.0646 34.6682 31.9818C34.6682 31.2454 35.2652 30.6484 36.0015 30.6484Z" fill-rule="evenodd"  fill="#FFFFFF" >
</path>
<path d="M31.791 28.5323C31.1697 28.5323 30.666 28.0249 30.666 27.399C30.666 26.773 31.1697 26.2656 31.791 26.2656C32.4123 26.2656 32.916 26.773 32.916 27.399C32.916 28.0249 32.4123 28.5323 31.791 28.5323Z"   fill="#1ED76D" >
</path>
<path d="M27.291 28.5323C26.6697 28.5323 26.166 28.0249 26.166 27.399C26.166 26.773 26.6697 26.2656 27.291 26.2656C27.9123 26.2656 28.416 26.773 28.416 27.399C28.416 28.0249 27.9123 28.5323 27.291 28.5323Z"   fill="#1ED76D" >
</path>
</svg>
