<svg xmlns="http://www.w3.org/2000/svg" xmlns:xlink="http://www.w3.org/1999/xlink" width="48" height="48" viewBox="0 0 48 48" fill="none">
<circle cx="24" cy="24" r="24"   fill="#E5E5E5" >
</circle>
<path d="M13.334 28L34.6673 28L34.6673 36C34.6673 36.7364 34.0704 37.3333 33.334 37.3333L14.6673 37.3333C13.9309 37.3333 13.334 36.7364 13.334 36L13.334 28Z"   fill="#CCCCCC" >
</path>
<path d="M34.6667 26.6641L13.3333 26.6641C12.5207 26.7403 12.0763 27.1848 12 27.9974L12 35.9974C12 37.4702 13.1939 38.6641 14.6667 38.6641L33.3333 38.6641C34.8061 38.6641 36 37.4702 36 35.9974L36 27.9974C36 27.261 35.4031 26.6641 34.6667 26.6641ZM14.6667 29.3307L14.6667 35.9974L33.3333 35.9974L33.3333 29.3307L14.6667 29.3307Z" fill-rule="evenodd"  fill="#CCCCCC" >
</path>
<path d="M33.3333 12.0026L33.3333 28.0026L36 28.0026L36 12.0026C36 10.5298 34.8061 9.33594 33.3333 9.33594L14.6667 9.33594C13.1939 9.33594 12 10.5298 12 12.0026L12 28.0026L14.6667 28.0026L14.6667 12.0026L33.3333 12.0026Z" fill-rule="evenodd"  fill="#CCCCCC" >
</path>
<path d="M25.334 31.3359C25.4215 31.3359 25.5082 31.3445 25.5941 31.3616C25.68 31.3786 25.7633 31.4039 25.8442 31.4374C25.9251 31.4709 26.002 31.512 26.0747 31.5606C26.1475 31.6093 26.2149 31.6646 26.2768 31.7265C26.3387 31.7884 26.394 31.8557 26.4426 31.9285C26.4913 32.0013 26.5323 32.0781 26.5658 32.159C26.5993 32.2399 26.6246 32.3233 26.6417 32.4091C26.6588 32.495 26.6673 32.5817 26.6673 32.6693C26.6673 32.7568 26.6588 32.8435 26.6417 32.9294C26.6246 33.0153 26.5993 33.0986 26.5658 33.1795C26.5323 33.2604 26.4913 33.3372 26.4426 33.41C26.394 33.4828 26.3387 33.5502 26.2768 33.6121C26.2149 33.674 26.1475 33.7293 26.0747 33.7779C26.002 33.8265 25.9251 33.8676 25.8442 33.9011C25.7633 33.9346 25.68 33.9599 25.5941 33.977C25.5082 33.9941 25.4215 34.0026 25.334 34.0026L22.6673 34.0026C22.5798 34.0026 22.4931 33.9941 22.4072 33.977C22.3213 33.9599 22.238 33.9346 22.1571 33.9011C22.0762 33.8676 21.9994 33.8265 21.9266 33.7779C21.8538 33.7293 21.7864 33.674 21.7245 33.6121C21.6626 33.5502 21.6073 33.4828 21.5587 33.41C21.5101 33.3372 21.469 33.2604 21.4355 33.1795C21.402 33.0986 21.3767 33.0153 21.3596 32.9294C21.3425 32.8435 21.334 32.7568 21.334 32.6693C21.334 32.5817 21.3425 32.495 21.3596 32.4091C21.3767 32.3233 21.402 32.2399 21.4355 32.159C21.469 32.0781 21.5101 32.0013 21.5587 31.9285C21.6073 31.8557 21.6626 31.7884 21.7245 31.7265C21.7864 31.6646 21.8538 31.6093 21.9266 31.5606C21.9994 31.512 22.0762 31.4709 22.1571 31.4374C22.238 31.4039 22.3213 31.3786 22.4072 31.3616C22.4931 31.3445 22.5798 31.3359 22.6673 31.3359L25.334 31.3359Z" fill-rule="evenodd"  fill="#E5E5E5" >
</path>
</svg>
