<svg xmlns="http://www.w3.org/2000/svg" xmlns:xlink="http://www.w3.org/1999/xlink" width="50" height="50" viewBox="0 0 50 50" fill="none">
<path d="M45.4545 25C45.4545 36.2968 36.2968 45.4545 25 45.4545C13.7033 45.4545 4.54545 36.2968 4.54545 25C4.54545 13.7033 13.7033 4.54545 25 4.54545C36.2968 4.54545 45.4545 13.7033 45.4545 25ZM25 50C38.807 50 50 38.807 50 25C50 11.1929 38.807 0 25 0C11.1929 0 0 11.1929 0 25C0 38.807 11.1929 50 25 50Z" fill-rule="evenodd"  fill="url(#linear_fill_98_67)" >
</path>
<path d="M25.0002 23.8636C28.1381 23.8636 30.682 21.3198 30.682 18.1818C30.682 15.0439 28.1381 12.5 25.0002 12.5C21.8622 12.5 19.3184 15.0439 19.3184 18.1818C19.3184 21.3198 21.8622 23.8636 25.0002 23.8636Z"   fill="url(#linear_fill_98_68)" >
</path>
<path d="M28.4095 18.1811C28.4095 20.0639 26.8832 21.5902 25.0004 21.5902C23.1176 21.5902 21.5914 20.0639 21.5914 18.1811C21.5914 16.2983 23.1176 14.772 25.0004 14.772C26.8832 14.772 28.4095 16.2983 28.4095 18.1811ZM17.0459 18.1811C17.0459 22.5743 20.6073 26.1357 25.0004 26.1357C29.3936 26.1357 32.955 22.5743 32.955 18.1811C32.955 13.7879 29.3936 10.2266 25.0004 10.2266C20.6073 10.2266 17.0459 13.7879 17.0459 18.1811Z" fill-rule="evenodd"  fill="url(#linear_fill_98_69)" >
</path>
<path d="M6.84278 41.2798C6.84287 41.2227 6.84506 41.1661 6.8493 41.11C7.08925 37.5547 8.51181 34.5528 11.117 32.1044C13.7402 29.639 16.8526 28.4062 20.4541 28.4062L29.545 28.4062C33.1414 28.4062 36.2506 29.6359 38.8725 32.0953C41.4759 34.5372 42.901 37.5325 43.148 41.0812C43.1523 41.1372 43.1546 41.1938 43.1548 41.2508L43.155 41.26C43.155 42.5121 42.1423 43.5278 40.8914 43.5327L40.8823 43.5327C39.6728 43.5327 38.6839 42.588 38.6135 41.3962C38.2245 35.7665 35.2017 32.9517 29.545 32.9517L20.4541 32.9517C14.7853 32.9517 11.7621 35.7733 11.3844 41.4166C11.3155 42.609 10.3275 43.5548 9.11826 43.5563L9.1155 43.5563L9.11274 43.5563C7.85997 43.5548 6.84464 42.5397 6.84278 41.287L6.84277 41.2838L6.84277 41.2835L6.84278 41.2798Z" fill-rule="evenodd"  fill="url(#linear_fill_98_70)" >
</path>
<defs>
<linearGradient id="linear_fill_98_67" x1="0" y1="25" x2="50" y2="25" gradientUnits="userSpaceOnUse">
<stop offset="0" stop-color="#FFBC5E"  />
<stop offset="1" stop-color="#C99C38"  />
</linearGradient>
<linearGradient id="linear_fill_98_68" x1="19.318359375" y1="18.181640625" x2="30.681991577148438" y2="18.181640625" gradientUnits="userSpaceOnUse">
<stop offset="0" stop-color="#FFBC5E"  />
<stop offset="1" stop-color="#C99C38"  />
</linearGradient>
<linearGradient id="linear_fill_98_69" x1="17.0458984375" y1="18.181640625" x2="32.954986572265625" y2="18.181640625" gradientUnits="userSpaceOnUse">
<stop offset="0" stop-color="#FFBC5E"  />
<stop offset="1" stop-color="#C99C38"  />
</linearGradient>
<linearGradient id="linear_fill_98_70" x1="6.8427734375" y1="35.98046875" x2="43.15504455566406" y2="35.98046875" gradientUnits="userSpaceOnUse">
<stop offset="0" stop-color="#FFBC5E"  />
<stop offset="1" stop-color="#C99C38"  />
</linearGradient>
</defs>
</svg>
