<svg xmlns="http://www.w3.org/2000/svg" xmlns:xlink="http://www.w3.org/1999/xlink" width="12" height="12" viewBox="0 0 12 12" fill="none">
<g  clip-path="url(#clip-path-52_6029)">
<g mask="url(#mask-52_6031)">
<path d="M9.94575 2.10913C8.3838 0.547183 5.85154 0.546958 4.28932 2.10845L4.28896 2.10882L4.28864 2.10912C3.5367 2.85857 3.11434 3.87736 3.1172 4.93903C3.1172 6.04286 3.50768 6.98526 4.28865 7.76623C5.85081 9.3284 8.38357 9.3284 9.94575 7.76623C11.5079 6.20405 11.5079 3.67129 9.94575 2.10913ZM4.1172 4.93633C4.11505 4.14115 4.43174 3.37811 4.99508 2.8169L4.99575 2.81623C6.1674 1.64459 8.067 1.64459 9.23865 2.81623C10.4103 3.98788 10.4103 5.88748 9.23865 7.05913C8.067 8.23078 6.1674 8.23078 4.99575 7.05913C4.41005 6.47343 4.1172 5.76583 4.1172 4.93633Z" fill-rule="evenodd"  fill="#FF0D8A" >
</path>
</g>
<g mask="url(#mask-52_6031)">
<path d="M3.20479 9.50546L4.4413 10.743C4.46452 10.7662 4.48977 10.7869 4.51705 10.8052C4.54433 10.8234 4.57314 10.8388 4.60348 10.8514C4.63381 10.864 4.66507 10.8735 4.69725 10.8799C4.72945 10.8863 4.76197 10.8895 4.7948 10.8895C4.82763 10.8895 4.86015 10.8864 4.89235 10.88C4.92455 10.8736 4.95582 10.8641 4.98615 10.8516C5.0165 10.839 5.04532 10.8236 5.07262 10.8054C5.09992 10.7871 5.12519 10.7664 5.14842 10.7432C5.17164 10.72 5.19237 10.6948 5.21062 10.6675C5.22887 10.6402 5.24429 10.6114 5.25687 10.5811C5.26944 10.5507 5.27893 10.5195 5.28535 10.4873C5.29177 10.4551 5.29498 10.4226 5.295 10.3897C5.29502 10.3569 5.29182 10.3244 5.28542 10.2922C5.27904 10.26 5.26957 10.2287 5.25702 10.1984C5.24446 10.168 5.22907 10.1392 5.21085 10.1119C5.19262 10.0846 5.1719 10.0593 5.1487 10.0361L3.91217 8.79863L4.97342 7.73822C4.99664 7.71502 5.01737 7.68977 5.03562 7.66248C5.05387 7.63519 5.06929 7.60638 5.08187 7.57605C5.09444 7.54573 5.10393 7.51447 5.11035 7.48227C5.11677 7.45007 5.11998 7.41756 5.12 7.38473C5.12002 7.3519 5.11682 7.31938 5.11042 7.28718C5.10404 7.25498 5.09457 7.22371 5.08202 7.19337C5.06946 7.16303 5.05407 7.13421 5.03585 7.10691C5.01762 7.0796 4.9969 7.05434 4.9737 7.03112C4.96212 7.01953 4.95 7.00854 4.93735 6.99815C4.9247 6.98776 4.91157 6.97801 4.89795 6.96891C4.88433 6.9598 4.87031 6.95139 4.85588 6.94366C4.84144 6.93594 4.82666 6.92894 4.81153 6.92267C4.79639 6.91639 4.78099 6.91088 4.76533 6.90612C4.74966 6.90136 4.7338 6.89738 4.71775 6.89418C4.70168 6.89098 4.6855 6.88857 4.6692 6.88696C4.6529 6.88535 4.63657 6.88454 4.6202 6.88453C4.60382 6.88452 4.58747 6.88532 4.57117 6.88692C4.55489 6.88852 4.53872 6.89091 4.52265 6.8941C4.50658 6.89729 4.49072 6.90126 4.47505 6.906C4.45937 6.91075 4.44397 6.91626 4.42885 6.92252C4.41372 6.92878 4.39892 6.93576 4.38447 6.94348C4.37002 6.95119 4.35599 6.95959 4.34237 6.96869C4.32876 6.97778 4.31562 6.98752 4.30295 6.9979C4.29028 7.00829 4.27816 7.01926 4.26657 7.03084L3.20535 8.09124L1.96869 6.85362C1.95712 6.84203 1.945 6.83104 1.93235 6.82065C1.91969 6.81026 1.90656 6.80051 1.89295 6.79141C1.87934 6.7823 1.86531 6.77389 1.85087 6.76616C1.83643 6.75844 1.82165 6.75144 1.80652 6.74517C1.7914 6.73889 1.776 6.73338 1.76033 6.72862C1.74466 6.72386 1.7288 6.71988 1.71274 6.71668C1.69668 6.71348 1.6805 6.71107 1.6642 6.70946C1.64791 6.70785 1.63157 6.70704 1.6152 6.70703C1.59882 6.70702 1.58248 6.70782 1.56619 6.70942C1.54989 6.71102 1.53371 6.71341 1.51765 6.7166C1.50159 6.71979 1.48572 6.72376 1.47005 6.7285C1.45437 6.73325 1.43897 6.73876 1.42384 6.74502C1.40871 6.75128 1.39392 6.75826 1.37947 6.76598C1.36503 6.77369 1.351 6.78209 1.33738 6.79119C1.32376 6.80028 1.31062 6.81002 1.29796 6.8204C1.28529 6.83078 1.27317 6.84176 1.26159 6.85334C1.23836 6.87654 1.21762 6.90179 1.19937 6.92908C1.18112 6.95637 1.16571 6.98518 1.15314 7.01551C1.14056 7.04583 1.13106 7.0771 1.12464 7.10929C1.11823 7.14149 1.11501 7.174 1.115 7.20683C1.11499 7.23967 1.11818 7.27218 1.12457 7.30438C1.13096 7.33659 1.14043 7.36786 1.15299 7.39819C1.16554 7.42853 1.18093 7.45735 1.19916 7.48465C1.21739 7.51196 1.2381 7.53722 1.26131 7.56045L2.49796 8.79807L1.08408 10.2108C1.0725 10.2224 1.06151 10.2345 1.05112 10.2472C1.04073 10.2598 1.03098 10.273 1.02188 10.2866C1.01277 10.3002 1.00436 10.3142 0.996633 10.3287C0.988908 10.3431 0.981908 10.3579 0.975635 10.373C0.969363 10.3881 0.963848 10.4035 0.959088 10.4192C0.954328 10.4349 0.950347 10.4507 0.947145 10.4668C0.943945 10.4828 0.941539 10.499 0.939928 10.5153C0.938316 10.5316 0.937507 10.548 0.9375 10.5643C0.937493 10.5807 0.938289 10.5971 0.939888 10.6134C0.941488 10.6296 0.943882 10.6458 0.94707 10.6619C0.950258 10.6779 0.954226 10.6938 0.958973 10.7095C0.963721 10.7252 0.969225 10.7406 0.975485 10.7557C0.981745 10.7708 0.988733 10.7856 0.996448 10.8001C1.00416 10.8145 1.01256 10.8285 1.02166 10.8422C1.03075 10.8558 1.04049 10.8689 1.05087 10.8816C1.06125 10.8942 1.07223 10.9064 1.08381 10.918C1.10701 10.9412 1.13226 10.9619 1.15955 10.9802C1.18684 10.9984 1.21565 11.0138 1.24598 11.0264C1.2763 11.039 1.30757 11.0485 1.33976 11.0549C1.37196 11.0613 1.40447 11.0645 1.4373 11.0645C1.47013 11.0645 1.50265 11.0614 1.53485 11.055C1.56705 11.0486 1.59832 11.0391 1.62866 11.0266C1.659 11.014 1.68782 10.9986 1.71512 10.9804C1.74243 10.9621 1.76769 10.9414 1.79092 10.9182L3.20479 9.50546Z"   fill="#FF0D8A" >
</path>
</g>
</g>
<defs>
<clipPath id="clip-path-52_6029">
<path d="M0 12L12 12L12 0L0 0L0 12Z" fill="white"/>
</clipPath>
<mask id="mask-52_6031" style="mask-type:alpha" maskUnits="userSpaceOnUse">
<path d="M0 0L12 0L12 12L0 12L0 0Z"   fill="#FF0D8A" >
</path>
</mask>
</defs>
</svg>
