<svg xmlns="http://www.w3.org/2000/svg" xmlns:xlink="http://www.w3.org/1999/xlink" width="71" height="71" viewBox="0 0 71 71" fill="none">
<path d="M70.5 35.5C70.5 16.17 54.83 0.5 35.5 0.5C16.17 0.5 0.5 16.17 0.5 35.5C0.5 54.83 16.17 70.5 35.5 70.5C54.83 70.5 70.5 54.83 70.5 35.5ZM2.53883 35.5C2.53883 17.296 17.296 2.53883 35.5 2.53883C53.7039 2.53883 68.4611 17.296 68.4611 35.5C68.4611 53.7039 53.7039 68.4611 35.5 68.4611C17.296 68.4611 2.53883 53.7039 2.53883 35.5Z" stroke="rgba(255, 141, 14, 1)" stroke-width="1"    fill-rule="evenodd"  fill="#FF8D0E" >
</path>
<path d="M49.9354 57.734C46.4227 60.0073 42.4268 61.4253 38.2656 61.8626L38.4077 63.2144C42.7814 62.7548 46.9817 61.2645 50.6738 58.8751C54.3609 56.4774 57.4268 53.2428 59.6261 49.4357L58.4491 48.7559C56.357 52.3775 53.4405 55.4547 49.9354 57.734Z" stroke="rgba(255, 141, 14, 1)" stroke-width="1"      fill="#FF8D0E" >
</path>
<path d="M21.0646 13.266C24.5773 10.9927 28.5732 9.57468 32.7344 9.13735L32.5923 7.78561C28.2186 8.24523 24.0183 9.73548 20.3262 12.1249C16.6391 14.5226 13.5732 17.7572 11.3739 21.5643L12.5509 22.2441C14.643 18.6225 17.5595 15.5453 21.0646 13.266Z" stroke="rgba(255, 141, 14, 1)" stroke-width="1"      fill="#FF8D0E" >
</path>
<g >
<path     fill="#FF8D0E"  d="M21.7456 47.866C22.7734 48.2702 24.0524 48.9175 24.6996 49.4306L25.6906 47.7869C24.9937 47.2839 23.727 46.722 22.7014 46.3535L21.7456 47.866ZM14.2523 39.9432C14.1983 41.1937 13.6349 43.0339 12.9658 44.3071C13.4233 44.5233 14.2091 44.9564 14.5855 45.2564C15.4 43.6592 16.0075 41.4794 16.1722 39.6846L14.2523 39.9432ZM16.3507 42.7778C16.3449 44.5917 15.7848 46.7256 15.0833 48.2946C15.5508 48.5604 16.5025 49.2488 16.8432 49.5509C17.0669 48.9783 17.2725 48.3424 17.4402 47.6728L20.7922 53.4786L22.3857 52.5587L17.9776 44.9238C18.0314 44.5048 18.0771 44.0719 18.103 43.669L18.863 44.9853L24.3918 41.7933L25.0318 42.9018L19.6416 46.0138L20.5056 47.5103L25.8958 44.3983L27.5278 47.225C27.6398 47.419 27.5945 47.5006 27.3728 47.6286C27.1729 47.7624 26.405 48.2243 25.7159 48.5667C26.1797 48.8901 26.7854 49.4272 27.1187 49.8445C28.1718 49.2365 28.9317 48.7608 29.35 48.2052C29.7602 47.6358 29.6865 47.1241 29.2145 46.3066L27.5585 43.4383L29.1797 42.5023L28.3157 41.0058L26.6945 41.9418L26.0545 40.8333L27.8004 39.8253L26.9284 38.315L23.2703 40.427L22.5743 39.2215L25.5812 37.4855L24.7092 35.9751L21.7023 37.7111L20.8303 36.2008L19.1814 37.1528L20.0534 38.6631L17.2129 40.3031L18.0849 41.8135L20.9254 40.1735L21.6214 41.379L18.1158 43.403L18.1437 42.5554L16.3507 42.7778ZM30.7351 30.7963C31.0497 31.0212 31.4181 31.3073 31.7209 31.5758L26.5802 34.5438L28.0842 37.1488L29.747 36.1889L29.163 35.1773L37.6431 30.2813L38.2271 31.2928L39.9592 30.2928L38.4552 27.6878L33.7301 30.4158C33.3596 30.094 32.6809 29.6545 32.209 29.3172L30.7351 30.7963ZM32.9992 40.0939L35.6458 38.5659L36.2378 39.5913L33.5912 41.1193L32.9992 40.0939ZM32.2072 38.7221L31.6232 37.7106L34.2698 36.1826L34.8538 37.1941L32.2072 38.7221ZM39.9967 36.0539L40.5887 37.0793L37.9698 38.5913L37.3778 37.5659L39.9967 36.0539ZM39.2047 34.6821L36.5858 36.1941L36.0019 35.1826L38.6207 33.6706L39.2047 34.6821ZM32.7578 33.5637L33.4458 34.7554L29.2057 37.2034L33.1977 44.1177L34.7912 43.1977L34.4232 42.5603L37.0698 41.0323L38.3818 43.3048L40.1138 42.3048L38.8018 40.0323L41.4207 38.5203L41.7487 39.0885L43.4253 38.1205L39.4733 31.2754L35.1778 33.7554L34.4898 32.5637L32.7578 33.5637ZM40.9375 24.4995L42.4655 27.1461L40.7612 28.1301L41.6492 29.6681L43.3535 28.6841L44.7616 31.1228L43.1171 32.6265L44.4666 33.972L45.7056 32.7579L47.3775 35.6539C47.4895 35.8479 47.4464 35.9652 47.2524 36.0772C47.0861 36.1732 46.5042 36.5092 45.9419 36.8153C46.3898 37.111 46.9816 37.6561 47.2712 38.0617C48.255 37.4937 48.8961 37.0681 49.2152 36.5328C49.5503 36.0253 49.4627 35.5216 49.0068 34.7318L47.0788 31.3924L48.363 30.0967L47.297 28.6983L46.1587 29.7989L44.9748 27.7481L46.3465 26.9561L45.4585 25.4181L44.0868 26.2101L42.5588 23.5635L40.9375 24.4995ZM51.9765 35.3635C52.0878 34.9482 52.3909 34.3853 54.1326 31.994C53.8058 31.6839 53.3029 31.0689 53.0032 30.6138L51.9573 31.9382L49.3893 27.4903L50.8858 26.6263L49.9978 25.0883L48.5013 25.9523L46.1413 21.8646L44.4785 22.8246L50.2705 32.8567C50.6145 33.4525 50.5614 34.0005 50.3963 34.3544C50.8355 34.5073 51.6118 35.0198 51.9765 35.3635ZM52.4593 21.6718C52.4228 22.3764 52.2935 23.2086 52.1344 24.021L49.7104 19.8225L48.0199 20.7985L53.8759 30.9414C54.9079 32.7288 55.602 33.0671 56.8352 32.3551C57.0569 32.2271 57.6943 31.8591 57.916 31.7311C59.08 31.0591 58.9144 29.9723 57.7649 27.6614C57.2517 27.8284 56.3807 27.8878 55.8167 27.807C56.805 29.5828 57.0515 30.1056 56.8298 30.2336C56.7189 30.2976 56.3309 30.5216 56.2478 30.5696C56.0399 30.6896 55.9424 30.6166 55.5664 29.9654L53.3344 26.0994C53.7141 24.901 54.0766 23.4169 54.3427 22.1178L52.4593 21.6718Z">
</path>
</g>
</svg>
