<svg xmlns="http://www.w3.org/2000/svg" xmlns:xlink="http://www.w3.org/1999/xlink" width="71" height="71" viewBox="0 0 71 71" fill="none">
<path d="M70.5 35.5C70.5 16.17 54.83 0.5 35.5 0.5C16.17 0.5 0.5 16.17 0.5 35.5C0.5 54.83 16.17 70.5 35.5 70.5C54.83 70.5 70.5 54.83 70.5 35.5ZM2.53883 35.5C2.53883 17.296 17.296 2.53883 35.5 2.53883C53.7039 2.53883 68.4611 17.296 68.4611 35.5C68.4611 53.7039 53.7039 68.4611 35.5 68.4611C17.296 68.4611 2.53883 53.7039 2.53883 35.5Z" stroke="rgba(30, 199, 52, 1)" stroke-width="1"    fill-rule="evenodd"  fill="#1EC734" >
</path>
<path d="M49.9354 57.734C46.4227 60.0073 42.4268 61.4253 38.2656 61.8626L38.4077 63.2144C42.7814 62.7548 46.9817 61.2645 50.6738 58.8751C54.3609 56.4774 57.4268 53.2428 59.6261 49.4357L58.4491 48.7559C56.357 52.3775 53.4405 55.4547 49.9354 57.734Z" stroke="rgba(30, 199, 52, 1)" stroke-width="1"      fill="#1EC734" >
</path>
<path d="M21.0646 13.266C24.5773 10.9927 28.5732 9.57468 32.7344 9.13735L32.5923 7.78561C28.2186 8.24523 24.0183 9.73548 20.3262 12.1249C16.6391 14.5226 13.5732 17.7572 11.3739 21.5643L12.5509 22.2441C14.643 18.6225 17.5595 15.5453 21.0646 13.266Z" stroke="rgba(30, 199, 52, 1)" stroke-width="1"      fill="#1EC734" >
</path>
<g >
<path     fill="#1EC734"  d="M12.6969 41.8573L13.6489 43.5062L22.2399 38.5462L23.9439 41.4976L17.6254 45.1456L16.5374 43.2612L14.8192 44.2532L18.5552 50.7241C19.7792 52.8441 20.8949 52.9205 23.583 51.3685C24.2065 51.0085 27.5459 49.0805 28.211 48.6965C30.7468 47.2325 30.9164 46.1184 29.7151 43.3017C29.1742 43.4847 28.2521 43.6476 27.6625 43.6185C28.6227 45.7615 28.6228 46.2418 27.1818 47.0738C26.3642 47.5458 23.3297 49.2978 22.6091 49.7138C21.0849 50.5938 20.7774 50.605 20.2734 49.7321L18.5694 46.7807L24.8879 43.1327L25.2639 43.7839L26.996 42.7839L23.02 35.8973L12.6969 41.8573ZM26.3378 34.924C27.5713 35.1725 29.2638 35.544 30.1387 35.9073L30.6743 34.0831C29.7739 33.7715 28.0857 33.4714 26.8842 33.2783L26.3378 34.924ZM31.6971 36.9105L28.3577 38.8385L29.2457 40.3765L30.9916 39.3685L32.9036 42.6802C32.4678 43.3014 32.1125 44.19 31.8548 45.1517L33.6743 45.9672C33.7822 44.778 33.9673 43.5626 34.4107 43.3066C34.7017 43.1386 35.4069 43.3041 36.1452 43.3028C37.4351 43.2971 38.6593 42.7935 40.3775 41.8015C41.8602 40.9455 44.1262 39.5264 45.175 38.847C44.9547 38.4014 44.7583 37.5172 44.6984 36.9975C43.3555 38.0315 41.1135 39.4922 39.617 40.3562C38.1066 41.2282 36.8115 41.865 35.5989 41.8446C35.1543 41.8426 34.8009 41.8065 34.5131 41.7879L31.6971 36.9105ZM30.2193 31.2789L30.9473 32.5398L35.894 29.6838C35.6937 30.169 35.4578 30.6562 35.1978 31.1019C34.4084 31.2067 33.6131 31.3332 32.9607 31.4512L32.4058 32.9541C33.1515 32.8376 34.0342 32.7345 34.8753 32.6553L31.8546 34.3993L35.9986 41.5769L37.5505 40.6809L36.3425 38.5886L37.936 37.6686L39.112 39.7055L40.5946 38.8495L39.4186 36.8126L41.0675 35.8606L41.4275 36.4841C41.5155 36.6366 41.4921 36.724 41.3397 36.812C41.1873 36.9 40.7103 37.1938 40.2647 37.4141C40.639 37.6784 41.1391 38.1287 41.4404 38.4905C42.2718 38.0105 42.8735 37.6446 43.175 37.1749C43.4904 36.6972 43.4151 36.2788 43.0232 35.5999L39.7112 29.8633L37.8544 30.9353L37.8661 30.8916L36.9157 30.9415C37.5161 29.8374 38.0168 28.6245 38.3176 27.5456L36.8778 27.3238L36.6071 27.5909L30.2193 31.2789ZM38.8195 31.9669L39.2515 32.7152L37.6026 33.6672L37.1706 32.9189L38.8195 31.9669ZM35.1985 36.6071L36.792 35.6871L37.24 36.4631L35.6465 37.3831L35.1985 36.6071ZM34.5265 35.4432L34.0945 34.695L35.688 33.7749L36.12 34.5232L34.5265 35.4432ZM39.9235 33.8791L40.3715 34.6551L38.7226 35.6071L38.2746 34.8311L39.9235 33.8791ZM40.2346 26.642C41.4069 26.9444 42.8857 27.4578 43.646 27.9426L44.4716 26.1726C43.6698 25.7118 42.1675 25.2859 41.0193 25.025L40.2346 26.642ZM46.7648 28.1926C47.9478 28.6736 49.4949 29.3692 50.2872 29.9095L51.2104 28.2125C50.3765 27.6963 48.8199 27.0801 47.6689 26.6545L46.7648 28.1926ZM45.499 28.7202L42.2566 30.5922L43.1526 32.1441L44.76 31.2161L46.544 34.3061C46.1002 34.9134 45.7172 35.8181 45.4579 36.873L47.5979 37.8915C47.6247 36.786 47.6845 35.5136 48.0864 35.2816C48.4051 35.0976 49.138 35.2472 49.9893 35.2176C51.3427 35.1937 52.6085 34.6661 54.3682 33.6501C55.7954 32.8261 58.006 31.439 58.944 30.8235C58.6837 30.3087 58.4568 29.2757 58.3927 28.6846C57.1132 29.7005 54.9266 31.1292 53.4855 31.9612C51.9474 32.8492 50.5969 33.518 49.3507 33.5355C48.9142 33.5474 48.5687 33.5251 48.267 33.5145L45.499 28.7202ZM48.5453 20.2365L49.8653 22.5228L44.7107 25.4988L45.6147 27.0646L50.7693 24.0886L53.4013 28.6473C53.5373 28.8829 53.4883 29.022 53.1973 29.19C52.9282 29.3639 51.9167 29.9479 51.0059 30.4183C51.4916 30.7476 52.2007 31.3358 52.542 31.7669C53.8306 31.0229 54.7627 30.4294 55.2284 29.8279C55.6999 29.2047 55.6518 28.6413 55.0998 27.6852L52.4598 23.1126L54.1641 22.1286L53.2601 20.5628L51.5558 21.5468L50.2358 19.2605L48.5453 20.2365Z">
</path>
</g>
</svg>
