<svg xmlns="http://www.w3.org/2000/svg" xmlns:xlink="http://www.w3.org/1999/xlink" width="14" height="14" viewBox="0 0 14 14" fill="none">
<g  clip-path="url(#clip-path-52_6846)">
<path     fill="#FF8D0E"  d="M7.00521 12.8346C10.2269 12.8346 12.8385 10.223 12.8385 7.0013C12.8385 3.77964 10.2269 1.16797 7.00521 1.16797C3.78355 1.16797 1.17188 3.77964 1.17188 7.0013C1.17188 10.223 3.78355 12.8346 7.00521 12.8346Z">
</path>
<path fill-rule="evenodd"  fill="rgba(255, 255, 255, 1)"  d="M0.00533867 7.0013C0.00533867 10.8672 3.13929 14.0012 7.00521 14.0012C10.8711 14.0012 14.0051 10.8672 14.0051 7.0013C14.0051 3.13538 10.8711 0.00143242 7.00521 0.00143242C3.13929 0.00143242 0.00533867 3.13538 0.00533867 7.0013ZM12.8385 7.0013C12.8385 10.223 10.2269 12.8346 7.00521 12.8346C3.78355 12.8346 1.17188 10.223 1.17188 7.0013C1.17188 3.77964 3.78355 1.16797 7.00521 1.16797C10.2269 1.16797 12.8385 3.77964 12.8385 7.0013Z">
</path>
<circle cx="4.078125" cy="7" r="0.875"   fill="#FFFFFF" >
</circle>
<circle cx="7" cy="7" r="0.875"   fill="#FFFFFF" >
</circle>
<circle cx="9.921875" cy="7" r="0.875"   fill="#FFFFFF" >
</circle>
</g>
<defs>
<clipPath id="clip-path-52_6846">
<path d="M0 14L14 14L14 0L0 0L0 14Z" fill="white"/>
</clipPath>
</defs>
</svg>
