<svg xmlns="http://www.w3.org/2000/svg" xmlns:xlink="http://www.w3.org/1999/xlink" width="14" height="14" viewBox="0 0 14 14" fill="none">
<g  clip-path="url(#clip-path-52_6841)">
<path     fill="#1EC734"  d="M7.00521 12.8346C8.61602 12.8346 10.0744 12.1817 11.13 11.1261C12.1856 10.0705 12.8385 8.61212 12.8385 7.0013C12.8385 5.39049 12.1856 3.93215 11.13 2.87651C10.0744 1.82089 8.61602 1.16797 7.00521 1.16797C5.39439 1.16797 3.93606 1.82089 2.88042 2.87651C1.82479 3.93215 1.17188 5.39049 1.17188 7.0013C1.17188 8.61212 1.82479 10.0705 2.88042 11.1261C3.93606 12.1817 5.39439 12.8346 7.00521 12.8346Z">
</path>
<path fill-rule="evenodd"  fill="rgba(255, 255, 255, 1)"  d="M4.28019 13.4506Q5.58187 14.0012 7.00521 14.0012Q8.42854 14.0012 9.73022 13.4506Q10.9866 12.9192 11.9549 11.9509Q12.9231 10.9827 13.4545 9.72632Q14.0051 8.42464 14.0051 7.0013Q14.0051 5.57797 13.4545 4.27629Q12.9231 3.0199 11.9549 2.05165Q10.9866 1.0834 9.73022 0.551996Q8.42854 0.00143254 7.00521 0.00143254Q5.58187 0.0014323 4.2802 0.551996Q3.02381 1.0834 2.05556 2.05164Q1.08731 3.01991 0.555902 4.27629Q0.00533879 5.57797 0.00533879 7.0013Q0.00533855 8.42464 0.555903 9.72631Q1.08731 10.9827 2.05555 11.9509Q3.02381 12.9192 4.28019 13.4506ZM11.13 11.1261C10.0744 12.1817 8.61602 12.8346 7.00521 12.8346C5.39439 12.8346 3.93606 12.1817 2.88042 11.1261C1.82479 10.0705 1.17188 8.61212 1.17188 7.0013C1.17188 5.39049 1.82479 3.93215 2.88042 2.87651C3.93606 1.82089 5.39439 1.16797 7.00521 1.16797C8.61602 1.16797 10.0744 1.82089 11.13 2.87651C12.1856 3.93215 12.8385 5.39049 12.8385 7.0013C12.8385 8.61212 12.1856 10.0705 11.13 11.1261Z">
</path>
<path    stroke="rgba(255, 255, 255, 1.00)" stroke-width="1.1666666666666667" stroke-linejoin="round" stroke-linecap="round"  d="M4.67188 7L6.42188 8.75L9.92188 5.25">
</path>
</g>
<defs>
<clipPath id="clip-path-52_6841">
<path d="M0 14L14 14L14 0L0 0L0 14Z" fill="white"/>
</clipPath>
</defs>
</svg>
