<svg xmlns="http://www.w3.org/2000/svg" xmlns:xlink="http://www.w3.org/1999/xlink" width="16" height="16" viewBox="0 0 16 16" fill="none">
<path d="M2.66797 10L13.3346 10L13.3346 14C13.3346 14.3682 13.0362 14.6667 12.668 14.6667L3.33464 14.6667C2.96645 14.6667 2.66797 14.3682 2.66797 14L2.66797 10Z"   fill="#A6A6A6" >
</path>
<path d="M13.3333 9.33203L2.66667 9.33203C2.26035 9.37016 2.03813 9.59238 2 9.9987L2 13.9987C2 14.7351 2.59695 15.332 3.33333 15.332L12.6667 15.332C13.4031 15.332 14 14.7351 14 13.9987L14 9.9987C14 9.63051 13.7015 9.33203 13.3333 9.33203ZM3.33333 10.6654L3.33333 13.9987L12.6667 13.9987L12.6667 10.6654L3.33333 10.6654Z" fill-rule="evenodd"  fill="#A6A6A6" >
</path>
<path d="M12.6667 2.0013L12.6667 10.0013L14 10.0013L14 2.0013C14 1.26492 13.4031 0.667969 12.6667 0.667969L3.33333 0.667969C2.59695 0.667969 2 1.26492 2 2.0013L2 10.0013L3.33333 10.0013L3.33333 2.0013L12.6667 2.0013Z" fill-rule="evenodd"  fill="#A6A6A6" >
</path>
<path d="M8.66797 11.668C8.71174 11.668 8.7551 11.6722 8.79803 11.6808C8.84096 11.6893 8.88265 11.702 8.92309 11.7187C8.96353 11.7355 9.00195 11.756 9.03835 11.7803C9.07474 11.8046 9.10842 11.8323 9.13938 11.8632C9.17033 11.8942 9.19796 11.9279 9.22228 11.9643C9.2466 12.0007 9.26714 12.0391 9.28389 12.0795C9.30064 12.12 9.31329 12.1616 9.32183 12.2046C9.33037 12.2475 9.33464 12.2909 9.33464 12.3346C9.33464 12.3784 9.33036 12.4218 9.32182 12.4647C9.31328 12.5076 9.30064 12.5493 9.28389 12.5898C9.26714 12.6302 9.2466 12.6686 9.22228 12.705C9.19796 12.7414 9.17033 12.7751 9.13938 12.806C9.10842 12.837 9.07474 12.8646 9.03835 12.8889C9.00195 12.9133 8.96353 12.9338 8.92309 12.9506C8.88265 12.9673 8.84096 12.98 8.79803 12.9885C8.7551 12.997 8.71174 13.0013 8.66797 13.0013L7.33464 13.0013C7.29086 13.0013 7.24751 12.997 7.20458 12.9885C7.16164 12.98 7.11996 12.9673 7.07951 12.9506C7.03907 12.9338 7.00065 12.9133 6.96426 12.8889C6.92786 12.8646 6.89418 12.837 6.86323 12.806C6.83228 12.7751 6.80464 12.7414 6.78032 12.705C6.756 12.6686 6.73547 12.6302 6.71872 12.5898C6.70196 12.5493 6.68932 12.5076 6.68078 12.4647C6.67224 12.4218 6.66797 12.3784 6.66797 12.3346C6.66797 12.2909 6.67224 12.2475 6.68078 12.2046C6.68932 12.1616 6.70196 12.12 6.71872 12.0795C6.73547 12.0391 6.756 12.0007 6.78032 11.9643C6.80464 11.9279 6.83228 11.8942 6.86323 11.8632C6.89418 11.8323 6.92786 11.8046 6.96426 11.7803C7.00065 11.756 7.03907 11.7355 7.07951 11.7187C7.11996 11.702 7.16164 11.6893 7.20458 11.6808C7.24751 11.6722 7.29086 11.668 7.33464 11.668L8.66797 11.668Z" fill-rule="evenodd"  fill="#F5F5F5" >
</path>
</svg>
