<svg xmlns="http://www.w3.org/2000/svg" xmlns:xlink="http://www.w3.org/1999/xlink" width="16" height="16" viewBox="0 0 16 16" fill="none">
<path d="M2 3.08391L8.00287 1.33203L14 3.08391L14 6.6766C14 10.4528 11.5834 13.8052 8.00087 14.9989C4.41737 13.8052 2 10.452 2 6.67493L2 3.08391Z"   fill="#A6A6A6" >
</path>
<path d="M1.81193 2.44654L1.81193 2.44654C1.50977 2.55324 1.3498 2.76656 1.33203 3.08652L1.33203 6.67754C1.33203 8.7096 1.9262 10.5498 3.11453 12.1982C4.30286 13.8465 5.86098 14.9918 7.78888 15.634C7.85727 15.6568 7.92843 15.6682 7.94692 15.6682C7.95116 15.6682 7.95262 15.6676 7.95065 15.6664C8.03796 15.6728 8.12622 15.662 8.2103 15.634C10.1377 14.9917 11.6954 13.8466 12.8834 12.1986C14.0714 10.5506 14.6654 8.71078 14.6654 6.6792L14.6654 3.08652C14.6654 2.79032 14.47 2.52965 14.1856 2.4466L8.1885 0.694713C8.06648 0.659069 7.93682 0.659055 7.8148 0.694665L1.81193 2.44654ZM2.66536 3.58643L2.66536 6.67754C2.66536 8.42258 3.17561 10.0029 4.1961 11.4184C5.17294 12.7734 6.44075 13.7325 7.99953 14.2958C9.55786 13.7325 10.8253 12.7736 11.8018 11.4189C12.8219 10.0037 13.332 8.4238 13.332 6.6792L13.332 3.5863L8.00148 2.02914L2.66536 3.58643Z" fill-rule="evenodd"  fill="#A6A6A6" >
</path>
<path d="M10.8606 5.52729L7.33203 9.05589L5.4701 7.19396C5.34946 7.07332 5.18279 6.9987 4.9987 6.9987C4.8146 6.9987 4.64793 7.07332 4.52729 7.19396C4.40665 7.3146 4.33203 7.48127 4.33203 7.66536C4.33203 7.8494 4.4066 8.01602 4.52718 8.13666L4.52729 8.13677L6.86062 10.4701C7.12098 10.7305 7.54308 10.7305 7.80344 10.4701L11.8031 6.47046L11.8034 6.4701C11.9241 6.34946 11.9987 6.18279 11.9987 5.9987C11.9987 5.8146 11.9241 5.64794 11.8034 5.52729C11.6828 5.40665 11.5161 5.33203 11.332 5.33203C11.2436 5.33203 11.1586 5.34895 11.0769 5.38278C10.9952 5.41661 10.9231 5.46478 10.8606 5.52729Z" fill-rule="evenodd"  fill="#F5F5F5" >
</path>
</svg>
