<svg xmlns="http://www.w3.org/2000/svg" xmlns:xlink="http://www.w3.org/1999/xlink" width="308" height="249.751953125" viewBox="0 0 308 249.751953125" fill="none">
<path d="M308 249.75C299 203.211 236.843 156.172 154 156.172C71.1573 156.172 9 202.711 0 249.75L308 249.75Z"   fill="url(#linear_fill_46_209)" >
</path>
<path d="" stroke="rgba(255, 141, 14, 1)" stroke-width="15" stroke-linejoin="round"     fill="#FF8D0E" >
</path>
<path     fill="#FF8D0E"  d="M154.008 180.455C144.258 180.455 135.258 187.21 132.258 196.218C119.508 192.465 108.258 185.709 100.008 175.951C103.008 172.198 105.258 166.944 105.258 161.689C105.258 148.929 95.5078 139.17 82.7578 139.17C82.0078 139.17 81.2578 139.17 80.5078 139.17C79.7578 134.667 79.0078 129.412 79.0078 124.158C79.0078 116.652 80.5078 108.395 82.7578 101.639L82.7578 101.639C95.5078 101.639 105.258 91.8809 105.258 79.1202C105.258 75.3671 104.508 72.3646 103.008 69.3621C112.008 61.1052 122.508 55.1002 133.758 52.0977C137.508 58.8533 145.008 64.1077 154.008 64.1077C163.008 64.1077 170.508 58.8533 174.258 52.0977C186.258 55.1002 196.758 61.1052 205.008 69.3621C203.508 72.3646 202.758 75.3671 202.758 79.1202C202.758 91.8809 212.508 101.639 225.258 101.639L225.258 101.639C227.508 108.395 229.008 116.652 229.008 124.158">
</path>
<path    stroke="rgba(255, 141, 14, 1)" stroke-width="15" stroke-linejoin="round"   d="M154.008 180.455C144.258 180.455 135.258 187.21 132.258 196.218C119.508 192.465 108.258 185.709 100.008 175.951C103.008 172.198 105.258 166.944 105.258 161.689C105.258 148.929 95.5078 139.17 82.7578 139.17C82.0078 139.17 81.2578 139.17 80.5078 139.17C79.7578 134.667 79.0078 129.412 79.0078 124.158C79.0078 116.652 80.5078 108.395 82.7578 101.639L82.7578 101.639C95.5078 101.639 105.258 91.8809 105.258 79.1202C105.258 75.3671 104.508 72.3646 103.008 69.3621C112.008 61.1052 122.508 55.1002 133.758 52.0977C137.508 58.8533 145.008 64.1077 154.008 64.1077C163.008 64.1077 170.508 58.8533 174.258 52.0977C186.258 55.1002 196.758 61.1052 205.008 69.3621C203.508 72.3646 202.758 75.3671 202.758 79.1202C202.758 91.8809 212.508 101.639 225.258 101.639L225.258 101.639C227.508 108.395 229.008 116.652 229.008 124.158">
</path>
<path d="M153.993 177.931C184.37 177.931 207.152 153.232 207.152 124.732C207.152 96.2324 184.37 69.6328 153.993 69.6328C123.617 69.6328 100.834 94.3325 100.834 124.732C100.834 155.132 123.617 177.931 153.993 177.931Z"   fill="#FFFFFF" >
</path>
<ellipse cx="191.52345657348633" cy="158.69541549682617" rx="37.50001907348633" ry="37.53135299682617" stroke="rgba(255, 255, 255, 1)" stroke-width="12"      fill="#FF8D0E" >
</ellipse>
<path    stroke="rgba(255, 255, 255, 1)" stroke-width="9.375" stroke-linejoin="round" stroke-linecap="round"  d="M186.836 144.621L186.836 163.387L205.586 163.387">
</path>
<rect  x="260.4140625" y="60.166015625" width="4.041839599609375" height="8.09112548828125" rx="2.0209197998046875"    fill="#FF8D0E" >
</rect>
<rect  x="260.40625" y="72.302734375" width="4.041839599609375" height="8.09112548828125" rx="2.0209197998046875"    fill="#FF8D0E" >
</rect>
<rect  x="273.21484375" y="68.255859375" width="4.045562744140625" height="8.083709716796875" transform="rotate(90 273.21484375 68.255859375)" rx="2.0227813720703125"    fill="#FF8D0E" >
</rect>
<rect  x="259.794921875" y="68.255859375" width="4.045562744140625" height="8.083709716796875" transform="rotate(90 259.794921875 68.255859375)" rx="2.0227813720703125"    fill="#FF8D0E" >
</rect>
<ellipse cx="230.765625" cy="7.2545928955078125" rx="5.5" ry="5.5045928955078125" stroke="rgba(255, 141, 14, 1)" stroke-width="3.5"      fill="#FFFFFF" fill-opacity="0">
</ellipse>
<rect  x="72.140625" y="24.69921875" width="1.8171539306640625" height="3.5877685546875" rx="0.9085769653320312"    fill="#FF8D0E" >
</rect>
<rect  x="72.140625" y="16.326171875" width="1.8171539306640625" height="3.5877685546875" rx="0.9085769653320312"    fill="#FF8D0E" >
</rect>
<rect  x="70.662109375" y="21.392578125" width="1.81878662109375" height="3.5845260620117188" transform="rotate(90.00000164787744 70.662109375 21.392578125)" rx="0.909393310546875"    fill="#FF8D0E" >
</rect>
<rect  x="79.0234375" y="21.396484375" width="1.81878662109375" height="3.5845260620117188" transform="rotate(90.00000164787744 79.0234375 21.396484375)" rx="0.909393310546875"    fill="#FF8D0E" >
</rect>
<rect  transform="matrix(0.7067918181419373, 0.7074295282363892, -0.7067891359329224, 0.7074268460273743, 70.71875, 23.35546875)" x="0" y="0" width="1.817965717927506" height="3.58613746333305" rx="0.908982858963753"    fill="#FF8D0E" >
</rect>
<rect  transform="matrix(0.7067918181419373, 0.7074295282363892, -0.7067891359329224, 0.7074268460273743, 76.630859375, 17.435546875)" x="0" y="0" width="1.817965717927506" height="3.58613746333305" rx="0.908982858963753"    fill="#FF8D0E" >
</rect>
<rect  transform="matrix(-0.7067918181419373, 0.7074295282363892, -0.7067881226539612, -0.7074258923530579, 71.998046875, 19.974609375)" x="0" y="0" width="1.817965717927506" height="3.586142855698477" rx="0.908982858963753"    fill="#FF8D0E" >
</rect>
<rect  transform="matrix(-0.7067918181419373, 0.7074295282363892, -0.706788182258606, -0.7074257731437683, 77.916015625, 25.890625)" x="0" y="0" width="1.817965717927506" height="3.586142855698477" rx="0.908982858963753"    fill="#FF8D0E" >
</rect>
<rect  x="272.306640625" y="123.408203125" width="1.817169189453125" height="3.5877685546875" rx="0.9085845947265625"    fill="#FF8D0E" >
</rect>
<rect  x="272.306640625" y="115.03515625" width="1.817169189453125" height="3.5877685546875" rx="0.9085845947265625"    fill="#FF8D0E" >
</rect>
<rect  x="270.828125" y="120.103515625" width="1.81878662109375" height="3.58453369140625" transform="rotate(90.00000164787744 270.828125 120.103515625)" rx="0.909393310546875"    fill="#FF8D0E" >
</rect>
<rect  x="279.189453125" y="120.107421875" width="1.81878662109375" height="3.58453369140625" transform="rotate(90.00000164787744 279.189453125 120.107421875)" rx="0.909393310546875"    fill="#FF8D0E" >
</rect>
<rect  transform="matrix(0.7067939639091492, 0.7074316143989563, -0.7067891359329224, 0.7074268460273743, 270.884765625, 122.064453125)" x="0" y="0" width="1.8179603255568104" height="3.58613746333305" rx="0.9089801627784052"    fill="#FF8D0E" >
</rect>
<rect  transform="matrix(0.7067939639091492, 0.7074316143989563, -0.7067891359329224, 0.7074268460273743, 276.796875, 116.14453125)" x="0" y="0" width="1.8179603255568104" height="3.58613746333305" rx="0.9089801627784052"    fill="#FF8D0E" >
</rect>
<rect  transform="matrix(-0.7067939639091492, 0.7074316143989563, -0.7067849636077881, -0.7074227333068848, 272.1640625, 118.68359375)" x="0" y="0" width="1.8179603255568104" height="3.5861590328434954" rx="0.9089801627784052"    fill="#FF8D0E" >
</rect>
<rect  transform="matrix(-0.7067939639091492, 0.7074316143989563, -0.7067850232124329, -0.7074226140975952, 278.08203125, 124.6015625)" x="0" y="0" width="1.8179603255568104" height="3.5861590328434954" rx="0.9089801627784052"    fill="#FF8D0E" >
</rect>
<ellipse cx="68.224609375" cy="78.32203674316406" rx="2.0703125" ry="2.0720367431640625" stroke="rgba(255, 141, 14, 1)" stroke-width="1"      fill="#FFFFFF" fill-opacity="0">
</ellipse>
<rect  x="167.275390625" y="22.306640625" width="1.838470458984375" height="3.67962646484375" rx="0.9192352294921875"    fill="#FF8D0E" >
</rect>
<rect  x="167.271484375" y="27.826171875" width="1.838470458984375" height="3.67962646484375" rx="0.9192352294921875"    fill="#FF8D0E" >
</rect>
<rect  x="173.09765625" y="25.984375" width="1.839813232421875" height="3.67694091796875" transform="rotate(90 173.09765625 25.984375)" rx="0.9199066162109375"    fill="#FF8D0E" >
</rect>
<rect  x="166.9921875" y="25.984375" width="1.839813232421875" height="3.67694091796875" transform="rotate(90 166.9921875 25.984375)" rx="0.9199066162109375"    fill="#FF8D0E" >
</rect>
<rect  x="32.208984375" y="140.380859375" width="1.838470458984375" height="3.67962646484375" rx="0.9192352294921875"    fill="#FF8D0E" >
</rect>
<rect  x="32.205078125" y="145.90234375" width="1.838470458984375" height="3.67962646484375" rx="0.9192352294921875"    fill="#FF8D0E" >
</rect>
<rect  x="38.03125" y="144.060546875" width="1.839813232421875" height="3.67694091796875" transform="rotate(90 38.03125 144.060546875)" rx="0.9199066162109375"    fill="#FF8D0E" >
</rect>
<rect  x="31.92578125" y="144.060546875" width="1.839813232421875" height="3.6769447326660156" transform="rotate(90 31.92578125 144.060546875)" rx="0.9199066162109375"    fill="#FF8D0E" >
</rect>
<defs>
<linearGradient id="linear_fill_46_209" x1="154" y1="107.875" x2="154" y2="249.75" gradientUnits="userSpaceOnUse">
<stop offset="0" stop-color="#FF8D0E"  />
<stop offset="1" stop-color="#FFFFFF" stop-opacity="0" />
</linearGradient>
</defs>
</svg>
