<svg xmlns="http://www.w3.org/2000/svg" xmlns:xlink="http://www.w3.org/1999/xlink" width="308" height="249.75186157226562" viewBox="0 0 308 249.75186157226562" fill="none">
<path d="M308 249.75C299 203.211 236.843 156.172 154 156.172C71.1573 156.172 9 202.711 0 249.75L308 249.75Z"   fill="url(#linear_fill_53_185)" >
</path>
<path d="M154 198.75C195.421 198.75 229 165.171 229 123.75C229 82.3286 195.421 48.75 154 48.75C112.579 48.75 79 82.3286 79 123.75C79 165.171 112.579 198.75 154 198.75Z" stroke="rgba(255, 141, 14, 1)" stroke-width="10" stroke-linejoin="round"     fill="#FF8D0E" >
</path>
<path    stroke="rgba(255, 255, 255, 1.00)" stroke-width="15" stroke-linejoin="round" stroke-linecap="round"  d="M154.036 78.75L154.031 123.783L185.829 155.581">
</path>
<rect  x="260.4140625" y="60.166015625" width="4.041839599609375" height="8.09112548828125" rx="2.0209197998046875"    fill="#FF8D0E" >
</rect>
<rect  x="260.40625" y="72.302734375" width="4.041839599609375" height="8.09112548828125" rx="2.0209197998046875"    fill="#FF8D0E" >
</rect>
<rect  x="273.21875" y="68.255859375" width="4.045562744140625" height="8.083709716796875" transform="rotate(90 273.21875 68.255859375)" rx="2.0227813720703125"    fill="#FF8D0E" >
</rect>
<rect  x="259.796875" y="68.255859375" width="4.045562744140625" height="8.083709716796875" transform="rotate(90 259.796875 68.255859375)" rx="2.0227813720703125"    fill="#FF8D0E" >
</rect>
<ellipse cx="230.765625" cy="7.2545928955078125" rx="5.5" ry="5.5045928955078125" stroke="rgba(255, 141, 14, 1)" stroke-width="3.5"      fill="#FFFFFF" fill-opacity="0">
</ellipse>
<rect  x="72.140625" y="24.69921875" width="1.8171539306640625" height="3.5877685546875" rx="0.9085769653320312"    fill="#FF8D0E" >
</rect>
<rect  x="72.140625" y="16.326171875" width="1.8171539306640625" height="3.5877685546875" rx="0.9085769653320312"    fill="#FF8D0E" >
</rect>
<rect  x="70.6640625" y="21.392578125" width="1.81878662109375" height="3.5845260620117188" transform="rotate(90.00000164787744 70.6640625 21.392578125)" rx="0.909393310546875"    fill="#FF8D0E" >
</rect>
<rect  x="79.0234375" y="21.396484375" width="1.81878662109375" height="3.5845260620117188" transform="rotate(90.00000164787744 79.0234375 21.396484375)" rx="0.909393310546875"    fill="#FF8D0E" >
</rect>
<rect  transform="matrix(0.7067918181419373, 0.7074295282363892, -0.7067891359329224, 0.7074268460273743, 70.71875, 23.35546875)" x="0" y="0" width="1.817965717927506" height="3.58613746333305" rx="0.908982858963753"    fill="#FF8D0E" >
</rect>
<rect  transform="matrix(0.7067918181419373, 0.7074295282363892, -0.7067891359329224, 0.7074268460273743, 76.6328125, 17.435546875)" x="0" y="0" width="1.817965717927506" height="3.58613746333305" rx="0.908982858963753"    fill="#FF8D0E" >
</rect>
<rect  transform="matrix(-0.7067918181419373, 0.7074295282363892, -0.7067881226539612, -0.7074258923530579, 72, 19.974609375)" x="0" y="0" width="1.817965717927506" height="3.586142855698477" rx="0.908982858963753"    fill="#FF8D0E" >
</rect>
<rect  transform="matrix(-0.7067918181419373, 0.7074295282363892, -0.706788182258606, -0.7074257731437683, 77.9140625, 25.890625)" x="0" y="0" width="1.817965717927506" height="3.586142855698477" rx="0.908982858963753"    fill="#FF8D0E" >
</rect>
<rect  x="272.3046875" y="123.408203125" width="1.817169189453125" height="3.5877685546875" rx="0.9085845947265625"    fill="#FF8D0E" >
</rect>
<rect  x="272.3046875" y="115.03515625" width="1.817169189453125" height="3.5877685546875" rx="0.9085845947265625"    fill="#FF8D0E" >
</rect>
<rect  x="270.828125" y="120.103515625" width="1.81878662109375" height="3.58453369140625" transform="rotate(90.00000164787744 270.828125 120.103515625)" rx="0.909393310546875"    fill="#FF8D0E" >
</rect>
<rect  x="279.1875" y="120.107421875" width="1.81878662109375" height="3.58453369140625" transform="rotate(90.00000164787744 279.1875 120.107421875)" rx="0.909393310546875"    fill="#FF8D0E" >
</rect>
<rect  transform="matrix(0.7067939639091492, 0.7074316143989563, -0.7067891359329224, 0.7074268460273743, 270.8828125, 122.064453125)" x="0" y="0" width="1.8179603255568104" height="3.58613746333305" rx="0.9089801627784052"    fill="#FF8D0E" >
</rect>
<rect  transform="matrix(0.7067939639091492, 0.7074316143989563, -0.7067891359329224, 0.7074268460273743, 276.796875, 116.14453125)" x="0" y="0" width="1.8179603255568104" height="3.58613746333305" rx="0.9089801627784052"    fill="#FF8D0E" >
</rect>
<rect  transform="matrix(-0.7067939639091492, 0.7074316143989563, -0.7067849636077881, -0.7074227333068848, 272.1640625, 118.68359375)" x="0" y="0" width="1.8179603255568104" height="3.5861590328434954" rx="0.9089801627784052"    fill="#FF8D0E" >
</rect>
<rect  transform="matrix(-0.7067939639091492, 0.7074316143989563, -0.7067850232124329, -0.7074226140975952, 278.078125, 124.6015625)" x="0" y="0" width="1.8179603255568104" height="3.5861590328434954" rx="0.9089801627784052"    fill="#FF8D0E" >
</rect>
<ellipse cx="68.2265625" cy="78.32203674316406" rx="2.0703125" ry="2.0720367431640625" stroke="rgba(255, 141, 14, 1)" stroke-width="1"      fill="#FFFFFF" fill-opacity="0">
</ellipse>
<rect  x="167.2734375" y="22.306640625" width="1.838470458984375" height="3.67962646484375" rx="0.9192352294921875"    fill="#FF8D0E" >
</rect>
<rect  x="167.2734375" y="27.826171875" width="1.838470458984375" height="3.67962646484375" rx="0.9192352294921875"    fill="#FF8D0E" >
</rect>
<rect  x="173.09375" y="25.984375" width="1.839813232421875" height="3.67694091796875" transform="rotate(90 173.09375 25.984375)" rx="0.9199066162109375"    fill="#FF8D0E" >
</rect>
<rect  x="166.9921875" y="25.984375" width="1.839813232421875" height="3.67694091796875" transform="rotate(90 166.9921875 25.984375)" rx="0.9199066162109375"    fill="#FF8D0E" >
</rect>
<rect  x="32.2109375" y="140.380859375" width="1.838470458984375" height="3.67962646484375" rx="0.9192352294921875"    fill="#FF8D0E" >
</rect>
<rect  x="32.203125" y="145.90234375" width="1.838470458984375" height="3.67962646484375" rx="0.9192352294921875"    fill="#FF8D0E" >
</rect>
<rect  x="38.03125" y="144.060546875" width="1.839813232421875" height="3.67694091796875" transform="rotate(90 38.03125 144.060546875)" rx="0.9199066162109375"    fill="#FF8D0E" >
</rect>
<rect  x="31.921875" y="144.060546875" width="1.839813232421875" height="3.6769447326660156" transform="rotate(90 31.921875 144.060546875)" rx="0.9199066162109375"    fill="#FF8D0E" >
</rect>
<defs>
<linearGradient id="linear_fill_53_185" x1="154" y1="107.87527465820312" x2="154" y2="249.75" gradientUnits="userSpaceOnUse">
<stop offset="0" stop-color="#FF8D0E"  />
<stop offset="1" stop-color="#FFFFFF" stop-opacity="0" />
</linearGradient>
</defs>
</svg>
