<svg xmlns="http://www.w3.org/2000/svg" xmlns:xlink="http://www.w3.org/1999/xlink" width="44" height="44" viewBox="0 0 44 44" fill="none">
<path d="M6.41667 40.332L22 40.332L22 36.6654L6.41667 36.6654L6.41667 19.2487L22 19.2487L22 15.582L4.58333 15.582C3.57081 15.582 2.75 16.4028 2.75 17.4154L2.75 36.6654C2.75 39.1098 3.97222 40.332 6.41667 40.332Z" fill-rule="evenodd"  fill="#B199FF" >
</path>
<path d="M6.41667 4.58203C3.97222 4.58203 2.75 5.80425 2.75 8.2487L2.75 17.4154C2.75 18.4279 3.57081 19.2487 4.58333 19.2487L39.4167 19.2487C40.4292 19.2487 41.25 18.4279 41.25 17.4154L41.25 8.2487C41.25 5.80425 40.0278 4.58203 37.5833 4.58203L6.41667 4.58203ZM6.41667 15.582L6.41667 8.2487L37.5833 8.2487L37.5833 15.582L6.41667 15.582Z" fill-rule="evenodd"  fill="#B199FF" >
</path>
<path d="M16.4997 3.66536L16.4997 10.9987C16.4997 11.1191 16.4879 11.2383 16.4644 11.3564C16.441 11.4744 16.4062 11.5891 16.3601 11.7003C16.3141 11.8115 16.2576 11.9172 16.1907 12.0172C16.1238 12.1173 16.0478 12.2099 15.9627 12.2951C15.8776 12.3802 15.785 12.4562 15.6849 12.5231C15.5848 12.5899 15.4791 12.6464 15.3679 12.6925C15.2567 12.7385 15.1421 12.7733 15.024 12.7968C14.9059 12.8203 14.7867 12.832 14.6663 12.832C14.546 12.832 14.4267 12.8203 14.3087 12.7968C14.1906 12.7733 14.076 12.7385 13.9648 12.6925C13.8535 12.6464 13.7479 12.5899 13.6478 12.5231C13.5477 12.4562 13.4551 12.3802 13.37 12.2951C13.2849 12.2099 13.2089 12.1173 13.142 12.0172C13.0751 11.9172 13.0186 11.8115 12.9726 11.7003C12.9265 11.5891 12.8917 11.4744 12.8682 11.3564C12.8448 11.2383 12.833 11.1191 12.833 10.9987L12.833 3.66536C12.833 3.54499 12.8448 3.42576 12.8682 3.3077C12.8917 3.18963 12.9265 3.07499 12.9726 2.96378C13.0186 2.85256 13.0751 2.74691 13.142 2.64682C13.2089 2.54673 13.2849 2.45412 13.37 2.369C13.4551 2.28388 13.5477 2.20788 13.6478 2.141C13.7479 2.07413 13.8535 2.01765 13.9648 1.97159C14.076 1.92552 14.1906 1.89074 14.3087 1.86726C14.4267 1.84377 14.546 1.83203 14.6663 1.83203C14.7867 1.83203 14.9059 1.84377 15.024 1.86726C15.1421 1.89074 15.2567 1.92552 15.3679 1.97159C15.4791 2.01765 15.5848 2.07413 15.6849 2.141C15.785 2.20788 15.8776 2.28388 15.9627 2.369C16.0478 2.45412 16.1238 2.54673 16.1907 2.64682C16.2576 2.74691 16.3141 2.85256 16.3601 2.96378C16.4062 3.07499 16.441 3.18963 16.4644 3.3077C16.4879 3.42576 16.4997 3.54499 16.4997 3.66536Z" fill-rule="evenodd"  fill="#B199FF" >
</path>
<path d="M31.1667 3.66536L31.1667 10.9987C31.1667 11.1191 31.1549 11.2383 31.1314 11.3564C31.108 11.4744 31.0732 11.5891 31.0271 11.7003C30.981 11.8115 30.9246 11.9172 30.8577 12.0172C30.7908 12.1173 30.7148 12.2099 30.6297 12.2951C30.5446 12.3802 30.452 12.4562 30.3519 12.5231C30.2518 12.5899 30.1461 12.6464 30.0349 12.6925C29.9237 12.7385 29.8091 12.7733 29.691 12.7968C29.5729 12.8203 29.4537 12.832 29.3333 12.832C29.213 12.832 29.0937 12.8203 28.9757 12.7968C28.8576 12.7733 28.743 12.7385 28.6317 12.6925C28.5205 12.6464 28.4149 12.5899 28.3148 12.5231C28.2147 12.4562 28.1221 12.3802 28.037 12.2951C27.9519 12.2099 27.8759 12.1173 27.809 12.0172C27.7421 11.9172 27.6856 11.8115 27.6396 11.7003C27.5935 11.5891 27.5587 11.4744 27.5352 11.3564C27.5117 11.2383 27.5 11.1191 27.5 10.9987L27.5 3.66536C27.5 3.54499 27.5117 3.42576 27.5352 3.3077C27.5587 3.18963 27.5935 3.07499 27.6396 2.96378C27.6856 2.85256 27.7421 2.74691 27.809 2.64682C27.8759 2.54673 27.9519 2.45412 28.037 2.369C28.1221 2.28388 28.2147 2.20788 28.3148 2.141C28.4149 2.07413 28.5205 2.01765 28.6317 1.97159C28.743 1.92552 28.8576 1.89074 28.9757 1.86726C29.0937 1.84377 29.213 1.83203 29.3333 1.83203C29.4537 1.83203 29.5729 1.84377 29.691 1.86726C29.8091 1.89074 29.9237 1.92552 30.0349 1.97159C30.1461 2.01765 30.2518 2.07413 30.3519 2.141C30.452 2.20788 30.5446 2.28388 30.6297 2.369C30.7148 2.45412 30.7908 2.54673 30.8577 2.64682C30.9246 2.74691 30.981 2.85256 31.0271 2.96378C31.0732 3.07499 31.108 3.18963 31.1314 3.3077C31.1549 3.42576 31.1667 3.54499 31.1667 3.66536Z" fill-rule="evenodd"  fill="#B199FF" >
</path>
<path d="M12.8333 29.332L18.3333 29.332C18.4537 29.332 18.5729 29.3438 18.691 29.3673C18.8091 29.3907 18.9237 29.4255 19.0349 29.4716C19.1461 29.5177 19.2518 29.5741 19.3519 29.641C19.452 29.7079 19.5446 29.7839 19.6297 29.869C19.7148 29.9541 19.7908 30.0467 19.8577 30.1468C19.9246 30.2469 19.981 30.3526 20.0271 30.4638C20.0732 30.575 20.108 30.6896 20.1314 30.8077C20.1549 30.9258 20.1667 31.045 20.1667 31.1654C20.1667 31.2857 20.1549 31.405 20.1314 31.523C20.108 31.6411 20.0732 31.7557 20.0271 31.867C19.981 31.9782 19.9246 32.0838 19.8577 32.1839C19.7908 32.284 19.7148 32.3766 19.6297 32.4617C19.5446 32.5468 19.452 32.6228 19.3519 32.6897C19.2518 32.7566 19.1461 32.8131 19.0349 32.8591C18.9237 32.9052 18.8091 32.94 18.691 32.9635C18.5729 32.987 18.4537 32.9987 18.3333 32.9987L12.8333 32.9987C12.713 32.9987 12.5937 32.987 12.4757 32.9635C12.3576 32.94 12.243 32.9052 12.1317 32.8591C12.0205 32.8131 11.9149 32.7566 11.8148 32.6897C11.7147 32.6228 11.6221 32.5468 11.537 32.4617C11.4518 32.3766 11.3759 32.284 11.309 32.1839C11.2421 32.0838 11.1856 31.9782 11.1396 31.867C11.0935 31.7557 11.0587 31.6411 11.0352 31.523C11.0117 31.405 11 31.2857 11 31.1654C11 31.045 11.0117 30.9258 11.0352 30.8077C11.0587 30.6896 11.0935 30.575 11.1396 30.4638C11.1856 30.3526 11.2421 30.2469 11.309 30.1468C11.3759 30.0467 11.4518 29.9541 11.537 29.869C11.6221 29.7839 11.7147 29.7079 11.8148 29.641C11.9149 29.5741 12.0205 29.5177 12.1317 29.4716C12.243 29.4255 12.3576 29.3907 12.4757 29.3673C12.5937 29.3438 12.713 29.332 12.8333 29.332Z" fill-rule="evenodd"  fill="#B199FF" >
</path>
<path d="M12.8333 22L18.3333 22C18.4537 22 18.5729 22.0117 18.691 22.0352C18.8091 22.0587 18.9237 22.0935 19.0349 22.1396C19.1461 22.1856 19.2518 22.2421 19.3519 22.309C19.452 22.3759 19.5446 22.4519 19.6297 22.537C19.7148 22.6221 19.7908 22.7147 19.8577 22.8148C19.9246 22.9149 19.981 23.0205 20.0271 23.1317C20.0732 23.243 20.108 23.3576 20.1314 23.4757C20.1549 23.5937 20.1667 23.713 20.1667 23.8333C20.1667 23.9537 20.1549 24.0729 20.1314 24.191C20.108 24.3091 20.0732 24.4237 20.0271 24.5349C19.981 24.6461 19.9246 24.7518 19.8577 24.8519C19.7908 24.952 19.7148 25.0446 19.6297 25.1297C19.5446 25.2148 19.452 25.2908 19.3519 25.3577C19.2518 25.4246 19.1461 25.481 19.0349 25.5271C18.9237 25.5732 18.8091 25.608 18.691 25.6314C18.5729 25.6549 18.4537 25.6667 18.3333 25.6667L12.8333 25.6667C12.713 25.6667 12.5937 25.6549 12.4757 25.6314C12.3576 25.608 12.243 25.5732 12.1317 25.5271C12.0205 25.481 11.9149 25.4246 11.8148 25.3577C11.7147 25.2908 11.6221 25.2148 11.537 25.1297C11.4518 25.0446 11.3759 24.952 11.309 24.8519C11.2421 24.7518 11.1856 24.6461 11.1396 24.5349C11.0935 24.4237 11.0587 24.3091 11.0352 24.191C11.0117 24.0729 11 23.9537 11 23.8333C11 23.713 11.0117 23.5937 11.0352 23.4757C11.0587 23.3576 11.0935 23.243 11.1396 23.1317C11.1856 23.0205 11.2421 22.9149 11.309 22.8148C11.3759 22.7147 11.4518 22.6221 11.537 22.537C11.6221 22.4519 11.7147 22.3759 11.8148 22.309C11.9149 22.2421 12.0205 22.1856 12.1317 22.1396C12.243 22.0935 12.3576 22.0587 12.4757 22.0352C12.5937 22.0117 12.713 22 12.8333 22Z" fill-rule="evenodd"  fill="#B199FF" >
</path>
<path d="M32.0827 40.3333C37.1453 40.3333 41.2493 36.2293 41.2493 31.1667C41.2493 26.1041 37.1453 22 32.0827 22C27.0201 22 22.916 26.1041 22.916 31.1667C22.916 36.2293 27.0201 40.3333 32.0827 40.3333ZM32.0827 25.6667C35.1202 25.6667 37.5827 28.1291 37.5827 31.1667C37.5827 34.2042 35.1202 36.6667 32.0827 36.6667C29.0451 36.6667 26.5827 34.2042 26.5827 31.1667C26.5827 28.1291 29.0451 25.6667 32.0827 25.6667Z" fill-rule="evenodd"  fill="#B199FF" >
</path>
<path d="M32.9997 30.2487L32.9997 28.4154C32.9997 28.295 32.9879 28.1758 32.9644 28.0577C32.941 27.9396 32.9062 27.825 32.8601 27.7138C32.8141 27.6026 32.7576 27.4969 32.6907 27.3968C32.6238 27.2967 32.5478 27.2041 32.4627 27.119C32.3776 27.0339 32.285 26.9579 32.1849 26.891C32.0848 26.8241 31.9791 26.7677 31.8679 26.7216C31.7567 26.6755 31.6421 26.6407 31.524 26.6173C31.4059 26.5938 31.2867 26.582 31.1663 26.582C31.046 26.582 30.9267 26.5938 30.8087 26.6173C30.6906 26.6407 30.576 26.6755 30.4648 26.7216C30.3535 26.7677 30.2479 26.8241 30.1478 26.891C30.0477 26.9579 29.9551 27.0339 29.87 27.119C29.7849 27.2041 29.7089 27.2967 29.642 27.3968C29.5751 27.4969 29.5186 27.6026 29.4726 27.7138C29.4265 27.825 29.3917 27.9396 29.3682 28.0577C29.3447 28.1758 29.333 28.295 29.333 28.4154L29.333 32.082C29.333 33.0945 30.1538 33.9154 31.1663 33.9154L34.833 33.9154C34.9534 33.9154 35.0726 33.9036 35.1907 33.8801C35.3087 33.8567 35.4234 33.8219 35.5346 33.7758C35.6458 33.7297 35.7515 33.6733 35.8516 33.6064C35.9516 33.5395 36.0443 33.4635 36.1294 33.3784C36.2145 33.2933 36.2905 33.2007 36.3574 33.1006C36.4242 33.0005 36.4807 32.8948 36.5268 32.7836C36.5729 32.6724 36.6076 32.5578 36.6311 32.4397C36.6546 32.3216 36.6663 32.2024 36.6663 32.082C36.6663 31.9617 36.6546 31.8424 36.6311 31.7244C36.6076 31.6063 36.5729 31.4917 36.5268 31.3805C36.4807 31.2692 36.4242 31.1636 36.3574 31.0635C36.2905 30.9634 36.2145 30.8708 36.1294 30.7857C36.0443 30.7005 35.9516 30.6245 35.8516 30.5577C35.7515 30.4908 35.6458 30.4343 35.5346 30.3883C35.4234 30.3422 35.3087 30.3074 35.1907 30.2839C35.0726 30.2604 34.9534 30.2487 34.833 30.2487L32.9997 30.2487Z" fill-rule="evenodd"  fill="#B199FF" >
</path>
</svg>
