<svg xmlns="http://www.w3.org/2000/svg" xmlns:xlink="http://www.w3.org/1999/xlink" width="44" height="44" viewBox="0 0 44 44" fill="none">
<path d="M34.8333 25.6654C34.8333 32.753 29.0877 38.4987 22 38.4987C14.9124 38.4987 9.16667 32.753 9.16667 25.6654C9.16667 21.1746 11.451 16.4307 16.0197 11.4337C18.0207 9.24511 20.0141 7.4078 22 5.92178C23.9859 7.4078 25.9793 9.24511 27.9803 11.4337C32.549 16.4307 34.8333 21.1746 34.8333 25.6654ZM22 42.1654C31.1128 42.1654 38.5 34.7781 38.5 25.6654C38.5 20.2256 35.8954 14.657 30.6863 8.95954C28.1475 6.18271 25.5983 3.91441 23.0386 2.15462C22.659 1.89363 22.2056 1.791 21.7679 1.84675C21.7726 1.83694 21.7624 1.83203 21.7403 1.83203C21.6374 1.83203 21.2763 1.93893 20.9641 2.15274L20.9614 2.15462C18.4017 3.91441 15.8524 6.18271 13.3136 8.95954C8.10454 14.657 5.5 20.2256 5.5 25.6654C5.5 34.7781 12.8873 42.1654 22 42.1654Z" fill-rule="evenodd"  fill="#FFAB4A" >
</path>
<path d="M23.2643 17.0062C22.9353 16.6926 22.4899 16.5 21.9994 16.5C21.2676 16.5 20.6359 16.9289 20.3419 17.549L16.693 24.8468C16.0835 26.0658 16.9699 27.5 18.3328 27.5L22.6997 27.5L20.3761 32.1471C20.2427 32.4007 20.1668 32.6893 20.1661 32.9955L20.1661 32.9996L20.1661 33C20.1661 33.0158 20.1663 33.0316 20.1667 33.0473C20.1783 33.5031 20.3562 33.9176 20.642 34.2323C20.6717 34.265 20.7026 34.2966 20.7345 34.3271C21.0635 34.6408 21.509 34.8333 21.9994 34.8333C22.7313 34.8333 23.363 34.4045 23.657 33.7844L27.3059 26.4866C27.9154 25.2676 27.029 23.8333 25.6661 23.8333L21.2992 23.8333L23.6227 19.1862C23.7562 18.9327 23.832 18.644 23.8328 18.3378L23.8328 18.3337L23.8328 18.333L23.8328 18.3289C23.8316 17.8404 23.6394 17.3968 23.3269 17.0688C23.3066 17.0475 23.2857 17.0266 23.2643 17.0062Z" fill-rule="evenodd"  fill="#FFAB4A" >
</path>
</svg>
