<svg xmlns="http://www.w3.org/2000/svg" xmlns:xlink="http://www.w3.org/1999/xlink" width="44" height="44" viewBox="0 0 44 44" fill="none">
<path d="M34.8333 5.4987L34.8333 24.7487C34.8333 24.8691 34.8451 24.9883 34.8685 25.1064C34.892 25.2244 34.9268 25.3391 34.9729 25.4503C35.0189 25.5615 35.0754 25.6672 35.1423 25.7673C35.2091 25.8674 35.2851 25.96 35.3703 26.045C35.4554 26.1301 35.548 26.2061 35.6481 26.2731C35.7482 26.34 35.8538 26.3964 35.965 26.4425C36.0763 26.4886 36.1909 26.5234 36.309 26.5468C36.427 26.5703 36.5463 26.582 36.6667 26.582C36.7871 26.582 36.9063 26.5703 37.0243 26.5468C37.1424 26.5234 37.2571 26.4886 37.3683 26.4425C37.4795 26.3964 37.5852 26.34 37.6853 26.2731C37.7854 26.2061 37.8779 26.1301 37.963 26.045C38.0481 25.96 38.1241 25.8674 38.1911 25.7673C38.2579 25.6672 38.3144 25.5615 38.3605 25.4503C38.4066 25.3391 38.4413 25.2244 38.4648 25.1064C38.4883 24.9883 38.5 24.8691 38.5 24.7487L38.5 5.4987C38.5 3.05425 37.2778 1.83203 34.8333 1.83203L9.16667 1.83203C6.72222 1.83203 5.5 3.05425 5.5 5.4987L5.5 38.4987C5.5 40.9431 6.72222 42.1654 9.16667 42.1654L19.25 42.1654C19.3704 42.1654 19.4896 42.1536 19.6077 42.1302C19.7257 42.1067 19.8404 42.0719 19.9516 42.0258C20.0628 41.9798 20.1685 41.9233 20.2685 41.8564C20.3686 41.7895 20.4612 41.7134 20.5464 41.6284C20.6315 41.5433 20.7075 41.4507 20.7744 41.3506C20.8412 41.2505 20.8977 41.1449 20.9438 41.0336C20.9898 40.9224 21.0246 40.8078 21.0481 40.6897C21.0716 40.5716 21.0833 40.4524 21.0833 40.332C21.0833 40.2116 21.0716 40.0924 21.0481 39.9743C21.0246 39.8563 20.9898 39.7416 20.9438 39.6304C20.8977 39.5192 20.8412 39.4135 20.7744 39.3134C20.7075 39.2133 20.6315 39.1207 20.5464 39.0357C20.4612 38.9505 20.3686 38.8745 20.2685 38.8076C20.1685 38.7408 20.0628 38.6843 19.9516 38.6382C19.8404 38.5921 19.7257 38.5574 19.6077 38.5339C19.4896 38.5104 19.3704 38.4987 19.25 38.4987L9.16667 38.4987L9.16667 5.4987L34.8333 5.4987Z" fill-rule="evenodd"  fill="#58A2FF" >
</path>
<path d="M15.5833 9.16797L28.4167 9.16797C28.537 9.16797 28.6563 9.17971 28.7743 9.2032C28.8924 9.22668 29.007 9.26146 29.1182 9.30752C29.2295 9.35359 29.3351 9.41006 29.4352 9.47694C29.5353 9.54382 29.6279 9.61982 29.713 9.70494C29.7982 9.79006 29.8741 9.88267 29.941 9.98276C30.0079 10.0828 30.0644 10.1885 30.1104 10.2997C30.1565 10.4109 30.1913 10.5256 30.2148 10.6436C30.2383 10.7617 30.25 10.8809 30.25 11.0013C30.25 11.1217 30.2383 11.2409 30.2148 11.359C30.1913 11.477 30.1565 11.5917 30.1104 11.7029C30.0644 11.8141 30.0079 11.9198 29.941 12.0198C29.8741 12.1199 29.7982 12.2125 29.713 12.2977C29.6279 12.3828 29.5353 12.4588 29.4352 12.5257C29.3351 12.5925 29.2295 12.649 29.1182 12.6951C29.007 12.7411 28.8924 12.7759 28.7743 12.7994C28.6563 12.8229 28.537 12.8346 28.4167 12.8346L15.5833 12.8346C15.463 12.8346 15.3437 12.8229 15.2257 12.7994C15.1076 12.7759 14.993 12.7411 14.8817 12.6951C14.7705 12.649 14.6649 12.5925 14.5648 12.5257C14.4647 12.4588 14.3721 12.3828 14.287 12.2977C14.2018 12.2125 14.1259 12.1199 14.059 12.0198C13.9921 11.9198 13.9356 11.8141 13.8896 11.7029C13.8435 11.5917 13.8087 11.477 13.7852 11.359C13.7617 11.2409 13.75 11.1217 13.75 11.0013C13.75 10.8809 13.7617 10.7617 13.7852 10.6436C13.8087 10.5256 13.8435 10.4109 13.8896 10.2997C13.9356 10.1885 13.9921 10.0828 14.059 9.98276C14.1259 9.88267 14.2018 9.79006 14.287 9.70494C14.3721 9.61982 14.4647 9.54382 14.5648 9.47694C14.6649 9.41006 14.7705 9.35359 14.8817 9.30752C14.993 9.26146 15.1076 9.22668 15.2257 9.2032C15.3437 9.17971 15.463 9.16797 15.5833 9.16797Z" fill-rule="evenodd"  fill="#58A2FF" >
</path>
<path d="M15.5833 16.5L28.4167 16.5C28.537 16.5 28.6563 16.5117 28.7743 16.5352C28.8924 16.5587 29.007 16.5935 29.1182 16.6396C29.2295 16.6856 29.3351 16.7421 29.4352 16.809C29.5353 16.8759 29.6279 16.9519 29.713 17.037C29.7982 17.1221 29.8741 17.2147 29.941 17.3148C30.0079 17.4149 30.0644 17.5205 30.1104 17.6317C30.1565 17.743 30.1913 17.8576 30.2148 17.9757C30.2383 18.0937 30.25 18.213 30.25 18.3333C30.25 18.4537 30.2383 18.5729 30.2148 18.691C30.1913 18.8091 30.1565 18.9237 30.1104 19.0349C30.0644 19.1461 30.0079 19.2518 29.941 19.3519C29.8741 19.452 29.7982 19.5446 29.713 19.6297C29.6279 19.7148 29.5353 19.7908 29.4352 19.8577C29.3351 19.9246 29.2295 19.981 29.1182 20.0271C29.007 20.0732 28.8924 20.108 28.7743 20.1314C28.6563 20.1549 28.537 20.1667 28.4167 20.1667L15.5833 20.1667C15.463 20.1667 15.3437 20.1549 15.2257 20.1314C15.1076 20.108 14.993 20.0732 14.8817 20.0271C14.7705 19.981 14.6649 19.9246 14.5648 19.8577C14.4647 19.7908 14.3721 19.7148 14.287 19.6297C14.2018 19.5446 14.1259 19.452 14.059 19.3519C13.9921 19.2518 13.9356 19.1461 13.8896 19.0349C13.8435 18.9237 13.8087 18.8091 13.7852 18.691C13.7617 18.5729 13.75 18.4537 13.75 18.3333C13.75 18.213 13.7617 18.0937 13.7852 17.9757C13.8087 17.8576 13.8435 17.743 13.8896 17.6317C13.9356 17.5205 13.9921 17.4149 14.059 17.3148C14.1259 17.2147 14.2018 17.1221 14.287 17.037C14.3721 16.9519 14.4647 16.8759 14.5648 16.809C14.6649 16.7421 14.7705 16.6856 14.8817 16.6396C14.993 16.5935 15.1076 16.5587 15.2257 16.5352C15.3437 16.5117 15.463 16.5 15.5833 16.5Z" fill-rule="evenodd"  fill="#58A2FF" >
</path>
<path d="M15.5833 23.832L21.0833 23.832C21.2037 23.832 21.3229 23.8438 21.441 23.8673C21.5591 23.8907 21.6737 23.9255 21.7849 23.9716C21.8961 24.0177 22.0018 24.0741 22.1019 24.141C22.202 24.2079 22.2946 24.2839 22.3797 24.369C22.4648 24.4541 22.5408 24.5467 22.6077 24.6468C22.6746 24.7469 22.731 24.8526 22.7771 24.9638C22.8232 25.075 22.858 25.1896 22.8814 25.3077C22.9049 25.4258 22.9167 25.545 22.9167 25.6654C22.9167 25.7857 22.9049 25.905 22.8814 26.023C22.858 26.1411 22.8232 26.2557 22.7771 26.3669C22.731 26.4782 22.6746 26.5838 22.6077 26.6839C22.5408 26.784 22.4648 26.8766 22.3797 26.9617C22.2946 27.0468 22.202 27.1228 22.1019 27.1897C22.0018 27.2566 21.8961 27.3131 21.7849 27.3591C21.6737 27.4052 21.5591 27.44 21.441 27.4635C21.3229 27.487 21.2037 27.4987 21.0833 27.4987L15.5833 27.4987C15.463 27.4987 15.3437 27.487 15.2257 27.4635C15.1076 27.44 14.993 27.4052 14.8817 27.3591C14.7705 27.3131 14.6649 27.2566 14.5648 27.1897C14.4647 27.1228 14.3721 27.0468 14.287 26.9617C14.2018 26.8766 14.1259 26.784 14.059 26.6839C13.9921 26.5838 13.9356 26.4782 13.8896 26.3669C13.8435 26.2557 13.8087 26.1411 13.7852 26.023C13.7617 25.905 13.75 25.7857 13.75 25.6654C13.75 25.545 13.7617 25.4258 13.7852 25.3077C13.8087 25.1896 13.8435 25.075 13.8896 24.9638C13.9356 24.8526 13.9921 24.7469 14.059 24.6468C14.1259 24.5467 14.2018 24.4541 14.287 24.369C14.3721 24.2839 14.4647 24.2079 14.5648 24.141C14.6649 24.0741 14.7705 24.0177 14.8817 23.9716C14.993 23.9255 15.1076 23.8907 15.2257 23.8673C15.3437 23.8438 15.463 23.832 15.5833 23.832Z" fill-rule="evenodd"  fill="#58A2FF" >
</path>
<path d="M35.37 31.7049L35.3693 31.7057L29.333 37.7419L26.9627 35.3716C26.6309 35.0398 26.1726 34.8346 25.6663 34.8346L25.6634 34.8346L25.6627 34.8346C24.6519 34.8366 23.833 35.6566 23.833 36.668C23.833 37.1741 24.0381 37.6323 24.3697 37.964L24.3701 37.9644L28.0366 41.631C28.7526 42.347 29.9134 42.347 30.6294 41.631L37.962 34.2984L37.9627 34.2977C38.2945 33.9659 38.4997 33.5076 38.4997 33.0013C38.4997 32.495 38.2945 32.0367 37.9627 31.7049C37.6309 31.3732 37.1726 31.168 36.6663 31.168C36.4232 31.168 36.1894 31.2145 35.9648 31.3075C35.7402 31.4006 35.5419 31.533 35.37 31.7049Z" fill-rule="evenodd"  fill="#58A2FF" >
</path>
</svg>
