<svg xmlns="http://www.w3.org/2000/svg" xmlns:xlink="http://www.w3.org/1999/xlink" width="44" height="44" viewBox="0 0 44 44" fill="none">
<path d="M21.9997 20.1654C27.0623 20.1654 31.1663 16.0613 31.1663 10.9987C31.1663 5.93609 27.0623 1.83203 21.9997 1.83203C16.9371 1.83203 12.833 5.93609 12.833 10.9987C12.833 16.0613 16.9371 20.1654 21.9997 20.1654ZM21.9997 5.4987C25.0372 5.4987 27.4997 7.96114 27.4997 10.9987C27.4997 14.0363 25.0372 16.4987 21.9997 16.4987C18.9621 16.4987 16.4997 14.0363 16.4997 10.9987C16.4997 7.96114 18.9621 5.4987 21.9997 5.4987Z" fill-rule="evenodd"  fill="#FF99FD" >
</path>
<path d="M22.0003 25.6667C30.1005 25.6667 36.667 32.2332 36.667 40.3333C36.667 40.4537 36.6787 40.5729 36.7022 40.691C36.7257 40.8091 36.7604 40.9237 36.8065 41.0349C36.8526 41.1461 36.909 41.2518 36.9759 41.3519C37.0428 41.452 37.1188 41.5446 37.204 41.6297C37.289 41.7148 37.3816 41.7908 37.4817 41.8577C37.5818 41.9246 37.6875 41.981 37.7987 42.0271C37.9099 42.0732 38.0246 42.108 38.1426 42.1314C38.2607 42.1549 38.3799 42.1667 38.5003 42.1667C38.6207 42.1667 38.7399 42.1549 38.858 42.1314C38.9761 42.108 39.0907 42.0732 39.2019 42.0271C39.3132 41.981 39.4188 41.9246 39.5189 41.8577C39.619 41.7908 39.7116 41.7148 39.7967 41.6297C39.8817 41.5446 39.9578 41.452 40.0247 41.3519C40.0916 41.2518 40.1481 41.1461 40.1941 41.0349C40.2402 40.9237 40.275 40.8091 40.2985 40.691C40.3219 40.5729 40.3337 40.4537 40.3337 40.3333C40.3337 30.2081 32.1255 22 22.0003 22C11.8751 22 3.66699 30.2081 3.66699 40.3333C3.66699 40.4537 3.67873 40.5729 3.70222 40.691C3.7257 40.8091 3.76048 40.9237 3.80655 41.0349C3.85261 41.1461 3.90909 41.2518 3.97596 41.3519C4.04284 41.452 4.11884 41.5446 4.20396 41.6297C4.28908 41.7148 4.38169 41.7908 4.48178 41.8577C4.58187 41.9246 4.68752 41.981 4.79874 42.0271C4.90996 42.0732 5.0246 42.108 5.14266 42.1314C5.26073 42.1549 5.37995 42.1667 5.50033 42.1667C5.6207 42.1667 5.73993 42.1549 5.85799 42.1314C5.97606 42.108 6.0907 42.0732 6.20191 42.0271C6.31313 41.981 6.41878 41.9246 6.51887 41.8577C6.61896 41.7908 6.71157 41.7148 6.79669 41.6297C6.88181 41.5446 6.95781 41.452 7.02468 41.3519C7.09156 41.2518 7.14804 41.1461 7.1941 41.0349C7.24017 40.9237 7.27495 40.8091 7.29843 40.691C7.32192 40.5729 7.33366 40.4537 7.33366 40.3333C7.33366 32.2332 13.9001 25.6667 22.0003 25.6667Z" fill-rule="evenodd"  fill="#FF99FD" >
</path>
<path d="M20.5679 41.4779L16.9018 36.8953C16.5227 36.4215 16.4027 35.7908 16.5811 35.2108L20.2478 23.2942C20.7787 21.5686 23.2213 21.5686 23.7523 23.2942L27.4189 35.2108C27.5974 35.7908 27.4773 36.4215 27.0983 36.8953L23.4322 41.4779L23.4316 41.4786C23.3468 41.5846 23.2513 41.6801 23.1453 41.7649C22.9888 41.8901 22.8165 41.987 22.6282 42.0557C22.44 42.1243 22.2457 42.1611 22.0453 42.1661L21.9927 42.1666C21.6708 42.1654 21.37 42.0849 21.0905 41.9252C21.0078 41.8779 20.9292 41.8245 20.8547 41.7649C20.7487 41.6801 20.6533 41.5846 20.5684 41.4786L20.5679 41.4779ZM22 37.3986L23.6292 35.3621L22 30.0673L20.3709 35.3621L22 37.3986Z" fill-rule="evenodd"  fill="#FF99FD" >
</path>
</svg>
