<svg xmlns="http://www.w3.org/2000/svg" xmlns:xlink="http://www.w3.org/1999/xlink" width="20" height="20" viewBox="0 0 20 20" fill="none">
<path d="M9.52179 1.81861L1.18846 7.65195C1.17224 7.6633 1.15646 7.67521 1.14109 7.68768C1.09297 7.72675 1.04975 7.77064 1.01142 7.81935C0.973097 7.86806 0.940609 7.92039 0.913961 7.97635C0.887313 8.03232 0.867158 8.09052 0.853498 8.15098C0.839838 8.21144 0.833008 8.27265 0.833008 8.33464L0.833008 17.5013C0.833008 17.9616 1.2061 18.3346 1.66634 18.3346L18.333 18.3346C18.7933 18.3346 19.1663 17.9616 19.1663 17.5013L19.1663 8.33464C19.1663 8.06271 19.0337 7.80789 18.8109 7.65195L10.4776 1.81861C10.1906 1.61775 9.80872 1.61775 9.52179 1.81861ZM2.49967 8.76852L2.49967 16.668L17.4997 16.668L17.4997 8.76852L9.99967 3.51852L2.49967 8.76852Z" fill-rule="evenodd"  fill="#FB633C" >
</path>
<path d="M7.50033 9.5L12.5003 9.5C12.555 9.5 12.6092 9.50534 12.6629 9.51601C12.7166 9.52669 12.7687 9.54249 12.8192 9.56343C12.8698 9.58437 12.9178 9.61004 12.9633 9.64044C13.0088 9.67084 13.0509 9.70539 13.0896 9.74408C13.1283 9.78277 13.1628 9.82486 13.1932 9.87036C13.2236 9.91585 13.2493 9.96388 13.2702 10.0144C13.2912 10.065 13.307 10.1171 13.3176 10.1708C13.3283 10.2244 13.3337 10.2786 13.3337 10.3333C13.3337 10.3881 13.3283 10.4422 13.3176 10.4959C13.307 10.5496 13.2912 10.6017 13.2702 10.6522C13.2493 10.7028 13.2236 10.7508 13.1932 10.7963C13.1628 10.8418 13.1283 10.8839 13.0896 10.9226C13.0509 10.9613 13.0088 10.9958 12.9633 11.0262C12.9178 11.0566 12.8698 11.0823 12.8192 11.1032C12.7687 11.1242 12.7166 11.14 12.6629 11.1507C12.6092 11.1613 12.555 11.1667 12.5003 11.1667L7.50033 11.1667C7.44561 11.1667 7.39142 11.1613 7.33775 11.1507C7.28408 11.14 7.23198 11.1242 7.18142 11.1032C7.13087 11.0823 7.08285 11.0566 7.03735 11.0262C6.99185 10.9958 6.94976 10.9613 6.91107 10.9226C6.87238 10.8839 6.83783 10.8418 6.80743 10.7963C6.77704 10.7508 6.75137 10.7028 6.73043 10.6522C6.70949 10.6017 6.69368 10.5496 6.683 10.4959C6.67233 10.4422 6.66699 10.3881 6.66699 10.3333C6.66699 10.2786 6.67233 10.2244 6.683 10.1708C6.69368 10.1171 6.70949 10.065 6.73043 10.0144C6.75137 9.96388 6.77703 9.91585 6.80743 9.87036C6.83783 9.82486 6.87238 9.78277 6.91107 9.74408C6.94976 9.70539 6.99185 9.67084 7.03735 9.64044C7.08285 9.61004 7.13087 9.58437 7.18142 9.56343C7.23198 9.54249 7.28408 9.52669 7.33775 9.51601C7.39142 9.50534 7.44561 9.5 7.50033 9.5Z" fill-rule="evenodd"  fill="#FB633C" >
</path>
<path d="M7.50033 12L12.5003 12C12.555 12 12.6092 12.0053 12.6629 12.016C12.7166 12.0267 12.7687 12.0425 12.8192 12.0634C12.8698 12.0844 12.9178 12.11 12.9633 12.1404C13.0088 12.1708 13.0509 12.2054 13.0896 12.2441C13.1283 12.2828 13.1628 12.3249 13.1932 12.3704C13.2236 12.4159 13.2493 12.4639 13.2702 12.5144C13.2912 12.565 13.307 12.6171 13.3176 12.6708C13.3283 12.7244 13.3337 12.7786 13.3337 12.8333C13.3337 12.8881 13.3283 12.9422 13.3176 12.9959C13.307 13.0496 13.2912 13.1017 13.2702 13.1522C13.2493 13.2028 13.2236 13.2508 13.1932 13.2963C13.1628 13.3418 13.1283 13.3839 13.0896 13.4226C13.0509 13.4613 13.0088 13.4958 12.9633 13.5262C12.9178 13.5566 12.8698 13.5823 12.8192 13.6032C12.7687 13.6242 12.7166 13.64 12.6629 13.6507C12.6092 13.6613 12.555 13.6667 12.5003 13.6667L7.50033 13.6667C7.44561 13.6667 7.39142 13.6613 7.33775 13.6507C7.28408 13.64 7.23198 13.6242 7.18142 13.6032C7.13087 13.5823 7.08285 13.5566 7.03735 13.5262C6.99185 13.4958 6.94976 13.4613 6.91107 13.4226C6.87238 13.3839 6.83783 13.3418 6.80743 13.2963C6.77704 13.2508 6.75137 13.2028 6.73043 13.1522C6.70949 13.1017 6.69368 13.0496 6.683 12.9959C6.67233 12.9422 6.66699 12.8881 6.66699 12.8333C6.66699 12.7786 6.67233 12.7244 6.683 12.6708C6.69368 12.6171 6.70949 12.565 6.73043 12.5144C6.75137 12.4639 6.77703 12.4159 6.80743 12.3704C6.83783 12.3249 6.87238 12.2828 6.91107 12.2441C6.94976 12.2054 6.99185 12.1708 7.03735 12.1404C7.08285 12.11 7.13087 12.0844 7.18142 12.0634C7.23198 12.0425 7.28408 12.0267 7.33775 12.016C7.39142 12.0053 7.44561 12 7.50033 12Z" fill-rule="evenodd"  fill="#FB633C" >
</path>
<path d="M10.8337 10.3333L10.8337 15.3333C10.8337 15.3881 10.8283 15.4422 10.8176 15.4959C10.807 15.5496 10.7912 15.6017 10.7702 15.6522C10.7493 15.7028 10.7236 15.7508 10.6932 15.7963C10.6628 15.8418 10.6283 15.8839 10.5896 15.9226C10.5509 15.9613 10.5088 15.9958 10.4633 16.0262C10.4178 16.0566 10.3698 16.0823 10.3192 16.1032C10.2687 16.1242 10.2166 16.14 10.1629 16.1507C10.1092 16.1613 10.055 16.1667 10.0003 16.1667C9.94561 16.1667 9.89142 16.1613 9.83775 16.1507C9.78408 16.14 9.73198 16.1242 9.68142 16.1032C9.63087 16.0823 9.58285 16.0566 9.53735 16.0262C9.49185 15.9958 9.44976 15.9613 9.41107 15.9226C9.37238 15.8839 9.33783 15.8418 9.30744 15.7963C9.27704 15.7508 9.25137 15.7028 9.23043 15.6522C9.20949 15.6017 9.19368 15.5496 9.183 15.4959C9.17233 15.4422 9.16699 15.3881 9.16699 15.3333L9.16699 10.3333C9.16699 10.2786 9.17233 10.2244 9.183 10.1708C9.19368 10.1171 9.20949 10.065 9.23043 10.0144C9.25137 9.96388 9.27703 9.91585 9.30743 9.87036C9.33783 9.82486 9.37238 9.78277 9.41107 9.74408C9.44976 9.70539 9.49185 9.67084 9.53735 9.64044C9.58285 9.61004 9.63087 9.58437 9.68142 9.56343C9.73198 9.54249 9.78408 9.52669 9.83775 9.51601C9.89142 9.50534 9.94561 9.5 10.0003 9.5C10.055 9.5 10.1092 9.50534 10.1629 9.51601C10.2166 9.52669 10.2687 9.54249 10.3192 9.56343C10.3698 9.58437 10.4178 9.61004 10.4633 9.64044C10.5088 9.67084 10.5509 9.70539 10.5896 9.74408C10.6283 9.78277 10.6628 9.82486 10.6932 9.87036C10.7236 9.91585 10.7493 9.96388 10.7702 10.0144C10.7912 10.065 10.807 10.1171 10.8176 10.1708C10.8283 10.2244 10.8337 10.2786 10.8337 10.3333Z" fill-rule="evenodd"  fill="#FB633C" >
</path>
<path d="M10.5896 10.5046L13.0893 8.00495L13.0896 8.00462C13.2404 7.85382 13.3337 7.64548 13.3337 7.41536C13.3337 7.18525 13.2404 6.97691 13.0896 6.82611C12.9388 6.67531 12.7304 6.58203 12.5003 6.58203C12.3898 6.58203 12.2835 6.60318 12.1814 6.64547C12.0793 6.68775 11.9892 6.74797 11.9111 6.82611L11.9107 6.82644L10.0003 8.73686L8.08958 6.82611C7.93878 6.67531 7.73044 6.58203 7.50033 6.58203C7.27021 6.58203 7.06187 6.67531 6.91107 6.82611C6.76027 6.97691 6.66699 7.18525 6.66699 7.41536C6.66699 7.64548 6.76027 7.85382 6.91107 8.00462L6.91122 8.00477L9.41107 10.5046C9.73651 10.8301 10.2641 10.8301 10.5896 10.5046Z" fill-rule="evenodd"  fill="#FB633C" >
</path>
</svg>
