<svg xmlns="http://www.w3.org/2000/svg" xmlns:xlink="http://www.w3.org/1999/xlink" width="32" height="32" viewBox="0 0 32 32" fill="none">
<circle cx="16" cy="16" r="16"   fill="#F2EEFF" >
</circle>
<path d="M10.583 11.8385L16.4163 7.67188L16.4163 24.3385L10.583 24.3385L10.583 11.8385Z"   fill="#B199FF" >
</path>
<path d="M15.9323 6.98482L10.099 11.1515C10.0849 11.1621 10.0712 11.1729 10.058 11.1839C9.85907 11.3496 9.7564 11.5648 9.75 11.8296L9.75 24.3296C9.75 24.7898 10.1231 25.1629 10.5833 25.1629L16.4167 25.1629C16.8769 25.1629 17.25 24.7898 17.25 24.3296L17.25 7.66293C17.25 6.98512 16.4839 6.59085 15.9323 6.98482ZM11.4167 12.2584L11.4167 23.4963L15.5833 23.4963L15.5833 9.28225L11.4167 12.2584Z" fill-rule="evenodd"  fill="#B199FF" >
</path>
<path d="M15.8271 10.8222C15.9779 10.6714 16.1862 10.5781 16.4163 10.5781C16.6005 10.5781 16.7707 10.6378 16.9086 10.739L22.734 14.9C22.953 15.0564 23.083 15.309 23.083 15.5781L23.083 24.3281C23.083 24.3828 23.0777 24.437 23.067 24.4907C23.0563 24.5444 23.0405 24.5965 23.0196 24.647C22.9986 24.6976 22.973 24.7456 22.9426 24.7911C22.9122 24.8366 22.8776 24.8787 22.8389 24.9174C22.8002 24.956 22.7581 24.9906 22.7127 25.021C22.6672 25.0514 22.6191 25.0771 22.5686 25.098C22.518 25.119 22.4659 25.1348 22.4123 25.1455C22.3586 25.1561 22.3044 25.1615 22.2497 25.1615C22.195 25.1615 22.1408 25.1561 22.0871 25.1455C22.0334 25.1348 21.9813 25.119 21.9308 25.098C21.8802 25.0771 21.8322 25.0514 21.7867 25.021C21.7412 24.9906 21.6991 24.956 21.6604 24.9174C21.6217 24.8787 21.5872 24.8366 21.5568 24.7911C21.5264 24.7456 21.5007 24.6976 21.4798 24.647C21.4588 24.5965 21.443 24.5444 21.4324 24.4907C21.4217 24.437 21.4163 24.3828 21.4163 24.3281L21.4163 16.007L15.941 12.096C15.903 12.0696 15.8673 12.04 15.8342 12.0077C15.8318 12.0054 15.8294 12.0031 15.8271 12.0007C15.6763 11.8499 15.583 11.6416 15.583 11.4115C15.583 11.1849 15.6734 10.9795 15.8201 10.8293C15.8224 10.8269 15.8247 10.8246 15.8271 10.8222Z" fill-rule="evenodd"  fill="#B199FF" >
</path>
<path d="M7.66634 23.5L24.333 23.5C24.3877 23.5 24.4419 23.5053 24.4956 23.516C24.5493 23.5267 24.6014 23.5425 24.6519 23.5634C24.7025 23.5844 24.7505 23.61 24.796 23.6404C24.8415 23.6708 24.8836 23.7054 24.9223 23.7441C24.9609 23.7828 24.9955 23.8249 25.0259 23.8704C25.0563 23.9159 25.082 23.9639 25.1029 24.0144C25.1239 24.065 25.1397 24.1171 25.1503 24.1708C25.161 24.2244 25.1663 24.2786 25.1663 24.3333C25.1663 24.3881 25.161 24.4422 25.1503 24.4959C25.1397 24.5496 25.1239 24.6017 25.1029 24.6522C25.082 24.7028 25.0563 24.7508 25.0259 24.7963C24.9955 24.8418 24.9609 24.8839 24.9223 24.9226C24.8836 24.9613 24.8415 24.9958 24.796 25.0262C24.7505 25.0566 24.7025 25.0823 24.6519 25.1032C24.6014 25.1242 24.5493 25.14 24.4956 25.1507C24.4419 25.1613 24.3877 25.1667 24.333 25.1667L7.66634 25.1667C7.61162 25.1667 7.55743 25.1613 7.50377 25.1507C7.4501 25.14 7.39799 25.1242 7.34744 25.1032C7.29689 25.0823 7.24886 25.0566 7.20337 25.0262C7.15787 24.9958 7.11578 24.9613 7.07709 24.9226C7.03839 24.8839 7.00385 24.8418 6.97345 24.7963C6.94305 24.7508 6.91738 24.7028 6.89644 24.6522C6.8755 24.6017 6.85969 24.5496 6.84902 24.4959C6.83835 24.4422 6.83301 24.3881 6.83301 24.3333C6.83301 24.2786 6.83835 24.2244 6.84902 24.1708C6.8597 24.1171 6.8755 24.065 6.89644 24.0144C6.91738 23.9639 6.94305 23.9159 6.97345 23.8704C7.00385 23.8249 7.03839 23.7828 7.07709 23.7441C7.11578 23.7054 7.15787 23.6708 7.20337 23.6404C7.24886 23.61 7.29689 23.5844 7.34744 23.5634C7.39799 23.5425 7.4501 23.5267 7.50377 23.516C7.55743 23.5053 7.61162 23.5 7.66634 23.5Z" fill-rule="evenodd"  fill="#B199FF" >
</path>
</svg>
