<svg xmlns="http://www.w3.org/2000/svg" xmlns:xlink="http://www.w3.org/1999/xlink" width="32" height="32" viewBox="0 0 32 32" fill="none">
<circle cx="16" cy="16" r="16"   fill="#FFF0DE" >
</circle>
<path d="M8.08594 21.4154C8.08594 20.9551 8.45903 20.582 8.91927 20.582L23.0859 20.582C23.5462 20.582 23.9193 20.9551 23.9193 21.4154L23.9193 23.4987C23.9193 23.9589 23.5462 24.332 23.0859 24.332L8.91927 24.332C8.45903 24.332 8.08594 23.9589 8.08594 23.4987L8.08594 21.4154Z" stroke="rgba(255, 171, 74, 1)" stroke-width="1.666666666666667"      fill="#FFAB4A" >
</path>
<path d="M8.08594 18.9154C8.08594 18.4551 8.45903 18.082 8.91927 18.082L23.0859 18.082C23.5462 18.082 23.9193 18.4551 23.9193 18.9154L23.9193 23.4987C23.9193 23.9589 23.5462 24.332 23.0859 24.332L8.91927 24.332C8.45903 24.332 8.08594 23.9589 8.08594 23.4987L8.08594 18.9154Z" stroke="rgba(255, 171, 74, 1)" stroke-width="1.666666666666667"   >
</path>
<path d="M13.8205 12.5265C13.8797 12.3607 14.0368 12.25 14.2129 12.25L17.7923 12.25C17.9684 12.25 18.1255 12.3607 18.1847 12.5265L20.1693 18.0833L11.8359 18.0833L13.8205 12.5265Z" stroke="rgba(255, 171, 74, 1)" stroke-width="1.666666666666667" stroke-linejoin="round" stroke-linecap="round" >
</path>
<rect  x="12.25" y="7.66796875" width="7.5" height="4.5" rx="2.25"    fill="#FFAB4A" >
</rect>
<path   fill="rgba(255, 171, 74, 1)"  d="M14.5 6.83464L17.5 6.83464C19.2029 6.83464 20.5833 8.21509 20.5833 9.91797C20.5833 11.6208 19.2029 13.0013 17.5 13.0013L14.5 13.0013C12.7971 13.0013 11.4167 11.6208 11.4167 9.91797Q11.4167 8.64081 12.3198 7.73772Q13.2228 6.83464 14.5 6.83464ZM14.5 8.5013Q13.9132 8.5013 13.4983 8.91623Q13.0833 9.33117 13.0833 9.91797C13.0833 10.7004 13.7176 11.3346 14.5 11.3346L17.5 11.3346C18.2824 11.3346 18.9167 10.7004 18.9167 9.91797C18.9167 9.13557 18.2824 8.5013 17.5 8.5013L14.5 8.5013Z">
</path>
</svg>
