<svg xmlns="http://www.w3.org/2000/svg" xmlns:xlink="http://www.w3.org/1999/xlink" width="32" height="32" viewBox="0 0 32 32" fill="none">
<circle cx="16" cy="16" r="16"   fill="#FFF0DE" >
</circle>
<path d="M15.9997 14.3333C17.6105 14.3333 18.9163 13.0275 18.9163 11.4167C18.9163 9.80584 17.6105 8.5 15.9997 8.5C14.3888 8.5 13.083 9.80584 13.083 11.4167C13.083 13.0275 14.3888 14.3333 15.9997 14.3333Z"   fill="#FFAB4A" >
</path>
<path d="M18.0833 11.4219C18.0833 12.5725 17.1506 13.5052 16 13.5052C14.8494 13.5052 13.9167 12.5725 13.9167 11.4219C13.9167 10.2713 14.8494 9.33854 16 9.33854C17.1506 9.33854 18.0833 10.2713 18.0833 11.4219ZM16 15.1719C18.0711 15.1719 19.75 13.4929 19.75 11.4219C19.75 9.35081 18.0711 7.67188 16 7.67188C13.9289 7.67188 12.25 9.35081 12.25 11.4219C12.25 13.4929 13.9289 15.1719 16 15.1719Z" fill-rule="evenodd"  fill="#FFAB4A" >
</path>
<path d="M11.5896 8.43158C11.4388 8.28077 11.2304 8.1875 11.0003 8.1875C10.819 8.1875 10.6512 8.24543 10.5143 8.3438C9.44944 9.09033 8.91699 10.114 8.91699 11.4147C8.91699 12.8225 9.51834 13.8912 10.721 14.6208C10.8493 14.7014 11.0011 14.748 11.1638 14.748C11.385 14.748 11.586 14.6619 11.7351 14.5214C11.7461 14.5111 11.7567 14.5005 11.7671 14.4897C11.909 14.3407 11.9965 14.1393 11.9972 13.9174L11.9972 13.915L11.9972 13.9147C11.9972 13.6071 11.8305 13.3385 11.5826 13.1941C10.9166 12.7884 10.5837 12.1953 10.5837 11.4147C10.5837 10.6933 10.8787 10.1251 11.4687 9.71016C11.689 9.56019 11.8337 9.3074 11.8337 9.02083C11.8337 8.7978 11.746 8.59524 11.6034 8.44568C11.5988 8.44092 11.5942 8.43622 11.5896 8.43158Z" fill-rule="evenodd"  fill="#FFAB4A" >
</path>
<path d="M20.5319 9.71016C21.122 10.1251 21.417 10.6933 21.417 11.4147C21.417 12.1362 21.122 12.7043 20.5319 13.1192C20.3122 13.2689 20.1677 13.5208 20.167 13.8066L20.167 13.8086L20.167 13.8106C20.1675 14.0309 20.2535 14.2312 20.3937 14.3799C20.4051 14.392 20.4169 14.4038 20.429 14.4152C20.5782 14.5558 20.7792 14.6419 21.0003 14.6419C21.1817 14.6419 21.3495 14.584 21.4863 14.4856C22.5512 13.7391 23.0837 12.7155 23.0837 11.4147C23.0837 10.114 22.5512 9.09033 21.4863 8.3438C21.3495 8.24543 21.1817 8.1875 21.0003 8.1875C20.5401 8.1875 20.167 8.5606 20.167 9.02083C20.167 9.3074 20.3116 9.56019 20.5319 9.71016Z" fill-rule="evenodd"  fill="#FFAB4A" >
</path>
<path d="M11 22.6719L11 23.5052L21 23.5052L21 22.6719C21 21.1187 21 20.3422 20.7463 19.7296C20.408 18.9128 19.759 18.2639 18.9423 17.9256C18.3297 17.6719 17.5531 17.6719 16 17.6719C14.4469 17.6719 13.6703 17.6719 13.0577 17.9256C12.241 18.2639 11.592 18.9128 11.2537 19.7296C11 20.3422 11 21.1187 11 22.6719Z"   fill="#FFAB4A" >
</path>
<path d="M11.8337 22.6615L20.167 22.6615C20.167 21.2188 20.1035 20.3444 19.9767 20.0381C19.7125 19.4003 19.2615 18.9493 18.6237 18.6851C18.3174 18.5582 17.443 18.4948 16.0003 18.4948C14.5577 18.4948 13.6832 18.5582 13.3769 18.6851C12.7391 18.9493 12.2882 19.4003 12.024 20.0381C11.8971 20.3444 11.8337 21.2188 11.8337 22.6615ZM10.4842 19.4003C10.2727 19.9107 10.167 20.9978 10.167 22.6615L10.167 23.4948C10.167 23.955 10.5401 24.3281 11.0003 24.3281L21.0003 24.3281C21.4606 24.3281 21.8337 23.955 21.8337 23.4948L21.8337 22.6615C21.8337 20.9978 21.7279 19.9107 21.5165 19.4002C21.0762 18.3372 20.3246 17.5856 19.2615 17.1453C18.751 16.9339 17.664 16.8281 16.0003 16.8281C14.3367 16.8281 13.2496 16.9339 12.7391 17.1453C11.6761 17.5856 10.9245 18.3373 10.4842 19.4003Z" fill-rule="evenodd"  fill="#FFAB4A" >
</path>
<path d="M22.1485 18.7783C22.6242 19.024 22.9838 19.3858 23.2273 19.8637C23.4089 20.2202 23.4997 21.2652 23.4997 22.9986L23.4997 23.4986C23.4997 23.5534 23.5051 23.6076 23.5157 23.6612C23.5264 23.7149 23.5422 23.767 23.5632 23.8175C23.5841 23.8681 23.6098 23.9161 23.6402 23.9616C23.6706 24.0071 23.7051 24.0492 23.7438 24.0879C23.7825 24.1266 23.8246 24.1611 23.8701 24.1915C23.9156 24.2219 23.9636 24.2476 24.0142 24.2685C24.0647 24.2895 24.1168 24.3053 24.1705 24.316C24.2242 24.3266 24.2783 24.332 24.3331 24.332C24.3878 24.332 24.442 24.3266 24.4956 24.316C24.5493 24.3053 24.6014 24.2895 24.652 24.2685C24.7025 24.2476 24.7505 24.2219 24.796 24.1915C24.8415 24.1611 24.8836 24.1266 24.9223 24.0879C24.961 24.0492 24.9956 24.0071 25.026 23.9616C25.0564 23.9161 25.082 23.8681 25.103 23.8175C25.1239 23.767 25.1397 23.7149 25.1504 23.6612C25.1611 23.6076 25.1664 23.5534 25.1664 23.4986L25.1664 22.9986C25.1664 20.9984 25.015 19.7012 24.7123 19.107C24.3053 18.3083 23.7037 17.7041 22.9075 17.2944C22.7901 17.2312 22.6557 17.1953 22.513 17.1953C22.2856 17.1953 22.0795 17.2864 21.9291 17.4341C21.9255 17.4376 21.922 17.4412 21.9185 17.4447C21.7708 17.5951 21.6797 17.8012 21.6797 18.0286C21.6797 18.2556 21.7704 18.4614 21.9176 18.6117C21.9217 18.6159 21.9258 18.62 21.93 18.6241C21.9937 18.6865 22.0674 18.7388 22.1485 18.7783Z" fill-rule="evenodd"  fill="#FFAB4A" >
</path>
<path d="M10.0613 17.4254C9.91178 17.2828 9.7093 17.1953 9.48637 17.1953C9.34365 17.1953 9.2093 17.2312 9.09187 17.2944C8.2957 17.7041 7.69413 18.3083 7.28715 19.107C6.98439 19.7012 6.83301 20.9984 6.83301 22.9986L6.83301 23.4986C6.83301 23.5534 6.83835 23.6076 6.84902 23.6612C6.8597 23.7149 6.8755 23.767 6.89644 23.8175C6.91738 23.8681 6.94305 23.9161 6.97345 23.9616C7.00385 24.0071 7.03839 24.0492 7.07709 24.0879C7.11578 24.1266 7.15787 24.1611 7.20337 24.1915C7.24886 24.2219 7.29689 24.2476 7.34744 24.2685C7.39799 24.2895 7.4501 24.3053 7.50377 24.316C7.55743 24.3266 7.61162 24.332 7.66634 24.332C7.72106 24.332 7.77525 24.3266 7.82892 24.316C7.88258 24.3053 7.93469 24.2895 7.98524 24.2685C8.0358 24.2476 8.08382 24.2219 8.12932 24.1915C8.17481 24.1611 8.21691 24.1266 8.2556 24.0879C8.29429 24.0492 8.32883 24.0071 8.35923 23.9616C8.38963 23.9161 8.4153 23.8681 8.43624 23.8175C8.45718 23.767 8.47299 23.7149 8.48366 23.6612C8.49434 23.6076 8.49967 23.5534 8.49967 23.4986L8.49967 22.9986C8.49967 21.2652 8.5905 20.2202 8.77216 19.8637C9.01564 19.3858 9.37521 19.024 9.85086 18.7782C10.1284 18.643 10.3197 18.3582 10.3197 18.0286L10.3197 18.0285L10.3197 18.0261C10.319 17.8043 10.2317 17.6029 10.0898 17.4539C10.0806 17.4442 10.0711 17.4347 10.0613 17.4254Z" fill-rule="evenodd"  fill="#FFAB4A" >
</path>
</svg>
