<svg xmlns="http://www.w3.org/2000/svg" xmlns:xlink="http://www.w3.org/1999/xlink" width="32" height="32" viewBox="0 0 32 32" fill="none">
<circle cx="16" cy="16" r="16"   fill="#DEEDFF" >
</circle>
<path d="M11.417 23.5L20.5837 23.5L23.0837 14.75L18.917 16.8333L16.0003 11L13.0837 16.8333L8.91699 14.75L11.417 23.5Z"   fill="#58A2FF" >
</path>
<path d="M10.6156 23.7341L8.11562 14.9841C7.91643 14.2869 8.64103 13.6856 9.28957 14.0098L12.7109 15.7205L15.2549 10.6325C15.562 10.0183 16.4385 10.0183 16.7456 10.6325L19.2896 15.7205L22.7109 14.0098C23.3594 13.6856 24.0841 14.2869 23.8848 14.9841L21.3848 23.7341C21.2826 24.0919 20.9556 24.3385 20.5836 24.3385L11.4169 24.3385C11.3264 24.3385 11.2382 24.3242 11.1524 24.2955C11.0666 24.2667 10.9875 24.2251 10.9152 24.1706C10.8429 24.1161 10.7811 24.0515 10.7298 23.9768C10.6786 23.9021 10.6405 23.8212 10.6156 23.7341ZM12.0455 22.6719L10.2386 16.3477L12.7109 17.5839C13.1225 17.7897 13.6231 17.6229 13.8289 17.2112L16.0002 12.8686L18.1716 17.2112C18.3774 17.6229 18.8779 17.7897 19.2896 17.5839L21.7619 16.3477L19.955 22.6719L12.0455 22.6719Z" fill-rule="evenodd"  fill="#58A2FF" >
</path>
<path d="M10.167 13.5C10.167 14.1904 9.60735 14.75 8.91699 14.75C8.22664 14.75 7.66699 14.1904 7.66699 13.5C7.66699 12.8096 8.22664 12.25 8.91699 12.25C9.60735 12.25 10.167 12.8096 10.167 13.5Z"   fill="#58A2FF" >
</path>
<path d="M8.91634 15.5885C10.0669 15.5885 10.9997 14.6558 10.9997 13.5052C10.9997 12.3546 10.0669 11.4219 8.91634 11.4219C7.76575 11.4219 6.83301 12.3546 6.83301 13.5052C6.83301 14.6558 7.76575 15.5885 8.91634 15.5885ZM8.91634 13.0885C9.14646 13.0885 9.33301 13.2751 9.33301 13.5052C9.33301 13.7353 9.14646 13.9219 8.91634 13.9219C8.68622 13.9219 8.49967 13.7353 8.49967 13.5052C8.49967 13.2751 8.68622 13.0885 8.91634 13.0885Z" fill-rule="evenodd"  fill="#58A2FF" >
</path>
<path d="M17.25 9.75C17.25 10.4404 16.6904 11 16 11C15.3096 11 14.75 10.4404 14.75 9.75C14.75 9.05964 15.3096 8.5 16 8.5C16.6904 8.5 17.25 9.05964 17.25 9.75Z"   fill="#58A2FF" >
</path>
<path d="M16.0003 11.8385C17.1509 11.8385 18.0837 10.9058 18.0837 9.75521C18.0837 8.60462 17.1509 7.67188 16.0003 7.67188C14.8497 7.67188 13.917 8.60462 13.917 9.75521C13.917 10.9058 14.8497 11.8385 16.0003 11.8385ZM16.0003 9.33854C16.2304 9.33854 16.417 9.52509 16.417 9.75521C16.417 9.98532 16.2304 10.1719 16.0003 10.1719C15.7702 10.1719 15.5837 9.98532 15.5837 9.75521C15.5837 9.52509 15.7702 9.33854 16.0003 9.33854Z" fill-rule="evenodd"  fill="#58A2FF" >
</path>
<path d="M24.333 13.5C24.333 14.1904 23.7734 14.75 23.083 14.75C22.3927 14.75 21.833 14.1904 21.833 13.5C21.833 12.8096 22.3927 12.25 23.083 12.25C23.7734 12.25 24.333 12.8096 24.333 13.5Z"   fill="#58A2FF" >
</path>
<path d="M23.0833 15.5885C24.2339 15.5885 25.1667 14.6558 25.1667 13.5052C25.1667 12.3546 24.2339 11.4219 23.0833 11.4219C21.9327 11.4219 21 12.3546 21 13.5052C21 14.6558 21.9327 15.5885 23.0833 15.5885ZM23.0833 13.0885C23.3134 13.0885 23.5 13.2751 23.5 13.5052C23.5 13.7353 23.3134 13.9219 23.0833 13.9219C22.8532 13.9219 22.6667 13.7353 22.6667 13.5052C22.6667 13.2751 22.8532 13.0885 23.0833 13.0885Z" fill-rule="evenodd"  fill="#58A2FF" >
</path>
</svg>
