<svg xmlns="http://www.w3.org/2000/svg" xmlns:xlink="http://www.w3.org/1999/xlink" width="32" height="32" viewBox="0 0 32 32" fill="none">
<circle cx="16" cy="16" r="16"   fill="#FFEDFF" >
</circle>
<path d="M16.0007 15.9948C22.1118 15.9948 25.1673 14.8837 25.1673 12.6615C25.1673 10.4392 22.1118 9.32812 16.0007 9.32812C10.6032 9.32812 7.58937 10.1949 6.95901 11.9283C6.87566 12.1576 6.83398 12.4019 6.83398 12.6615C6.83398 13.7652 7.84553 14.6205 9.86863 15.2274C11.5739 15.739 13.6179 15.9948 16.0007 15.9948ZM21.6537 11.6919C22.885 12.0613 23.5007 12.3845 23.5007 12.6615C23.5007 12.9385 22.885 13.2617 21.6537 13.631C20.1047 14.0958 18.2203 14.3281 16.0007 14.3281C13.781 14.3281 11.8966 14.0958 10.3476 13.631C9.11628 13.2617 8.50065 12.9385 8.50065 12.6615C8.50065 12.3845 9.11628 12.0613 10.3476 11.6919C11.8966 11.2272 13.781 10.9948 16.0007 10.9948C18.2203 10.9948 20.1047 11.2272 21.6537 11.6919Z" fill-rule="evenodd"  fill="#FF99FD" >
</path>
<path d="M11.0635 18.8897C10.9593 18.989 10.8294 19.0616 10.6848 19.0965C9.22871 19.4833 8.50065 19.8383 8.50065 20.1615C8.50065 20.4385 9.11628 20.7617 10.3476 21.131C11.8966 21.5958 13.781 21.8281 16.0007 21.8281C18.2203 21.8281 20.1047 21.5958 21.6537 21.131C22.885 20.7617 23.5007 20.4385 23.5007 20.1615C23.5007 19.8383 22.7726 19.4833 21.3165 19.0965C20.951 19.0083 20.6794 18.6791 20.6794 18.2865C20.6794 18.0671 20.7642 17.8676 20.9027 17.7188C20.9163 17.7041 20.9305 17.69 20.9451 17.6764C21.0222 17.6046 21.1098 17.5495 21.2078 17.5109C21.3058 17.4724 21.4075 17.4531 21.5127 17.4531C21.5933 17.4531 21.6712 17.4646 21.745 17.4859C24.0265 18.0933 25.1673 18.9851 25.1673 20.1615C25.1673 22.3837 22.1118 23.4948 16.0007 23.4948C13.6179 23.4948 11.5739 23.239 9.86864 22.7274C7.84553 22.1205 6.83398 21.2652 6.83398 20.1615C6.83398 18.9851 7.97477 18.0932 10.2563 17.4859C10.33 17.4646 10.408 17.4531 10.4885 17.4531C10.9488 17.4531 11.3219 17.8262 11.3219 18.2865C11.3219 18.5076 11.2357 18.7086 11.0952 18.8578C11.0849 18.8687 11.0743 18.8793 11.0635 18.8897Z" fill-rule="evenodd"  fill="#FF99FD" >
</path>
<path d="M11.0635 15.1397C10.9593 15.239 10.8294 15.3116 10.6848 15.3465C9.22871 15.7333 8.50065 16.0883 8.50065 16.4115C8.50065 16.6885 9.11628 17.0117 10.3476 17.381C11.8966 17.8458 13.781 18.0781 16.0007 18.0781C18.2203 18.0781 20.1047 17.8458 21.6537 17.381C22.885 17.0117 23.5007 16.6885 23.5007 16.4115C23.5007 16.0883 22.7726 15.7333 21.3165 15.3465C20.951 15.2583 20.6794 14.9291 20.6794 14.5365C20.6794 14.3171 20.7642 14.1176 20.9027 13.9688C20.9163 13.9541 20.9305 13.94 20.9451 13.9264C21.0222 13.8546 21.1098 13.7995 21.2078 13.7609C21.3058 13.7224 21.4075 13.7031 21.5127 13.7031C21.5933 13.7031 21.6712 13.7146 21.745 13.7359C24.0265 14.3433 25.1673 15.2351 25.1673 16.4115C25.1673 18.6337 22.1118 19.7448 16.0007 19.7448C13.6179 19.7448 11.5739 19.489 9.86864 18.9774C7.84553 18.3705 6.83398 17.5152 6.83398 16.4115C6.83398 15.2351 7.97477 14.3432 10.2563 13.7359C10.33 13.7146 10.408 13.7031 10.4885 13.7031C10.9488 13.7031 11.3219 14.0762 11.3219 14.5365C11.3219 14.7576 11.2357 14.9586 11.0952 15.1078C11.0849 15.1187 11.0743 15.1293 11.0635 15.1397Z" fill-rule="evenodd"  fill="#FF99FD" >
</path>
<path d="M10.5517 14.5391C8.82163 14.9971 7.73047 15.6674 7.73047 16.4141C7.73047 17.7948 11.4614 18.9141 16.0638 18.9141C20.6662 18.9141 24.3971 17.7948 24.3971 16.4141C24.3971 15.6674 23.306 14.9971 21.5759 14.5391C20.1069 14.928 18.1772 15.1641 16.0638 15.1641C13.9504 15.1641 12.0207 14.928 10.5517 14.5391Z"   fill="#FF99FD" >
</path>
<path d="M10.7026 17.4816C12.2062 17.8796 13.9722 18.0786 16.0007 18.0786C18.0294 18.0786 19.7957 17.8795 21.2995 17.4814C21.3694 17.4629 21.4411 17.4536 21.4595 17.4536C21.4637 17.4536 21.4651 17.4541 21.463 17.4551C21.5512 17.4498 21.64 17.4586 21.7261 17.4814C24.0202 18.0888 25.1673 18.9823 25.1673 20.1619C25.1673 22.3842 22.1118 23.4953 16.0007 23.4953C13.6179 23.4953 11.5739 23.2395 9.86864 22.7279C7.84553 22.121 6.83398 21.2656 6.83398 20.1619C6.83398 18.9823 7.98106 18.0888 10.2752 17.4814L10.2752 17.4814C10.4174 17.4437 10.5596 17.4437 10.7018 17.4814L10.7018 17.4814L10.7018 17.4814L10.7026 17.4816ZM10.4938 19.1487C9.16505 19.5155 8.50065 19.8532 8.50065 20.1619C8.50065 20.4389 9.11628 20.7621 10.3476 21.1315C11.8966 21.5962 13.781 21.8286 16.0007 21.8286C18.2203 21.8286 20.1047 21.5962 21.6537 21.1315C22.885 20.7621 23.5007 20.4389 23.5007 20.1619C23.5007 19.8532 22.8363 19.5155 21.5075 19.1487C19.914 19.5464 18.0784 19.7453 16.0007 19.7453C13.9229 19.7453 12.0873 19.5464 10.4938 19.1487Z" fill-rule="evenodd"  fill="#FF99FD" >
</path>
</svg>
