<svg xmlns="http://www.w3.org/2000/svg" xmlns:xlink="http://www.w3.org/1999/xlink" width="32" height="32" viewBox="0 0 32 32" fill="none">
<circle cx="16" cy="16" r="16"   fill="#FFE4DB" >
</circle>
<path d="M10.1667 9.7526L13.0833 9.7526C13.1381 9.7526 13.1922 9.74727 13.2459 9.73659C13.2996 9.72592 13.3517 9.71011 13.4022 9.68917C13.4528 9.66823 13.5008 9.64256 13.5463 9.61216C13.5918 9.58176 13.6339 9.54722 13.6726 9.50853C13.7113 9.46984 13.7458 9.42774 13.7762 9.38225C13.8066 9.33675 13.8323 9.28873 13.8532 9.23817C13.8742 9.18762 13.89 9.13551 13.9007 9.08185C13.9113 9.02818 13.9167 8.97399 13.9167 8.91927C13.9167 8.86455 13.9113 8.81036 13.9007 8.7567C13.89 8.70303 13.8742 8.65092 13.8532 8.60037C13.8323 8.54982 13.8066 8.50179 13.7762 8.4563C13.7458 8.4108 13.7113 8.36871 13.6726 8.33002C13.6339 8.29132 13.5918 8.25678 13.5463 8.22638C13.5008 8.19598 13.4528 8.17031 13.4022 8.14937C13.3517 8.12843 13.2996 8.11262 13.2459 8.10195C13.1922 8.09128 13.1381 8.08594 13.0833 8.08594L10.1667 8.08594C9.24619 8.08594 8.5 8.83213 8.5 9.7526L8.5 23.5026C8.5 24.4231 9.24619 25.1693 10.1667 25.1693L21.8333 25.1693C22.7538 25.1693 23.5 24.4231 23.5 23.5026L23.5 9.7526C23.5 8.83213 22.7538 8.08594 21.8333 8.08594L18.9167 8.08594C18.8619 8.08594 18.8078 8.09128 18.7541 8.10195C18.7004 8.11263 18.6483 8.12843 18.5977 8.14937C18.5472 8.17031 18.4992 8.19598 18.4537 8.22638C18.4082 8.25678 18.3661 8.29132 18.3274 8.33002C18.2887 8.36871 18.2541 8.4108 18.2238 8.4563C18.1934 8.50179 18.1677 8.54982 18.1468 8.60037C18.1258 8.65092 18.11 8.70303 18.0993 8.7567C18.0887 8.81036 18.0833 8.86455 18.0833 8.91927C18.0833 8.97399 18.0887 9.02818 18.0993 9.08185C18.11 9.13551 18.1258 9.18762 18.1468 9.23817C18.1677 9.28873 18.1934 9.33675 18.2238 9.38225C18.2541 9.42774 18.2887 9.46984 18.3274 9.50853C18.3661 9.54722 18.4082 9.58176 18.4537 9.61216C18.4992 9.64256 18.5472 9.66823 18.5977 9.68917C18.6483 9.71011 18.7004 9.72592 18.7541 9.73659C18.8078 9.74727 18.8619 9.7526 18.9167 9.7526L21.8333 9.7526L21.8333 23.5026L10.1667 23.5026L10.1667 9.7526Z" fill-rule="evenodd"  fill="#FF906E" >
</path>
<path d="M13.083 7.66406L18.9163 7.66406L18.9163 10.1641L13.083 10.1641L13.083 7.66406Z"   fill="#FF906E" >
</path>
<path d="M12.25 7.66927L12.25 10.1693C12.25 10.6295 12.6231 11.0026 13.0833 11.0026L18.9167 11.0026C19.3769 11.0026 19.75 10.6295 19.75 10.1693L19.75 7.66927C19.75 7.20903 19.3769 6.83594 18.9167 6.83594L13.0833 6.83594C12.6231 6.83594 12.25 7.20903 12.25 7.66927ZM13.9167 9.33594L13.9167 8.5026L18.0833 8.5026L18.0833 9.33594L13.9167 9.33594Z" fill-rule="evenodd"  fill="#FF906E" >
</path>
<path d="M13.4993 12.5L18.4993 12.5C18.5541 12.5 18.6083 12.5053 18.6619 12.516C18.7156 12.5267 18.7677 12.5425 18.8182 12.5634C18.8688 12.5844 18.9168 12.61 18.9623 12.6404C19.0078 12.6708 19.0499 12.7054 19.0886 12.7441C19.1273 12.7828 19.1618 12.8249 19.1922 12.8704C19.2226 12.9159 19.2483 12.9639 19.2692 13.0144C19.2902 13.065 19.306 13.1171 19.3167 13.1708C19.3273 13.2244 19.3327 13.2786 19.3327 13.3333C19.3327 13.3881 19.3273 13.4422 19.3167 13.4959C19.306 13.5496 19.2902 13.6017 19.2692 13.6522C19.2483 13.7028 19.2226 13.7508 19.1922 13.7963C19.1618 13.8418 19.1273 13.8839 19.0886 13.9226C19.0499 13.9613 19.0078 13.9958 18.9623 14.0262C18.9168 14.0566 18.8688 14.0823 18.8182 14.1032C18.7677 14.1242 18.7156 14.14 18.6619 14.1507C18.6083 14.1613 18.5541 14.1667 18.4993 14.1667L13.4993 14.1667C13.4446 14.1667 13.3904 14.1613 13.3368 14.1507C13.2831 14.14 13.231 14.1242 13.1804 14.1032C13.1299 14.0823 13.0819 14.0566 13.0364 14.0262C12.9909 13.9958 12.9488 13.9613 12.9101 13.9226C12.8714 13.8839 12.8369 13.8418 12.8065 13.7963C12.7761 13.7508 12.7504 13.7028 12.7295 13.6522C12.7085 13.6017 12.6927 13.5496 12.682 13.4959C12.6714 13.4422 12.666 13.3881 12.666 13.3333C12.666 13.2786 12.6714 13.2244 12.682 13.1708C12.6927 13.1171 12.7085 13.065 12.7295 13.0144C12.7504 12.9639 12.7761 12.9159 12.8065 12.8704C12.8369 12.8249 12.8714 12.7828 12.9101 12.7441C12.9488 12.7054 12.9909 12.6708 13.0364 12.6404C13.0819 12.61 13.1299 12.5844 13.1804 12.5634C13.231 12.5425 13.2831 12.5267 13.3368 12.516C13.3904 12.5053 13.4446 12.5 13.4993 12.5Z" fill-rule="evenodd"  fill="#FF906E" >
</path>
<path d="M13.4993 16.5L18.4993 16.5C18.5541 16.5 18.6083 16.5053 18.6619 16.516C18.7156 16.5267 18.7677 16.5425 18.8182 16.5634C18.8688 16.5844 18.9168 16.61 18.9623 16.6404C19.0078 16.6708 19.0499 16.7054 19.0886 16.7441C19.1273 16.7828 19.1618 16.8249 19.1922 16.8704C19.2226 16.9159 19.2483 16.9639 19.2692 17.0144C19.2902 17.065 19.306 17.1171 19.3167 17.1708C19.3273 17.2244 19.3327 17.2786 19.3327 17.3333C19.3327 17.3881 19.3273 17.4422 19.3167 17.4959C19.306 17.5496 19.2902 17.6017 19.2692 17.6522C19.2483 17.7028 19.2226 17.7508 19.1922 17.7963C19.1618 17.8418 19.1273 17.8839 19.0886 17.9226C19.0499 17.9613 19.0078 17.9958 18.9623 18.0262C18.9168 18.0566 18.8688 18.0823 18.8182 18.1032C18.7677 18.1242 18.7156 18.14 18.6619 18.1507C18.6083 18.1613 18.5541 18.1667 18.4993 18.1667L13.4993 18.1667C13.4446 18.1667 13.3904 18.1613 13.3368 18.1507C13.2831 18.14 13.231 18.1242 13.1804 18.1032C13.1299 18.0823 13.0819 18.0566 13.0364 18.0262C12.9909 17.9958 12.9488 17.9613 12.9101 17.9226C12.8714 17.8839 12.8369 17.8418 12.8065 17.7963C12.7761 17.7508 12.7504 17.7028 12.7295 17.6522C12.7085 17.6017 12.6927 17.5496 12.682 17.4959C12.6714 17.4422 12.666 17.3881 12.666 17.3333C12.666 17.2786 12.6714 17.2244 12.682 17.1708C12.6927 17.1171 12.7085 17.065 12.7295 17.0144C12.7504 16.9639 12.7761 16.9159 12.8065 16.8704C12.8369 16.8249 12.8714 16.7828 12.9101 16.7441C12.9488 16.7054 12.9909 16.6708 13.0364 16.6404C13.0819 16.61 13.1299 16.5844 13.1804 16.5634C13.231 16.5425 13.2831 16.5267 13.3368 16.516C13.3904 16.5053 13.4446 16.5 13.4993 16.5Z" fill-rule="evenodd"  fill="#FF906E" >
</path>
<path d="M13.4993 20.4141L18.4993 20.4141C18.5541 20.4141 18.6083 20.4194 18.6619 20.4301C18.7156 20.4408 18.7677 20.4566 18.8182 20.4775C18.8688 20.4984 18.9168 20.5241 18.9623 20.5545C19.0078 20.5849 19.0499 20.6194 19.0886 20.6581C19.1273 20.6968 19.1618 20.7389 19.1922 20.7844C19.2226 20.8299 19.2483 20.8779 19.2692 20.9285C19.2902 20.979 19.306 21.0312 19.3167 21.0848C19.3273 21.1385 19.3327 21.1927 19.3327 21.2474C19.3327 21.3021 19.3273 21.3563 19.3167 21.41C19.306 21.4636 19.2902 21.5157 19.2692 21.5663C19.2483 21.6169 19.2226 21.6649 19.1922 21.7104C19.1618 21.7559 19.1273 21.798 19.0886 21.8367C19.0499 21.8753 19.0078 21.9099 18.9623 21.9403C18.9168 21.9707 18.8688 21.9964 18.8182 22.0173C18.7677 22.0382 18.7156 22.054 18.6619 22.0647C18.6083 22.0754 18.5541 22.0807 18.4993 22.0807L13.4993 22.0807C13.4446 22.0807 13.3904 22.0754 13.3368 22.0647C13.2831 22.054 13.231 22.0382 13.1804 22.0173C13.1299 21.9964 13.0819 21.9707 13.0364 21.9403C12.9909 21.9099 12.9488 21.8753 12.9101 21.8367C12.8714 21.798 12.8369 21.7559 12.8065 21.7104C12.7761 21.6649 12.7504 21.6169 12.7295 21.5663C12.7085 21.5157 12.6927 21.4636 12.682 21.41C12.6714 21.3563 12.666 21.3021 12.666 21.2474C12.666 21.1927 12.6714 21.1385 12.682 21.0848C12.6927 21.0312 12.7085 20.979 12.7295 20.9285C12.7504 20.8779 12.7761 20.8299 12.8065 20.7844C12.8369 20.7389 12.8714 20.6968 12.9101 20.6581C12.9488 20.6194 12.9909 20.5849 13.0364 20.5545C13.0819 20.5241 13.1299 20.4984 13.1804 20.4775C13.231 20.4566 13.2831 20.4408 13.3368 20.4301C13.3904 20.4194 13.4446 20.4141 13.4993 20.4141Z" fill-rule="evenodd"  fill="#FF906E" >
</path>
</svg>
