<svg xmlns="http://www.w3.org/2000/svg" xmlns:xlink="http://www.w3.org/1999/xlink" width="32" height="32" viewBox="0 0 32 32" fill="none">
<circle cx="16" cy="16" r="16"   fill="#E3FCEE" >
</circle>
<path d="M16.0003 7.66406C12.7787 7.66406 10.167 10.2757 10.167 13.4974L10.167 21.8307L21.8337 21.8307L21.8337 13.4974C21.8337 10.2757 19.222 7.66406 16.0003 7.66406Z"   fill="#44DB83" >
</path>
<path d="M25.1663 21.8359C25.1663 21.8907 25.161 21.9449 25.1503 21.9985C25.1397 22.0522 25.1239 22.1043 25.1029 22.1549C25.082 22.2054 25.0563 22.2534 25.0259 22.2989C24.9955 22.3444 24.9609 22.3865 24.9223 22.4252C24.8836 22.4639 24.8415 22.4984 24.796 22.5289C24.7505 22.5592 24.7025 22.5849 24.6519 22.6059C24.6014 22.6268 24.5493 22.6426 24.4956 22.6533C24.4419 22.6639 24.3877 22.6693 24.333 22.6693L7.66634 22.6693C7.61162 22.6693 7.55743 22.6639 7.50377 22.6533C7.4501 22.6426 7.39799 22.6268 7.34744 22.6059C7.29689 22.5849 7.24886 22.5592 7.20337 22.5289C7.15787 22.4984 7.11578 22.4639 7.07709 22.4252C7.03839 22.3865 7.00385 22.3444 6.97345 22.2989C6.94305 22.2534 6.91738 22.2054 6.89644 22.1549C6.8755 22.1043 6.85969 22.0522 6.84902 21.9985C6.83835 21.9449 6.83301 21.8907 6.83301 21.8359C6.83301 21.7812 6.83835 21.727 6.84902 21.6734C6.8597 21.6197 6.8755 21.5676 6.89644 21.517C6.91738 21.4665 6.94305 21.4184 6.97345 21.3729C7.00385 21.3274 7.03839 21.2854 7.07709 21.2467C7.11578 21.208 7.15787 21.1734 7.20337 21.143C7.24886 21.1126 7.29689 21.087 7.34744 21.066C7.39799 21.0451 7.4501 21.0293 7.50377 21.0186C7.55743 21.0079 7.61162 21.0026 7.66634 21.0026L9.33301 21.0026L9.33301 13.5026C9.33301 9.8207 12.3178 6.83594 15.9997 6.83594C19.6816 6.83594 22.6663 9.8207 22.6663 13.5026L22.6663 21.0026L24.333 21.0026C24.3877 21.0026 24.4419 21.0079 24.4956 21.0186C24.5493 21.0293 24.6014 21.0451 24.6519 21.066C24.7025 21.087 24.7505 21.1126 24.796 21.143C24.8415 21.1734 24.8836 21.208 24.9223 21.2467C24.9609 21.2854 24.9955 21.3274 25.0259 21.3729C25.0563 21.4184 25.082 21.4665 25.1029 21.517C25.1239 21.5676 25.1397 21.6197 25.1503 21.6734C25.161 21.727 25.1663 21.7812 25.1663 21.8359ZM20.9997 21.0026L20.9997 13.5026C20.9997 10.7412 18.7611 8.5026 15.9997 8.5026C13.2382 8.5026 10.9997 10.7412 10.9997 13.5026L10.9997 21.0026L20.9997 21.0026Z" fill-rule="evenodd"  fill="#44DB83" >
</path>
<path d="M16.0003 24.3359C17.1509 24.3359 18.0837 23.4032 18.0837 22.2526L18.0837 21.8359L13.917 21.8359L13.917 22.2526C13.917 23.4032 14.8497 24.3359 16.0003 24.3359Z"   fill="#44DB83" >
</path>
<path d="M17.1785 22.6667C17.0069 23.1522 16.5439 23.5 15.9997 23.5C15.4554 23.5 14.9924 23.1522 14.8208 22.6667L17.1785 22.6667ZM15.9997 25.1667C17.6105 25.1667 18.9163 23.8608 18.9163 22.25L18.9163 21.8333C18.9163 21.3731 18.5432 21 18.083 21L13.9163 21C13.4561 21 13.083 21.3731 13.083 21.8333L13.083 22.25C13.083 23.8608 14.3888 25.1667 15.9997 25.1667Z" fill-rule="evenodd"  fill="#44DB83" >
</path>
</svg>
