<svg xmlns="http://www.w3.org/2000/svg" xmlns:xlink="http://www.w3.org/1999/xlink" width="32" height="32" viewBox="0 0 32 32" fill="none">
<circle cx="16" cy="16" r="16"   fill="#DBDBFF" >
</circle>
<path d="M13.6186 23.9888C12.2223 23.5731 10.9794 22.8013 9.99527 21.7787C10.3624 21.3436 10.5837 20.7814 10.5837 20.1675C10.5837 18.7868 9.46437 17.6675 8.08366 17.6675C8.00014 17.6675 7.91757 17.6716 7.83615 17.6796C7.72524 17.1373 7.66699 16.5759 7.66699 16.0008C7.66699 15.1297 7.80065 14.2899 8.04857 13.5006C8.06025 13.5007 8.07194 13.5008 8.08366 13.5008C9.46437 13.5008 10.5837 12.3815 10.5837 11.0008C10.5837 10.6044 10.4914 10.2296 10.3272 9.89665C11.291 9.00057 12.4672 8.32995 13.772 7.96875C14.1855 8.77919 15.0281 9.33416 16.0003 9.33416C16.9725 9.33416 17.8152 8.77919 18.2286 7.96875C19.5335 8.32995 20.7097 9.00057 21.6734 9.89665C21.5092 10.2296 21.417 10.6044 21.417 11.0008C21.417 12.3815 22.5363 13.5008 23.917 13.5008C23.9287 13.5008 23.9404 13.5007 23.9521 13.5006C24.2 14.2899 24.3337 15.1297 24.3337 16.0008C24.3337 16.5759 24.2754 17.1373 24.1645 17.6796C24.0831 17.6716 24.0005 17.6675 23.917 17.6675C22.5363 17.6675 21.417 18.7868 21.417 20.1675C21.417 20.7814 21.6382 21.3436 22.0054 21.7787C21.0212 22.8013 19.7784 23.5731 18.3821 23.9888C18.0598 22.9808 17.1153 22.2508 16.0003 22.2508C14.8853 22.2508 13.9408 22.9808 13.6186 23.9888Z"   fill="#6565F0" >
</path>
<path d="M13.3801 24.7814L13.3801 24.7814C13.8723 24.8806 14.2162 24.699 14.4117 24.2365L13.6179 23.9827L14.4117 24.2365C14.6586 23.4642 15.1879 23.078 15.9997 23.078C16.8115 23.078 17.3408 23.4642 17.5877 24.2365C17.5881 24.2377 17.5885 24.239 17.5889 24.2403C17.6585 24.4545 17.8063 24.6213 17.8633 24.6515C17.8747 24.6575 17.8825 24.658 17.8853 24.6523C18.0888 24.803 18.3583 24.859 18.6192 24.7814C20.1577 24.3234 21.4863 23.5131 22.6052 22.3505C22.606 22.3495 22.6069 22.3486 22.6078 22.3477C22.7541 22.1944 22.8311 21.999 22.833 21.9392C22.8334 21.927 22.8307 21.9204 22.8248 21.921C22.8675 21.684 22.8073 21.4315 22.6417 21.2352C22.3803 20.9255 22.2497 20.5675 22.2497 20.1614C22.2497 19.2409 22.9958 18.4947 23.9163 18.4947C23.9718 18.4947 24.0272 18.4974 24.0823 18.5029C24.2948 18.5237 24.4978 18.4626 24.5463 18.4269C24.5562 18.4196 24.5596 18.4135 24.5554 18.4091C24.7679 18.2959 24.9288 18.0921 24.9803 17.8405C25.1043 17.234 25.1663 16.6188 25.1663 15.9947C25.1663 15.0526 25.0264 14.1359 24.7464 13.2447C24.6916 13.07 24.5829 12.9235 24.5423 12.8939C24.5337 12.8876 24.5282 12.8866 24.5268 12.8916C24.3739 12.7458 24.1673 12.6596 23.9455 12.6612L23.9163 12.6614C22.9958 12.6614 22.2497 11.9152 22.2497 10.9947C22.2497 10.7348 22.3065 10.4896 22.4202 10.259C22.4207 10.258 22.4212 10.2571 22.4216 10.2561C22.5018 10.0918 22.5239 9.91161 22.5148 9.86216C22.5129 9.85168 22.5096 9.84707 22.5051 9.84974C22.4947 9.63775 22.4034 9.43203 22.2402 9.28025C21.1462 8.26298 19.8829 7.55606 18.4503 7.1595C18.2595 7.10669 18.0633 7.12464 18.0129 7.14681C18.0025 7.15141 17.9983 7.15619 18.0018 7.16056C17.7843 7.222 17.5943 7.37102 17.4857 7.58392C17.1759 8.19111 16.6806 8.49471 15.9997 8.49471C15.3188 8.49471 14.8235 8.19111 14.5137 7.58392C14.4237 7.4076 14.278 7.27509 14.2276 7.25292C14.2171 7.24832 14.2108 7.24846 14.2099 7.25395C14.0176 7.13512 13.7794 7.09574 13.5491 7.1595C12.1165 7.55606 10.8532 8.26298 9.75913 9.28025C9.62433 9.40559 9.53864 9.56774 9.5295 9.61748C9.52757 9.62796 9.52904 9.63345 9.53418 9.63254C9.46853 9.83439 9.4806 10.0591 9.57916 10.259C9.69283 10.4896 9.74967 10.7348 9.74967 10.9947C9.74967 11.9152 9.00349 12.6614 8.08895 12.6614L8.05431 12.6612L8.05387 12.6612L8.03965 12.6612C7.90069 12.6625 7.76797 12.6983 7.65114 12.7616C7.46517 12.8624 7.31946 13.0328 7.25289 13.2447C6.97297 14.1359 6.83301 15.0525 6.83301 15.9947C6.83301 16.6188 6.89503 17.234 7.01907 17.8405L7.01926 17.8414C7.06218 18.05 7.1802 18.2256 7.22858 18.2613C7.23844 18.2686 7.24541 18.27 7.24826 18.2648C7.41924 18.4345 7.6614 18.528 7.917 18.5029C7.97216 18.4974 8.0275 18.4947 8.08301 18.4947C9.00348 18.4947 9.74967 19.2409 9.74967 20.1614C9.74967 20.5675 9.61902 20.9255 9.35771 21.2352C9.22008 21.3983 9.15521 21.6002 9.15717 21.6604C9.15757 21.6726 9.16074 21.679 9.16663 21.678C9.13944 21.9173 9.21607 22.1654 9.39417 22.3505C10.513 23.5131 11.8417 24.3234 13.3801 24.7814ZM15.9997 21.4114C14.681 21.4114 13.735 21.9213 13.1617 22.9411C12.3942 22.6302 11.6974 22.1999 11.0714 21.6502C11.3014 21.1962 11.4163 20.6999 11.4163 20.1614C11.4163 18.4785 10.1693 17.087 8.54895 16.8604C8.5161 16.5743 8.49967 16.2857 8.49967 15.9947C8.49967 15.4075 8.56592 14.8328 8.69841 14.2706C10.2475 13.9802 11.4163 12.624 11.4163 10.9947C11.4163 10.7017 11.38 10.4177 11.3072 10.1426C11.9445 9.62817 12.6457 9.23142 13.4106 8.95231C14.0271 9.75835 14.8901 10.1614 15.9997 10.1614C17.1093 10.1614 17.9723 9.75835 18.5888 8.95231C19.3537 9.23142 20.0548 9.62817 20.6922 10.1426C20.6194 10.4177 20.583 10.7017 20.583 10.9947C20.583 12.6255 21.7541 13.9827 23.3011 14.2714C23.4335 14.8334 23.4997 15.4078 23.4997 15.9947C23.4997 16.2857 23.4833 16.5743 23.4504 16.8604C21.83 17.087 20.583 18.4785 20.583 20.1614C20.583 20.6999 20.698 21.1962 20.9279 21.6502C20.3019 22.1999 19.6052 22.6302 18.8377 22.9411C18.2643 21.9213 17.3183 21.4114 15.9997 21.4114Z" fill-rule="evenodd"  fill="#6565F0" >
</path>
<path d="M15.9997 18.9115C17.6105 18.9115 18.9163 17.6056 18.9163 15.9948C18.9163 14.384 17.6105 13.0781 15.9997 13.0781C14.3888 13.0781 13.083 14.384 13.083 15.9948C13.083 17.6056 14.3888 18.9115 15.9997 18.9115Z"   fill="#DBDBFF" >
</path>
<path d="M18.0833 16C18.0833 17.1506 17.1506 18.0833 16 18.0833C14.8494 18.0833 13.9167 17.1506 13.9167 16C13.9167 14.8494 14.8494 13.9167 16 13.9167C17.1506 13.9167 18.0833 14.8494 18.0833 16ZM12.25 16C12.25 18.0711 13.9289 19.75 16 19.75C18.0711 19.75 19.75 18.0711 19.75 16C19.75 13.9289 18.0711 12.25 16 12.25C13.9289 12.25 12.25 13.9289 12.25 16Z" fill-rule="evenodd"  fill="#DBDBFF" >
</path>
</svg>
