<svg xmlns="http://www.w3.org/2000/svg" xmlns:xlink="http://www.w3.org/1999/xlink" width="36" height="36" viewBox="0 0 36 36" fill="none">
<circle cx="18" cy="18" r="18"   fill="#FFF0DE" >
</circle>
<path d="M8 26L28 26C28.0657 26 28.1307 26.0064 28.1951 26.0192C28.2595 26.032 28.322 26.051 28.3827 26.0761C28.4434 26.1012 28.501 26.1321 28.5556 26.1685C28.6102 26.205 28.6607 26.2465 28.7071 26.2929C28.7535 26.3393 28.795 26.3898 28.8315 26.4444C28.868 26.499 28.8988 26.5567 28.9239 26.6173C28.949 26.678 28.968 26.7405 28.9808 26.8049C28.9936 26.8693 29 26.9343 29 27C29 27.0657 28.9936 27.1307 28.9808 27.1951C28.968 27.2595 28.949 27.322 28.9239 27.3827C28.8988 27.4433 28.868 27.501 28.8315 27.5556C28.795 27.6102 28.7535 27.6607 28.7071 27.7071C28.6607 27.7535 28.6102 27.795 28.5556 27.8315C28.501 27.8679 28.4434 27.8988 28.3827 27.9239C28.322 27.949 28.2595 27.968 28.1951 27.9808C28.1307 27.9936 28.0657 28 28 28L8 28C7.93434 28 7.86931 27.9936 7.80491 27.9808C7.74051 27.968 7.67798 27.949 7.61732 27.9239C7.55665 27.8988 7.49902 27.8679 7.44443 27.8315C7.38983 27.795 7.33932 27.7535 7.29289 27.7071C7.24646 27.6607 7.20501 27.6102 7.16853 27.5556C7.13205 27.501 7.10125 27.4433 7.07612 27.3827C7.05099 27.322 7.03202 27.2595 7.01922 27.1951C7.0064 27.1307 7 27.0657 7 27C7 26.9343 7.0064 26.8693 7.01922 26.8049C7.03202 26.7405 7.05099 26.678 7.07612 26.6173C7.10125 26.5567 7.13205 26.499 7.16853 26.4444C7.20501 26.3898 7.24646 26.3393 7.29289 26.2929C7.33932 26.2465 7.38983 26.205 7.44443 26.1685C7.49902 26.1321 7.55665 26.1012 7.61732 26.0761C7.67798 26.051 7.74051 26.032 7.80491 26.0192C7.86931 26.0064 7.93434 26 8 26Z" fill-rule="evenodd"  fill="#FFAB4A" >
</path>
<path d="M11 17L15 17C15.5523 17 16 17.4477 16 18L16 26C16 26.5523 15.5523 27 15 27L11 27C10.4477 27 10 26.5523 10 26L10 18C10 17.4477 10.4477 17 11 17Z"   fill="#FFAB4A" >
</path>
<path d="M15 16L11 16C9.89543 16 9 16.8954 9 18L9 26C9 27.1046 9.89543 28 11 28L15 28C16.1046 28 17 27.1046 17 26L17 18C17 16.8954 16.1046 16 15 16ZM11 26L11 18L15 18L15 26L11 26Z" fill-rule="evenodd"  fill="#FFAB4A" >
</path>
<path d="M17 8L25 8C25.5523 8 26 8.44771 26 9L26 26C26 26.5523 25.5523 27 25 27L17 27C16.4477 27 16 26.5523 16 26L16 9C16 8.44771 16.4477 8 17 8Z"   fill="#FFAB4A" >
</path>
<path d="M25 7L17 7C15.8954 7 15 7.89543 15 9L15 26C15 27.1046 15.8954 28 17 28L25 28C26.1046 28 27 27.1046 27 26L27 9C27 7.89543 26.1046 7 25 7ZM17 26L17 9L25 9L25 26L17 26Z" fill-rule="evenodd"  fill="#FFAB4A" >
</path>
<path d="M22 21.0078C22.0657 21.0078 22.1307 21.0142 22.1951 21.027C22.2595 21.0398 22.322 21.0588 22.3827 21.0839C22.4433 21.1091 22.501 21.1399 22.5556 21.1763C22.6102 21.2128 22.6607 21.2543 22.7071 21.3007C22.7535 21.3471 22.795 21.3976 22.8315 21.4522C22.868 21.5068 22.8988 21.5645 22.9239 21.6251C22.949 21.6858 22.968 21.7483 22.9808 21.8127C22.9936 21.8771 23 21.9422 23 22.0078C23 22.0735 22.9936 22.1385 22.9808 22.2029C22.968 22.2673 22.949 22.3298 22.9239 22.3905C22.8988 22.4512 22.868 22.5088 22.8315 22.5634C22.795 22.618 22.7535 22.6685 22.7071 22.7149C22.6607 22.7613 22.6102 22.8028 22.5556 22.8393C22.501 22.8758 22.4433 22.9066 22.3827 22.9317C22.322 22.9568 22.2595 22.9758 22.1951 22.9886C22.1307 23.0014 22.0657 23.0078 22 23.0078L20 23.0078C19.9343 23.0078 19.8693 23.0014 19.8049 22.9886C19.7405 22.9758 19.678 22.9568 19.6173 22.9317C19.5567 22.9066 19.499 22.8758 19.4444 22.8393C19.3898 22.8028 19.3393 22.7613 19.2929 22.7149C19.2465 22.6685 19.205 22.618 19.1685 22.5634C19.1321 22.5088 19.1012 22.4512 19.0761 22.3905C19.051 22.3298 19.032 22.2673 19.0192 22.2029C19.0064 22.1385 19 22.0735 19 22.0078C19 21.9422 19.0064 21.8771 19.0192 21.8127C19.032 21.7483 19.051 21.6858 19.0761 21.6251C19.1012 21.5645 19.1321 21.5068 19.1685 21.4522C19.205 21.3976 19.2465 21.3471 19.2929 21.3007C19.3393 21.2543 19.3898 21.2128 19.4444 21.1763C19.499 21.1399 19.5567 21.1091 19.6173 21.0839C19.678 21.0588 19.7405 21.0398 19.8049 21.027C19.8693 21.0142 19.9343 21.0078 20 21.0078L22 21.0078Z" fill-rule="evenodd"  fill="#FFFFFF" >
</path>
<path d="M14 21.0078C14.0657 21.0078 14.1307 21.0142 14.1951 21.027C14.2595 21.0398 14.322 21.0588 14.3827 21.0839C14.4433 21.1091 14.501 21.1399 14.5556 21.1763C14.6102 21.2128 14.6607 21.2543 14.7071 21.3007C14.7535 21.3471 14.795 21.3976 14.8315 21.4522C14.868 21.5068 14.8988 21.5645 14.9239 21.6251C14.949 21.6858 14.968 21.7483 14.9808 21.8127C14.9936 21.8771 15 21.9422 15 22.0078C15 22.0735 14.9936 22.1385 14.9808 22.2029C14.968 22.2673 14.949 22.3298 14.9239 22.3905C14.8988 22.4512 14.868 22.5088 14.8315 22.5634C14.795 22.618 14.7535 22.6685 14.7071 22.7149C14.6607 22.7613 14.6102 22.8028 14.5556 22.8393C14.501 22.8758 14.4433 22.9066 14.3827 22.9317C14.322 22.9568 14.2595 22.9758 14.1951 22.9886C14.1307 23.0014 14.0657 23.0078 14 23.0078L12 23.0078C11.9343 23.0078 11.8693 23.0014 11.8049 22.9886C11.7405 22.9758 11.678 22.9568 11.6173 22.9317C11.5567 22.9066 11.499 22.8758 11.4444 22.8393C11.3898 22.8028 11.3393 22.7613 11.2929 22.7149C11.2465 22.6685 11.205 22.618 11.1685 22.5634C11.1321 22.5088 11.1012 22.4512 11.0761 22.3905C11.051 22.3298 11.032 22.2673 11.0192 22.2029C11.0064 22.1385 11 22.0735 11 22.0078C11 21.9422 11.0064 21.8771 11.0192 21.8127C11.032 21.7483 11.051 21.6858 11.0761 21.6251C11.1012 21.5645 11.1321 21.5068 11.1685 21.4522C11.205 21.3976 11.2465 21.3471 11.2929 21.3007C11.3393 21.2543 11.3898 21.2128 11.4444 21.1763C11.499 21.1399 11.5567 21.1091 11.6173 21.0839C11.678 21.0588 11.7405 21.0398 11.8049 21.027C11.8693 21.0142 11.9343 21.0078 12 21.0078L14 21.0078Z" fill-rule="evenodd"  fill="#FFFFFF" >
</path>
<path d="M22 16.5078C22.0657 16.5078 22.1307 16.5142 22.1951 16.527C22.2595 16.5398 22.322 16.5588 22.3827 16.5839C22.4433 16.6091 22.501 16.6399 22.5556 16.6763C22.6102 16.7128 22.6607 16.7543 22.7071 16.8007C22.7535 16.8471 22.795 16.8976 22.8315 16.9522C22.868 17.0068 22.8988 17.0645 22.9239 17.1251C22.949 17.1858 22.968 17.2483 22.9808 17.3127C22.9936 17.3771 23 17.4422 23 17.5078C23 17.5735 22.9936 17.6385 22.9808 17.7029C22.968 17.7673 22.949 17.8298 22.9239 17.8905C22.8988 17.9512 22.868 18.0088 22.8315 18.0634C22.795 18.118 22.7535 18.1685 22.7071 18.2149C22.6607 18.2613 22.6102 18.3028 22.5556 18.3393C22.501 18.3758 22.4433 18.4066 22.3827 18.4317C22.322 18.4568 22.2595 18.4758 22.1951 18.4886C22.1307 18.5014 22.0657 18.5078 22 18.5078L20 18.5078C19.9343 18.5078 19.8693 18.5014 19.8049 18.4886C19.7405 18.4758 19.678 18.4568 19.6173 18.4317C19.5567 18.4066 19.499 18.3758 19.4444 18.3393C19.3898 18.3028 19.3393 18.2613 19.2929 18.2149C19.2465 18.1685 19.205 18.118 19.1685 18.0634C19.1321 18.0088 19.1012 17.9512 19.0761 17.8905C19.051 17.8298 19.032 17.7673 19.0192 17.7029C19.0064 17.6385 19 17.5735 19 17.5078C19 17.4422 19.0064 17.3771 19.0192 17.3127C19.032 17.2483 19.051 17.1858 19.0761 17.1251C19.1012 17.0645 19.1321 17.0068 19.1685 16.9522C19.205 16.8976 19.2465 16.8471 19.2929 16.8007C19.3393 16.7543 19.3898 16.7128 19.4444 16.6763C19.499 16.6399 19.5567 16.6091 19.6173 16.5839C19.678 16.5588 19.7405 16.5398 19.8049 16.527C19.8693 16.5142 19.9343 16.5078 20 16.5078L22 16.5078Z" fill-rule="evenodd"  fill="#FFFFFF" >
</path>
<path d="M22 12.0078C22.0657 12.0078 22.1307 12.0142 22.1951 12.027C22.2595 12.0398 22.322 12.0588 22.3827 12.0839C22.4433 12.1091 22.501 12.1399 22.5556 12.1763C22.6102 12.2128 22.6607 12.2543 22.7071 12.3007C22.7535 12.3471 22.795 12.3976 22.8315 12.4522C22.868 12.5068 22.8988 12.5645 22.9239 12.6251C22.949 12.6858 22.968 12.7483 22.9808 12.8127C22.9936 12.8771 23 12.9422 23 13.0078C23 13.0735 22.9936 13.1385 22.9808 13.2029C22.968 13.2673 22.949 13.3298 22.9239 13.3905C22.8988 13.4512 22.868 13.5088 22.8315 13.5634C22.795 13.618 22.7535 13.6685 22.7071 13.7149C22.6607 13.7613 22.6102 13.8028 22.5556 13.8393C22.501 13.8758 22.4433 13.9066 22.3827 13.9317C22.322 13.9568 22.2595 13.9758 22.1951 13.9886C22.1307 14.0014 22.0657 14.0078 22 14.0078L20 14.0078C19.9343 14.0078 19.8693 14.0014 19.8049 13.9886C19.7405 13.9758 19.678 13.9568 19.6173 13.9317C19.5567 13.9066 19.499 13.8758 19.4444 13.8393C19.3898 13.8028 19.3393 13.7613 19.2929 13.7149C19.2465 13.6685 19.205 13.618 19.1685 13.5634C19.1321 13.5088 19.1012 13.4512 19.0761 13.3905C19.051 13.3298 19.032 13.2673 19.0192 13.2029C19.0064 13.1385 19 13.0735 19 13.0078C19 12.9422 19.0064 12.8771 19.0192 12.8127C19.032 12.7483 19.051 12.6858 19.0761 12.6251C19.1012 12.5645 19.1321 12.5068 19.1685 12.4522C19.205 12.3976 19.2465 12.3471 19.2929 12.3007C19.3393 12.2543 19.3898 12.2128 19.4444 12.1763C19.499 12.1399 19.5567 12.1091 19.6173 12.0839C19.678 12.0588 19.7405 12.0398 19.8049 12.027C19.8693 12.0142 19.9343 12.0078 20 12.0078L22 12.0078Z" fill-rule="evenodd"  fill="#FFFFFF" >
</path>
</svg>
