<svg xmlns="http://www.w3.org/2000/svg" xmlns:xlink="http://www.w3.org/1999/xlink" width="48" height="48" viewBox="0 0 48 48" fill="none">
<path d="M48 24C48 37.2548 37.2548 48 24 48C10.7452 48 0 37.2548 0 24C0 10.7452 10.7452 0 24 0C37.2548 0 48 10.7452 48 24Z"   fill="url(#linear_fill_74_78)" >
</path>
<path d="M37.333 14.6641L10.6663 14.6641C10.4899 14.6641 10.3202 14.6978 10.1571 14.7651C9.99403 14.8325 9.85002 14.9285 9.72506 15.0531C9.72404 15.0541 9.72302 15.0551 9.72201 15.0561C9.59745 15.1811 9.50148 15.3251 9.43409 15.4881C9.3667 15.6512 9.33301 15.821 9.33301 15.9974L9.33301 21.3307C9.33301 21.8092 9.58939 22.251 10.0048 22.4884L10.9118 23.0067C12.9704 24.3049 15.029 24.3049 17.0875 23.0067L17.333 22.8664L17.5785 23.0067C19.6371 24.3049 21.6956 24.3049 23.7542 23.0067L23.9997 22.8664L24.2451 23.0067C26.3037 24.3049 28.3623 24.3049 30.4209 23.0067L30.6663 22.8664L30.9118 23.0067C32.9704 24.3049 35.029 24.3049 37.0875 23.0067L37.9945 22.4884C38.4099 22.251 38.6663 21.8092 38.6663 21.3307L38.6663 15.9974C38.6663 15.261 38.0694 14.6641 37.333 14.6641ZM11.9997 17.3307L11.9997 20.557L12.2612 20.7064C12.2796 20.7169 12.2977 20.7278 12.3155 20.7392C13.4383 21.4537 14.5611 21.4537 15.6838 20.7392C15.6928 20.7335 15.7018 20.7279 15.704 20.7266L15.7044 20.7264C15.7156 20.7195 15.7268 20.7129 15.7382 20.7064L16.6715 20.1731C17.0814 19.9388 17.5846 19.9388 17.9945 20.1731L18.9279 20.7064C18.9462 20.7169 18.9643 20.7278 18.9822 20.7392C20.105 21.4537 21.2277 21.4537 22.3505 20.7392C22.3594 20.7335 22.3684 20.7279 22.3707 20.7266L22.3711 20.7264C22.3822 20.7195 22.3935 20.7129 22.4048 20.7064L23.3382 20.1731C23.7481 19.9388 24.2513 19.9388 24.6611 20.1731L25.5945 20.7064C25.6129 20.7169 25.631 20.7278 25.6489 20.7392C26.7716 21.4537 27.8944 21.4537 29.0171 20.7392C29.0261 20.7335 29.0351 20.7279 29.0374 20.7266L29.0377 20.7264C29.0489 20.7195 29.0601 20.7129 29.0715 20.7064L30.0049 20.1731C30.4147 19.9388 30.9179 19.9388 31.3278 20.1731L32.2611 20.7064C32.2795 20.7169 32.2977 20.7278 32.3155 20.7392C33.4383 21.4537 34.5611 21.4537 35.6838 20.7392C35.6927 20.7335 35.7018 20.7279 35.7041 20.7266L35.7043 20.7264C35.7155 20.7195 35.7267 20.7129 35.7382 20.7064L35.9997 20.557L35.9997 17.3307L11.9997 17.3307Z" fill-rule="evenodd"  fill="#FFFFFF" >
</path>
<path d="M14.6667 36.0026L14.6667 22.9359C14.6667 22.8484 14.6581 22.7617 14.641 22.6758C14.624 22.59 14.5987 22.5066 14.5652 22.4257C14.5317 22.3448 14.4906 22.268 14.442 22.1952C14.3933 22.1224 14.338 22.055 14.2761 21.9931C14.2142 21.9312 14.1469 21.8759 14.0741 21.8273C14.0013 21.7787 13.9245 21.7376 13.8436 21.7041C13.7627 21.6706 13.6793 21.6453 13.5935 21.6282C13.5076 21.6111 13.4209 21.6026 13.3333 21.6026C13.2458 21.6026 13.1591 21.6111 13.0732 21.6282C12.9873 21.6453 12.904 21.6706 12.8231 21.7041C12.7422 21.7376 12.6654 21.7787 12.5926 21.8273C12.5198 21.8759 12.4524 21.9312 12.3905 21.9931C12.3286 22.055 12.2733 22.1224 12.2247 22.1952C12.1761 22.268 12.135 22.3448 12.1015 22.4257C12.068 22.5066 12.0427 22.59 12.0256 22.6758C12.0085 22.7617 12 22.8484 12 22.9359L12 37.3359C12 38.0723 12.597 38.6693 13.3333 38.6693L34.6667 38.6693C35.4031 38.6693 36 38.0723 36 37.3359L36 22.6693C36 22.5817 35.9915 22.495 35.9744 22.4092C35.9573 22.3233 35.932 22.2399 35.8985 22.159C35.865 22.0781 35.824 22.0013 35.7753 21.9285C35.7266 21.8557 35.6713 21.7884 35.6095 21.7265C35.5476 21.6646 35.4803 21.6093 35.4075 21.5606C35.3347 21.512 35.2578 21.4709 35.1769 21.4374C35.096 21.4039 35.0127 21.3786 34.9268 21.3616C34.8409 21.3445 34.7542 21.3359 34.6667 21.3359C34.5791 21.3359 34.4924 21.3445 34.4065 21.3616C34.3207 21.3786 34.2373 21.4039 34.1564 21.4374C34.0755 21.4709 33.9987 21.512 33.9259 21.5606C33.8531 21.6093 33.7857 21.6646 33.7239 21.7265C33.6619 21.7884 33.6066 21.8557 33.558 21.9285C33.5094 22.0013 33.4683 22.0781 33.4348 22.159C33.4013 22.2399 33.376 22.3233 33.3589 22.4092C33.3419 22.495 33.3333 22.5817 33.3333 22.6693L33.3333 36.0026L14.6667 36.0026Z" fill-rule="evenodd"  fill="#FFFFFF" >
</path>
<path d="M12 10.6693L12 15.8693C12 15.9568 12.0085 16.0435 12.0256 16.1294C12.0427 16.2153 12.068 16.2986 12.1015 16.3795C12.135 16.4604 12.1761 16.5372 12.2247 16.61C12.2733 16.6828 12.3286 16.7502 12.3905 16.8121C12.4524 16.874 12.5198 16.9293 12.5926 16.9779C12.6654 17.0265 12.7422 17.0676 12.8231 17.1011C12.904 17.1346 12.9873 17.1599 13.0732 17.177C13.1591 17.1941 13.2458 17.2026 13.3333 17.2026C13.4209 17.2026 13.5076 17.1941 13.5935 17.177C13.6793 17.1599 13.7627 17.1346 13.8436 17.1011C13.9245 17.0676 14.0013 17.0265 14.0741 16.9779C14.1469 16.9293 14.2142 16.874 14.2761 16.8121C14.338 16.7502 14.3933 16.6828 14.442 16.61C14.4906 16.5372 14.5317 16.4604 14.5652 16.3795C14.5987 16.2986 14.624 16.2153 14.641 16.1294C14.6581 16.0435 14.6667 15.9568 14.6667 15.8693L14.6667 12.0026L33.3333 12.0026L33.3333 16.0026C33.3333 16.0902 33.3419 16.1769 33.3589 16.2627C33.376 16.3486 33.4013 16.432 33.4348 16.5128C33.4683 16.5937 33.5094 16.6706 33.558 16.7434C33.6066 16.8162 33.6619 16.8835 33.7239 16.9454C33.7857 17.0073 33.8531 17.0626 33.9259 17.1112C33.9987 17.1599 34.0755 17.2009 34.1564 17.2344C34.2373 17.2679 34.3207 17.2932 34.4065 17.3103C34.4924 17.3274 34.5791 17.3359 34.6667 17.3359C34.7542 17.3359 34.8409 17.3274 34.9268 17.3103C35.0127 17.2932 35.096 17.2679 35.1769 17.2344C35.2578 17.2009 35.3347 17.1599 35.4075 17.1112C35.4803 17.0626 35.5476 17.0073 35.6095 16.9454C35.6713 16.8835 35.7266 16.8162 35.7753 16.7434C35.824 16.6706 35.865 16.5937 35.8985 16.5128C35.932 16.432 35.9573 16.3486 35.9744 16.2627C35.9915 16.1769 36 16.0902 36 16.0026L36 10.6693C36 9.93289 35.4031 9.33594 34.6667 9.33594L13.3333 9.33594C12.597 9.33594 12 9.93289 12 10.6693Z" fill-rule="evenodd"  fill="#FFFFFF" >
</path>
<path d="M18.0003 31.0703L30.0003 31.0703C30.0879 31.0703 30.1746 31.0789 30.2604 31.0959C30.3463 31.113 30.4297 31.1383 30.5106 31.1718C30.5915 31.2053 30.6683 31.2464 30.7411 31.295C30.8139 31.3437 30.8812 31.3989 30.9431 31.4608C31.005 31.5227 31.0603 31.5901 31.109 31.6629C31.1576 31.7357 31.1987 31.8125 31.2322 31.8934C31.2657 31.9743 31.291 32.0577 31.308 32.1435C31.3251 32.2294 31.3337 32.3161 31.3337 32.4036C31.3337 32.4912 31.3251 32.5779 31.308 32.6638C31.291 32.7496 31.2657 32.833 31.2322 32.9139C31.1987 32.9948 31.1576 33.0716 31.109 33.1444C31.0603 33.2172 31.005 33.2845 30.9431 33.3465C30.8812 33.4084 30.8139 33.4636 30.7411 33.5123C30.6683 33.5609 30.5915 33.602 30.5106 33.6355C30.4297 33.669 30.3463 33.6943 30.2604 33.7114C30.1746 33.7284 30.0879 33.737 30.0003 33.737L18.0003 33.737C17.9128 33.737 17.8261 33.7284 17.7402 33.7114C17.6543 33.6943 17.571 33.669 17.4901 33.6355C17.4092 33.602 17.3324 33.5609 17.2596 33.5123C17.1868 33.4636 17.1194 33.4084 17.0575 33.3465C16.9956 33.2845 16.9403 33.2172 16.8917 33.1444C16.8431 33.0716 16.802 32.9948 16.7685 32.9139C16.735 32.833 16.7097 32.7496 16.6926 32.6638C16.6755 32.5779 16.667 32.4912 16.667 32.4036C16.667 32.3161 16.6755 32.2294 16.6926 32.1435C16.7097 32.0577 16.735 31.9743 16.7685 31.8934C16.802 31.8125 16.8431 31.7357 16.8917 31.6629C16.9403 31.5901 16.9956 31.5227 17.0575 31.4608C17.1194 31.3989 17.1868 31.3437 17.2596 31.295C17.3324 31.2464 17.4092 31.2053 17.4901 31.1718C17.571 31.1383 17.6543 31.113 17.7402 31.0959C17.8261 31.0789 17.9128 31.0703 18.0003 31.0703Z" fill-rule="evenodd"  fill="#FFFFFF" >
</path>
<defs>
<linearGradient id="linear_fill_74_78" x1="0" y1="24" x2="48" y2="24" gradientUnits="userSpaceOnUse">
<stop offset="0" stop-color="#FFE591"  />
<stop offset="1" stop-color="#FCB842"  />
</linearGradient>
</defs>
</svg>
