<svg xmlns="http://www.w3.org/2000/svg" xmlns:xlink="http://www.w3.org/1999/xlink" width="48" height="48" viewBox="0 0 48 48" fill="none">
<circle cx="24" cy="24" r="24"   fill="url(#linear_fill_39_74)" >
</circle>
<path d="M12 13.6654L12 29.6654C12 30.4018 12.597 30.9987 13.3333 30.9987L34.6667 30.9987C35.4031 30.9987 36 30.4018 36 29.6654L36 13.6654C36 12.929 35.4031 12.332 34.6667 12.332L13.3333 12.332C12.597 12.332 12 12.929 12 13.6654ZM14.6667 28.332L14.6667 14.9987L33.3333 14.9987L33.3333 28.332L14.6667 28.332Z" fill-rule="evenodd"  fill="#FFFFFF" >
</path>
<path d="M10.6693 12.332L37.3359 12.332C37.4235 12.332 37.5102 12.3406 37.5961 12.3577C37.6819 12.3747 37.7653 12.4 37.8462 12.4335C37.9271 12.467 38.0039 12.5081 38.0767 12.5567C38.1495 12.6054 38.2169 12.6606 38.2787 12.7226C38.3406 12.7845 38.3959 12.8518 38.4446 12.9246C38.4932 12.9974 38.5343 13.0742 38.5678 13.1551C38.6013 13.236 38.6266 13.3194 38.6437 13.4052C38.6607 13.4911 38.6693 13.5778 38.6693 13.6654C38.6693 13.7529 38.6607 13.8396 38.6437 13.9255C38.6266 14.0114 38.6013 14.0947 38.5678 14.1756C38.5343 14.2565 38.4932 14.3333 38.4446 14.4061C38.3959 14.4789 38.3406 14.5463 38.2787 14.6082C38.2169 14.6701 38.1495 14.7254 38.0767 14.774C38.0039 14.8226 37.9271 14.8637 37.8462 14.8972C37.7653 14.9307 37.6819 14.956 37.5961 14.9731C37.5102 14.9902 37.4235 14.9987 37.3359 14.9987L10.6693 14.9987C10.5817 14.9987 10.495 14.9902 10.4092 14.9731C10.3233 14.956 10.2399 14.9307 10.159 14.8972C10.0781 14.8637 10.0013 14.8226 9.92851 14.774C9.85572 14.7254 9.78837 14.6701 9.72646 14.6082C9.66456 14.5463 9.60928 14.4789 9.56065 14.4061C9.51201 14.3333 9.47093 14.2565 9.43743 14.1756C9.40393 14.0947 9.37864 14.0114 9.36156 13.9255C9.34448 13.8396 9.33594 13.7529 9.33594 13.6654C9.33594 13.5778 9.34448 13.4911 9.36156 13.4052C9.37864 13.3194 9.40393 13.236 9.43743 13.1551C9.47093 13.0742 9.51201 12.9974 9.56064 12.9246C9.60928 12.8518 9.66456 12.7845 9.72646 12.7226C9.78837 12.6606 9.85572 12.6054 9.92851 12.5567C10.0013 12.5081 10.0781 12.467 10.159 12.4335C10.2399 12.4 10.3233 12.3747 10.4092 12.3577C10.495 12.3406 10.5817 12.332 10.6693 12.332Z" fill-rule="evenodd"  fill="#FFFFFF" >
</path>
<path d="M17.0229 37.2421C16.8003 37.0038 16.6641 36.6838 16.6641 36.332C16.6641 35.9872 16.7949 35.673 17.0097 35.4363L23.0063 28.7734C23.536 28.1849 24.4588 28.1849 24.9884 28.7734L30.985 35.4362L30.9885 35.4401C31.2012 35.6763 31.3307 35.9891 31.3307 36.332C31.3307 37.0684 30.7338 37.6654 29.9974 37.6654C29.604 37.6654 29.2504 37.495 29.0063 37.224L29.0023 37.2195L23.9974 31.6585L18.9924 37.2196C18.9818 37.2315 18.9709 37.2433 18.9598 37.2549C18.9469 37.2683 18.9337 37.2815 18.9202 37.2944C18.6822 37.5227 18.3598 37.6635 18.0044 37.6654L17.9974 37.6654L17.9904 37.6654C17.6365 37.6635 17.3152 37.5238 17.0775 37.2972C17.0588 37.2794 17.0406 37.261 17.0229 37.2421Z" fill-rule="evenodd"  fill="#FFFFFF" >
</path>
<path d="M18.6693 16.332L29.3359 16.332C29.4235 16.332 29.5102 16.3406 29.5961 16.3577C29.6819 16.3747 29.7653 16.4 29.8462 16.4335C29.9271 16.467 30.0039 16.5081 30.0767 16.5567C30.1495 16.6054 30.2168 16.6607 30.2788 16.7226C30.3407 16.7845 30.3959 16.8518 30.4446 16.9246C30.4932 16.9974 30.5343 17.0742 30.5678 17.1551C30.6013 17.236 30.6266 17.3194 30.6437 17.4052C30.6607 17.4911 30.6693 17.5778 30.6693 17.6654C30.6693 17.7529 30.6607 17.8396 30.6437 17.9255C30.6266 18.0114 30.6013 18.0947 30.5678 18.1756C30.5343 18.2565 30.4932 18.3333 30.4446 18.4061C30.3959 18.4789 30.3407 18.5463 30.2788 18.6082C30.2168 18.6701 30.1495 18.7254 30.0767 18.774C30.0039 18.8226 29.9271 18.8637 29.8462 18.8972C29.7653 18.9307 29.6819 18.956 29.5961 18.9731C29.5102 18.9902 29.4235 18.9987 29.3359 18.9987L18.6693 18.9987C18.5817 18.9987 18.495 18.9902 18.4092 18.9731C18.3233 18.956 18.2399 18.9307 18.159 18.8972C18.0781 18.8637 18.0013 18.8226 17.9285 18.774C17.8557 18.7254 17.7884 18.6701 17.7265 18.6082C17.6646 18.5463 17.6093 18.4789 17.5606 18.4061C17.512 18.3333 17.4709 18.2565 17.4374 18.1756C17.4039 18.0947 17.3786 18.0114 17.3616 17.9255C17.3445 17.8396 17.3359 17.7529 17.3359 17.6654C17.3359 17.5778 17.3445 17.4911 17.3616 17.4052C17.3786 17.3194 17.4039 17.236 17.4374 17.1551C17.4709 17.0742 17.512 16.9974 17.5606 16.9246C17.6093 16.8518 17.6646 16.7845 17.7265 16.7226C17.7884 16.6607 17.8557 16.6054 17.9285 16.5567C18.0013 16.5081 18.0781 16.467 18.159 16.4335C18.2399 16.4 18.3233 16.3747 18.4092 16.3577C18.495 16.3406 18.5817 16.332 18.6693 16.332Z" fill-rule="evenodd"  fill="#FFFFFF" >
</path>
<path d="M18.6693 20.332L26.6693 20.332C26.7568 20.332 26.8435 20.3406 26.9294 20.3577C27.0153 20.3747 27.0986 20.4 27.1795 20.4335C27.2604 20.467 27.3372 20.5081 27.41 20.5567C27.4828 20.6054 27.5502 20.6607 27.6121 20.7226C27.674 20.7845 27.7293 20.8518 27.7779 20.9246C27.8265 20.9974 27.8676 21.0742 27.9011 21.1551C27.9346 21.236 27.9599 21.3194 27.977 21.4052C27.9941 21.4911 28.0026 21.5778 28.0026 21.6654C28.0026 21.7529 27.9941 21.8396 27.977 21.9255C27.9599 22.0114 27.9346 22.0947 27.9011 22.1756C27.8676 22.2565 27.8265 22.3333 27.7779 22.4061C27.7293 22.4789 27.674 22.5463 27.6121 22.6082C27.5502 22.6701 27.4828 22.7254 27.41 22.774C27.3372 22.8226 27.2604 22.8637 27.1795 22.8972C27.0986 22.9307 27.0153 22.956 26.9294 22.9731C26.8435 22.9902 26.7568 22.9987 26.6693 22.9987L18.6693 22.9987C18.5817 22.9987 18.495 22.9902 18.4092 22.9731C18.3233 22.956 18.2399 22.9307 18.159 22.8972C18.0781 22.8637 18.0013 22.8226 17.9285 22.774C17.8557 22.7254 17.7884 22.6701 17.7265 22.6082C17.6646 22.5463 17.6093 22.4789 17.5606 22.4061C17.512 22.3333 17.4709 22.2565 17.4374 22.1756C17.4039 22.0947 17.3786 22.0114 17.3616 21.9255C17.3445 21.8396 17.3359 21.7529 17.3359 21.6654C17.3359 21.5778 17.3445 21.4911 17.3616 21.4052C17.3786 21.3194 17.4039 21.236 17.4374 21.1551C17.4709 21.0742 17.512 20.9974 17.5606 20.9246C17.6093 20.8518 17.6646 20.7845 17.7265 20.7226C17.7884 20.6607 17.8557 20.6054 17.9285 20.5567C18.0013 20.5081 18.0781 20.467 18.159 20.4335C18.2399 20.4 18.3233 20.3747 18.4092 20.3577C18.495 20.3406 18.5817 20.332 18.6693 20.332Z" fill-rule="evenodd"  fill="#FFFFFF" >
</path>
<path d="M18.6693 24.332L22.6693 24.332C22.7568 24.332 22.8435 24.3406 22.9294 24.3577C23.0153 24.3747 23.0986 24.4 23.1795 24.4335C23.2604 24.467 23.3372 24.5081 23.41 24.5567C23.4828 24.6054 23.5502 24.6607 23.6121 24.7226C23.674 24.7845 23.7293 24.8518 23.7779 24.9246C23.8265 24.9974 23.8676 25.0742 23.9011 25.1551C23.9346 25.236 23.9599 25.3194 23.977 25.4052C23.9941 25.4911 24.0026 25.5778 24.0026 25.6654C24.0026 25.7529 23.9941 25.8396 23.977 25.9255C23.9599 26.0114 23.9346 26.0947 23.9011 26.1756C23.8676 26.2565 23.8265 26.3333 23.7779 26.4061C23.7293 26.4789 23.674 26.5463 23.6121 26.6082C23.5502 26.6701 23.4828 26.7254 23.41 26.774C23.3372 26.8226 23.2604 26.8637 23.1795 26.8972C23.0986 26.9307 23.0153 26.956 22.9294 26.9731C22.8435 26.9902 22.7568 26.9987 22.6693 26.9987L18.6693 26.9987C18.5817 26.9987 18.495 26.9902 18.4092 26.9731C18.3233 26.956 18.2399 26.9307 18.159 26.8972C18.0781 26.8637 18.0013 26.8226 17.9285 26.774C17.8557 26.7254 17.7884 26.6701 17.7265 26.6082C17.6646 26.5463 17.6093 26.4789 17.5606 26.4061C17.512 26.3333 17.4709 26.2565 17.4374 26.1756C17.4039 26.0947 17.3786 26.0114 17.3616 25.9255C17.3445 25.8396 17.3359 25.7529 17.3359 25.6654C17.3359 25.5778 17.3445 25.4911 17.3616 25.4052C17.3786 25.3194 17.4039 25.236 17.4374 25.1551C17.4709 25.0742 17.512 24.9974 17.5606 24.9246C17.6093 24.8518 17.6646 24.7845 17.7265 24.7226C17.7884 24.6607 17.8557 24.6054 17.9285 24.5567C18.0013 24.5081 18.0781 24.467 18.159 24.4335C18.2399 24.4 18.3233 24.3747 18.4092 24.3577C18.495 24.3406 18.5817 24.332 18.6693 24.332Z" fill-rule="evenodd"  fill="#FFFFFF" >
</path>
<defs>
<linearGradient id="linear_fill_39_74" x1="0" y1="24" x2="48" y2="24" gradientUnits="userSpaceOnUse">
<stop offset="0" stop-color="#FFD29E"  />
<stop offset="1" stop-color="#FF8D0E"  />
</linearGradient>
</defs>
</svg>
