<svg xmlns="http://www.w3.org/2000/svg" xmlns:xlink="http://www.w3.org/1999/xlink" width="48" height="48" viewBox="0 0 48 48" fill="none">
<circle cx="24" cy="24" r="24"   fill="#CCCCCC" >
</circle>
<path d="M35.9987 12L11.9987 12C10.5259 12 9.33203 13.1939 9.33203 14.6667L9.33203 25.3333C9.33203 26.8061 10.5259 28 11.9987 28L35.9987 28C37.4715 28 38.6654 26.8061 38.6654 25.3333L38.6654 14.6667C38.6654 13.1939 37.4715 12 35.9987 12ZM11.9987 25.3333L11.9987 14.6667L35.9987 14.6667L35.9987 25.3333L11.9987 25.3333Z" fill-rule="evenodd"  fill="#FFFFFF" >
</path>
<path d="M14.668 21.3333L14.668 26.6667C14.668 27.403 15.2649 28 16.0013 28L32.0013 28C32.7377 28 33.3346 27.403 33.3346 26.6667L33.3346 21.3333C33.3346 20.597 32.7377 20 32.0013 20L16.0013 20C15.2649 20 14.668 20.597 14.668 21.3333ZM17.3346 25.3333L17.3346 22.6667L30.668 22.6667L30.668 25.3333L17.3346 25.3333Z" fill-rule="evenodd"  fill="#FFFFFF" >
</path>
<path d="M32 16C32.0875 16 32.1743 16.0085 32.2601 16.0256C32.346 16.0427 32.4294 16.068 32.5102 16.1015C32.5911 16.135 32.668 16.1761 32.7408 16.2247C32.8136 16.2733 32.8809 16.3286 32.9428 16.3905C33.0047 16.4524 33.06 16.5198 33.1086 16.5926C33.1573 16.6654 33.1983 16.7422 33.2318 16.8231C33.2653 16.904 33.2906 16.9873 33.3077 17.0732C33.3248 17.1591 33.3333 17.2458 33.3333 17.3333C33.3333 17.4209 33.3248 17.5076 33.3077 17.5935C33.2906 17.6793 33.2653 17.7627 33.2318 17.8436C33.1983 17.9245 33.1573 18.0013 33.1086 18.0741C33.06 18.1469 33.0047 18.2142 32.9428 18.2761C32.8809 18.338 32.8136 18.3933 32.7408 18.442C32.668 18.4906 32.5911 18.5317 32.5102 18.5652C32.4294 18.5987 32.346 18.624 32.2601 18.641C32.1743 18.6581 32.0875 18.6667 32 18.6667L29.3333 18.6667C29.2458 18.6667 29.1591 18.6581 29.0732 18.641C28.9873 18.624 28.904 18.5987 28.8231 18.5652C28.7422 18.5317 28.6654 18.4906 28.5926 18.442C28.5198 18.3933 28.4524 18.338 28.3905 18.2761C28.3286 18.2142 28.2733 18.1469 28.2247 18.0741C28.1761 18.0013 28.135 17.9245 28.1015 17.8436C28.068 17.7627 28.0427 17.6793 28.0256 17.5935C28.0085 17.5076 28 17.4209 28 17.3333C28 17.2458 28.0085 17.1591 28.0256 17.0732C28.0427 16.9873 28.068 16.904 28.1015 16.8231C28.135 16.7422 28.1761 16.6654 28.2247 16.5926C28.2733 16.5198 28.3286 16.4524 28.3905 16.3905C28.4524 16.3286 28.5198 16.2733 28.5926 16.2247C28.6654 16.1761 28.7422 16.135 28.8231 16.1015C28.904 16.068 28.9873 16.0427 29.0732 16.0256C29.1591 16.0085 29.2458 16 29.3333 16L32 16Z" fill-rule="evenodd"  fill="#FFFFFF" >
</path>
<path d="M25.3346 30.6654L25.3346 34.6654C25.3346 34.7529 25.3261 34.8396 25.309 34.9255C25.2919 35.0114 25.2666 35.0947 25.2331 35.1756C25.1996 35.2565 25.1586 35.3333 25.1099 35.4061C25.0613 35.4789 25.006 35.5463 24.9441 35.6082C24.8822 35.6701 24.8149 35.7254 24.7421 35.774C24.6693 35.8226 24.5924 35.8637 24.5115 35.8972C24.4307 35.9307 24.3473 35.956 24.2614 35.9731C24.1756 35.9902 24.0889 35.9987 24.0013 35.9987C23.9138 35.9987 23.827 35.9902 23.7412 35.9731C23.6553 35.956 23.5719 35.9307 23.4911 35.8972C23.4102 35.8637 23.3333 35.8226 23.2605 35.774C23.1877 35.7254 23.1204 35.6701 23.0585 35.6082C22.9966 35.5463 22.9413 35.4789 22.8927 35.4061C22.844 35.3333 22.803 35.2565 22.7695 35.1756C22.736 35.0947 22.7107 35.0114 22.6936 34.9255C22.6765 34.8396 22.668 34.7529 22.668 34.6654L22.668 30.6654C22.668 30.5778 22.6765 30.4911 22.6936 30.4052C22.7107 30.3194 22.736 30.236 22.7695 30.1551C22.803 30.0742 22.844 29.9974 22.8927 29.9246C22.9413 29.8518 22.9966 29.7845 23.0585 29.7226C23.1204 29.6607 23.1877 29.6054 23.2605 29.5567C23.3333 29.5081 23.4102 29.467 23.4911 29.4335C23.5719 29.4 23.6553 29.3747 23.7412 29.3577C23.827 29.3406 23.9138 29.332 24.0013 29.332C24.0889 29.332 24.1756 29.3406 24.2614 29.3577C24.3473 29.3747 24.4307 29.4 24.5115 29.4335C24.5924 29.467 24.6693 29.5081 24.7421 29.5567C24.8149 29.6054 24.8822 29.6607 24.9441 29.7226C25.006 29.7845 25.0613 29.8518 25.1099 29.9246C25.1586 29.9974 25.1996 30.0742 25.2331 30.1551C25.2666 30.236 25.2919 30.3194 25.309 30.4052C25.3261 30.4911 25.3346 30.5778 25.3346 30.6654Z" fill-rule="evenodd"  fill="#FFFFFF" >
</path>
<path d="M19.9987 32.0013L19.9987 33.3346C19.9987 33.4222 19.9902 33.5089 19.9731 33.5948C19.956 33.6806 19.9307 33.764 19.8972 33.8449C19.8637 33.9258 19.8226 34.0026 19.774 34.0754C19.7254 34.1482 19.6701 34.2155 19.6082 34.2775C19.5463 34.3394 19.4789 34.3946 19.4061 34.4433C19.3333 34.4919 19.2565 34.533 19.1756 34.5665C19.0947 34.6 19.0114 34.6253 18.9255 34.6424C18.8396 34.6594 18.7529 34.668 18.6654 34.668C18.5778 34.668 18.4911 34.6594 18.4052 34.6424C18.3194 34.6253 18.236 34.6 18.1551 34.5665C18.0742 34.533 17.9974 34.4919 17.9246 34.4433C17.8518 34.3946 17.7845 34.3394 17.7226 34.2775C17.6607 34.2155 17.6054 34.1482 17.5567 34.0754C17.5081 34.0026 17.467 33.9258 17.4335 33.8449C17.4 33.764 17.3747 33.6806 17.3577 33.5948C17.3406 33.5089 17.332 33.4222 17.332 33.3346L17.332 32.0013C17.332 31.9138 17.3406 31.827 17.3577 31.7412C17.3747 31.6553 17.4 31.5719 17.4335 31.4911C17.467 31.4102 17.5081 31.3333 17.5567 31.2605C17.6054 31.1877 17.6607 31.1204 17.7226 31.0585C17.7845 30.9966 17.8518 30.9413 17.9246 30.8927C17.9974 30.844 18.0742 30.803 18.1551 30.7695C18.236 30.736 18.3194 30.7107 18.4052 30.6936C18.4911 30.6765 18.5778 30.668 18.6654 30.668C18.7529 30.668 18.8396 30.6765 18.9255 30.6936C19.0114 30.7107 19.0947 30.736 19.1756 30.7695C19.2565 30.803 19.3333 30.844 19.4061 30.8927C19.4789 30.9413 19.5463 30.9966 19.6082 31.0585C19.6701 31.1204 19.7254 31.1877 19.774 31.2605C19.8226 31.3333 19.8637 31.4102 19.8972 31.4911C19.9307 31.5719 19.956 31.6553 19.9731 31.7412C19.9902 31.827 19.9987 31.9138 19.9987 32.0013Z" fill-rule="evenodd"  fill="#FFFFFF" >
</path>
<path d="M30.6667 32.0013L30.6667 33.3346C30.6667 33.4222 30.6581 33.5089 30.641 33.5948C30.624 33.6806 30.5987 33.764 30.5652 33.8449C30.5317 33.9258 30.4906 34.0026 30.442 34.0754C30.3933 34.1482 30.338 34.2155 30.2761 34.2775C30.2142 34.3394 30.1469 34.3946 30.0741 34.4433C30.0013 34.4919 29.9245 34.533 29.8436 34.5665C29.7627 34.6 29.6793 34.6253 29.5935 34.6424C29.5076 34.6594 29.4209 34.668 29.3333 34.668C29.2458 34.668 29.1591 34.6594 29.0732 34.6424C28.9873 34.6253 28.904 34.6 28.8231 34.5665C28.7422 34.533 28.6654 34.4919 28.5926 34.4433C28.5198 34.3946 28.4524 34.3394 28.3905 34.2775C28.3286 34.2155 28.2733 34.1482 28.2247 34.0754C28.1761 34.0026 28.135 33.9258 28.1015 33.8449C28.068 33.764 28.0427 33.6806 28.0256 33.5948C28.0085 33.5089 28 33.4222 28 33.3346L28 32.0013C28 31.9138 28.0085 31.827 28.0256 31.7412C28.0427 31.6553 28.068 31.5719 28.1015 31.4911C28.135 31.4102 28.1761 31.3333 28.2247 31.2605C28.2733 31.1877 28.3286 31.1204 28.3905 31.0585C28.4524 30.9966 28.5198 30.9413 28.5926 30.8927C28.6654 30.844 28.7422 30.803 28.8231 30.7695C28.904 30.736 28.9873 30.7107 29.0732 30.6936C29.1591 30.6765 29.2458 30.668 29.3333 30.668C29.4209 30.668 29.5076 30.6765 29.5935 30.6936C29.6793 30.7107 29.7627 30.736 29.8436 30.7695C29.9245 30.803 30.0013 30.844 30.0741 30.8927C30.1469 30.9413 30.2142 30.9966 30.2761 31.0585C30.338 31.1204 30.3933 31.1877 30.442 31.2605C30.4906 31.3333 30.5317 31.4102 30.5652 31.4911C30.5987 31.5719 30.624 31.6553 30.641 31.7412C30.6581 31.827 30.6667 31.9138 30.6667 32.0013Z" fill-rule="evenodd"  fill="#FFFFFF" >
</path>
</svg>
