<svg xmlns="http://www.w3.org/2000/svg" xmlns:xlink="http://www.w3.org/1999/xlink" width="48" height="48" viewBox="0 0 48 48" fill="none">
<circle cx="24" cy="24" r="24"   fill="#CCCCCC" >
</circle>
<path d="M15.3333 12.668C13.4924 12.668 12 14.1604 12 16.0013L12 23.3346C12 24.071 12.597 24.668 13.3333 24.668L34.6667 24.668C35.4031 24.668 36 24.071 36 23.3346L36 16.0013C36 14.1604 34.5076 12.668 32.6667 12.668L15.3333 12.668ZM14.6667 16.0013L14.6667 22.0013L33.3333 22.0013L33.3333 16.0013C33.3333 15.6331 33.0348 15.3346 32.6667 15.3346L15.3333 15.3346C14.9651 15.3346 14.6667 15.6331 14.6667 16.0013Z" fill-rule="evenodd"  fill="#FFFFFF" >
</path>
<path d="M13.3346 34C13.3346 34.0875 13.3261 34.1743 13.309 34.2601C13.2919 34.346 13.2666 34.4294 13.2331 34.5102C13.1996 34.5911 13.1586 34.668 13.1099 34.7408C13.0613 34.8136 13.006 34.8809 12.9441 34.9428C12.8822 35.0047 12.8149 35.06 12.7421 35.1086C12.6693 35.1573 12.5924 35.1983 12.5115 35.2318C12.4307 35.2653 12.3473 35.2906 12.2614 35.3077C12.1756 35.3248 12.0889 35.3333 12.0013 35.3333C11.9138 35.3333 11.827 35.3248 11.7412 35.3077C11.6553 35.2906 11.5719 35.2653 11.4911 35.2318C11.4102 35.1983 11.3333 35.1573 11.2605 35.1086C11.1877 35.06 11.1204 35.0047 11.0585 34.9428C10.9966 34.8809 10.9413 34.8136 10.8927 34.7408C10.844 34.668 10.803 34.5911 10.7695 34.5102C10.736 34.4294 10.7107 34.346 10.6936 34.2601C10.6765 34.1743 10.668 34.0875 10.668 34L10.668 31.3333C10.668 31.2458 10.6765 31.1591 10.6936 31.0732C10.7107 30.9873 10.736 30.904 10.7695 30.8231C10.803 30.7422 10.844 30.6654 10.8927 30.5926C10.9413 30.5198 10.9966 30.4524 11.0585 30.3905C11.1204 30.3286 11.1877 30.2733 11.2605 30.2247C11.3333 30.1761 11.4102 30.135 11.4911 30.1015C11.5719 30.068 11.6553 30.0427 11.7412 30.0256C11.827 30.0085 11.9138 30 12.0013 30C12.0889 30 12.1756 30.0085 12.2614 30.0256C12.3473 30.0427 12.4307 30.068 12.5115 30.1015C12.5924 30.135 12.6693 30.1761 12.7421 30.2247C12.8149 30.2733 12.8822 30.3286 12.9441 30.3905C13.006 30.4524 13.0613 30.5198 13.1099 30.5926C13.1586 30.6654 13.1996 30.7422 13.2331 30.8231C13.2666 30.904 13.2919 30.9873 13.309 31.0732C13.3261 31.1591 13.3346 31.2458 13.3346 31.3333L13.3346 34Z" fill-rule="evenodd"  fill="#FFFFFF" >
</path>
<path d="M37.3346 34C37.3346 34.0875 37.3261 34.1743 37.309 34.2601C37.2919 34.346 37.2666 34.4294 37.2331 34.5102C37.1996 34.5911 37.1586 34.668 37.1099 34.7408C37.0613 34.8136 37.006 34.8809 36.9441 34.9428C36.8822 35.0047 36.8149 35.06 36.7421 35.1086C36.6693 35.1573 36.5924 35.1983 36.5115 35.2318C36.4307 35.2653 36.3473 35.2906 36.2614 35.3077C36.1756 35.3248 36.0889 35.3333 36.0013 35.3333C35.9138 35.3333 35.827 35.3248 35.7412 35.3077C35.6553 35.2906 35.5719 35.2653 35.4911 35.2318C35.4102 35.1983 35.3333 35.1573 35.2605 35.1086C35.1877 35.06 35.1204 35.0047 35.0585 34.9428C34.9966 34.8809 34.9413 34.8136 34.8927 34.7408C34.844 34.668 34.803 34.5911 34.7695 34.5102C34.736 34.4294 34.7107 34.346 34.6936 34.2601C34.6765 34.1743 34.668 34.0875 34.668 34L34.668 31.3333C34.668 31.2458 34.6765 31.1591 34.6936 31.0732C34.7107 30.9873 34.736 30.904 34.7695 30.8231C34.803 30.7422 34.844 30.6654 34.8927 30.5926C34.9413 30.5198 34.9966 30.4524 35.0585 30.3905C35.1204 30.3286 35.1877 30.2733 35.2605 30.2247C35.3333 30.1761 35.4102 30.135 35.4911 30.1015C35.5719 30.068 35.6553 30.0427 35.7412 30.0256C35.827 30.0085 35.9138 30 36.0013 30C36.0889 30 36.1756 30.0085 36.2614 30.0256C36.3473 30.0427 36.4307 30.068 36.5115 30.1015C36.5924 30.135 36.6693 30.1761 36.7421 30.2247C36.8149 30.2733 36.8822 30.3286 36.9441 30.3905C37.006 30.4524 37.0613 30.5198 37.1099 30.5926C37.1586 30.6654 37.1996 30.7422 37.2331 30.8231C37.2666 30.904 37.2919 30.9873 37.309 31.0732C37.3261 31.1591 37.3346 31.2458 37.3346 31.3333L37.3346 34Z" fill-rule="evenodd"  fill="#FFFFFF" >
</path>
<path d="M17.3333 21.3346L21.3333 21.3346C21.7015 21.3346 22 21.6331 22 22.0013L16.6667 22.0013C16.6667 21.6331 16.9651 21.3346 17.3333 21.3346ZM21.3333 18.668L17.3333 18.668C15.4924 18.668 14 20.1604 14 22.0013L14 23.3346C14 24.071 14.597 24.668 15.3333 24.668L23.3333 24.668C24.0697 24.668 24.6667 24.071 24.6667 23.3346L24.6667 22.0013C24.6667 20.1604 23.1743 18.668 21.3333 18.668Z" fill-rule="evenodd"  fill="#FFFFFF" >
</path>
<path d="M26.6654 21.3346L30.6654 21.3346C31.0336 21.3346 31.332 21.6331 31.332 22.0013L25.9987 22.0013C25.9987 21.6331 26.2972 21.3346 26.6654 21.3346ZM30.6654 18.668L26.6654 18.668C24.8244 18.668 23.332 20.1604 23.332 22.0013L23.332 23.3346C23.332 24.071 23.929 24.668 24.6654 24.668L32.6654 24.668C33.4017 24.668 33.9987 24.071 33.9987 23.3346L33.9987 22.0013C33.9987 20.1604 32.5063 18.668 30.6654 18.668Z" fill-rule="evenodd"  fill="#FFFFFF" >
</path>
<path d="M12.6654 22C10.8244 22 9.33203 23.4924 9.33203 25.3333L9.33203 31.3333C9.33203 32.0697 9.92898 32.6667 10.6654 32.6667L37.332 32.6667C38.0684 32.6667 38.6654 32.0697 38.6654 31.3333L38.6654 25.3333C38.6654 23.4924 37.173 22 35.332 22L12.6654 22ZM11.9987 25.3333L11.9987 30L35.9987 30L35.9987 25.3333C35.9987 24.9651 35.7002 24.6667 35.332 24.6667L12.6654 24.6667C12.2972 24.6667 11.9987 24.9651 11.9987 25.3333Z" fill-rule="evenodd"  fill="#FFFFFF" >
</path>
</svg>
