<svg xmlns="http://www.w3.org/2000/svg" xmlns:xlink="http://www.w3.org/1999/xlink" width="48" height="48" viewBox="0 0 48 48" fill="none">
<circle cx="24" cy="24" r="24"   fill="url(#linear_fill_48_631)" >
</circle>
<path d="M15.334 12L10.6673 12C10.4909 12 10.3211 12.0337 10.1581 12.1011C9.99501 12.1685 9.851 12.2644 9.72604 12.389C9.72502 12.39 9.724 12.391 9.72298 12.3921C9.59843 12.517 9.50245 12.661 9.43507 12.8241C9.36768 12.9871 9.33398 13.1569 9.33398 13.3333L9.33398 34.6667C9.33398 35.4031 9.93094 36 10.6673 36L15.334 36C15.9696 36 16.5168 35.5513 16.6414 34.9281C16.943 33.4205 17.8405 32.6667 19.334 32.6667C20.8275 32.6667 21.725 33.4205 22.0265 34.9281C22.0889 35.2397 22.2568 35.5077 22.3252 35.5639C22.3394 35.5755 22.3493 35.578 22.3531 35.5699C22.5989 35.8365 22.9503 36 23.334 36L37.334 36C38.0704 36 38.6673 35.4031 38.6673 34.6667L38.6673 13.3333C38.6673 12.597 38.0704 12 37.334 12L23.334 12C22.6984 12 22.1512 12.4486 22.0265 13.0718C21.725 14.5795 20.8275 15.3333 19.334 15.3333C17.8405 15.3333 16.943 14.5795 16.6414 13.0718C16.5791 12.7602 16.4111 12.4923 16.3427 12.4362C16.3286 12.4246 16.3187 12.422 16.3149 12.4301C16.0691 12.1635 15.7176 12 15.334 12ZM12.0007 14.6667L12.0007 33.3333L14.3159 33.3333C15.0943 31.1111 16.767 30 19.334 30C21.9009 30 23.5736 31.1111 24.3521 33.3333L36.0007 33.3333L36.0007 14.6667L24.3521 14.6667C23.5736 16.8889 21.9009 18 19.334 18C16.767 18 15.0943 16.8889 14.3159 14.6667L12.0007 14.6667Z" fill-rule="evenodd"  fill="#FFFFFF" >
</path>
<path d="M20.6667 20.6693L20.6667 22.0026C20.6667 22.0902 20.6581 22.1769 20.641 22.2627C20.624 22.3486 20.5987 22.432 20.5652 22.5128C20.5317 22.5937 20.4906 22.6706 20.442 22.7434C20.3933 22.8162 20.338 22.8835 20.2761 22.9454C20.2142 23.0073 20.1469 23.0626 20.0741 23.1112C20.0013 23.1599 19.9245 23.2009 19.8436 23.2344C19.7627 23.2679 19.6793 23.2932 19.5935 23.3103C19.5076 23.3274 19.4209 23.3359 19.3333 23.3359C19.2458 23.3359 19.1591 23.3274 19.0732 23.3103C18.9873 23.2932 18.904 23.2679 18.8231 23.2344C18.7422 23.2009 18.6654 23.1599 18.5926 23.1112C18.5198 23.0626 18.4524 23.0073 18.3905 22.9454C18.3286 22.8835 18.2733 22.8162 18.2247 22.7434C18.1761 22.6706 18.135 22.5937 18.1015 22.5128C18.068 22.432 18.0427 22.3486 18.0256 22.2627C18.0085 22.1769 18 22.0902 18 22.0026L18 20.6693C18 20.5817 18.0085 20.495 18.0256 20.4092C18.0427 20.3233 18.068 20.2399 18.1015 20.159C18.135 20.0781 18.1761 20.0013 18.2247 19.9285C18.2733 19.8557 18.3286 19.7884 18.3905 19.7265C18.4524 19.6646 18.5198 19.6093 18.5926 19.5606C18.6654 19.512 18.7422 19.4709 18.8231 19.4374C18.904 19.4039 18.9873 19.3786 19.0732 19.3616C19.1591 19.3445 19.2458 19.3359 19.3333 19.3359C19.4209 19.3359 19.5076 19.3445 19.5935 19.3616C19.6793 19.3786 19.7627 19.4039 19.8436 19.4374C19.9245 19.4709 20.0013 19.512 20.0741 19.5606C20.1469 19.6093 20.2142 19.6646 20.2761 19.7265C20.338 19.7884 20.3933 19.8557 20.442 19.9285C20.4906 20.0013 20.5317 20.0781 20.5652 20.159C20.5987 20.2399 20.624 20.3233 20.641 20.4092C20.6581 20.495 20.6667 20.5817 20.6667 20.6693Z" fill-rule="evenodd"  fill="#FFFFFF" >
</path>
<path d="M20.6667 25.9974L20.6667 27.3307C20.6667 27.4183 20.6581 27.505 20.641 27.5908C20.624 27.6767 20.5987 27.7601 20.5652 27.841C20.5317 27.9219 20.4906 27.9987 20.442 28.0715C20.3933 28.1443 20.338 28.2116 20.2761 28.2735C20.2142 28.3354 20.1469 28.3907 20.0741 28.4394C20.0013 28.488 19.9245 28.5291 19.8436 28.5626C19.7627 28.5961 19.6793 28.6214 19.5935 28.6384C19.5076 28.6555 19.4209 28.6641 19.3333 28.6641C19.2458 28.6641 19.1591 28.6555 19.0732 28.6384C18.9873 28.6214 18.904 28.5961 18.8231 28.5626C18.7422 28.5291 18.6654 28.488 18.5926 28.4394C18.5198 28.3907 18.4524 28.3354 18.3905 28.2735C18.3286 28.2116 18.2733 28.1443 18.2247 28.0715C18.1761 27.9987 18.135 27.9219 18.1015 27.841C18.068 27.7601 18.0427 27.6767 18.0256 27.5908C18.0085 27.505 18 27.4183 18 27.3307L18 25.9974C18 25.9098 18.0085 25.8231 18.0256 25.7373C18.0427 25.6514 18.068 25.568 18.1015 25.4872C18.135 25.4063 18.1761 25.3294 18.2247 25.2566C18.2733 25.1838 18.3286 25.1165 18.3905 25.0546C18.4524 24.9927 18.5198 24.9374 18.5926 24.8888C18.6654 24.8401 18.7422 24.7991 18.8231 24.7656C18.904 24.7321 18.9873 24.7068 19.0732 24.6897C19.1591 24.6726 19.2458 24.6641 19.3333 24.6641C19.4209 24.6641 19.5076 24.6726 19.5935 24.6897C19.6793 24.7068 19.7627 24.7321 19.8436 24.7656C19.9245 24.7991 20.0013 24.8401 20.0741 24.8888C20.1469 24.9374 20.2142 24.9927 20.2761 25.0546C20.338 25.1165 20.3933 25.1838 20.442 25.2566C20.4906 25.3294 20.5317 25.4063 20.5652 25.4872C20.5987 25.568 20.624 25.6514 20.641 25.7373C20.6581 25.8231 20.6667 25.9098 20.6667 25.9974Z" fill-rule="evenodd"  fill="#FFFFFF" >
</path>
<path d="M24.6673 20.6641L32.0007 20.6641C32.0882 20.6641 32.1749 20.6726 32.2608 20.6897C32.3466 20.7068 32.43 20.7321 32.5109 20.7656C32.5918 20.7991 32.6686 20.8401 32.7414 20.8888C32.8142 20.9374 32.8816 20.9927 32.9435 21.0546C33.0054 21.1165 33.0606 21.1838 33.1093 21.2566C33.1579 21.3294 33.199 21.4063 33.2325 21.4872C33.266 21.568 33.2913 21.6514 33.3084 21.7373C33.3254 21.8231 33.334 21.9098 33.334 21.9974C33.334 22.0849 33.3254 22.1716 33.3084 22.2575C33.2913 22.3434 33.266 22.4268 33.2325 22.5076C33.199 22.5885 33.1579 22.6654 33.1093 22.7382C33.0606 22.8109 33.0054 22.8783 32.9435 22.9402C32.8816 23.0021 32.8142 23.0574 32.7414 23.106C32.6686 23.1547 32.5918 23.1957 32.5109 23.2292C32.43 23.2627 32.3466 23.288 32.2608 23.3051C32.1749 23.3222 32.0882 23.3307 32.0007 23.3307L24.6673 23.3307C24.5798 23.3307 24.4931 23.3222 24.4072 23.3051C24.3213 23.288 24.238 23.2627 24.1571 23.2292C24.0762 23.1957 23.9994 23.1547 23.9266 23.106C23.8538 23.0574 23.7864 23.0021 23.7245 22.9402C23.6626 22.8783 23.6073 22.8109 23.5587 22.7382C23.5101 22.6654 23.469 22.5885 23.4355 22.5076C23.402 22.4268 23.3767 22.3434 23.3596 22.2575C23.3425 22.1716 23.334 22.0849 23.334 21.9974C23.334 21.9098 23.3425 21.8231 23.3596 21.7373C23.3767 21.6514 23.402 21.568 23.4355 21.4872C23.469 21.4063 23.5101 21.3294 23.5587 21.2566C23.6073 21.1838 23.6626 21.1165 23.7245 21.0546C23.7864 20.9927 23.8538 20.9374 23.9266 20.8888C23.9994 20.8401 24.0762 20.7991 24.1571 20.7656C24.238 20.7321 24.3213 20.7068 24.4072 20.6897C24.4931 20.6726 24.5798 20.6641 24.6673 20.6641Z" fill-rule="evenodd"  fill="#FFFFFF" >
</path>
<path d="M24.6673 24.6641L32.0007 24.6641C32.0882 24.6641 32.1749 24.6726 32.2608 24.6897C32.3466 24.7068 32.43 24.7321 32.5109 24.7656C32.5918 24.7991 32.6686 24.8401 32.7414 24.8888C32.8142 24.9374 32.8816 24.9927 32.9435 25.0546C33.0054 25.1165 33.0606 25.1838 33.1093 25.2566C33.1579 25.3294 33.199 25.4063 33.2325 25.4872C33.266 25.568 33.2913 25.6514 33.3084 25.7373C33.3254 25.8231 33.334 25.9098 33.334 25.9974C33.334 26.0849 33.3254 26.1716 33.3084 26.2575C33.2913 26.3434 33.266 26.4268 33.2325 26.5076C33.199 26.5885 33.1579 26.6654 33.1093 26.7382C33.0606 26.8109 33.0054 26.8783 32.9435 26.9402C32.8816 27.0021 32.8142 27.0574 32.7414 27.106C32.6686 27.1547 32.5918 27.1957 32.5109 27.2292C32.43 27.2627 32.3466 27.288 32.2608 27.3051C32.1749 27.3222 32.0882 27.3307 32.0007 27.3307L24.6673 27.3307C24.5798 27.3307 24.4931 27.3222 24.4072 27.3051C24.3213 27.288 24.238 27.2627 24.1571 27.2292C24.0762 27.1957 23.9994 27.1547 23.9266 27.106C23.8538 27.0574 23.7864 27.0021 23.7245 26.9402C23.6626 26.8783 23.6073 26.8109 23.5587 26.7382C23.5101 26.6654 23.469 26.5885 23.4355 26.5076C23.402 26.4268 23.3767 26.3434 23.3596 26.2575C23.3425 26.1716 23.334 26.0849 23.334 25.9974C23.334 25.9098 23.3425 25.8231 23.3596 25.7373C23.3767 25.6514 23.402 25.568 23.4355 25.4872C23.469 25.4063 23.5101 25.3294 23.5587 25.2566C23.6073 25.1838 23.6626 25.1165 23.7245 25.0546C23.7864 24.9927 23.8538 24.9374 23.9266 24.8888C23.9994 24.8401 24.0762 24.7991 24.1571 24.7656C24.238 24.7321 24.3213 24.7068 24.4072 24.6897C24.4931 24.6726 24.5798 24.6641 24.6673 24.6641Z" fill-rule="evenodd"  fill="#FFFFFF" >
</path>
<defs>
<linearGradient id="linear_fill_48_631" x1="0" y1="24" x2="48" y2="24" gradientUnits="userSpaceOnUse">
<stop offset="0" stop-color="#ACF1F2"  />
<stop offset="1" stop-color="#10CACE"  />
</linearGradient>
</defs>
</svg>
