<svg xmlns="http://www.w3.org/2000/svg" xmlns:xlink="http://www.w3.org/1999/xlink" width="48" height="48" viewBox="0 0 48 48" fill="none">
<circle cx="24" cy="24" r="24"   fill="url(#linear_fill_26_241)" >
</circle>
<path d="M24 18.5352L24 23.0007L26.6667 23.0007L26.6667 14.6673C26.6667 12.8895 27.5556 12.0007 29.3333 12.0007C31.1111 12.0007 32 12.8895 32 14.6673L32 30.6673L34.6667 30.6673L34.6667 14.6673C34.6667 11.1118 32.8889 9.33398 29.3333 9.33398C25.7778 9.33398 24 11.1118 24 14.6673L24 18.5352Z" fill-rule="evenodd"  fill="#FFFFFF" >
</path>
<path d="M36.8335 29.334L29.8335 29.334C29.8242 29.334 29.8149 29.3341 29.8056 29.3343C29.6621 29.3373 29.5228 29.3628 29.3876 29.4108C29.2524 29.4587 29.1282 29.5268 29.0149 29.6148C28.9925 29.6323 28.9706 29.6505 28.9493 29.6693C28.9506 29.6682 28.9509 29.6679 28.9501 29.6686C28.8285 29.7769 28.7298 29.9028 28.6541 30.0463C28.5784 30.1898 28.5305 30.3417 28.5105 30.5019L28.5105 30.5022L28.0105 34.5019C27.911 35.2977 28.5315 36.0007 29.3335 36.0007L37.3335 36.0007C38.1355 36.0007 38.756 35.2977 38.6566 34.5019L38.1566 30.5019C38.0732 29.8347 37.506 29.334 36.8335 29.334ZM31.0106 32.0007L30.8439 33.334L35.8232 33.334L35.6565 32.0007L31.0106 32.0007Z" fill-rule="evenodd"  fill="#FFFFFF" >
</path>
<path d="M24.0002 33.334L14.6668 33.334C14.5793 33.334 14.4926 33.3425 14.4067 33.3596C14.3208 33.3766 14.2375 33.4019 14.1566 33.4354C14.0757 33.469 13.9989 33.51 13.9261 33.5587C13.8533 33.6073 13.7859 33.6626 13.724 33.7245C13.6621 33.7864 13.6068 33.8537 13.5582 33.9265C13.5096 33.9993 13.4685 34.0762 13.435 34.1571C13.4015 34.2379 13.3762 34.3213 13.3591 34.4072C13.342 34.493 13.3335 34.5798 13.3335 34.6673C13.3335 34.7549 13.342 34.8416 13.3591 34.9275C13.3762 35.0133 13.4015 35.0967 13.435 35.1776C13.4685 35.2585 13.5096 35.3353 13.5582 35.4081C13.6068 35.4809 13.6621 35.5482 13.724 35.6101C13.7859 35.672 13.8533 35.7273 13.9261 35.776C13.9989 35.8246 14.0757 35.8657 14.1566 35.8992C14.2375 35.9327 14.3208 35.958 14.4067 35.9751C14.4926 35.9921 14.5793 36.0006 14.6668 36.0006L25.2578 36.0006C26.036 36.0006 26.6668 35.3699 26.6668 34.5916L26.6668 23.5037C26.6668 17.8871 22.1137 13.334 16.4971 13.334C13.6453 13.334 11.3335 15.6458 11.3335 18.4976L11.3335 27.334C11.3335 27.4215 11.342 27.5082 11.3591 27.5941C11.3762 27.68 11.4015 27.7633 11.435 27.8442C11.4685 27.9251 11.5096 28.002 11.5582 28.0748C11.6068 28.1476 11.6621 28.2149 11.724 28.2768C11.7859 28.3387 11.8533 28.394 11.9261 28.4426C11.9989 28.4913 12.0757 28.5323 12.1566 28.5659C12.2375 28.5994 12.3208 28.6247 12.4067 28.6417C12.4926 28.6588 12.5793 28.6673 12.6668 28.6673C12.7544 28.6673 12.8411 28.6588 12.9269 28.6417C13.0128 28.6247 13.0962 28.5994 13.1771 28.5659C13.258 28.5323 13.3348 28.4913 13.4076 28.4426C13.4804 28.3939 13.5477 28.3386 13.6096 28.2768C13.6715 28.2149 13.7268 28.1476 13.7755 28.0748C13.8241 28.002 13.8652 27.9251 13.8987 27.8442C13.9322 27.7633 13.9575 27.68 13.9745 27.5941C13.9916 27.5082 14.0002 27.4215 14.0002 27.334L14.0002 18.4976C14.0002 17.1186 15.1181 16.0007 16.4971 16.0007C20.6409 16.0007 24.0002 19.3599 24.0002 23.5037L24.0002 33.334Z" fill-rule="evenodd"  fill="#FFFFFF" >
</path>
<path d="M14.6668 36.0007C17.6124 36.0007 20.0002 33.6128 20.0002 30.6673C20.0002 27.7218 17.6124 25.334 14.6668 25.334C11.7213 25.334 9.3335 27.7218 9.3335 30.6673C9.3335 33.6128 11.7213 36.0007 14.6668 36.0007ZM14.6668 28.0007C16.1396 28.0007 17.3335 29.1946 17.3335 30.6673C17.3335 32.1401 16.1396 33.334 14.6668 33.334C13.1941 33.334 12.0002 32.1401 12.0002 30.6673C12.0002 29.1946 13.1941 28.0007 14.6668 28.0007Z" fill-rule="evenodd"  fill="#FFFFFF" >
</path>
<path d="M18.6667 14.6673L18.6667 27.334C18.6667 27.4215 18.6581 27.5082 18.641 27.5941C18.624 27.68 18.5987 27.7633 18.5652 27.8442C18.5317 27.9251 18.4906 28.002 18.442 28.0748C18.3933 28.1476 18.338 28.2149 18.2761 28.2768C18.2142 28.3387 18.1469 28.394 18.0741 28.4426C18.0013 28.4913 17.9245 28.5323 17.8436 28.5658C17.7627 28.5994 17.6793 28.6247 17.5935 28.6417C17.5076 28.6588 17.4209 28.6673 17.3333 28.6673C17.2458 28.6673 17.1591 28.6588 17.0732 28.6417C16.9873 28.6247 16.904 28.5994 16.8231 28.5658C16.7422 28.5323 16.6654 28.4913 16.5926 28.4426C16.5198 28.3939 16.4524 28.3386 16.3905 28.2768C16.3286 28.2149 16.2733 28.1476 16.2247 28.0748C16.1761 28.002 16.135 27.9251 16.1015 27.8442C16.068 27.7633 16.0427 27.68 16.0256 27.5941C16.0085 27.5082 16 27.4215 16 27.334L16 14.6673C16 14.5798 16.0085 14.4931 16.0256 14.4072C16.0427 14.3213 16.068 14.238 16.1015 14.1571C16.135 14.0762 16.1761 13.9994 16.2247 13.9266C16.2733 13.8538 16.3286 13.7864 16.3905 13.7245C16.4524 13.6626 16.5198 13.6073 16.5926 13.5587C16.6654 13.5101 16.7422 13.469 16.8231 13.4355C16.904 13.402 16.9873 13.3767 17.0732 13.3596C17.1591 13.3425 17.2458 13.334 17.3333 13.334C17.4209 13.334 17.5076 13.3425 17.5935 13.3596C17.6793 13.3767 17.7627 13.402 17.8436 13.4355C17.9245 13.469 18.0013 13.5101 18.0741 13.5587C18.1469 13.6073 18.2142 13.6626 18.2761 13.7245C18.338 13.7864 18.3933 13.8538 18.442 13.9266C18.4906 13.9994 18.5317 14.0762 18.5652 14.1571C18.5987 14.238 18.624 14.3213 18.641 14.4072C18.6581 14.4931 18.6667 14.5798 18.6667 14.6673Z" fill-rule="evenodd"  fill="#FFFFFF" >
</path>
<defs>
<linearGradient id="linear_fill_26_241" x1="0" y1="24" x2="48" y2="24" gradientUnits="userSpaceOnUse">
<stop offset="0" stop-color="#FFE591"  />
<stop offset="1" stop-color="#FCB842"  />
</linearGradient>
</defs>
</svg>
