<svg xmlns="http://www.w3.org/2000/svg" xmlns:xlink="http://www.w3.org/1999/xlink" width="48" height="48" viewBox="0 0 48 48" fill="none">
<circle cx="24" cy="24" r="24"   fill="url(#linear_fill_26_272)" >
</circle>
<path d="M32.5263 10.963C31.1947 10.321 29.7841 10 28.2944 10C22.9343 10 18.5889 14.2855 18.5889 19.6457C18.5889 20.6924 18.7515 21.7022 19.0766 22.6749L11.317 30.3789C9.56363 32.1199 9.5636 34.9556 11.317 36.6964C13.4289 38.7931 15.5408 38.7931 17.6528 36.6964L25.5149 28.8904C26.4126 29.1577 27.3391 29.2913 28.2944 29.2913C33.6547 29.2913 38 25.0059 38 19.6457C38 18.5148 37.8081 17.4219 37.4244 16.3668C37.2581 15.9094 36.8827 15.6153 36.7365 15.5826C36.7104 15.5768 36.6916 15.5793 36.6827 15.5907C36.2124 15.3969 35.6391 15.4721 35.232 15.8763L33.3301 17.7645C32.4704 18.6182 31.6107 18.6182 30.7509 17.7645C30.0476 17.0663 30.0476 15.9289 30.7509 15.2306L32.8865 13.1102C33.5396 12.4619 33.3551 11.3627 32.5263 10.963ZM21.2556 19.6457C21.2556 15.7582 24.407 12.6667 28.2944 12.6667C28.6892 12.6667 29.0761 12.6976 29.4551 12.7594L28.872 13.3383C27.1184 15.0794 27.1184 17.9158 28.872 19.6569C30.9844 21.7541 33.0967 21.7541 35.2091 19.6569L35.3325 19.5343C35.3331 19.5714 35.3333 19.6085 35.3333 19.6457C35.3333 23.5331 32.1819 26.6247 28.2944 26.6247C27.379 26.6247 26.5013 26.4565 25.6612 26.1203C25.1675 25.9228 24.6037 26.0373 24.2263 26.412L15.7739 34.804C14.9145 35.6572 14.0552 35.6572 13.1958 34.804C12.4929 34.1061 12.4929 32.9692 13.1959 32.2713L21.5743 23.9528C21.8128 23.716 21.9474 23.4046 21.966 23.0833C21.9725 23.088 21.9773 23.0813 21.9803 23.0655C21.9941 22.9915 21.9655 22.7175 21.8532 22.4648L21.8527 22.4637C21.4546 21.5708 21.2556 20.6315 21.2556 19.6457Z" fill-rule="evenodd"  fill="#FFFFFF" >
</path>
<defs>
<linearGradient id="linear_fill_26_272" x1="0" y1="24" x2="48" y2="24" gradientUnits="userSpaceOnUse">
<stop offset="0" stop-color="#ACF1F2"  />
<stop offset="1" stop-color="#10CACE"  />
</linearGradient>
</defs>
</svg>
