<svg xmlns="http://www.w3.org/2000/svg" xmlns:xlink="http://www.w3.org/1999/xlink" width="48" height="48" viewBox="0 0 48 48" fill="none">
<circle cx="24" cy="24" r="24"   fill="url(#linear_fill_26_256)" >
</circle>
<path d="M17.0002 29.3333C17.9206 29.3333 18.6668 28.5871 18.6668 27.6667C18.6668 26.7462 17.9206 26 17.0002 26C16.0797 26 15.3335 26.7462 15.3335 27.6667C15.3335 28.5871 16.0797 29.3333 17.0002 29.3333Z" fill-rule="evenodd"  fill="#FFFFFF" >
</path>
<path d="M31.0002 29.3333C31.9206 29.3333 32.6668 28.5871 32.6668 27.6667C32.6668 26.7462 31.9206 26 31.0002 26C30.0797 26 29.3335 26.7462 29.3335 27.6667C29.3335 28.5871 30.0797 29.3333 31.0002 29.3333Z" fill-rule="evenodd"  fill="#FFFFFF" >
</path>
<path d="M9.3335 30.666C9.3335 32.507 10.8259 33.9993 12.6668 33.9993L12.7225 33.9993C13.0398 35.8911 14.6851 37.3327 16.667 37.3327C18.649 37.3327 20.2943 35.8911 20.6115 33.9993L27.3888 33.9993C27.7064 35.8912 29.3526 37.3327 31.3346 37.3327C33.3171 37.3327 34.9628 35.8915 35.2803 33.9993L35.3335 33.9993C37.1744 33.9993 38.6668 32.507 38.6668 30.666L38.6668 24.4714C38.6668 22.3168 37.722 20.7461 35.8323 19.7593L34.5002 13.7942C34.0346 11.7088 32.7333 10.666 30.5964 10.666L17.4708 10.666C15.3543 10.666 14.0558 11.6967 13.5753 13.7579L12.1773 19.7555C10.2814 20.7417 9.3335 22.314 9.3335 24.4725L9.3335 30.666ZM14.0005 31.3327L12.6668 31.3327C12.2986 31.3327 12.0002 31.0341 12.0002 30.666L12.0002 24.4725C12.0002 23.3733 12.4918 22.5781 13.4751 22.0869L13.9298 21.8598C14.2847 21.6824 14.5423 21.3562 14.6324 20.9697L16.1723 14.3633C16.3325 13.6762 16.7653 13.3327 17.4708 13.3327L30.5964 13.3327C31.3087 13.3327 31.7424 13.6802 31.8976 14.3753L33.3676 20.9576C33.4551 21.349 33.714 21.6803 34.0727 21.8596L34.5262 22.0863C35.5088 22.5777 36.0002 23.3727 36.0002 24.4714L36.0002 30.666C36.0002 31.0341 35.7016 31.3327 35.3335 31.3327L34.0023 31.3327C33.2659 31.3327 32.669 31.9296 32.669 32.666L32.669 33.3327C32.669 34.0696 32.0715 34.666 31.3346 34.666C30.5982 34.666 30.0002 34.0691 30.0002 33.3327L30.0002 32.666C30.0002 31.9296 29.4032 31.3327 28.6668 31.3327L19.3335 31.3327C18.5971 31.3327 18.0002 31.9296 18.0002 32.666L18.0002 33.3329C18.0002 34.0692 17.4033 34.666 16.667 34.666C15.9308 34.666 15.3338 34.0692 15.3338 33.3329L15.3338 32.666C15.3338 31.9296 14.7369 31.3327 14.0005 31.3327Z" fill-rule="evenodd"  fill="#FFFFFF" >
</path>
<path d="M18.9957 21.334L29.0047 21.334L28.264 18.0007L19.7365 18.0007L18.9957 21.334ZM17.1333 17.4222L16.032 22.3781C15.9468 23.3353 16.3807 23.8761 17.3335 24.0007L30.6669 24.0007C31.5198 24.0007 32.1535 23.2108 31.9685 22.3781L30.8671 17.4221C30.5578 16.03 29.6901 15.334 28.264 15.334L19.7364 15.334C18.3103 15.334 17.4426 16.0301 17.1333 17.4222Z" fill-rule="evenodd"  fill="#FFFFFF" >
</path>
<defs>
<linearGradient id="linear_fill_26_256" x1="0" y1="24" x2="48" y2="24" gradientUnits="userSpaceOnUse">
<stop offset="0" stop-color="#FFC3A3"  />
<stop offset="0.9444" stop-color="#FB6740"  />
<stop offset="1" stop-color="#FB623A"  />
</linearGradient>
</defs>
</svg>
