<svg xmlns="http://www.w3.org/2000/svg" xmlns:xlink="http://www.w3.org/1999/xlink" width="48" height="48" viewBox="0 0 48 48" fill="none">
<circle cx="24" cy="24" r="24"   fill="url(#linear_fill_26_264)" >
</circle>
<path d="M17.3333 31.334C17.3333 32.0704 16.7364 32.6673 16 32.6673C15.2636 32.6673 14.6667 32.0704 14.6667 31.334C14.6667 30.5976 15.2636 30.0007 16 30.0007C16.7364 30.0007 17.3333 30.5976 17.3333 31.334ZM12 31.334C12 33.5431 13.7909 35.334 16 35.334C18.2091 35.334 20 33.5431 20 31.334C20 29.1248 18.2091 27.334 16 27.334C13.7909 27.334 12 29.1248 12 31.334Z" fill-rule="evenodd"  fill="#FFFFFF" >
</path>
<path d="M32.6668 31.334C32.6668 32.0704 32.0699 32.6673 31.3335 32.6673C30.5971 32.6673 30.0002 32.0704 30.0002 31.334C30.0002 30.5976 30.5971 30.0007 31.3335 30.0007C32.0699 30.0007 32.6668 30.5976 32.6668 31.334ZM27.3335 31.334C27.3335 33.5431 29.1244 35.334 31.3335 35.334C33.5426 35.334 35.3335 33.5431 35.3335 31.334C35.3335 29.1248 33.5426 27.334 31.3335 27.334C29.1244 27.334 27.3335 29.1248 27.3335 31.334Z" fill-rule="evenodd"  fill="#FFFFFF" >
</path>
<path d="M9.33333 32.6667L13.3333 32.6667C13.4209 32.6667 13.5076 32.6581 13.5935 32.6411C13.6793 32.624 13.7627 32.5987 13.8436 32.5652C13.9245 32.5317 14.0013 32.4906 14.0741 32.442C14.1469 32.3933 14.2142 32.338 14.2761 32.2761C14.338 32.2143 14.3933 32.1469 14.442 32.0741C14.4906 32.0013 14.5317 31.9245 14.5652 31.8436C14.5987 31.7627 14.624 31.6793 14.641 31.5935C14.6581 31.5076 14.6667 31.4209 14.6667 31.3333C14.6667 31.2458 14.6581 31.1591 14.641 31.0732C14.624 30.9873 14.5987 30.904 14.5652 30.8231C14.5317 30.7422 14.4906 30.6653 14.442 30.5925C14.3933 30.5197 14.338 30.4524 14.2761 30.3905C14.2142 30.3286 14.1469 30.2733 14.0741 30.2247C14.0013 30.176 13.9245 30.135 13.8436 30.1015C13.7627 30.068 13.6793 30.0427 13.5935 30.0256C13.5076 30.0085 13.4209 30 13.3333 30L10.6667 30L10.6667 16.6667L27.3333 16.6667L27.3333 30L18.6667 30C18.5791 30 18.4924 30.0085 18.4065 30.0256C18.3207 30.0427 18.2373 30.068 18.1564 30.1015C18.0755 30.135 17.9987 30.176 17.9259 30.2247C17.8531 30.2733 17.7858 30.3286 17.7239 30.3905C17.662 30.4524 17.6067 30.5197 17.558 30.5925C17.5094 30.6653 17.4683 30.7422 17.4348 30.8231C17.4013 30.904 17.376 30.9873 17.3589 31.0732C17.3419 31.1591 17.3333 31.2458 17.3333 31.3333C17.3333 31.4209 17.3419 31.5076 17.3589 31.5935C17.376 31.6793 17.4013 31.7627 17.4348 31.8436C17.4683 31.9245 17.5094 32.0013 17.558 32.0741C17.6067 32.1469 17.662 32.2143 17.7239 32.2761C17.7858 32.338 17.8531 32.3933 17.9259 32.442C17.9987 32.4906 18.0755 32.5317 18.1564 32.5652C18.2373 32.5987 18.3207 32.624 18.4065 32.6411C18.4924 32.6581 18.5791 32.6667 18.6667 32.6667L28.6667 32.6667C29.4031 32.6667 30 32.0697 30 31.3333L30 15.3333C30 14.597 29.4031 14 28.6667 14L9.33333 14C8.59695 14 8 14.597 8 15.3333L8 31.3333C8 32.0697 8.59695 32.6667 9.33333 32.6667Z" fill-rule="evenodd"  fill="#FFFFFF" >
</path>
<path d="M27.3335 19.9993L27.3335 31.3327C27.3335 31.4202 27.342 31.5069 27.3591 31.5928C27.3762 31.6787 27.4015 31.762 27.435 31.8429C27.4685 31.9238 27.5096 32.0007 27.5582 32.0734C27.6068 32.1462 27.6621 32.2136 27.724 32.2755C27.7859 32.3374 27.8533 32.3927 27.9261 32.4413C27.9989 32.4899 28.0757 32.531 28.1566 32.5645C28.2375 32.598 28.3208 32.6233 28.4067 32.6404C28.4926 32.6575 28.5793 32.666 28.6668 32.666C28.7544 32.666 28.8411 32.6575 28.9269 32.6404C29.0128 32.6233 29.0962 32.598 29.1771 32.5645C29.258 32.531 29.3348 32.4899 29.4076 32.4413C29.4804 32.3927 29.5477 32.3374 29.6096 32.2755C29.6715 32.2136 29.7268 32.1462 29.7755 32.0734C29.8241 32.0007 29.8652 31.9238 29.8987 31.8429C29.9322 31.762 29.9575 31.6787 29.9745 31.5928C29.9916 31.5069 30.0002 31.4202 30.0002 31.3327L30.0002 21.3327L33.7178 21.3327L37.3335 26.1134L37.3335 29.9993L34.541 29.9993C34.4534 29.9993 34.3667 30.0079 34.2808 30.025C34.195 30.042 34.1116 30.0673 34.0307 30.1008C33.9498 30.1343 33.873 30.1754 33.8002 30.2241C33.7274 30.2727 33.6601 30.328 33.5981 30.3899C33.5362 30.4518 33.481 30.5191 33.4323 30.5919C33.3837 30.6647 33.3426 30.7416 33.3091 30.8224C33.2756 30.9033 33.2503 30.9867 33.2332 31.0726C33.2162 31.1584 33.2076 31.2451 33.2076 31.3327C33.2076 31.4202 33.2162 31.5069 33.2332 31.5928C33.2503 31.6787 33.2756 31.762 33.3091 31.8429C33.3426 31.9238 33.3837 32.0007 33.4323 32.0734C33.481 32.1462 33.5362 32.2136 33.5981 32.2755C33.6601 32.3374 33.7274 32.3927 33.8002 32.4413C33.873 32.4899 33.9498 32.531 34.0307 32.5645C34.1116 32.598 34.195 32.6233 34.2808 32.6404C34.3667 32.6575 34.4534 32.666 34.541 32.666L38.6668 32.666C39.4032 32.666 40.0002 32.0691 40.0002 31.3327L40.0002 25.666C40.0002 25.3757 39.9054 25.0933 39.7303 24.8617L35.4445 19.1951C35.1925 18.8618 34.7989 18.666 34.3811 18.666L28.6668 18.666C27.9304 18.666 27.3335 19.263 27.3335 19.9993Z" fill-rule="evenodd"  fill="#FFFFFF" >
</path>
<defs>
<linearGradient id="linear_fill_26_264" x1="0" y1="24" x2="48" y2="24" gradientUnits="userSpaceOnUse">
<stop offset="0" stop-color="#9EE2FF"  />
<stop offset="1" stop-color="#3C98FD"  />
</linearGradient>
</defs>
</svg>
