<svg xmlns="http://www.w3.org/2000/svg" xmlns:xlink="http://www.w3.org/1999/xlink" width="48" height="48" viewBox="0 0 48 48" fill="none">
<path d="M48 24C48 37.2548 37.2548 48 24 48C10.7452 48 0 37.2548 0 24C0 10.7452 10.7452 0 24 0C37.2548 0 48 10.7452 48 24Z"   fill="url(#linear_fill_74_111)" >
</path>
<path d="M24 35.6437C25.4367 34.4741 26.8783 33.053 28.3248 31.3803C31.6638 27.5197 33.3333 23.9494 33.3333 20.6693C33.3333 18.2929 32.4324 16.2601 30.6305 14.5709C28.8042 12.8587 26.594 12.0026 24 12.0026C21.406 12.0026 19.1958 12.8587 17.3694 14.5709C15.5676 16.2601 14.6667 18.2929 14.6667 20.6693C14.6667 23.9494 16.3362 27.5197 19.6751 31.3803C21.1217 33.053 22.5633 34.4741 24 35.6437ZM17.6582 33.1249C19.4985 35.2527 21.3458 37.0119 23.2 38.4026C23.7333 38.7582 24.2667 38.7582 24.8 38.4026C26.6542 37.0119 28.5015 35.2527 30.3419 33.1249C34.114 28.7634 36 24.6115 36 20.6693C36 17.5227 34.8181 14.8415 32.4544 12.6255C30.1152 10.4325 27.2971 9.33594 24 9.33594C20.703 9.33594 17.8848 10.4325 15.5456 12.6255C13.1819 14.8415 12 17.5227 12 20.6693C12 24.6114 13.8861 28.7633 17.6582 33.1249Z" fill-rule="evenodd"  fill="#FFFFFF" >
</path>
<path d="M23.3337 17.3333L23.3337 28C23.3337 28.0875 23.3251 28.1743 23.308 28.2601C23.291 28.346 23.2657 28.4294 23.2322 28.5102C23.1987 28.5911 23.1576 28.668 23.109 28.7408C23.0603 28.8136 23.005 28.8809 22.9431 28.9428C22.8812 29.0047 22.8139 29.06 22.7411 29.1086C22.6683 29.1573 22.5915 29.1983 22.5106 29.2318C22.4297 29.2653 22.3463 29.2906 22.2604 29.3077C22.1746 29.3248 22.0879 29.3333 22.0003 29.3333C21.9128 29.3333 21.8261 29.3248 21.7402 29.3077C21.6543 29.2906 21.571 29.2653 21.4901 29.2318C21.4092 29.1983 21.3324 29.1573 21.2596 29.1086C21.1868 29.06 21.1194 29.0047 21.0575 28.9428C20.9956 28.8809 20.9403 28.8136 20.8917 28.7408C20.8431 28.668 20.802 28.5911 20.7685 28.5102C20.735 28.4294 20.7097 28.346 20.6926 28.2601C20.6755 28.1743 20.667 28.0875 20.667 28L20.667 17.3333C20.667 17.2458 20.6755 17.1591 20.6926 17.0732C20.7097 16.9873 20.735 16.904 20.7685 16.8231C20.802 16.7422 20.8431 16.6654 20.8917 16.5926C20.9403 16.5198 20.9956 16.4524 21.0575 16.3905C21.1194 16.3286 21.1868 16.2733 21.2596 16.2247C21.3324 16.1761 21.4092 16.135 21.4901 16.1015C21.571 16.068 21.6543 16.0427 21.7402 16.0256C21.8261 16.0085 21.9128 16 22.0003 16C22.0879 16 22.1746 16.0085 22.2604 16.0256C22.3463 16.0427 22.4297 16.068 22.5106 16.1015C22.5915 16.135 22.6683 16.1761 22.7411 16.2247C22.8139 16.2733 22.8812 16.3286 22.9431 16.3905C23.005 16.4524 23.0603 16.5198 23.109 16.5926C23.1576 16.6654 23.1987 16.7422 23.2322 16.8231C23.2657 16.904 23.291 16.9873 23.308 17.0732C23.3251 17.1591 23.3337 17.2458 23.3337 17.3333Z" fill-rule="evenodd"  fill="#FFFFFF" >
</path>
<path d="M26.0003 16L22.0003 16C21.1877 16.0763 20.7432 16.5207 20.667 17.3333L20.667 22.6667C20.667 23.403 21.2639 24 22.0003 24L26.0003 24C28.2095 24 30.0003 22.2091 30.0003 20C30.0003 17.7909 28.2095 16 26.0003 16ZM23.3337 18.6667L23.3337 21.3333L26.0003 21.3333C26.7367 21.3333 27.3337 20.7364 27.3337 20C27.3337 19.2636 26.7367 18.6667 26.0003 18.6667L23.3337 18.6667Z" fill-rule="evenodd"  fill="#FFFFFF" >
</path>
<defs>
<linearGradient id="linear_fill_74_111" x1="0" y1="24" x2="48" y2="24" gradientUnits="userSpaceOnUse">
<stop offset="0" stop-color="#ACF1F2"  />
<stop offset="1" stop-color="#10CACE"  />
</linearGradient>
</defs>
</svg>
