<svg xmlns="http://www.w3.org/2000/svg" xmlns:xlink="http://www.w3.org/1999/xlink" width="48" height="48" viewBox="0 0 48 48" fill="none">
<path d="M48 24C48 37.2548 37.2548 48 24 48C10.7452 48 0 37.2548 0 24C0 10.7452 10.7452 0 24 0C37.2548 0 48 10.7452 48 24Z"   fill="url(#linear_fill_74_102)" >
</path>
<path d="M24 18.5371L24 23.0026L26.6667 23.0026L26.6667 14.6693C26.6667 12.8915 27.5556 12.0026 29.3333 12.0026C31.1111 12.0026 32 12.8915 32 14.6693L32 30.6693L34.6667 30.6693L34.6667 14.6693C34.6667 11.1137 32.8889 9.33594 29.3333 9.33594C25.7778 9.33594 24 11.1137 24 14.6693L24 18.5371Z" fill-rule="evenodd"  fill="#FFFFFF" >
</path>
<path d="M36.8335 29.3359L29.8335 29.3359C29.8242 29.3359 29.8149 29.336 29.8056 29.3362C29.6621 29.3392 29.5228 29.3647 29.3876 29.4127C29.2524 29.4607 29.1282 29.5287 29.0149 29.6168C28.9925 29.6343 28.9706 29.6524 28.9493 29.6713C28.9506 29.6701 28.9509 29.6699 28.9501 29.6706C28.8285 29.7789 28.7298 29.9048 28.6541 30.0483C28.5784 30.1917 28.5305 30.3436 28.5105 30.5039L28.5105 30.5041L28.0105 34.5039C27.911 35.2997 28.5315 36.0026 29.3335 36.0026L37.3335 36.0026C38.1355 36.0026 38.756 35.2997 38.6566 34.5039L38.1566 30.5039C38.0732 29.8367 37.506 29.3359 36.8335 29.3359ZM31.0106 32.0026L30.8439 33.3359L35.8232 33.3359L35.6565 32.0026L31.0106 32.0026Z" fill-rule="evenodd"  fill="#FFFFFF" >
</path>
<path d="M24.0007 33.3359L14.6673 33.3359C14.5798 33.3359 14.4931 33.3445 14.4072 33.3615C14.3213 33.3786 14.238 33.4039 14.1571 33.4374C14.0762 33.4709 13.9993 33.512 13.9266 33.5606C13.8538 33.6092 13.7864 33.6645 13.7245 33.7265C13.6626 33.7883 13.6073 33.8557 13.5587 33.9285C13.5101 34.0013 13.469 34.0781 13.4355 34.159C13.402 34.2399 13.3767 34.3233 13.3596 34.4091C13.3425 34.495 13.334 34.5817 13.334 34.6693C13.334 34.7568 13.3425 34.8435 13.3596 34.9294C13.3767 35.0153 13.402 35.0986 13.4355 35.1795C13.469 35.2604 13.5101 35.3373 13.5587 35.4101C13.6073 35.4829 13.6626 35.5502 13.7245 35.6121C13.7864 35.6739 13.8538 35.7292 13.9266 35.7779C13.9993 35.8266 14.0762 35.8676 14.1571 35.9011C14.238 35.9346 14.3213 35.9599 14.4072 35.977C14.4931 35.9941 14.5798 36.0026 14.6673 36.0026L25.2583 36.0026C26.0365 36.0026 26.6673 35.3718 26.6673 34.5935L26.6673 23.5057C26.6673 17.8891 22.1142 13.3359 16.4976 13.3359C13.6458 13.3359 11.334 15.6478 11.334 18.4995L11.334 27.3359C11.334 27.4235 11.3425 27.5102 11.3596 27.5961C11.3767 27.6819 11.402 27.7653 11.4355 27.8462C11.469 27.9271 11.5101 28.0039 11.5587 28.0767C11.6073 28.1495 11.6626 28.2169 11.7245 28.2787C11.7864 28.3407 11.8538 28.396 11.9266 28.4446C11.9994 28.4932 12.0762 28.5343 12.1571 28.5678C12.238 28.6013 12.3213 28.6266 12.4072 28.6437C12.4931 28.6607 12.5798 28.6693 12.6673 28.6693C12.7549 28.6693 12.8416 28.6607 12.9274 28.6437C13.0133 28.6266 13.0967 28.6013 13.1776 28.5678C13.2584 28.5343 13.3353 28.4932 13.4081 28.4446C13.4809 28.3959 13.5482 28.3406 13.6101 28.2787C13.672 28.2169 13.7273 28.1495 13.7759 28.0767C13.8246 28.0039 13.8657 27.9271 13.8992 27.8462C13.9327 27.7653 13.958 27.6819 13.975 27.5961C13.9921 27.5102 14.0007 27.4235 14.0007 27.3359L14.0007 18.4995C14.0007 17.1205 15.1186 16.0026 16.4976 16.0026C20.6414 16.0026 24.0007 19.3618 24.0007 23.5057L24.0007 33.3359Z" fill-rule="evenodd"  fill="#FFFFFF" >
</path>
<path d="M14.6673 36.0026C17.6128 36.0026 20.0007 33.6148 20.0007 30.6693C20.0007 27.7238 17.6128 25.3359 14.6673 25.3359C11.7218 25.3359 9.33398 27.7238 9.33398 30.6693C9.33398 33.6148 11.7218 36.0026 14.6673 36.0026ZM14.6673 28.0026C16.1401 28.0026 17.334 29.1965 17.334 30.6693C17.334 32.142 16.1401 33.3359 14.6673 33.3359C13.1946 33.3359 12.0007 32.142 12.0007 30.6693C12.0007 29.1965 13.1946 28.0026 14.6673 28.0026Z" fill-rule="evenodd"  fill="#FFFFFF" >
</path>
<path d="M18.6667 14.6693L18.6667 27.3359C18.6667 27.4235 18.6581 27.5102 18.641 27.5961C18.624 27.6819 18.5987 27.7653 18.5652 27.8462C18.5317 27.9271 18.4906 28.0039 18.442 28.0767C18.3933 28.1495 18.338 28.2169 18.2761 28.2787C18.2142 28.3407 18.1469 28.396 18.0741 28.4446C18.0013 28.4932 17.9245 28.5343 17.8436 28.5678C17.7627 28.6013 17.6793 28.6266 17.5935 28.6437C17.5076 28.6607 17.4209 28.6693 17.3333 28.6693C17.2458 28.6693 17.1591 28.6607 17.0732 28.6437C16.9873 28.6266 16.904 28.6013 16.8231 28.5678C16.7422 28.5343 16.6654 28.4932 16.5926 28.4446C16.5198 28.3959 16.4524 28.3406 16.3905 28.2787C16.3286 28.2169 16.2733 28.1495 16.2247 28.0767C16.1761 28.0039 16.135 27.9271 16.1015 27.8462C16.068 27.7653 16.0427 27.6819 16.0256 27.5961C16.0085 27.5102 16 27.4235 16 27.3359L16 14.6693C16 14.5817 16.0085 14.495 16.0256 14.4092C16.0427 14.3233 16.068 14.2399 16.1015 14.159C16.135 14.0781 16.1761 14.0013 16.2247 13.9285C16.2733 13.8557 16.3286 13.7884 16.3905 13.7265C16.4524 13.6646 16.5198 13.6093 16.5926 13.5606C16.6654 13.512 16.7422 13.4709 16.8231 13.4374C16.904 13.4039 16.9873 13.3786 17.0732 13.3616C17.1591 13.3445 17.2458 13.3359 17.3333 13.3359C17.4209 13.3359 17.5076 13.3445 17.5935 13.3616C17.6793 13.3786 17.7627 13.4039 17.8436 13.4374C17.9245 13.4709 18.0013 13.512 18.0741 13.5606C18.1469 13.6093 18.2142 13.6646 18.2761 13.7265C18.338 13.7884 18.3933 13.8557 18.442 13.9285C18.4906 14.0013 18.5317 14.0781 18.5652 14.159C18.5987 14.2399 18.624 14.3233 18.641 14.4092C18.6581 14.495 18.6667 14.5817 18.6667 14.6693Z" fill-rule="evenodd"  fill="#FFFFFF" >
</path>
<defs>
<linearGradient id="linear_fill_74_102" x1="0" y1="24" x2="48" y2="24" gradientUnits="userSpaceOnUse">
<stop offset="0" stop-color="#9EE2FF"  />
<stop offset="1" stop-color="#3C98FD"  />
</linearGradient>
</defs>
</svg>
