<svg xmlns="http://www.w3.org/2000/svg" xmlns:xlink="http://www.w3.org/1999/xlink" width="48" height="48" viewBox="0 0 48 48" fill="none">
<path d="M48 24C48 37.2548 37.2548 48 24 48C10.7452 48 0 37.2548 0 24C0 10.7452 10.7452 0 24 0C37.2548 0 48 10.7452 48 24Z"   fill="url(#linear_fill_74_88)" >
</path>
<path d="M13.3337 28.151L18.667 28.151L18.667 25.4844L13.3337 25.4844C11.8609 25.4844 10.667 26.6783 10.667 28.151L10.667 37.4844L13.3337 37.4844L13.3337 28.151Z" fill-rule="evenodd"  fill="#FFFFFF" >
</path>
<path d="M34.6663 25.4844L29.333 25.4844L29.333 28.151L34.6663 28.151L34.6663 37.4844L37.333 37.4844L37.333 28.151C37.333 26.6783 36.1391 25.4844 34.6663 25.4844Z" fill-rule="evenodd"  fill="#FFFFFF" >
</path>
<path d="M21.9313 22.8125C20.2746 20.9038 19.6056 19.4955 19.9243 18.5874C20.1101 18.058 20.6383 17.3699 21.509 16.5234C21.8589 16.1832 22.1238 15.9175 22.3038 15.7263C22.7753 15.2253 23.3405 14.6512 23.9995 14.0038C24.6585 14.6512 25.2238 15.2254 25.6953 15.7263C25.8752 15.9175 26.1401 16.1832 26.49 16.5234C27.3607 17.37 27.8889 18.058 28.0747 18.5874C28.3935 19.4955 27.7245 20.9038 26.0677 22.8125L21.9313 22.8125ZM17.4081 17.7043C16.7144 19.6808 17.6939 22.1271 20.3465 25.0431C20.6139 25.3273 20.9427 25.4727 21.3328 25.4792L26.6662 25.4792C26.8962 25.4792 27.1197 25.4198 27.3164 25.3099C27.314 25.3152 27.3186 25.3152 27.3287 25.3108C27.3734 25.291 27.5261 25.182 27.6525 25.0431C30.3052 22.1271 31.2847 19.6808 30.5909 17.7043C30.2667 16.7804 29.5193 15.7494 28.3489 14.6115C28.0273 14.2988 27.79 14.0612 27.6371 13.8987C26.9275 13.1448 26.0228 12.2399 24.9229 11.184L24.9229 11.184C24.6131 10.8866 24.1955 10.7678 23.7996 10.8275C23.8003 10.8175 23.7891 10.8125 23.7687 10.8125C23.6668 10.8125 23.3341 10.9363 23.0761 11.184C21.9764 12.2397 21.0716 13.1446 20.3619 13.8987C20.209 14.0612 19.9717 14.2988 19.6501 14.6115C18.4797 15.7494 17.7323 16.7804 17.4081 17.7043Z" fill-rule="evenodd"  fill="#FFFFFF" >
</path>
<path d="M10.6663 36.1484L37.333 36.1484C37.4206 36.1484 37.5073 36.157 37.5931 36.1741C37.679 36.1911 37.7624 36.2164 37.8433 36.2499C37.9242 36.2834 38.001 36.3245 38.0738 36.3731C38.1466 36.4218 38.2139 36.4771 38.2758 36.539C38.3377 36.6009 38.393 36.6682 38.4417 36.741C38.4903 36.8138 38.5314 36.8906 38.5649 36.9715C38.5984 37.0524 38.6237 37.1358 38.6407 37.2216C38.6578 37.3075 38.6663 37.3942 38.6663 37.4818C38.6663 37.5693 38.6578 37.656 38.6407 37.7419C38.6237 37.8278 38.5984 37.9111 38.5649 37.992C38.5314 38.0729 38.4903 38.1497 38.4417 38.2225C38.393 38.2953 38.3377 38.3627 38.2758 38.4246C38.2139 38.4865 38.1466 38.5418 38.0738 38.5904C38.001 38.639 37.9242 38.6801 37.8433 38.7136C37.7624 38.7471 37.679 38.7724 37.5931 38.7895C37.5073 38.8066 37.4206 38.8151 37.333 38.8151L10.6663 38.8151C10.5788 38.8151 10.4921 38.8066 10.4062 38.7895C10.3204 38.7724 10.237 38.7471 10.1561 38.7136C10.0752 38.6801 9.99837 38.639 9.92558 38.5904C9.85279 38.5418 9.78544 38.4865 9.72353 38.4246C9.66163 38.3627 9.60635 38.2953 9.55772 38.2225C9.50908 38.1497 9.46801 38.0729 9.4345 37.992C9.401 37.9111 9.37571 37.8278 9.35863 37.7419C9.34155 37.656 9.33301 37.5693 9.33301 37.4818C9.33301 37.3942 9.34155 37.3075 9.35863 37.2216C9.37571 37.1358 9.401 37.0524 9.4345 36.9715C9.46801 36.8906 9.50908 36.8138 9.55771 36.741C9.60635 36.6682 9.66163 36.6009 9.72353 36.539C9.78544 36.4771 9.85279 36.4218 9.92558 36.3731C9.99837 36.3245 10.0752 36.2834 10.1561 36.2499C10.237 36.2164 10.3204 36.1911 10.4062 36.1741C10.4921 36.157 10.5788 36.1484 10.6663 36.1484Z" fill-rule="evenodd"  fill="#FFFFFF" >
</path>
<path d="M23.9997 22.8125L18.6663 22.8125C18.4899 22.8125 18.3202 22.8462 18.1571 22.9136C17.994 22.981 17.85 23.0769 17.7251 23.2015C17.724 23.2025 17.723 23.2035 17.722 23.2045C17.5975 23.3295 17.5015 23.4735 17.4341 23.6366C17.3667 23.7996 17.333 23.9694 17.333 24.1458L17.333 37.4792C17.333 38.2156 17.93 38.8125 18.6663 38.8125L29.333 38.8125C30.0694 38.8125 30.6663 38.2156 30.6663 37.4792L30.6663 24.1458C30.6663 23.4095 30.0694 22.8125 29.333 22.8125L23.9997 22.8125ZM19.9997 25.4792L19.9997 36.1458L27.9997 36.1458L27.9997 25.4792L19.9997 25.4792Z" fill-rule="evenodd"  fill="#FFFFFF" >
</path>
<path d="M25.3337 30.8177L25.3337 37.4844C25.3337 37.5719 25.3251 37.6586 25.308 37.7445C25.291 37.8304 25.2657 37.9137 25.2322 37.9946C25.1987 38.0755 25.1576 38.1523 25.109 38.2251C25.0603 38.2979 25.005 38.3653 24.9431 38.4272C24.8812 38.4891 24.8139 38.5444 24.7411 38.593C24.6683 38.6416 24.5915 38.6827 24.5106 38.7162C24.4297 38.7497 24.3463 38.775 24.2604 38.7921C24.1746 38.8092 24.0879 38.8177 24.0003 38.8177C23.9128 38.8177 23.8261 38.8092 23.7402 38.7921C23.6543 38.775 23.571 38.7497 23.4901 38.7162C23.4092 38.6827 23.3324 38.6416 23.2596 38.593C23.1868 38.5444 23.1194 38.4891 23.0575 38.4272C22.9956 38.3653 22.9403 38.2979 22.8917 38.2251C22.8431 38.1523 22.802 38.0755 22.7685 37.9946C22.735 37.9137 22.7097 37.8304 22.6926 37.7445C22.6755 37.6586 22.667 37.5719 22.667 37.4844L22.667 30.8177C22.667 30.7302 22.6755 30.6435 22.6926 30.5576C22.7097 30.4717 22.735 30.3883 22.7685 30.3075C22.802 30.2266 22.8431 30.1497 22.8917 30.0769C22.9403 30.0042 22.9956 29.9368 23.0575 29.8749C23.1194 29.813 23.1868 29.7577 23.2596 29.7091C23.3324 29.6604 23.4092 29.6194 23.4901 29.5859C23.571 29.5524 23.6543 29.5271 23.7402 29.51C23.8261 29.4929 23.9128 29.4844 24.0003 29.4844C24.0879 29.4844 24.1746 29.4929 24.2604 29.51C24.3463 29.5271 24.4297 29.5524 24.5106 29.5859C24.5915 29.6194 24.6683 29.6604 24.7411 29.7091C24.8139 29.7577 24.8812 29.813 24.9431 29.8749C25.005 29.9368 25.0603 30.0042 25.109 30.0769C25.1576 30.1497 25.1987 30.2266 25.2322 30.3075C25.2657 30.3883 25.291 30.4717 25.308 30.5576C25.3251 30.6435 25.3337 30.7302 25.3337 30.8177Z" fill-rule="evenodd"  fill="#FFFFFF" >
</path>
<path d="M25.3337 10.8177L25.3337 12.8177C25.3337 12.9053 25.3251 12.992 25.308 13.0778C25.291 13.1637 25.2657 13.2471 25.2322 13.3279C25.1987 13.4088 25.1576 13.4857 25.109 13.5585C25.0603 13.6313 25.005 13.6986 24.9431 13.7605C24.8812 13.8224 24.8139 13.8777 24.7411 13.9263C24.6683 13.975 24.5915 14.016 24.5106 14.0495C24.4297 14.083 24.3463 14.1083 24.2604 14.1254C24.1746 14.1425 24.0879 14.151 24.0003 14.151C23.9128 14.151 23.8261 14.1425 23.7402 14.1254C23.6543 14.1083 23.571 14.083 23.4901 14.0495C23.4092 14.016 23.3324 13.975 23.2596 13.9263C23.1868 13.8777 23.1194 13.8224 23.0575 13.7605C22.9956 13.6986 22.9403 13.6313 22.8917 13.5585C22.8431 13.4857 22.802 13.4088 22.7685 13.3279C22.735 13.2471 22.7097 13.1637 22.6926 13.0778C22.6755 12.992 22.667 12.9053 22.667 12.8177L22.667 10.8177C22.667 10.7302 22.6755 10.6435 22.6926 10.5576C22.7097 10.4717 22.735 10.3883 22.7685 10.3075C22.802 10.2266 22.8431 10.1497 22.8917 10.0769C22.9403 10.0042 22.9956 9.9368 23.0575 9.8749C23.1194 9.81299 23.1868 9.75772 23.2596 9.70908C23.3324 9.66044 23.4092 9.61937 23.4901 9.58587C23.571 9.55237 23.6543 9.52707 23.7402 9.51C23.8261 9.49292 23.9128 9.48438 24.0003 9.48438C24.0879 9.48438 24.1746 9.49292 24.2604 9.51C24.3463 9.52707 24.4297 9.55237 24.5106 9.58587C24.5915 9.61937 24.6683 9.66044 24.7411 9.70908C24.8139 9.75772 24.8812 9.81299 24.9431 9.8749C25.005 9.9368 25.0603 10.0042 25.109 10.0769C25.1576 10.1497 25.1987 10.2266 25.2322 10.3075C25.2657 10.3883 25.291 10.4717 25.308 10.5576C25.3251 10.6435 25.3337 10.7302 25.3337 10.8177Z" fill-rule="evenodd"  fill="#FFFFFF" >
</path>
<path d="M15.9997 26.8125C15.9997 26.9 15.9911 26.9868 15.9741 27.0726C15.957 27.1585 15.9317 27.2419 15.8982 27.3227C15.8647 27.4036 15.8236 27.4805 15.775 27.5533C15.7263 27.6261 15.6711 27.6934 15.6091 27.7553C15.5472 27.8172 15.4799 27.8725 15.4071 27.9211C15.3343 27.9698 15.2575 28.0108 15.1766 28.0443C15.0957 28.0778 15.0123 28.1031 14.9265 28.1202C14.8406 28.1373 14.7539 28.1458 14.6663 28.1458C14.5788 28.1458 14.4921 28.1373 14.4062 28.1202C14.3204 28.1031 14.237 28.0778 14.1561 28.0443C14.0752 28.0108 13.9984 27.9698 13.9256 27.9211C13.8528 27.8725 13.7854 27.8172 13.7235 27.7553C13.6616 27.6934 13.6064 27.6261 13.5577 27.5533C13.5091 27.4805 13.468 27.4036 13.4345 27.3227C13.401 27.2419 13.3757 27.1585 13.3586 27.0726C13.3415 26.9868 13.333 26.9 13.333 26.8125L13.333 24.1458C13.333 24.0583 13.3415 23.9716 13.3586 23.8857C13.3757 23.7998 13.401 23.7165 13.4345 23.6356C13.468 23.5547 13.5091 23.4779 13.5577 23.4051C13.6064 23.3323 13.6616 23.2649 13.7235 23.203C13.7854 23.1411 13.8528 23.0858 13.9256 23.0372C13.9984 22.9886 14.0752 22.9475 14.1561 22.914C14.237 22.8805 14.3204 22.8552 14.4062 22.8381C14.4921 22.821 14.5788 22.8125 14.6663 22.8125C14.7539 22.8125 14.8406 22.821 14.9265 22.8381C15.0123 22.8552 15.0957 22.8805 15.1766 22.914C15.2575 22.9475 15.3343 22.9886 15.4071 23.0372C15.4799 23.0858 15.5472 23.1411 15.6091 23.203C15.6711 23.2649 15.7263 23.3323 15.775 23.4051C15.8236 23.4779 15.8647 23.5547 15.8982 23.6356C15.9317 23.7165 15.957 23.7998 15.9741 23.8857C15.9911 23.9716 15.9997 24.0583 15.9997 24.1458L15.9997 26.8125Z" fill-rule="evenodd"  fill="#FFFFFF" >
</path>
<path d="M34.6667 26.8125C34.6667 26.9 34.6581 26.9868 34.641 27.0726C34.624 27.1585 34.5987 27.2419 34.5652 27.3227C34.5317 27.4036 34.4906 27.4805 34.442 27.5533C34.3933 27.6261 34.338 27.6934 34.2761 27.7553C34.2142 27.8172 34.1469 27.8725 34.0741 27.9211C34.0013 27.9698 33.9245 28.0108 33.8436 28.0443C33.7627 28.0778 33.6793 28.1031 33.5935 28.1202C33.5076 28.1373 33.4209 28.1458 33.3333 28.1458C33.2458 28.1458 33.1591 28.1373 33.0732 28.1202C32.9873 28.1031 32.904 28.0778 32.8231 28.0443C32.7422 28.0108 32.6654 27.9698 32.5926 27.9211C32.5198 27.8725 32.4524 27.8172 32.3905 27.7553C32.3286 27.6934 32.2733 27.6261 32.2247 27.5533C32.1761 27.4805 32.135 27.4036 32.1015 27.3227C32.068 27.2419 32.0427 27.1585 32.0256 27.0726C32.0085 26.9868 32 26.9 32 26.8125L32 24.1458C32 24.0583 32.0085 23.9716 32.0256 23.8857C32.0427 23.7998 32.068 23.7165 32.1015 23.6356C32.135 23.5547 32.1761 23.4779 32.2247 23.4051C32.2733 23.3323 32.3286 23.2649 32.3905 23.203C32.4524 23.1411 32.5198 23.0858 32.5926 23.0372C32.6654 22.9886 32.7422 22.9475 32.8231 22.914C32.904 22.8805 32.9873 22.8552 33.0732 22.8381C33.1591 22.821 33.2458 22.8125 33.3333 22.8125C33.4209 22.8125 33.5076 22.821 33.5935 22.8381C33.6793 22.8552 33.7627 22.8805 33.8436 22.914C33.9245 22.9475 34.0013 22.9886 34.0741 23.0372C34.1469 23.0858 34.2142 23.1411 34.2761 23.203C34.338 23.2649 34.3933 23.3323 34.442 23.4051C34.4906 23.4779 34.5317 23.5547 34.5652 23.6356C34.5987 23.7165 34.624 23.7998 34.641 23.8857C34.6581 23.9716 34.6667 24.0583 34.6667 24.1458L34.6667 26.8125Z" fill-rule="evenodd"  fill="#FFFFFF" >
</path>
<path d="M21.3333 36.1484L26.6667 36.1484C26.7542 36.1484 26.8409 36.157 26.9268 36.1741C27.0127 36.1911 27.096 36.2164 27.1769 36.2499C27.2578 36.2834 27.3346 36.3245 27.4074 36.3731C27.4802 36.4218 27.5476 36.4771 27.6095 36.539C27.6714 36.6009 27.7267 36.6682 27.7753 36.741C27.8239 36.8138 27.865 36.8906 27.8985 36.9715C27.932 37.0524 27.9573 37.1358 27.9744 37.2216C27.9915 37.3075 28 37.3942 28 37.4818C28 37.5693 27.9915 37.656 27.9744 37.7419C27.9573 37.8278 27.932 37.9111 27.8985 37.992C27.865 38.0729 27.8239 38.1497 27.7753 38.2225C27.7267 38.2953 27.6714 38.3627 27.6095 38.4246C27.5476 38.4865 27.4802 38.5418 27.4074 38.5904C27.3346 38.639 27.2578 38.6801 27.1769 38.7136C27.096 38.7471 27.0127 38.7724 26.9268 38.7895C26.8409 38.8066 26.7542 38.8151 26.6667 38.8151L21.3333 38.8151C21.2458 38.8151 21.1591 38.8066 21.0732 38.7895C20.9873 38.7724 20.904 38.7471 20.8231 38.7136C20.7422 38.6801 20.6654 38.639 20.5926 38.5904C20.5198 38.5418 20.4524 38.4865 20.3905 38.4246C20.3286 38.3627 20.2733 38.2953 20.2247 38.2225C20.1761 38.1497 20.135 38.0729 20.1015 37.992C20.068 37.9111 20.0427 37.8278 20.0256 37.7419C20.0085 37.656 20 37.5693 20 37.4818C20 37.3942 20.0085 37.3075 20.0256 37.2216C20.0427 37.1358 20.068 37.0524 20.1015 36.9715C20.135 36.8906 20.1761 36.8138 20.2247 36.741C20.2733 36.6682 20.3286 36.6009 20.3905 36.539C20.4524 36.4771 20.5198 36.4218 20.5926 36.3731C20.6654 36.3245 20.7422 36.2834 20.8231 36.2499C20.904 36.2164 20.9873 36.1911 21.0732 36.1741C21.1591 36.157 21.2458 36.1484 21.3333 36.1484Z" fill-rule="evenodd"  fill="#FFFFFF" >
</path>
<defs>
<linearGradient id="linear_fill_74_88" x1="0" y1="24" x2="48" y2="24" gradientUnits="userSpaceOnUse">
<stop offset="0" stop-color="#FFC3A3"  />
<stop offset="0.9444" stop-color="#FB6740"  />
<stop offset="1" stop-color="#FB623A"  />
</linearGradient>
</defs>
</svg>
