<svg xmlns="http://www.w3.org/2000/svg" xmlns:xlink="http://www.w3.org/1999/xlink" width="48" height="48" viewBox="0 0 48 48" fill="none">
<circle cx="24" cy="24" r="24"   fill="url(#linear_fill_63_49)" >
</circle>
<path d="M11.9997 36L25.333 36L25.333 33.3333L11.9997 33.3333L11.9997 14.6667L35.9997 14.6667L35.9997 25.3333L38.6663 25.3333L38.6663 14.6667C38.6663 12.8889 37.7775 12 35.9997 12L11.9997 12C10.2219 12 9.33301 12.8889 9.33301 14.6667L9.33301 33.3333C9.33301 35.1111 10.2219 36 11.9997 36Z" fill-rule="evenodd"  fill="#FFFFFF" >
</path>
<path d="M14.7388 27.4472C15.4486 25.5777 15.4786 23.2685 15.4786 23.2685L15.4786 20.1894C15.4786 19.9295 15.6635 19.7646 15.6635 19.7646C15.8485 19.5996 16.0984 19.5996 16.0984 19.5996L22.3864 19.5996C22.8463 19.5996 23.0362 19.7796 23.0362 19.7796C23.2062 19.9395 23.2062 20.3194 23.2062 20.3194L23.2062 21.589C23.2062 22.0388 23.0412 22.2038 23.0412 22.2038C22.8763 22.3687 22.4464 22.3687 22.4464 22.3687L20.557 22.3687L20.557 23.0785L23.4461 23.0785C23.676 23.0885 23.776 23.2635 23.776 23.2635C23.876 23.4384 23.846 23.6483 23.846 23.6483C23.806 24.0182 23.4461 24.0482 23.4461 24.0482L20.557 24.0482L20.557 24.798L22.3165 24.798C22.7963 24.798 22.9663 24.9629 22.9663 24.9629C23.1362 25.1279 23.1362 25.6377 23.1362 25.6377L23.1362 27.977C23.1162 28.2069 22.8663 28.2869 22.8663 28.2869C22.6364 28.3769 22.3664 28.3169 22.3664 28.3169C22.0665 28.2369 22.0365 27.977 22.0365 27.977L22.0365 27.897L18.0178 27.897L18.0178 27.977C17.9978 28.2069 17.7479 28.2869 17.7479 28.2869C17.518 28.3769 17.258 28.3169 17.258 28.3169C16.9481 28.2369 16.9181 27.977 16.9181 27.977L16.9181 25.6177C16.9181 25.1279 17.0881 24.9629 17.0881 24.9629C17.258 24.798 17.7379 24.798 17.7379 24.798L19.3474 24.798L19.3474 24.0482L16.6082 24.0482C16.4983 26.1676 15.9085 27.7771 15.9085 27.7771C15.6885 28.3469 15.0487 28.1769 15.0487 28.1769C14.5389 27.977 14.7388 27.4472 14.7388 27.4472ZM16.6482 21.3591L21.9166 21.3591C22.1165 21.3591 22.1165 21.1391 22.1165 21.1391L22.1165 20.8492C22.1265 20.6593 21.9166 20.6593 21.9166 20.6593L16.8482 20.6593C16.7382 20.6593 16.6932 20.6993 16.6932 20.6993C16.6482 20.7393 16.6482 20.8692 16.6482 20.8692L16.6482 21.3591ZM16.6482 22.3687L16.6482 23.0785L19.3474 23.0785L19.3474 22.3687L16.6482 22.3687ZM22.0365 26.8473L22.0365 26.1076C22.0365 25.9476 21.9666 25.8776 21.9666 25.8776C21.8966 25.8077 21.7266 25.8077 21.7266 25.8077L18.3477 25.8077C18.1678 25.8077 18.0928 25.8876 18.0928 25.8876C18.0178 25.9676 18.0178 26.1376 18.0178 26.1376L18.0178 26.8473L22.0365 26.8473Z"   fill="#FFFFFF" >
</path>
<path d="M26.6663 20L31.9997 20C32.0872 20 32.1739 20.0085 32.2598 20.0256C32.3457 20.0427 32.429 20.068 32.5099 20.1015C32.5908 20.135 32.6676 20.1761 32.7404 20.2247C32.8132 20.2733 32.8806 20.3286 32.9425 20.3905C33.0044 20.4524 33.0597 20.5198 33.1083 20.5926C33.1569 20.6654 33.198 20.7422 33.2315 20.8231C33.265 20.904 33.2903 20.9873 33.3074 21.0732C33.3245 21.1591 33.333 21.2458 33.333 21.3333C33.333 21.4209 33.3245 21.5076 33.3074 21.5935C33.2903 21.6793 33.265 21.7627 33.2315 21.8436C33.198 21.9245 33.1569 22.0013 33.1083 22.0741C33.0597 22.1469 33.0044 22.2142 32.9425 22.2761C32.8806 22.338 32.8132 22.3933 32.7404 22.442C32.6676 22.4906 32.5908 22.5317 32.5099 22.5652C32.429 22.5987 32.3457 22.624 32.2598 22.641C32.1739 22.6581 32.0872 22.6667 31.9997 22.6667L26.6663 22.6667C26.5788 22.6667 26.4921 22.6581 26.4062 22.641C26.3204 22.624 26.237 22.5987 26.1561 22.5652C26.0752 22.5317 25.9984 22.4906 25.9256 22.442C25.8528 22.3933 25.7854 22.338 25.7235 22.2761C25.6616 22.2142 25.6064 22.1469 25.5577 22.0741C25.5091 22.0013 25.468 21.9245 25.4345 21.8436C25.401 21.7627 25.3757 21.6793 25.3586 21.5935C25.3415 21.5076 25.333 21.4209 25.333 21.3333C25.333 21.2458 25.3415 21.1591 25.3586 21.0732C25.3757 20.9873 25.401 20.904 25.4345 20.8231C25.468 20.7422 25.5091 20.6654 25.5577 20.5926C25.6064 20.5198 25.6616 20.4524 25.7235 20.3905C25.7854 20.3286 25.8528 20.2733 25.9256 20.2247C25.9984 20.1761 26.0752 20.135 26.1561 20.1015C26.237 20.068 26.3204 20.0427 26.4062 20.0256C26.4921 20.0085 26.5788 20 26.6663 20Z" fill-rule="evenodd"  fill="#FFFFFF" >
</path>
<path d="M28.0003 25.334L32.0003 25.334C32.0879 25.334 32.1746 25.3425 32.2604 25.3596C32.3463 25.3767 32.4297 25.402 32.5106 25.4355C32.5915 25.469 32.6683 25.5101 32.7411 25.5587C32.8139 25.6073 32.8812 25.6626 32.9431 25.7245C33.005 25.7864 33.0603 25.8538 33.109 25.9266C33.1576 25.9994 33.1987 26.0762 33.2322 26.1571C33.2657 26.238 33.291 26.3213 33.308 26.4072C33.3251 26.4931 33.3337 26.5798 33.3337 26.6673C33.3337 26.7549 33.3251 26.8416 33.308 26.9274C33.291 27.0133 33.2657 27.0967 33.2322 27.1776C33.1987 27.2584 33.1576 27.3353 33.109 27.4081C33.0603 27.4809 33.005 27.5482 32.9431 27.6101C32.8812 27.672 32.8139 27.7273 32.7411 27.7759C32.6683 27.8246 32.5915 27.8657 32.5106 27.8992C32.4297 27.9327 32.3463 27.958 32.2604 27.975C32.1746 27.9921 32.0879 28.0007 32.0003 28.0007L28.0003 28.0007C27.9128 28.0007 27.8261 27.9921 27.7402 27.975C27.6543 27.958 27.571 27.9327 27.4901 27.8992C27.4092 27.8657 27.3324 27.8246 27.2596 27.7759C27.1868 27.7273 27.1194 27.672 27.0575 27.6101C26.9956 27.5482 26.9403 27.4809 26.8917 27.4081C26.8431 27.3353 26.802 27.2584 26.7685 27.1776C26.735 27.0967 26.7097 27.0133 26.6926 26.9274C26.6755 26.8416 26.667 26.7549 26.667 26.6673C26.667 26.5798 26.6755 26.4931 26.6926 26.4072C26.7097 26.3213 26.735 26.238 26.7685 26.1571C26.802 26.0762 26.8431 25.9994 26.8917 25.9266C26.9403 25.8538 26.9956 25.7864 27.0575 25.7245C27.1194 25.6626 27.1868 25.6073 27.2596 25.5587C27.3324 25.5101 27.4092 25.469 27.4901 25.4355C27.571 25.402 27.6543 25.3767 27.7402 25.3596C27.8261 25.3425 27.9128 25.334 28.0003 25.334Z" fill-rule="evenodd"  fill="#FFFFFF" >
</path>
<path d="M36.3905 28.3905L36.39 28.3911L32 32.7811L30.2761 31.0572C30.0349 30.8159 29.7015 30.6667 29.3333 30.6667L29.3312 30.6667L29.3307 30.6667C28.5955 30.6681 28 31.2645 28 32C28 32.3681 28.1491 32.7013 28.3903 32.9426L28.3906 32.9429L31.0572 35.6095C31.5779 36.1302 32.4221 36.1302 32.9428 35.6095L38.2756 30.2767L38.2761 30.2761C38.5174 30.0349 38.6667 29.7015 38.6667 29.3333C38.6667 28.9651 38.5174 28.6318 38.2761 28.3905C38.0349 28.1492 37.7015 28 37.3333 28C37.1565 28 36.9864 28.0338 36.8231 28.1015C36.6597 28.1692 36.5156 28.2655 36.3905 28.3905Z" fill-rule="evenodd"  fill="#FFFFFF" >
</path>
<defs>
<linearGradient id="linear_fill_63_49" x1="0" y1="24" x2="48" y2="24" gradientUnits="userSpaceOnUse">
<stop offset="0" stop-color="#FFE591"  />
<stop offset="1" stop-color="#FCB842"  />
</linearGradient>
</defs>
</svg>
