<svg xmlns="http://www.w3.org/2000/svg" xmlns:xlink="http://www.w3.org/1999/xlink" width="48" height="48" viewBox="0 0 48 48" fill="none">
<circle cx="24" cy="24" r="24"   fill="url(#linear_fill_63_61)" >
</circle>
<path d="M23.2351 10.907L9.90172 20.2404C9.87579 20.2585 9.85052 20.2776 9.82594 20.2976C9.74895 20.3601 9.6798 20.4303 9.61847 20.5082C9.55715 20.5862 9.50517 20.6699 9.46253 20.7594C9.4199 20.849 9.38765 20.9421 9.36579 21.0388C9.34394 21.1356 9.33301 21.2335 9.33301 21.3327L9.33301 35.9994C9.33301 36.7358 9.92996 37.3327 10.6663 37.3327L37.333 37.3327C38.0694 37.3327 38.6663 36.7358 38.6663 35.9994L38.6663 21.3327C38.6663 20.8976 38.4541 20.4899 38.0977 20.2404L24.7643 10.907C24.3051 10.5857 23.6942 10.5857 23.2351 10.907ZM11.9997 22.0269L11.9997 34.666L35.9997 34.666L35.9997 22.0269L23.9997 13.6269L11.9997 22.0269Z" fill-rule="evenodd"  fill="#FFFFFF" >
</path>
<path d="M28.7295 17.74C28.0085 17.3795 27.1875 17.1992 26.2665 17.1992C22.4443 17.1992 20.5332 19.1103 20.5332 22.9326C20.5332 23.4119 20.593 23.8729 20.7127 24.3154L16.9237 27.9897C16.33 28.5834 16.0332 29.2755 16.0332 30.0659C16.0332 30.8337 16.3133 31.5087 16.8735 32.0908C17.4013 32.7186 18.0934 33.0326 18.9499 33.0326C19.7736 33.0326 20.4823 32.7357 21.076 32.142L24.9572 28.2608C25.4287 28.3531 25.8207 28.3992 26.1332 28.3992C27.6991 28.3992 29.0399 27.8645 30.1557 26.7952C31.2963 25.7022 31.8665 24.3702 31.8665 22.7992C31.8665 22.2105 31.7548 21.5811 31.5315 20.9109C31.3747 20.4408 30.998 20.1352 30.8488 20.1C30.8224 20.0938 30.8031 20.096 30.7935 20.1074C30.3195 19.9051 29.7363 19.9772 29.3237 20.3897L28.3904 21.3231C28.3556 21.3579 28.3228 21.3945 28.292 21.433L28.2499 21.4326C28.1625 21.4326 28.0823 21.3961 28.0093 21.3231C27.9364 21.2501 27.8999 21.1866 27.8999 21.1326C27.8999 21.0785 27.9364 21.015 28.0093 20.942L29.076 19.8754C29.7195 19.2318 29.5435 18.147 28.7295 17.74ZM25.5011 19.9207C23.9669 20.1576 23.1999 21.1615 23.1999 22.9326C23.1999 23.3449 23.2863 23.724 23.4591 24.0696L23.4602 24.0719C23.5893 24.3313 23.6273 24.617 23.614 24.6954C23.6112 24.712 23.6061 24.7193 23.599 24.715C23.5865 25.0506 23.4476 25.3779 23.1947 25.6231L18.8093 29.8754C18.6823 30.0024 18.6823 30.1294 18.8093 30.2564C18.8267 30.2738 18.8436 30.2917 18.8477 30.2963L18.8484 30.2971C18.8689 30.3195 18.8887 30.3426 18.9077 30.3663L18.9499 30.3659C19.0372 30.3659 19.1174 30.3294 19.1904 30.2564L23.5904 25.8564C23.9216 25.5252 24.4022 25.3921 24.8566 25.5057C25.4615 25.6569 25.8871 25.7326 26.1332 25.7326C27.7049 25.7326 28.6725 25.1547 29.0359 23.9989C28.7914 24.0658 28.5294 24.0992 28.2499 24.0992C27.4261 24.0992 26.7174 23.8024 26.1237 23.2087C25.53 22.615 25.2332 21.923 25.2332 21.1326C25.2332 20.699 25.3225 20.2951 25.5011 19.9207Z" fill-rule="evenodd"  fill="#FFFFFF" >
</path>
<defs>
<linearGradient id="linear_fill_63_61" x1="0" y1="24" x2="48" y2="24" gradientUnits="userSpaceOnUse">
<stop offset="0" stop-color="#ACF1F2"  />
<stop offset="1" stop-color="#10CACE"  />
</linearGradient>
</defs>
</svg>
