<svg xmlns="http://www.w3.org/2000/svg" xmlns:xlink="http://www.w3.org/1999/xlink" width="48" height="48" viewBox="0 0 48 48" fill="none">
<circle cx="24" cy="24" r="24"   fill="url(#linear_fill_63_69)" >
</circle>
<path d="M16.9997 29.3333C17.9201 29.3333 18.6663 28.5871 18.6663 27.6667C18.6663 26.7462 17.9201 26 16.9997 26C16.0792 26 15.333 26.7462 15.333 27.6667C15.333 28.5871 16.0792 29.3333 16.9997 29.3333Z" fill-rule="evenodd"  fill="#FFFFFF" >
</path>
<path d="M30.9997 29.3333C31.9201 29.3333 32.6663 28.5871 32.6663 27.6667C32.6663 26.7462 31.9201 26 30.9997 26C30.0792 26 29.333 26.7462 29.333 27.6667C29.333 28.5871 30.0792 29.3333 30.9997 29.3333Z" fill-rule="evenodd"  fill="#FFFFFF" >
</path>
<path d="M9.33301 30.666C9.33301 32.507 10.8254 33.9993 12.6663 33.9993L12.722 33.9993C13.0393 35.8911 14.6846 37.3327 16.6665 37.3327C18.6485 37.3327 20.2938 35.8911 20.6111 33.9993L27.3883 33.9993C27.7059 35.8912 29.3521 37.3327 31.3341 37.3327C33.3166 37.3327 34.9623 35.8915 35.2798 33.9993L35.333 33.9993C37.1739 33.9993 38.6663 32.507 38.6663 30.666L38.6663 24.4714C38.6663 22.3168 37.7215 20.7461 35.8318 19.7593L34.4997 13.7942C34.0341 11.7088 32.7328 10.666 30.5959 10.666L17.4703 10.666C15.3538 10.666 14.0553 11.6967 13.5748 13.7579L12.1768 19.7555C10.2809 20.7417 9.33301 22.314 9.33301 24.4725L9.33301 30.666ZM14 31.3327L12.6663 31.3327C12.2982 31.3327 11.9997 31.0341 11.9997 30.666L11.9997 24.4725C11.9997 23.3733 12.4913 22.5781 13.4746 22.0869L13.9293 21.8598C14.2843 21.6824 14.5418 21.3562 14.6319 20.9697L16.1719 14.3633C16.332 13.6762 16.7649 13.3327 17.4703 13.3327L30.5959 13.3327C31.3082 13.3327 31.7419 13.6802 31.8971 14.3753L33.3671 20.9576C33.4546 21.349 33.7135 21.6803 34.0722 21.8596L34.5257 22.0863C35.5083 22.5777 35.9997 23.3727 35.9997 24.4714L35.9997 30.666C35.9997 31.0341 35.7011 31.3327 35.333 31.3327L34.0018 31.3327C33.2654 31.3327 32.6685 31.9296 32.6685 32.666L32.6685 33.3327C32.6685 34.0696 32.071 34.666 31.3341 34.666C30.5977 34.666 29.9997 34.0691 29.9997 33.3327L29.9997 32.666C29.9997 31.9296 29.4027 31.3327 28.6663 31.3327L19.333 31.3327C18.5966 31.3327 17.9997 31.9296 17.9997 32.666L17.9997 33.3329C17.9997 34.0692 17.4028 34.666 16.6665 34.666C15.9303 34.666 15.3334 34.0692 15.3334 33.3329L15.3334 32.666C15.3334 31.9296 14.7364 31.3327 14 31.3327Z" fill-rule="evenodd"  fill="#FFFFFF" >
</path>
<path d="M18.9957 21.334L29.0047 21.334L28.264 18.0007L19.7365 18.0007L18.9957 21.334ZM17.1333 17.4222L16.032 22.3781C15.9468 23.3353 16.3807 23.8761 17.3335 24.0007L30.6669 24.0007C31.5198 24.0007 32.1535 23.2108 31.9685 22.3781L30.8671 17.4221C30.5578 16.03 29.6901 15.334 28.264 15.334L19.7364 15.334C18.3103 15.334 17.4426 16.0301 17.1333 17.4222Z" fill-rule="evenodd"  fill="#FFFFFF" >
</path>
<defs>
<linearGradient id="linear_fill_63_69" x1="0" y1="24" x2="48" y2="24" gradientUnits="userSpaceOnUse">
<stop offset="0" stop-color="#9EE2FF"  />
<stop offset="1" stop-color="#3C98FD"  />
</linearGradient>
</defs>
</svg>
