<svg xmlns="http://www.w3.org/2000/svg" xmlns:xlink="http://www.w3.org/1999/xlink" width="48" height="48" viewBox="0 0 48 48" fill="none">
<circle cx="24" cy="24" r="24"   fill="url(#linear_fill_63_77)" >
</circle>
<path d="M31.3333 9.86719L16.6667 9.86719C14.8889 9.86719 14 10.7561 14 12.5339L14 31.2005C14 32.9783 14.8889 33.8672 16.6667 33.8672L31.3333 33.8672C33.1111 33.8672 34 32.9783 34 31.2005L34 12.5339C34 10.7561 33.1111 9.86719 31.3333 9.86719ZM16.6667 12.5339L16.6667 31.2005L31.3333 31.2005L31.3333 12.5339L16.6667 12.5339Z" fill-rule="evenodd"  fill="#FFFFFF" >
</path>
<path d="M10.2666 32.5326L10.2666 36.9326C10.2666 37.6689 10.8636 38.2659 11.5999 38.2659L36.3999 38.2659C37.1363 38.2659 37.7333 37.6689 37.7333 36.9326L37.7333 32.5326C37.7333 31.7962 37.1363 31.1992 36.3999 31.1992L11.5999 31.1992C10.8636 31.1992 10.2666 31.7962 10.2666 32.5326ZM12.9333 35.5992L12.9333 33.8659L35.0666 33.8659L35.0666 35.5992L12.9333 35.5992Z" fill-rule="evenodd"  fill="#FFFFFF" >
</path>
<path d="M25.0578 15.5895L25.0576 15.5897L19.7243 20.9231C18.8843 21.763 19.4792 23.1992 20.6671 23.1992L24.1148 23.1992L21.0581 26.2559L21.0576 26.2564C20.9326 26.3814 20.8362 26.5256 20.7686 26.689C20.7009 26.8523 20.6671 27.0224 20.6671 27.1992C20.6671 27.5674 20.8163 27.9007 21.0576 28.142C21.2989 28.3833 21.6322 28.5326 22.0004 28.5326C22.3686 28.5326 22.7019 28.3833 22.9432 28.142L22.9438 28.1414L28.2765 22.8087C29.1165 21.9687 28.5216 20.5326 27.3337 20.5326L23.886 20.5326L26.9427 17.4759L26.9432 17.4754C27.1845 17.2341 27.3337 16.9007 27.3337 16.5326C27.3337 16.1644 27.1845 15.831 26.9432 15.5897C26.7019 15.3485 26.3686 15.1992 26.0004 15.1992C25.6323 15.1992 25.2991 15.3484 25.0578 15.5895Z" fill-rule="evenodd"  fill="#FFFFFF" >
</path>
<defs>
<linearGradient id="linear_fill_63_77" x1="0" y1="24" x2="48" y2="24" gradientUnits="userSpaceOnUse">
<stop offset="0" stop-color="#FFC3A3"  />
<stop offset="0.9444" stop-color="#FB6740"  />
<stop offset="1" stop-color="#FB623A"  />
</linearGradient>
</defs>
</svg>
