<svg xmlns="http://www.w3.org/2000/svg" xmlns:xlink="http://www.w3.org/1999/xlink" width="48" height="48" viewBox="0 0 48 48" fill="none">
<circle cx="24" cy="24" r="24"   fill="url(#linear_fill_34_329)" >
</circle>
<path d="M33.3333 11.334L28.6667 11.334C27.9303 11.334 27.3333 11.9309 27.3333 12.6673L27.3333 13.334L20.6667 13.334L20.6667 12.6673C20.6667 11.9309 20.0697 11.334 19.3333 11.334L14.6667 11.334C12.8889 11.334 12 12.2229 12 14.0007L12 36.0007C12 37.7784 12.8889 38.6673 14.6667 38.6673L33.3333 38.6673C35.1111 38.6673 36 37.7784 36 36.0007L36 14.0007C36 12.2229 35.1111 11.334 33.3333 11.334ZM18 14.0007L14.6667 14.0007L14.6667 36.0007L33.3333 36.0007L33.3333 14.0007L30 14.0007L30 14.6673C30 15.4037 29.4031 16.0007 28.6667 16.0007L19.3333 16.0007C18.597 16.0007 18 15.4037 18 14.6673L18 14.0007Z" fill-rule="evenodd"  fill="#FFFFFF" >
</path>
<path d="M18 10.6673L18 14.6673C18 15.4037 18.597 16.0007 19.3333 16.0007L28.6667 16.0007C29.4031 16.0007 30 15.4037 30 14.6673L30 10.6673C30 9.93094 29.4031 9.33398 28.6667 9.33398L19.3333 9.33398C18.597 9.33398 18 9.93094 18 10.6673ZM20.6667 13.334L20.6667 12.0007L27.3333 12.0007L27.3333 13.334L20.6667 13.334Z" fill-rule="evenodd"  fill="#FFFFFF" >
</path>
<path d="M20 18.4004L28 18.4004C28.0876 18.4004 28.1743 18.4089 28.2601 18.426C28.346 18.4431 28.4294 18.4684 28.5102 18.5019C28.5911 18.5354 28.668 18.5765 28.7408 18.6251C28.8136 18.6737 28.8809 18.729 28.9428 18.7909C29.0047 18.8528 29.06 18.9202 29.1086 18.993C29.1573 19.0658 29.1983 19.1426 29.2318 19.2235C29.2653 19.3044 29.2906 19.3877 29.3077 19.4736C29.3248 19.5595 29.3333 19.6462 29.3333 19.7337C29.3333 19.8213 29.3248 19.908 29.3077 19.9938C29.2906 20.0797 29.2653 20.1631 29.2318 20.244C29.1983 20.3249 29.1573 20.4017 29.1086 20.4745C29.06 20.5473 29.0047 20.6146 28.9428 20.6765C28.8809 20.7384 28.8136 20.7937 28.7408 20.8424C28.668 20.891 28.5911 20.9321 28.5102 20.9656C28.4294 20.9991 28.346 21.0244 28.2601 21.0414C28.1743 21.0585 28.0876 21.0671 28 21.0671L20 21.0671C19.9125 21.0671 19.8258 21.0585 19.7399 21.0414C19.654 21.0244 19.5706 20.9991 19.4898 20.9656C19.4089 20.9321 19.332 20.891 19.2592 20.8424C19.1865 20.7937 19.1191 20.7384 19.0572 20.6765C18.9953 20.6146 18.94 20.5473 18.8914 20.4745C18.8427 20.4017 18.8017 20.3249 18.7682 20.244C18.7347 20.1631 18.7094 20.0797 18.6923 19.9938C18.6752 19.908 18.6667 19.8213 18.6667 19.7337C18.6667 19.6462 18.6752 19.5595 18.6923 19.4736C18.7094 19.3877 18.7347 19.3044 18.7682 19.2235C18.8017 19.1426 18.8427 19.0658 18.8914 18.993C18.94 18.9202 18.9953 18.8528 19.0572 18.7909C19.1191 18.729 19.1865 18.6737 19.2592 18.6251C19.332 18.5765 19.4089 18.5354 19.4898 18.5019C19.5706 18.4684 19.654 18.4431 19.7399 18.426C19.8258 18.4089 19.9125 18.4004 20 18.4004Z" fill-rule="evenodd"  fill="#FFFFFF" >
</path>
<path d="M20 24.8008L28 24.8008C28.0876 24.8008 28.1743 24.8093 28.2601 24.8264C28.346 24.8435 28.4294 24.8688 28.5102 24.9023C28.5911 24.9358 28.668 24.9769 28.7408 25.0255C28.8136 25.0741 28.8809 25.1294 28.9428 25.1913C29.0047 25.2532 29.06 25.3206 29.1086 25.3934C29.1573 25.4661 29.1983 25.543 29.2318 25.6239C29.2653 25.7048 29.2906 25.7881 29.3077 25.874C29.3248 25.9599 29.3333 26.0466 29.3333 26.1341C29.3333 26.2217 29.3248 26.3084 29.3077 26.3942C29.2906 26.4801 29.2653 26.5635 29.2318 26.6444C29.1983 26.7252 29.1573 26.8021 29.1086 26.8749C29.06 26.9477 29.0047 27.015 28.9428 27.0769C28.8809 27.1388 28.8136 27.1941 28.7408 27.2427C28.668 27.2914 28.5911 27.3325 28.5102 27.366C28.4294 27.3995 28.346 27.4247 28.2601 27.4418C28.1743 27.4589 28.0876 27.4674 28 27.4674L20 27.4674C19.9125 27.4674 19.8258 27.4589 19.7399 27.4418C19.654 27.4247 19.5706 27.3995 19.4898 27.366C19.4089 27.3325 19.332 27.2914 19.2592 27.2427C19.1865 27.1941 19.1191 27.1388 19.0572 27.0769C18.9953 27.015 18.94 26.9477 18.8914 26.8749C18.8427 26.8021 18.8017 26.7252 18.7682 26.6444C18.7347 26.5635 18.7094 26.4801 18.6923 26.3942C18.6752 26.3084 18.6667 26.2217 18.6667 26.1341C18.6667 26.0466 18.6752 25.9599 18.6923 25.874C18.7094 25.7881 18.7347 25.7048 18.7682 25.6239C18.8017 25.543 18.8427 25.4661 18.8914 25.3934C18.94 25.3206 18.9953 25.2532 19.0572 25.1913C19.1191 25.1294 19.1865 25.0741 19.2592 25.0255C19.332 24.9769 19.4089 24.9358 19.4898 24.9023C19.5706 24.8688 19.654 24.8435 19.7399 24.8264C19.8258 24.8093 19.9125 24.8008 20 24.8008Z" fill-rule="evenodd"  fill="#FFFFFF" >
</path>
<path d="M20 31.0664L28 31.0664C28.0876 31.0664 28.1743 31.0749 28.2601 31.092C28.346 31.1091 28.4294 31.1344 28.5102 31.1679C28.5911 31.2014 28.668 31.2425 28.7408 31.2911C28.8136 31.3398 28.8809 31.395 28.9428 31.4569C29.0047 31.5188 29.06 31.5862 29.1086 31.659C29.1573 31.7318 29.1983 31.8086 29.2318 31.8895C29.2653 31.9704 29.2906 32.0538 29.3077 32.1396C29.3248 32.2255 29.3333 32.3122 29.3333 32.3997C29.3333 32.4873 29.3248 32.574 29.3077 32.6599C29.2906 32.7457 29.2653 32.8291 29.2318 32.91C29.1983 32.9909 29.1573 33.0677 29.1086 33.1405C29.06 33.2133 29.0047 33.2806 28.9428 33.3425C28.8809 33.4045 28.8136 33.4597 28.7408 33.5084C28.668 33.557 28.5911 33.5981 28.5102 33.6316C28.4294 33.6651 28.346 33.6904 28.2601 33.7075C28.1743 33.7245 28.0876 33.7331 28 33.7331L20 33.7331C19.9125 33.7331 19.8258 33.7245 19.7399 33.7075C19.654 33.6904 19.5706 33.6651 19.4898 33.6316C19.4089 33.5981 19.332 33.557 19.2592 33.5084C19.1865 33.4597 19.1191 33.4045 19.0572 33.3425C18.9953 33.2806 18.94 33.2133 18.8914 33.1405C18.8427 33.0677 18.8017 32.9909 18.7682 32.91C18.7347 32.8291 18.7094 32.7457 18.6923 32.6599C18.6752 32.574 18.6667 32.4873 18.6667 32.3997C18.6667 32.3122 18.6752 32.2255 18.6923 32.1396C18.7094 32.0538 18.7347 31.9704 18.7682 31.8895C18.8017 31.8086 18.8427 31.7318 18.8914 31.659C18.94 31.5862 18.9953 31.5188 19.0572 31.4569C19.1191 31.395 19.1865 31.3398 19.2592 31.2911C19.332 31.2425 19.4089 31.2014 19.4898 31.1679C19.5706 31.1344 19.654 31.1091 19.7399 31.092C19.8258 31.0749 19.9125 31.0664 20 31.0664Z" fill-rule="evenodd"  fill="#FFFFFF" >
</path>
<defs>
<linearGradient id="linear_fill_34_329" x1="0" y1="24" x2="48" y2="24" gradientUnits="userSpaceOnUse">
<stop offset="0" stop-color="#FFE591"  />
<stop offset="1" stop-color="#FCB842"  />
</linearGradient>
</defs>
</svg>
