<svg xmlns="http://www.w3.org/2000/svg" xmlns:xlink="http://www.w3.org/1999/xlink" width="16" height="16" viewBox="0 0 16 16" fill="none">
<path d="M8.0013 7.33854C9.84225 7.33854 11.3346 5.84615 11.3346 4.00521C11.3346 2.16426 9.84225 0.671875 8.0013 0.671875C6.16036 0.671875 4.66797 2.16426 4.66797 4.00521C4.66797 5.84615 6.16036 7.33854 8.0013 7.33854ZM8.0013 2.00521C9.10587 2.00521 10.0013 2.90064 10.0013 4.00521C10.0013 5.10977 9.10587 6.00521 8.0013 6.00521C6.89674 6.00521 6.0013 5.10977 6.0013 4.00521C6.0013 2.90064 6.89674 2.00521 8.0013 2.00521Z" fill-rule="evenodd"  fill="#FF8D0E" >
</path>
<path d="M7.9987 9.33333C10.9442 9.33333 13.332 11.7211 13.332 14.6667C13.332 14.7104 13.3363 14.7538 13.3448 14.7967C13.3534 14.8397 13.366 14.8813 13.3828 14.9218C13.3995 14.9622 13.4201 15.0007 13.4444 15.037C13.4687 15.0734 13.4963 15.1071 13.5273 15.1381C13.5582 15.169 13.5919 15.1967 13.6283 15.221C13.6647 15.2453 13.7031 15.2658 13.7436 15.2826C13.784 15.2993 13.8257 15.312 13.8686 15.3205C13.9116 15.3291 13.9549 15.3333 13.9987 15.3333C14.0425 15.3333 14.0858 15.3291 14.1288 15.3205C14.1717 15.312 14.2134 15.2993 14.2538 15.2826C14.2943 15.2658 14.3327 15.2453 14.3691 15.221C14.4055 15.1967 14.4392 15.169 14.4701 15.1381C14.501 15.1071 14.5287 15.0734 14.553 15.037C14.5773 15.0007 14.5979 14.9622 14.6146 14.9218C14.6314 14.8813 14.644 14.8397 14.6526 14.7967C14.6611 14.7538 14.6654 14.7104 14.6654 14.6667C14.6654 10.9848 11.6806 8 7.9987 8C4.3168 8 1.33203 10.9848 1.33203 14.6667C1.33203 14.7104 1.3363 14.7538 1.34484 14.7967C1.35338 14.8397 1.36603 14.8813 1.38278 14.9218C1.39953 14.9622 1.42007 15.0007 1.44438 15.037C1.4687 15.0734 1.49634 15.1071 1.52729 15.1381C1.55825 15.169 1.59192 15.1967 1.62832 15.221C1.66471 15.2453 1.70313 15.2658 1.74358 15.2826C1.78402 15.2993 1.82571 15.312 1.86864 15.3205C1.91157 15.3291 1.95492 15.3333 1.9987 15.3333C2.04247 15.3333 2.08583 15.3291 2.12876 15.3205C2.17169 15.312 2.21338 15.2993 2.25382 15.2826C2.29426 15.2658 2.33268 15.2453 2.36908 15.221C2.40547 15.1967 2.43915 15.169 2.4701 15.1381C2.50106 15.1071 2.52869 15.0734 2.55301 15.037C2.57733 15.0007 2.59787 14.9622 2.61462 14.9218C2.63137 14.8813 2.64401 14.8397 2.65255 14.7967C2.66109 14.7538 2.66536 14.7104 2.66536 14.6667C2.66536 11.7211 5.05318 9.33333 7.9987 9.33333Z" fill-rule="evenodd"  fill="#FF8D0E" >
</path>
<path d="M9.52729 11.5234L9.52703 11.5237L7.33203 13.7187L6.4701 12.8567C6.34946 12.7361 6.18279 12.6615 5.9987 12.6615L5.99762 12.6615L5.99738 12.6615C5.6298 12.6622 5.33203 12.9604 5.33203 13.3281C5.33203 13.5122 5.4066 13.6788 5.52718 13.7994L5.52734 13.7996L6.86062 15.1329C7.12098 15.3932 7.54308 15.3932 7.80344 15.1329L10.4698 12.4665L10.4701 12.4662C10.5907 12.3456 10.6654 12.1789 10.6654 11.9948C10.6654 11.8107 10.5907 11.644 10.4701 11.5234C10.3495 11.4027 10.1828 11.3281 9.9987 11.3281C9.91029 11.3281 9.82525 11.345 9.74358 11.3789C9.6619 11.4127 9.58981 11.4609 9.52729 11.5234Z" fill-rule="evenodd"  fill="#FF8D0E" >
</path>
</svg>
