<svg xmlns="http://www.w3.org/2000/svg" xmlns:xlink="http://www.w3.org/1999/xlink" width="24" height="24" viewBox="0 0 24 24" fill="none">
<path d="M21 12C21 16.9706 16.9706 21 12 21C7.02944 21 3 16.9706 3 12C3 7.02944 7.02944 3 12 3C16.9706 3 21 7.02944 21 12ZM1 12C1 18.0751 5.92487 23 12 23C18.0751 23 23 18.0751 23 12C23 5.92487 18.0751 1 12 1C5.92487 1 1 5.92487 1 12Z" fill-rule="evenodd"  fill="#FF9F1C" >
</path>
<path d="M12.0002 18.5C14.0788 18.5 15.5436 17.6491 16.3946 15.9472C16.727 15.2823 16.2435 14.5 15.5002 14.5L8.50015 14.5C8.06257 14.5 7.71504 14.7711 7.57097 15.1297C7.55984 15.1288 7.54841 15.1378 7.5377 15.1552C7.47726 15.253 7.4395 15.6148 7.60572 15.9472C8.45665 17.6491 9.92146 18.5 12.0002 18.5Z" fill-rule="evenodd"  fill="#FF9F1C" >
</path>
<path d="M16.5 10L16.5 10.5C16.5 10.5657 16.4936 10.6307 16.4808 10.6951C16.468 10.7595 16.449 10.822 16.4239 10.8827C16.3988 10.9433 16.3679 11.001 16.3315 11.0556C16.295 11.1102 16.2535 11.1607 16.2071 11.2071C16.1607 11.2535 16.1102 11.295 16.0556 11.3315C16.001 11.368 15.9433 11.3988 15.8827 11.4239C15.822 11.449 15.7595 11.468 15.6951 11.4808C15.6307 11.4936 15.5657 11.5 15.5 11.5C15.4343 11.5 15.3693 11.4936 15.3049 11.4808C15.2405 11.468 15.178 11.449 15.1173 11.4239C15.0567 11.3988 14.999 11.368 14.9444 11.3315C14.8898 11.295 14.8393 11.2535 14.7929 11.2071C14.7465 11.1607 14.705 11.1102 14.6685 11.0556C14.6321 11.001 14.6012 10.9433 14.5761 10.8827C14.551 10.822 14.532 10.7595 14.5192 10.6951C14.5064 10.6307 14.5 10.5657 14.5 10.5L14.5 10C14.5 9.93434 14.5064 9.86931 14.5192 9.80491C14.532 9.74051 14.551 9.67798 14.5761 9.61732C14.6012 9.55665 14.6321 9.49902 14.6685 9.44443C14.705 9.38983 14.7465 9.33932 14.7929 9.29289C14.8393 9.24646 14.8898 9.20501 14.9444 9.16853C14.999 9.13205 15.0567 9.10125 15.1173 9.07612C15.178 9.05099 15.2405 9.03202 15.3049 9.01921C15.3693 9.0064 15.4343 9 15.5 9C15.5657 9 15.6307 9.0064 15.6951 9.01921C15.7595 9.03203 15.822 9.05099 15.8827 9.07612C15.9433 9.10125 16.001 9.13205 16.0556 9.16853C16.1102 9.20501 16.1607 9.24646 16.2071 9.29289C16.2535 9.33932 16.295 9.38983 16.3315 9.44443C16.3679 9.49902 16.3988 9.55665 16.4239 9.61732C16.449 9.67798 16.468 9.74051 16.4808 9.80491C16.4936 9.86931 16.5 9.93434 16.5 10Z" fill-rule="evenodd"  fill="#FF9F1C" >
</path>
<path d="M9.5 10L9.5 10.5C9.5 10.5657 9.4936 10.6307 9.48079 10.6951C9.46797 10.7595 9.44901 10.822 9.42388 10.8827C9.39875 10.9433 9.36795 11.001 9.33147 11.0556C9.29499 11.1102 9.25354 11.1607 9.20711 11.2071C9.16068 11.2535 9.11017 11.295 9.05557 11.3315C9.00098 11.368 8.94335 11.3988 8.88268 11.4239C8.82202 11.449 8.75949 11.468 8.69509 11.4808C8.63069 11.4936 8.56566 11.5 8.5 11.5C8.43434 11.5 8.36931 11.4936 8.30491 11.4808C8.24051 11.468 8.17798 11.449 8.11732 11.4239C8.05665 11.3988 7.99902 11.368 7.94443 11.3315C7.88983 11.295 7.83932 11.2535 7.79289 11.2071C7.74646 11.1607 7.70501 11.1102 7.66853 11.0556C7.63205 11.001 7.60125 10.9433 7.57612 10.8827C7.55099 10.822 7.53202 10.7595 7.51922 10.6951C7.5064 10.6307 7.5 10.5657 7.5 10.5L7.5 10C7.5 9.93434 7.5064 9.86931 7.51922 9.80491C7.53202 9.74051 7.55099 9.67798 7.57612 9.61732C7.60125 9.55665 7.63205 9.49902 7.66853 9.44443C7.70501 9.38983 7.74646 9.33932 7.79289 9.29289C7.83932 9.24646 7.88983 9.20501 7.94443 9.16853C7.99902 9.13205 8.05665 9.10125 8.11732 9.07612C8.17798 9.05099 8.24051 9.03202 8.30491 9.01921C8.36931 9.0064 8.43434 9 8.5 9C8.56566 9 8.63069 9.0064 8.69509 9.01921C8.75949 9.03203 8.82202 9.05099 8.88268 9.07612C8.94335 9.10125 9.00098 9.13205 9.05557 9.16853C9.11017 9.20501 9.16068 9.24646 9.20711 9.29289C9.25354 9.33932 9.29499 9.38983 9.33147 9.44443C9.36795 9.49902 9.39875 9.55665 9.42388 9.61732C9.44901 9.67798 9.46798 9.74051 9.48079 9.80491C9.4936 9.86931 9.5 9.93434 9.5 10Z" fill-rule="evenodd"  fill="#FF9F1C" >
</path>
</svg>
