<svg xmlns="http://www.w3.org/2000/svg" xmlns:xlink="http://www.w3.org/1999/xlink" width="24" height="24" viewBox="0 0 24 24" fill="none">
<path d="M21 12C21 16.9706 16.9706 21 12 21C7.02944 21 3 16.9706 3 12C3 7.02944 7.02944 3 12 3C16.9706 3 21 7.02944 21 12ZM1 12C1 18.0751 5.92487 23 12 23C18.0751 23 23 18.0751 23 12C23 5.92487 18.0751 1 12 1C5.92487 1 1 5.92487 1 12Z" fill-rule="evenodd"  fill="#FF9F1C" >
</path>
<path d="M13 8L13 16C13 16.0657 12.9936 16.1307 12.9808 16.1951C12.968 16.2595 12.949 16.322 12.9239 16.3827C12.8988 16.4433 12.8679 16.501 12.8315 16.5556C12.795 16.6102 12.7535 16.6607 12.7071 16.7071C12.6607 16.7535 12.6102 16.795 12.5556 16.8315C12.501 16.868 12.4433 16.8988 12.3827 16.9239C12.322 16.949 12.2595 16.968 12.1951 16.9808C12.1307 16.9936 12.0657 17 12 17C11.9343 17 11.8693 16.9936 11.8049 16.9808C11.7405 16.968 11.678 16.949 11.6173 16.9239C11.5567 16.8988 11.499 16.868 11.4444 16.8315C11.3898 16.795 11.3393 16.7535 11.2929 16.7071C11.2465 16.6607 11.205 16.6102 11.1685 16.5556C11.1321 16.501 11.1012 16.4433 11.0761 16.3827C11.051 16.322 11.032 16.2595 11.0192 16.1951C11.0064 16.1307 11 16.0657 11 16L11 8C11 7.93434 11.0064 7.86931 11.0192 7.80491C11.032 7.74051 11.051 7.67798 11.0761 7.61732C11.1012 7.55665 11.1321 7.49902 11.1685 7.44443C11.205 7.38983 11.2465 7.33932 11.2929 7.29289C11.3393 7.24646 11.3898 7.20501 11.4444 7.16853C11.499 7.13205 11.5567 7.10125 11.6173 7.07612C11.678 7.05099 11.7405 7.03202 11.8049 7.01922C11.8693 7.0064 11.9343 7 12 7C12.0657 7 12.1307 7.0064 12.1951 7.01922C12.2595 7.03202 12.322 7.05099 12.3827 7.07612C12.4433 7.10125 12.501 7.13205 12.5556 7.16853C12.6102 7.20501 12.6607 7.24646 12.7071 7.29289C12.7535 7.33932 12.795 7.38983 12.8315 7.44443C12.8679 7.49902 12.8988 7.55665 12.9239 7.61732C12.949 7.67798 12.968 7.74051 12.9808 7.80491C12.9936 7.86931 13 7.93434 13 8Z" fill-rule="evenodd"  fill="#FF9F1C" >
</path>
<path d="M8 11L16 11C16.0657 11 16.1307 11.0064 16.1951 11.0192C16.2595 11.032 16.322 11.051 16.3827 11.0761C16.4433 11.1012 16.501 11.1321 16.5556 11.1685C16.6102 11.205 16.6607 11.2465 16.7071 11.2929C16.7535 11.3393 16.795 11.3898 16.8315 11.4444C16.868 11.499 16.8988 11.5567 16.9239 11.6173C16.949 11.678 16.968 11.7405 16.9808 11.8049C16.9936 11.8693 17 11.9343 17 12C17 12.0657 16.9936 12.1307 16.9808 12.1951C16.968 12.2595 16.949 12.322 16.9239 12.3827C16.8988 12.4433 16.868 12.501 16.8315 12.5556C16.795 12.6102 16.7535 12.6607 16.7071 12.7071C16.6607 12.7535 16.6102 12.795 16.5556 12.8315C16.501 12.8679 16.4433 12.8988 16.3827 12.9239C16.322 12.949 16.2595 12.968 16.1951 12.9808C16.1307 12.9936 16.0657 13 16 13L8 13C7.93434 13 7.86931 12.9936 7.80491 12.9808C7.74051 12.968 7.67798 12.949 7.61732 12.9239C7.55665 12.8988 7.49902 12.8679 7.44443 12.8315C7.38983 12.795 7.33932 12.7535 7.29289 12.7071C7.24646 12.6607 7.20501 12.6102 7.16853 12.5556C7.13205 12.501 7.10125 12.4433 7.07612 12.3827C7.05099 12.322 7.03202 12.2595 7.01922 12.1951C7.0064 12.1307 7 12.0657 7 12C7 11.9343 7.0064 11.8693 7.01922 11.8049C7.03202 11.7405 7.05099 11.678 7.07612 11.6173C7.10125 11.5567 7.13205 11.499 7.16853 11.4444C7.20501 11.3898 7.24646 11.3393 7.29289 11.2929C7.33932 11.2465 7.38983 11.205 7.44443 11.1685C7.49902 11.1321 7.55665 11.1012 7.61732 11.0761C7.67798 11.051 7.74051 11.032 7.80491 11.0192C7.86931 11.0064 7.93434 11 8 11Z" fill-rule="evenodd"  fill="#FF9F1C" >
</path>
</svg>
