<svg xmlns="http://www.w3.org/2000/svg" xmlns:xlink="http://www.w3.org/1999/xlink" width="16" height="16" viewBox="0 0 16 16" fill="none">
<path d="M2.0013 14L8.66797 14L8.66797 12.6667L2.0013 12.6667L2.0013 3.33333L14.0013 3.33333L14.0013 8.66667L15.3346 8.66667L15.3346 3.33333C15.3346 2.44444 14.8902 2 14.0013 2L2.0013 2C1.11241 2 0.667969 2.44444 0.667969 3.33333L0.667969 12.6667C0.667969 13.5556 1.11241 14 2.0013 14Z" fill-rule="evenodd"  fill="#FF8D0E" >
</path>
<path d="M6.33464 7C6.33464 7.36819 6.03616 7.66667 5.66797 7.66667C5.29978 7.66667 5.0013 7.36819 5.0013 7C5.0013 6.63181 5.29978 6.33333 5.66797 6.33333C6.03616 6.33333 6.33464 6.63181 6.33464 7ZM3.66797 7C3.66797 8.10457 4.5634 9 5.66797 9C6.77254 9 7.66797 8.10457 7.66797 7C7.66797 5.89543 6.77254 5 5.66797 5C4.5634 5 3.66797 5.89543 3.66797 7Z" fill-rule="evenodd"  fill="#FF8D0E" >
</path>
<path d="M5.66667 9.00521C6.55556 9.00521 7 9.44965 7 10.3385C7 10.3823 7.00427 10.4257 7.01281 10.4686C7.02135 10.5115 7.034 10.5532 7.05075 10.5937C7.0675 10.6341 7.08803 10.6725 7.11235 10.7089C7.13667 10.7453 7.16431 10.779 7.19526 10.8099C7.22622 10.8409 7.25989 10.8685 7.29629 10.8929C7.33268 10.9172 7.3711 10.9377 7.41155 10.9545C7.45199 10.9712 7.49367 10.9839 7.53661 10.9924C7.57954 11.0009 7.62289 11.0052 7.66667 11.0052C7.71044 11.0052 7.75379 11.0009 7.79673 10.9924C7.83966 10.9839 7.88135 10.9712 7.92179 10.9545C7.96223 10.9377 8.00065 10.9172 8.03705 10.8929C8.07344 10.8685 8.10712 10.8409 8.13807 10.8099C8.16902 10.779 8.19666 10.7453 8.22098 10.7089C8.2453 10.6725 8.26584 10.6341 8.28259 10.5937C8.29934 10.5532 8.31198 10.5115 8.32052 10.4686C8.32906 10.4257 8.33333 10.3823 8.33333 10.3385C8.33333 8.56076 7.44444 7.67188 5.66667 7.67188C3.88889 7.67188 3 8.56076 3 10.3385C3 10.3823 3.00427 10.4257 3.01281 10.4686C3.02135 10.5115 3.034 10.5532 3.05075 10.5937C3.0675 10.6341 3.08803 10.6725 3.11235 10.7089C3.13667 10.7453 3.16431 10.779 3.19526 10.8099C3.22621 10.8409 3.25989 10.8685 3.29629 10.8929C3.33268 10.9172 3.3711 10.9377 3.41154 10.9545C3.45199 10.9712 3.49367 10.9839 3.53661 10.9924C3.57954 11.0009 3.62289 11.0052 3.66667 11.0052L3.66669 11.0052C3.85077 11.0052 4.01743 10.9306 4.13807 10.8099C4.25871 10.6893 4.33333 10.5226 4.33333 10.3385C4.33333 9.8941 4.44444 9.56076 4.66667 9.33854C4.88889 9.11632 5.22222 9.00521 5.66667 9.00521Z" fill-rule="evenodd"  fill="#FF8D0E" >
</path>
<path d="M9.33464 6L12.0013 6C12.0451 6 12.0884 6.00427 12.1314 6.01281C12.1743 6.02135 12.216 6.034 12.2564 6.05075C12.2969 6.0675 12.3353 6.08803 12.3717 6.11235C12.4081 6.13667 12.4418 6.16431 12.4727 6.19526C12.5037 6.22621 12.5313 6.25989 12.5556 6.29629C12.5799 6.33268 12.6005 6.3711 12.6172 6.41154C12.634 6.45199 12.6466 6.49367 12.6552 6.53661C12.6637 6.57954 12.668 6.62289 12.668 6.66667C12.668 6.71044 12.6637 6.75379 12.6552 6.79673C12.6466 6.83966 12.634 6.88135 12.6172 6.92179C12.6005 6.96223 12.5799 7.00065 12.5556 7.03705C12.5313 7.07344 12.5037 7.10712 12.4727 7.13807C12.4418 7.16902 12.4081 7.19666 12.3717 7.22098C12.3353 7.2453 12.2969 7.26583 12.2564 7.28259C12.216 7.29934 12.1743 7.31198 12.1314 7.32052C12.0884 7.32906 12.0451 7.33333 12.0013 7.33333L9.33464 7.33333C9.29086 7.33333 9.24751 7.32906 9.20458 7.32052C9.16164 7.31198 9.11996 7.29934 9.07951 7.28259C9.03907 7.26583 9.00065 7.2453 8.96426 7.22098C8.92786 7.19666 8.89418 7.16902 8.86323 7.13807C8.83228 7.10712 8.80464 7.07344 8.78032 7.03705C8.756 7.00065 8.73547 6.96223 8.71872 6.92179C8.70196 6.88135 8.68932 6.83966 8.68078 6.79673C8.67224 6.75379 8.66797 6.71044 8.66797 6.66667C8.66797 6.62289 8.67224 6.57954 8.68078 6.53661C8.68932 6.49367 8.70196 6.45199 8.71872 6.41154C8.73547 6.3711 8.756 6.33268 8.78032 6.29629C8.80464 6.25989 8.83228 6.22621 8.86323 6.19526C8.89418 6.16431 8.92786 6.13667 8.96426 6.11235C9.00065 6.08803 9.03907 6.0675 9.07951 6.05075C9.11996 6.034 9.16164 6.02135 9.20458 6.01281C9.24751 6.00427 9.29086 6 9.33464 6Z" fill-rule="evenodd"  fill="#FF8D0E" >
</path>
<path d="M9.9987 8.67188L11.9987 8.67188C12.0425 8.67188 12.0858 8.67614 12.1288 8.68468C12.1717 8.69322 12.2134 8.70587 12.2538 8.72262C12.2943 8.73937 12.3327 8.75991 12.3691 8.78423C12.4055 8.80855 12.4391 8.83618 12.4701 8.86714C12.5011 8.89809 12.5287 8.93176 12.553 8.96816C12.5773 9.00456 12.5979 9.04298 12.6146 9.08342C12.6314 9.12386 12.644 9.16555 12.6526 9.20848C12.6611 9.25141 12.6654 9.29477 12.6654 9.33854C12.6654 9.38232 12.6611 9.42567 12.6526 9.4686C12.644 9.51153 12.6314 9.55322 12.6146 9.59366C12.5979 9.63411 12.5773 9.67253 12.553 9.70892C12.5287 9.74532 12.5011 9.77899 12.4701 9.80995C12.4391 9.8409 12.4055 9.86854 12.3691 9.89285C12.3327 9.91717 12.2943 9.93771 12.2538 9.95446C12.2134 9.97121 12.1717 9.98386 12.1288 9.9924C12.0858 10.0009 12.0425 10.0052 11.9987 10.0052L9.9987 10.0052C9.95492 10.0052 9.91157 10.0009 9.86864 9.9924C9.8257 9.98386 9.78402 9.97121 9.74358 9.95446C9.70313 9.93771 9.66471 9.91717 9.62832 9.89285C9.59192 9.86854 9.55825 9.8409 9.52729 9.80995C9.49634 9.77899 9.4687 9.74532 9.44439 9.70892C9.42007 9.67253 9.39953 9.63411 9.38278 9.59366C9.36603 9.55322 9.35338 9.51153 9.34484 9.4686C9.3363 9.42567 9.33203 9.38232 9.33203 9.33854C9.33203 9.29477 9.3363 9.25141 9.34484 9.20848C9.35338 9.16555 9.36603 9.12386 9.38278 9.08342C9.39953 9.04298 9.42007 9.00456 9.44438 8.96816C9.4687 8.93176 9.49634 8.89809 9.52729 8.86714C9.55825 8.83618 9.59192 8.80855 9.62832 8.78423C9.66471 8.75991 9.70313 8.73937 9.74358 8.72262C9.78402 8.70587 9.8257 8.69322 9.86864 8.68468C9.91157 8.67614 9.95492 8.67188 9.9987 8.67188Z" fill-rule="evenodd"  fill="#FF8D0E" >
</path>
<path d="M14.1953 10.1953L14.195 10.1955L12 12.3905L11.1381 11.5286C11.0174 11.408 10.8508 11.3333 10.6667 11.3333L10.6656 11.3333L10.6654 11.3333C10.2978 11.334 10 11.6322 10 12C10 12.184 10.0746 12.3507 10.1952 12.4713L10.1953 12.4714L11.5286 13.8047C11.7889 14.0651 12.2111 14.0651 12.4714 13.8047L15.1378 11.1383L15.1381 11.1381C15.2587 11.0174 15.3333 10.8508 15.3333 10.6667C15.3333 10.4826 15.2587 10.3159 15.1381 10.1953C15.0174 10.0746 14.8508 10 14.6667 10C14.5783 10 14.4932 10.0169 14.4115 10.0507C14.3299 10.0846 14.2578 10.1327 14.1953 10.1953Z" fill-rule="evenodd"  fill="#FF8D0E" >
</path>
</svg>
