<svg xmlns="http://www.w3.org/2000/svg" xmlns:xlink="http://www.w3.org/1999/xlink" width="16" height="16" viewBox="0 0 16 16" fill="none">
<path d="M1.81193 2.45045L1.81193 2.45045C1.50977 2.55715 1.3498 2.77047 1.33203 3.09042L1.33203 6.68144C1.33203 8.71351 1.9262 10.5537 3.11453 12.2021C4.30286 13.8504 5.86098 14.9957 7.78888 15.6379C7.85727 15.6607 7.92843 15.6721 7.94692 15.6721C7.95116 15.6721 7.95262 15.6715 7.95065 15.6703C8.03796 15.6767 8.12622 15.6659 8.2103 15.6379C10.1377 14.9957 11.6954 13.8505 12.8834 12.2025C14.0714 10.5545 14.6654 8.71469 14.6654 6.68311L14.6654 3.09042C14.6654 2.79423 14.47 2.53356 14.1856 2.4505L8.1885 0.698619C8.06648 0.662975 7.93682 0.662961 7.8148 0.698572L1.81193 2.45045ZM2.66536 3.59033L2.66536 6.68144C2.66536 8.42649 3.17561 10.0068 4.1961 11.4223C5.17294 12.7773 6.44075 13.7365 7.99953 14.2997C9.55786 13.7365 10.8253 12.7775 11.8018 11.4228C12.8219 10.0076 13.332 8.42771 13.332 6.68311L13.332 3.5902L8.00148 2.03304L2.66536 3.59033Z" fill-rule="evenodd"  fill="#FF8D0E" >
</path>
<path d="M10.8606 5.52339L7.33203 9.05198L5.4701 7.19005C5.34946 7.06941 5.18279 6.99479 4.9987 6.99479C4.8146 6.99479 4.64793 7.06941 4.52729 7.19006C4.40665 7.3107 4.33203 7.47737 4.33203 7.66146C4.33203 7.8455 4.4066 8.01212 4.52718 8.13275L4.52729 8.13286L6.86062 10.4662C7.12098 10.7265 7.54308 10.7265 7.80344 10.4662L11.8031 6.46655L11.8034 6.4662C11.9241 6.34555 11.9987 6.17889 11.9987 5.99479C11.9987 5.8107 11.9241 5.64403 11.8034 5.52339C11.6828 5.40274 11.5161 5.32812 11.332 5.32812C11.2436 5.32812 11.1586 5.34504 11.0769 5.37887C10.9952 5.4127 10.9231 5.46088 10.8606 5.52339Z" fill-rule="evenodd"  fill="#FF8D0E" >
</path>
</svg>
