<svg xmlns="http://www.w3.org/2000/svg" xmlns:xlink="http://www.w3.org/1999/xlink" width="16" height="16" viewBox="0 0 16 16" fill="none">
<path d="M4.66732 12.0007C5.95598 12.0007 7.00065 10.956 7.00065 9.66732C7.00065 8.37865 5.95598 7.33398 4.66732 7.33398C3.37865 7.33398 2.33398 8.37865 2.33398 9.66732C2.33398 10.956 3.37865 12.0007 4.66732 12.0007ZM4.66732 8.66732C5.2196 8.66732 5.66732 9.11503 5.66732 9.66732C5.66732 10.2196 5.2196 10.6673 4.66732 10.6673C4.11503 10.6673 3.66732 10.2196 3.66732 9.66732C3.66732 9.11503 4.11503 8.66732 4.66732 8.66732Z" fill-rule="evenodd"  fill="#FF8D0E" >
</path>
<path d="M11.3333 12.0007C12.622 12.0007 13.6667 10.956 13.6667 9.66732C13.6667 8.37865 12.622 7.33398 11.3333 7.33398C10.0447 7.33398 9 8.37865 9 9.66732C9 10.956 10.0447 12.0007 11.3333 12.0007ZM11.3333 8.66732C11.8856 8.66732 12.3333 9.11503 12.3333 9.66732C12.3333 10.2196 11.8856 10.6673 11.3333 10.6673C10.781 10.6673 10.3333 10.2196 10.3333 9.66732C10.3333 9.11503 10.781 8.66732 11.3333 8.66732Z" fill-rule="evenodd"  fill="#FF8D0E" >
</path>
<path d="M7.99935 5.33268C9.28802 5.33268 10.3327 4.28802 10.3327 2.99935C10.3327 1.71068 9.28802 0.666016 7.99935 0.666016C6.71068 0.666016 5.66602 1.71068 5.66602 2.99935C5.66602 4.28802 6.71068 5.33268 7.99935 5.33268ZM7.99935 1.99935C8.55164 1.99935 8.99935 2.44706 8.99935 2.99935C8.99935 3.55164 8.55164 3.99935 7.99935 3.99935C7.44706 3.99935 6.99935 3.55164 6.99935 2.99935C6.99935 2.44706 7.44706 1.99935 7.99935 1.99935Z" fill-rule="evenodd"  fill="#FF8D0E" >
</path>
<path d="M4.66602 11.9993C6.13878 11.9993 7.33268 13.1933 7.33268 14.666C7.33268 14.7098 7.33695 14.7531 7.34549 14.7961C7.35403 14.839 7.36668 14.8807 7.38343 14.9211C7.40018 14.9616 7.42072 15 7.44504 15.0364C7.46936 15.0728 7.49699 15.1065 7.52794 15.1374C7.5589 15.1684 7.59257 15.196 7.62897 15.2203C7.66536 15.2446 7.70378 15.2652 7.74423 15.2819C7.78467 15.2987 7.82636 15.3113 7.86929 15.3199C7.91222 15.3284 7.95558 15.3327 7.99935 15.3327C8.04313 15.3327 8.08648 15.3284 8.12942 15.3199C8.17235 15.3113 8.21404 15.2987 8.25448 15.2819C8.29493 15.2652 8.33335 15.2446 8.36975 15.2203C8.40615 15.196 8.43982 15.1684 8.47075 15.1374C8.50168 15.1065 8.52933 15.0728 8.55368 15.0364C8.57799 15 8.59853 14.9616 8.61528 14.9211C8.63204 14.8807 8.64468 14.839 8.65322 14.7961C8.66175 14.7531 8.66602 14.7098 8.66602 14.666C8.66602 12.4569 6.87516 10.666 4.66602 10.666C2.45688 10.666 0.666016 12.4569 0.666016 14.666C0.666016 14.7098 0.670286 14.7531 0.678826 14.7961C0.687366 14.839 0.700011 14.8807 0.716763 14.9211C0.733515 14.9616 0.75405 15 0.778369 15.0364C0.802688 15.0728 0.830325 15.1065 0.861278 15.1374C0.892231 15.1684 0.925905 15.196 0.962302 15.2203C0.998699 15.2446 1.03712 15.2652 1.07756 15.2819C1.118 15.2987 1.15969 15.3113 1.20262 15.3199C1.24555 15.3284 1.28891 15.3327 1.33268 15.3327C1.37646 15.3327 1.41981 15.3284 1.46274 15.3199C1.50568 15.3113 1.54736 15.2987 1.5878 15.2819C1.62825 15.2652 1.66667 15.2446 1.70306 15.2203C1.73946 15.196 1.77313 15.1684 1.80409 15.1374C1.83504 15.1065 1.86268 15.0728 1.88699 15.0364C1.91131 15 1.93185 14.9616 1.9486 14.9211C1.96535 14.8807 1.978 14.839 1.98654 14.7961C1.99508 14.7531 1.99935 14.7098 1.99935 14.666C1.99935 13.1933 3.19326 11.9993 4.66602 11.9993Z" fill-rule="evenodd"  fill="#FF8D0E" >
</path>
<path d="M11.334 11.9993C12.8067 11.9993 14.0007 13.1933 14.0007 14.666C14.0007 14.7098 14.0049 14.7531 14.0135 14.7961C14.022 14.839 14.0346 14.8807 14.0514 14.9211C14.0681 14.9616 14.0887 15 14.113 15.0364C14.1373 15.0728 14.165 15.1065 14.1959 15.1374C14.2269 15.1684 14.2605 15.196 14.2969 15.2203C14.3333 15.2446 14.3718 15.2652 14.4122 15.2819C14.4526 15.2987 14.4943 15.3113 14.5373 15.3199C14.5802 15.3284 14.6235 15.3327 14.6673 15.3327C14.7111 15.3327 14.7545 15.3284 14.7974 15.3199C14.8403 15.3113 14.882 15.2987 14.9225 15.2819C14.9629 15.2652 15.0013 15.2446 15.0377 15.2203C15.0741 15.196 15.1078 15.1684 15.1387 15.1374C15.1697 15.1065 15.1973 15.0728 15.2217 15.0364C15.246 15 15.2665 14.9616 15.2833 14.9211C15.3 14.8807 15.3127 14.839 15.3212 14.7961C15.3297 14.7531 15.334 14.7098 15.334 14.666C15.334 12.4569 13.5431 10.666 11.334 10.666C9.12484 10.666 7.33398 12.4569 7.33398 14.666C7.33398 14.7098 7.33825 14.7531 7.34679 14.7961C7.35533 14.839 7.36798 14.8807 7.38473 14.9211C7.40148 14.9616 7.42202 15 7.44634 15.0364C7.47066 15.0728 7.49829 15.1065 7.52925 15.1374C7.5602 15.1684 7.59387 15.196 7.63027 15.2203C7.66667 15.2446 7.70509 15.2652 7.74553 15.2819C7.78597 15.2987 7.82766 15.3113 7.87059 15.3199C7.91352 15.3284 7.95688 15.3327 8.00065 15.3327C8.04443 15.3327 8.08778 15.3284 8.13071 15.3199C8.17364 15.3113 8.21533 15.2987 8.25577 15.2819C8.29622 15.2652 8.33463 15.2446 8.37103 15.2203C8.40743 15.196 8.4411 15.1684 8.47206 15.1374C8.50301 15.1065 8.53064 15.0728 8.55496 15.0364C8.57928 15 8.59982 14.9616 8.61657 14.9211C8.63332 14.8807 8.64597 14.839 8.65451 14.7961C8.66305 14.7531 8.66732 14.7098 8.66732 14.666C8.66732 13.1933 9.86122 11.9993 11.334 11.9993Z" fill-rule="evenodd"  fill="#FF8D0E" >
</path>
<path d="M8 5.33333C9.47276 5.33333 10.6667 6.52724 10.6667 8C10.6667 8.04377 10.6709 8.08713 10.6795 8.13006C10.688 8.17299 10.7007 8.21468 10.7174 8.25512C10.7342 8.29556 10.7547 8.33398 10.779 8.37038C10.8033 8.40678 10.831 8.44045 10.8619 8.47141C10.8929 8.50236 10.9266 8.52999 10.963 8.55431C10.9993 8.57863 11.0378 8.59917 11.0782 8.61592C11.1187 8.63267 11.1603 8.64532 11.2033 8.65385C11.2462 8.6624 11.2896 8.66667 11.3333 8.66667C11.3771 8.66667 11.4205 8.6624 11.4634 8.65385C11.5063 8.64532 11.548 8.63267 11.5885 8.61592C11.6289 8.59917 11.6673 8.57863 11.7037 8.55431C11.7401 8.52999 11.7738 8.50236 11.8047 8.47141C11.8357 8.44045 11.8633 8.40678 11.8877 8.37038C11.912 8.33398 11.9325 8.29556 11.9493 8.25512C11.966 8.21468 11.9787 8.17299 11.9872 8.13006C11.9957 8.08713 12 8.04377 12 8C12 5.79086 10.2091 4 8 4C5.79086 4 4 5.79086 4 8C4 8.04377 4.00427 8.08713 4.01281 8.13006C4.02135 8.17299 4.034 8.21468 4.05075 8.25512C4.0675 8.29556 4.08803 8.33398 4.11235 8.37038C4.13667 8.40678 4.16431 8.44045 4.19526 8.47141C4.22621 8.50236 4.25989 8.52999 4.29629 8.55431C4.33268 8.57863 4.3711 8.59917 4.41154 8.61592C4.45199 8.63267 4.49367 8.64532 4.53661 8.65385C4.57954 8.6624 4.62289 8.66667 4.66667 8.66667C4.71044 8.66667 4.75379 8.6624 4.79673 8.65385C4.83966 8.64532 4.88135 8.63267 4.92179 8.61592C4.96223 8.59917 5.00065 8.57863 5.03705 8.55431C5.07344 8.52999 5.10712 8.50236 5.13807 8.47141C5.16902 8.44045 5.19666 8.40678 5.22098 8.37038C5.2453 8.33398 5.26583 8.29556 5.28259 8.25512C5.29934 8.21468 5.31198 8.17299 5.32052 8.13006C5.32906 8.08713 5.33333 8.04377 5.33333 8C5.33333 6.52724 6.52724 5.33333 8 5.33333Z" fill-rule="evenodd"  fill="#FF8D0E" >
</path>
</svg>
