<svg xmlns="http://www.w3.org/2000/svg" xmlns:xlink="http://www.w3.org/1999/xlink" width="16" height="16" viewBox="0 0 16 16" fill="none">
<path d="M8 6.66602C9.65685 6.66602 11 5.32287 11 3.66602C11 2.00916 9.65685 0.666016 8 0.666016C6.34315 0.666016 5 2.00916 5 3.66602C5 5.32287 6.34315 6.66602 8 6.66602ZM8 1.99935C8.92047 1.99935 9.66667 2.74554 9.66667 3.66602C9.66667 4.58649 8.92047 5.33268 8 5.33268C7.07953 5.33268 6.33333 4.58649 6.33333 3.66602C6.33333 2.74554 7.07953 1.99935 8 1.99935Z" fill-rule="evenodd"  fill="#FF8D0E" >
</path>
<path d="M2.64714 9.3965C3.94484 8.24299 5.50646 7.66616 7.332 7.66602L7.33268 7.66602C7.70088 7.66602 7.99935 7.96449 7.99935 8.33268C7.99935 8.37646 7.99508 8.41981 7.98654 8.46274C7.978 8.50568 7.96535 8.54736 7.9486 8.5878C7.93185 8.62825 7.91132 8.66667 7.887 8.70306C7.86268 8.73946 7.83504 8.77313 7.80409 8.80409C7.77313 8.83504 7.73946 8.86268 7.70306 8.887C7.66667 8.91131 7.62825 8.93185 7.5878 8.9486C7.54736 8.96535 7.50568 8.978 7.46274 8.98654C7.41981 8.99508 7.37646 8.99935 7.33268 8.99935C5.84481 8.99935 4.57823 9.46392 3.53296 10.393C2.51055 11.3018 1.99935 12.3928 1.99935 13.666C1.99935 13.7098 1.99508 13.7531 1.98654 13.7961C1.978 13.839 1.96535 13.8807 1.9486 13.9211C1.93185 13.9616 1.91131 14 1.887 14.0364C1.86268 14.0728 1.83504 14.1065 1.80409 14.1374C1.77313 14.1684 1.73946 14.196 1.70306 14.2203C1.66667 14.2446 1.62825 14.2652 1.5878 14.2819C1.54736 14.2987 1.50568 14.3113 1.46274 14.3199C1.41981 14.3284 1.37646 14.3327 1.33268 14.3327C1.28891 14.3327 1.24555 14.3284 1.20262 14.3199C1.15969 14.3113 1.118 14.2987 1.07756 14.2819C1.03712 14.2652 0.998699 14.2446 0.962302 14.2203C0.925905 14.196 0.892231 14.1684 0.861278 14.1374C0.830325 14.1065 0.802689 14.0728 0.77837 14.0364C0.75405 14 0.733514 13.9616 0.716763 13.9211C0.700011 13.8807 0.687365 13.839 0.678826 13.7961C0.670286 13.7531 0.666016 13.7098 0.666016 13.666C0.666016 11.9937 1.32639 10.5705 2.64714 9.3965Z" fill-rule="evenodd"  fill="#FF8D0E" >
</path>
<path d="M11.5373 9.12475C11.5373 8.81648 11.6561 8.68162 11.6561 8.68162C11.7749 8.54675 12.0382 8.54675 12.0382 8.54675L14.0162 8.54675C14.3373 8.54675 14.4593 8.66877 14.4593 8.66877C14.5685 8.77795 14.5685 9.09906 14.5685 9.09906L14.5685 13.3377L14.7226 13.3377C14.8896 13.3505 14.957 13.495 14.957 13.495C15.0245 13.6395 14.9924 13.8065 14.9924 13.8065C14.9474 14.0441 14.7226 14.0698 14.7226 14.0698L11.184 14.0698C11.0171 14.0634 10.9368 13.9413 10.9368 13.9413C10.8565 13.8193 10.8758 13.6716 10.8758 13.6716C10.9015 13.3955 11.184 13.3633 11.184 13.3633L11.5373 13.3633L11.5373 9.12475ZM12.2373 10.1009L13.8685 10.1009L13.8685 9.45227C13.8685 9.35594 13.8364 9.31741 13.8364 9.31741C13.8043 9.27888 13.7272 9.27888 13.7272 9.27888L12.3914 9.27888C12.2308 9.27888 12.2373 9.43943 12.2373 9.43943L12.2373 10.1009ZM12.2373 11.6872L13.8685 11.6872L13.8685 10.833L12.2373 10.833L12.2373 11.6872ZM12.2373 13.3377L13.8685 13.3377L13.8685 12.4129L12.2373 12.4129L12.2373 13.3377ZM9.36658 8.57244C10.2464 8.49538 10.9721 8.35409 10.9721 8.35409C11.1262 8.3284 11.2226 8.42152 11.2226 8.42152C11.3189 8.51464 11.3253 8.65593 11.3253 8.65593C11.3574 8.88713 11.1262 9.00272 11.1262 9.00272C10.9207 9.07979 10.6831 9.09906 10.6831 9.09906L10.6831 9.85044L11.229 9.85044C11.3896 9.86329 11.4506 10.0078 11.4506 10.0078C11.5116 10.1523 11.4795 10.3128 11.4795 10.3128C11.4345 10.5119 11.2547 10.5312 11.2547 10.5312L10.6831 10.5312L10.6831 10.6789C11.1262 11.2376 11.396 11.7193 11.396 11.7193C11.5051 11.9376 11.4313 12.1014 11.4313 12.1014C11.3574 12.2652 11.1905 12.3101 11.1905 12.3101C10.9914 12.3679 10.8244 12.1239 10.8244 12.1239C10.7152 11.9248 10.6831 11.8863 10.6831 11.8863L10.6831 13.9863C10.6767 14.1661 10.545 14.2464 10.545 14.2464C10.4134 14.3267 10.2528 14.301 10.2528 14.301C10.0024 14.2624 9.98311 14.0056 9.98311 14.0056L9.98311 12.1817C9.8354 12.5863 9.70053 12.7918 9.70053 12.7918C9.57209 12.9716 9.4276 13.0069 9.4276 13.0069C9.2831 13.0422 9.17392 12.978 9.17392 12.978C8.9363 12.8367 9.09043 12.5028 9.09043 12.5028C9.67485 11.4239 9.94458 10.5248 9.94458 10.5248L9.29594 10.5312C9.12254 10.5248 9.04869 10.3995 9.04869 10.3995C8.97484 10.2743 9.00695 10.1138 9.00695 10.1138C9.04548 9.87613 9.30236 9.85044 9.30236 9.85044L9.98311 9.85044L9.98311 9.17612C9.69411 9.2275 9.41796 9.2275 9.41796 9.2275C9.24457 9.22108 9.18034 9.08621 9.18034 9.08621C9.12897 8.95777 9.16108 8.80364 9.16108 8.80364C9.19319 8.60455 9.36658 8.57244 9.36658 8.57244Z"   fill="#FF8D0E" >
</path>
</svg>
