<svg xmlns="http://www.w3.org/2000/svg" xmlns:xlink="http://www.w3.org/1999/xlink" width="16" height="16" viewBox="0 0 16 16" fill="none">
<path d="M8.00065 7.9974C9.47341 7.9974 10.6673 6.80349 10.6673 5.33073C10.6673 3.85797 9.47341 2.66406 8.00065 2.66406C6.52789 2.66406 5.33398 3.85797 5.33398 5.33073C5.33398 6.80349 6.52789 7.9974 8.00065 7.9974ZM8.00065 3.9974C8.73703 3.9974 9.33398 4.59435 9.33398 5.33073C9.33398 6.06711 8.73703 6.66406 8.00065 6.66406C7.26427 6.66406 6.66732 6.06711 6.66732 5.33073C6.66732 4.59435 7.26427 3.9974 8.00065 3.9974Z" fill-rule="evenodd"  fill="#FF8D0E" >
</path>
<path d="M8.00065 8.66927C9.8416 8.66927 11.334 10.1617 11.334 12.0026C11.334 12.0464 11.3383 12.0897 11.3468 12.1327C11.3553 12.1756 11.368 12.2173 11.3847 12.2577C11.4015 12.2982 11.422 12.3366 11.4463 12.373C11.4706 12.4094 11.4983 12.4431 11.5293 12.474C11.5602 12.505 11.5939 12.5326 11.6303 12.5569C11.6667 12.5812 11.7051 12.6018 11.7455 12.6185C11.786 12.6353 11.8277 12.6479 11.8706 12.6565C11.9135 12.665 11.9569 12.6693 12.0007 12.6693C12.0444 12.6693 12.0878 12.665 12.1307 12.6565C12.1737 12.6479 12.2153 12.6353 12.2558 12.6185C12.2962 12.6018 12.3347 12.5812 12.3711 12.5569C12.4075 12.5326 12.4411 12.505 12.4721 12.474C12.503 12.4431 12.5306 12.4094 12.555 12.373C12.5793 12.3366 12.5998 12.2982 12.6166 12.2577C12.6333 12.2173 12.646 12.1756 12.6545 12.1327C12.6631 12.0897 12.6673 12.0464 12.6673 12.0026C12.6673 9.42528 10.578 7.33594 8.00065 7.33594C5.42332 7.33594 3.33398 9.42528 3.33398 12.0026C3.33398 12.0464 3.33825 12.0897 3.34679 12.1327C3.35533 12.1756 3.36798 12.2173 3.38473 12.2577C3.40148 12.2982 3.42202 12.3366 3.44634 12.373C3.47066 12.4094 3.49829 12.4431 3.52925 12.474C3.5602 12.505 3.59387 12.5326 3.63027 12.5569C3.66667 12.5812 3.70509 12.6018 3.74553 12.6185C3.78597 12.6353 3.82766 12.6479 3.87059 12.6565C3.91352 12.665 3.95688 12.6693 4.00065 12.6693C4.04443 12.6693 4.08778 12.665 4.13071 12.6565C4.17364 12.6479 4.21533 12.6353 4.25577 12.6185C4.29622 12.6018 4.33463 12.5812 4.37103 12.5569C4.40743 12.5326 4.4411 12.505 4.47206 12.474C4.50301 12.4431 4.53064 12.4094 4.55496 12.373C4.57928 12.3366 4.59982 12.2982 4.61657 12.2577C4.63332 12.2173 4.64597 12.1756 4.65451 12.1327C4.66305 12.0897 4.66732 12.0464 4.66732 12.0026C4.66732 10.1617 6.1597 8.66927 8.00065 8.66927Z" fill-rule="evenodd"  fill="#FF8D0E" >
</path>
<path d="M14.6673 0.664062L12.0007 0.664062C11.9569 0.664062 11.9135 0.668333 11.8706 0.676872C11.8277 0.685413 11.786 0.698058 11.7455 0.71481C11.7051 0.731561 11.6667 0.752097 11.6303 0.776416C11.5939 0.800735 11.5602 0.828372 11.5292 0.859325C11.4983 0.890277 11.4707 0.923952 11.4463 0.960349C11.422 0.996746 11.4015 1.03516 11.3847 1.07561C11.368 1.11605 11.3553 1.15774 11.3468 1.20067C11.3383 1.2436 11.334 1.28696 11.334 1.33073C11.334 1.3745 11.3383 1.41786 11.3468 1.46079C11.3553 1.50372 11.368 1.54541 11.3847 1.58585C11.4015 1.62629 11.422 1.66471 11.4463 1.70111C11.4707 1.73751 11.4983 1.77118 11.5292 1.80213C11.5602 1.83309 11.5939 1.86072 11.6303 1.88504C11.6667 1.90936 11.7051 1.9299 11.7455 1.94665C11.786 1.9634 11.8277 1.97605 11.8706 1.98459C11.9135 1.99313 11.9569 1.9974 12.0007 1.9974L14.0007 1.9974L14.0007 3.9974C14.0007 4.04117 14.0049 4.08452 14.0135 4.12746C14.022 4.17039 14.0346 4.21208 14.0514 4.25252C14.0681 4.29296 14.0887 4.33138 14.113 4.36778C14.1373 4.40417 14.165 4.43785 14.1959 4.4688C14.2269 4.49975 14.2605 4.52739 14.2969 4.55171C14.3333 4.57603 14.3718 4.59656 14.4122 4.61332C14.4526 4.63007 14.4943 4.64271 14.5373 4.65126C14.5802 4.65979 14.6235 4.66406 14.6673 4.66406C14.7111 4.66406 14.7544 4.65979 14.7974 4.65126C14.8403 4.64271 14.882 4.63007 14.9224 4.61332C14.9629 4.59656 15.0013 4.57603 15.0377 4.55171C15.0741 4.52739 15.1078 4.49975 15.1387 4.4688C15.1697 4.43785 15.1973 4.40417 15.2216 4.36778C15.246 4.33138 15.2665 4.29296 15.2832 4.25252C15.3 4.21208 15.3126 4.17039 15.3212 4.12746C15.3297 4.08452 15.334 4.04117 15.334 3.9974L15.334 1.33073C15.334 0.962539 15.0355 0.664062 14.6673 0.664062Z" fill-rule="evenodd"  fill="#FF8D0E" >
</path>
<path d="M1.99935 1.9974L3.99935 1.9974C4.04312 1.9974 4.08648 1.99313 4.12941 1.98459C4.17234 1.97605 4.21403 1.9634 4.25447 1.94665C4.29491 1.9299 4.33333 1.90936 4.36973 1.88504C4.40612 1.86072 4.4398 1.83309 4.47076 1.80213C4.50171 1.77118 4.52934 1.73751 4.55366 1.70111C4.57798 1.66471 4.59852 1.62629 4.61527 1.58585C4.63202 1.54541 4.64467 1.50372 4.65321 1.46079C4.66175 1.41786 4.66602 1.3745 4.66602 1.33073C4.66602 1.28696 4.66175 1.2436 4.65321 1.20067C4.64467 1.15774 4.63202 1.11605 4.61527 1.07561C4.59852 1.03516 4.57798 0.996746 4.55366 0.960349C4.52934 0.923952 4.50171 0.890277 4.47076 0.859325C4.4398 0.828372 4.40612 0.800736 4.36973 0.776416C4.33333 0.752097 4.29491 0.731561 4.25447 0.71481C4.21403 0.698058 4.17234 0.685412 4.12941 0.676872C4.08648 0.668333 4.04312 0.664062 3.99935 0.664062L1.33268 0.664062C0.964492 0.664062 0.666016 0.962539 0.666016 1.33073L0.666016 3.9974C0.666016 4.04117 0.670286 4.08452 0.678826 4.12746C0.687366 4.17039 0.700011 4.21208 0.716763 4.25252C0.733515 4.29296 0.75405 4.33138 0.778369 4.36778C0.802688 4.40417 0.830325 4.43785 0.861278 4.4688C0.892231 4.49975 0.925905 4.52739 0.962302 4.55171C0.998699 4.57603 1.03712 4.59656 1.07756 4.61332C1.118 4.63007 1.15969 4.64271 1.20262 4.65126C1.24555 4.65979 1.28891 4.66406 1.33268 4.66406C1.37646 4.66406 1.41981 4.65979 1.46274 4.65126C1.50568 4.64271 1.54736 4.63007 1.5878 4.61332C1.62825 4.59656 1.66667 4.57603 1.70306 4.55171C1.73946 4.52739 1.77313 4.49975 1.80409 4.4688C1.83504 4.43785 1.86268 4.40417 1.88699 4.36778C1.91131 4.33138 1.93185 4.29296 1.9486 4.25252C1.96535 4.21208 1.978 4.17039 1.98654 4.12746C1.99508 4.08452 1.99935 4.04117 1.99935 3.9974L1.99935 1.9974Z" fill-rule="evenodd"  fill="#FF8D0E" >
</path>
<path d="M14.0007 14.0026L12.0007 14.0026C11.9569 14.0026 11.9135 14.0069 11.8706 14.0154C11.8277 14.024 11.786 14.0366 11.7455 14.0534C11.7051 14.0701 11.6667 14.0906 11.6303 14.115C11.5939 14.1393 11.5602 14.1669 11.5292 14.1979C11.4983 14.2288 11.4707 14.2625 11.4463 14.2989C11.422 14.3353 11.4015 14.3737 11.3847 14.4142C11.368 14.4546 11.3553 14.4963 11.3468 14.5392C11.3383 14.5821 11.334 14.6255 11.334 14.6693C11.334 14.713 11.3383 14.7564 11.3468 14.7993C11.3553 14.8423 11.368 14.884 11.3847 14.9244C11.4015 14.9648 11.422 15.0033 11.4463 15.0397C11.4707 15.076 11.4983 15.1097 11.5292 15.1407C11.5602 15.1716 11.5939 15.1993 11.6303 15.2236C11.6667 15.2479 11.7051 15.2684 11.7455 15.2852C11.786 15.3019 11.8277 15.3146 11.8706 15.3231C11.9135 15.3317 11.9569 15.3359 12.0007 15.3359L14.6673 15.3359C15.0355 15.3359 15.334 15.0375 15.334 14.6693L15.334 12.0026C15.334 11.9588 15.3297 11.9155 15.3212 11.8725C15.3126 11.8296 15.3 11.7879 15.2832 11.7475C15.2665 11.707 15.246 11.6686 15.2216 11.6322C15.1973 11.5958 15.1697 11.5622 15.1387 11.5312C15.1078 11.5002 15.0741 11.4726 15.0377 11.4483C15.0013 11.424 14.9629 11.4034 14.9224 11.3867C14.882 11.3699 14.8403 11.3573 14.7974 11.3487C14.7544 11.3402 14.7111 11.3359 14.6673 11.3359C14.6235 11.3359 14.5802 11.3402 14.5373 11.3487C14.4943 11.3573 14.4526 11.3699 14.4122 11.3867C14.3718 11.4034 14.3333 11.424 14.2969 11.4483C14.2605 11.4726 14.2269 11.5002 14.1959 11.5312C14.165 11.5622 14.1373 11.5958 14.113 11.6322C14.0887 11.6686 14.0681 11.707 14.0514 11.7475C14.0346 11.7879 14.022 11.8296 14.0135 11.8725C14.0049 11.9155 14.0007 11.9588 14.0007 12.0026L14.0007 14.0026Z" fill-rule="evenodd"  fill="#FF8D0E" >
</path>
<path d="M1.33268 15.3359L3.99935 15.3359C4.04312 15.3359 4.08648 15.3317 4.12941 15.3231C4.17234 15.3146 4.21403 15.3019 4.25447 15.2852C4.29491 15.2684 4.33333 15.2479 4.36973 15.2236C4.40612 15.1993 4.4398 15.1716 4.47076 15.1407C4.50171 15.1097 4.52934 15.076 4.55366 15.0397C4.57798 15.0033 4.59852 14.9648 4.61527 14.9244C4.63202 14.884 4.64467 14.8423 4.65321 14.7993C4.66175 14.7564 4.66602 14.713 4.66602 14.6693C4.66602 14.6255 4.66175 14.5821 4.65321 14.5392C4.64467 14.4963 4.63202 14.4546 4.61527 14.4142C4.59852 14.3737 4.57798 14.3353 4.55366 14.2989C4.52934 14.2625 4.50171 14.2288 4.47076 14.1979C4.4398 14.1669 4.40612 14.1393 4.36973 14.115C4.33333 14.0906 4.29491 14.0701 4.25447 14.0534C4.21403 14.0366 4.17234 14.024 4.12941 14.0154C4.08648 14.0069 4.04312 14.0026 3.99935 14.0026L1.99935 14.0026L1.99935 12.0026C1.99935 11.9588 1.99508 11.9155 1.98654 11.8725C1.978 11.8296 1.96535 11.7879 1.9486 11.7475C1.93185 11.707 1.91131 11.6686 1.887 11.6322C1.86268 11.5958 1.83504 11.5622 1.80409 11.5312C1.77313 11.5002 1.73946 11.4726 1.70306 11.4483C1.66667 11.424 1.62825 11.4034 1.5878 11.3867C1.54736 11.3699 1.50568 11.3573 1.46274 11.3487C1.41981 11.3402 1.37646 11.3359 1.33268 11.3359C1.28891 11.3359 1.24555 11.3402 1.20262 11.3487C1.15969 11.3573 1.118 11.3699 1.07756 11.3867C1.03712 11.4034 0.998699 11.424 0.962302 11.4483C0.925905 11.4726 0.892231 11.5002 0.861278 11.5312C0.830325 11.5622 0.802689 11.5958 0.77837 11.6322C0.75405 11.6686 0.733515 11.707 0.716763 11.7475C0.700011 11.7879 0.687365 11.8296 0.678826 11.8725C0.670286 11.9155 0.666016 11.9588 0.666016 12.0026L0.666016 14.6693C0.666016 15.0375 0.964492 15.3359 1.33268 15.3359Z" fill-rule="evenodd"  fill="#FF8D0E" >
</path>
</svg>
