<svg xmlns="http://www.w3.org/2000/svg" xmlns:xlink="http://www.w3.org/1999/xlink" width="16" height="16" viewBox="0 0 16 16" fill="none">
<path d="M8 6.66406C9.65685 6.66406 11 5.32092 11 3.66406C11 2.00721 9.65685 0.664062 8 0.664062C6.34315 0.664062 5 2.00721 5 3.66406C5 5.32092 6.34315 6.66406 8 6.66406ZM8 1.9974C8.92047 1.9974 9.66667 2.74359 9.66667 3.66406C9.66667 4.58454 8.92047 5.33073 8 5.33073C7.07953 5.33073 6.33333 4.58454 6.33333 3.66406C6.33333 2.74359 7.07953 1.9974 8 1.9974Z" fill-rule="evenodd"  fill="#FF8D0E" >
</path>
<path d="M2.64714 9.39455C1.32639 10.5685 0.666016 11.9917 0.666016 13.6641C0.666016 13.7078 0.670286 13.7512 0.678826 13.7941C0.687366 13.8371 0.700011 13.8787 0.716763 13.9192C0.733514 13.9596 0.75405 13.998 0.778369 14.0344C0.802688 14.0708 0.830325 14.1045 0.861278 14.1355C0.892231 14.1664 0.925905 14.1941 0.962302 14.2184C0.998699 14.2427 1.03712 14.2632 1.07756 14.28C1.118 14.2967 1.15969 14.3094 1.20262 14.3179C1.24555 14.3265 1.28891 14.3307 1.33268 14.3307C1.37646 14.3307 1.41981 14.3265 1.46274 14.3179C1.50568 14.3094 1.54736 14.2967 1.5878 14.28C1.62825 14.2632 1.66667 14.2427 1.70306 14.2184C1.73946 14.1941 1.77313 14.1664 1.80409 14.1355C1.83504 14.1045 1.86268 14.0708 1.88699 14.0344C1.91131 13.998 1.93185 13.9596 1.9486 13.9192C1.96535 13.8787 1.978 13.8371 1.98654 13.7941C1.99508 13.7512 1.99935 13.7078 1.99935 13.6641C1.99935 12.3909 2.51055 11.2999 3.53296 10.3911C4.57823 9.46196 5.84481 8.9974 7.33268 8.9974C7.37646 8.9974 7.41981 8.99313 7.46274 8.98459C7.50568 8.97605 7.54736 8.9634 7.5878 8.94665C7.62825 8.9299 7.66667 8.90936 7.70306 8.88504C7.73946 8.86072 7.77313 8.83309 7.80409 8.80213C7.83504 8.77118 7.86268 8.73751 7.887 8.70111C7.91132 8.66471 7.93185 8.62629 7.9486 8.58585C7.96535 8.54541 7.978 8.50372 7.98654 8.46079C7.99508 8.41786 7.99935 8.3745 7.99935 8.33073C7.99935 7.96254 7.70088 7.66406 7.33268 7.66406L7.33053 7.66406C5.50562 7.66452 3.94449 8.24135 2.64714 9.39455Z" fill-rule="evenodd"  fill="#FF8D0E" >
</path>
<path d="M9.66732 13.3307L10.0578 13.3307L12.7245 10.6641L12.334 10.2735L9.66732 12.9402L9.66732 13.3307ZM10.334 14.6641L9.00065 14.6641C8.63246 14.6641 8.33398 14.3656 8.33398 13.9974L8.33398 12.6641C8.33398 12.4872 8.40422 12.3177 8.52925 12.1927L11.8626 8.85932C12.1229 8.59898 12.545 8.59898 12.8054 8.85932L14.1387 10.1927C14.3991 10.453 14.3991 10.8751 14.1387 11.1355L10.8054 14.4688C10.7429 14.5313 10.6708 14.5795 10.5891 14.6133C10.5074 14.6471 10.4224 14.6641 10.334 14.6641Z" fill-rule="evenodd"  fill="#FF8D0E" >
</path>
</svg>
