<svg xmlns="http://www.w3.org/2000/svg" xmlns:xlink="http://www.w3.org/1999/xlink" width="24" height="24" viewBox="0 0 24 24" fill="none">
<path d="M21 12C21 16.9706 16.9706 21 12 21C7.02944 21 3 16.9706 3 12C3 7.02944 7.02944 3 12 3C16.9706 3 21 7.02944 21 12ZM1 12C1 18.0751 5.92487 23 12 23C18.0751 23 23 18.0751 23 12C23 5.92487 18.0751 1 12 1C5.92487 1 1 5.92487 1 12Z" fill-rule="evenodd"  fill="#FF9F1C" >
</path>
<path d="M16 9L16 15C16 15.0657 15.9936 15.1307 15.9808 15.1951C15.968 15.2595 15.949 15.322 15.9239 15.3827C15.8988 15.4433 15.8679 15.501 15.8315 15.5556C15.795 15.6102 15.7535 15.6607 15.7071 15.7071C15.6607 15.7535 15.6102 15.795 15.5556 15.8315C15.501 15.868 15.4433 15.8988 15.3827 15.9239C15.322 15.949 15.2595 15.968 15.1951 15.9808C15.1307 15.9936 15.0657 16 15 16C14.9343 16 14.8693 15.9936 14.8049 15.9808C14.7405 15.968 14.678 15.949 14.6173 15.9239C14.5567 15.8988 14.499 15.868 14.4444 15.8315C14.3898 15.795 14.3393 15.7535 14.2929 15.7071C14.2465 15.6607 14.205 15.6102 14.1685 15.5556C14.1321 15.501 14.1012 15.4433 14.0761 15.3827C14.051 15.322 14.032 15.2595 14.0192 15.1951C14.0064 15.1307 14 15.0657 14 15L14 9C14 8.93434 14.0064 8.86931 14.0192 8.80491C14.032 8.74051 14.051 8.67798 14.0761 8.61732C14.1012 8.55665 14.1321 8.49902 14.1685 8.44443C14.205 8.38983 14.2465 8.33932 14.2929 8.29289C14.3393 8.24646 14.3898 8.20501 14.4444 8.16853C14.499 8.13205 14.5567 8.10125 14.6173 8.07612C14.678 8.05099 14.7405 8.03202 14.8049 8.01921C14.8693 8.0064 14.9343 8 15 8C15.0657 8 15.1307 8.0064 15.1951 8.01921C15.2595 8.03203 15.322 8.05099 15.3827 8.07612C15.4433 8.10125 15.501 8.13205 15.5556 8.16853C15.6102 8.20501 15.6607 8.24646 15.7071 8.29289C15.7535 8.33932 15.795 8.38983 15.8315 8.44443C15.8679 8.49902 15.8988 8.55665 15.9239 8.61732C15.949 8.67798 15.968 8.74051 15.9808 8.80491C15.9936 8.86931 16 8.93434 16 9Z" fill-rule="evenodd"  fill="#FF9F1C" >
</path>
<path d="M19 13C19 13.0657 18.9936 13.1307 18.9808 13.1951C18.968 13.2595 18.949 13.322 18.9239 13.3827C18.8988 13.4433 18.8679 13.501 18.8315 13.5556C18.795 13.6102 18.7535 13.6607 18.7071 13.7071C18.6607 13.7535 18.6102 13.795 18.5556 13.8315C18.501 13.868 18.4433 13.8988 18.3827 13.9239C18.322 13.949 18.2595 13.968 18.1951 13.9808C18.1307 13.9936 18.0657 14 18 14C17.9343 14 17.8693 13.9936 17.8049 13.9808C17.7405 13.968 17.678 13.949 17.6173 13.9239C17.5567 13.8988 17.499 13.868 17.4444 13.8315C17.3898 13.795 17.3393 13.7535 17.2929 13.7071C17.2465 13.6607 17.205 13.6102 17.1685 13.5556C17.1321 13.501 17.1012 13.4433 17.0761 13.3827C17.051 13.322 17.032 13.2595 17.0192 13.1951C17.0064 13.1307 17 13.0657 17 13L17 11C17 10.9343 17.0064 10.8693 17.0192 10.8049C17.032 10.7405 17.051 10.678 17.0761 10.6173C17.1012 10.5567 17.1321 10.499 17.1685 10.4444C17.205 10.3898 17.2465 10.3393 17.2929 10.2929C17.3393 10.2465 17.3898 10.205 17.4444 10.1685C17.499 10.1321 17.5567 10.1012 17.6173 10.0761C17.678 10.051 17.7405 10.032 17.8049 10.0192C17.8693 10.0064 17.9343 10 18 10C18.0657 10 18.1307 10.0064 18.1951 10.0192C18.2595 10.032 18.322 10.051 18.3827 10.0761C18.4433 10.1012 18.501 10.1321 18.5556 10.1685C18.6102 10.205 18.6607 10.2465 18.7071 10.2929C18.7535 10.3393 18.795 10.3898 18.8315 10.4444C18.8679 10.499 18.8988 10.5567 18.9239 10.6173C18.949 10.678 18.968 10.7405 18.9808 10.8049C18.9936 10.8693 19 10.9343 19 11L19 13Z" fill-rule="evenodd"  fill="#FF9F1C" >
</path>
<path d="M10 9L10 15C10 15.0657 9.9936 15.1307 9.98079 15.1951C9.96797 15.2595 9.94901 15.322 9.92388 15.3827C9.89875 15.4433 9.86795 15.501 9.83147 15.5556C9.79499 15.6102 9.75354 15.6607 9.70711 15.7071C9.66068 15.7535 9.61017 15.795 9.55557 15.8315C9.50098 15.868 9.44335 15.8988 9.38268 15.9239C9.32202 15.949 9.25949 15.968 9.19509 15.9808C9.13069 15.9936 9.06566 16 9 16C8.93434 16 8.86931 15.9936 8.80491 15.9808C8.74051 15.968 8.67798 15.949 8.61732 15.9239C8.55665 15.8988 8.49902 15.868 8.44443 15.8315C8.38983 15.795 8.33932 15.7535 8.29289 15.7071C8.24646 15.6607 8.20501 15.6102 8.16853 15.5556C8.13205 15.501 8.10125 15.4433 8.07612 15.3827C8.05099 15.322 8.03202 15.2595 8.01921 15.1951C8.0064 15.1307 8 15.0657 8 15L8 9C8 8.93434 8.0064 8.86931 8.01921 8.80491C8.03203 8.74051 8.05099 8.67798 8.07612 8.61732C8.10125 8.55665 8.13205 8.49902 8.16853 8.44443C8.20501 8.38983 8.24646 8.33932 8.29289 8.29289C8.33932 8.24646 8.38983 8.20501 8.44443 8.16853C8.49902 8.13205 8.55665 8.10125 8.61732 8.07612C8.67798 8.05099 8.74051 8.03202 8.80491 8.01921C8.86931 8.0064 8.93434 8 9 8C9.06566 8 9.13069 8.0064 9.19509 8.01921C9.25949 8.03203 9.32202 8.05099 9.38268 8.07612C9.44335 8.10125 9.50098 8.13205 9.55557 8.16853C9.61017 8.20501 9.66068 8.24646 9.70711 8.29289C9.75354 8.33932 9.79499 8.38983 9.83147 8.44443C9.86795 8.49902 9.89875 8.55665 9.92388 8.61732C9.94901 8.67798 9.96798 8.74051 9.98079 8.80491C9.9936 8.86931 10 8.93434 10 9Z" fill-rule="evenodd"  fill="#FF9F1C" >
</path>
<path d="M7 13C7 13.0657 6.9936 13.1307 6.98078 13.1951C6.96798 13.2595 6.94901 13.322 6.92388 13.3827C6.89875 13.4433 6.86795 13.501 6.83147 13.5556C6.79499 13.6102 6.75354 13.6607 6.70711 13.7071C6.66068 13.7535 6.61017 13.795 6.55557 13.8315C6.50098 13.868 6.44335 13.8988 6.38268 13.9239C6.32202 13.949 6.25949 13.968 6.19509 13.9808C6.13069 13.9936 6.06566 14 6 14C5.93434 14 5.86931 13.9936 5.80491 13.9808C5.74051 13.968 5.67798 13.949 5.61732 13.9239C5.55665 13.8988 5.49902 13.868 5.44443 13.8315C5.38983 13.795 5.33932 13.7535 5.29289 13.7071C5.24646 13.6607 5.20501 13.6102 5.16853 13.5556C5.13205 13.501 5.10125 13.4433 5.07612 13.3827C5.05099 13.322 5.03202 13.2595 5.01922 13.1951C5.0064 13.1307 5 13.0657 5 13L5 11C5 10.9343 5.0064 10.8693 5.01922 10.8049C5.03202 10.7405 5.05099 10.678 5.07612 10.6173C5.10125 10.5567 5.13205 10.499 5.16853 10.4444C5.20501 10.3898 5.24646 10.3393 5.29289 10.2929C5.33932 10.2465 5.38983 10.205 5.44443 10.1685C5.49902 10.1321 5.55665 10.1012 5.61732 10.0761C5.67798 10.051 5.74051 10.032 5.80491 10.0192C5.86931 10.0064 5.93434 10 6 10C6.06566 10 6.13069 10.0064 6.19509 10.0192C6.25949 10.032 6.32202 10.051 6.38268 10.0761C6.44335 10.1012 6.50098 10.1321 6.55557 10.1685C6.61017 10.205 6.66068 10.2465 6.70711 10.2929C6.75354 10.3393 6.79499 10.3898 6.83147 10.4444C6.86795 10.499 6.89875 10.5567 6.92388 10.6173C6.94901 10.678 6.96798 10.7405 6.98078 10.8049C6.9936 10.8693 7 10.9343 7 11L7 13Z" fill-rule="evenodd"  fill="#FF9F1C" >
</path>
<path d="M13 7L13 17C13 17.0657 12.9936 17.1307 12.9808 17.1951C12.968 17.2595 12.949 17.322 12.9239 17.3827C12.8988 17.4434 12.8679 17.501 12.8315 17.5556C12.795 17.6102 12.7535 17.6607 12.7071 17.7071C12.6607 17.7535 12.6102 17.795 12.5556 17.8315C12.501 17.868 12.4433 17.8988 12.3827 17.9239C12.322 17.949 12.2595 17.968 12.1951 17.9808C12.1307 17.9936 12.0657 18 12 18C11.9343 18 11.8693 17.9936 11.8049 17.9808C11.7405 17.968 11.678 17.949 11.6173 17.9239C11.5567 17.8988 11.499 17.868 11.4444 17.8315C11.3898 17.795 11.3393 17.7535 11.2929 17.7071C11.2465 17.6607 11.205 17.6102 11.1685 17.5556C11.1321 17.501 11.1012 17.4434 11.0761 17.3827C11.051 17.322 11.032 17.2595 11.0192 17.1951C11.0064 17.1307 11 17.0657 11 17L11 7C11 6.93434 11.0064 6.86931 11.0192 6.80491C11.032 6.74051 11.051 6.67798 11.0761 6.61732C11.1012 6.55665 11.1321 6.49902 11.1685 6.44443C11.205 6.38983 11.2465 6.33932 11.2929 6.29289C11.3393 6.24646 11.3898 6.20501 11.4444 6.16853C11.499 6.13205 11.5567 6.10125 11.6173 6.07612C11.678 6.05099 11.7405 6.03202 11.8049 6.01922C11.8693 6.0064 11.9343 6 12 6C12.0657 6 12.1307 6.0064 12.1951 6.01922C12.2595 6.03202 12.322 6.05099 12.3827 6.07612C12.4433 6.10125 12.501 6.13205 12.5556 6.16853C12.6102 6.20501 12.6607 6.24646 12.7071 6.29289C12.7535 6.33932 12.795 6.38983 12.8315 6.44443C12.8679 6.49902 12.8988 6.55665 12.9239 6.61732C12.949 6.67798 12.968 6.74051 12.9808 6.80491C12.9936 6.86931 13 6.93434 13 7Z" fill-rule="evenodd"  fill="#FF9F1C" >
</path>
</svg>
