<svg xmlns="http://www.w3.org/2000/svg" xmlns:xlink="http://www.w3.org/1999/xlink" width="40" height="40" viewBox="0 0 40 40" fill="none">
<circle cx="20" cy="20" r="20"   fill="#E5E5E5" >
</circle>
<path d="M9.44057 15.8702L13.7807 11.1608C13.9937 10.9297 14.3033 10.7969 14.6291 10.7969L25.3735 10.7969C25.6993 10.7969 26.0089 10.9297 26.2219 11.1608L30.562 15.8702C30.9326 16.2723 30.9245 16.8703 30.5431 17.2635L20.4075 28.7531C20.1919 28.9975 19.8107 28.9975 19.5951 28.7531L9.45949 17.2635C9.07813 16.8703 9.07001 16.2723 9.44057 15.8702Z"   fill="#606060" >
</path>
<path d="M12.9829 10.4162L8.64281 15.1256L8.64271 15.1257L8.64212 15.1264C7.75348 16.0911 7.75997 17.0448 8.66157 17.9874L18.7816 29.4593C19.4285 30.1926 20.5719 30.1926 21.2188 29.4593L31.3388 17.9874C32.2407 17.0445 32.2469 16.0906 31.3575 15.1256L27.0174 10.4161C26.5792 9.94078 26.0309 9.70312 25.3724 9.70312L14.628 9.70312C13.9695 9.70312 13.4211 9.94081 12.9829 10.4162ZM10.2797 16.5465L20.0002 27.5656L29.7206 16.5466L25.4242 11.8846C25.4151 11.8747 25.3978 11.8698 25.3724 11.8698L14.628 11.8698C14.6025 11.8698 14.5852 11.8747 14.5762 11.8845L10.2797 16.5465Z" fill-rule="evenodd"  fill="#606060" >
</path>
<path d="M23.5592 17.0768C23.5462 17.0901 23.5336 17.1037 23.5213 17.1177L20.0013 21.0777L16.4813 17.1176L14.5847 17.8228L14.5846 17.8342L14.5847 17.8456C14.5877 18.117 14.6906 18.3645 14.8583 18.5531L14.8613 18.5565L19.1916 23.4281C19.6225 23.9129 20.3801 23.9129 20.811 23.4281L25.1413 18.5565C25.3129 18.3652 25.4175 18.1125 25.418 17.8353L25.418 17.8333L25.418 17.8314C25.4174 17.5377 25.3 17.2714 25.1098 17.0765C25.1037 17.0702 25.0974 17.064 25.0911 17.0579C24.8963 16.8678 24.6302 16.7505 24.3366 16.75L24.3346 16.75L24.3327 16.75C24.039 16.7505 23.7727 16.8679 23.5778 17.0582C23.5716 17.0643 23.5653 17.0705 23.5592 17.0768Z" fill-rule="evenodd"  fill="#E5E5E5" >
</path>
<path d="M16.4408 17.0768C16.4538 17.0901 16.4664 17.1037 16.4787 17.1177L19.9987 21.0777L23.5187 17.1176L25.4153 17.8228L25.4154 17.8342L25.4153 17.8456C25.4123 18.117 25.3094 18.3645 25.1417 18.5531L25.1387 18.5565L20.8084 23.4281C20.3775 23.9129 19.6199 23.9129 19.189 23.4281L14.8588 18.5565C14.6871 18.3652 14.5825 18.1125 14.582 17.8353L14.582 17.8333L14.582 17.8314C14.5826 17.5377 14.7 17.2714 14.8902 17.0765C14.8963 17.0702 14.9026 17.064 14.9089 17.0579C15.1037 16.8678 15.3698 16.7505 15.6634 16.75L15.6654 16.75L15.6673 16.75C15.961 16.7505 16.2273 16.8679 16.4222 17.0582C16.4284 17.0643 16.4347 17.0705 16.4408 17.0768Z" fill-rule="evenodd"  fill="#E5E5E5" >
</path>
</svg>
