<svg xmlns="http://www.w3.org/2000/svg" xmlns:xlink="http://www.w3.org/1999/xlink" width="40" height="40" viewBox="0 0 40 40" fill="none">
<circle cx="20" cy="20" r="20"   fill="#E5E5E5" >
</circle>
<g  clip-path="url(#clip-path-71_133)">
<path d="M29.7836 19.9931C29.4412 16.7289 27.3804 10.3183 26.7528 7.74161C26.7422 7.69808 26.7286 7.65549 26.7122 7.61385C26.6957 7.57221 26.6765 7.53191 26.6546 7.49294C26.6326 7.45397 26.6081 7.41671 26.5811 7.38116C26.5541 7.34561 26.5248 7.3121 26.4931 7.28063C26.4616 7.24916 26.428 7.22003 26.3924 7.19325C26.3568 7.16646 26.3196 7.14227 26.2807 7.12067C26.2418 7.09907 26.2017 7.08027 26.1602 7.06426C26.1188 7.04826 26.0764 7.0352 26.0332 7.0251C25.99 7.015 25.9463 7.00794 25.9021 7.00392C25.8579 6.99991 25.8137 6.99897 25.7694 7.00113C25.7251 7.00328 25.6811 7.00849 25.6375 7.01677C25.5939 7.02504 25.5511 7.0363 25.509 7.05055C25.4669 7.06479 25.426 7.08189 25.3863 7.10183C25.3466 7.12178 25.3084 7.14438 25.2717 7.16965C25.2351 7.19491 25.2003 7.2226 25.1674 7.25271C25.1346 7.28282 25.1039 7.31507 25.0754 7.34946L20.4403 10.7382C20.4327 10.7474 20.4249 10.7564 20.4168 10.7652C20.4087 10.774 20.4004 10.7825 20.3918 10.7909C20.3833 10.7992 20.3745 10.8073 20.3655 10.8151C20.3565 10.823 20.3473 10.8306 20.3379 10.8379C20.3285 10.8452 20.3189 10.8523 20.3091 10.8591C20.2994 10.8659 20.2894 10.8724 20.2793 10.8787C20.2691 10.8849 20.2588 10.8909 20.2483 10.8966C20.2379 10.9023 20.2273 10.9077 20.2165 10.9128C20.2057 10.9179 20.1949 10.9226 20.1838 10.9271C20.1728 10.9316 20.1617 10.9358 20.1505 10.9397C20.1392 10.9436 20.1279 10.9471 20.1164 10.9504C20.105 10.9536 20.0935 10.9565 20.0819 10.9591C20.0703 10.9618 20.0587 10.9641 20.0469 10.966C20.0352 10.968 20.0235 10.9696 20.0117 10.9709C19.9998 10.9722 19.988 10.9732 19.9761 10.9739C19.9643 10.9746 19.9524 10.9749 19.9406 10.9749C19.9287 10.9749 19.9168 10.9746 19.9049 10.9739C19.8931 10.9732 19.8812 10.9722 19.8694 10.9709C19.8576 10.9696 19.8459 10.968 19.8341 10.966C19.8224 10.9641 19.8108 10.9618 19.7992 10.9591C19.7876 10.9565 19.7761 10.9536 19.7646 10.9504C19.7532 10.9471 19.7418 10.9436 19.7306 10.9397C19.7194 10.9358 19.7083 10.9316 19.6972 10.9271C19.6862 10.9226 19.6753 10.9179 19.6645 10.9128C19.6538 10.9077 19.6432 10.9023 19.6327 10.8966C19.6223 10.8909 19.612 10.8849 19.6019 10.8787C19.5917 10.8724 19.5817 10.8659 19.572 10.8591C19.5622 10.8523 19.5526 10.8452 19.5431 10.8379C19.5337 10.8306 19.5246 10.823 19.5155 10.8151C19.5066 10.8073 19.4978 10.7992 19.4893 10.7909C19.4807 10.7825 19.4724 10.774 19.4643 10.7652C19.4562 10.7564 19.4484 10.7474 19.4407 10.7382L14.7121 7.23181C14.6813 7.19525 14.647 7.16251 14.6091 7.13358C14.5712 7.10465 14.5307 7.08022 14.4875 7.06029C14.4444 7.04036 14.3996 7.0254 14.3531 7.01542C14.3067 7.00544 14.2597 7.00068 14.2123 7.00113L13.822 7.00113C13.8041 7.00134 13.7862 7.00229 13.7684 7.00399C13.7505 7.00568 13.7328 7.00811 13.7151 7.01128C13.6975 7.01445 13.68 7.01834 13.6626 7.02296C13.6453 7.02758 13.6282 7.03291 13.6113 7.03895C13.5944 7.04499 13.5778 7.05171 13.5614 7.05913C13.5451 7.06655 13.529 7.07464 13.5133 7.08339C13.4976 7.09214 13.4823 7.10152 13.4674 7.11154C13.4525 7.12156 13.438 7.13218 13.4239 7.1434C13.4098 7.15463 13.3962 7.16642 13.3831 7.17877C13.37 7.19112 13.3574 7.20399 13.3453 7.21739C13.3333 7.23078 13.3218 7.24466 13.3108 7.25901C13.2999 7.27336 13.2896 7.28814 13.2798 7.30335C13.2701 7.31856 13.261 7.33415 13.2525 7.35011C13.244 7.36607 13.2362 7.38236 13.229 7.39898C13.2219 7.41559 13.2154 7.43247 13.2096 7.44962C13.2039 7.46677 13.1988 7.48413 13.1944 7.5017C12.6421 9.73469 10.4558 16.6205 10.0998 19.9931C9.21659 28.4244 14.3355 32.9688 19.9406 33.0011C25.5433 32.9688 30.6668 28.4244 29.7836 19.9931ZM12.7494 18.9458C11.978 17.4417 12.4276 15.7162 13.11 13.0888C13.4366 11.8376 13.8771 10.6289 14.4314 9.46249C14.4369 9.45061 14.4429 9.43892 14.4491 9.4274C14.4554 9.41589 14.462 9.40457 14.469 9.39347C14.4759 9.38238 14.4832 9.37149 14.4908 9.36083C14.4985 9.35019 14.5064 9.33979 14.5147 9.32962C14.5229 9.31947 14.5315 9.30957 14.5403 9.29995C14.5492 9.29033 14.5583 9.28098 14.5678 9.27193C14.5772 9.26287 14.5869 9.25412 14.5968 9.24566C14.6068 9.23721 14.617 9.22907 14.6275 9.22125C14.6379 9.21343 14.6486 9.20594 14.6595 9.19879C14.6704 9.19163 14.6815 9.18482 14.6928 9.17836C14.7042 9.1719 14.7157 9.16579 14.7274 9.16004C14.7391 9.15429 14.7509 9.14891 14.763 9.1439C14.775 9.13889 14.7871 9.13425 14.7994 9.12999C14.8118 9.12574 14.8242 9.12187 14.8367 9.11839C14.8493 9.1149 14.8619 9.11181 14.8746 9.10911C14.8874 9.10641 14.9002 9.10411 14.913 9.10221C14.9259 9.10031 14.9388 9.09881 14.9518 9.09771C14.9647 9.09661 14.9777 9.09591 14.9907 9.09562C15.0037 9.09533 15.0167 9.09544 15.0297 9.09595C15.0427 9.09647 15.0557 9.09738 15.0686 9.09871C15.0815 9.10003 15.0944 9.10175 15.1073 9.10387C15.1201 9.10599 15.1328 9.10851 15.1455 9.11142C15.1582 9.11434 15.1708 9.11764 15.1833 9.12134C15.1958 9.12504 15.2081 9.12912 15.2203 9.13358C15.2326 9.13805 15.2447 9.14289 15.2566 9.14811C15.2685 9.15332 15.2803 9.1589 15.2919 9.16485C15.3035 9.1708 15.3149 9.1771 15.3261 9.18376C15.3374 9.19041 15.3484 9.19741 15.3591 9.20475C15.3699 9.21209 15.3805 9.21976 15.3908 9.22776C15.4011 9.23575 15.4112 9.24406 15.421 9.25269C15.4308 9.26131 15.4404 9.27023 15.4496 9.27944C15.4589 9.28866 15.4679 9.29816 15.4766 9.30793L19.2216 12.3068C19.2506 12.3311 19.281 12.3534 19.313 12.3737C19.3292 13.0683 19.3802 13.7604 19.4658 14.4498C19.4261 14.4605 19.3868 14.4724 19.3478 14.4855C19.3088 14.4986 19.2702 14.5129 19.232 14.5283C19.1938 14.5438 19.1562 14.5603 19.119 14.5781C19.0818 14.5958 19.0452 14.6146 19.0092 14.6346C18.9731 14.6545 18.9377 14.6755 18.9028 14.6976C18.8681 14.7197 18.834 14.7429 18.8005 14.7671C18.7671 14.7912 18.7344 14.8164 18.7024 14.8425C18.6705 14.8687 18.6394 14.8958 18.609 14.9238C18.5787 14.9519 18.5492 14.9808 18.5206 15.0106C18.492 15.0405 18.4643 15.0711 18.4375 15.1026C18.4107 15.1342 18.3849 15.1665 18.3601 15.1995C18.3352 15.2326 18.3113 15.2664 18.2884 15.3009C18.2655 15.3355 18.2437 15.3707 18.223 15.4065C18.2022 15.4424 18.1825 15.4788 18.1639 15.5158C18.1453 15.5529 18.1278 15.5905 18.1114 15.6286C18.095 15.6667 18.0798 15.7053 18.0657 15.7443C18.0516 15.7833 18.0387 15.8227 18.027 15.8626C18.0152 15.9024 18.0047 15.9425 17.9953 15.983C17.986 16.0234 17.9778 16.0641 17.9709 16.1051C17.9639 16.146 17.9582 16.1871 17.9537 16.2284C17.9492 16.2698 17.9459 16.3111 17.9439 16.3526C17.9418 16.3941 17.941 16.4357 17.9415 16.4772C17.9419 16.5188 17.9436 16.5602 17.9464 16.6017C17.9493 16.6431 17.9534 16.6844 17.9588 16.7256C17.9641 16.7668 17.9707 16.8078 17.9785 16.8486C17.9862 16.8894 17.9952 16.9299 18.0054 16.9702C18.0156 17.0104 18.0269 17.0504 18.0395 17.0899C18.0521 17.1295 18.0658 17.1686 18.0807 17.2074C18.0956 17.2461 18.1116 17.2843 18.1287 17.3221C18.1459 17.3599 18.1641 17.397 18.1835 17.4337C18.2029 17.4704 18.2233 17.5064 18.2448 17.5418C18.2663 17.5772 18.2888 17.6119 18.3124 17.646C18.336 17.68 18.3605 17.7133 18.386 17.7459C18.4116 17.7784 18.4381 17.8102 18.4655 17.8411C18.4929 17.872 18.5212 17.9021 18.5505 17.9314C18.5797 17.9606 18.6097 17.9889 18.6406 18.0163C18.6715 18.0437 18.7032 18.0701 18.7357 18.0956C18.7681 18.1211 18.8013 18.1456 18.8353 18.169C18.8692 18.1925 18.9038 18.2149 18.939 18.2363C18.9743 18.2577 19.0101 18.2779 19.0466 18.2971C19.083 18.3163 19.12 18.3344 19.1576 18.3513C19.1951 18.3683 19.2331 18.3841 19.2716 18.3987C19.31 18.4134 19.3489 18.4268 19.3881 18.4391C19.4274 18.4514 19.467 18.4625 19.5069 18.4723C19.5469 18.4822 19.5871 18.4909 19.6275 18.4983C19.6679 18.5058 19.7085 18.512 19.7494 18.517C19.7902 18.5219 19.8311 18.5256 19.8721 18.5281C19.9131 18.5306 19.9542 18.5319 19.9953 18.5319C20.0364 18.5319 20.0775 18.5306 20.1185 18.5281C20.1595 18.5256 20.2004 18.5219 20.2413 18.517C20.2821 18.512 20.3227 18.5058 20.3631 18.4983C20.4036 18.4909 20.4438 18.4822 20.4837 18.4723C20.5236 18.4625 20.5632 18.4514 20.6025 18.4391C20.6418 18.4268 20.6806 18.4134 20.7191 18.3987C20.7576 18.3841 20.7955 18.3683 20.8331 18.3513C20.8706 18.3344 20.9076 18.3163 20.944 18.2971C20.9805 18.2779 21.0164 18.2577 21.0516 18.2363C21.0869 18.2149 21.1215 18.1925 21.1554 18.169C21.1893 18.1456 21.2225 18.1211 21.255 18.0956C21.2874 18.0701 21.3191 18.0437 21.35 18.0163C21.3809 17.9889 21.4109 17.9606 21.4402 17.9314C21.4694 17.9021 21.4977 17.872 21.5251 17.8411C21.5526 17.8102 21.579 17.7784 21.6046 17.7459C21.6301 17.7133 21.6547 17.68 21.6782 17.646C21.7018 17.6119 21.7243 17.5772 21.7458 17.5418C21.7673 17.5064 21.7878 17.4704 21.8071 17.4337C21.8265 17.397 21.8448 17.3599 21.8619 17.3221C21.8791 17.2843 21.8951 17.2461 21.9099 17.2074C21.9248 17.1686 21.9386 17.1295 21.9511 17.0899C21.9637 17.0504 21.975 17.0104 21.9852 16.9702C21.9954 16.9299 22.0044 16.8894 22.0122 16.8486C22.0199 16.8078 22.0265 16.7668 22.0318 16.7256C22.0372 16.6844 22.0413 16.6431 22.0442 16.6017C22.0471 16.5602 22.0487 16.5188 22.0492 16.4772C22.0496 16.4357 22.0488 16.3941 22.0467 16.3526C22.0447 16.3111 22.0414 16.2698 22.0369 16.2284C22.0324 16.1871 22.0267 16.146 22.0198 16.1051C22.0128 16.0641 22.0046 16.0234 21.9953 15.9829C21.9859 15.9425 21.9754 15.9024 21.9637 15.8626C21.9519 15.8227 21.939 15.7833 21.9249 15.7443C21.9108 15.7053 21.8956 15.6667 21.8792 15.6286C21.8628 15.5905 21.8453 15.5529 21.8267 15.5158C21.8081 15.4788 21.7884 15.4424 21.7677 15.4065C21.7469 15.3707 21.7251 15.3355 21.7022 15.3009C21.6793 15.2664 21.6555 15.2326 21.6306 15.1995C21.6057 15.1665 21.5799 15.1342 21.5531 15.1026C21.5263 15.0711 21.4986 15.0405 21.47 15.0106C21.4414 14.9808 21.4119 14.9519 21.3816 14.9238C21.3513 14.8958 21.3201 14.8687 21.2882 14.8425C21.2562 14.8164 21.2235 14.7912 21.1901 14.7671C21.1567 14.7429 21.1226 14.7197 21.0878 14.6976C21.053 14.6755 21.0175 14.6545 20.9815 14.6346C20.9454 14.6146 20.9088 14.5958 20.8716 14.5781C20.8344 14.5603 20.7968 14.5438 20.7586 14.5283C20.7205 14.5129 20.6819 14.4986 20.6429 14.4855C20.6038 14.4724 20.5645 14.4605 20.5248 14.4498C20.6107 13.7604 20.6609 13.0684 20.6754 12.3737C20.7077 12.354 20.7381 12.3317 20.7667 12.3068L24.5186 9.30793C24.5273 9.29832 24.5362 9.28899 24.5455 9.27993C24.5547 9.27088 24.5642 9.26211 24.5739 9.25364C24.5837 9.24516 24.5937 9.237 24.604 9.22914C24.6142 9.22128 24.6247 9.21375 24.6354 9.20653C24.6461 9.19932 24.657 9.19244 24.6681 9.1859C24.6793 9.17936 24.6906 9.17316 24.702 9.16732C24.7135 9.16147 24.7252 9.15598 24.737 9.15085C24.7489 9.14572 24.7608 9.14096 24.7729 9.13656C24.785 9.13217 24.7973 9.12815 24.8096 9.12451C24.822 9.12087 24.8344 9.11761 24.847 9.11473C24.8595 9.11185 24.8721 9.10937 24.8848 9.10726C24.8975 9.10516 24.9103 9.10345 24.9231 9.10214C24.9359 9.10082 24.9487 9.0999 24.9616 9.09937C24.9744 9.09885 24.9873 9.09871 25.0001 9.09898C25.013 9.09924 25.0258 9.0999 25.0387 9.10095C25.0515 9.10201 25.0643 9.10345 25.077 9.10529C25.0898 9.10713 25.1024 9.10936 25.115 9.11198C25.1276 9.1146 25.1402 9.1176 25.1526 9.12099C25.165 9.12438 25.1773 9.12814 25.1895 9.13229C25.2017 9.13643 25.2138 9.14095 25.2257 9.14583C25.2376 9.15072 25.2494 9.15597 25.261 9.16158C25.2726 9.16719 25.284 9.17315 25.2953 9.17946C25.3065 9.18578 25.3176 9.19243 25.3284 9.19942C25.3393 9.20641 25.3499 9.21373 25.3603 9.22138C25.3707 9.22902 25.3809 9.23698 25.3908 9.24525C25.4007 9.25352 25.4104 9.26209 25.4198 9.27096C25.4292 9.27982 25.4384 9.28897 25.4472 9.2984C25.4561 9.30782 25.4647 9.31753 25.4729 9.32747C25.4812 9.33742 25.4892 9.34764 25.4968 9.35808C25.5045 9.36853 25.5119 9.37919 25.5189 9.39008C25.5259 9.40099 25.5326 9.41209 25.5389 9.42339C25.5453 9.43472 25.5513 9.4462 25.557 9.45788C26.1157 10.6251 26.5592 11.8353 26.8875 13.0888C27.5721 15.7139 28.0286 17.4417 27.2481 18.9458C26.1298 21.128 23.1561 21.7139 20.0044 21.7139C16.8527 21.7139 13.8791 21.128 12.7494 18.9458ZM23.1105 30.4014C20.6275 30.2244 19.3 28.9027 19.1281 26.436C19.3487 23.9754 20.6785 22.6528 23.1173 22.4683C25.6429 22.6943 26.9955 24.0169 27.175 26.436C26.997 28.8965 25.6445 30.2184 23.1173 30.4014L23.1105 30.4014ZM27.1636 23.8408C27.1564 23.7956 27.1475 23.7508 27.1368 23.7063C27.1261 23.6619 27.1138 23.6179 27.0997 23.5744C27.0857 23.5309 27.07 23.488 27.0526 23.4457C27.0353 23.4034 27.0164 23.3619 26.9958 23.3211C26.9753 23.2804 26.9532 23.2404 26.9296 23.2014C26.906 23.1623 26.8809 23.1243 26.8544 23.0872C26.8279 23.0501 26.8 23.0141 26.7707 22.9793C26.7414 22.9444 26.7108 22.9107 26.6789 22.8782C26.647 22.8457 26.6139 22.8145 26.5796 22.7846C26.5454 22.7547 26.51 22.7262 26.4735 22.6991C26.437 22.672 26.3996 22.6464 26.3611 22.6222C26.3227 22.598 26.2834 22.5754 26.2432 22.5543C26.203 22.5333 26.1621 22.5138 26.1204 22.4959C26.0787 22.4781 26.0364 22.4619 25.9935 22.4473C25.9506 22.4328 25.9072 22.4199 25.8632 22.4088C25.8193 22.3976 25.7751 22.3883 25.7304 22.3806L25.7304 21.647C25.764 21.6519 25.7974 21.6575 25.8307 21.6637C25.864 21.67 25.8972 21.6769 25.9302 21.6845C25.9632 21.6922 25.9961 21.7005 26.0287 21.7095C26.0614 21.7185 26.0939 21.7281 26.1262 21.7385C26.1585 21.7489 26.1906 21.7599 26.2224 21.7716C26.2542 21.7832 26.2858 21.7956 26.3172 21.8086C26.3485 21.8216 26.3796 21.8353 26.4103 21.8495C26.4411 21.8638 26.4716 21.8788 26.5018 21.8943C26.5319 21.9099 26.5618 21.9261 26.5913 21.9429C26.6208 21.9597 26.65 21.9771 26.6788 21.9952C26.7076 22.0132 26.736 22.0318 26.7641 22.051C26.7921 22.0702 26.8197 22.09 26.847 22.1104C26.8742 22.1307 26.901 22.1516 26.9274 22.1731C26.9538 22.1945 26.9798 22.2166 27.0052 22.2391C27.0307 22.2617 27.0557 22.2847 27.0803 22.3083C27.1048 22.3319 27.1289 22.356 27.1525 22.3806C27.176 22.4052 27.1991 22.4303 27.2216 22.4559C27.2442 22.4814 27.2662 22.5074 27.2877 22.5339C27.3092 22.5604 27.3301 22.5873 27.3505 22.6146C27.3709 22.642 27.3907 22.6698 27.4099 22.6979C27.4292 22.7261 27.4479 22.7546 27.466 22.7836C27.4841 22.8125 27.5016 22.8419 27.5185 22.8716C27.5354 22.9012 27.5517 22.9312 27.5673 22.9616C27.583 22.9919 27.598 23.0226 27.6125 23.0536C27.6269 23.0846 27.6407 23.1158 27.6538 23.1474C27.667 23.179 27.6795 23.2108 27.6913 23.2429C27.7032 23.2749 27.7144 23.3072 27.7249 23.3398C27.7355 23.3723 27.7454 23.4051 27.7545 23.438C27.7637 23.471 27.7723 23.5041 27.7801 23.5374C27.788 23.5707 27.7952 23.6042 27.8016 23.6378C27.8081 23.6714 27.8139 23.7051 27.819 23.739C27.8242 23.7728 27.8286 23.8068 27.8323 23.8408L27.1636 23.8408Z" fill-rule="evenodd"  fill="#606060" >
</path>
<path d="M23.1121 23.7422C21.5222 23.876 20.658 24.7726 20.5195 26.4319C20.658 28.0851 21.5222 28.9809 23.1121 29.1193C24.7081 28.9809 25.5723 28.0851 25.7046 26.4319C25.5723 24.7741 24.7081 23.8775 23.1121 23.7422Z" fill-rule="evenodd"  fill="#606060" >
</path>
</g>
<defs>
<clipPath id="clip-path-71_133">
<path d="M10 33L29.8824 33L29.8824 7L10 7L10 33Z" fill="white"/>
</clipPath>
</defs>
</svg>
