<svg xmlns="http://www.w3.org/2000/svg" xmlns:xlink="http://www.w3.org/1999/xlink" width="40" height="40" viewBox="0 0 40 40" fill="none">
<circle cx="20" cy="20" r="20"   fill="#E5E5E5" >
</circle>
<path d="M9.16536 8.07812L30.832 8.07812C30.9032 8.07812 30.9736 8.08506 31.0434 8.09894C31.1131 8.11282 31.1809 8.13337 31.2466 8.16059C31.3123 8.18781 31.3748 8.22118 31.4339 8.2607C31.4931 8.30022 31.5478 8.34513 31.598 8.39543C31.6483 8.44572 31.6932 8.50045 31.7328 8.55959C31.7723 8.61873 31.8057 8.68117 31.8329 8.74689C31.8601 8.8126 31.8807 8.88034 31.8946 8.95011C31.9084 9.01988 31.9154 9.09033 31.9154 9.16146C31.9154 9.23259 31.9084 9.30304 31.8946 9.37281C31.8807 9.44257 31.8601 9.51031 31.8329 9.57603C31.8057 9.64175 31.7723 9.70418 31.7328 9.76332C31.6932 9.82247 31.6483 9.87719 31.598 9.92749C31.5478 9.97779 31.4931 10.0227 31.4339 10.0622C31.3748 10.1017 31.3123 10.1351 31.2466 10.1623C31.1809 10.1895 31.1131 10.2101 31.0434 10.224C30.9736 10.2379 30.9032 10.2448 30.832 10.2448L9.16536 10.2448C9.09423 10.2448 9.02378 10.2379 8.95402 10.224C8.88425 10.2101 8.81651 10.1895 8.75079 10.1623C8.68507 10.1351 8.62264 10.1017 8.5635 10.0622C8.50435 10.0227 8.44963 9.97779 8.39933 9.92749C8.34903 9.87719 8.30412 9.82247 8.26461 9.76332C8.22509 9.70418 8.19172 9.64175 8.1645 9.57603C8.13727 9.51031 8.11672 9.44257 8.10285 9.37281C8.08897 9.30304 8.08203 9.23259 8.08203 9.16146C8.08203 9.09033 8.08897 9.01988 8.10285 8.95011C8.11672 8.88034 8.13727 8.8126 8.1645 8.74689C8.19172 8.68117 8.22509 8.61873 8.26461 8.55959C8.30412 8.50045 8.34903 8.44572 8.39933 8.39543C8.44963 8.34513 8.50435 8.30022 8.5635 8.2607C8.62264 8.22118 8.68507 8.18781 8.75079 8.16059C8.81651 8.13337 8.88425 8.11282 8.95402 8.09894C9.02378 8.08506 9.09423 8.07812 9.16536 8.07812Z" fill-rule="evenodd"  fill="#606060" >
</path>
<path d="M12.4154 9.17188L27.582 9.17188C28.1803 9.17188 28.6654 9.6569 28.6654 10.2552L28.6654 29.7552C28.6654 30.3535 28.1803 30.8385 27.582 30.8385L12.4154 30.8385C11.8171 30.8385 11.332 30.3535 11.332 29.7552L11.332 10.2552C11.332 9.6569 11.8171 9.17188 12.4154 9.17188Z"   fill="#606060" >
</path>
<path d="M27.5833 8.07812L12.4167 8.07812C11.22 8.07812 10.25 9.04817 10.25 10.2448L10.25 29.7448C10.25 30.9414 11.22 31.9115 12.4167 31.9115L27.5833 31.9115C28.78 31.9115 29.75 30.9414 29.75 29.7448L29.75 10.2448C29.75 9.04817 28.78 8.07812 27.5833 8.07812ZM12.4167 29.7448L12.4167 10.2448L27.5833 10.2448L27.5833 29.7448L12.4167 29.7448Z" fill-rule="evenodd"  fill="#606060" >
</path>
<path d="M22.1667 23.25L17.8333 23.25C17.69 23.25 17.5521 23.2774 17.4196 23.3321C17.2871 23.3869 17.1701 23.4649 17.0685 23.5661C17.0677 23.5669 17.0669 23.5677 17.0661 23.5685C16.9649 23.6701 16.8869 23.7871 16.8321 23.9196C16.7774 24.0521 16.75 24.19 16.75 24.3333L16.75 30.8333C16.75 31.4316 17.235 31.9167 17.8333 31.9167L22.1667 31.9167C22.765 31.9167 23.25 31.4316 23.25 30.8333L23.25 24.3333C23.25 23.735 22.765 23.25 22.1667 23.25ZM18.9167 25.4167L18.9167 29.75L21.0833 29.75L21.0833 25.4167L18.9167 25.4167Z" fill-rule="evenodd"  fill="#E5E5E5" >
</path>
<path d="M15.1263 12.4219L16.2096 12.4219C16.2808 12.4219 16.3512 12.4288 16.421 12.4427C16.4907 12.4566 16.5585 12.4771 16.6242 12.5043C16.6899 12.5316 16.7524 12.5649 16.8115 12.6044C16.8706 12.644 16.9254 12.6889 16.9757 12.7392C17.026 12.7895 17.0709 12.8442 17.1104 12.9033C17.1499 12.9625 17.1833 13.0249 17.2105 13.0906C17.2377 13.1564 17.2583 13.2241 17.2722 13.2939C17.286 13.3636 17.293 13.4341 17.293 13.5052C17.293 13.5763 17.286 13.6468 17.2722 13.7166C17.2583 13.7863 17.2377 13.8541 17.2105 13.9198C17.1833 13.9855 17.1499 14.0479 17.1104 14.1071C17.0709 14.1662 17.026 14.2209 16.9757 14.2712C16.9254 14.3215 16.8706 14.3664 16.8115 14.406C16.7524 14.4455 16.6899 14.4789 16.6242 14.5061C16.5585 14.5333 16.4907 14.5538 16.421 14.5677C16.3512 14.5816 16.2808 14.5885 16.2096 14.5885L15.1263 14.5885C15.0552 14.5885 14.9847 14.5816 14.915 14.5677C14.8452 14.5538 14.7774 14.5333 14.7117 14.5061C14.646 14.4789 14.5836 14.4455 14.5244 14.406C14.4653 14.3664 14.4106 14.3215 14.3603 14.2712C14.31 14.2209 14.2651 14.1662 14.2255 14.1071C14.186 14.0479 14.1527 13.9855 14.1254 13.9198C14.0982 13.8541 14.0777 13.7863 14.0638 13.7166C14.0499 13.6468 14.043 13.5763 14.043 13.5052C14.043 13.4341 14.0499 13.3636 14.0638 13.2939C14.0777 13.2241 14.0982 13.1564 14.1254 13.0906C14.1527 13.0249 14.186 12.9625 14.2255 12.9033C14.2651 12.8442 14.31 12.7895 14.3603 12.7392C14.4106 12.6889 14.4653 12.644 14.5244 12.6045C14.5836 12.5649 14.646 12.5316 14.7117 12.5043C14.7774 12.4771 14.8452 12.4566 14.915 12.4427C14.9847 12.4288 15.0552 12.4219 15.1263 12.4219Z" fill-rule="evenodd"  fill="#E5E5E5" >
</path>
<path d="M15.1263 15.6719L16.2096 15.6719C16.2808 15.6719 16.3512 15.6788 16.421 15.6927C16.4907 15.7066 16.5585 15.7271 16.6242 15.7543C16.6899 15.7816 16.7524 15.8149 16.8115 15.8544C16.8706 15.894 16.9254 15.9389 16.9757 15.9892C17.026 16.0395 17.0709 16.0942 17.1104 16.1533C17.1499 16.2125 17.1833 16.2749 17.2105 16.3406C17.2377 16.4064 17.2583 16.4741 17.2722 16.5439C17.286 16.6136 17.293 16.6841 17.293 16.7552C17.293 16.8263 17.286 16.8968 17.2722 16.9666C17.2583 17.0363 17.2377 17.1041 17.2105 17.1698C17.1833 17.2355 17.1499 17.2979 17.1104 17.3571C17.0709 17.4162 17.026 17.4709 16.9757 17.5212C16.9254 17.5715 16.8706 17.6164 16.8115 17.656C16.7524 17.6955 16.6899 17.7289 16.6242 17.7561C16.5585 17.7833 16.4907 17.8038 16.421 17.8177C16.3512 17.8316 16.2808 17.8385 16.2096 17.8385L15.1263 17.8385C15.0552 17.8385 14.9847 17.8316 14.915 17.8177C14.8452 17.8038 14.7774 17.7833 14.7117 17.7561C14.646 17.7289 14.5836 17.6955 14.5244 17.656C14.4653 17.6164 14.4106 17.5715 14.3603 17.5212C14.31 17.4709 14.2651 17.4162 14.2255 17.3571C14.186 17.2979 14.1527 17.2355 14.1254 17.1698C14.0982 17.1041 14.0777 17.0363 14.0638 16.9666C14.0499 16.8968 14.043 16.8263 14.043 16.7552C14.043 16.6841 14.0499 16.6136 14.0638 16.5439C14.0777 16.4741 14.0982 16.4064 14.1254 16.3406C14.1527 16.2749 14.186 16.2125 14.2255 16.1533C14.2651 16.0942 14.31 16.0395 14.3603 15.9892C14.4106 15.9389 14.4653 15.894 14.5244 15.8545C14.5836 15.8149 14.646 15.7816 14.7117 15.7543C14.7774 15.7271 14.8452 15.7066 14.915 15.6927C14.9847 15.6788 15.0552 15.6719 15.1263 15.6719Z" fill-rule="evenodd"  fill="#E5E5E5" >
</path>
<path d="M19.4583 12.4219L20.5417 12.4219C20.6128 12.4219 20.6832 12.4288 20.753 12.4427C20.8228 12.4566 20.8905 12.4771 20.9562 12.5043C21.022 12.5316 21.0844 12.5649 21.1435 12.6044C21.2027 12.644 21.2574 12.6889 21.3077 12.7392C21.358 12.7895 21.4029 12.8442 21.4424 12.9033C21.4819 12.9625 21.5153 13.0249 21.5425 13.0906C21.5698 13.1564 21.5903 13.2241 21.6042 13.2939C21.6181 13.3636 21.625 13.4341 21.625 13.5052C21.625 13.5763 21.6181 13.6468 21.6042 13.7166C21.5903 13.7863 21.5698 13.8541 21.5425 13.9198C21.5153 13.9855 21.4819 14.0479 21.4424 14.1071C21.4029 14.1662 21.358 14.2209 21.3077 14.2712C21.2574 14.3215 21.2027 14.3664 21.1435 14.406C21.0844 14.4455 21.022 14.4789 20.9562 14.5061C20.8905 14.5333 20.8228 14.5538 20.753 14.5677C20.6832 14.5816 20.6128 14.5885 20.5417 14.5885L19.4583 14.5885C19.3872 14.5885 19.3168 14.5816 19.247 14.5677C19.1772 14.5538 19.1095 14.5333 19.0438 14.5061C18.978 14.4789 18.9156 14.4455 18.8565 14.406C18.7973 14.3664 18.7426 14.3215 18.6923 14.2712C18.642 14.2209 18.5971 14.1662 18.5576 14.1071C18.5181 14.0479 18.4847 13.9855 18.4575 13.9198C18.4302 13.8541 18.4097 13.7863 18.3958 13.7166C18.3819 13.6468 18.375 13.5763 18.375 13.5052C18.375 13.4341 18.3819 13.3636 18.3958 13.2939C18.4097 13.2241 18.4302 13.1564 18.4575 13.0906C18.4847 13.0249 18.5181 12.9625 18.5576 12.9033C18.5971 12.8442 18.642 12.7895 18.6923 12.7392C18.7426 12.6889 18.7973 12.644 18.8565 12.6045C18.9156 12.5649 18.978 12.5316 19.0438 12.5043C19.1095 12.4771 19.1772 12.4566 19.247 12.4427C19.3168 12.4288 19.3872 12.4219 19.4583 12.4219Z" fill-rule="evenodd"  fill="#E5E5E5" >
</path>
<path d="M19.4583 15.6719L20.5417 15.6719C20.6128 15.6719 20.6832 15.6788 20.753 15.6927C20.8228 15.7066 20.8905 15.7271 20.9562 15.7543C21.022 15.7816 21.0844 15.8149 21.1435 15.8544C21.2027 15.894 21.2574 15.9389 21.3077 15.9892C21.358 16.0395 21.4029 16.0942 21.4424 16.1533C21.4819 16.2125 21.5153 16.2749 21.5425 16.3406C21.5698 16.4064 21.5903 16.4741 21.6042 16.5439C21.6181 16.6136 21.625 16.6841 21.625 16.7552C21.625 16.8263 21.6181 16.8968 21.6042 16.9666C21.5903 17.0363 21.5698 17.1041 21.5425 17.1698C21.5153 17.2355 21.4819 17.2979 21.4424 17.3571C21.4029 17.4162 21.358 17.4709 21.3077 17.5212C21.2574 17.5715 21.2027 17.6164 21.1435 17.656C21.0844 17.6955 21.022 17.7289 20.9562 17.7561C20.8905 17.7833 20.8228 17.8038 20.753 17.8177C20.6832 17.8316 20.6128 17.8385 20.5417 17.8385L19.4583 17.8385C19.3872 17.8385 19.3168 17.8316 19.247 17.8177C19.1772 17.8038 19.1095 17.7833 19.0438 17.7561C18.978 17.7289 18.9156 17.6955 18.8565 17.656C18.7973 17.6164 18.7426 17.5715 18.6923 17.5212C18.642 17.4709 18.5971 17.4162 18.5576 17.3571C18.5181 17.2979 18.4847 17.2355 18.4575 17.1698C18.4302 17.1041 18.4097 17.0363 18.3958 16.9666C18.3819 16.8968 18.375 16.8263 18.375 16.7552C18.375 16.6841 18.3819 16.6136 18.3958 16.5439C18.4097 16.4741 18.4302 16.4064 18.4575 16.3406C18.4847 16.2749 18.5181 16.2125 18.5576 16.1533C18.5971 16.0942 18.642 16.0395 18.6923 15.9892C18.7426 15.9389 18.7973 15.894 18.8565 15.8545C18.9156 15.8149 18.978 15.7816 19.0438 15.7543C19.1095 15.7271 19.1772 15.7066 19.247 15.6927C19.3168 15.6788 19.3872 15.6719 19.4583 15.6719Z" fill-rule="evenodd"  fill="#E5E5E5" >
</path>
<path d="M23.7904 12.4219L24.8737 12.4219C24.9448 12.4219 25.0153 12.4288 25.085 12.4427C25.1548 12.4566 25.2226 12.4771 25.2883 12.5043C25.354 12.5316 25.4164 12.5649 25.4756 12.6044C25.5347 12.644 25.5894 12.6889 25.6397 12.7392C25.69 12.7895 25.7349 12.8442 25.7745 12.9033C25.814 12.9625 25.8473 13.0249 25.8746 13.0906C25.9018 13.1564 25.9223 13.2241 25.9362 13.2939C25.9501 13.3636 25.957 13.4341 25.957 13.5052C25.957 13.5763 25.9501 13.6468 25.9362 13.7166C25.9223 13.7863 25.9018 13.8541 25.8746 13.9198C25.8473 13.9855 25.814 14.0479 25.7745 14.1071C25.7349 14.1662 25.69 14.2209 25.6397 14.2712C25.5894 14.3215 25.5347 14.3664 25.4756 14.406C25.4164 14.4455 25.354 14.4789 25.2883 14.5061C25.2226 14.5333 25.1548 14.5538 25.085 14.5677C25.0153 14.5816 24.9448 14.5885 24.8737 14.5885L23.7904 14.5885C23.7192 14.5885 23.6488 14.5816 23.579 14.5677C23.5093 14.5538 23.4415 14.5333 23.3758 14.5061C23.3101 14.4789 23.2476 14.4455 23.1885 14.406C23.1294 14.3664 23.0746 14.3215 23.0243 14.2712C22.974 14.2209 22.9291 14.1662 22.8896 14.1071C22.8501 14.0479 22.8167 13.9855 22.7895 13.9198C22.7623 13.8541 22.7417 13.7863 22.7278 13.7166C22.714 13.6468 22.707 13.5763 22.707 13.5052C22.707 13.4341 22.714 13.3636 22.7278 13.2939C22.7417 13.2241 22.7623 13.1564 22.7895 13.0906C22.8167 13.0249 22.8501 12.9625 22.8896 12.9033C22.9291 12.8442 22.974 12.7895 23.0243 12.7392C23.0746 12.6889 23.1294 12.644 23.1885 12.6045C23.2476 12.5649 23.3101 12.5316 23.3758 12.5043C23.4415 12.4771 23.5093 12.4566 23.579 12.4427C23.6488 12.4288 23.7192 12.4219 23.7904 12.4219Z" fill-rule="evenodd"  fill="#E5E5E5" >
</path>
<path d="M23.7904 15.6719L24.8737 15.6719C24.9448 15.6719 25.0153 15.6788 25.085 15.6927C25.1548 15.7066 25.2226 15.7271 25.2883 15.7543C25.354 15.7816 25.4164 15.8149 25.4756 15.8544C25.5347 15.894 25.5894 15.9389 25.6397 15.9892C25.69 16.0395 25.7349 16.0942 25.7745 16.1533C25.814 16.2125 25.8473 16.2749 25.8746 16.3406C25.9018 16.4064 25.9223 16.4741 25.9362 16.5439C25.9501 16.6136 25.957 16.6841 25.957 16.7552C25.957 16.8263 25.9501 16.8968 25.9362 16.9666C25.9223 17.0363 25.9018 17.1041 25.8746 17.1698C25.8473 17.2355 25.814 17.2979 25.7745 17.3571C25.7349 17.4162 25.69 17.4709 25.6397 17.5212C25.5894 17.5715 25.5347 17.6164 25.4756 17.656C25.4164 17.6955 25.354 17.7289 25.2883 17.7561C25.2226 17.7833 25.1548 17.8038 25.085 17.8177C25.0153 17.8316 24.9448 17.8385 24.8737 17.8385L23.7904 17.8385C23.7192 17.8385 23.6488 17.8316 23.579 17.8177C23.5093 17.8038 23.4415 17.7833 23.3758 17.7561C23.3101 17.7289 23.2476 17.6955 23.1885 17.656C23.1294 17.6164 23.0746 17.5715 23.0243 17.5212C22.974 17.4709 22.9291 17.4162 22.8896 17.3571C22.8501 17.2979 22.8167 17.2355 22.7895 17.1698C22.7623 17.1041 22.7417 17.0363 22.7278 16.9666C22.714 16.8968 22.707 16.8263 22.707 16.7552C22.707 16.6841 22.714 16.6136 22.7278 16.5439C22.7417 16.4741 22.7623 16.4064 22.7895 16.3406C22.8167 16.2749 22.8501 16.2125 22.8896 16.1533C22.9291 16.0942 22.974 16.0395 23.0243 15.9892C23.0746 15.9389 23.1294 15.894 23.1885 15.8545C23.2476 15.8149 23.3101 15.7816 23.3758 15.7543C23.4415 15.7271 23.5093 15.7066 23.579 15.6927C23.6488 15.6788 23.7192 15.6719 23.7904 15.6719Z" fill-rule="evenodd"  fill="#E5E5E5" >
</path>
<path d="M9.16536 29.75L30.832 29.75C30.9032 29.75 30.9736 29.7569 31.0434 29.7708C31.1131 29.7847 31.1809 29.8052 31.2466 29.8325C31.3123 29.8597 31.3748 29.8931 31.4339 29.9326C31.4931 29.9721 31.5478 30.017 31.598 30.0673C31.6483 30.1176 31.6932 30.1723 31.7328 30.2315C31.7723 30.2906 31.8057 30.353 31.8329 30.4188C31.8601 30.4845 31.8807 30.5522 31.8946 30.622C31.9084 30.6918 31.9154 30.7622 31.9154 30.8333C31.9154 30.9045 31.9084 30.9749 31.8946 31.0447C31.8807 31.1144 31.8601 31.1822 31.8329 31.2479C31.8057 31.3136 31.7723 31.3761 31.7328 31.4352C31.6932 31.4943 31.6483 31.5491 31.598 31.5994C31.5478 31.6497 31.4931 31.6946 31.4339 31.7341C31.3748 31.7736 31.3123 31.807 31.2466 31.8342C31.1809 31.8614 31.1131 31.882 31.0434 31.8958C30.9736 31.9097 30.9032 31.9167 30.832 31.9167L9.16536 31.9167C9.09423 31.9167 9.02378 31.9097 8.95402 31.8958C8.88425 31.882 8.81651 31.8614 8.75079 31.8342C8.68507 31.807 8.62264 31.7736 8.5635 31.7341C8.50435 31.6946 8.44963 31.6497 8.39933 31.5994C8.34903 31.5491 8.30412 31.4943 8.26461 31.4352C8.22509 31.3761 8.19172 31.3136 8.1645 31.2479C8.13727 31.1822 8.11672 31.1144 8.10285 31.0447C8.08897 30.9749 8.08203 30.9045 8.08203 30.8333C8.08203 30.7622 8.08897 30.6918 8.10285 30.622C8.11672 30.5522 8.13727 30.4845 8.1645 30.4188C8.19172 30.353 8.22509 30.2906 8.26461 30.2315C8.30412 30.1723 8.34903 30.1176 8.39933 30.0673C8.44963 30.017 8.50435 29.9721 8.5635 29.9326C8.62264 29.8931 8.68507 29.8597 8.75079 29.8325C8.81651 29.8052 8.88425 29.7847 8.95402 29.7708C9.02378 29.7569 9.09423 29.75 9.16536 29.75Z" fill-rule="evenodd"  fill="#606060" >
</path>
<path d="M22.4053 23.25L22.1661 23.25C22.095 23.25 22.0246 23.2569 21.9548 23.2708C21.885 23.2847 21.8173 23.3052 21.7516 23.3325C21.6858 23.3597 21.6234 23.3931 21.5643 23.4326C21.5051 23.4721 21.4504 23.517 21.4001 23.5673C21.3498 23.6176 21.3049 23.6723 21.2654 23.7315C21.2259 23.7906 21.1925 23.853 21.1653 23.9188C21.138 23.9845 21.1175 24.0522 21.1036 24.122C21.0897 24.1918 21.0828 24.2622 21.0828 24.3333C21.0828 24.4045 21.0897 24.4749 21.1036 24.5447C21.1175 24.6144 21.138 24.6822 21.1653 24.7479C21.1925 24.8136 21.2259 24.8761 21.2654 24.9352C21.3049 24.9943 21.3498 25.0491 21.4001 25.0994C21.4504 25.1497 21.5051 25.1946 21.5643 25.2341C21.6234 25.2736 21.6858 25.307 21.7516 25.3342C21.8173 25.3614 21.885 25.382 21.9548 25.3958C22.0246 25.4097 22.095 25.4167 22.1661 25.4167L23.2495 25.4167C23.7139 25.4167 24.1029 25.2501 24.4167 24.9169C24.7728 24.5388 24.9015 24.0958 24.8028 23.5881C24.3373 21.196 22.7362 20 19.9995 20C17.2627 20 15.6616 21.196 15.1962 23.5879C15.0975 24.0958 15.2262 24.5388 15.5823 24.9169C15.896 25.2501 16.2851 25.4167 16.7495 25.4167L17.8328 25.4167C17.9039 25.4167 17.9744 25.4097 18.0442 25.3958C18.1139 25.382 18.1817 25.3614 18.2474 25.3342C18.3131 25.307 18.3755 25.2736 18.4347 25.2341C18.4938 25.1946 18.5485 25.1497 18.5988 25.0994C18.6491 25.0491 18.6941 24.9943 18.7336 24.9352C18.7731 24.8761 18.8065 24.8136 18.8337 24.7479C18.8609 24.6822 18.8815 24.6144 18.8953 24.5447C18.9092 24.4749 18.9161 24.4045 18.9161 24.3333C18.9161 24.2622 18.9092 24.1918 18.8953 24.122C18.8815 24.0522 18.8609 23.9845 18.8337 23.9188C18.8065 23.853 18.7731 23.7906 18.7336 23.7315C18.6941 23.6723 18.6491 23.6176 18.5988 23.5673C18.5485 23.517 18.4938 23.4721 18.4347 23.4326C18.3755 23.3931 18.3131 23.3597 18.2474 23.3325C18.1817 23.3052 18.1139 23.2847 18.0442 23.2708C17.9744 23.2569 17.9039 23.25 17.8328 23.25L17.5937 23.25C18.0095 22.5278 18.8114 22.1667 19.9995 22.1667C21.1876 22.1667 21.9896 22.5278 22.4053 23.25Z" fill-rule="evenodd"  fill="#E5E5E5" >
</path>
</svg>
