<svg xmlns="http://www.w3.org/2000/svg" xmlns:xlink="http://www.w3.org/1999/xlink" width="40" height="40" viewBox="0 0 40 40" fill="none">
<circle cx="20" cy="20" r="20"   fill="#E5E5E5" >
</circle>
<path d="M9.16602 13.5L30.8327 13.5L30.8327 17.8333L30.0752 18.2878C28.8744 19.0083 27.3743 19.0083 26.1735 18.2878L25.416 17.8333L24.6585 18.2878C23.4577 19.0083 21.9576 19.0083 20.7569 18.2878L19.9993 17.8333L19.2418 18.2878C18.0411 19.0083 16.541 19.0083 15.3402 18.2878L14.5827 17.8333L13.8252 18.2878C12.6244 19.0083 11.1243 19.0083 9.92355 18.2878L9.16602 17.8333L9.16602 13.5Z"   fill="#606060" >
</path>
<path d="M30.834 12.4141L9.16732 12.4141C9.02396 12.4141 8.88604 12.4414 8.75355 12.4962C8.62107 12.5509 8.50406 12.6289 8.40253 12.7301C8.4017 12.7309 8.40087 12.7318 8.40005 12.7326C8.29884 12.8341 8.22087 12.9511 8.16611 13.0836C8.11136 13.2161 8.08398 13.354 8.08398 13.4974L8.08398 17.8307C8.08398 18.2113 8.28364 18.5639 8.60996 18.7597L9.36747 19.2142C11.0396 20.2175 12.7117 20.2175 14.3838 19.2142L14.584 19.0941L14.7841 19.2142C16.4563 20.2175 18.1284 20.2175 19.8005 19.2142L20.0007 19.0941L20.2007 19.2142C21.8729 20.2175 23.545 20.2175 25.2171 19.2142L25.4173 19.0941L25.6174 19.2142C27.2896 20.2175 28.9617 20.2175 30.6338 19.2142L31.3914 18.7597C31.7177 18.5639 31.9173 18.2113 31.9173 17.8307L31.9173 13.4974C31.9173 12.8991 31.4323 12.4141 30.834 12.4141ZM10.2507 14.5807L10.2507 17.2173L10.4822 17.3563C11.4112 17.9137 12.3401 17.9137 13.2691 17.3563L14.0266 16.9018C14.3697 16.6959 14.7983 16.6959 15.1414 16.9018L15.8989 17.3563C16.8278 17.9137 17.7568 17.9137 18.6858 17.3563L19.4433 16.9018C19.7864 16.6959 20.2149 16.6959 20.558 16.9018L21.3156 17.3563C22.2445 17.9137 23.1735 17.9137 24.1025 17.3563L24.8599 16.9018C25.203 16.6959 25.6316 16.6959 25.9747 16.9018L26.7323 17.3563C27.6612 17.9137 28.5901 17.9137 29.5191 17.3563L29.7507 17.2174L29.7507 14.5807L10.2507 14.5807Z" fill-rule="evenodd"  fill="#606060" >
</path>
<path d="M12.4167 29.7526L12.4167 19.1841C12.4167 19.113 12.4097 19.0425 12.3959 18.9727C12.382 18.903 12.3614 18.8352 12.3342 18.7695C12.307 18.7038 12.2736 18.6414 12.2341 18.5822C12.1946 18.5231 12.1497 18.4684 12.0994 18.4181C12.0491 18.3678 11.9943 18.3229 11.9352 18.2833C11.8761 18.2438 11.8136 18.2104 11.7479 18.1832C11.6822 18.156 11.6144 18.1355 11.5447 18.1216C11.4749 18.1077 11.4045 18.1008 11.3333 18.1008C11.2622 18.1008 11.1918 18.1077 11.122 18.1216C11.0522 18.1355 10.9845 18.156 10.9188 18.1832C10.853 18.2104 10.7906 18.2438 10.7315 18.2833C10.6723 18.3229 10.6176 18.3678 10.5673 18.4181C10.517 18.4684 10.4721 18.5231 10.4326 18.5822C10.3931 18.6414 10.3597 18.7038 10.3325 18.7695C10.3052 18.8352 10.2847 18.903 10.2708 18.9727C10.2569 19.0425 10.25 19.113 10.25 19.1841L10.25 30.8359C10.25 31.4343 10.735 31.9193 11.3333 31.9193L28.6667 31.9193C29.265 31.9193 29.75 31.4343 29.75 30.8359L29.75 18.9193C29.75 18.8481 29.7431 18.7777 29.7292 18.7079C29.7153 18.6382 29.6948 18.5704 29.6676 18.5047C29.6403 18.439 29.607 18.3765 29.5675 18.3174C29.5279 18.2583 29.483 18.2035 29.4327 18.1532C29.3824 18.1029 29.3277 18.058 29.2686 18.0185C29.2094 17.979 29.147 17.9456 29.0813 17.9184C29.0155 17.8912 28.9478 17.8706 28.878 17.8568C28.8083 17.8429 28.7378 17.8359 28.6667 17.8359C28.5955 17.8359 28.5251 17.8429 28.4553 17.8568C28.3855 17.8706 28.3178 17.8912 28.2521 17.9184C28.1864 17.9456 28.1239 17.979 28.0648 18.0185C28.0056 18.058 27.9509 18.1029 27.9006 18.1532C27.8503 18.2035 27.8054 18.2583 27.7659 18.3174C27.7264 18.3765 27.693 18.439 27.6658 18.5047C27.6385 18.5704 27.618 18.6382 27.6041 18.7079C27.5903 18.7777 27.5833 18.8481 27.5833 18.9193L27.5833 29.7526L12.4167 29.7526Z" fill-rule="evenodd"  fill="#606060" >
</path>
<path d="M10.25 9.16927L10.25 13.4063C10.25 13.4774 10.2569 13.5479 10.2708 13.6176C10.2847 13.6874 10.3052 13.7552 10.3325 13.8209C10.3597 13.8866 10.3931 13.949 10.4326 14.0082C10.4721 14.0673 10.517 14.122 10.5673 14.1723C10.6176 14.2226 10.6723 14.2675 10.7315 14.3071C10.7906 14.3466 10.853 14.3799 10.9188 14.4072C10.9845 14.4344 11.0522 14.4549 11.122 14.4688C11.1918 14.4827 11.2622 14.4896 11.3333 14.4896C11.4045 14.4896 11.4749 14.4827 11.5447 14.4688C11.6144 14.4549 11.6822 14.4344 11.7479 14.4072C11.8136 14.3799 11.8761 14.3466 11.9352 14.3071C11.9943 14.2675 12.0491 14.2226 12.0994 14.1723C12.1497 14.122 12.1946 14.0673 12.2341 14.0082C12.2736 13.949 12.307 13.8866 12.3342 13.8209C12.3614 13.7552 12.382 13.6874 12.3959 13.6176C12.4097 13.5479 12.4167 13.4774 12.4167 13.4063L12.4167 10.2526L27.5833 10.2526L27.5833 13.5026C27.5833 13.5737 27.5903 13.6442 27.6041 13.714C27.618 13.7837 27.6385 13.8515 27.6658 13.9172C27.693 13.9829 27.7264 14.0453 27.7659 14.1045C27.8054 14.1636 27.8503 14.2183 27.9006 14.2686C27.9509 14.3189 28.0056 14.3638 28.0648 14.4034C28.1239 14.4429 28.1864 14.4763 28.2521 14.5035C28.3178 14.5307 28.3855 14.5512 28.4553 14.5651C28.5251 14.579 28.5955 14.5859 28.6667 14.5859C28.7378 14.5859 28.8083 14.579 28.878 14.5651C28.9478 14.5512 29.0155 14.5307 29.0813 14.5035C29.147 14.4763 29.2094 14.4429 29.2686 14.4034C29.3277 14.3638 29.3824 14.3189 29.4327 14.2686C29.483 14.2183 29.5279 14.1636 29.5675 14.1045C29.607 14.0453 29.6403 13.9829 29.6676 13.9172C29.6948 13.8515 29.7153 13.7837 29.7292 13.714C29.7431 13.6442 29.75 13.5737 29.75 13.5026L29.75 9.16927C29.75 8.57096 29.265 8.08594 28.6667 8.08594L11.3333 8.08594C10.735 8.08594 10.25 8.57096 10.25 9.16927Z" fill-rule="evenodd"  fill="#606060" >
</path>
<path d="M17.291 24.3359L22.7077 24.3359L22.7077 30.8359L17.291 30.8359L17.291 24.3359Z"   fill="#606060" >
</path>
<path d="M16.209 24.3333L16.209 30.8333C16.209 31.4316 16.694 31.9167 17.2923 31.9167L22.709 31.9167C23.3073 31.9167 23.7923 31.4316 23.7923 30.8333L23.7923 24.3333C23.7923 23.735 23.3073 23.25 22.709 23.25L17.2923 23.25C16.694 23.25 16.209 23.735 16.209 24.3333ZM18.3757 29.75L18.3757 25.4167L21.6257 25.4167L21.6257 29.75L18.3757 29.75Z" fill-rule="evenodd"  fill="#606060" >
</path>
</svg>
