<svg xmlns="http://www.w3.org/2000/svg" xmlns:xlink="http://www.w3.org/1999/xlink" width="48" height="48" viewBox="0 0 48 48" fill="none">
<circle cx="24" cy="24" r="24"   fill="#FFCA6A" >
</circle>
<path d="M38.6673 33.3359C38.6673 33.4235 38.6588 33.5102 38.6417 33.5961C38.6246 33.6819 38.5994 33.7653 38.5658 33.8462C38.5323 33.9271 38.4913 34.0039 38.4426 34.0767C38.3939 34.1495 38.3387 34.2169 38.2768 34.2787C38.2149 34.3406 38.1476 34.3959 38.0748 34.4446C38.002 34.4932 37.9251 34.5343 37.8443 34.5678C37.7634 34.6013 37.68 34.6266 37.5941 34.6437C37.5083 34.6607 37.4215 34.6693 37.334 34.6693L10.6673 34.6693C10.5798 34.6693 10.4931 34.6607 10.4072 34.6437C10.3213 34.6266 10.238 34.6013 10.1571 34.5678C10.0762 34.5343 9.99935 34.4932 9.92656 34.4446C9.85376 34.3959 9.78641 34.3406 9.72451 34.2787C9.6626 34.2169 9.60733 34.1495 9.55869 34.0767C9.51005 34.0039 9.46898 33.9271 9.43548 33.8462C9.40197 33.7653 9.37668 33.6819 9.3596 33.5961C9.34252 33.5102 9.33398 33.4235 9.33398 33.3359C9.33398 33.2484 9.34252 33.1617 9.3596 33.0758C9.37668 32.9899 9.40198 32.9066 9.43548 32.8257C9.46898 32.7448 9.51005 32.6679 9.55869 32.5951C9.60733 32.5223 9.6626 32.455 9.72451 32.3931C9.78641 32.3312 9.85376 32.2759 9.92656 32.2273C9.99935 32.1786 10.0762 32.1376 10.1571 32.1041C10.238 32.0706 10.3213 32.0453 10.4072 32.0282C10.4931 32.0111 10.5798 32.0026 10.6673 32.0026L13.334 32.0026L13.334 20.0026C13.334 14.1116 18.1096 9.33594 24.0007 9.33594C29.8917 9.33594 34.6673 14.1116 34.6673 20.0026L34.6673 32.0026L37.334 32.0026C37.4215 32.0026 37.5083 32.0111 37.5941 32.0282C37.68 32.0453 37.7634 32.0706 37.8443 32.1041C37.9251 32.1376 38.002 32.1786 38.0748 32.2273C38.1476 32.2759 38.2149 32.3312 38.2768 32.3931C38.3387 32.455 38.3939 32.5223 38.4426 32.5951C38.4913 32.6679 38.5323 32.7448 38.5658 32.8257C38.5994 32.9066 38.6246 32.9899 38.6417 33.0758C38.6588 33.1617 38.6673 33.2484 38.6673 33.3359ZM32.0007 32.0026L32.0007 20.0026C32.0007 15.5843 28.4189 12.0026 24.0007 12.0026C19.5824 12.0026 16.0007 15.5843 16.0007 20.0026L16.0007 32.0026L32.0007 32.0026Z" fill-rule="evenodd"  fill="#FFFFFF" >
</path>
<path d="M25.8869 34.6667C25.6123 35.4435 24.8715 36 24.0007 36C23.1298 36 22.389 35.4435 22.1145 34.6667L25.8869 34.6667ZM24.0007 38.6667C26.578 38.6667 28.6673 36.5773 28.6673 34L28.6673 33.3333C28.6673 32.597 28.0704 32 27.334 32L20.6673 32C19.9309 32 19.334 32.597 19.334 33.3333L19.334 34C19.334 36.5773 21.4233 38.6667 24.0007 38.6667Z" fill-rule="evenodd"  fill="#FFFFFF" >
</path>
</svg>
