<svg xmlns="http://www.w3.org/2000/svg" xmlns:xlink="http://www.w3.org/1999/xlink" width="52" height="52" viewBox="0 0 52 52" fill="none">
<circle cx="26" cy="26" r="26"   fill="#FFCE96" >
</circle>
<path d="M22.4353 17.3656C22.607 17.2018 22.8225 17.0834 23.0623 17.0297C24.0533 16.7859 25.0327 16.6641 26.0007 16.6641C31.3557 16.6641 36.1563 19.5094 40.4026 25.2C40.6162 25.4864 40.7007 25.8371 40.6556 26.1743C40.6635 26.1714 40.6673 26.1796 40.6673 26.1967C40.6673 26.2779 40.579 26.5583 40.4026 26.7948C39.3457 28.2112 37.9737 29.6189 36.2867 31.0181C36.0548 31.2132 35.7555 31.3307 35.4288 31.3307L35.4272 31.3307C35.0696 31.3303 34.745 31.1892 34.5059 30.9598C34.4924 30.9469 34.4793 30.9337 34.4664 30.9202C34.2396 30.6838 34.0991 30.364 34.0955 30.0114L34.0953 29.9974L34.0955 29.9963L34.0955 29.9834C34.0997 29.5724 34.2898 29.2061 34.5857 28.9643C35.7893 27.966 36.8076 26.9731 37.6408 25.9856C34.0952 21.549 30.2151 19.3307 26.0007 19.3307C25.2496 19.3307 24.484 19.4265 23.7037 19.618C23.6032 19.6452 23.498 19.6609 23.3896 19.6636C23.3781 19.6639 23.3667 19.6641 23.3552 19.6641C23.0014 19.6641 22.6798 19.5262 22.4411 19.3014C22.4217 19.2831 22.4028 19.2643 22.3845 19.2448C22.1611 19.0077 22.0237 18.6888 22.0219 18.3377L22.0219 18.3313L22.0219 18.3302L22.0219 18.3237C22.0237 17.9727 22.1611 17.6537 22.3845 17.4166C22.401 17.3991 22.4179 17.3821 22.4353 17.3656ZM17.9059 22.0001C17.9051 22.4156 17.7142 22.7865 17.4156 23.0305C16.212 24.0287 15.1936 25.0216 14.3605 26.0091C17.9061 30.4458 21.7861 32.6641 26.0007 32.6641C26.7578 32.6641 27.5297 32.5667 28.3164 32.3721C28.4176 32.3446 28.5236 32.3287 28.6329 32.3259C28.6444 32.3256 28.6559 32.3254 28.6673 32.3254C29.3923 32.3254 29.982 32.9039 30.0003 33.6243C30.0005 33.6358 30.0007 33.6473 30.0007 33.6587C30.0007 34.2938 29.5568 34.825 28.9624 34.9594C27.9635 35.207 26.9763 35.3307 26.0007 35.3307C20.6456 35.3307 15.845 32.4854 11.5987 26.7948C11.4222 26.5583 11.334 26.2778 11.334 26.1967C11.334 26.1796 11.3379 26.1714 11.3457 26.1743C11.3007 25.8371 11.385 25.4864 11.5987 25.2C12.6556 23.7836 14.0276 22.3758 15.7146 20.9767C15.9465 20.7816 16.2458 20.6641 16.5726 20.6641C16.9292 20.6641 17.2532 20.8041 17.4925 21.0322C17.5081 21.0472 17.5234 21.0624 17.5383 21.0781C17.7655 21.3167 17.9052 21.6394 17.9059 21.9947L17.9059 21.9974L17.9059 22.0001Z" fill-rule="evenodd"  fill="#FFFFFF" >
</path>
<path d="M26.0007 30.6665C27.2707 30.6665 28.3593 30.2222 29.2664 29.3334L29.2673 29.3325C29.5142 29.0905 29.6673 28.7533 29.6673 28.3803C29.6673 28.0169 29.5219 27.6875 29.2861 27.447C29.2849 27.4457 29.2837 27.4445 29.2824 27.4432C29.2778 27.4384 29.273 27.4337 29.2683 27.4291C29.0306 27.1956 28.7059 27.0506 28.3473 27.0471L29.2664 29.3334C29.026 29.5687 28.6969 29.7137 28.334 29.7137C27.5976 29.7137 27.0007 29.1167 27.0007 28.3803C27.0007 28.0074 27.1538 27.6702 27.4006 27.4282C27.5248 27.3064 27.6674 27.2126 27.8283 27.1466C27.9892 27.0807 28.1566 27.0475 28.3305 27.047C27.9685 27.0479 27.6403 27.1931 27.4006 27.4282C27.0118 27.8093 26.5452 27.9999 26.0007 27.9999C24.8961 27.9999 24.0007 27.1044 24.0007 25.9999C24.0007 25.4821 24.175 25.0325 24.5238 24.6511C24.7429 24.4135 24.8768 24.0961 24.8768 23.7474C24.8768 23.011 24.2798 22.4141 23.5435 22.4141C23.1525 22.4141 22.8009 22.5823 22.557 22.8503C21.7417 23.7412 21.334 24.791 21.334 25.9999C21.334 28.5772 23.4233 30.6665 26.0007 30.6665Z" fill-rule="evenodd"  fill="#FFFFFF" >
</path>
<path d="M13.0568 14.9404L37.0565 38.9402L38.9224 38.9595C39.1752 38.717 39.3327 38.3755 39.3327 37.9974L39.3327 37.9845C39.331 37.8147 39.2981 37.6512 39.234 37.4939C39.1699 37.3368 39.0791 37.1969 38.9615 37.0743C38.9552 37.0677 38.9487 37.0611 38.9422 37.0546L14.9424 13.0548L14.9422 13.0546C14.7009 12.8133 14.3675 12.6641 13.9993 12.6641C13.6312 12.6641 13.2978 12.8133 13.0565 13.0546C12.8153 13.2959 12.666 13.6292 12.666 13.9974C12.666 14.3656 12.8153 14.6989 13.0565 14.9402L13.0568 14.9404Z" fill-rule="evenodd"  fill="#FFFFFF" >
</path>
</svg>
