<svg xmlns="http://www.w3.org/2000/svg" xmlns:xlink="http://www.w3.org/1999/xlink" width="52" height="52" viewBox="0 0 52 52" fill="none">
<circle cx="26" cy="26" r="26"   fill="#FFCE96" >
</circle>
<path d="M19.9993 25.3256C16.4438 22.4834 14.666 18.7526 14.666 14.1333L14.666 12.6693C14.666 11.9329 15.263 11.3359 15.9993 11.3359L35.9993 11.3359C36.7357 11.3359 37.3327 11.9329 37.3327 12.6693L37.3327 14.1333C37.3327 18.7529 35.5549 22.4837 31.9993 25.3256L31.9993 39.3359C31.9993 40.0723 31.4024 40.6693 30.666 40.6693L21.3327 40.6693C20.5963 40.6693 19.9993 40.0723 19.9993 39.3359L19.9993 25.3256ZM22.666 38.0026L22.666 24.8C22.666 24.268 22.4531 23.8426 22.0274 23.5237C18.8976 21.1763 17.3327 18.0461 17.3327 14.1333L17.3327 14.0026L34.666 14.0026L34.666 14.1333C34.666 18.0461 33.1009 21.1764 29.9705 23.5242C29.5453 23.8427 29.3327 24.268 29.3327 24.8L29.3327 38.0026L22.666 38.0026Z" fill-rule="evenodd"  fill="#FFFFFF" >
</path>
<path d="M35.334 18.6667L16.6673 18.6667C16.5798 18.6667 16.4931 18.6581 16.4072 18.641C16.3213 18.624 16.238 18.5987 16.1571 18.5652C16.0762 18.5317 15.9994 18.4906 15.9266 18.442C15.8538 18.3933 15.7864 18.338 15.7245 18.2761C15.6626 18.2142 15.6073 18.1469 15.5587 18.0741C15.5101 18.0013 15.469 17.9245 15.4355 17.8436C15.402 17.7627 15.3767 17.6793 15.3596 17.5935C15.3425 17.5076 15.334 17.4209 15.334 17.3333C15.334 17.2458 15.3425 17.1591 15.3596 17.0732C15.3767 16.9873 15.402 16.904 15.4355 16.8231C15.469 16.7422 15.5101 16.6654 15.5587 16.5926C15.6073 16.5198 15.6626 16.4524 15.7245 16.3905C15.7864 16.3286 15.8538 16.2733 15.9266 16.2247C15.9994 16.1761 16.0762 16.135 16.1571 16.1015C16.238 16.068 16.3213 16.0427 16.4072 16.0256C16.4931 16.0085 16.5798 16 16.6673 16L35.334 16C35.4215 16 35.5083 16.0085 35.5941 16.0256C35.68 16.0427 35.7634 16.068 35.8443 16.1015C35.9251 16.135 36.002 16.1761 36.0748 16.2247C36.1476 16.2733 36.2149 16.3286 36.2768 16.3905C36.3387 16.4524 36.3939 16.5198 36.4426 16.5926C36.4913 16.6654 36.5323 16.7422 36.5658 16.8231C36.5994 16.904 36.6246 16.9873 36.6417 17.0732C36.6588 17.1591 36.6673 17.2458 36.6673 17.3333C36.6673 17.4209 36.6588 17.5076 36.6417 17.5935C36.6246 17.6793 36.5994 17.7627 36.5658 17.8436C36.5323 17.9245 36.4913 18.0013 36.4426 18.0741C36.3939 18.1469 36.3387 18.2142 36.2768 18.2761C36.2149 18.338 36.1476 18.3933 36.0748 18.442C36.002 18.4906 35.9251 18.5317 35.8443 18.5652C35.7634 18.5987 35.68 18.624 35.5941 18.641C35.5083 18.6581 35.4215 18.6667 35.334 18.6667Z" fill-rule="evenodd"  fill="#FFFFFF" >
</path>
<path d="M27.3327 31.3359C27.3327 31.4235 27.3241 31.5102 27.3071 31.5961C27.29 31.6819 27.2647 31.7653 27.2312 31.8462C27.1977 31.9271 27.1566 32.0039 27.108 32.0767C27.0593 32.1495 27.0041 32.2168 26.9422 32.2788C26.8803 32.3407 26.8129 32.3959 26.7401 32.4446C26.6673 32.4932 26.5905 32.5343 26.5096 32.5678C26.4287 32.6013 26.3453 32.6266 26.2595 32.6437C26.1736 32.6607 26.0869 32.6693 25.9993 32.6693C25.9118 32.6693 25.8251 32.6607 25.7392 32.6436C25.6534 32.6266 25.57 32.6013 25.4891 32.5678C25.4082 32.5343 25.3314 32.4932 25.2586 32.4446C25.1858 32.3959 25.1184 32.3407 25.0565 32.2788C24.9946 32.2168 24.9394 32.1495 24.8907 32.0767C24.8421 32.0039 24.801 31.9271 24.7675 31.8462C24.734 31.7653 24.7087 31.6819 24.6916 31.5961C24.6746 31.5102 24.666 31.4235 24.666 31.3359L24.666 28.6693C24.666 28.5817 24.6746 28.495 24.6916 28.4092C24.7087 28.3233 24.734 28.2399 24.7675 28.159C24.801 28.0781 24.8421 28.0013 24.8907 27.9285C24.9394 27.8557 24.9946 27.7884 25.0565 27.7265C25.1184 27.6646 25.1858 27.6093 25.2586 27.5606C25.3314 27.512 25.4082 27.4709 25.4891 27.4374C25.57 27.4039 25.6534 27.3786 25.7392 27.3616C25.8251 27.3445 25.9118 27.3359 25.9993 27.3359C26.0869 27.3359 26.1736 27.3445 26.2595 27.3616C26.3453 27.3786 26.4287 27.4039 26.5096 27.4374C26.5905 27.4709 26.6673 27.512 26.7401 27.5606C26.8129 27.6093 26.8803 27.6646 26.9422 27.7265C27.0041 27.7884 27.0593 27.8557 27.108 27.9285C27.1566 28.0013 27.1977 28.0781 27.2312 28.159C27.2647 28.2399 27.29 28.3233 27.3071 28.4092C27.3241 28.495 27.3327 28.5817 27.3327 28.6693L27.3327 31.3359Z" fill-rule="evenodd"  fill="#FFFFFF" >
</path>
<path d="M14.666 14.0026C14.666 18.8868 16.6179 22.7951 20.5215 25.7276C20.7463 25.9001 21.0275 26.0026 21.3327 26.0026C21.7009 26.0026 22.0342 25.8534 22.2755 25.6121C22.2868 25.6008 22.2979 25.5893 22.3088 25.5776C22.5304 25.3395 22.666 25.0202 22.666 24.6693C22.666 24.2278 22.4514 23.8364 22.1208 23.5937C18.9287 21.1947 17.3327 17.9976 17.3327 14.0026L17.3327 12.6693C17.3327 12.5817 17.3241 12.495 17.3071 12.4092C17.29 12.3233 17.2647 12.2399 17.2312 12.159C17.1977 12.0781 17.1566 12.0013 17.108 11.9285C17.0593 11.8557 17.0041 11.7884 16.9422 11.7265C16.8803 11.6646 16.8129 11.6093 16.7401 11.5606C16.6673 11.512 16.5905 11.4709 16.5096 11.4374C16.4287 11.4039 16.3453 11.3786 16.2595 11.3616C16.1736 11.3445 16.0869 11.3359 15.9993 11.3359C15.9118 11.3359 15.8251 11.3445 15.7392 11.3616C15.6534 11.3786 15.57 11.4039 15.4891 11.4374C15.4082 11.4709 15.3314 11.512 15.2586 11.5606C15.1858 11.6093 15.1184 11.6646 15.0565 11.7265C14.9946 11.7884 14.9394 11.8557 14.8907 11.9285C14.8421 12.0013 14.801 12.0781 14.7675 12.159C14.734 12.2399 14.7087 12.3233 14.6916 12.4092C14.6746 12.495 14.666 12.5817 14.666 12.6693L14.666 14.0026Z" fill-rule="evenodd"  fill="#FFFFFF" >
</path>
<path d="M37.334 14.0026L37.334 12.6693C37.334 12.5817 37.3254 12.495 37.3084 12.4092C37.2913 12.3233 37.266 12.2399 37.2325 12.159C37.199 12.0781 37.1579 12.0013 37.1093 11.9285C37.0606 11.8557 37.0054 11.7884 36.9435 11.7265C36.8816 11.6646 36.8142 11.6093 36.7414 11.5606C36.6686 11.512 36.5918 11.4709 36.5109 11.4374C36.43 11.4039 36.3466 11.3786 36.2608 11.3616C36.1749 11.3445 36.0882 11.3359 36.0007 11.3359C35.9131 11.3359 35.8264 11.3445 35.7405 11.3616C35.6547 11.3786 35.5713 11.4039 35.4904 11.4374C35.4095 11.4709 35.3327 11.512 35.2599 11.5606C35.1871 11.6093 35.1197 11.6646 35.0578 11.7265C34.9959 11.7884 34.9407 11.8557 34.892 11.9285C34.8434 12.0013 34.8023 12.0781 34.7688 12.159C34.7353 12.2399 34.71 12.3233 34.6929 12.4092C34.6759 12.495 34.6673 12.5817 34.6673 12.6693L34.6673 14.0026C34.6673 17.9977 33.0713 21.1947 29.8791 23.5937C29.8372 23.6245 29.7971 23.6577 29.759 23.6931C29.7356 23.7149 29.713 23.7376 29.6912 23.761C29.4696 23.9991 29.334 24.3183 29.334 24.6693C29.334 25.4057 29.9309 26.0026 30.6673 26.0026C30.9725 26.0026 31.2538 25.9001 31.4785 25.7276C35.3822 22.7951 37.334 18.8868 37.334 14.0026Z" fill-rule="evenodd"  fill="#FFFFFF" >
</path>
</svg>
