<svg xmlns="http://www.w3.org/2000/svg" xmlns:xlink="http://www.w3.org/1999/xlink" width="52" height="52" viewBox="0 0 52 52" fill="none">
<circle cx="26" cy="26" r="26"   fill="#FFCE96" >
</circle>
<path d="M36.6667 28.6641L15.3333 28.6641C14.5207 28.7403 14.0763 29.1848 14 29.9974L14 37.9974C14 39.4702 15.1939 40.6641 16.6667 40.6641L35.3333 40.6641C36.8061 40.6641 38 39.4702 38 37.9974L38 29.9974C38 29.261 37.4031 28.6641 36.6667 28.6641ZM16.6667 31.3307L16.6667 37.9974L35.3333 37.9974L35.3333 31.3307L16.6667 31.3307Z" fill-rule="evenodd"  fill="#FFFFFF" >
</path>
<path d="M35.3333 14.0026L35.3333 30.0026L38 30.0026L38 14.0026C38 12.5298 36.8061 11.3359 35.3333 11.3359L16.6667 11.3359C15.1939 11.3359 14 12.5298 14 14.0026L14 30.0026L16.6667 30.0026L16.6667 14.0026L35.3333 14.0026Z" fill-rule="evenodd"  fill="#FFFFFF" >
</path>
<path d="M27.334 33.3359C27.4215 33.3359 27.5082 33.3445 27.5941 33.3616C27.68 33.3786 27.7633 33.4039 27.8442 33.4374C27.9251 33.4709 28.002 33.512 28.0747 33.5606C28.1475 33.6093 28.2149 33.6646 28.2768 33.7265C28.3387 33.7884 28.394 33.8557 28.4426 33.9285C28.4913 34.0013 28.5323 34.0781 28.5658 34.159C28.5993 34.2399 28.6246 34.3233 28.6417 34.4091C28.6588 34.495 28.6673 34.5817 28.6673 34.6693C28.6673 34.7568 28.6588 34.8435 28.6417 34.9294C28.6246 35.0153 28.5993 35.0986 28.5658 35.1795C28.5323 35.2604 28.4913 35.3372 28.4426 35.41C28.394 35.4828 28.3387 35.5502 28.2768 35.6121C28.2149 35.674 28.1475 35.7293 28.0747 35.7779C28.002 35.8265 27.9251 35.8676 27.8442 35.9011C27.7633 35.9346 27.68 35.9599 27.5941 35.977C27.5082 35.9941 27.4215 36.0026 27.334 36.0026L24.6673 36.0026C24.5798 36.0026 24.4931 35.9941 24.4072 35.977C24.3213 35.9599 24.238 35.9346 24.1571 35.9011C24.0762 35.8676 23.9994 35.8265 23.9266 35.7779C23.8538 35.7293 23.7864 35.674 23.7245 35.6121C23.6626 35.5502 23.6073 35.4828 23.5587 35.41C23.5101 35.3372 23.469 35.2604 23.4355 35.1795C23.402 35.0986 23.3767 35.0153 23.3596 34.9294C23.3425 34.8435 23.334 34.7568 23.334 34.6693C23.334 34.5817 23.3425 34.495 23.3596 34.4091C23.3767 34.3233 23.402 34.2399 23.4355 34.159C23.469 34.0781 23.5101 34.0013 23.5587 33.9285C23.6073 33.8557 23.6626 33.7884 23.7245 33.7265C23.7864 33.6646 23.8538 33.6093 23.9266 33.5606C23.9994 33.512 24.0762 33.4709 24.1571 33.4374C24.238 33.4039 24.3213 33.3786 24.4072 33.3616C24.4931 33.3445 24.5798 33.3359 24.6673 33.3359L27.334 33.3359Z" fill-rule="evenodd"  fill="#FFFFFF" >
</path>
</svg>
