<svg xmlns="http://www.w3.org/2000/svg" xmlns:xlink="http://www.w3.org/1999/xlink" width="48" height="48" viewBox="0 0 48 48" fill="none">
<circle cx="24" cy="24" r="24"   fill="#2BC6FF" >
</circle>
<path d="M36.0007 16.6641L12.0007 16.6641C10.5279 16.6641 9.33398 17.858 9.33398 19.3307L9.33398 33.9974C9.33398 35.4702 10.5279 36.6641 12.0007 36.6641L36.0007 36.6641C37.4734 36.6641 38.6673 35.4702 38.6673 33.9974L38.6673 19.3307C38.6673 17.858 37.4734 16.6641 36.0007 16.6641ZM12.0007 33.9974L12.0007 19.3307L36.0007 19.3307L36.0007 33.9974L12.0007 33.9974Z" fill-rule="evenodd"  fill="#FFFFFF" >
</path>
<path d="M24.9422 11.7265C24.8177 11.6019 24.6741 11.5058 24.5115 11.4382C24.3489 11.3706 24.1795 11.3365 24.0034 11.3359L23.9994 11.3359C23.9601 11.3359 23.9209 11.338 23.8816 11.342C23.6066 11.3705 23.3316 11.4987 23.0566 11.7265L17.7233 17.0598C16.8833 17.8997 17.4782 19.3359 18.6661 19.3359L29.3327 19.3359C30.5206 19.3359 31.1155 17.8997 30.2756 17.0598L24.9422 11.7265ZM21.885 16.6693L23.9994 14.5549L26.1138 16.6693L21.885 16.6693Z" fill-rule="evenodd"  fill="#FFFFFF" >
</path>
<path d="M15.9993 22.6641L27.9993 22.6641C28.0869 22.6641 28.1736 22.6726 28.2595 22.6897C28.3453 22.7068 28.4287 22.7321 28.5096 22.7656C28.5905 22.7991 28.6673 22.8401 28.7401 22.8888C28.8129 22.9374 28.8803 22.9927 28.9422 23.0546C29.0041 23.1165 29.0593 23.1838 29.108 23.2566C29.1566 23.3294 29.1977 23.4063 29.2312 23.4872C29.2647 23.568 29.29 23.6514 29.3071 23.7373C29.3241 23.8231 29.3327 23.9098 29.3327 23.9974C29.3327 24.0849 29.3241 24.1716 29.3071 24.2575C29.29 24.3434 29.2647 24.4268 29.2312 24.5076C29.1977 24.5885 29.1566 24.6654 29.108 24.7382C29.0593 24.8109 29.0041 24.8783 28.9422 24.9402C28.8803 25.0021 28.8129 25.0574 28.7401 25.106C28.6673 25.1547 28.5905 25.1957 28.5096 25.2292C28.4287 25.2627 28.3453 25.288 28.2595 25.3051C28.1736 25.3222 28.0869 25.3307 27.9993 25.3307L15.9993 25.3307C15.9118 25.3307 15.8251 25.3222 15.7392 25.3051C15.6534 25.288 15.57 25.2627 15.4891 25.2292C15.4082 25.1957 15.3314 25.1547 15.2586 25.106C15.1858 25.0574 15.1184 25.0021 15.0565 24.9402C14.9946 24.8783 14.9394 24.8109 14.8907 24.7382C14.8421 24.6654 14.801 24.5885 14.7675 24.5076C14.734 24.4268 14.7087 24.3434 14.6916 24.2575C14.6746 24.1716 14.666 24.0849 14.666 23.9974C14.666 23.9098 14.6746 23.8231 14.6916 23.7373C14.7087 23.6514 14.734 23.568 14.7675 23.4872C14.801 23.4063 14.8421 23.3294 14.8907 23.2566C14.9394 23.1838 14.9946 23.1165 15.0565 23.0546C15.1184 22.9927 15.1858 22.9374 15.2586 22.8888C15.3314 22.8401 15.4082 22.7991 15.4891 22.7656C15.57 22.7321 15.6534 22.7068 15.7392 22.6897C15.8251 22.6726 15.9118 22.6641 15.9993 22.6641Z" fill-rule="evenodd"  fill="#FFFFFF" >
</path>
<path d="M15.9993 28L21.3327 28C21.4202 28 21.5069 28.0085 21.5928 28.0256C21.6787 28.0427 21.762 28.068 21.8429 28.1015C21.9238 28.135 22.0007 28.1761 22.0734 28.2247C22.1462 28.2733 22.2136 28.3286 22.2755 28.3905C22.3374 28.4524 22.3927 28.5198 22.4413 28.5926C22.4899 28.6654 22.531 28.7422 22.5645 28.8231C22.598 28.904 22.6233 28.9873 22.6404 29.0732C22.6575 29.1591 22.666 29.2458 22.666 29.3333C22.666 29.4209 22.6575 29.5076 22.6404 29.5935C22.6233 29.6793 22.598 29.7627 22.5645 29.8436C22.531 29.9245 22.4899 30.0013 22.4413 30.0741C22.3927 30.1469 22.3374 30.2142 22.2755 30.2761C22.2136 30.338 22.1462 30.3933 22.0734 30.442C22.0007 30.4906 21.9238 30.5317 21.8429 30.5652C21.762 30.5987 21.6787 30.624 21.5928 30.641C21.5069 30.6581 21.4202 30.6667 21.3327 30.6667L15.9993 30.6667C15.9118 30.6667 15.8251 30.6581 15.7392 30.641C15.6534 30.624 15.57 30.5987 15.4891 30.5652C15.4082 30.5317 15.3314 30.4906 15.2586 30.442C15.1858 30.3933 15.1184 30.338 15.0565 30.2761C14.9946 30.2142 14.9394 30.1469 14.8907 30.0741C14.8421 30.0013 14.801 29.9245 14.7675 29.8436C14.734 29.7627 14.7087 29.6793 14.6916 29.5935C14.6746 29.5076 14.666 29.4209 14.666 29.3333C14.666 29.2458 14.6746 29.1591 14.6916 29.0732C14.7087 28.9873 14.734 28.904 14.7675 28.8231C14.801 28.7422 14.8421 28.6654 14.8907 28.5926C14.9394 28.5198 14.9946 28.4524 15.0565 28.3905C15.1184 28.3286 15.1858 28.2733 15.2586 28.2247C15.3314 28.1761 15.4082 28.135 15.4891 28.1015C15.57 28.068 15.6534 28.0427 15.7392 28.0256C15.8251 28.0085 15.9118 28 15.9993 28Z" fill-rule="evenodd"  fill="#FFFFFF" >
</path>
</svg>
