<svg xmlns="http://www.w3.org/2000/svg" xmlns:xlink="http://www.w3.org/1999/xlink" width="48" height="48" viewBox="0 0 48 48" fill="none">
<circle cx="24" cy="24" r="24"   fill="#FF842B" >
</circle>
<path d="M24.0007 22.6693C27.6825 22.6693 30.6673 19.6845 30.6673 16.0026C30.6673 12.3207 27.6825 9.33594 24.0007 9.33594C20.3188 9.33594 17.334 12.3207 17.334 16.0026C17.334 19.6845 20.3188 22.6693 24.0007 22.6693ZM24.0007 12.0026C26.2098 12.0026 28.0007 13.7935 28.0007 16.0026C28.0007 18.2117 26.2098 20.0026 24.0007 20.0026C21.7915 20.0026 20.0007 18.2117 20.0007 16.0026C20.0007 13.7935 21.7915 12.0026 24.0007 12.0026Z" fill-rule="evenodd"  fill="#FFFFFF" >
</path>
<path d="M23.9993 26.6667C29.8904 26.6667 34.666 31.4423 34.666 37.3333C34.666 37.4209 34.6745 37.5076 34.6916 37.5935C34.7087 37.6793 34.734 37.7627 34.7675 37.8436C34.801 37.9245 34.8421 38.0013 34.8907 38.0741C34.9393 38.1469 34.9946 38.2142 35.0565 38.2761C35.1184 38.3381 35.1857 38.3933 35.2585 38.442C35.3313 38.4906 35.4082 38.5317 35.4891 38.5652C35.57 38.5987 35.6534 38.624 35.7392 38.6411C35.8251 38.6581 35.9118 38.6667 35.9993 38.6667C36.0869 38.6667 36.1736 38.6581 36.2595 38.6411C36.3453 38.624 36.4287 38.5987 36.5096 38.5652C36.5905 38.5317 36.6674 38.4906 36.7402 38.442C36.813 38.3933 36.8803 38.3381 36.9421 38.2761C37.004 38.2142 37.0593 38.1469 37.108 38.0741C37.1566 38.0013 37.1977 37.9245 37.2312 37.8436C37.2647 37.7627 37.29 37.6793 37.3071 37.5935C37.3242 37.5076 37.3327 37.4209 37.3327 37.3333C37.3327 29.9695 31.3631 24 23.9993 24C16.6355 24 10.666 29.9695 10.666 37.3333C10.666 37.4209 10.6746 37.5076 10.6916 37.5935C10.7087 37.6793 10.734 37.7627 10.7675 37.8436C10.801 37.9245 10.8421 38.0013 10.8907 38.0741C10.9394 38.1469 10.9946 38.2142 11.0565 38.2761C11.1184 38.3381 11.1858 38.3933 11.2586 38.442C11.3314 38.4906 11.4082 38.5317 11.4891 38.5652C11.57 38.5987 11.6534 38.624 11.7392 38.6411C11.8251 38.6581 11.9118 38.6667 11.9993 38.6667C12.0869 38.6667 12.1736 38.6581 12.2595 38.6411C12.3453 38.624 12.4287 38.5987 12.5096 38.5652C12.5905 38.5317 12.6673 38.4906 12.7401 38.442C12.8129 38.3933 12.8803 38.3381 12.9422 38.2761C13.0041 38.2142 13.0593 38.1469 13.108 38.0741C13.1566 38.0013 13.1977 37.9245 13.2312 37.8436C13.2647 37.7627 13.29 37.6793 13.3071 37.5935C13.3241 37.5076 13.3327 37.4209 13.3327 37.3333C13.3327 31.4423 18.1083 26.6667 23.9993 26.6667Z" fill-rule="evenodd"  fill="#FFFFFF" >
</path>
<path d="M22.9584 38.1657L20.2922 34.8329C20.0165 34.4883 19.9292 34.0297 20.059 33.6079L22.7256 24.9412C23.1118 23.6863 24.8882 23.6863 25.2744 24.9412L27.9411 33.6079C28.0708 34.0297 27.9835 34.4883 27.7078 34.8329L25.0416 38.1657L25.0412 38.1662C24.9795 38.2434 24.9101 38.3128 24.8329 38.3745C24.7191 38.4655 24.5938 38.536 24.4569 38.5859C24.32 38.6359 24.1787 38.6627 24.033 38.6662L23.9947 38.6666C23.7606 38.6657 23.5419 38.6072 23.3385 38.491C23.2784 38.4566 23.2212 38.4178 23.1671 38.3745C23.09 38.3128 23.0206 38.2434 22.9589 38.1662L22.9584 38.1657ZM24 35.199L25.1849 33.7179L24 29.8672L22.8152 33.7179L24 35.199Z" fill-rule="evenodd"  fill="#FFFFFF" >
</path>
</svg>
