<svg xmlns="http://www.w3.org/2000/svg" xmlns:xlink="http://www.w3.org/1999/xlink" width="48" height="48" viewBox="0 0 48 48" fill="none">
<circle cx="24" cy="24" r="24"   fill="#36CACA" >
</circle>
<path d="M13.3346 28.0026L18.668 28.0026L18.668 25.3359L13.3346 25.3359C11.8619 25.3359 10.668 26.5298 10.668 28.0026L10.668 37.3359L13.3346 37.3359L13.3346 28.0026Z" fill-rule="evenodd"  fill="#FFFFFF" >
</path>
<path d="M34.6654 25.3359L29.332 25.3359L29.332 28.0026L34.6654 28.0026L34.6654 37.3359L37.332 37.3359L37.332 28.0026C37.332 26.5298 36.1381 25.3359 34.6654 25.3359Z" fill-rule="evenodd"  fill="#FFFFFF" >
</path>
<path d="M21.9303 22.6641C20.2736 20.7554 19.6046 19.347 19.9233 18.439C20.1091 17.9095 20.6374 17.2215 21.5081 16.3749C21.8579 16.0348 22.1228 15.7691 22.3028 15.5779C22.7743 15.0769 23.3396 14.5027 23.9985 13.8554C24.6576 14.5028 25.2228 15.077 25.6943 15.5779C25.8742 15.7691 26.1391 16.0348 26.489 16.375C27.3597 17.2215 27.8879 17.9095 28.0738 18.439C28.3925 19.347 27.7235 20.7554 26.0667 22.6641L21.9303 22.6641ZM17.4071 17.5558C16.7134 19.5324 17.6929 21.9786 20.3456 24.8946C20.6129 25.1789 20.9417 25.3242 21.3319 25.3307L26.6652 25.3307C26.8952 25.3307 27.1187 25.2713 27.3154 25.1614C27.313 25.1667 27.3176 25.1668 27.3277 25.1623C27.3724 25.1425 27.5251 25.0335 27.6515 24.8946C30.3042 21.9786 31.2837 19.5324 30.59 17.5558C30.2657 16.6319 29.5184 15.601 28.348 14.463C28.0263 14.1503 27.7891 13.9127 27.6361 13.7502C26.9266 12.9963 26.0218 12.0914 24.9219 11.0355L24.9219 11.0355C24.6121 10.7381 24.1945 10.6193 23.7986 10.6791C23.7993 10.6691 23.7881 10.6641 23.7677 10.6641C23.6658 10.6641 23.3331 10.7879 23.0752 11.0355C21.9754 12.0913 21.0707 12.9962 20.3609 13.7502C20.208 13.9127 19.9707 14.1503 19.6491 14.463C18.4787 15.601 17.7314 16.6319 17.4071 17.5558Z" fill-rule="evenodd"  fill="#FFFFFF" >
</path>
<path d="M10.6654 36L37.332 36C37.4196 36 37.5063 36.0085 37.5922 36.0256C37.678 36.0427 37.7614 36.068 37.8423 36.1015C37.9232 36.135 38 36.1761 38.0728 36.2247C38.1456 36.2733 38.213 36.3286 38.2748 36.3905C38.3367 36.4524 38.392 36.5198 38.4407 36.5926C38.4893 36.6654 38.5304 36.7422 38.5639 36.8231C38.5974 36.904 38.6227 36.9873 38.6398 37.0732C38.6568 37.1591 38.6654 37.2458 38.6654 37.3333C38.6654 37.4209 38.6568 37.5076 38.6398 37.5935C38.6227 37.6793 38.5974 37.7627 38.5639 37.8436C38.5304 37.9245 38.4893 38.0013 38.4407 38.0741C38.392 38.1469 38.3367 38.2142 38.2748 38.2761C38.213 38.338 38.1456 38.3933 38.0728 38.442C38 38.4906 37.9232 38.5317 37.8423 38.5652C37.7614 38.5987 37.678 38.624 37.5922 38.641C37.5063 38.6581 37.4196 38.6667 37.332 38.6667L10.6654 38.6667C10.5778 38.6667 10.4911 38.6581 10.4052 38.641C10.3194 38.624 10.236 38.5987 10.1551 38.5652C10.0742 38.5317 9.9974 38.4906 9.9246 38.442C9.85181 38.3933 9.78446 38.338 9.72256 38.2761C9.66065 38.2142 9.60538 38.1469 9.55674 38.0741C9.5081 38.0013 9.46703 37.9245 9.43353 37.8436C9.40002 37.7627 9.37473 37.6793 9.35765 37.5935C9.34057 37.5076 9.33203 37.4209 9.33203 37.3333C9.33203 37.2458 9.34057 37.1591 9.35765 37.0732C9.37473 36.9873 9.40002 36.904 9.43353 36.8231C9.46703 36.7422 9.5081 36.6654 9.55674 36.5926C9.60538 36.5198 9.66065 36.4524 9.72256 36.3905C9.78446 36.3286 9.85181 36.2733 9.9246 36.2247C9.9974 36.1761 10.0742 36.135 10.1551 36.1015C10.236 36.068 10.3194 36.0427 10.4052 36.0256C10.4911 36.0085 10.5778 36 10.6654 36Z" fill-rule="evenodd"  fill="#FFFFFF" >
</path>
<path d="M23.9987 22.6641L18.6654 22.6641C18.4889 22.6641 18.3192 22.6978 18.1561 22.7651C17.9931 22.8325 17.849 22.9285 17.7241 23.0531C17.7231 23.0541 17.722 23.0551 17.721 23.0561C17.5965 23.1811 17.5005 23.3251 17.4331 23.4881C17.3657 23.6512 17.332 23.821 17.332 23.9974L17.332 37.3307C17.332 38.0671 17.929 38.6641 18.6654 38.6641L29.332 38.6641C30.0684 38.6641 30.6654 38.0671 30.6654 37.3307L30.6654 23.9974C30.6654 23.261 30.0684 22.6641 29.332 22.6641L23.9987 22.6641ZM19.9987 25.3307L19.9987 35.9974L27.9987 35.9974L27.9987 25.3307L19.9987 25.3307Z" fill-rule="evenodd"  fill="#FFFFFF" >
</path>
<path d="M25.3346 30.6693L25.3346 37.3359C25.3346 37.4235 25.3261 37.5102 25.309 37.5961C25.2919 37.6819 25.2666 37.7653 25.2331 37.8462C25.1996 37.9271 25.1586 38.0039 25.1099 38.0767C25.0613 38.1495 25.006 38.2168 24.9441 38.2788C24.8822 38.3407 24.8149 38.3959 24.7421 38.4446C24.6693 38.4932 24.5924 38.5343 24.5115 38.5678C24.4307 38.6013 24.3473 38.6266 24.2614 38.6436C24.1756 38.6607 24.0889 38.6693 24.0013 38.6693C23.9138 38.6693 23.827 38.6607 23.7412 38.6436C23.6553 38.6266 23.5719 38.6013 23.4911 38.5678C23.4102 38.5343 23.3333 38.4932 23.2605 38.4446C23.1877 38.3959 23.1204 38.3407 23.0585 38.2788C22.9966 38.2168 22.9413 38.1495 22.8927 38.0767C22.844 38.0039 22.803 37.9271 22.7695 37.8462C22.736 37.7653 22.7107 37.6819 22.6936 37.5961C22.6765 37.5102 22.668 37.4235 22.668 37.3359L22.668 30.6693C22.668 30.5817 22.6765 30.495 22.6936 30.4092C22.7107 30.3233 22.736 30.2399 22.7695 30.159C22.803 30.0781 22.844 30.0013 22.8927 29.9285C22.9413 29.8557 22.9966 29.7884 23.0585 29.7265C23.1204 29.6646 23.1877 29.6093 23.2605 29.5606C23.3333 29.512 23.4102 29.4709 23.4911 29.4374C23.5719 29.4039 23.6553 29.3786 23.7412 29.3616C23.827 29.3445 23.9138 29.3359 24.0013 29.3359C24.0889 29.3359 24.1756 29.3445 24.2614 29.3616C24.3473 29.3786 24.4307 29.4039 24.5115 29.4374C24.5924 29.4709 24.6693 29.512 24.7421 29.5606C24.8149 29.6093 24.8822 29.6646 24.9441 29.7265C25.006 29.7884 25.0613 29.8557 25.1099 29.9285C25.1586 30.0013 25.1996 30.0781 25.2331 30.159C25.2666 30.2399 25.2919 30.3233 25.309 30.4092C25.3261 30.495 25.3346 30.5817 25.3346 30.6693Z" fill-rule="evenodd"  fill="#FFFFFF" >
</path>
<path d="M25.3346 10.6693L25.3346 12.6693C25.3346 12.7568 25.3261 12.8435 25.309 12.9294C25.2919 13.0153 25.2666 13.0986 25.2331 13.1795C25.1996 13.2604 25.1586 13.3372 25.1099 13.41C25.0613 13.4828 25.006 13.5502 24.9441 13.6121C24.8822 13.674 24.8149 13.7293 24.7421 13.7779C24.6693 13.8265 24.5924 13.8676 24.5115 13.9011C24.4307 13.9346 24.3473 13.9599 24.2614 13.977C24.1756 13.9941 24.0889 14.0026 24.0013 14.0026C23.9138 14.0026 23.827 13.9941 23.7412 13.977C23.6553 13.9599 23.5719 13.9346 23.4911 13.9011C23.4102 13.8676 23.3333 13.8265 23.2605 13.7779C23.1877 13.7293 23.1204 13.674 23.0585 13.6121C22.9966 13.5502 22.9413 13.4828 22.8927 13.41C22.844 13.3372 22.803 13.2604 22.7695 13.1795C22.736 13.0986 22.7107 13.0153 22.6936 12.9294C22.6765 12.8435 22.668 12.7568 22.668 12.6693L22.668 10.6693C22.668 10.5817 22.6765 10.495 22.6936 10.4092C22.7107 10.3233 22.736 10.2399 22.7695 10.159C22.803 10.0781 22.844 10.0013 22.8927 9.92851C22.9413 9.85572 22.9966 9.78837 23.0585 9.72646C23.1204 9.66456 23.1877 9.60928 23.2605 9.56065C23.3333 9.51201 23.4102 9.47093 23.4911 9.43743C23.5719 9.40393 23.6553 9.37864 23.7412 9.36156C23.827 9.34448 23.9138 9.33594 24.0013 9.33594C24.0889 9.33594 24.1756 9.34448 24.2614 9.36156C24.3473 9.37864 24.4307 9.40393 24.5115 9.43743C24.5924 9.47093 24.6693 9.51201 24.7421 9.56064C24.8149 9.60928 24.8822 9.66456 24.9441 9.72646C25.006 9.78837 25.0613 9.85572 25.1099 9.92851C25.1586 10.0013 25.1996 10.0781 25.2331 10.159C25.2666 10.2399 25.2919 10.3233 25.309 10.4092C25.3261 10.495 25.3346 10.5817 25.3346 10.6693Z" fill-rule="evenodd"  fill="#FFFFFF" >
</path>
<path d="M15.9987 26.6641C15.9987 26.7516 15.9902 26.8383 15.9731 26.9242C15.956 27.01 15.9307 27.0934 15.8972 27.1743C15.8637 27.2552 15.8226 27.332 15.774 27.4048C15.7254 27.4776 15.6701 27.545 15.6082 27.6069C15.5463 27.6688 15.4789 27.724 15.4061 27.7727C15.3333 27.8213 15.2565 27.8624 15.1756 27.8959C15.0947 27.9294 15.0114 27.9547 14.9255 27.9718C14.8396 27.9889 14.7529 27.9974 14.6654 27.9974C14.5778 27.9974 14.4911 27.9889 14.4052 27.9718C14.3194 27.9547 14.236 27.9294 14.1551 27.8959C14.0742 27.8624 13.9974 27.8213 13.9246 27.7727C13.8518 27.724 13.7845 27.6688 13.7226 27.6069C13.6606 27.545 13.6054 27.4776 13.5567 27.4048C13.5081 27.332 13.467 27.2552 13.4335 27.1743C13.4 27.0934 13.3747 27.01 13.3577 26.9242C13.3406 26.8383 13.332 26.7516 13.332 26.6641L13.332 23.9974C13.332 23.9098 13.3406 23.8231 13.3577 23.7373C13.3747 23.6514 13.4 23.568 13.4335 23.4872C13.467 23.4063 13.5081 23.3294 13.5567 23.2566C13.6054 23.1838 13.6606 23.1165 13.7226 23.0546C13.7845 22.9927 13.8518 22.9374 13.9246 22.8888C13.9974 22.8401 14.0742 22.7991 14.1551 22.7656C14.236 22.7321 14.3194 22.7068 14.4052 22.6897C14.4911 22.6726 14.5778 22.6641 14.6654 22.6641C14.7529 22.6641 14.8396 22.6726 14.9255 22.6897C15.0114 22.7068 15.0947 22.7321 15.1756 22.7656C15.2565 22.7991 15.3333 22.8401 15.4061 22.8888C15.4789 22.9374 15.5463 22.9927 15.6082 23.0546C15.6701 23.1165 15.7254 23.1838 15.774 23.2566C15.8226 23.3294 15.8637 23.4063 15.8972 23.4872C15.9307 23.568 15.956 23.6514 15.9731 23.7373C15.9902 23.8231 15.9987 23.9098 15.9987 23.9974L15.9987 26.6641Z" fill-rule="evenodd"  fill="#FFFFFF" >
</path>
<path d="M34.6667 26.6641C34.6667 26.7516 34.6581 26.8383 34.641 26.9242C34.624 27.01 34.5987 27.0934 34.5652 27.1743C34.5317 27.2552 34.4906 27.332 34.442 27.4048C34.3933 27.4776 34.338 27.545 34.2761 27.6069C34.2142 27.6688 34.1469 27.724 34.0741 27.7727C34.0013 27.8213 33.9245 27.8624 33.8436 27.8959C33.7627 27.9294 33.6793 27.9547 33.5935 27.9718C33.5076 27.9889 33.4209 27.9974 33.3333 27.9974C33.2458 27.9974 33.1591 27.9889 33.0732 27.9718C32.9873 27.9547 32.904 27.9294 32.8231 27.8959C32.7422 27.8624 32.6654 27.8213 32.5926 27.7727C32.5198 27.724 32.4524 27.6688 32.3905 27.6069C32.3286 27.545 32.2733 27.4776 32.2247 27.4048C32.1761 27.332 32.135 27.2552 32.1015 27.1743C32.068 27.0934 32.0427 27.01 32.0256 26.9242C32.0085 26.8383 32 26.7516 32 26.6641L32 23.9974C32 23.9098 32.0085 23.8231 32.0256 23.7373C32.0427 23.6514 32.068 23.568 32.1015 23.4872C32.135 23.4063 32.1761 23.3294 32.2247 23.2566C32.2733 23.1838 32.3286 23.1165 32.3905 23.0546C32.4524 22.9927 32.5198 22.9374 32.5926 22.8888C32.6654 22.8401 32.7422 22.7991 32.8231 22.7656C32.904 22.7321 32.9873 22.7068 33.0732 22.6897C33.1591 22.6726 33.2458 22.6641 33.3333 22.6641C33.4209 22.6641 33.5076 22.6726 33.5935 22.6897C33.6793 22.7068 33.7627 22.7321 33.8436 22.7656C33.9245 22.7991 34.0013 22.8401 34.0741 22.8888C34.1469 22.9374 34.2142 22.9927 34.2761 23.0546C34.338 23.1165 34.3933 23.1838 34.442 23.2566C34.4906 23.3294 34.5317 23.4063 34.5652 23.4872C34.5987 23.568 34.624 23.6514 34.641 23.7373C34.6581 23.8231 34.6667 23.9098 34.6667 23.9974L34.6667 26.6641Z" fill-rule="evenodd"  fill="#FFFFFF" >
</path>
<path d="M21.3333 36L26.6667 36C26.7542 36 26.8409 36.0085 26.9268 36.0256C27.0127 36.0427 27.096 36.068 27.1769 36.1015C27.2578 36.135 27.3346 36.1761 27.4074 36.2247C27.4802 36.2733 27.5476 36.3286 27.6095 36.3905C27.6714 36.4524 27.7267 36.5198 27.7753 36.5926C27.8239 36.6654 27.865 36.7422 27.8985 36.8231C27.932 36.904 27.9573 36.9873 27.9744 37.0732C27.9915 37.1591 28 37.2458 28 37.3333C28 37.4209 27.9915 37.5076 27.9744 37.5935C27.9573 37.6793 27.932 37.7627 27.8985 37.8436C27.865 37.9245 27.8239 38.0013 27.7753 38.0741C27.7267 38.1469 27.6714 38.2142 27.6095 38.2761C27.5476 38.338 27.4802 38.3933 27.4074 38.442C27.3346 38.4906 27.2578 38.5317 27.1769 38.5652C27.096 38.5987 27.0127 38.624 26.9268 38.641C26.8409 38.6581 26.7542 38.6667 26.6667 38.6667L21.3333 38.6667C21.2458 38.6667 21.1591 38.6581 21.0732 38.641C20.9873 38.624 20.904 38.5987 20.8231 38.5652C20.7422 38.5317 20.6654 38.4906 20.5926 38.442C20.5198 38.3933 20.4524 38.338 20.3905 38.2761C20.3286 38.2142 20.2733 38.1469 20.2247 38.0741C20.1761 38.0013 20.135 37.9245 20.1015 37.8436C20.068 37.7627 20.0427 37.6793 20.0256 37.5935C20.0085 37.5076 20 37.4209 20 37.3333C20 37.2458 20.0085 37.1591 20.0256 37.0732C20.0427 36.9873 20.068 36.904 20.1015 36.8231C20.135 36.7422 20.1761 36.6654 20.2247 36.5926C20.2733 36.5198 20.3286 36.4524 20.3905 36.3905C20.4524 36.3286 20.5198 36.2733 20.5926 36.2247C20.6654 36.1761 20.7422 36.135 20.8231 36.1015C20.904 36.068 20.9873 36.0427 21.0732 36.0256C21.1591 36.0085 21.2458 36 21.3333 36Z" fill-rule="evenodd"  fill="#FFFFFF" >
</path>
</svg>
