<svg xmlns="http://www.w3.org/2000/svg" xmlns:xlink="http://www.w3.org/1999/xlink" width="48" height="48" viewBox="0 0 48 48" fill="none">
<circle cx="24" cy="24" r="24"   fill="#3BD179" >
</circle>
<path d="M33.3333 11.3359L28.6667 11.3359C27.9303 11.3359 27.3333 11.9329 27.3333 12.6693L27.3333 13.3359L20.6667 13.3359L20.6667 12.6693C20.6667 11.9329 20.0697 11.3359 19.3333 11.3359L14.6667 11.3359C12.8889 11.3359 12 12.2248 12 14.0026L12 36.0026C12 37.7804 12.8889 38.6693 14.6667 38.6693L33.3333 38.6693C35.1111 38.6693 36 37.7804 36 36.0026L36 14.0026C36 12.2248 35.1111 11.3359 33.3333 11.3359ZM18 14.0026L14.6667 14.0026L14.6667 36.0026L33.3333 36.0026L33.3333 14.0026L30 14.0026L30 14.6693C30 15.4056 29.4031 16.0026 28.6667 16.0026L19.3333 16.0026C18.597 16.0026 18 15.4056 18 14.6693L18 14.0026Z" fill-rule="evenodd"  fill="#FFFFFF" >
</path>
<path d="M18 10.6693L18 14.6693C18 15.4056 18.597 16.0026 19.3333 16.0026L28.6667 16.0026C29.4031 16.0026 30 15.4056 30 14.6693L30 10.6693C30 9.93289 29.4031 9.33594 28.6667 9.33594L19.3333 9.33594C18.597 9.33594 18 9.93289 18 10.6693ZM20.6667 13.3359L20.6667 12.0026L27.3333 12.0026L27.3333 13.3359L20.6667 13.3359Z" fill-rule="evenodd"  fill="#FFFFFF" >
</path>
<path d="M19.9993 18.3984L27.9993 18.3984C28.0869 18.3984 28.1736 18.407 28.2595 18.4241C28.3453 18.4411 28.4287 18.4664 28.5096 18.4999C28.5905 18.5334 28.6673 18.5745 28.7401 18.6231C28.8129 18.6718 28.8803 18.7271 28.9422 18.789C29.0041 18.8509 29.0593 18.9182 29.108 18.991C29.1566 19.0638 29.1977 19.1406 29.2312 19.2215C29.2647 19.3024 29.29 19.3858 29.3071 19.4717C29.3241 19.5575 29.3327 19.6442 29.3327 19.7318C29.3327 19.8193 29.3241 19.906 29.3071 19.9919C29.29 20.0778 29.2647 20.1611 29.2312 20.242C29.1977 20.3229 29.1566 20.3997 29.108 20.4725C29.0593 20.5453 29.0041 20.6127 28.9422 20.6746C28.8803 20.7365 28.8129 20.7918 28.7401 20.8404C28.6673 20.889 28.5905 20.9301 28.5096 20.9636C28.4287 20.9971 28.3453 21.0224 28.2595 21.0395C28.1736 21.0566 28.0869 21.0651 27.9993 21.0651L19.9993 21.0651C19.9118 21.0651 19.8251 21.0566 19.7392 21.0395C19.6534 21.0224 19.57 20.9971 19.4891 20.9636C19.4082 20.9301 19.3314 20.889 19.2586 20.8404C19.1858 20.7918 19.1184 20.7365 19.0565 20.6746C18.9946 20.6127 18.9394 20.5453 18.8907 20.4725C18.8421 20.3997 18.801 20.3229 18.7675 20.242C18.734 20.1611 18.7087 20.0778 18.6916 19.9919C18.6746 19.906 18.666 19.8193 18.666 19.7318C18.666 19.6442 18.6746 19.5575 18.6916 19.4717C18.7087 19.3858 18.734 19.3024 18.7675 19.2215C18.801 19.1406 18.8421 19.0638 18.8907 18.991C18.9394 18.9182 18.9946 18.8509 19.0565 18.789C19.1184 18.7271 19.1858 18.6718 19.2586 18.6231C19.3314 18.5745 19.4082 18.5334 19.4891 18.4999C19.57 18.4664 19.6534 18.4411 19.7392 18.4241C19.8251 18.407 19.9118 18.3984 19.9993 18.3984Z" fill-rule="evenodd"  fill="#FFFFFF" >
</path>
<path d="M19.9993 24.7969L27.9993 24.7969C28.0869 24.7969 28.1736 24.8054 28.2595 24.8225C28.3453 24.8396 28.4287 24.8649 28.5096 24.8984C28.5905 24.9319 28.6673 24.9729 28.7401 25.0216C28.8129 25.0702 28.8803 25.1255 28.9422 25.1874C29.0041 25.2493 29.0593 25.3167 29.108 25.3894C29.1566 25.4622 29.1977 25.5391 29.2312 25.62C29.2647 25.7008 29.29 25.7842 29.3071 25.8701C29.3241 25.956 29.3327 26.0427 29.3327 26.1302C29.3327 26.2178 29.3241 26.3045 29.3071 26.3903C29.29 26.4762 29.2647 26.5596 29.2312 26.6405C29.1977 26.7213 29.1566 26.7982 29.108 26.871C29.0593 26.9438 29.0041 27.0111 28.9422 27.073C28.8803 27.1349 28.8129 27.1902 28.7401 27.2388C28.6673 27.2875 28.5905 27.3285 28.5096 27.362C28.4287 27.3956 28.3453 27.4208 28.2595 27.4379C28.1736 27.455 28.0869 27.4635 27.9993 27.4635L19.9993 27.4635C19.9118 27.4635 19.8251 27.455 19.7392 27.4379C19.6534 27.4208 19.57 27.3955 19.4891 27.362C19.4082 27.3285 19.3314 27.2875 19.2586 27.2388C19.1858 27.1902 19.1184 27.1349 19.0565 27.073C18.9946 27.0111 18.9394 26.9438 18.8907 26.871C18.8421 26.7982 18.801 26.7213 18.7675 26.6405C18.734 26.5596 18.7087 26.4762 18.6916 26.3903C18.6746 26.3045 18.666 26.2178 18.666 26.1302C18.666 26.0427 18.6746 25.956 18.6916 25.8701C18.7087 25.7842 18.734 25.7008 18.7675 25.62C18.801 25.5391 18.8421 25.4622 18.8907 25.3894C18.9394 25.3167 18.9946 25.2493 19.0565 25.1874C19.1184 25.1255 19.1858 25.0702 19.2586 25.0216C19.3314 24.9729 19.4082 24.9319 19.4891 24.8984C19.57 24.8649 19.6534 24.8396 19.7392 24.8225C19.8251 24.8054 19.9118 24.7969 19.9993 24.7969Z" fill-rule="evenodd"  fill="#FFFFFF" >
</path>
<path d="M19.9993 31.0625L27.9993 31.0625C28.0869 31.0625 28.1736 31.071 28.2595 31.0881C28.3453 31.1052 28.4287 31.1305 28.5096 31.164C28.5905 31.1975 28.6673 31.2386 28.7401 31.2872C28.8129 31.3358 28.8803 31.3911 28.9422 31.453C29.0041 31.5149 29.0593 31.5823 29.108 31.6551C29.1566 31.7279 29.1977 31.8047 29.2312 31.8856C29.2647 31.9665 29.29 32.0498 29.3071 32.1357C29.3241 32.2216 29.3327 32.3083 29.3327 32.3958C29.3327 32.4834 29.3241 32.5701 29.3071 32.656C29.29 32.7418 29.2647 32.8252 29.2312 32.9061C29.1977 32.987 29.1566 33.0638 29.108 33.1366C29.0593 33.2094 29.0041 33.2767 28.9422 33.3386C28.8803 33.4005 28.8129 33.4558 28.7401 33.5045C28.6673 33.5531 28.5905 33.5942 28.5096 33.6277C28.4287 33.6612 28.3453 33.6865 28.2595 33.7035C28.1736 33.7206 28.0869 33.7292 27.9993 33.7292L19.9993 33.7292C19.9118 33.7292 19.8251 33.7206 19.7392 33.7035C19.6534 33.6865 19.57 33.6612 19.4891 33.6277C19.4082 33.5942 19.3314 33.5531 19.2586 33.5045C19.1858 33.4558 19.1184 33.4005 19.0565 33.3386C18.9946 33.2767 18.9394 33.2094 18.8907 33.1366C18.8421 33.0638 18.801 32.987 18.7675 32.9061C18.734 32.8252 18.7087 32.7418 18.6916 32.656C18.6746 32.5701 18.666 32.4834 18.666 32.3958C18.666 32.3083 18.6746 32.2216 18.6916 32.1357C18.7087 32.0498 18.734 31.9665 18.7675 31.8856C18.801 31.8047 18.8421 31.7279 18.8907 31.6551C18.9394 31.5823 18.9946 31.5149 19.0565 31.453C19.1184 31.3911 19.1858 31.3358 19.2586 31.2872C19.3314 31.2386 19.4082 31.1975 19.4891 31.164C19.57 31.1305 19.6534 31.1052 19.7392 31.0881C19.8251 31.071 19.9118 31.0625 19.9993 31.0625Z" fill-rule="evenodd"  fill="#FFFFFF" >
</path>
</svg>
