<svg xmlns="http://www.w3.org/2000/svg" xmlns:xlink="http://www.w3.org/1999/xlink" width="48" height="48" viewBox="0 0 48 48" fill="none">
<circle cx="24" cy="24" r="24"   fill="#FF6B6B" >
</circle>
<path d="M23.236 10.9051L9.9027 20.2384C9.87676 20.2566 9.8515 20.2756 9.82692 20.2956C9.74993 20.3581 9.68077 20.4283 9.61945 20.5063C9.55813 20.5842 9.50615 20.6679 9.46351 20.7575C9.42087 20.847 9.38863 20.9402 9.36677 21.0369C9.34491 21.1336 9.33398 21.2316 9.33398 21.3307L9.33398 35.9974C9.33398 36.7338 9.93094 37.3307 10.6673 37.3307L37.334 37.3307C38.0704 37.3307 38.6673 36.7338 38.6673 35.9974L38.6673 21.3307C38.6673 20.8957 38.4551 20.4879 38.0987 20.2384L24.7653 10.9051C24.3061 10.5837 23.6951 10.5837 23.236 10.9051ZM12.0007 22.0249L12.0007 34.6641L36.0007 34.6641L36.0007 22.0249L24.0007 13.6249L12.0007 22.0249Z" fill-rule="evenodd"  fill="#FFFFFF" >
</path>
<path d="M28.7295 17.7439C28.0085 17.3834 27.1875 17.2031 26.2665 17.2031C22.4443 17.2031 20.5332 19.1142 20.5332 22.9365C20.5332 23.4158 20.593 23.8768 20.7127 24.3193L16.9237 27.9936C16.33 28.5873 16.0332 29.2794 16.0332 30.0698C16.0332 30.8376 16.3133 31.5126 16.8735 32.0947C17.4013 32.7225 18.0934 33.0365 18.9499 33.0365C19.7736 33.0365 20.4823 32.7396 21.076 32.1459L24.9572 28.2647C25.4287 28.357 25.8207 28.4031 26.1332 28.4031C27.6991 28.4031 29.0399 27.8685 30.1557 26.7991C31.2963 25.7061 31.8665 24.3741 31.8665 22.8031C31.8665 22.2144 31.7548 21.585 31.5315 20.9148C31.3747 20.4447 30.998 20.1392 30.8488 20.1039C30.8224 20.0977 30.8031 20.1 30.7935 20.1113C30.3195 19.909 29.7363 19.9811 29.3237 20.3936L28.3904 21.327C28.3556 21.3618 28.3228 21.3984 28.292 21.4369L28.2499 21.4365C28.1625 21.4365 28.0823 21.4 28.0093 21.327C27.9364 21.254 27.8999 21.1905 27.8999 21.1365C27.8999 21.0824 27.9364 21.0189 28.0093 20.9459L29.076 19.8793C29.7195 19.2357 29.5435 18.1509 28.7295 17.7439ZM25.5011 19.9246C23.9669 20.1615 23.1999 21.1654 23.1999 22.9365C23.1999 23.3488 23.2863 23.7279 23.4591 24.0735L23.4602 24.0758C23.5893 24.3352 23.6273 24.621 23.614 24.6993C23.6112 24.7159 23.6061 24.7232 23.599 24.7189C23.5865 25.0545 23.4476 25.3818 23.1947 25.627L18.8093 29.8793C18.6823 30.0063 18.6823 30.1333 18.8093 30.2603C18.8267 30.2777 18.8436 30.2956 18.8477 30.3002L18.8484 30.301C18.8689 30.3234 18.8887 30.3465 18.9077 30.3702L18.9499 30.3698C19.0372 30.3698 19.1174 30.3333 19.1904 30.2603L23.5904 25.8603C23.9216 25.5291 24.4022 25.396 24.8566 25.5096C25.4615 25.6608 25.8871 25.7365 26.1332 25.7365C27.7049 25.7365 28.6725 25.1586 29.0359 24.0028C28.7914 24.0697 28.5294 24.1031 28.2499 24.1031C27.4261 24.1031 26.7174 23.8063 26.1237 23.2126C25.53 22.6189 25.2332 21.9269 25.2332 21.1365C25.2332 20.7029 25.3225 20.299 25.5011 19.9246Z" fill-rule="evenodd"  fill="#FFFFFF" >
</path>
</svg>
