<svg xmlns="http://www.w3.org/2000/svg" xmlns:xlink="http://www.w3.org/1999/xlink" width="52" height="52" viewBox="0 0 52 52" fill="none">
<circle cx="26" cy="26" r="26"   fill="#FFCE96" >
</circle>
<path d="M15.3337 36.666L15.3337 26.0049C15.3337 25.9173 15.3251 25.8306 15.308 25.7448C15.291 25.6589 15.2657 25.5755 15.2322 25.4946C15.1987 25.4138 15.1576 25.3369 15.109 25.2641C15.0603 25.1913 15.005 25.124 14.9431 25.0621C14.8812 25.0002 14.8139 24.9449 14.7411 24.8963C14.6683 24.8476 14.5915 24.8065 14.5106 24.773C14.4297 24.7395 14.3463 24.7142 14.2604 24.6972C14.1746 24.6801 14.0879 24.6716 14.0003 24.6715C13.9128 24.6716 13.8261 24.6801 13.7402 24.6972C13.6543 24.7142 13.571 24.7395 13.4901 24.773C13.4092 24.8065 13.3324 24.8476 13.2596 24.8963C13.1868 24.9449 13.1194 25.0002 13.0575 25.0621C12.9956 25.124 12.9403 25.1913 12.8917 25.2641C12.8431 25.3369 12.802 25.4138 12.7685 25.4946C12.735 25.5755 12.7097 25.6589 12.6926 25.7448C12.6755 25.8306 12.667 25.9173 12.667 26.0049L12.667 37.9994C12.667 38.7357 13.2639 39.3327 14.0003 39.3327L38.0003 39.3327C38.7367 39.3327 39.3337 38.7357 39.3337 37.9994L39.3337 25.9993C39.3337 25.9118 39.3251 25.8251 39.3081 25.7392C39.291 25.6534 39.2657 25.57 39.2322 25.4891C39.1987 25.4082 39.1576 25.3314 39.109 25.2586C39.0603 25.1858 39.005 25.1184 38.9431 25.0565C38.8813 24.9946 38.8139 24.9394 38.7411 24.8907C38.6683 24.8421 38.5915 24.801 38.5106 24.7675C38.4297 24.734 38.3463 24.7087 38.2605 24.6916C38.1746 24.6746 38.0879 24.666 38.0003 24.666C37.9128 24.666 37.8261 24.6746 37.7402 24.6916C37.6543 24.7087 37.5709 24.734 37.4901 24.7675C37.4092 24.801 37.3323 24.8421 37.2595 24.8907C37.1867 24.9394 37.1194 24.9946 37.0575 25.0565C36.9956 25.1184 36.9403 25.1858 36.8917 25.2586C36.843 25.3314 36.802 25.4082 36.7685 25.4891C36.7349 25.57 36.7097 25.6534 36.6926 25.7392C36.6755 25.8251 36.667 25.9118 36.667 25.9993L36.667 36.666L15.3337 36.666Z" fill-rule="evenodd"  fill="#FFFFFF" >
</path>
<path d="M26.9431 32.2761L32.9424 26.2768L32.9431 26.2761C33.1844 26.0349 33.3337 25.7015 33.3337 25.3333C33.3337 24.9651 33.1844 24.6318 32.9431 24.3905C32.7018 24.1492 32.3685 24 32.0003 24C31.8235 24 31.6534 24.0338 31.4901 24.1015C31.3267 24.1692 31.1825 24.2655 31.0575 24.3905L26.0003 29.4477L20.9431 24.3905C20.7018 24.1492 20.3685 24 20.0003 24C19.6321 24 19.2988 24.1492 19.0575 24.3905C18.8162 24.6318 18.667 24.9651 18.667 25.3333C18.667 25.7015 18.8162 26.0349 19.0575 26.2761L25.0575 32.2761C25.5782 32.7968 26.4224 32.7968 26.9431 32.2761Z" fill-rule="evenodd"  fill="#FFFFFF" >
</path>
<path d="M27.3278 13.9993L27.3278 31.3327C27.3278 31.4202 27.3193 31.5069 27.3022 31.5928C27.2851 31.6787 27.2598 31.7621 27.2263 31.8429C27.1928 31.9238 27.1517 32.0007 27.1031 32.0735C27.0545 32.1463 26.9992 32.2136 26.9373 32.2755C26.8754 32.3373 26.808 32.3926 26.7352 32.4413C26.6624 32.49 26.5856 32.531 26.5047 32.5645C26.4238 32.5981 26.3405 32.6233 26.2546 32.6404C26.1687 32.6575 26.082 32.666 25.9945 32.666C25.9069 32.666 25.8202 32.6575 25.7343 32.6404C25.6485 32.6233 25.5651 32.5981 25.4842 32.5645C25.4033 32.531 25.3265 32.49 25.2537 32.4413C25.1809 32.3926 25.1136 32.3373 25.0517 32.2755C24.9898 32.2136 24.9345 32.1463 24.8858 32.0735C24.8372 32.0007 24.7961 31.9238 24.7626 31.8429C24.7291 31.7621 24.7038 31.6787 24.6868 31.5928C24.6697 31.5069 24.6611 31.4202 24.6611 31.3327L24.6611 13.9993C24.6611 13.9118 24.6697 13.8251 24.6868 13.7392C24.7038 13.6534 24.7291 13.57 24.7626 13.4891C24.7961 13.4082 24.8372 13.3314 24.8858 13.2586C24.9345 13.1858 24.9898 13.1184 25.0517 13.0565C25.1136 12.9946 25.1809 12.9394 25.2537 12.8907C25.3265 12.8421 25.4033 12.801 25.4842 12.7675C25.5651 12.734 25.6485 12.7087 25.7343 12.6916C25.8202 12.6746 25.9069 12.666 25.9945 12.666C26.082 12.666 26.1687 12.6746 26.2546 12.6916C26.3405 12.7087 26.4238 12.734 26.5047 12.7675C26.5856 12.801 26.6624 12.8421 26.7352 12.8907C26.808 12.9394 26.8754 12.9946 26.9373 13.0565C26.9992 13.1184 27.0545 13.1858 27.1031 13.2586C27.1517 13.3314 27.1928 13.4082 27.2263 13.4891C27.2598 13.57 27.2851 13.6534 27.3022 13.7392C27.3193 13.8251 27.3278 13.9118 27.3278 13.9993Z" fill-rule="evenodd"  fill="#FFFFFF" >
</path>
</svg>
