<svg xmlns="http://www.w3.org/2000/svg" xmlns:xlink="http://www.w3.org/1999/xlink" width="52" height="52" viewBox="0 0 52 52" fill="none">
<circle cx="26" cy="26" r="26"   fill="#FFCE96" >
</circle>
<path d="M30.544 18.0112C32.3576 19.7948 33.2869 21.9568 33.3319 24.4971C33.3444 25.2226 33.9364 25.8068 34.6649 25.8068C35.3999 25.8068 35.996 25.2122 35.9983 24.4778L35.9983 24.4737L35.9983 24.4735L35.9983 24.4686C35.9983 24.4624 35.9982 24.4561 35.998 24.4499L35.998 24.4458C35.9392 21.1807 34.7445 18.4021 32.4139 16.11C30.0794 13.814 27.2748 12.666 24 12.666C17.3726 12.666 12 18.0386 12 24.666C12 27.5575 12.9069 30.095 14.7208 32.2785L14.025 36.4646C13.8521 37.5045 14.8977 38.3243 15.8665 37.9083L20.1545 36.0666C22.2739 36.6999 24.2959 36.8385 26.2208 36.4823C26.8493 36.3775 27.3292 35.8331 27.3333 35.1758L27.3333 35.1676L27.3333 35.1665L27.3333 35.1584C27.3287 34.426 26.7335 33.8337 26 33.8337L25.9995 33.8337L25.9914 33.8337C25.9019 33.8343 25.8146 33.8438 25.7302 33.8611C24.1084 34.1601 22.3664 34 20.504 33.3807C20.3491 33.3292 20.1874 33.3069 20.1453 33.3088C20.1357 33.3092 20.1323 33.3108 20.1366 33.3136C19.9394 33.3057 19.7413 33.3418 19.5571 33.4208L17.0556 34.4953L17.4546 32.0949C17.5218 31.6901 17.399 31.2769 17.1216 30.9747C15.485 29.1914 14.6667 27.0885 14.6667 24.666C14.6667 19.5114 18.8453 15.3327 24 15.3327C26.547 15.3327 28.7284 16.2255 30.544 18.0112Z" fill-rule="evenodd"  fill="#FFFFFF" >
</path>
<path d="M20.083 23.6434C20.9114 23.6434 21.583 22.9668 21.583 22.1322C21.583 21.2977 20.9114 20.6211 20.083 20.6211C19.2546 20.6211 18.583 21.2977 18.583 22.1322C18.583 22.9668 19.2546 23.6434 20.083 23.6434Z"   fill="#FFFFFF" >
</path>
<path d="M26.083 23.6434C26.9114 23.6434 27.583 22.9668 27.583 22.1322C27.583 21.2977 26.9114 20.6211 26.083 20.6211C25.2546 20.6211 24.583 21.2977 24.583 22.1322C24.583 22.9668 25.2546 23.6434 26.083 23.6434Z"   fill="#FFFFFF" >
</path>
<path d="M37.1742 36.6237C37.1726 37.066 36.9558 37.4575 36.6229 37.6989C35.1534 38.7881 33.5012 39.3327 31.6663 39.3327C27.064 39.3327 23.333 35.6017 23.333 30.9993C23.333 26.397 27.064 22.666 31.6663 22.666C36.2687 22.666 39.9997 26.397 39.9997 30.9993C39.9997 32.2353 39.7401 33.409 39.221 34.5206C39.0139 34.9883 38.5457 35.3145 38.0013 35.3145C37.2764 35.3145 36.6866 34.7361 36.6684 34.0156C36.6681 34.0042 36.6679 33.9927 36.6679 33.9812L36.668 33.9715C36.6695 33.7626 36.719 33.5651 36.8061 33.3895C37.1574 32.6362 37.333 31.8395 37.333 30.9993C37.333 27.8697 34.796 25.3327 31.6663 25.3327C28.5367 25.3327 25.9997 27.8697 25.9997 30.9993C25.9997 34.129 28.5367 36.666 31.6663 36.666C32.9139 36.666 34.0367 36.2962 35.0348 35.5567C35.2575 35.3875 35.535 35.2866 35.836 35.2856L35.8403 35.2855L35.8409 35.2855L35.8457 35.2856C36.5783 35.2882 37.1716 35.8815 37.1742 36.614L37.1742 36.6183L37.1742 36.6189L37.1742 36.6237Z" fill-rule="evenodd"  fill="#FFFFFF" >
</path>
<path d="M38.0015 32.6484C38.6713 32.6484 39.2257 33.1422 39.3205 33.7856L39.9821 37.7822C40.159 38.8511 39.0548 39.6735 38.0813 39.1979L35.2821 37.8303C35.1484 37.7684 35.0266 37.6851 34.9212 37.5846C34.9055 37.5696 34.8902 37.5543 34.8753 37.5386C34.6483 37.3002 34.5087 36.9779 34.5078 36.6229L34.5078 36.6194L34.5078 36.6162L34.5078 36.6161C34.5087 36.2542 34.6537 35.9263 34.8885 35.6866C34.895 35.6799 34.9016 35.6733 34.9083 35.6668C35.1481 35.4319 35.4762 35.2869 35.8382 35.2861L35.8411 35.2861L35.8441 35.2861C36.0628 35.2866 36.2691 35.3397 36.451 35.4334L36.929 35.667L36.6902 34.2242C36.6758 34.1456 36.6682 34.0646 36.6682 33.9818C36.6682 33.2454 37.2652 32.6484 38.0015 32.6484Z" fill-rule="evenodd"  fill="#FFFFFF" >
</path>
<path d="M33.792 30.5323C33.1707 30.5323 32.667 30.0249 32.667 29.399C32.667 28.773 33.1707 28.2656 33.792 28.2656C34.4133 28.2656 34.917 28.773 34.917 29.399C34.917 30.0249 34.4133 30.5323 33.792 30.5323Z"   fill="#FFFFFF" >
</path>
<path d="M29.292 30.5323C28.6707 30.5323 28.167 30.0249 28.167 29.399C28.167 28.773 28.6707 28.2656 29.292 28.2656C29.9133 28.2656 30.417 28.773 30.417 29.399C30.417 30.0249 29.9133 30.5323 29.292 30.5323Z"   fill="#FFFFFF" >
</path>
</svg>
