<svg xmlns="http://www.w3.org/2000/svg" xmlns:xlink="http://www.w3.org/1999/xlink" width="52" height="52" viewBox="0 0 52 52" fill="none">
<circle cx="26" cy="26" r="26"   fill="#FFCE96" >
</circle>
<path d="M16.0003 15.3327L36.0003 15.3327C36.3685 15.3327 36.667 15.6312 36.667 15.9993L36.667 35.9993C36.667 36.3675 36.3685 36.666 36.0003 36.666L16.0003 36.666C15.6321 36.666 15.3337 36.3675 15.3337 35.9993L15.3337 15.9993C15.3337 15.6312 15.6321 15.3327 16.0003 15.3327ZM39.3337 15.9993C39.3337 14.1584 37.8413 12.666 36.0003 12.666L16.0003 12.666C14.1594 12.666 12.667 14.1584 12.667 15.9993L12.667 35.9993C12.667 37.8403 14.1594 39.3327 16.0003 39.3327L36.0003 39.3327C37.8413 39.3327 39.3337 37.8403 39.3337 35.9993L39.3337 15.9993Z" fill-rule="evenodd"  fill="#FFFFFF" >
</path>
<path d="M28.7584 32.2194C32.2528 31.0441 34 28.7488 34 25.3333C34 23.2806 33.202 21.536 31.606 20.0996C30.0507 18.6999 28.182 18 26 18C23.818 18 21.9493 18.6999 20.394 20.0996C18.798 21.536 18 23.2806 18 25.3333C18 26.7837 18.4288 28.1142 19.2863 29.3249C19.6054 29.7754 19.6916 30.1591 19.5449 30.476L18.7901 32.1065C18.2832 33.2012 19.3751 34.3527 20.4952 33.9047C22.5585 33.0793 24.3934 32.6667 26 32.6667C26.9521 32.6667 27.8716 32.5176 28.7584 32.2194ZM26 20.6667C29.5556 20.6667 31.3333 22.2222 31.3333 25.3333C31.3333 27.4711 30.1917 28.9239 27.9083 29.6918C27.2973 29.8973 26.6612 30 26 30C24.8369 30 23.5967 30.1696 22.2797 30.5089C22.3853 29.6105 22.1129 28.702 21.4625 27.7836C20.9319 27.0346 20.6667 26.2179 20.6667 25.3333C20.6667 22.2222 22.4444 20.6667 26 20.6667Z" fill-rule="evenodd"  fill="#FFFFFF" >
</path>
</svg>
