<svg xmlns="http://www.w3.org/2000/svg" xmlns:xlink="http://www.w3.org/1999/xlink" width="56" height="56" viewBox="0 0 56 56" fill="none">
<rect  x="0" y="0" width="56" height="56" rx="16"    fill="#F8F8F8" >
</rect>
<path d="M41.5 14.5L14.5 14.5C12.8431 14.5 11.5 15.8431 11.5 17.5L11.5 29.5C11.5 31.1569 12.8431 32.5 14.5 32.5L41.5 32.5C43.1569 32.5 44.5 31.1569 44.5 29.5L44.5 17.5C44.5 15.8431 43.1569 14.5 41.5 14.5ZM14.5 29.5L14.5 17.5L41.5 17.5L41.5 29.5L14.5 29.5Z" fill-rule="evenodd"  fill="#808080" >
</path>
<path d="M17.5 25L17.5 31C17.5 31.8284 18.1716 32.5 19 32.5L37 32.5C37.8284 32.5 38.5 31.8284 38.5 31L38.5 25C38.5 24.1716 37.8284 23.5 37 23.5L19 23.5C18.1716 23.5 17.5 24.1716 17.5 25ZM20.5 29.5L20.5 26.5L35.5 26.5L35.5 29.5L20.5 29.5Z" fill-rule="evenodd"  fill="#808080" >
</path>
<path d="M37 19C37.0985 19 37.196 19.0096 37.2926 19.0288C37.3892 19.048 37.483 19.0765 37.574 19.1142C37.665 19.1519 37.7515 19.1981 37.8334 19.2528C37.9152 19.3075 37.991 19.3697 38.0607 19.4393C38.1303 19.509 38.1925 19.5848 38.2472 19.6666C38.3019 19.7485 38.3481 19.835 38.3858 19.926C38.4235 20.017 38.452 20.1108 38.4712 20.2074C38.4904 20.304 38.5 20.4015 38.5 20.5C38.5 20.5985 38.4904 20.696 38.4712 20.7926C38.452 20.8892 38.4235 20.983 38.3858 21.074C38.3481 21.165 38.3019 21.2515 38.2472 21.3334C38.1925 21.4152 38.1303 21.491 38.0607 21.5607C37.991 21.6303 37.9152 21.6925 37.8334 21.7472C37.7515 21.8019 37.665 21.8481 37.574 21.8858C37.483 21.9235 37.3892 21.952 37.2926 21.9712C37.196 21.9904 37.0985 22 37 22L34 22C33.9015 22 33.804 21.9904 33.7074 21.9712C33.6108 21.952 33.517 21.9235 33.426 21.8858C33.335 21.8481 33.2485 21.8019 33.1666 21.7472C33.0848 21.6925 33.009 21.6303 32.9393 21.5607C32.8697 21.491 32.8075 21.4152 32.7528 21.3334C32.6981 21.2515 32.6519 21.165 32.6142 21.074C32.5765 20.983 32.548 20.8892 32.5288 20.7926C32.5096 20.696 32.5 20.5985 32.5 20.5C32.5 20.4015 32.5096 20.304 32.5288 20.2074C32.548 20.1108 32.5765 20.017 32.6142 19.926C32.6519 19.835 32.6981 19.7485 32.7528 19.6666C32.8075 19.5848 32.8697 19.509 32.9393 19.4393C33.009 19.3697 33.0848 19.3075 33.1666 19.2528C33.2485 19.1981 33.335 19.1519 33.426 19.1142C33.517 19.0765 33.6108 19.048 33.7074 19.0288C33.804 19.0096 33.9015 19 34 19L37 19Z" fill-rule="evenodd"  fill="#808080" >
</path>
<path d="M29.5 35.5L29.5 40C29.5 40.0985 29.4904 40.196 29.4712 40.2926C29.452 40.3892 29.4235 40.483 29.3858 40.574C29.3481 40.665 29.3019 40.7515 29.2472 40.8334C29.1925 40.9152 29.1303 40.991 29.0607 41.0607C28.991 41.1303 28.9152 41.1925 28.8334 41.2472C28.7515 41.3019 28.665 41.3481 28.574 41.3858C28.483 41.4235 28.3892 41.452 28.2926 41.4712C28.196 41.4904 28.0985 41.5 28 41.5C27.9015 41.5 27.804 41.4904 27.7074 41.4712C27.6108 41.452 27.517 41.4235 27.426 41.3858C27.335 41.3481 27.2485 41.3019 27.1666 41.2472C27.0848 41.1925 27.009 41.1303 26.9393 41.0607C26.8697 40.991 26.8075 40.9152 26.7528 40.8334C26.6981 40.7515 26.6519 40.665 26.6142 40.574C26.5765 40.483 26.548 40.3892 26.5288 40.2926C26.5096 40.196 26.5 40.0985 26.5 40L26.5 35.5C26.5 35.4015 26.5096 35.304 26.5288 35.2074C26.548 35.1108 26.5765 35.017 26.6142 34.926C26.6519 34.835 26.6981 34.7485 26.7528 34.6666C26.8075 34.5848 26.8697 34.509 26.9393 34.4393C27.009 34.3697 27.0848 34.3075 27.1666 34.2528C27.2485 34.1981 27.335 34.1519 27.426 34.1142C27.517 34.0765 27.6108 34.048 27.7074 34.0288C27.804 34.0096 27.9015 34 28 34C28.0985 34 28.196 34.0096 28.2926 34.0288C28.3892 34.048 28.483 34.0765 28.574 34.1142C28.665 34.1519 28.7515 34.1981 28.8334 34.2528C28.9152 34.3075 28.991 34.3697 29.0607 34.4393C29.1303 34.509 29.1925 34.5848 29.2472 34.6666C29.3019 34.7485 29.3481 34.835 29.3858 34.926C29.4235 35.017 29.452 35.1108 29.4712 35.2074C29.4904 35.304 29.5 35.4015 29.5 35.5Z" fill-rule="evenodd"  fill="#808080" >
</path>
<path d="M23.5 37L23.5 38.5C23.5 38.5985 23.4904 38.696 23.4712 38.7926C23.452 38.8892 23.4235 38.983 23.3858 39.074C23.3481 39.165 23.3019 39.2515 23.2472 39.3334C23.1925 39.4152 23.1303 39.491 23.0607 39.5607C22.991 39.6303 22.9152 39.6925 22.8334 39.7472C22.7515 39.8019 22.665 39.8481 22.574 39.8858C22.483 39.9235 22.3892 39.952 22.2926 39.9712C22.196 39.9904 22.0985 40 22 40C21.9015 40 21.804 39.9904 21.7074 39.9712C21.6108 39.952 21.517 39.9235 21.426 39.8858C21.335 39.8481 21.2485 39.8019 21.1666 39.7472C21.0848 39.6925 21.009 39.6303 20.9393 39.5607C20.8697 39.491 20.8075 39.4152 20.7528 39.3334C20.6981 39.2515 20.6519 39.165 20.6142 39.074C20.5765 38.983 20.548 38.8892 20.5288 38.7926C20.5096 38.696 20.5 38.5985 20.5 38.5L20.5 37C20.5 36.9015 20.5096 36.804 20.5288 36.7074C20.548 36.6108 20.5765 36.517 20.6142 36.426C20.6519 36.335 20.6981 36.2485 20.7528 36.1666C20.8075 36.0848 20.8697 36.009 20.9393 35.9393C21.009 35.8697 21.0848 35.8075 21.1666 35.7528C21.2485 35.6981 21.335 35.6519 21.426 35.6142C21.517 35.5765 21.6108 35.548 21.7074 35.5288C21.804 35.5096 21.9015 35.5 22 35.5C22.0985 35.5 22.196 35.5096 22.2926 35.5288C22.3892 35.548 22.483 35.5765 22.574 35.6142C22.665 35.6519 22.7515 35.6981 22.8334 35.7528C22.9152 35.8075 22.991 35.8697 23.0607 35.9393C23.1303 36.009 23.1925 36.0848 23.2472 36.1666C23.3019 36.2485 23.3481 36.335 23.3858 36.426C23.4235 36.517 23.452 36.6108 23.4712 36.7074C23.4904 36.804 23.5 36.9015 23.5 37Z" fill-rule="evenodd"  fill="#808080" >
</path>
<path d="M35.5 37L35.5 38.5C35.5 38.5985 35.4904 38.696 35.4712 38.7926C35.452 38.8892 35.4235 38.983 35.3858 39.074C35.3481 39.165 35.3019 39.2515 35.2472 39.3334C35.1925 39.4152 35.1303 39.491 35.0607 39.5607C34.991 39.6303 34.9152 39.6925 34.8334 39.7472C34.7515 39.8019 34.665 39.8481 34.574 39.8858C34.483 39.9235 34.3892 39.952 34.2926 39.9712C34.196 39.9904 34.0985 40 34 40C33.9015 40 33.804 39.9904 33.7074 39.9712C33.6108 39.952 33.517 39.9235 33.426 39.8858C33.335 39.8481 33.2485 39.8019 33.1666 39.7472C33.0848 39.6925 33.009 39.6303 32.9393 39.5607C32.8697 39.491 32.8075 39.4152 32.7528 39.3334C32.6981 39.2515 32.6519 39.165 32.6142 39.074C32.5765 38.983 32.548 38.8892 32.5288 38.7926C32.5096 38.696 32.5 38.5985 32.5 38.5L32.5 37C32.5 36.9015 32.5096 36.804 32.5288 36.7074C32.548 36.6108 32.5765 36.517 32.6142 36.426C32.6519 36.335 32.6981 36.2485 32.7528 36.1666C32.8075 36.0848 32.8697 36.009 32.9393 35.9393C33.009 35.8697 33.0848 35.8075 33.1666 35.7528C33.2485 35.6981 33.335 35.6519 33.426 35.6142C33.517 35.5765 33.6108 35.548 33.7074 35.5288C33.804 35.5096 33.9015 35.5 34 35.5C34.0985 35.5 34.196 35.5096 34.2926 35.5288C34.3892 35.548 34.483 35.5765 34.574 35.6142C34.665 35.6519 34.7515 35.6981 34.8334 35.7528C34.9152 35.8075 34.991 35.8697 35.0607 35.9393C35.1303 36.009 35.1925 36.0848 35.2472 36.1666C35.3019 36.2485 35.3481 36.335 35.3858 36.426C35.4235 36.517 35.452 36.6108 35.4712 36.7074C35.4904 36.804 35.5 36.9015 35.5 37Z" fill-rule="evenodd"  fill="#808080" >
</path>
</svg>
