<svg xmlns="http://www.w3.org/2000/svg" xmlns:xlink="http://www.w3.org/1999/xlink" width="56" height="56" viewBox="0 0 56 56" fill="none">
<rect  x="0" y="0" width="56" height="56" rx="16"    fill="#F8F8F8" >
</rect>
<path d="M14.5 20.5L41.5 20.5L41.5 40L14.5 40L14.5 20.5ZM44.5 20.5C44.5 18.8431 43.1569 17.5 41.5 17.5L14.5 17.5C12.8431 17.5 11.5 18.8431 11.5 20.5L11.5 40C11.5 41.6569 12.8431 43 14.5 43L41.5 43C43.1569 43 44.5 41.6569 44.5 40L44.5 20.5Z" fill-rule="evenodd"  fill="#808080" >
</path>
<path d="M31.75 25.75L19.75 25.75L19.75 34.75L31.75 34.75L31.75 25.75ZM34.75 36.25L34.75 24.25C34.6642 23.3358 34.1642 22.8358 33.25 22.75L18.25 22.75C17.4216 22.75 16.75 23.4216 16.75 24.25L16.75 36.25C16.75 37.0784 17.4216 37.75 18.25 37.75L33.25 37.75C34.0784 37.75 34.75 37.0784 34.75 36.25Z" fill-rule="evenodd"  fill="#808080" >
</path>
<path d="M34.4864 10.3943L34.4828 10.3976L27.2663 17.0127L21.4626 12.2245C21.2021 12.0064 20.8664 11.875 20.5 11.875C19.6723 11.875 19.0011 12.5454 19 13.3729L19 13.375L19 13.3768L19 13.377C19.0005 13.7856 19.1644 14.1559 19.4298 14.4261C19.4361 14.4325 19.4425 14.4389 19.4489 14.4452C19.4827 14.4783 19.518 14.5099 19.5547 14.5397L26.3636 20.1571C26.9407 20.6331 27.7803 20.6112 28.3318 20.1057L36.5093 12.6096L36.5135 12.6057C36.8125 12.3315 37 11.9377 37 11.5C37 11.1092 36.8506 10.7534 36.6058 10.4864C36.3316 10.1874 35.9377 10 35.5 10C35.3124 10 35.1311 10.034 34.9562 10.102C34.7813 10.1701 34.6247 10.2675 34.4864 10.3943Z" fill-rule="evenodd"  fill="#808080" >
</path>
<path d="M40 23.5L40 24.25C40 24.3485 39.9904 24.446 39.9712 24.5426C39.952 24.6392 39.9235 24.733 39.8858 24.824C39.8481 24.915 39.8019 25.0015 39.7472 25.0834C39.6925 25.1652 39.6303 25.241 39.5607 25.3107C39.491 25.3803 39.4152 25.4425 39.3334 25.4972C39.2515 25.5519 39.165 25.5981 39.074 25.6358C38.983 25.6735 38.8892 25.702 38.7926 25.7212C38.696 25.7404 38.5985 25.75 38.5 25.75C38.4015 25.75 38.304 25.7404 38.2074 25.7212C38.1108 25.702 38.017 25.6735 37.926 25.6358C37.835 25.5981 37.7485 25.5519 37.6666 25.4972C37.5848 25.4425 37.509 25.3803 37.4393 25.3107C37.3697 25.241 37.3075 25.1652 37.2528 25.0834C37.1981 25.0015 37.1519 24.915 37.1142 24.824C37.0765 24.733 37.048 24.6392 37.0288 24.5426C37.0096 24.446 37 24.3485 37 24.25L37 23.5C37 23.4015 37.0096 23.304 37.0288 23.2074C37.048 23.1108 37.0765 23.017 37.1142 22.926C37.1519 22.835 37.1981 22.7485 37.2528 22.6666C37.3075 22.5848 37.3697 22.509 37.4393 22.4393C37.509 22.3697 37.5848 22.3075 37.6666 22.2528C37.7485 22.1981 37.835 22.1519 37.926 22.1142C38.017 22.0765 38.1108 22.048 38.2074 22.0288C38.304 22.0096 38.4015 22 38.5 22C38.5985 22 38.696 22.0096 38.7926 22.0288C38.8892 22.048 38.983 22.0765 39.074 22.1142C39.165 22.1519 39.2515 22.1981 39.3334 22.2528C39.4152 22.3075 39.491 22.3697 39.5607 22.4393C39.6303 22.509 39.6925 22.5848 39.7472 22.6666C39.8019 22.7485 39.8481 22.835 39.8858 22.926C39.9235 23.017 39.952 23.1108 39.9712 23.2074C39.9904 23.304 40 23.4015 40 23.5Z" fill-rule="evenodd"  fill="#808080" >
</path>
<path d="M40 28.75L40 29.5C40 29.5985 39.9904 29.696 39.9712 29.7926C39.952 29.8892 39.9235 29.983 39.8858 30.074C39.8481 30.165 39.8019 30.2515 39.7472 30.3334C39.6925 30.4152 39.6303 30.491 39.5607 30.5607C39.491 30.6303 39.4152 30.6925 39.3334 30.7472C39.2515 30.8019 39.165 30.8481 39.074 30.8858C38.983 30.9235 38.8892 30.952 38.7926 30.9712C38.696 30.9904 38.5985 31 38.5 31C38.4015 31 38.304 30.9904 38.2074 30.9712C38.1108 30.952 38.017 30.9235 37.926 30.8858C37.835 30.8481 37.7485 30.8019 37.6666 30.7472C37.5848 30.6925 37.509 30.6303 37.4393 30.5607C37.3697 30.491 37.3075 30.4152 37.2528 30.3334C37.1981 30.2515 37.1519 30.165 37.1142 30.074C37.0765 29.983 37.048 29.8892 37.0288 29.7926C37.0096 29.696 37 29.5985 37 29.5L37 28.75C37 28.6515 37.0096 28.554 37.0288 28.4574C37.048 28.3608 37.0765 28.267 37.1142 28.176C37.1519 28.085 37.1981 27.9985 37.2528 27.9166C37.3075 27.8348 37.3697 27.759 37.4393 27.6893C37.509 27.6197 37.5848 27.5575 37.6666 27.5028C37.7485 27.4481 37.835 27.4019 37.926 27.3642C38.017 27.3265 38.1108 27.298 38.2074 27.2788C38.304 27.2596 38.4015 27.25 38.5 27.25C38.5985 27.25 38.696 27.2596 38.7926 27.2788C38.8892 27.298 38.983 27.3265 39.074 27.3642C39.165 27.4019 39.2515 27.4481 39.3334 27.5028C39.4152 27.5575 39.491 27.6197 39.5607 27.6893C39.6303 27.759 39.6925 27.8348 39.7472 27.9166C39.8019 27.9985 39.8481 28.085 39.8858 28.176C39.9235 28.267 39.952 28.3608 39.9712 28.4574C39.9904 28.554 40 28.6515 40 28.75Z" fill-rule="evenodd"  fill="#808080" >
</path>
</svg>
