<svg xmlns="http://www.w3.org/2000/svg" xmlns:xlink="http://www.w3.org/1999/xlink" width="56" height="56" viewBox="0 0 56 56" fill="none">
<rect  x="0" y="0" width="56" height="56" rx="16"    fill="#F8F8F8" >
</rect>
<path d="M38.4907 11.4688L17.9192 11.4688C16.2962 11.4688 14.9805 12.7845 14.9805 14.4075L14.9805 40.8564C14.9805 42.4796 16.2962 43.7952 17.9192 43.7952L38.4907 43.7952C40.1137 43.7952 41.4295 42.4796 41.4295 40.8564L41.4295 14.4075C41.4295 12.7845 40.1137 11.4688 38.4907 11.4688ZM17.9192 40.8564L17.9192 14.4075L38.4907 14.4075L38.4907 40.8564L17.9192 40.8564Z" fill-rule="evenodd"  fill="#808080" >
</path>
<path d="M16.4499 19.918L39.9601 19.918C40.0565 19.918 40.1521 19.9274 40.2468 19.9462C40.3414 19.965 40.4332 19.9929 40.5223 20.0298C40.6115 20.0667 40.6962 20.112 40.7764 20.1656C40.8566 20.2192 40.9308 20.2801 40.999 20.3483C41.0673 20.4166 41.1283 20.4908 41.1819 20.571C41.2355 20.6512 41.2807 20.7359 41.3176 20.825C41.3545 20.9142 41.3824 21.0061 41.4012 21.1007C41.4201 21.1953 41.4295 21.2909 41.4295 21.3874C41.4295 21.4838 41.4201 21.5794 41.4012 21.674C41.3824 21.7686 41.3545 21.8605 41.3176 21.9497C41.2807 22.0388 41.2355 22.1235 41.1819 22.2037C41.1283 22.2839 41.0673 22.3581 40.999 22.4264C40.9308 22.4946 40.8566 22.5555 40.7764 22.6091C40.6962 22.6627 40.6115 22.708 40.5223 22.7449C40.4332 22.7818 40.3414 22.8097 40.2468 22.8285C40.1521 22.8473 40.0565 22.8567 39.9601 22.8567L16.4499 22.8567C16.3534 22.8567 16.2578 22.8473 16.1632 22.8285C16.0686 22.8097 15.9767 22.7818 15.8875 22.7449C15.7984 22.708 15.7137 22.6627 15.6335 22.6091C15.5533 22.5555 15.4791 22.4946 15.4108 22.4264C15.3426 22.3581 15.2817 22.2839 15.2281 22.2037C15.1745 22.1235 15.1292 22.0388 15.0923 21.9497C15.0554 21.8605 15.0275 21.7686 15.0087 21.674C14.9899 21.5794 14.9805 21.4838 14.9805 21.3874C14.9805 21.2909 14.9899 21.1953 15.0087 21.1007C15.0275 21.0061 15.0554 20.9142 15.0923 20.825C15.1292 20.7359 15.1745 20.6512 15.2281 20.571C15.2817 20.4908 15.3426 20.4166 15.4108 20.3483C15.4791 20.2801 15.5533 20.2192 15.6335 20.1656C15.7137 20.112 15.7984 20.0667 15.8875 20.0298C15.9767 19.9929 16.0686 19.965 16.1632 19.9462C16.2578 19.9274 16.3534 19.918 16.4499 19.918Z" fill-rule="evenodd"  fill="#808080" >
</path>
<path d="M32.6106 17.3483C32.6106 18.1598 31.9528 18.8177 31.1413 18.8177C30.3297 18.8177 29.6719 18.1598 29.6719 17.3483C29.6719 16.5368 30.3297 15.8789 31.1413 15.8789C31.9528 15.8789 32.6106 16.5368 32.6106 17.3483Z"   fill="#808080" >
</path>
<path d="M37.0208 17.3483C37.0208 18.1598 36.3629 18.8177 35.5514 18.8177C34.7399 18.8177 34.082 18.1598 34.082 17.3483C34.082 16.5368 34.7399 15.8789 35.5514 15.8789C36.3629 15.8789 37.0208 16.5368 37.0208 17.3483Z"   fill="#808080" >
</path>
<path d="M28.206 38.6542C31.8578 38.6542 34.8182 35.6938 34.8182 32.0419C34.8182 28.3901 31.8578 25.4297 28.206 25.4297C24.5542 25.4297 21.5938 28.3901 21.5938 32.0419C21.5938 35.6938 24.5542 38.6542 28.206 38.6542ZM28.206 28.3685C30.2348 28.3685 31.8795 30.0131 31.8795 32.0419C31.8795 34.0707 30.2348 35.7154 28.206 35.7154C26.1772 35.7154 24.5325 34.0707 24.5325 32.0419C24.5325 30.0131 26.1772 28.3685 28.206 28.3685Z" fill-rule="evenodd"  fill="#808080" >
</path>
</svg>
