<svg xmlns="http://www.w3.org/2000/svg" xmlns:xlink="http://www.w3.org/1999/xlink" width="56" height="56" viewBox="0 0 56 56" fill="none">
<rect  x="0" y="0" width="56" height="56" rx="16"    fill="#F8F8F8" >
</rect>
<circle cx="28" cy="24.1796875" r="14"   fill="#808080" >
</circle>
<circle cx="28" cy="24.1796875" r="11"   fill="#F8F8F8" >
</circle>
<path d="M29.1667 24.7438C29.1667 26.8549 26 26.8549 26 24.7438L26 12.5521C26 12.4481 26.0101 12.3452 26.0304 12.2432C26.0507 12.1412 26.0807 12.0422 26.1205 11.9462C26.1603 11.8501 26.2091 11.7589 26.2668 11.6724C26.3246 11.586 26.3902 11.506 26.4637 11.4325C26.5373 11.359 26.6172 11.2933 26.7037 11.2356C26.7901 11.1778 26.8814 11.1291 26.9774 11.0893C27.0735 11.0495 27.1725 11.0195 27.2744 10.9992C27.3764 10.9789 27.4794 10.9688 27.5833 10.9688C27.6873 10.9688 27.7903 10.9789 27.8922 10.9992C27.9942 11.0195 28.0932 11.0495 28.1892 11.0893C28.2853 11.1291 28.3765 11.1778 28.463 11.2356C28.5494 11.2933 28.6294 11.359 28.7029 11.4325C28.7764 11.506 28.8421 11.586 28.8998 11.6724C28.9576 11.7589 29.0064 11.8501 29.0461 11.9462C29.0859 12.0422 29.116 12.1412 29.1362 12.2432C29.1565 12.3452 29.1667 12.4481 29.1667 12.5521L29.1667 24.7438Z" fill-rule="evenodd"  fill="#808080" >
</path>
<path d="M18.1886 31.5174L28.7969 25.3424C28.9784 25.2367 29.1327 25.1004 29.26 24.9334C29.3872 24.7664 29.4776 24.5813 29.5312 24.3783C29.5849 24.1753 29.5976 23.9698 29.5695 23.7617C29.5413 23.5537 29.4744 23.3589 29.3688 23.1774C29.3165 23.0876 29.2559 23.0037 29.1871 22.9258C29.1183 22.8479 29.0425 22.7774 28.9598 22.7144C28.8771 22.6514 28.7891 22.5971 28.6956 22.5515C28.6022 22.5058 28.5053 22.4697 28.4048 22.4431C28.3042 22.4166 28.2021 22.4001 28.0983 22.3937C27.9946 22.3872 27.8912 22.391 27.7882 22.4049C27.6851 22.4189 27.5845 22.4427 27.4861 22.4765C27.3878 22.5103 27.2937 22.5533 27.2039 22.6056L16.5955 28.7806C14.771 29.8426 16.3641 32.5794 18.1886 31.5174Z" fill-rule="evenodd"  fill="#808080" >
</path>
<path d="M26.8065 25.1179L37.4148 31.2929C37.5047 31.3452 37.5987 31.3882 37.6971 31.422C37.7954 31.4558 37.8961 31.4796 37.9991 31.4935C38.1021 31.5075 38.2055 31.5112 38.3093 31.5048C38.413 31.4984 38.5152 31.4819 38.6157 31.4553C38.7162 31.4288 38.8132 31.3927 38.9066 31.347C39 31.3014 39.088 31.2471 39.1707 31.1841C39.2534 31.1211 39.3292 31.0506 39.398 30.9727C39.4669 30.8948 39.5274 30.8109 39.5797 30.721C39.632 30.6312 39.6751 30.5371 39.7088 30.4388C39.7426 30.3404 39.7664 30.2398 39.7804 30.1367C39.7943 30.0337 39.7981 29.9303 39.7916 29.8266C39.7852 29.7228 39.7687 29.6206 39.7422 29.5201C39.7156 29.4196 39.6795 29.3227 39.6339 29.2293C39.5882 29.1359 39.5339 29.0478 39.4709 28.9651C39.4079 28.8824 39.3374 28.8066 39.2595 28.7378C39.1816 28.669 39.0977 28.6084 39.0079 28.5561L28.3995 22.3811C26.575 21.3191 24.982 24.0559 26.8065 25.1179Z" fill-rule="evenodd"  fill="#808080" >
</path>
<path d="M33.6667 45.8073L22.5833 45.8073C22.4794 45.8073 22.3764 45.7971 22.2744 45.7769C22.1725 45.7566 22.0735 45.7266 21.9774 45.6868C21.8814 45.647 21.7901 45.5982 21.7037 45.5405C21.6172 45.4827 21.5373 45.4171 21.4637 45.3435C21.3902 45.27 21.3246 45.1901 21.2668 45.1036C21.2091 45.0172 21.1603 44.9259 21.1205 44.8299C21.0807 44.7338 21.0507 44.6348 21.0304 44.5329C21.0101 44.4309 21 44.3279 21 44.224C21 44.12 21.0101 44.017 21.0304 43.9151C21.0507 43.8131 21.0807 43.7141 21.1205 43.618C21.1603 43.522 21.2091 43.4307 21.2668 43.3443C21.3246 43.2579 21.3902 43.1779 21.4637 43.1044C21.5373 43.0309 21.6172 42.9652 21.7037 42.9075C21.7901 42.8497 21.8814 42.8009 21.9774 42.7612C22.0735 42.7214 22.1725 42.6913 22.2744 42.671C22.3764 42.6508 22.4794 42.6406 22.5833 42.6406L33.6667 42.6406C33.7706 42.6406 33.8736 42.6508 33.9756 42.671C34.0775 42.6913 34.1765 42.7214 34.2726 42.7612C34.3686 42.8009 34.4599 42.8497 34.5463 42.9075C34.6328 42.9652 34.7127 43.0309 34.7863 43.1044C34.8598 43.1779 34.9254 43.2579 34.9832 43.3443C35.0409 43.4307 35.0897 43.522 35.1295 43.618C35.1693 43.7141 35.1993 43.8131 35.2196 43.9151C35.2399 44.017 35.25 44.12 35.25 44.224C35.25 44.3279 35.2399 44.4309 35.2196 44.5329C35.1993 44.6348 35.1693 44.7338 35.1295 44.8299C35.0897 44.9259 35.0409 45.0172 34.9832 45.1036C34.9254 45.1901 34.8598 45.27 34.7863 45.3435C34.7127 45.4171 34.6328 45.4827 34.5463 45.5405C34.4599 45.5982 34.3686 45.647 34.2726 45.6868C34.1765 45.7266 34.0775 45.7566 33.9756 45.7769C33.8736 45.7971 33.7706 45.8073 33.6667 45.8073Z" fill-rule="evenodd"  fill="#808080" >
</path>
<path d="M26.5325 44.354L27.1624 37.5821C27.1681 37.5273 27.1711 37.4717 27.1711 37.4154C27.1711 36.5409 26.4622 35.832 25.5878 35.832C24.7572 35.832 24.076 36.4716 24.0097 37.2851L23.3798 44.057C23.374 44.1118 23.3711 44.1674 23.3711 44.2237C23.3711 45.0964 24.0772 45.8043 24.9493 45.807L24.9541 45.807L24.9583 45.807L26.5325 44.354Z" fill-rule="evenodd"  fill="#808080" >
</path>
<path d="M29.0703 37.4154C29.0703 37.4717 29.0733 37.5273 29.079 37.5821L29.7105 44.3703C29.7201 44.4739 29.7397 44.5754 29.7694 44.6751C29.799 44.7747 29.8381 44.8705 29.8866 44.9625C29.9351 45.0544 29.9921 45.1408 30.0576 45.2215C30.1231 45.3022 30.1959 45.3758 30.2759 45.4422C30.3559 45.5086 30.4416 45.5665 30.533 45.616C30.6245 45.6655 30.7198 45.7056 30.8192 45.7363C30.9185 45.7671 31.0198 45.7878 31.1232 45.7985C31.2267 45.8093 31.3301 45.8098 31.4336 45.8002C31.6427 45.7808 31.8401 45.7221 32.0258 45.6241C32.2115 45.5261 32.3714 45.3964 32.5054 45.2348C32.6395 45.0732 32.7376 44.8921 32.7996 44.6915C32.8617 44.4909 32.883 44.2861 32.8635 44.077L32.2317 37.2851C32.1655 36.4716 31.4842 35.832 30.6536 35.832C29.7792 35.832 29.0703 36.5409 29.0703 37.4154Z" fill-rule="evenodd"  fill="#808080" >
</path>
<path d="M27.9987 26.9154C29.7404 26.9154 31.1654 25.4904 31.1654 23.7487C31.1654 22.007 29.7404 20.582 27.9987 20.582C26.257 20.582 24.832 22.007 24.832 23.7487C24.832 25.4904 26.257 26.9154 27.9987 26.9154Z"   fill="#FFFFFF" >
</path>
<path d="M27.9987 26.9154C29.7404 26.9154 31.1654 25.4904 31.1654 23.7487C31.1654 22.007 29.7404 20.582 27.9987 20.582C26.257 20.582 24.832 22.007 24.832 23.7487C24.832 25.4904 26.257 26.9154 27.9987 26.9154Z"   fill="#FFFFFF" >
</path>
<path d="M29.3333 23.75C29.3333 24.6244 28.6244 25.3333 27.75 25.3333C26.8756 25.3333 26.1667 24.6244 26.1667 23.75C26.1667 22.8756 26.8756 22.1667 27.75 22.1667C28.6244 22.1667 29.3333 22.8756 29.3333 23.75ZM23 23.75C23 26.3733 25.1266 28.5 27.75 28.5C30.3733 28.5 32.5 26.3733 32.5 23.75C32.5 21.1266 30.3733 19 27.75 19C25.1266 19 23 21.1266 23 23.75Z" fill-rule="evenodd"  fill="#808080" >
</path>
</svg>
