<svg xmlns="http://www.w3.org/2000/svg" xmlns:xlink="http://www.w3.org/1999/xlink" width="56" height="56" viewBox="0 0 56 56" fill="none">
<rect  x="0" y="0" width="56" height="56" rx="16"    fill="#F8F8F8" >
</rect>
<path d="M17.5 27.25L14.5 27.25L14.5 34.75L17.5 34.75L17.5 27.25ZM20.5 36.25L20.5 25.75C20.4142 24.8358 19.9142 24.3358 19 24.25L13 24.25C12.1716 24.25 11.5 24.9216 11.5 25.75L11.5 36.25C11.5 37.0784 12.1716 37.75 13 37.75L19 37.75C19.8284 37.75 20.5 37.0784 20.5 36.25Z" fill-rule="evenodd"  fill="#808080" >
</path>
<path d="M41.5 27.25L38.5 27.25L38.5 34.75L41.5 34.75L41.5 27.25ZM44.5 36.25L44.5 25.75C44.4142 24.8358 43.9142 24.3358 43 24.25L37 24.25C36.1716 24.25 35.5 24.9216 35.5 25.75L35.5 36.25C35.5 37.0784 36.1716 37.75 37 37.75L43 37.75C43.8284 37.75 44.5 37.0784 44.5 36.25Z" fill-rule="evenodd"  fill="#808080" >
</path>
<path d="M38.5 30.25L38.5 36.25C38.5 37.0784 37.8284 37.75 37 37.75L19 37.75C18.1716 37.75 17.5 37.0784 17.5 36.25L17.5 30.25C17.5 29.4216 18.1716 28.75 19 28.75L37 28.75C37.0985 28.75 37.1961 28.7596 37.2926 28.7788C37.3893 28.798 37.483 28.8265 37.5741 28.8642C37.6651 28.9019 37.7515 28.9481 37.8334 29.0028C37.9153 29.0575 37.9911 29.1197 38.0606 29.1893C38.1302 29.259 38.1925 29.3348 38.2472 29.4166C38.3019 29.4985 38.3482 29.585 38.3858 29.676C38.4235 29.767 38.452 29.8608 38.4712 29.9574C38.4904 30.054 38.5 30.1515 38.5 30.25ZM20.5 31.75L35.5 31.75L35.5 34.75L20.5 34.75L20.5 31.75Z" fill-rule="evenodd"  fill="#808080" >
</path>
<path d="M14.5 16L14.5 25C14.5 25.0985 14.5096 25.196 14.5288 25.2926C14.548 25.3892 14.5765 25.483 14.6142 25.574C14.6519 25.665 14.6981 25.7515 14.7528 25.8334C14.8075 25.9152 14.8697 25.991 14.9393 26.0607C15.009 26.1303 15.0848 26.1925 15.1666 26.2472C15.2485 26.3019 15.335 26.3481 15.426 26.3858C15.517 26.4235 15.6108 26.452 15.7074 26.4712C15.804 26.4904 15.9015 26.5 16 26.5C16.0985 26.5 16.196 26.4904 16.2926 26.4712C16.3892 26.452 16.483 26.4235 16.574 26.3858C16.665 26.3481 16.7515 26.3019 16.8334 26.2472C16.9152 26.1925 16.991 26.1303 17.0607 26.0607C17.1303 25.991 17.1925 25.9152 17.2472 25.8334C17.3019 25.7515 17.3481 25.665 17.3858 25.574C17.4235 25.483 17.452 25.3892 17.4712 25.2926C17.4904 25.196 17.5 25.0985 17.5 25L17.5 17.5L38.5 17.5L38.5 25C38.5 25.0985 38.5096 25.196 38.5288 25.2926C38.548 25.3892 38.5765 25.483 38.6142 25.574C38.6518 25.665 38.6981 25.7515 38.7528 25.8334C38.8074 25.9152 38.8697 25.991 38.9394 26.0607C39.0089 26.1303 39.0847 26.1925 39.1666 26.2472C39.2485 26.3019 39.3349 26.3481 39.4259 26.3858C39.517 26.4235 39.6107 26.452 39.7074 26.4712C39.8039 26.4904 39.9015 26.5 40 26.5C40.0985 26.5 40.1961 26.4904 40.2926 26.4712C40.3893 26.452 40.483 26.4235 40.5741 26.3858C40.6651 26.3481 40.7515 26.3019 40.8334 26.2472C40.9153 26.1925 40.9911 26.1303 41.0606 26.0607C41.1302 25.991 41.1925 25.9152 41.2472 25.8334C41.3019 25.7515 41.3482 25.665 41.3858 25.574C41.4235 25.483 41.452 25.3892 41.4712 25.2926C41.4904 25.196 41.5 25.0985 41.5 25L41.5 16C41.5 15.1716 40.8284 14.5 40 14.5L16 14.5C15.1716 14.5 14.5 15.1716 14.5 16Z" fill-rule="evenodd"  fill="#808080" >
</path>
<path d="M17.5 40C17.5 40.0985 17.4904 40.196 17.4712 40.2926C17.452 40.3892 17.4235 40.483 17.3858 40.574C17.3481 40.665 17.3019 40.7515 17.2472 40.8334C17.1925 40.9152 17.1303 40.991 17.0607 41.0607C16.991 41.1303 16.9152 41.1925 16.8334 41.2472C16.7515 41.3019 16.665 41.3481 16.574 41.3858C16.483 41.4235 16.3892 41.452 16.2926 41.4712C16.196 41.4904 16.0985 41.5 16 41.5C15.9015 41.5 15.804 41.4904 15.7074 41.4712C15.6108 41.452 15.517 41.4235 15.426 41.3858C15.335 41.3481 15.2485 41.3019 15.1666 41.2472C15.0848 41.1925 15.009 41.1303 14.9393 41.0607C14.8697 40.991 14.8075 40.9152 14.7528 40.8334C14.6981 40.7515 14.6519 40.665 14.6142 40.574C14.5765 40.483 14.548 40.3892 14.5288 40.2926C14.5096 40.196 14.5 40.0985 14.5 40L14.5 37C14.5 36.9015 14.5096 36.804 14.5288 36.7074C14.548 36.6108 14.5765 36.517 14.6142 36.426C14.6519 36.335 14.6981 36.2485 14.7528 36.1666C14.8075 36.0848 14.8697 36.009 14.9393 35.9393C15.009 35.8697 15.0848 35.8075 15.1666 35.7528C15.2485 35.6981 15.335 35.6519 15.426 35.6142C15.517 35.5765 15.6108 35.548 15.7074 35.5288C15.804 35.5096 15.9015 35.5 16 35.5C16.0985 35.5 16.196 35.5096 16.2926 35.5288C16.3892 35.548 16.483 35.5765 16.574 35.6142C16.665 35.6519 16.7515 35.6981 16.8334 35.7528C16.9152 35.8075 16.991 35.8697 17.0607 35.9393C17.1303 36.009 17.1925 36.0848 17.2472 36.1666C17.3019 36.2485 17.3481 36.335 17.3858 36.426C17.4235 36.517 17.452 36.6108 17.4712 36.7074C17.4904 36.804 17.5 36.9015 17.5 37L17.5 40Z" fill-rule="evenodd"  fill="#808080" >
</path>
<path d="M41.5 40C41.5 40.0985 41.4904 40.196 41.4712 40.2926C41.452 40.3892 41.4235 40.483 41.3858 40.574C41.3481 40.665 41.3019 40.7515 41.2472 40.8334C41.1925 40.9152 41.1303 40.991 41.0607 41.0607C40.991 41.1303 40.9152 41.1925 40.8334 41.2472C40.7515 41.3019 40.665 41.3481 40.574 41.3858C40.483 41.4235 40.3892 41.452 40.2926 41.4712C40.196 41.4904 40.0985 41.5 40 41.5C39.9015 41.5 39.804 41.4904 39.7074 41.4712C39.6108 41.452 39.517 41.4235 39.426 41.3858C39.335 41.3481 39.2485 41.3019 39.1666 41.2472C39.0848 41.1925 39.009 41.1303 38.9393 41.0607C38.8697 40.991 38.8075 40.9152 38.7528 40.8334C38.6981 40.7515 38.6519 40.665 38.6142 40.574C38.5765 40.483 38.548 40.3892 38.5288 40.2926C38.5096 40.196 38.5 40.0985 38.5 40L38.5 37C38.5 36.9015 38.5096 36.804 38.5288 36.7074C38.548 36.6108 38.5765 36.517 38.6142 36.426C38.6519 36.335 38.6981 36.2485 38.7528 36.1666C38.8075 36.0848 38.8697 36.009 38.9393 35.9393C39.009 35.8697 39.0848 35.8075 39.1666 35.7528C39.2485 35.6981 39.335 35.6519 39.426 35.6142C39.517 35.5765 39.6108 35.548 39.7074 35.5288C39.804 35.5096 39.9015 35.5 40 35.5C40.0985 35.5 40.196 35.5096 40.2926 35.5288C40.3892 35.548 40.483 35.5765 40.574 35.6142C40.665 35.6519 40.7515 35.6981 40.8334 35.7528C40.9152 35.8075 40.991 35.8697 41.0607 35.9393C41.1303 36.009 41.1925 36.0848 41.2472 36.1666C41.3019 36.2485 41.3481 36.335 41.3858 36.426C41.4235 36.517 41.452 36.6108 41.4712 36.7074C41.4904 36.804 41.5 36.9015 41.5 37L41.5 40Z" fill-rule="evenodd"  fill="#808080" >
</path>
</svg>
