<svg xmlns="http://www.w3.org/2000/svg" xmlns:xlink="http://www.w3.org/1999/xlink" width="56" height="56" viewBox="0 0 56 56" fill="none">
<rect  x="0" y="0" width="56" height="56" rx="16"    fill="#F8F8F8" >
</rect>
<path d="M18.25 15.25C16.1789 15.25 14.5 16.9289 14.5 19L14.5 27.25C14.5 28.0784 15.1716 28.75 16 28.75L40 28.75C40.8284 28.75 41.5 28.0784 41.5 27.25L41.5 19C41.5 16.9289 39.8211 15.25 37.75 15.25L18.25 15.25ZM17.5 19L17.5 25.75L38.5 25.75L38.5 19C38.5 18.5858 38.1642 18.25 37.75 18.25L18.25 18.25C17.8358 18.25 17.5 18.5858 17.5 19Z" fill-rule="evenodd"  fill="#808080" >
</path>
<path d="M16 39.25C16 39.3485 15.9904 39.446 15.9712 39.5426C15.952 39.6392 15.9235 39.733 15.8858 39.824C15.8481 39.915 15.8019 40.0015 15.7472 40.0834C15.6925 40.1652 15.6303 40.241 15.5607 40.3107C15.491 40.3803 15.4152 40.4425 15.3334 40.4972C15.2515 40.5519 15.165 40.5981 15.074 40.6358C14.983 40.6735 14.8892 40.702 14.7926 40.7212C14.696 40.7404 14.5985 40.75 14.5 40.75C14.4015 40.75 14.304 40.7404 14.2074 40.7212C14.1108 40.702 14.017 40.6735 13.926 40.6358C13.835 40.5981 13.7485 40.5519 13.6666 40.4972C13.5848 40.4425 13.509 40.3803 13.4393 40.3107C13.3697 40.241 13.3075 40.1652 13.2528 40.0834C13.1981 40.0015 13.1519 39.915 13.1142 39.824C13.0765 39.733 13.048 39.6392 13.0288 39.5426C13.0096 39.446 13 39.3485 13 39.25L13 36.25C13 36.1515 13.0096 36.054 13.0288 35.9574C13.048 35.8608 13.0765 35.767 13.1142 35.676C13.1519 35.585 13.1981 35.4985 13.2528 35.4166C13.3075 35.3348 13.3697 35.259 13.4393 35.1893C13.509 35.1197 13.5848 35.0575 13.6666 35.0028C13.7485 34.9481 13.835 34.9019 13.926 34.8642C14.017 34.8265 14.1108 34.798 14.2074 34.7788C14.304 34.7596 14.4015 34.75 14.5 34.75C14.5985 34.75 14.696 34.7596 14.7926 34.7788C14.8892 34.798 14.983 34.8265 15.074 34.8642C15.165 34.9019 15.2515 34.9481 15.3334 35.0028C15.4152 35.0575 15.491 35.1197 15.5607 35.1893C15.6303 35.259 15.6925 35.3348 15.7472 35.4166C15.8019 35.4985 15.8481 35.585 15.8858 35.676C15.9235 35.767 15.952 35.8608 15.9712 35.9574C15.9904 36.054 16 36.1515 16 36.25L16 39.25Z" fill-rule="evenodd"  fill="#808080" >
</path>
<path d="M43 39.25C43 39.3485 42.9904 39.446 42.9712 39.5426C42.952 39.6392 42.9235 39.733 42.8858 39.824C42.8481 39.915 42.8019 40.0015 42.7472 40.0834C42.6925 40.1652 42.6303 40.241 42.5607 40.3107C42.491 40.3803 42.4152 40.4425 42.3334 40.4972C42.2515 40.5519 42.165 40.5981 42.074 40.6358C41.983 40.6735 41.8892 40.702 41.7926 40.7212C41.696 40.7404 41.5985 40.75 41.5 40.75C41.4015 40.75 41.304 40.7404 41.2074 40.7212C41.1108 40.702 41.017 40.6735 40.926 40.6358C40.835 40.5981 40.7485 40.5519 40.6666 40.4972C40.5848 40.4425 40.509 40.3803 40.4393 40.3107C40.3697 40.241 40.3075 40.1652 40.2528 40.0834C40.1981 40.0015 40.1519 39.915 40.1142 39.824C40.0765 39.733 40.048 39.6392 40.0288 39.5426C40.0096 39.446 40 39.3485 40 39.25L40 36.25C40 36.1515 40.0096 36.054 40.0288 35.9574C40.048 35.8608 40.0765 35.767 40.1142 35.676C40.1519 35.585 40.1981 35.4985 40.2528 35.4166C40.3075 35.3348 40.3697 35.259 40.4393 35.1893C40.509 35.1197 40.5848 35.0575 40.6666 35.0028C40.7485 34.9481 40.835 34.9019 40.926 34.8642C41.017 34.8265 41.1108 34.798 41.2074 34.7788C41.304 34.7596 41.4015 34.75 41.5 34.75C41.5985 34.75 41.696 34.7596 41.7926 34.7788C41.8892 34.798 41.983 34.8265 42.074 34.8642C42.165 34.9019 42.2515 34.9481 42.3334 35.0028C42.4152 35.0575 42.491 35.1197 42.5607 35.1893C42.6303 35.259 42.6925 35.3348 42.7472 35.4166C42.8019 35.4985 42.8481 35.585 42.8858 35.676C42.9235 35.767 42.952 35.8608 42.9712 35.9574C42.9904 36.054 43 36.1515 43 36.25L43 39.25Z" fill-rule="evenodd"  fill="#808080" >
</path>
<path d="M20.5 25L25 25C25.4142 25 25.75 25.3358 25.75 25.75L19.75 25.75C19.75 25.3358 20.0858 25 20.5 25ZM25 22L20.5 22C18.4289 22 16.75 23.6789 16.75 25.75L16.75 27.25C16.75 28.0784 17.4216 28.75 18.25 28.75L27.25 28.75C28.0784 28.75 28.75 28.0784 28.75 27.25L28.75 25.75C28.75 23.6789 27.0711 22 25 22Z" fill-rule="evenodd"  fill="#808080" >
</path>
<path d="M31 25L35.5 25C35.9142 25 36.25 25.3358 36.25 25.75L30.25 25.75C30.25 25.3358 30.5858 25 31 25ZM35.5 22L31 22C28.9289 22 27.25 23.6789 27.25 25.75L27.25 27.25C27.25 28.0784 27.9216 28.75 28.75 28.75L37.75 28.75C38.5784 28.75 39.25 28.0784 39.25 27.25L39.25 25.75C39.25 23.6789 37.5711 22 35.5 22Z" fill-rule="evenodd"  fill="#808080" >
</path>
<path d="M15.25 25.75C13.1789 25.75 11.5 27.4289 11.5 29.5L11.5 36.25C11.5 37.0784 12.1716 37.75 13 37.75L43 37.75C43.8284 37.75 44.5 37.0784 44.5 36.25L44.5 29.5C44.5 27.4289 42.8211 25.75 40.75 25.75L15.25 25.75ZM14.5 29.5L14.5 34.75L41.5 34.75L41.5 29.5C41.5 29.0858 41.1642 28.75 40.75 28.75L15.25 28.75C14.8358 28.75 14.5 29.0858 14.5 29.5Z" fill-rule="evenodd"  fill="#808080" >
</path>
</svg>
