<svg xmlns="http://www.w3.org/2000/svg" xmlns:xlink="http://www.w3.org/1999/xlink" width="56" height="56" viewBox="0 0 56 56" fill="none">
<rect  x="0" y="0" width="56" height="56" rx="16"    fill="#F8F8F8" >
</rect>
<path d="M37.0117 16.6654L18.9904 16.6654L15.8086 22.4987L40.1936 22.4987L37.0117 16.6654ZM44.4642 23.3673L39.4642 14.2006C39.1354 13.6434 38.6477 13.3538 38.0011 13.332L18.0011 13.332C17.3912 13.332 16.83 13.6652 16.5379 14.2006L11.5379 23.3673C10.9321 24.4779 11.736 25.832 13.0011 25.832L43.0011 25.832C44.2662 25.832 45.07 24.4779 44.4642 23.3673Z" fill-rule="evenodd"  fill="#808080" >
</path>
<path d="M44.6654 40.8333C44.6654 43.0555 41.332 43.0555 41.332 40.8333L41.332 24.6667C41.332 24.5572 41.3427 24.4488 41.3641 24.3415C41.3854 24.2342 41.417 24.13 41.4589 24.0289C41.5008 23.9278 41.5521 23.8317 41.6129 23.7407C41.6737 23.6497 41.7428 23.5655 41.8202 23.4882C41.8976 23.4108 41.9818 23.3417 42.0727 23.2809C42.1637 23.2201 42.2598 23.1687 42.3609 23.1269C42.462 23.085 42.5662 23.0534 42.6735 23.032C42.7809 23.0107 42.8893 23 42.9987 23C43.1081 23 43.2165 23.0107 43.3238 23.032C43.4312 23.0534 43.5354 23.085 43.6365 23.1269C43.7376 23.1687 43.8337 23.2201 43.9246 23.2809C44.0156 23.3417 44.0998 23.4108 44.1772 23.4882C44.2546 23.5655 44.3237 23.6497 44.3845 23.7407C44.4453 23.8317 44.4966 23.9278 44.5385 24.0289C44.5804 24.13 44.612 24.2342 44.6333 24.3415C44.6547 24.4488 44.6654 24.5572 44.6654 24.6667L44.6654 40.8333Z" fill-rule="evenodd"  fill="#808080" >
</path>
<path d="M14.6654 40.8333C14.6654 43.0555 11.332 43.0555 11.332 40.8333L11.332 24.6667C11.332 24.5572 11.3427 24.4488 11.3641 24.3415C11.3854 24.2342 11.417 24.13 11.4589 24.0289C11.5008 23.9278 11.5521 23.8317 11.6129 23.7407C11.6737 23.6497 11.7428 23.5655 11.8202 23.4882C11.8976 23.4108 11.9818 23.3417 12.0727 23.2809C12.1637 23.2201 12.2598 23.1687 12.3609 23.1269C12.462 23.085 12.5662 23.0534 12.6735 23.032C12.7809 23.0107 12.8893 23 12.9987 23C13.1081 23 13.2165 23.0107 13.3238 23.032C13.4312 23.0534 13.5354 23.085 13.6365 23.1269C13.7376 23.1687 13.8337 23.2201 13.9246 23.2809C14.0156 23.3417 14.0998 23.4108 14.1772 23.4882C14.2546 23.5655 14.3237 23.6497 14.3845 23.7407C14.4453 23.8317 14.4966 23.9278 14.5385 24.0289C14.5804 24.13 14.612 24.2342 14.6333 24.3415C14.6547 24.4488 14.6654 24.5572 14.6654 24.6667L14.6654 40.8333Z" fill-rule="evenodd"  fill="#808080" >
</path>
<path d="M19.6654 34.168C19.6654 36.3902 16.332 36.3902 16.332 34.168L16.332 26.3346C16.332 26.2252 16.3427 26.1168 16.3641 26.0095C16.3854 25.9022 16.417 25.7979 16.4589 25.6968C16.5008 25.5957 16.5521 25.4997 16.6129 25.4087C16.6737 25.3177 16.7428 25.2335 16.8202 25.1561C16.8976 25.0787 16.9818 25.0097 17.0727 24.9489C17.1637 24.8881 17.2598 24.8367 17.3609 24.7948C17.462 24.753 17.5662 24.7213 17.6735 24.7C17.7809 24.6786 17.8893 24.668 17.9987 24.668C18.1081 24.668 18.2165 24.6786 18.3238 24.7C18.4312 24.7213 18.5354 24.753 18.6365 24.7948C18.7376 24.8367 18.8337 24.8881 18.9246 24.9489C19.0156 25.0097 19.0998 25.0787 19.1772 25.1561C19.2546 25.2335 19.3237 25.3177 19.3845 25.4087C19.4453 25.4997 19.4966 25.5957 19.5385 25.6968C19.5804 25.7979 19.612 25.9022 19.6333 26.0095C19.6547 26.1168 19.6654 26.2252 19.6654 26.3346L19.6654 34.168Z" fill-rule="evenodd"  fill="#808080" >
</path>
<path d="M39.6654 34.168C39.6654 36.3902 36.332 36.3902 36.332 34.168L36.332 26.3346C36.332 26.2252 36.3427 26.1168 36.3641 26.0095C36.3854 25.9022 36.417 25.7979 36.4589 25.6968C36.5008 25.5957 36.5521 25.4997 36.6129 25.4087C36.6737 25.3177 36.7428 25.2335 36.8202 25.1561C36.8976 25.0787 36.9818 25.0097 37.0727 24.9489C37.1637 24.8881 37.2598 24.8367 37.3609 24.7948C37.462 24.753 37.5662 24.7213 37.6735 24.7C37.7809 24.6786 37.8893 24.668 37.9987 24.668C38.1081 24.668 38.2165 24.6786 38.3238 24.7C38.4312 24.7213 38.5354 24.753 38.6365 24.7948C38.7376 24.8367 38.8337 24.8881 38.9246 24.9489C39.0156 25.0097 39.0998 25.0787 39.1772 25.1561C39.2546 25.2335 39.3237 25.3177 39.3845 25.4087C39.4453 25.4997 39.4966 25.5957 39.5385 25.6968C39.5804 25.7979 39.612 25.9022 39.6333 26.0095C39.6547 26.1168 39.6654 26.2252 39.6654 26.3346L39.6654 34.168Z" fill-rule="evenodd"  fill="#808080" >
</path>
</svg>
