<svg xmlns="http://www.w3.org/2000/svg" xmlns:xlink="http://www.w3.org/1999/xlink" width="56" height="56" viewBox="0 0 56 56" fill="none">
<rect  x="0" y="0" width="56" height="56" rx="16"    fill="#F8F8F8" >
</rect>
<path d="M43 22L13 22C12.8015 22 12.6105 22.0379 12.4271 22.1137C12.2437 22.1895 12.0816 22.2975 11.9411 22.4376C11.9399 22.4388 11.9388 22.4399 11.9376 22.4411C11.7975 22.5816 11.6895 22.7437 11.6137 22.9271C11.5379 23.1105 11.5 23.3015 11.5 23.5L11.5 41.5C11.5 42.3284 12.1716 43 13 43L43 43C43.8284 43 44.5 42.3284 44.5 41.5L44.5 23.5C44.5 22.6716 43.8284 22 43 22ZM14.5 25L14.5 40L41.5 40L41.5 25L14.5 25Z" fill-rule="evenodd"  fill="#808080" >
</path>
<path d="M29.5 26.5C29.5985 26.5 29.696 26.5096 29.7926 26.5288C29.8892 26.548 29.983 26.5765 30.074 26.6142C30.165 26.6519 30.2515 26.6981 30.3334 26.7528C30.4152 26.8075 30.491 26.8697 30.5607 26.9393C30.6303 27.009 30.6925 27.0848 30.7472 27.1666C30.8019 27.2485 30.8481 27.335 30.8858 27.426C30.9235 27.517 30.952 27.6108 30.9712 27.7074C30.9904 27.804 31 27.9015 31 28C31 28.0985 30.9904 28.196 30.9712 28.2926C30.952 28.3892 30.9235 28.483 30.8858 28.574C30.8481 28.665 30.8019 28.7515 30.7472 28.8334C30.6925 28.9152 30.6303 28.991 30.5607 29.0607C30.491 29.1303 30.4152 29.1925 30.3334 29.2472C30.2515 29.3019 30.165 29.3481 30.074 29.3858C29.983 29.4235 29.8892 29.452 29.7926 29.4712C29.696 29.4904 29.5985 29.5 29.5 29.5L26.5 29.5C26.4015 29.5 26.304 29.4904 26.2074 29.4712C26.1108 29.452 26.017 29.4235 25.926 29.3858C25.835 29.3481 25.7485 29.3019 25.6666 29.2472C25.5848 29.1925 25.509 29.1303 25.4393 29.0607C25.3697 28.991 25.3075 28.9152 25.2528 28.8334C25.1981 28.7515 25.1519 28.665 25.1142 28.574C25.0765 28.483 25.048 28.3892 25.0288 28.2926C25.0096 28.196 25 28.0985 25 28C25 27.9015 25.0096 27.804 25.0288 27.7074C25.048 27.6108 25.0765 27.517 25.1142 27.426C25.1519 27.335 25.1981 27.2485 25.2528 27.1666C25.3075 27.0848 25.3697 27.009 25.4393 26.9393C25.509 26.8697 25.5848 26.8075 25.6666 26.7528C25.7485 26.6981 25.835 26.6519 25.926 26.6142C26.017 26.5765 26.1108 26.548 26.2074 26.5288C26.304 26.5096 26.4015 26.5 26.5 26.5L29.5 26.5Z" fill-rule="evenodd"  fill="#808080" >
</path>
<path d="M13 31L43 31C43.0985 31 43.1961 31.0096 43.2926 31.0288C43.3893 31.048 43.483 31.0765 43.5741 31.1142C43.6651 31.1519 43.7515 31.1981 43.8334 31.2528C43.9153 31.3075 43.9911 31.3697 44.0606 31.4393C44.1302 31.509 44.1925 31.5848 44.2472 31.6666C44.3019 31.7485 44.3481 31.835 44.3858 31.926C44.4235 32.017 44.452 32.1108 44.4712 32.2074C44.4904 32.304 44.5 32.4015 44.5 32.5C44.5 32.5985 44.4904 32.696 44.4712 32.7926C44.452 32.8892 44.4235 32.983 44.3858 33.074C44.3481 33.165 44.3019 33.2515 44.2472 33.3334C44.1925 33.4152 44.1302 33.491 44.0606 33.5607C43.9911 33.6303 43.9153 33.6925 43.8334 33.7472C43.7515 33.8019 43.6651 33.8481 43.5741 33.8858C43.483 33.9235 43.3893 33.952 43.2926 33.9712C43.1961 33.9904 43.0985 34 43 34L13 34C12.9015 34 12.804 33.9904 12.7074 33.9712C12.6108 33.952 12.517 33.9235 12.426 33.8858C12.335 33.8481 12.2485 33.8019 12.1666 33.7472C12.0848 33.6925 12.009 33.6303 11.9393 33.5607C11.8697 33.491 11.8075 33.4152 11.7528 33.3334C11.6981 33.2515 11.6519 33.165 11.6142 33.074C11.5765 32.983 11.548 32.8892 11.5288 32.7926C11.5096 32.696 11.5 32.5985 11.5 32.5C11.5 32.4015 11.5096 32.304 11.5288 32.2074C11.548 32.1108 11.5765 32.017 11.6142 31.926C11.6519 31.835 11.6981 31.7485 11.7528 31.6666C11.8075 31.5848 11.8697 31.509 11.9393 31.4393C12.009 31.3697 12.0848 31.3075 12.1666 31.2528C12.2485 31.1981 12.335 31.1519 12.426 31.1142C12.517 31.0765 12.6108 31.048 12.7074 31.0288C12.804 31.0096 12.9015 31 13 31Z" fill-rule="evenodd"  fill="#808080" >
</path>
<path d="M29.5 35.5C29.5985 35.5 29.696 35.5096 29.7926 35.5288C29.8892 35.548 29.983 35.5765 30.074 35.6142C30.165 35.6519 30.2515 35.6981 30.3334 35.7528C30.4152 35.8075 30.491 35.8697 30.5607 35.9393C30.6303 36.009 30.6925 36.0848 30.7472 36.1666C30.8019 36.2485 30.8481 36.335 30.8858 36.426C30.9235 36.517 30.952 36.6108 30.9712 36.7074C30.9904 36.804 31 36.9015 31 37C31 37.0985 30.9904 37.196 30.9712 37.2926C30.952 37.3892 30.9235 37.483 30.8858 37.574C30.8481 37.665 30.8019 37.7515 30.7472 37.8334C30.6925 37.9152 30.6303 37.991 30.5607 38.0607C30.491 38.1303 30.4152 38.1925 30.3334 38.2472C30.2515 38.3019 30.165 38.3481 30.074 38.3858C29.983 38.4235 29.8892 38.452 29.7926 38.4712C29.696 38.4904 29.5985 38.5 29.5 38.5L26.5 38.5C26.4015 38.5 26.304 38.4904 26.2074 38.4712C26.1108 38.452 26.017 38.4235 25.926 38.3858C25.835 38.3481 25.7485 38.3019 25.6666 38.2472C25.5848 38.1925 25.509 38.1303 25.4393 38.0607C25.3697 37.991 25.3075 37.9152 25.2528 37.8334C25.1981 37.7515 25.1519 37.665 25.1142 37.574C25.0765 37.483 25.048 37.3892 25.0288 37.2926C25.0096 37.196 25 37.0985 25 37C25 36.9015 25.0096 36.804 25.0288 36.7074C25.048 36.6108 25.0765 36.517 25.1142 36.426C25.1519 36.335 25.1981 36.2485 25.2528 36.1666C25.3075 36.0848 25.3697 36.009 25.4393 35.9393C25.509 35.8697 25.5848 35.8075 25.6666 35.7528C25.7485 35.6981 25.835 35.6519 25.926 35.6142C26.017 35.5765 26.1108 35.548 26.2074 35.5288C26.304 35.5096 26.4015 35.5 26.5 35.5L29.5 35.5Z" fill-rule="evenodd"  fill="#808080" >
</path>
<path d="M17.5 44.5C17.5 44.5985 17.4904 44.696 17.4712 44.7926C17.452 44.8892 17.4235 44.983 17.3858 45.074C17.3481 45.165 17.3019 45.2515 17.2472 45.3334C17.1925 45.4152 17.1303 45.491 17.0607 45.5607C16.991 45.6303 16.9152 45.6925 16.8334 45.7472C16.7515 45.8019 16.665 45.8481 16.574 45.8858C16.483 45.9235 16.3892 45.952 16.2926 45.9712C16.196 45.9904 16.0985 46 16 46C15.9015 46 15.804 45.9904 15.7074 45.9712C15.6108 45.952 15.517 45.9235 15.426 45.8858C15.335 45.8481 15.2485 45.8019 15.1666 45.7472C15.0848 45.6925 15.009 45.6303 14.9393 45.5607C14.8697 45.491 14.8075 45.4152 14.7528 45.3334C14.6981 45.2515 14.6519 45.165 14.6142 45.074C14.5765 44.983 14.548 44.8892 14.5288 44.7926C14.5096 44.696 14.5 44.5985 14.5 44.5L14.5 41.5C14.5 41.4015 14.5096 41.304 14.5288 41.2074C14.548 41.1108 14.5765 41.017 14.6142 40.926C14.6519 40.835 14.6981 40.7485 14.7528 40.6666C14.8075 40.5848 14.8697 40.509 14.9393 40.4393C15.009 40.3697 15.0848 40.3075 15.1666 40.2528C15.2485 40.1981 15.335 40.1519 15.426 40.1142C15.517 40.0765 15.6108 40.048 15.7074 40.0288C15.804 40.0096 15.9015 40 16 40C16.0985 40 16.196 40.0096 16.2926 40.0288C16.3892 40.048 16.483 40.0765 16.574 40.1142C16.665 40.1519 16.7515 40.1981 16.8334 40.2528C16.9152 40.3075 16.991 40.3697 17.0607 40.4393C17.1303 40.509 17.1925 40.5848 17.2472 40.6666C17.3019 40.7485 17.3481 40.835 17.3858 40.926C17.4235 41.017 17.452 41.1108 17.4712 41.2074C17.4904 41.304 17.5 41.4015 17.5 41.5L17.5 44.5Z" fill-rule="evenodd"  fill="#808080" >
</path>
<path d="M41.5 44.5C41.5 44.5985 41.4904 44.696 41.4712 44.7926C41.452 44.8892 41.4235 44.983 41.3858 45.074C41.3481 45.165 41.3019 45.2515 41.2472 45.3334C41.1925 45.4152 41.1303 45.491 41.0607 45.5607C40.991 45.6303 40.9152 45.6925 40.8334 45.7472C40.7515 45.8019 40.665 45.8481 40.574 45.8858C40.483 45.9235 40.3892 45.952 40.2926 45.9712C40.196 45.9904 40.0985 46 40 46C39.9015 46 39.804 45.9904 39.7074 45.9712C39.6108 45.952 39.517 45.9235 39.426 45.8858C39.335 45.8481 39.2485 45.8019 39.1666 45.7472C39.0848 45.6925 39.009 45.6303 38.9393 45.5607C38.8697 45.491 38.8075 45.4152 38.7528 45.3334C38.6981 45.2515 38.6519 45.165 38.6142 45.074C38.5765 44.983 38.548 44.8892 38.5288 44.7926C38.5096 44.696 38.5 44.5985 38.5 44.5L38.5 41.5C38.5 41.4015 38.5096 41.304 38.5288 41.2074C38.548 41.1108 38.5765 41.017 38.6142 40.926C38.6519 40.835 38.6981 40.7485 38.7528 40.6666C38.8075 40.5848 38.8697 40.509 38.9393 40.4393C39.009 40.3697 39.0848 40.3075 39.1666 40.2528C39.2485 40.1981 39.335 40.1519 39.426 40.1142C39.517 40.0765 39.6108 40.048 39.7074 40.0288C39.804 40.0096 39.9015 40 40 40C40.0985 40 40.196 40.0096 40.2926 40.0288C40.3892 40.048 40.483 40.0765 40.574 40.1142C40.665 40.1519 40.7515 40.1981 40.8334 40.2528C40.9152 40.3075 40.991 40.3697 41.0607 40.4393C41.1303 40.509 41.1925 40.5848 41.2472 40.6666C41.3019 40.7485 41.3481 40.835 41.3858 40.926C41.4235 41.017 41.452 41.1108 41.4712 41.2074C41.4904 41.304 41.5 41.4015 41.5 41.5L41.5 44.5Z" fill-rule="evenodd"  fill="#808080" >
</path>
<path d="M26.5 23.5L26.5 17.5C26.5 17.4015 26.5096 17.304 26.5288 17.2074C26.548 17.1108 26.5765 17.017 26.6142 16.926C26.6519 16.835 26.6981 16.7485 26.7528 16.6666C26.8075 16.5848 26.8697 16.509 26.9393 16.4393C27.009 16.3697 27.0848 16.3075 27.1666 16.2528C27.2485 16.1981 27.335 16.1519 27.426 16.1142C27.517 16.0765 27.6108 16.048 27.7074 16.0288C27.804 16.0096 27.9015 16 28 16C28.0985 16 28.196 16.0096 28.2926 16.0288C28.3892 16.048 28.483 16.0765 28.574 16.1142C28.665 16.1519 28.7515 16.1981 28.8334 16.2528C28.9152 16.3075 28.991 16.3697 29.0607 16.4393C29.1303 16.509 29.1925 16.5848 29.2472 16.6666C29.3019 16.7485 29.3481 16.835 29.3858 16.926C29.4235 17.017 29.452 17.1108 29.4712 17.2074C29.4904 17.304 29.5 17.4015 29.5 17.5L29.5 23.5C29.5 23.5985 29.4904 23.696 29.4712 23.7926C29.452 23.8892 29.4235 23.983 29.3858 24.074C29.3481 24.165 29.3019 24.2515 29.2472 24.3334C29.1925 24.4152 29.1303 24.491 29.0607 24.5607C28.991 24.6303 28.9152 24.6925 28.8334 24.7472C28.7515 24.8019 28.665 24.8481 28.574 24.8858C28.483 24.9235 28.3892 24.952 28.2926 24.9712C28.196 24.9904 28.0985 25 28 25C27.9015 25 27.804 24.9904 27.7074 24.9712C27.6108 24.952 27.517 24.9235 27.426 24.8858C27.335 24.8481 27.2485 24.8019 27.1666 24.7472C27.0848 24.6925 27.009 24.6303 26.9393 24.5607C26.8697 24.491 26.8075 24.4152 26.7528 24.3334C26.6981 24.2515 26.6519 24.165 26.6142 24.074C26.5765 23.983 26.548 23.8892 26.5288 23.7926C26.5096 23.696 26.5 23.5985 26.5 23.5Z" fill-rule="evenodd"  fill="#808080" >
</path>
<path d="M34 19L22 19C21.1716 19 20.5 18.3284 20.5 17.5C20.5 13.3579 23.8579 10 28 10C32.1421 10 35.5 13.3579 35.5 17.5C35.5 17.5985 35.4904 17.696 35.4712 17.7926C35.452 17.8892 35.4235 17.983 35.3858 18.074C35.3481 18.165 35.3019 18.2515 35.2472 18.3334C35.1925 18.4152 35.1303 18.491 35.0607 18.5607C34.991 18.6303 34.9152 18.6925 34.8334 18.7472C34.7515 18.8019 34.665 18.8481 34.574 18.8858C34.483 18.9235 34.3892 18.952 34.2926 18.9712C34.196 18.9904 34.0985 19 34 19ZM32.2439 16C31.6262 14.2522 29.9593 13 28 13C26.0407 13 24.3738 14.2522 23.7561 16L32.2439 16Z" fill-rule="evenodd"  fill="#808080" >
</path>
<path d="M44.5 29.5L44.5 35.5C44.5 35.5985 44.4904 35.696 44.4712 35.7926C44.452 35.8892 44.4235 35.983 44.3858 36.074C44.3481 36.165 44.3019 36.2515 44.2472 36.3334C44.1925 36.4152 44.1303 36.491 44.0607 36.5607C43.991 36.6303 43.9152 36.6925 43.8334 36.7472C43.7515 36.8019 43.665 36.8481 43.574 36.8858C43.483 36.9235 43.3892 36.952 43.2926 36.9712C43.196 36.9904 43.0985 37 43 37C42.9015 37 42.804 36.9904 42.7074 36.9712C42.6108 36.952 42.517 36.9235 42.426 36.8858C42.335 36.8481 42.2485 36.8019 42.1666 36.7472C42.0848 36.6925 42.009 36.6303 41.9393 36.5607C41.8697 36.491 41.8075 36.4152 41.7528 36.3334C41.6981 36.2515 41.6519 36.165 41.6142 36.074C41.5765 35.983 41.548 35.8892 41.5288 35.7926C41.5096 35.696 41.5 35.5985 41.5 35.5L41.5 29.5C41.5 29.4015 41.5096 29.304 41.5288 29.2074C41.548 29.1108 41.5765 29.017 41.6142 28.926C41.6519 28.835 41.6981 28.7485 41.7528 28.6666C41.8075 28.5848 41.8697 28.509 41.9393 28.4393C42.009 28.3697 42.0848 28.3075 42.1666 28.2528C42.2485 28.1981 42.335 28.1519 42.426 28.1142C42.517 28.0765 42.6108 28.048 42.7074 28.0288C42.804 28.0096 42.9015 28 43 28C43.0985 28 43.196 28.0096 43.2926 28.0288C43.3892 28.048 43.483 28.0765 43.574 28.1142C43.665 28.1519 43.7515 28.1981 43.8334 28.2528C43.9152 28.3075 43.991 28.3697 44.0607 28.4393C44.1303 28.509 44.1925 28.5848 44.2472 28.6666C44.3019 28.7485 44.3481 28.835 44.3858 28.926C44.4235 29.017 44.452 29.1108 44.4712 29.2074C44.4904 29.304 44.5 29.4015 44.5 29.5Z" fill-rule="evenodd"  fill="#808080" >
</path>
<path d="M14.5 29.5L14.5 35.5C14.5 35.5985 14.4904 35.696 14.4712 35.7926C14.452 35.8892 14.4235 35.983 14.3858 36.074C14.3481 36.165 14.3019 36.2515 14.2472 36.3334C14.1925 36.4152 14.1303 36.491 14.0607 36.5607C13.991 36.6303 13.9152 36.6925 13.8334 36.7472C13.7515 36.8019 13.665 36.8481 13.574 36.8858C13.483 36.9235 13.3892 36.952 13.2926 36.9712C13.196 36.9904 13.0985 37 13 37C12.9015 37 12.804 36.9904 12.7074 36.9712C12.6108 36.952 12.517 36.9235 12.426 36.8858C12.335 36.8481 12.2485 36.8019 12.1666 36.7472C12.0848 36.6925 12.009 36.6303 11.9393 36.5607C11.8697 36.491 11.8075 36.4152 11.7528 36.3334C11.6981 36.2515 11.6519 36.165 11.6142 36.074C11.5765 35.983 11.548 35.8892 11.5288 35.7926C11.5096 35.696 11.5 35.5985 11.5 35.5L11.5 29.5C11.5 29.4015 11.5096 29.304 11.5288 29.2074C11.548 29.1108 11.5765 29.017 11.6142 28.926C11.6519 28.835 11.6981 28.7485 11.7528 28.6666C11.8075 28.5848 11.8697 28.509 11.9393 28.4393C12.009 28.3697 12.0848 28.3075 12.1666 28.2528C12.2485 28.1981 12.335 28.1519 12.426 28.1142C12.517 28.0765 12.6108 28.048 12.7074 28.0288C12.804 28.0096 12.9015 28 13 28C13.0985 28 13.196 28.0096 13.2926 28.0288C13.3892 28.048 13.483 28.0765 13.574 28.1142C13.665 28.1519 13.7515 28.1981 13.8334 28.2528C13.9152 28.3075 13.991 28.3697 14.0607 28.4393C14.1303 28.509 14.1925 28.5848 14.2472 28.6666C14.3019 28.7485 14.3481 28.835 14.3858 28.926C14.4235 29.017 14.452 29.1108 14.4712 29.2074C14.4904 29.304 14.5 29.4015 14.5 29.5Z" fill-rule="evenodd"  fill="#808080" >
</path>
</svg>
