<svg xmlns="http://www.w3.org/2000/svg" width="18" height="18" viewBox="0 0 18 18">
  <path id="路径_190" data-name="路径 190" d="M102.208,83.2a.675.675,0,0,1,.6.977q-.612,1.22-1.2,2.452a8.989,8.989,0,1,1-3.132-2.695A9.334,9.334,0,0,1,102.208,83.2Zm-3.464,2.1a.675.675,0,0,1-.626-.022,7.656,7.656,0,1,0,2.181,1.861.675.675,0,0,1-.084-.711q.429-.906.872-1.805a7.531,7.531,0,0,0-2.342.678Zm-8.236,3.529a.9.9,0,0,1,.9.9v1.35a.9.9,0,1,1-1.8,0v-1.35a.9.9,0,0,1,.9-.9Zm3.6,0a.9.9,0,0,1,.9.9v1.35a.9.9,0,1,1-1.8,0v-1.35a.9.9,0,0,1,.9-.9Z" transform="translate(-85.333 -82.922)"/>
</svg>
