<svg xmlns="http://www.w3.org/2000/svg" xmlns:xlink="http://www.w3.org/1999/xlink" width="18" height="18" viewBox="0 0 18 18">
  <defs>
    <linearGradient id="linear-gradient" x1="0.5" x2="0.5" y2="1" gradientUnits="objectBoundingBox">
      <stop offset="0" stop-color="#7340ff"/>
      <stop offset="1" stop-color="#1d2088"/>
    </linearGradient>
  </defs>
  <path id="路径_210" data-name="路径 210" d="M94.333,82.922a8.964,8.964,0,0,1,4.146,1.01,9.333,9.333,0,0,1,3.729-.734.675.675,0,0,1,.6.977q-.612,1.22-1.2,2.452a9,9,0,1,1-7.278-3.7Zm-3.825,5.9a.9.9,0,0,0-.9.9v1.35a.9.9,0,1,0,1.8,0v-1.35A.9.9,0,0,0,90.508,88.823Zm3.6,0a.9.9,0,0,0-.9.9v1.35a.9.9,0,1,0,1.8,0v-1.35A.9.9,0,0,0,94.108,88.823Z" transform="translate(-85.333 -82.922)" fill="url(#linear-gradient)"/>
</svg>
