<svg xmlns="http://www.w3.org/2000/svg" width="18" height="18" viewBox="0 0 18 18">
  <path id="路径_208" data-name="路径 208" d="M120.4,108.088h1.659a2.6,2.6,0,0,1,2.6,2.607v11.364a2.606,2.606,0,0,1-2.6,2.608H109.271a2.6,2.6,0,0,1-2.6-2.607V110.7a2.606,2.606,0,0,1,2.6-2.608h1.659v-.711a.711.711,0,1,1,1.421,0v.711h6.632v-.711a.711.711,0,1,1,1.421,0Zm0,1.421v.711a.711.711,0,1,1-1.421,0v-.711h-6.632v.711a.711.711,0,1,1-1.421,0v-.711h-1.659a1.185,1.185,0,0,0-1.183,1.186v11.364a1.183,1.183,0,0,0,1.183,1.187h12.791a1.185,1.185,0,0,0,1.183-1.186V110.7a1.184,1.184,0,0,0-1.183-1.187Zm-.237,4.974a.711.711,0,1,1,0,1.421h-9a.711.711,0,0,1,0-1.421Zm-2.842,3.553a.711.711,0,0,1,0,1.421h-6.158a.711.711,0,0,1,0-1.421Z" transform="translate(-106.667 -106.667)"/>
</svg>
