<svg xmlns="http://www.w3.org/2000/svg" xmlns:xlink="http://www.w3.org/1999/xlink" width="18" height="18.06" viewBox="0 0 18 18.06">
  <defs>
    <linearGradient id="linear-gradient" x1="0.5" x2="0.5" y2="1" gradientUnits="objectBoundingBox">
      <stop offset="0" stop-color="#7340ff"/>
      <stop offset="1" stop-color="#1d2088"/>
    </linearGradient>
  </defs>
  <path id="路径_196" data-name="路径 196" d="M116.633,104.3l6.947,4.986a2.605,2.605,0,0,1,1.086,2.116v8.041a2.605,2.605,0,0,1-2.605,2.605h-3.553v-3.789a2.842,2.842,0,0,0-5.684,0v3.789h-3.553a2.605,2.605,0,0,1-2.605-2.605V111.4a2.605,2.605,0,0,1,1.086-2.116L114.7,104.3A1.658,1.658,0,0,1,116.633,104.3Z" transform="translate(-106.667 -103.985)" fill="url(#linear-gradient)"/>
</svg>
