<svg xmlns="http://www.w3.org/2000/svg" width="19.816" height="16.358" viewBox="0 0 19.816 16.358">
  <g id="联合_54" data-name="联合 54" fill="none">
    <path d="M13.448,16.358V14.465H6.365v1.894H.258V7.769l1.3-2.394L0,4.611.694,3.194l1.619.795L4.481,0H15.332L17.5,3.993l1.613-.8.7,1.415-1.559.772,1.3,2.387v8.59Zm1.578-3.471V14.78h2.952V8.17L16.695,5.811H3.118L1.836,8.17v6.61h2.95V12.887ZM3.976,4.232h11.86L14.394,1.578H5.419ZM11.7,10.923V9.346H15.07v1.578Zm-6.917,0V9.346H8.153v1.578Z" stroke="none"/>
    <path d="M 19.55430030822754 16.35840034484863 L 13.44779968261719 16.35840034484863 L 13.44779968261719 14.46479988098145 L 6.364799976348877 14.46479988098145 L 6.364799976348877 16.35840034484863 L 0.2583001255989075 16.35840034484863 L 0.2583001255989075 7.768800258636475 L 1.558800101280212 5.374800205230713 L 1.281738235547891e-07 4.610700130462646 L 0.6939001083374023 3.194100141525269 L 2.313000202178955 3.988800287246704 L 4.481100082397461 1.724243219314303e-07 L 15.33240032196045 1.724243219314303e-07 L 17.50320053100586 3.993300199508667 L 19.11599922180176 3.195000171661377 L 19.81620025634766 4.609800338745117 L 18.25740051269531 5.381999969482422 L 19.55430030822754 7.768800258636475 L 19.55430030822754 16.35840034484863 Z M 4.786200046539307 12.88710021972656 L 15.02550029754639 12.88710021972656 L 15.02550029754639 14.77980041503906 L 17.97750091552734 14.77980041503906 L 17.97750091552734 8.170200347900391 L 16.69499969482422 5.811300277709961 L 3.118500232696533 5.811300277709961 L 1.836000084877014 8.170200347900391 L 1.836000084877014 14.77980041503906 L 4.786200046539307 14.77980041503906 L 4.786200046539307 12.88710021972656 Z M 5.418900012969971 1.577700138092041 L 3.976200103759766 4.231800079345703 L 15.83640003204346 4.231800079345703 L 14.39370059967041 1.577700138092041 L 5.418900012969971 1.577700138092041 Z M 15.06960010528564 10.92329978942871 L 11.69820022583008 10.92329978942871 L 11.69820022583008 9.345600128173828 L 15.06960010528564 9.345600128173828 L 15.06960010528564 10.92329978942871 Z M 8.15310001373291 10.92329978942871 L 4.780800342559814 10.92329978942871 L 4.780800342559814 9.345600128173828 L 8.15310001373291 9.345600128173828 L 8.15310001373291 10.92329978942871 Z" stroke="none" fill="#1a1a1a"/>
  </g>
</svg>
