<svg xmlns="http://www.w3.org/2000/svg" width="18" height="18.06" viewBox="0 0 18 18.06">
  <path id="路径_211" data-name="路径 211" d="M107.753,109.282,114.7,104.3a1.658,1.658,0,0,1,1.934,0l6.947,4.986a2.605,2.605,0,0,1,1.086,2.116v8.041a2.605,2.605,0,0,1-2.605,2.605H109.272a2.605,2.605,0,0,1-2.605-2.605V111.4a2.605,2.605,0,0,1,1.086-2.116Zm.829,1.154a1.184,1.184,0,0,0-.494.962v8.041a1.184,1.184,0,0,0,1.184,1.184h12.789a1.184,1.184,0,0,0,1.184-1.184V111.4a1.184,1.184,0,0,0-.494-.962L115.8,105.45a.237.237,0,0,0-.276,0l-6.947,4.986Z" transform="translate(-106.667 -103.985)"/>
</svg>
