<svg xmlns="http://www.w3.org/2000/svg" xmlns:xlink="http://www.w3.org/1999/xlink" width="44" height="44" viewBox="0 0 44 44" fill="none">
<path d="M42.1673 36.4842L42.1673 16.5008C41.971 15.6378 41.6246 15.087 41.1282 14.8484C40.6317 14.6099 39.9852 14.6834 39.1887 15.0692L22.0007 28.8197L4.81259 15.0692C3.61219 14.1089 1.83398 14.9636 1.83398 16.5008L1.83398 36.4842C1.83398 39.0508 3.05621 40.3342 5.50065 40.3342L38.5006 40.3342C40.9451 40.3342 42.1673 39.0508 42.1673 36.4842ZM38.5006 20.3153L23.1459 32.5991C22.4764 33.1347 21.5249 33.1347 20.8554 32.5991L5.50065 20.3153L5.50065 36.6675L38.5006 36.6675L38.5006 20.3153Z" fill-rule="evenodd"  fill="#FF906E" >
</path>
<path d="M1.83398 16.3154C1.83398 15.6801 2.15709 15.1203 2.64794 14.7913L20.9594 2.15638C21.5862 1.72391 22.4152 1.72391 23.0418 2.15638L41.3533 14.7913C41.8443 15.1203 42.1673 15.6801 42.1673 16.3154C42.1673 16.79 41.9869 17.2225 41.691 17.548C41.644 17.5999 41.5941 17.6488 41.5414 17.6949C41.2198 17.9767 40.7987 18.1478 40.3377 18.1487L40.3344 18.1487L40.334 18.1487L40.3303 18.1487C39.9365 18.1479 39.572 18.023 39.2736 17.8111L22.0007 5.89277L4.72765 17.8111C4.43206 18.0211 4.07156 18.1456 3.68214 18.1486L3.66732 18.1487L3.66583 18.1487L3.6525 18.1486C3.17186 18.1448 2.73527 17.9561 2.41041 17.65C2.38372 17.6249 2.3578 17.599 2.33266 17.5723C2.02349 17.2441 1.83401 16.8019 1.83398 16.3155L1.83398 16.3154Z" fill-rule="evenodd"  fill="#FF906E" >
</path>
<path d="M15.5833 11.3672L28.4167 11.3672C28.537 11.3672 28.6563 11.3789 28.7743 11.4024C28.8924 11.4259 29.007 11.4607 29.1182 11.5067C29.2295 11.5528 29.3351 11.6093 29.4352 11.6762C29.5353 11.743 29.6279 11.819 29.713 11.9042C29.7982 11.9893 29.8741 12.0819 29.941 12.182C30.0079 12.2821 30.0644 12.3877 30.1104 12.4989C30.1565 12.6102 30.1913 12.7248 30.2148 12.8429C30.2383 12.9609 30.25 13.0801 30.25 13.2005C30.25 13.3209 30.2383 13.4401 30.2148 13.5582C30.1913 13.6763 30.1565 13.7909 30.1104 13.9021C30.0644 14.0133 30.0079 14.119 29.941 14.2191C29.8741 14.3192 29.7982 14.4118 29.713 14.4969C29.6279 14.582 29.5353 14.658 29.4352 14.7249C29.3351 14.7918 29.2295 14.8482 29.1182 14.8943C29.007 14.9404 28.8924 14.9751 28.7743 14.9986C28.6563 15.0221 28.537 15.0339 28.4167 15.0339L15.5833 15.0339C15.463 15.0339 15.3437 15.0221 15.2257 14.9986C15.1076 14.9751 14.993 14.9404 14.8817 14.8943C14.7705 14.8482 14.6649 14.7918 14.5648 14.7249C14.4647 14.658 14.3721 14.582 14.287 14.4969C14.2018 14.4118 14.1259 14.3192 14.059 14.2191C13.9921 14.119 13.9356 14.0133 13.8896 13.9021C13.8435 13.7909 13.8087 13.6763 13.7852 13.5582C13.7617 13.4401 13.75 13.3209 13.75 13.2005C13.75 13.0801 13.7617 12.9609 13.7852 12.8429C13.8087 12.7248 13.8435 12.6102 13.8896 12.4989C13.9356 12.3877 13.9921 12.2821 14.059 12.182C14.1259 12.0819 14.2018 11.9893 14.287 11.9042C14.3721 11.819 14.4647 11.743 14.5648 11.6762C14.6649 11.6093 14.7705 11.5528 14.8817 11.5067C14.993 11.4607 15.1076 11.4259 15.2257 11.4024C15.3437 11.3789 15.463 11.3672 15.5833 11.3672Z" fill-rule="evenodd"  fill="#FF906E" >
</path>
<path d="M15.5833 18.7031L28.4167 18.7031C28.537 18.7031 28.6563 18.7149 28.7743 18.7384C28.8924 18.7618 29.007 18.7966 29.1182 18.8427C29.2295 18.8887 29.3351 18.9452 29.4352 19.0121C29.5353 19.079 29.6279 19.155 29.713 19.2401C29.7982 19.3252 29.8741 19.4178 29.941 19.5179C30.0079 19.618 30.0644 19.7237 30.1104 19.8349C30.1565 19.9461 30.1913 20.0607 30.2148 20.1788C30.2383 20.2969 30.25 20.4161 30.25 20.5365C30.25 20.6568 30.2383 20.7761 30.2148 20.8941C30.1913 21.0122 30.1565 21.1268 30.1104 21.238C30.0644 21.3493 30.0079 21.4549 29.941 21.555C29.8741 21.6551 29.7982 21.7477 29.713 21.8328C29.6279 21.9179 29.5353 21.9939 29.4352 22.0608C29.3351 22.1277 29.2295 22.1842 29.1182 22.2302C29.007 22.2763 28.8924 22.3111 28.7743 22.3346C28.6563 22.358 28.537 22.3698 28.4167 22.3698L15.5833 22.3698C15.463 22.3698 15.3437 22.358 15.2257 22.3346C15.1076 22.3111 14.993 22.2763 14.8817 22.2302C14.7705 22.1842 14.6649 22.1277 14.5648 22.0608C14.4647 21.9939 14.3721 21.9179 14.287 21.8328C14.2018 21.7477 14.1259 21.6551 14.059 21.555C13.9921 21.4549 13.9356 21.3493 13.8896 21.238C13.8435 21.1268 13.8087 21.0122 13.7852 20.8941C13.7617 20.7761 13.75 20.6568 13.75 20.5365C13.75 20.4161 13.7617 20.2969 13.7852 20.1788C13.8087 20.0607 13.8435 19.9461 13.8896 19.8349C13.9356 19.7237 13.9921 19.618 14.059 19.5179C14.1259 19.4178 14.2018 19.3252 14.287 19.2401C14.3721 19.155 14.4647 19.079 14.5648 19.0121C14.6649 18.9452 14.7705 18.8887 14.8817 18.8427C14.993 18.7966 15.1076 18.7618 15.2257 18.7384C15.3437 18.7149 15.463 18.7031 15.5833 18.7031Z" fill-rule="evenodd"  fill="#FF906E" >
</path>
</svg>
