<svg xmlns="http://www.w3.org/2000/svg" xmlns:xlink="http://www.w3.org/1999/xlink" width="44" height="44" viewBox="0 0 44 44" fill="none">
<path d="M40.334 3.66797L3.66732 3.66797C3.42472 3.66797 3.19131 3.7143 2.9671 3.80696C2.74289 3.89961 2.54488 4.03158 2.37305 4.20284C2.37165 4.20424 2.37025 4.20564 2.36886 4.20704C2.19759 4.37886 2.06563 4.57688 1.97297 4.80109C1.88031 5.0253 1.83398 5.2587 1.83398 5.5013L1.83398 33.0013C1.83398 34.0139 2.6548 34.8346 3.66732 34.8346L16.6579 34.8346L20.7043 38.881C21.4203 39.5969 22.5811 39.5969 23.297 38.881L27.3434 34.8346L40.334 34.8346C41.3465 34.8346 42.1673 34.0139 42.1673 33.0013L42.1673 5.5013C42.1673 4.48878 41.3465 3.66797 40.334 3.66797ZM5.50065 7.33464L5.50065 31.168L17.4173 31.168C17.9036 31.168 18.3699 31.3612 18.7137 31.705L22.0007 34.9919L25.2876 31.705C25.6314 31.3612 26.0978 31.168 26.584 31.168L38.5006 31.168L38.5006 7.33464L5.50065 7.33464Z" fill-rule="evenodd"  fill="#3BD179" >
</path>
<path d="M21.0833 17.418L22.919 17.418C23.0393 17.418 23.1586 17.4297 23.2766 17.4532C23.3947 17.4767 23.5093 17.5115 23.6205 17.5575C23.7318 17.6036 23.8374 17.6601 23.9375 17.7269C24.0376 17.7938 24.1302 17.8698 24.2153 17.9549C24.3004 18.0401 24.3764 18.1327 24.4433 18.2328C24.5102 18.3328 24.5667 18.4385 24.6127 18.5497C24.6588 18.6609 24.6936 18.7756 24.7171 18.8936C24.7406 19.0117 24.7523 19.1309 24.7523 19.2513C24.7523 19.3717 24.7406 19.4909 24.7171 19.609C24.6936 19.727 24.6588 19.8417 24.6127 19.9529C24.5667 20.0641 24.5102 20.1698 24.4433 20.2698C24.3764 20.3699 24.3004 20.4625 24.2153 20.5477C24.1302 20.6328 24.0376 20.7088 23.9375 20.7757C23.8374 20.8425 23.7318 20.899 23.6205 20.9451C23.5093 20.9911 23.3947 21.0259 23.2766 21.0494C23.1586 21.0729 23.0393 21.0846 22.919 21.0846L21.0833 21.0846C20.963 21.0846 20.8437 21.0729 20.7257 21.0494C20.6076 21.0259 20.493 20.9911 20.3817 20.9451C20.2705 20.899 20.1649 20.8425 20.0648 20.7757C19.9647 20.7088 19.8721 20.6328 19.787 20.5477C19.7019 20.4625 19.6259 20.3699 19.559 20.2698C19.4921 20.1698 19.4356 20.0641 19.3896 19.9529C19.3435 19.8417 19.3087 19.727 19.2852 19.609C19.2617 19.4909 19.25 19.3717 19.25 19.2513C19.25 19.1309 19.2617 19.0117 19.2852 18.8936C19.3087 18.7756 19.3435 18.6609 19.3896 18.5497C19.4356 18.4385 19.4921 18.3328 19.559 18.2328C19.6259 18.1327 19.7019 18.0401 19.787 17.9549C19.8721 17.8698 19.9647 17.7938 20.0648 17.7269C20.1649 17.6601 20.2705 17.6036 20.3817 17.5575C20.493 17.5115 20.6076 17.4767 20.7257 17.4532C20.8437 17.4297 20.963 17.418 21.0833 17.418Z" fill-rule="evenodd"  fill="#3BD179" >
</path>
<path d="M30.2518 17.418L32.0841 17.418C32.2045 17.418 32.3237 17.4297 32.4418 17.4532C32.5598 17.4767 32.6745 17.5115 32.7857 17.5575C32.8969 17.6036 33.0026 17.6601 33.1027 17.7269C33.2027 17.7938 33.2954 17.8698 33.3805 17.9549C33.4656 18.0401 33.5416 18.1327 33.6085 18.2328C33.6754 18.3328 33.7318 18.4385 33.7779 18.5497C33.824 18.6609 33.8587 18.7756 33.8822 18.8936C33.9057 19.0117 33.9174 19.1309 33.9174 19.2513C33.9174 19.3717 33.9057 19.4909 33.8822 19.609C33.8587 19.727 33.824 19.8417 33.7779 19.9529C33.7318 20.0641 33.6754 20.1698 33.6085 20.2698C33.5416 20.3699 33.4656 20.4625 33.3805 20.5477C33.2954 20.6328 33.2027 20.7088 33.1027 20.7757C33.0026 20.8425 32.8969 20.899 32.7857 20.9451C32.6745 20.9911 32.5598 21.0259 32.4418 21.0494C32.3237 21.0729 32.2045 21.0846 32.0841 21.0846L30.2518 21.0846C30.1314 21.0846 30.0122 21.0729 29.8941 21.0494C29.7761 21.0259 29.6614 20.9911 29.5502 20.9451C29.439 20.899 29.3333 20.8425 29.2332 20.7757C29.1332 20.7088 29.0405 20.6328 28.9554 20.5477C28.8703 20.4625 28.7943 20.3699 28.7274 20.2698C28.6606 20.1698 28.6041 20.0641 28.558 19.9529C28.5119 19.8417 28.4772 19.727 28.4537 19.609C28.4302 19.4909 28.4185 19.3717 28.4185 19.2513C28.4185 19.1309 28.4302 19.0117 28.4537 18.8936C28.4772 18.7756 28.5119 18.6609 28.558 18.5497C28.6041 18.4385 28.6606 18.3328 28.7274 18.2328C28.7943 18.1327 28.8703 18.0401 28.9554 17.9549C29.0405 17.8698 29.1332 17.7938 29.2332 17.7269C29.3333 17.6601 29.439 17.6036 29.5502 17.5575C29.6614 17.5115 29.7761 17.4767 29.8941 17.4532C30.0122 17.4297 30.1314 17.418 30.2518 17.418Z" fill-rule="evenodd"  fill="#3BD179" >
</path>
<path d="M11.9173 17.418L13.7496 17.418C13.87 17.418 13.9892 17.4297 14.1073 17.4532C14.2254 17.4767 14.34 17.5115 14.4512 17.5575C14.5624 17.6036 14.6681 17.6601 14.7682 17.7269C14.8683 17.7938 14.9609 17.8698 15.046 17.9549C15.1311 18.0401 15.2071 18.1327 15.274 18.2328C15.3409 18.3328 15.3974 18.4385 15.4434 18.5497C15.4895 18.6609 15.5243 18.7756 15.5478 18.8936C15.5712 19.0117 15.583 19.1309 15.583 19.2513C15.583 19.3717 15.5712 19.4909 15.5478 19.609C15.5243 19.727 15.4895 19.8417 15.4434 19.9529C15.3974 20.0641 15.3409 20.1698 15.274 20.2698C15.2071 20.3699 15.1311 20.4625 15.046 20.5477C14.9609 20.6328 14.8683 20.7088 14.7682 20.7757C14.6681 20.8425 14.5624 20.899 14.4512 20.9451C14.34 20.9911 14.2254 21.0259 14.1073 21.0494C13.9892 21.0729 13.87 21.0846 13.7496 21.0846L11.9173 21.0846C11.7969 21.0846 11.6777 21.0729 11.5597 21.0494C11.4416 21.0259 11.3269 20.9911 11.2157 20.9451C11.1045 20.899 10.9989 20.8425 10.8988 20.7757C10.7987 20.7088 10.7061 20.6328 10.621 20.5477C10.5358 20.4625 10.4598 20.3699 10.393 20.2698C10.3261 20.1698 10.2696 20.0641 10.2235 19.9529C10.1775 19.8417 10.1427 19.727 10.1192 19.609C10.0957 19.4909 10.084 19.3717 10.084 19.2513C10.084 19.1309 10.0957 19.0117 10.1192 18.8936C10.1427 18.7756 10.1775 18.6609 10.2235 18.5497C10.2696 18.4385 10.3261 18.3328 10.393 18.2328C10.4598 18.1327 10.5358 18.0401 10.621 17.9549C10.7061 17.8698 10.7987 17.7938 10.8988 17.7269C10.9989 17.6601 11.1045 17.6036 11.2157 17.5575C11.3269 17.5115 11.4416 17.4767 11.5597 17.4532C11.6777 17.4297 11.7969 17.418 11.9173 17.418Z" fill-rule="evenodd"  fill="#3BD179" >
</path>
</svg>
