<svg id="组_2749" data-name="组 2749" xmlns="http://www.w3.org/2000/svg" width="14.297" height="14.297" viewBox="0 0 14.297 14.297">
  <path id="路径_300" data-name="路径 300" d="M14.3,2.042H11.233V0H3.064V2.042H0V3.064H1.021v9.191A2.042,2.042,0,0,0,3.064,14.3h8.169a2.042,2.042,0,0,0,2.042-2.042V3.064H14.3ZM4.085,1.021h6.127V2.042H4.085Zm8.169,11.233a1.021,1.021,0,0,1-1.021,1.021H3.064a1.021,1.021,0,0,1-1.021-1.021V3.064H12.254Z" fill="#666"/>
  <path id="路径_301" data-name="路径 301" d="M365.714,365.714h1.021v6.127h-1.021Zm3.064,0H369.8v6.127h-1.021Z" transform="translate(-360.608 -360.608)" fill="#666"/>
</svg>
