<svg id="组_2731" data-name="组 2731" xmlns="http://www.w3.org/2000/svg" width="20.041" height="18.694" viewBox="0 0 20.041 18.694">
  <path id="路径_298" data-name="路径 298" d="M10.082,18.694,5.8,15.822H3.164A3.174,3.174,0,0,1,0,12.658V3.164A3.174,3.174,0,0,1,3.164,0H16.877a3.174,3.174,0,0,1,3.164,3.164v9.493a3.174,3.174,0,0,1-3.164,3.164H14.714Zm0-2.162,3.578-1.87.475-.422h2.742a1.554,1.554,0,0,0,1.582-1.582V3.164a1.554,1.554,0,0,0-1.582-1.582H3.164A1.554,1.554,0,0,0,1.582,3.164v9.493A1.554,1.554,0,0,0,3.164,14.24h3.27l.475.422,3.173,1.87Z" fill="#fff"/>
  <path id="路径_299" data-name="路径 299" d="M226.391,244.109H216.37a.791.791,0,0,1,0-1.582h10.021a.791.791,0,0,1,0,1.582Zm0,4.747H216.37a.791.791,0,1,1,0-1.582h10.021a.791.791,0,1,1,0,1.582Z" transform="translate(-211.36 -237.78)" fill="#fff"/>
</svg>
