<svg xmlns="http://www.w3.org/2000/svg" xmlns:xlink="http://www.w3.org/1999/xlink" width="15.238" height="16.238" viewBox="0 0 15.238 16.238">
  <defs>
    <linearGradient id="linear-gradient" x1="0.5" x2="0.5" y2="1" gradientUnits="objectBoundingBox">
      <stop offset="0" stop-color="#ff5f5f"/>
      <stop offset="1" stop-color="#7b40ff"/>
    </linearGradient>
  </defs>
  <path id="路径_3493" data-name="路径 3493" d="M245.162,222.574H238.05c1.975,0,3.55-2.285,3.55-5.073C241.6,220.29,243.187,222.574,245.162,222.574Zm-.387-2.607a4.706,4.706,0,0,1-3.15-1.3l-6.3-6.17,6.3-6.157,6.3,6.157a4.3,4.3,0,0,1,.077,6.08l-.077.077A4.658,4.658,0,0,1,244.775,219.967Zm-7.086-7.474L242.8,217.5a2.645,2.645,0,0,0,1.962.774,2.607,2.607,0,0,0,1.962-.774,2.659,2.659,0,0,0,0-3.847l-5.112-5.008Zm-2.362,6.157a4.3,4.3,0,0,1-.077-6.08l.077-.077,6.3-6.157,6.3,6.157-6.3,6.157A4.545,4.545,0,0,1,235.326,218.65Zm3.15,1.317a4.706,4.706,0,0,1-3.15-1.3,4.486,4.486,0,0,1-1.342-3.085,4.431,4.431,0,0,1,1.342-3.085l6.3-6.157,6.3,6.157-6.3,6.157A4.718,4.718,0,0,1,238.476,219.967Zm3.15-11.333-5.124,5.008a2.743,2.743,0,0,0,0,3.847,2.872,2.872,0,0,0,3.924,0l5.137-5Z" transform="translate(-233.984 -206.336)" fill="url(#linear-gradient)"/>
</svg>
