<svg xmlns="http://www.w3.org/2000/svg" xmlns:xlink="http://www.w3.org/1999/xlink" width="16.427" height="17.291" viewBox="0 0 16.427 17.291">
  <defs>
    <linearGradient id="linear-gradient" x1="0.5" x2="0.5" y2="1" gradientUnits="objectBoundingBox">
      <stop offset="0" stop-color="#ff5f5f"/>
      <stop offset="1" stop-color="#7b40ff"/>
    </linearGradient>
  </defs>
  <path id="路径_3494" data-name="路径 3494" d="M112.319,91.127a5.623,5.623,0,0,0,4.053,4.8l.034.009-.05.041-6.441,4.811a.663.663,0,0,1-.817-.019l-.049-.044-.586-.585c0,.038.01.077.016.116.125.725.635,1.174,1.617,1a3.6,3.6,0,0,0,1.287-.455l.128-.077.234-.145.109-.067a4.179,4.179,0,0,1,2.391-.617,4.92,4.92,0,0,1,3.56,1.321.664.664,0,0,1-.912.966,3.6,3.6,0,0,0-2.635-.957,2.9,2.9,0,0,0-1.72.427l-.358.22a4.922,4.922,0,0,1-1.852.693,2.516,2.516,0,0,1-3.159-2.082,3.075,3.075,0,0,1,.092-1.46l.022-.06-.421-.42a.666.666,0,0,1-.08-.845l.041-.054,5.439-6.458A.734.734,0,0,1,112.319,91.127Zm.085,3.431-.05.045-.939.941-.045.051a.664.664,0,0,0,.934.935l.051-.045.939-.941.046-.051a.665.665,0,0,0-.935-.935Zm5.5-9.225a5.187,5.187,0,1,1-5.187,5.187A5.188,5.188,0,0,1,117.906,85.333Z" transform="translate(-106.667 -85.333)" fill="url(#linear-gradient)"/>
</svg>
