<svg xmlns="http://www.w3.org/2000/svg" xmlns:xlink="http://www.w3.org/1999/xlink" width="15.485" height="16.954" viewBox="0 0 15.485 16.954">
  <defs>
    <linearGradient id="linear-gradient" x1="0.5" x2="0.5" y2="1" gradientUnits="objectBoundingBox">
      <stop offset="0" stop-color="#ff5f5f"/>
      <stop offset="1" stop-color="#7b40ff"/>
    </linearGradient>
  </defs>
  <path id="路径_3495" data-name="路径 3495" d="M15.941,49.343l1.033.853L15.8,51.6l-1-.827L13.9,51.9a1.074,1.074,0,0,1-1.584.2c-.391-.322-.349-.738.163-1.377l.9-1.125-.289-.239L11.83,50.936c-.631.791-1.461,1.141-2.238.5a1.578,1.578,0,0,1-.015-2.359L10.835,47.5,5.2,42.848,3.943,44.423c-.632.791-1.5,1.111-2.274.469s-.629-1.553,0-2.344L2.93,40.973l-.274-.226-.87,1.089c-.511.64-1,.867-1.388.545A1.276,1.276,0,0,1,.33,40.633l.87-1.089-.963-.8,1.174-1.4.932.769.6-.747a1.177,1.177,0,0,1,1.665-.25c.39.322.3.813-.208,1.453l-.6.747.274.226.954-1.194c.632-.791,1.493-1.144,2.271-.5a1.6,1.6,0,0,1,0,2.376l-.955,1.195,5.634,4.652.954-1.194c.632-.791,1.51-1.129,2.289-.487s.6,1.557-.035,2.348l-.955,1.195.288.238.654-.818c.511-.64.958-.835,1.348-.512a1.2,1.2,0,0,1,.073,1.686Z" transform="translate(-36.877 16.974) rotate(-90)" fill="url(#linear-gradient)"/>
</svg>
