<svg xmlns="http://www.w3.org/2000/svg" xmlns:xlink="http://www.w3.org/1999/xlink" width="15.68" height="15.662" viewBox="0 0 15.68 15.662">
  <defs>
    <linearGradient id="linear-gradient" x1="0.5" x2="0.5" y2="1" gradientUnits="objectBoundingBox">
      <stop offset="0" stop-color="#ff5f5f"/>
      <stop offset="1" stop-color="#7b40ff"/>
    </linearGradient>
  </defs>
  <path id="路径_3496" data-name="路径 3496" d="M7.229,4.222a1.769,1.769,0,0,0-1.318.045,1.365,1.365,0,0,0-.715.877,1.209,1.209,0,0,0,.443,1.342,1.463,1.463,0,0,0-.853.367,1.617,1.617,0,0,0-.453.743A1.574,1.574,0,0,0,4.547,9.02a2,2,0,0,0,1.118.746,1.814,1.814,0,0,0,1.41-.1,1.7,1.7,0,0,0,.834-1.079,1.454,1.454,0,0,0,0-.869,1.511,1.511,0,0,0-.532-.727A1.293,1.293,0,0,0,8.057,6.7a1.229,1.229,0,0,0,.391-.613,1.358,1.358,0,0,0-.135-1.125,1.77,1.77,0,0,0-1.084-.744ZM6.894,8.245a1,1,0,0,1-.405.605.718.718,0,0,1-.6.076.742.742,0,0,1-.479-.4A1.086,1.086,0,0,1,5.738,7.28a.677.677,0,0,1,.644-.1.738.738,0,0,1,.476.389.9.9,0,0,1,.036.673Zm.559-2.369a.679.679,0,0,1-.319.434.67.67,0,0,1-.524.038.662.662,0,0,1-.417-.31A.676.676,0,0,1,6.158,5.5a.66.66,0,0,1,.314-.417A.672.672,0,0,1,7,5.048a.628.628,0,0,1,.452.828Zm7.611-1.094a7.846,7.846,0,0,0-14.447,0A7.832,7.832,0,0,0,7.84,15.662,7.834,7.834,0,0,0,15.063,4.783ZM7.748.912a2.878,2.878,0,0,1,1.27.126.394.394,0,0,1-.265.742,2.083,2.083,0,0,0-.881-.089A.394.394,0,1,1,7.748.912ZM6.827,11.847A4.567,4.567,0,1,1,11.4,7.28a4.569,4.569,0,0,1-4.572,4.567Zm7.565-4.463a.394.394,0,0,1-.455-.322,6.161,6.161,0,0,0-2.122-3.739,6.2,6.2,0,0,0-1.685-1.044.394.394,0,0,1,.268-.741A6.847,6.847,0,0,1,12.3,2.7a6.988,6.988,0,0,1,2.413,4.227.394.394,0,0,1-.322.455Z" transform="translate(0)" fill="url(#linear-gradient)"/>
</svg>
