<svg xmlns="http://www.w3.org/2000/svg" xmlns:xlink="http://www.w3.org/1999/xlink" width="15.238" height="15.234" viewBox="0 0 15.238 15.234">
  <defs>
    <linearGradient id="linear-gradient" x1="0.5" x2="0.5" y2="1" gradientUnits="objectBoundingBox">
      <stop offset="0" stop-color="#ff5f5f"/>
      <stop offset="1" stop-color="#7b40ff"/>
    </linearGradient>
  </defs>
  <path id="路径_3497" data-name="路径 3497" d="M164.973,186.488a1.53,1.53,0,1,0,1.53,1.53A1.543,1.543,0,0,0,164.973,186.488Zm0-2.851a4.6,4.6,0,0,1,4.8,4.8c0,2.017-1.6,3.894-4.8,5.494-3.2-1.669-4.8-3.477-4.8-5.494A4.6,4.6,0,0,1,164.973,183.637Zm-.278,11.4.278.139.278-.139a11.941,11.941,0,0,0,4.033-2.99h.07a1.212,1.212,0,0,1,1.182.834l1.878,3.825a1.5,1.5,0,0,1-.7,2.017,2.057,2.057,0,0,1-.7.139h-12.17a1.443,1.443,0,0,1-1.53-1.46,2.471,2.471,0,0,1,.139-.7l1.947-3.825c.278-.556.348-.834.974-.834h.07A16.658,16.658,0,0,0,164.695,195.042Z" transform="translate(-157.324 -183.637)" fill="url(#linear-gradient)"/>
</svg>
