<svg xmlns="http://www.w3.org/2000/svg" xmlns:xlink="http://www.w3.org/1999/xlink" width="30.812" height="31.324" viewBox="0 0 30.812 31.324">
  <defs>
    <linearGradient id="linear-gradient" x1="0.5" x2="0.5" y2="1" gradientUnits="objectBoundingBox">
      <stop offset="0" stop-color="#ffd257"/>
      <stop offset="1" stop-color="#f0313a"/>
    </linearGradient>
  </defs>
  <g id="组_7388" data-name="组 7388" transform="translate(-53.34 -46.049)">
    <path id="路径_3501" data-name="路径 3501" d="M92.015,57.456a13.2,13.2,0,0,0-3.475-4.79,13.475,13.475,0,0,0-8.265-3.32,1.537,1.537,0,0,0-1.582,1.47,1.521,1.521,0,0,0,1.4,1.56,10.493,10.493,0,0,1,6.416,2.562A10.8,10.8,0,0,1,90.1,63.182,14.665,14.665,0,0,1,77.645,77.4c-.512.067-1.047.089-1.56.111a10.391,10.391,0,0,1-10.426-8.533,1.52,1.52,0,0,0-1.8-1.158,1.542,1.542,0,0,0-1.181,1.76,13.568,13.568,0,0,0,4.344,7.642,13.25,13.25,0,0,0,5.191,2.807,14.253,14.253,0,0,0,5.815.4A17.686,17.686,0,0,0,93.151,63.182,14.128,14.128,0,0,0,92.015,57.456Z" transform="translate(-9 -3.186)" fill="url(#linear-gradient)"/>
    <path id="路径_3502" data-name="路径 3502" d="M55.724,62.58a5.414,5.414,0,0,0,1.047-.178,3.276,3.276,0,0,0,.891-.423,6.661,6.661,0,0,0,1.158-.936c.512-.49,1-1.047,1.47-1.582.646-.78,1.27-1.56,1.916-2.339.6-.735,1.225-1.426,1.871-2.116.668-.713,1.359-1.448,2.027-2.183a14.134,14.134,0,0,0,1.359-1.693,6.084,6.084,0,0,0,.668-1.248,3.685,3.685,0,0,0,.223-.98,4.819,4.819,0,0,0,0-.8,2.58,2.58,0,0,0-.446-1.314,1.861,1.861,0,0,0-.98-.646,2.24,2.24,0,0,0-.557-.089h-.356l-.245.022a5.4,5.4,0,0,0-1,.223,10.011,10.011,0,0,0-1.738.757,15.524,15.524,0,0,0-2.139,1.426A21.447,21.447,0,0,0,59.043,50.1a25.315,25.315,0,0,0-2.607,2.963l-.045.067A20.727,20.727,0,0,0,54.454,56.3a13.064,13.064,0,0,0-.869,2.25,9.485,9.485,0,0,0-.223,1.092c0,.089-.022.178-.022.29V60.4c0,.089.022.178.022.29a2.3,2.3,0,0,0,.512,1.248,1.734,1.734,0,0,0,.891.557A2.752,2.752,0,0,0,55.724,62.58Z" fill="url(#linear-gradient)"/>
  </g>
</svg>
