<svg xmlns="http://www.w3.org/2000/svg" xmlns:xlink="http://www.w3.org/1999/xlink" width="46.445" height="30.162" viewBox="0 0 46.445 30.162">
  <defs>
    <linearGradient id="linear-gradient" x1="0.5" x2="0.5" y2="1" gradientUnits="objectBoundingBox">
      <stop offset="0" stop-color="#ffd257"/>
      <stop offset="1" stop-color="#f0313a"/>
    </linearGradient>
  </defs>
  <g id="buyTicket" transform="translate(-113.789 -255.963)">
    <path id="路径_78" data-name="路径 78" d="M634.69,365.438a6.628,6.628,0,1,0,6.628-6.628,6.628,6.628,0,0,0-6.628,6.628Z" transform="translate(-489.699 -96.687)" fill="url(#linear-gradient)"/>
    <path id="路径_79" data-name="路径 79" d="M152.777,603.335a9.425,9.425,0,0,1-6.709-2.781l-.654-.655a4.53,4.53,0,0,0-6.266,0l-.595.6a9.5,9.5,0,0,1-13.423,0l-.752-.752a4.438,4.438,0,0,0-6.265,0,2.533,2.533,0,1,1-3.582-3.581,9.5,9.5,0,0,1,13.423,0l.752.752a4.437,4.437,0,0,0,6.265,0l.6-.595a9.716,9.716,0,0,1,13.423,0l.655.655a4.53,4.53,0,0,0,6.265,0,2.533,2.533,0,1,1,3.582,3.581A9.425,9.425,0,0,1,152.777,603.335Z" transform="translate(0 -317.21)" fill="url(#linear-gradient)"/>
    <path id="路径_80" data-name="路径 80" d="M233.937,260.235l8.981,3.217,1.418,2.717-14.5,7.634a9.45,9.45,0,0,1,7.212,2.727l.752.752a4.438,4.438,0,0,0,6.265,0l.6-.6a9.676,9.676,0,0,1,9.551-2.233l-4.762-9.089-2.548-4.978a2.187,2.187,0,0,0-1.282-1.071l-10.377-3.252a2.186,2.186,0,1,0-1.31,4.172Z" transform="translate(-109.1 0)" fill="url(#linear-gradient)"/>
  </g>
</svg>
