<svg xmlns="http://www.w3.org/2000/svg" xmlns:xlink="http://www.w3.org/1999/xlink" width="345" height="129" viewBox="0 0 345 129">
  <defs>
    <clipPath id="clip-path2">
      <rect id="矩形_3" data-name="矩形 3" width="345" height="129" transform="translate(15 98)" fill="#fff"/>
    </clipPath>
  </defs>
  <g id="蒙版组_5" data-name="蒙版组 5" transform="translate(-15 -98)" clip-path="url(#clip-path2)">
    <path id="路径_1411" data-name="路径 1411" d="M105.591,64.873a40.5,40.5,0,1,0,40.5,40.5A40.5,40.5,0,0,0,105.591,64.873Zm0,74.925a34.425,34.425,0,1,1,34.425-34.425A34.42,34.42,0,0,1,105.591,139.8Zm7.752-23.754c-.981,0-4.833,5.687-6.937,5.687a.856.856,0,0,1-.839-.933,12.386,12.386,0,0,1,1.187-3.75L111.8,104c2.523-6.494-.7-8.234-3.71-8.234a15.883,15.883,0,0,0-10.513,4.485c-.91.87-3.172,4.248-3.172,5.529a1,1,0,0,0,.925.925c1.281,0,3.789-6.526,6.376-6.526.562,0,1.194.6.7,1.8l-4.9,11.778c-.49,1.139-2.871,5.039-2.871,8.258,0,2.539,1.748,5.268,4.272,5.268,7.08,0,15.275-8.3,15.275-10.244a.982.982,0,0,0-.838-1Zm-1.408-32.6a5.625,5.625,0,0,0-5.743,5.355c0,2.745,1.891,4.556,4.762,4.556A5.56,5.56,0,0,0,116.768,88c.008-2.745-2.025-4.556-4.833-4.556Z" transform="translate(231.594 68.62)" opacity="0.05"/>
  </g>
</svg>
