<svg xmlns="http://www.w3.org/2000/svg" width="18.302" height="18.302" viewBox="0 0 18.302 18.302">
  <path id="icon_home" d="M6.345,0h5.613A6.345,6.345,0,0,1,18.3,6.345v5.613A6.345,6.345,0,0,1,11.957,18.3H6.345A6.345,6.345,0,0,1,0,11.957V6.345A6.345,6.345,0,0,1,6.345,0Zm8.036,8.708L9.444,3.818a.417.417,0,0,0-.586,0L3.92,8.708a.409.409,0,0,0,.293.7h.741V13.69a.706.706,0,0,0,.7.708h6.983a.706.706,0,0,0,.706-.708V9.408h.741a.409.409,0,0,0,.293-.7Zm-4,3.8H7.916a.333.333,0,1,1,0-.665h2.469a.333.333,0,1,1,0,.665Zm0-1.663H7.916a.333.333,0,1,1,0-.665h2.469a.333.333,0,0,1,0,.665Z" fill="#c8474e"/>
</svg>
