<svg xmlns="http://www.w3.org/2000/svg" width="11.653" height="13.838" viewBox="0 0 11.653 13.838">
  <path id="路径_3499" data-name="路径 3499" d="M183.575,106.909a.906.906,0,0,0-.615-.236h-.065c-.013,0-.157.013-.38.013a7.911,7.911,0,0,1-1.792-.2A7.508,7.508,0,0,1,178.5,105.1a.953.953,0,0,0-.5-.144.99.99,0,0,0-.5.144,5.724,5.724,0,0,1-2.158,1.387,8.089,8.089,0,0,1-1.8.2c-.236,0-.379-.013-.392-.013H173.1a.881.881,0,0,0-.615.236.836.836,0,0,0-.287.628v2.171c0,8.005,5.428,9.038,5.65,9.077a.945.945,0,0,0,.314,0c.235-.039,5.689-1.072,5.689-9.077v-2.171a.874.874,0,0,0-.274-.628Zm-2.014,3.1-3.754,3.636a.353.353,0,0,1-.092.105.554.554,0,0,1-.392.157.608.608,0,0,1-.405-.157.317.317,0,0,1-.079-.105l-2.014-1.949a.521.521,0,0,1,0-.745.552.552,0,0,1,.771,0l1.727,1.661,3.466-3.348a.552.552,0,0,1,.771,0,.5.5,0,0,1,0,.746Z" transform="translate(-172.196 -104.96)" fill="#07a065"/>
</svg>
