<svg xmlns="http://www.w3.org/2000/svg" width="7.828" height="6.657" viewBox="0 0 7.828 6.657">
  <path id="icon_more_arr" d="M16686.178,6.714a.507.507,0,0,1,0-.7l2.48-2.475-2.48-2.475a.508.508,0,0,1,0-.708.5.5,0,0,1,.705,0l2.826,2.827a.5.5,0,0,1,0,.708l-2.83,2.832a.5.5,0,0,1-.35.146A.509.509,0,0,1,16686.178,6.714Zm-4,0a.507.507,0,0,1,0-.7l2.48-2.475-2.48-2.475a.508.508,0,0,1,0-.708.5.5,0,0,1,.705,0l2.826,2.827a.5.5,0,0,1,0,.708l-2.83,2.832a.488.488,0,0,1-.35.146A.509.509,0,0,1,16682.178,6.714Z" transform="translate(-16682.035 -0.207)" fill="#515f71"/>
</svg>
