<svg xmlns="http://www.w3.org/2000/svg" width="74.562" height="74.562" viewBox="0 0 74.562 74.562">
  <g id="组_4424" data-name="组 4424" transform="translate(-150.719 -174.438)">
    <path id="路径_312" data-name="路径 312" d="M37.281,37.281,0,37.281A37.281,37.281,0,1,0,37.281,0,37.281,37.281,0,0,0,0,37.281Z" transform="translate(150.719 174.438)" fill="#ab344c" opacity="0.15"/>
    <path id="路径_313" data-name="路径 313" d="M238.286,267.14a28.845,28.845,0,1,1,20.4-8.448,28.845,28.845,0,0,1-20.4,8.448Z" transform="translate(-50.285 -26.577)" fill="#ab344c"/>
    <path id="联合_162" data-name="联合 162" d="M8151.142,1068.97l-4.95-4.95-4.949,4.95a2,2,0,0,1-2.829-2.828l4.95-4.95-4.95-4.95a2,2,0,0,1,2.829-2.828l4.949,4.95,4.95-4.95a2,2,0,0,1,2.829,2.828l-4.95,4.95,4.95,4.95a2,2,0,1,1-2.829,2.828Z" transform="translate(-7958.191 -849.192)" fill="#fff"/>
  </g>
</svg>
