<svg xmlns="http://www.w3.org/2000/svg" width="74.562" height="74.562" viewBox="0 0 74.562 74.562">
  <g id="组_2366" data-name="组 2366" transform="translate(-14.286 -14.286)">
    <path id="路径_312" data-name="路径 312" d="M37.281,37.281,0,37.281A37.281,37.281,0,1,0,37.281,0,37.281,37.281,0,0,0,0,37.281Z" transform="translate(14.286 14.286)" fill="#67ebb2" opacity="0.15"/>
    <path id="路径_313" data-name="路径 313" d="M238.286,267.14a28.845,28.845,0,1,1,20.4-8.448,28.845,28.845,0,0,1-20.4,8.448ZM226.45,235.864a3.439,3.439,0,0,0-2.441,5.862l8.866,8.936a2.852,2.852,0,0,0,4.048,0l15.812-15.9a2.853,2.853,0,0,0-3.835-4.216l-12.148,9.992a2.851,2.851,0,0,1-3.68-.047L228.7,236.7A3.433,3.433,0,0,0,226.45,235.864Z" transform="translate(-186.719 -186.729)" fill="#3cc475"/>
  </g>
</svg>
