<svg xmlns="http://www.w3.org/2000/svg" width="15.014" height="15.014" viewBox="0 0 15.014 15.014">
  <path id="icon_chenge" d="M75.236,72.58a.492.492,0,0,1,.292.079.593.593,0,0,1,.25.364.646.646,0,0,1-.054.45L74.117,75.5a.509.509,0,0,1-.733.218.634.634,0,0,1-.2-.814l.912-1.147H67.805a.588.588,0,1,1,0-1.175h7.431Zm-7.459-2.145a.492.492,0,0,1-.292-.079.591.591,0,0,1-.25-.364.646.646,0,0,1,.054-.45L68.9,67.516a.508.508,0,0,1,.732-.218.634.634,0,0,1,.2.814l-.912,1.147h6.294a.588.588,0,1,1,0,1.175H67.778ZM64,65.067A1.07,1.07,0,0,1,65.068,64H77.947a1.07,1.07,0,0,1,1.067,1.068V77.947a1.07,1.07,0,0,1-1.068,1.068H65.067A1.071,1.071,0,0,1,64,77.946Zm1.072.542V77.4a.536.536,0,0,0,.536.537h11.8a.536.536,0,0,0,.536-.536v-11.8a.536.536,0,0,0-.536-.536h-11.8A.536.536,0,0,0,65.072,65.609Z" transform="translate(-64 -64)" fill="#c8474e"/>
</svg>
