<svg xmlns="http://www.w3.org/2000/svg" width="9.555" height="12.063" viewBox="0 0 9.555 12.063">
  <path id="路径_3445" data-name="路径 3445" d="M121.547,3.224a4.976,4.976,0,0,1,7.049,0c1.947,1.951,1.493,5.115-.453,7.067l-3.071,3.533L122,10.291c-1.947-1.951-2.4-5.115-.453-7.067Zm3.524,9.315L127.5,9.649c1.592-1.6,2.046-4.185.453-5.782a4.071,4.071,0,0,0-5.767,0c-1.593,1.6-1.139,4.185.453,5.782Zm0-8.507A2.271,2.271,0,1,0,127.337,6.3,2.269,2.269,0,0,0,125.071,4.032Zm0,3.634a1.363,1.363,0,1,1,1.36-1.363A1.361,1.361,0,0,1,125.071,7.666Z" transform="translate(-120.294 -1.761)" fill="#1a1a1a"/>
</svg>
