<svg xmlns="http://www.w3.org/2000/svg" xmlns:xlink="http://www.w3.org/1999/xlink" width="35.563" height="37.964" viewBox="0 0 35.563 37.964">
  <defs>
    <linearGradient id="linear-gradient" x1="0.5" x2="0.5" y2="1" gradientUnits="objectBoundingBox">
      <stop offset="0" stop-color="#ffd257"/>
      <stop offset="1" stop-color="#f0313a"/>
    </linearGradient>
  </defs>
  <path id="路径_3500" data-name="路径 3500" d="M97.459,56.049a4,4,0,0,0,3.934-4.056,4.1,4.1,0,0,0-1.433-3.13,2.832,2.832,0,0,1,.128.8,2.69,2.69,0,1,1-5.377,0,2.806,2.806,0,0,1,.082-.648,4.1,4.1,0,0,0-1.269,2.976A4,4,0,0,0,97.459,56.049Zm-.125-5.17a2.7,2.7,0,1,0-2.622-2.7A2.663,2.663,0,0,0,97.334,50.879ZM78.809,75.116l6.336,2.528c-.511-1.054-2.555-16.96-2.555-16.96Zm25.753,8.322.409-6.215L90.766,78.7ZM108.854,49.2l-6.887,1.048a5.42,5.42,0,0,1,.653,2.587,5.163,5.163,0,1,1-10.321,0,5.531,5.531,0,0,1,.12-1.135l-8.5,1.293c.306,8.217,3.986,24.545,3.986,24.545L114.372,72.9C112.533,71.008,108.854,49.2,108.854,49.2ZM88.917,62.18l11.262-1.669.335,1.253-11.261,1.67Zm2.418,9.5-.409-1.429,13.86-2.033.409,1.429Zm-.84-4.116-.547-1.418,17.853-2.42.547,1.418Z" transform="translate(-78.809 -45.474)" fill="url(#linear-gradient)"/>
</svg>
