<svg xmlns="http://www.w3.org/2000/svg" xmlns:xlink="http://www.w3.org/1999/xlink" width="30.002" height="34" viewBox="0 0 30.002 34">
  <defs>
    <linearGradient id="linear-gradient" x1="0.5" x2="0.5" y2="1" gradientUnits="objectBoundingBox">
      <stop offset="0" stop-color="#ffd257"/>
      <stop offset="1" stop-color="#f0313a"/>
    </linearGradient>
  </defs>
  <g id="record2" transform="translate(-261.999 -537.001)">
    <path id="减去_42" data-name="减去 42" d="M8.5,32h0L3.251,28.333-2,32-2,2A4,4,0,0,1,2-2H24a4,4,0,0,1,4,4V32l-5.252-3.667L17.5,32,13,28.333,8.5,32Z" transform="translate(264 539)" fill="url(#linear-gradient)"/>
    <path id="联合_198" data-name="联合 198" d="M16680,10a1,1,0,1,1,0-2h7.529a1,1,0,0,1,0,2Zm0-4a1,1,0,1,1,0-2h16a1,1,0,1,1,0,2Z" transform="translate(-16411 552)" fill="#fff"/>
    <g id="组_4343" data-name="组 4343" transform="translate(154.209 285.298)">
      <path id="路径_78" data-name="路径 78" d="M634.69,361.379a2.569,2.569,0,1,0,2.569-2.569,2.569,2.569,0,0,0-2.569,2.569Z" transform="translate(-508.807 -100.459)" fill="#fff"/>
      <path id="路径_79" data-name="路径 79" d="M128.9,597.242a3.653,3.653,0,0,1-2.6-1.078l-.254-.254a1.756,1.756,0,0,0-2.429,0l-.231.231a3.683,3.683,0,0,1-5.2,0l-.292-.292a1.72,1.72,0,0,0-2.428,0,.982.982,0,1,1-1.388-1.388,3.683,3.683,0,0,1,5.2,0l.292.291a1.72,1.72,0,0,0,2.428,0l.231-.23a3.766,3.766,0,0,1,5.2,0l.254.254a1.756,1.756,0,0,0,2.428,0,.982.982,0,1,1,1.388,1.388A3.653,3.653,0,0,1,128.9,597.242Z" transform="translate(0 -329.588)" fill="#fff"/>
      <path id="路径_80" data-name="路径 80" d="M231.428,257.619l3.481,1.247.55,1.053-5.619,2.959a3.663,3.663,0,0,1,2.8,1.057l.292.292a1.72,1.72,0,0,0,2.428,0l.231-.231a3.751,3.751,0,0,1,3.7-.865l-1.846-3.523-.988-1.929a.848.848,0,0,0-.5-.415L231.936,256a.847.847,0,1,0-.508,1.617Z" transform="translate(-113.357 0)" fill="#fff"/>
    </g>
  </g>
</svg>
