<svg xmlns="http://www.w3.org/2000/svg" xmlns:xlink="http://www.w3.org/1999/xlink" width="150" height="30" viewBox="0 0 150 30">
  <defs>
    <linearGradient id="linear-gradient" y1="0.5" x2="1" y2="0.5" gradientUnits="objectBoundingBox">
      <stop offset="0" stop-color="#c4f3ff"/>
      <stop offset="1" stop-color="#ffe0c9"/>
    </linearGradient>
    <clipPath id="clip-path">
      <path id="矩形_2498" data-name="矩形 2498" d="M10,0H140a10,10,0,0,1,10,10V30a0,0,0,0,1,0,0H0a0,0,0,0,1,0,0V10A10,10,0,0,1,10,0Z" transform="translate(30 257)" fill="url(#linear-gradient)"/>
    </clipPath>
  </defs>
  <g id="组_4393" data-name="组 4393" transform="translate(-28 -257)">
    <path id="矩形_2496" data-name="矩形 2496" d="M10,0H140a10,10,0,0,1,10,10V30a0,0,0,0,1,0,0H0a0,0,0,0,1,0,0V10A10,10,0,0,1,10,0Z" transform="translate(28 257)" fill="url(#linear-gradient)"/>
    <g id="蒙版组_6" data-name="蒙版组 6" transform="translate(-2)" clip-path="url(#clip-path)">
      <g id="组_4386" data-name="组 4386" transform="translate(-25)">
        <line id="直线_16" data-name="直线 16" x1="84" y2="68.607" transform="translate(80.5 245.493)" fill="none" stroke="#fff" stroke-width="1" opacity="0.1"/>
        <line id="直线_17" data-name="直线 17" x1="84" y2="68.607" transform="translate(90.5 245.493)" fill="none" stroke="#fff" stroke-width="1" opacity="0.2"/>
        <line id="直线_18" data-name="直线 18" x1="84" y2="68.607" transform="translate(100.5 245.493)" fill="none" stroke="#fff" stroke-width="1" opacity="0.3"/>
        <line id="直线_19" data-name="直线 19" x1="84" y2="68.607" transform="translate(109.5 245.493)" fill="none" stroke="#fff" stroke-width="1" opacity="0.4"/>
        <line id="直线_20" data-name="直线 20" x1="84" y2="68.607" transform="translate(119.5 245.493)" fill="none" stroke="#fff" stroke-width="1" opacity="0.5"/>
        <line id="直线_24" data-name="直线 24" x1="84" y2="68.607" transform="translate(148.5 245.493)" fill="none" stroke="#fff" stroke-width="1" opacity="0.8"/>
        <line id="直线_21" data-name="直线 21" x1="84" y2="68.607" transform="translate(129.5 245.493)" fill="none" stroke="#fff" stroke-width="1" opacity="0.6"/>
        <line id="直线_25" data-name="直线 25" x1="84" y2="68.607" transform="translate(158.5 245.493)" fill="none" stroke="#fff" stroke-width="1" opacity="0.9"/>
        <line id="直线_22" data-name="直线 22" x1="84" y2="68.607" transform="translate(139.5 245.493)" fill="none" stroke="#fff" stroke-width="1" opacity="0.7"/>
        <line id="直线_23" data-name="直线 23" x1="84" y2="68.607" transform="translate(168.5 245.493)" fill="none" stroke="#fff" stroke-width="1"/>
      </g>
    </g>
  </g>
</svg>
