<svg xmlns="http://www.w3.org/2000/svg" width="24" height="20" viewBox="0 0 24 20">
  <path id="路径_311" data-name="路径 311" d="M10.369,13.733a.81.81,0,0,1-.7-.387l-.053-.109L5.435,7.71a.366.366,0,0,1-.04-.159.39.39,0,0,1,.4-.378.417.417,0,0,1,.24.075l4.578,2.733a1.258,1.258,0,0,0,1.065.116L21.8,4A13.18,13.18,0,0,0,12,0C5.372,0,0,4.23,0,9.446a8.777,8.777,0,0,0,4.146,7.139.746.746,0,0,1,.336.615.869.869,0,0,1-.042.242l-.541,1.9a1.036,1.036,0,0,0-.065.276.389.389,0,0,0,.4.378.466.466,0,0,0,.23-.07L7.092,18.5a1.31,1.31,0,0,1,.637-.175,1.326,1.326,0,0,1,.353.049A14.97,14.97,0,0,0,12,18.891c6.628,0,12-4.231,12-9.445a7.851,7.851,0,0,0-1.368-4.377L10.816,13.6l-.087.047A.823.823,0,0,1,10.369,13.733Z" fill="#15ba11"/>
</svg>
