<?xml version="1.0" standalone="no"?>
<!DOCTYPE svg PUBLIC "-//W3C//DTD SVG 1.1//EN" "http://www.w3.org/Graphics/SVG/1.1/DTD/svg11.dtd" >
<svg xmlns="http://www.w3.org/2000/svg">
  <metadata>Created by iconfont</metadata>
  <defs>
  <font id="iconfont" horiz-adv-x="1024">
    <font-face
      font-family="iconfont"
      font-weight="400"
      font-stretch="normal"
      units-per-em="1024"
      ascent="896"
      descent="-128"
    />
      <missing-glyph />
      
      <glyph glyph-name="biaoqian" unicode="&#66056;" d="M536.1664-28.0064a165.12 165.12 0 0 0-117.76 48.6912L133.12 306.432a129.4848 129.4848 0 0 0-36.1472 112.2304l38.5024 234.9056a129.3312 129.3312 0 0 0 104.0384 106.1888L481.5872 803.84a129.1264 129.1264 0 0 0 114.4832-35.84l285.0304-285.0304a166.144 166.144 0 0 0 0-235.008L653.6704 20.48a165.12 165.12 0 0 0-117.504-48.4864zM504.7296 734.3104a58.2656 58.2656 0 0 1-10.24-0.9216l-242.1248-44.1344a57.6512 57.6512 0 0 1-46.4384-47.2576l-38.4512-234.9056a57.7024 57.7024 0 0 1 16.0768-49.9712l285.7472-285.7472a94.5152 94.5152 0 0 1 133.6832 0l227.4304 227.4304a94.4128 94.4128 0 0 1 0 133.632l-285.0304 285.0304a57.344 57.344 0 0 1-40.6528 16.8448zM396.8512 398.7968a104.0896 104.0896 0 1 0 104.0896 104.0896 104.192 104.192 0 0 0-104.0896-104.0896z m0 136.4992a32.4096 32.4096 0 1 1 32.4096-32.4096 32.4608 32.4608 0 0 1-32.4096 32.4096z"  horiz-adv-x="1024" />
      
      <glyph glyph-name="fenxiang1" unicode="&#66057;" d="M858.3168 307.2a35.84 35.84 0 0 1-35.84-35.84v-82.944a130.2528 130.2528 0 0 0-130.0992-130.0992H331.8784a130.2016 130.2016 0 0 0-130.048 130.0992V583.3728a130.2016 130.2016 0 0 0 130.048 130.0992h65.536a35.84 35.84 0 0 1 0 71.68h-65.536a201.984 201.984 0 0 1-201.728-201.7792v-394.8544a201.984 201.984 0 0 1 201.728-201.7792h360.4992a202.0352 202.0352 0 0 1 201.7792 201.7792V271.36a35.84 35.84 0 0 1-35.84 35.84zM543.9488 388.5568a35.84 35.84 0 0 1 25.6 10.9056l242.4832 250.88v-116.48a35.84 35.84 0 1 1 71.68 0v158.72a87.5008 87.5008 0 0 1-87.3984 87.3984H649.728a35.84 35.84 0 0 1 0-71.68h118.8352l-250.368-259.072a35.84 35.84 0 0 1 25.6-60.7232z"  horiz-adv-x="1024" />
      
      <glyph glyph-name="bianji1" unicode="&#66058;" d="M695.7056-13.2608H335.1552a201.984 201.984 0 0 0-201.728 201.7792V583.3728a201.984 201.984 0 0 0 201.728 201.7792h65.536a35.84 35.84 0 0 0 0-71.68h-65.536a130.2016 130.2016 0 0 1-130.048-130.0992v-394.8544a130.2016 130.2016 0 0 1 130.048-130.0992h360.5504a130.2528 130.2528 0 0 1 130.048 130.0992V271.36a35.84 35.84 0 1 0 71.68 0v-82.944a201.984 201.984 0 0 0-201.728-201.6768zM479.6416 336.1792a35.84 35.84 0 0 0-26.0608 60.416l332.8 353.024a35.84 35.84 0 1 0 52.1728-49.2032l-332.8-353.28a35.84 35.84 0 0 0-26.112-10.9568zM695.296 167.5264H328.6016a35.84 35.84 0 0 0 0 71.68h366.6944a35.84 35.84 0 0 0 0-71.68z"  horiz-adv-x="1024" />
      
      <glyph glyph-name="duihuan" unicode="&#66059;" d="M508.2112-21.248a411.4432 411.4432 0 1 0 411.4944 411.4432 411.904 411.904 0 0 0-411.4944-411.4432z m0 751.2064a339.7632 339.7632 0 1 1 339.8144-339.7632 340.1728 340.1728 0 0 1-339.8144 339.7632zM661.1456 437.2992H342.3744a35.84 35.84 0 0 0 0 71.68h238.4384l-36.1984 40.2944a35.84 35.84 0 1 0 53.3504 47.872l89.856-100.096a35.84 35.84 0 0 0-26.6752-59.7504zM432.2304 202.7008a35.5328 35.5328 0 0 0-26.6752 11.9296l-89.856 100.096a35.84 35.84 0 0 0 26.6752 59.7504h318.7712a35.84 35.84 0 0 0 0-71.68H422.7072l36.1984-40.3456a35.84 35.84 0 0 0-26.6752-59.7504z"  horiz-adv-x="1024" />
      
      <glyph glyph-name="jianshao2" unicode="&#66060;" d="M515.584-27.4432A411.4432 411.4432 0 1 0 927.0272 384a411.904 411.904 0 0 0-411.4432-411.4432z m0 751.2064A339.7632 339.7632 0 1 1 855.3472 384a340.1728 340.1728 0 0 1-339.7632 339.7632zM687.7184 353.28H347.1872a35.84 35.84 0 0 0 0 71.68h340.5312a35.84 35.84 0 0 0 0-71.68z"  horiz-adv-x="1024" />
      
      <glyph glyph-name="lishijilu" unicode="&#66061;" d="M553.4208 773.7856a388.2496 388.2496 0 0 1-387.84-387.84c0-11.1104 0.5632-22.1696 1.4848-33.1776L122.88 384.4096a35.84 35.84 0 0 1-41.6768-58.2656l120.5248-86.272a36.1984 36.1984 0 0 1 20.8896-6.656 35.4816 35.4816 0 0 1 29.44 15.36l78.4384 113.5104A35.84 35.84 0 1 1 271.36 402.944l-32.7168-47.3088c-0.9728 10.24-1.4848 20.1728-1.4848 30.3104A316.2112 316.2112 0 1 0 328.2432 163.84a35.84 35.84 0 0 1-51.2-50.2784 387.84 387.84 0 1 1 276.48 660.0192zM543.1808 610.3552a35.84 35.84 0 0 1-35.84-35.84v-192.1536a35.84 35.84 0 0 1 15.36-29.3376l136.0896-95.4368a35.4816 35.4816 0 0 1 20.48-6.5024 35.84 35.84 0 0 1 20.48 65.1776l-120.7296 84.736V574.5152a35.84 35.84 0 0 1-35.84 35.84z"  horiz-adv-x="1024" />
      
      <glyph glyph-name="shanchu1" unicode="&#66062;" d="M899.9936 637.44h-211.5072v48.9472a107.8784 107.8784 0 0 1-107.52 107.52H436.992a107.8784 107.8784 0 0 1-107.52-107.52v-48.9472H131.1232a35.84 35.84 0 0 1 0-71.68h58.6752v-434.176a146.4832 146.4832 0 0 1 146.3296-146.3296h346.2656a146.432 146.432 0 0 1 146.2784 146.3296V565.76h71.3216a35.84 35.84 0 0 1 0 71.68z m-499.0464 48.9472a36.096 36.096 0 0 0 35.84 35.84h143.7184a36.096 36.096 0 0 0 35.84-35.84v-48.9472H400.9472z m356.0448-554.8032a74.7008 74.7008 0 0 0-74.5984-74.6496H336.128a74.752 74.752 0 0 0-74.6496 74.6496V565.76h495.5136zM412.928 456.3968a35.84 35.84 0 0 1-35.84-35.84v-219.2384a35.84 35.84 0 0 1 71.68 0V420.5568a35.84 35.84 0 0 1-35.84 35.84zM601.4464 456.3968a35.84 35.84 0 0 1-35.84-35.84v-219.2384a35.84 35.84 0 0 1 71.68 0V420.5568a35.84 35.84 0 0 1-35.84 35.84z"  horiz-adv-x="1024" />
      
      <glyph glyph-name="qushi" unicode="&#66063;" d="M721.4592-15.36H307.712a196.352 196.352 0 0 0-196.1472 196.1472V594.7392A196.352 196.352 0 0 0 307.712 790.8864h413.7472a196.4032 196.4032 0 0 0 196.1472-196.1472v-413.7472A196.4032 196.4032 0 0 0 721.4592-15.36zM307.712 719.2064a124.6208 124.6208 0 0 1-124.4672-124.4672v-413.7472A124.6208 124.6208 0 0 1 307.712 56.32h413.7472a124.6208 124.6208 0 0 1 124.4672 124.4672V594.7392a124.6208 124.6208 0 0 1-124.4672 124.4672zM303.104 265.5744a35.84 35.84 0 0 0-24.9856 61.44l142.4896 138.24a61.8496 61.8496 0 0 0 86.272-0.1024l77.824-77.2608 110.2336 115.8144a35.84 35.84 0 0 0 51.9168-49.408l-117.4528-123.392a61.44 61.44 0 0 0-87.7568-1.28L463.36 407.1424l-135.2704-131.4304a35.84 35.84 0 0 0-24.9856-10.1376z"  horiz-adv-x="1024" />
      
      <glyph glyph-name="shouye2" unicode="&#66064;" d="M835.7376 607.3344h-102.4a134.3488 134.3488 0 0 1 16.0256 63.8464v1.8432a135.6288 135.6288 0 0 1-135.4752 135.5264h-1.8944A135.0656 135.0656 0 0 1 512 764.7232a135.0656 135.0656 0 0 1-99.6352 43.8272h-1.8944a135.68 135.68 0 0 1-135.424-135.5264v-1.8432a134.912 134.912 0 0 1 16.0256-63.8464H181.3504a96.6656 96.6656 0 0 1-96.6144-96.6144v-63.1808a96.7168 96.7168 0 0 1 61.44-89.856v-235.8784A145.8176 145.8176 0 0 1 291.84-23.8592h436.8896a145.8176 145.8176 0 0 1 145.664 145.664v237.2096a96.7168 96.7168 0 0 1 57.9584 88.5248V510.72a96.7168 96.7168 0 0 1-96.6144 96.6144z m24.9344-96.6144v-63.1808a24.9856 24.9856 0 0 0-24.9344-24.9344H547.84V535.6544h287.7952a24.9856 24.9856 0 0 0 25.0368-24.9344z m-248.9344 226.1504h1.8944a63.8976 63.8976 0 0 0 63.7952-63.8464v-1.8432a63.8976 63.8976 0 0 0-63.7952-63.8464H547.84V673.024a63.8976 63.8976 0 0 0 63.8976 63.8464zM346.7264 671.1808v1.8432a63.9488 63.9488 0 0 0 63.8464 63.8464h1.8944A63.8976 63.8976 0 0 0 476.16 673.024v-65.6896H410.5728a63.9488 63.9488 0 0 0-63.8464 63.8464zM156.416 510.72a24.9344 24.9344 0 0 0 24.9344 24.9344H476.16v-113.0496H181.3504a24.9856 24.9856 0 0 0-24.9344 24.9344z m61.44-389.12v229.3248H476.16v-303.104H291.84a74.0352 74.0352 0 0 0-74.0864 73.984z m584.8576 0a74.0352 74.0352 0 0 0-73.984-73.984H547.84v303.104h254.6688z"  horiz-adv-x="1024" />
      
      <glyph glyph-name="shangchuan1" unicode="&#66065;" d="M723.968 786.9952H310.272a196.3008 196.3008 0 0 1-196.1472-196.096v-413.7472a196.352 196.352 0 0 1 196.1472-196.1472h413.696a196.352 196.352 0 0 1 196.1472 196.1472V590.8992a196.3008 196.3008 0 0 1-196.1472 196.096z m124.4672-609.8432a124.5696 124.5696 0 0 0-124.4672-124.4672H310.272a124.5696 124.5696 0 0 0-124.4672 124.4672V590.8992a124.5696 124.5696 0 0 0 124.4672 124.416h413.696a124.5696 124.5696 0 0 0 124.4672-124.416zM650.24 604.16H394.24a35.84 35.84 0 0 1 0-71.68h256a35.84 35.84 0 1 1 0 71.68zM547.84 472.3712a35.84 35.84 0 0 1-25.6 10.9056 35.0208 35.0208 0 0 1-25.6-10.24l-128-126.1056a35.84 35.84 0 0 1 50.3808-51.2l66.56 65.9456v-159.3856a35.84 35.84 0 0 1 71.68 0v156.4672l60.2624-62.3616a35.84 35.84 0 0 1 51.5584 49.8176z"  horiz-adv-x="1024" />
      
      <glyph glyph-name="fasong" unicode="&#66066;" d="M635.5968-25.6a132.5568 132.5568 0 0 0-117.4016 69.9392l-116.3264 210.4832-231.1168 103.1168a119.6544 119.6544 0 0 0 7.1168 221.44l552.96 205.3632a135.3216 135.3216 0 0 0 178.176-160.5632l-141.1584-547.84a132.8128 132.8128 0 0 0-113.9712-100.4544 144.6912 144.6912 0 0 0-18.2784-1.4848zM202.8544 512a47.9744 47.9744 0 0 1-2.8672-88.7808l242.0736-108.032a35.84 35.84 0 0 0 16.7424-15.36l122.112-220.8768a63.6928 63.6928 0 0 1 117.3504 14.9504l141.1072 547.84a63.6416 63.6416 0 0 1-83.8144 75.52L202.8032 512zM532.48 366.3872a35.84 35.84 0 0 0-25.6 60.9792l152.064 154.4704a35.84 35.84 0 1 0 51.2-50.2784L558.08 377.088a35.84 35.84 0 0 0-25.6-10.7008z"  horiz-adv-x="1024" />
      
      <glyph glyph-name="gengduo1" unicode="&#66067;" d="M508.2112 384m-53.2992 0a53.2992 53.2992 0 1 1 106.5984 0 53.2992 53.2992 0 1 1-106.5984 0ZM327.8336 384m-53.2992 0a53.2992 53.2992 0 1 1 106.5984 0 53.2992 53.2992 0 1 1-106.5984 0ZM687.3088 384m-53.2992 0a53.2992 53.2992 0 1 1 106.5984 0 53.2992 53.2992 0 1 1-106.5984 0ZM508.2112-27.4432A411.4432 411.4432 0 1 0 919.7056 384a411.904 411.904 0 0 0-411.4944-411.4432z m0 751.2064A339.7632 339.7632 0 1 1 848.0256 384a340.1728 340.1728 0 0 1-339.8144 339.7632z"  horiz-adv-x="1024" />
      
      <glyph glyph-name="shoucang2" unicode="&#66068;" d="M316.928-26.4704a110.0288 110.0288 0 0 0-108.1344 128.512l27.5456 160.6144-116.6848 113.7152a109.8752 109.8752 0 0 0 60.8768 187.392l161.2288 23.4496 72.1408 146.0736a109.1584 109.1584 0 0 0 98.5088 61.44 109.1584 109.1584 0 0 0 98.5088-61.44l72.0896-146.0736 161.28-23.4496a109.8752 109.8752 0 0 0 60.8768-187.392L788.48 262.656l27.5456-160.6144a109.8752 109.8752 0 0 0-159.3856-115.8144l-144.2304 75.8272-144.2304-75.8272a110.336 110.336 0 0 0-51.2512-12.6976zM512.4096 138.24a36.1984 36.1984 0 0 0 16.6912-4.096l160.8704-84.5824a38.144 38.144 0 0 1 55.3984 40.2432l-30.72 179.2a35.84 35.84 0 0 0 10.24 31.744L855.04 427.7248a38.1952 38.1952 0 0 1-21.1968 65.1264l-179.8656 26.112a35.84 35.84 0 0 0-26.9824 19.6096L546.6112 701.44a38.144 38.144 0 0 1-68.4544 0L397.7216 538.5728a35.84 35.84 0 0 0-26.9824-19.6096l-179.9168-26.112a38.1952 38.1952 0 0 1-21.1456-65.1264l130.1504-126.8736a35.84 35.84 0 0 0 10.24-31.744l-30.72-179.2a38.144 38.144 0 0 1 55.3472-40.2944l160.9216 84.6336a36.1984 36.1984 0 0 0 16.7936 3.9936z"  horiz-adv-x="1024" />
      
      <glyph glyph-name="shangpin" unicode="&#66069;" d="M788.1216 19.2H238.2848a143.36 143.36 0 0 0-141.8752 164.096L161.6384 629.76a144.128 144.128 0 0 0 141.824 122.88H727.04a143.872 143.872 0 0 0 142.08-123.904l61.0304-446.7712a143.36 143.36 0 0 0-142.0288-162.7648zM303.4624 680.96a72.0384 72.0384 0 0 1-70.912-61.44l-65.2288-446.6176a71.68 71.68 0 0 1 70.9632-81.92h549.8368a71.68 71.68 0 0 1 71.0144 81.408L798.1056 619.008A71.9872 71.9872 0 0 1 727.04 680.96zM513.1776 272.0256a180.9408 180.9408 0 0 0-180.736 180.736v7.168a35.84 35.84 0 0 0 71.68 0v-7.168a109.056 109.056 0 1 1 218.112 0v7.168a35.84 35.84 0 1 0 71.68 0v-7.168a180.8896 180.8896 0 0 0-180.736-180.736z"  horiz-adv-x="1024" />
      
      <glyph glyph-name="shouji2" unicode="&#66070;" d="M699.3408-40.1408H326.912a177.2544 177.2544 0 0 0-177.1008 177.0496V634.88a177.2544 177.2544 0 0 0 177.1008 177.152h372.4288A177.2544 177.2544 0 0 0 876.4416 634.88v-498.0736a177.2544 177.2544 0 0 0-177.1008-176.9472zM326.912 740.352A105.5232 105.5232 0 0 1 221.4912 634.88v-498.0736a105.5232 105.5232 0 0 1 105.4208-105.3696h372.4288a105.5232 105.5232 0 0 1 105.4208 105.3696V634.88a105.5232 105.5232 0 0 1-105.4208 105.472zM674.4064 229.12h-322.56A55.04 55.04 0 0 0 296.96 284.1088V615.7824A55.04 55.04 0 0 0 351.8464 670.72h322.56a55.04 55.04 0 0 0 54.9376-54.9888v-331.6736a55.04 55.04 0 0 0-54.9376-54.9376z m-305.7664 71.68h289.0752V599.04H368.64zM513.1264 130.304m-51.968 0a51.968 51.968 0 1 1 103.936 0 51.968 51.968 0 1 1-103.936 0Z"  horiz-adv-x="1024" />
      
      <glyph glyph-name="qianbao" unicode="&#66071;" d="M719.5648 786.9952H305.8176a196.352 196.352 0 0 1-196.1472-196.096v-413.7472a196.352 196.352 0 0 1 196.1472-196.1472h413.7472a196.352 196.352 0 0 1 196.1472 196.1472V590.8992a196.352 196.352 0 0 1-196.1472 196.096z m0-734.3104H305.8176a124.6208 124.6208 0 0 0-124.4672 124.4672V590.8992a124.5696 124.5696 0 0 0 124.4672 124.416h413.7472a124.5696 124.5696 0 0 0 124.4672-124.416v-32.3072h-192.6144a174.592 174.592 0 0 1 0-349.1328h192.6144v-32.3072a124.6208 124.6208 0 0 0-124.4672-124.4672z m124.4672 228.4544h-192.6144a102.912 102.912 0 0 0 0 205.7728h192.6144zM654.885352 384.015285m-5.04071-50.951263a51.2 51.2 0 1 1 10.08142 101.902527 51.2 51.2 0 1 1-10.08142-101.902527Z"  horiz-adv-x="1024" />
      
      <glyph glyph-name="quanxian" unicode="&#66072;" d="M515.6352-34.048a105.8304 105.8304 0 0 0-44.8512 10.24c-102.4 47.7696-340.2752 178.688-340.2752 362.3424V605.9008a106.0352 106.0352 0 0 0 90.3168 105.1648C281.9584 720.5888 373.76 742.4 463.6672 792.3712a106.496 106.496 0 0 0 103.5776 0.3072 736.8192 736.8192 0 0 1 242.7392-81.92 105.728 105.728 0 0 0 90.3168-105.1648v-267.0592c0-185.9072-237.9776-315.4944-340.3264-362.5984a105.7792 105.7792 0 0 0-44.3392-9.984z m0 768.3072a35.84 35.84 0 0 1-17.3056-4.5056C399.36 674.6112 298.752 650.6496 231.8336 640a34.7648 34.7648 0 0 1-29.6448-34.3552v-267.6224c0-146.4832 228.7616-264.6528 298.9056-297.4208a34.4064 34.4064 0 0 1 28.928 0c70.0416 32.2048 298.5984 148.9408 298.5984 297.472v267.264a34.4064 34.4064 0 0 1-29.3888 34.2528A809.4208 809.4208 0 0 0 532.48 729.9072a35.2768 35.2768 0 0 1-16.6912 4.352zM586.7008 286.3616h-35.84v44.6976a146.944 146.944 0 1 1-71.68 0.6144c0-27.0336 0-73.3696 0.4096-154.8288a35.84 35.84 0 0 1 35.84-35.84 35.84 35.84 0 0 1 35.84 35.84v37.5296h35.4304a35.84 35.84 0 0 1 0 71.68zM441.1904 473.856a75.3152 75.3152 0 1 0 75.264-75.264 75.4176 75.4176 0 0 0-75.264 75.264z"  horiz-adv-x="1024" />
      
      <glyph glyph-name="tianjia" unicode="&#66073;" d="M512 795.4432A411.4432 411.4432 0 1 1 923.4432 384 411.904 411.904 0 0 1 512 795.4432z m0-751.2064A339.7632 339.7632 0 1 0 851.7632 384 340.1728 340.1728 0 0 0 512 44.2368zM684.1344 424.96h-134.4V559.4112a35.84 35.84 0 0 1-71.68 0V424.96H343.6032a35.84 35.84 0 0 1 0-71.68h134.4512v-134.4512a35.84 35.84 0 0 1 71.68 0V353.28h134.4a35.84 35.84 0 0 1 0 71.68z"  horiz-adv-x="1024" />
      
      <glyph glyph-name="shuju2" unicode="&#66074;" d="M728.32-18.9952H314.5728a196.3008 196.3008 0 0 0-196.096 196.1472V590.8992a196.3008 196.3008 0 0 0 196.096 196.096h413.7472a196.3008 196.3008 0 0 0 196.1472-196.096v-413.7472a196.352 196.352 0 0 0-196.1472-196.1472zM314.5728 715.3152a124.5696 124.5696 0 0 1-124.416-124.416v-413.7472a124.5696 124.5696 0 0 1 124.416-124.4672h413.7472a124.5696 124.5696 0 0 1 124.4672 124.4672V590.8992a124.5696 124.5696 0 0 1-124.4672 124.416zM521.472 137.9328a35.84 35.84 0 0 0-35.84 35.84v332.288a35.84 35.84 0 0 0 71.68 0v-332.288a35.84 35.84 0 0 0-35.84-35.84zM350.8736 137.9328a35.84 35.84 0 0 0-35.84 35.84v141.8752a35.84 35.84 0 0 0 71.68 0v-141.8752a35.84 35.84 0 0 0-35.84-35.84zM692.0704 137.9328a35.84 35.84 0 0 0-35.84 35.84V390.0928a35.84 35.84 0 0 0 71.68 0v-216.32a35.84 35.84 0 0 0-35.84-35.84z"  horiz-adv-x="1024" />
      
      <glyph glyph-name="renzheng" unicode="&#66075;" d="M512-49.408a79.2576 79.2576 0 0 0-56.32 23.296l-80.8448 80.8448H260.4544a79.7696 79.7696 0 0 0-79.6672 79.6672v114.3808l-80.8448 80.8448a79.616 79.616 0 0 0 0 112.64l80.8448 80.8448V637.4912a79.7696 79.7696 0 0 0 79.6672 79.6672h114.3808L455.68 798.0032a79.616 79.616 0 0 0 112.64 0l80.8448-80.8448h114.3808a79.7696 79.7696 0 0 0 79.6672-79.6672v-114.3808l80.8448-80.8448a79.7184 79.7184 0 0 0 0-112.64l-80.8448-80.8448v-114.3808a79.7696 79.7696 0 0 0-79.6672-79.6672h-114.3808L568.32-26.112a79.2576 79.2576 0 0 0-56.32-23.296zM260.4544 645.4784a7.9872 7.9872 0 0 1-7.9872-7.9872v-129.2288a35.84 35.84 0 0 0-10.496-25.2928L150.6304 391.5776a7.936 7.936 0 0 1 0-11.264l91.3408-91.392a35.84 35.84 0 0 0 10.496-25.6v-129.1776a7.9872 7.9872 0 0 1 7.9872-7.9872H389.632a35.84 35.84 0 0 0 25.6-10.496l91.136-91.0848a7.936 7.936 0 0 1 11.264 0l91.3408 91.3408a35.84 35.84 0 0 0 25.6 10.496h129.2288a7.9872 7.9872 0 0 1 7.9872 7.9872v129.1776a35.84 35.84 0 0 0 10.496 25.6l91.3408 91.392a7.936 7.936 0 0 1 0 11.264l-91.5968 91.0848a35.84 35.84 0 0 0-10.496 25.6V637.4912a7.9872 7.9872 0 0 1-7.9872 7.9872h-129.2288a35.84 35.84 0 0 0-25.6 10.24L517.632 747.52a7.936 7.936 0 0 1-11.264 0L414.976 655.9744a35.84 35.84 0 0 0-25.6-10.24zM481.8432 229.5808a35.84 35.84 0 0 0-24.576 9.728l-104.3456 98.048a35.84 35.84 0 1 0 49.0496 52.224l76.288-71.68 134.5536 166.144a35.84 35.84 0 0 0 55.7056-45.1072l-158.72-196.096a35.84 35.84 0 0 0-25.6-13.2096z"  horiz-adv-x="1024" />
      
      <glyph glyph-name="qrcode" unicode="&#58895;" d="M213.333333 693.333333a10.666667 10.666667 0 0 1-10.666666-10.666666v-170.666667c0-5.888 4.778667-10.666667 10.666666-10.666667h170.666667A10.666667 10.666667 0 0 1 394.666667 512V682.666667A10.666667 10.666667 0 0 1 384 693.333333H213.333333zM138.666667 682.666667c0 41.216 33.450667 74.666667 74.666666 74.666666h170.666667c41.216 0 74.666667-33.450667 74.666667-74.666666v-170.666667A74.666667 74.666667 0 0 0 384 437.333333H213.333333A74.666667 74.666667 0 0 0 138.666667 512V682.666667zM298.666667 202.666667a32 32 0 0 0 32-32v-0.426667a32 32 0 0 0-64 0V170.666667a32 32 0 0 0 32 32zM640 693.333333a10.666667 10.666667 0 0 1-10.666667-10.666666v-170.666667c0-5.888 4.778667-10.666667 10.666667-10.666667h170.666667a10.666667 10.666667 0 0 1 10.666666 10.666667V682.666667a10.666667 10.666667 0 0 1-10.666666 10.666666h-170.666667zM565.333333 682.666667c0 41.216 33.450667 74.666667 74.666667 74.666666h170.666667c41.216 0 74.666667-33.450667 74.666666-74.666666v-170.666667A74.666667 74.666667 0 0 0 810.666667 437.333333h-170.666667A74.666667 74.666667 0 0 0 565.333333 512V682.666667zM298.666667 629.333333a32 32 0 0 0 32-32v-0.426666a32 32 0 0 0-64 0V597.333333A32 32 0 0 0 298.666667 629.333333zM213.333333 266.666667a10.666667 10.666667 0 0 1-10.666666-10.666667v-170.666667c0-5.888 4.778667-10.666667 10.666666-10.666666h170.666667a10.666667 10.666667 0 0 1 10.666667 10.666666v170.666667a10.666667 10.666667 0 0 1-10.666667 10.666667H213.333333zM138.666667 256c0 41.216 33.450667 74.666667 74.666666 74.666667h170.666667c41.216 0 74.666667-33.450667 74.666667-74.666667v-170.666667A74.666667 74.666667 0 0 0 384 10.666667H213.333333A74.666667 74.666667 0 0 0 138.666667 85.333333v170.666667zM725.333333 629.333333a32 32 0 0 0 32-32v-0.426666a32 32 0 0 0-64 0V597.333333a32 32 0 0 0 32 32zM565.333333 298.666667a32 32 0 0 0 32 32h128a32 32 0 0 0 0-64h-96V170.666667a32 32 0 0 0-64 0v128z m288 32a32 32 0 0 0 32-32v-0.426667a32 32 0 0 0-64 0V298.666667a32 32 0 0 0 32 32zM693.333333 170.666667a32 32 0 0 0 32 32h128a32 32 0 0 0 32-32v-128a32 32 0 0 0-64 0v96H725.333333a32 32 0 0 0-32 32z m-128-128a32 32 0 0 0 32 32h128a32 32 0 0 0 0-64h-128a32 32 0 0 0-32 32z"  horiz-adv-x="1024" />
      
      <glyph glyph-name="duigou-line" unicode="&#59111;" d="M149.95456 424.22272a30.72 30.72 0 0 0 41.2672 2.00704l2.19136-2.00704 224.4608-224.4608 412.71296 412.73344a30.72 30.72 0 0 0 41.2672 1.98656l2.19136-1.98656a30.72 30.72 0 0 0 1.98656-41.24672l-1.98656-2.19136-434.46272-434.46272a30.72 30.72 0 0 0-41.24672-1.98656l-2.19136 1.98656-246.1696 246.19008a30.72 30.72 0 0 0 0 43.43808z"  horiz-adv-x="1024" />
      
      <glyph glyph-name="close-line" unicode="&#59038;" d="M507.168 422.768L716.48 632.0640000000001a16 16 0 0 0 22.624 0l11.312-11.312a16 16 0 0 0 0-22.624L541.12 388.832 750.4 179.51999999999998a16 16 0 0 0 0-22.624l-11.312-11.312a16 16 0 0 0-22.624 0L507.168 354.88 297.872 145.60000000000002a16 16 0 0 0-22.624 0l-11.312 11.312a16 16 0 0 0 0 22.624l209.296 209.312-209.296 209.296a16 16 0 0 0 0 22.624l11.312 11.312a16 16 0 0 0 22.624 0l209.296-209.296z"  horiz-adv-x="1024" />
      
      <glyph glyph-name="user" unicode="&#58894;" d="M512 384a213.312 213.312 0 1 1 0 426.688A213.312 213.312 0 0 1 512 384z m0-106.688c-213.76 0-387.84-143.36-387.84-320a21.12 21.12 0 0 1 21.312-21.312h732.992a21.12 21.12 0 0 1 21.312 21.312c0 176.64-174.08 320-387.84 320z"  horiz-adv-x="1024" />
      
      <glyph glyph-name="search" unicode="&#58940;" d="M192 448c0 141.152 114.848 256 256 256s256-114.848 256-256-114.848-256-256-256-256 114.848-256 256z m710.624-409.376l-206.88 206.88A318.784 318.784 0 0 1 768 448c0 176.736-143.264 320-320 320S128 624.736 128 448s143.264-320 320-320a318.784 318.784 0 0 1 202.496 72.256l206.88-206.88 45.248 45.248z"  horiz-adv-x="1024" />
      
      <glyph glyph-name="link" unicode="&#58942;" d="M832 768h-192v-64h146.752l-265.376-265.376 45.248-45.248L832 658.752V512h64V768zM768 64H192V640h352V704H160a32 32 0 0 1-32-32v-640a32 32 0 0 1 32-32h640a32 32 0 0 1 32 32V416h-64v-352z"  horiz-adv-x="1024" />
      
      <glyph glyph-name="setting" unicode="&#58943;" d="M512 256c-70.592 0-128 57.408-128 128s57.408 128 128 128 128-57.408 128-128-57.408-128-128-128m0 320a192 192 0 0 1 0-384 192 192 0 0 1 0 384M693.216 160.44799999999998a291.744 291.744 0 0 0-40.512-27.52c-1.216-0.64-2.368-1.472-3.616-2.144a286.08 286.08 0 0 0-34.048-15.392l-19.552-72.992-9.28-34.592c-0.576-0.128-1.152-0.32-1.76-0.384l-8.736-1.632c-3.52-0.64-7.104-1.088-10.656-1.6a357.152 357.152 0 0 0-53.056-3.744c-5.216 0-10.464 0.128-15.68 0.32l-8.64 0.48a355.936 355.936 0 0 0-28.736 2.944c-3.52 0.512-7.072 0.96-10.624 1.6a418.496 418.496 0 0 0-8.736 1.6l-1.76 0.416-9.28 34.56-19.584 73.024a286.784 286.784 0 0 0-47.84 23.776 287.488 287.488 0 0 0-30.304 21.28l-72.96-19.552-34.56-9.28-1.184 1.376a237.504 237.504 0 0 0-5.792 6.72c-2.304 2.784-4.512 5.664-6.752 8.512a315.84 315.84 0 0 0-16.928 23.424c-1.6 2.336-3.104 4.768-4.64 7.168a337.92 337.92 0 0 0-15.68 27.168 435.84 435.84 0 0 0-3.936 7.68c-1.536 3.104-3.072 6.208-4.512 9.344a362.912 362.912 0 0 0-7.296 17.024c-1.344 3.328-2.688 6.656-3.968 9.984l-2.976 8.448-0.512 1.696 25.184 25.184 53.568 53.632a292.8 292.8 0 0 0-3.68 41.28c0 1.28-0.192 2.496-0.192 3.744 0 1.28 0.192 2.464 0.192 3.744a292.8 292.8 0 0 0 3.68 41.28l-53.568 53.632-25.184 25.184a438.656 438.656 0 0 0 3.488 10.144c1.28 3.36 2.624 6.688 3.968 10.048a375.68 375.68 0 0 0 52.992 91.776c2.24 2.848 4.448 5.696 6.72 8.48 1.92 2.24 3.84 4.48 5.824 6.72l1.184 1.376 34.56-9.28 72.96-19.52c9.568 7.776 19.744 14.72 30.304 21.28l4.064 2.464a283.68 283.68 0 0 0 43.776 21.28l19.584 73.024 9.28 34.56 1.76 0.416c2.88 0.544 5.76 1.12 8.704 1.6 3.52 0.608 7.168 1.12 10.752 1.6 6.08 0.864 12.16 1.6 18.336 2.208a362.752 362.752 0 0 0 19.008 1.184c5.184 0.224 10.4 0.384 15.616 0.384 5.216 0 10.464-0.16 15.648-0.384a362.752 362.752 0 0 0 19.008-1.184c6.08-0.576 12.224-1.344 18.304-2.24 3.616-0.448 7.2-0.96 10.784-1.536l8.704-1.632 1.76-0.384 9.28-34.592 19.52-72.992c11.712-4.512 23.168-9.472 34.08-15.392 1.248-0.672 2.4-1.504 3.616-2.176 14.304-8.064 27.84-17.216 40.512-27.52l72.96 19.584 34.528 9.248 1.216-1.344c1.92-2.24 3.904-4.48 5.76-6.752 2.304-2.752 4.48-5.632 6.72-8.448 3.84-4.864 7.552-9.792 11.136-14.848 1.984-2.816 3.904-5.696 5.824-8.544l4.672-7.232a357.472 357.472 0 0 0 19.616-34.88 397.184 397.184 0 0 0 11.776-26.336c1.344-3.328 2.72-6.656 4-10.048 1.024-2.784 1.984-5.568 2.944-8.384 0.192-0.576 0.32-1.152 0.544-1.728l-25.184-25.184-53.6-53.6c1.92-12.064 3.104-24.352 3.488-36.896 0.064-2.72 0.384-5.44 0.384-8.16 0-2.752-0.32-5.44-0.384-8.16a291.136 291.136 0 0 0-3.52-36.864l53.632-53.632 25.184-25.184-0.544-1.696c-0.96-2.816-1.92-5.6-2.944-8.384-1.28-3.392-2.624-6.72-4-10.08a376.32 376.32 0 0 0-11.776-26.336 435.84 435.84 0 0 0-11.456-21.44c-2.624-4.544-5.376-8.992-8.16-13.44-1.536-2.368-3.072-4.8-4.64-7.136a315.84 315.84 0 0 0-16.96-23.456c-2.24-2.88-4.48-5.696-6.72-8.448-1.92-2.304-3.84-4.512-5.792-6.752-0.384-0.48-0.8-0.896-1.216-1.344l-34.56 9.248-72.96 19.52z m-305.12-139.328c-2.624 0.896-5.28 1.728-7.872 2.688l-3.328 1.216-3.328 1.28c4.896-1.92 9.856-3.584 14.816-5.248l-0.32 0.064z m-119.424 66.368l-2.656 2.24c-2.144 1.824-4.224 3.712-6.336 5.568l-0.224 0.192c3.968-3.52 7.936-6.976 12.064-10.272l-2.88 2.24z m623.776 245.664l-0.192 0.16-0.096 0.128h-0.032l-29.184 29.216c0.416 7.104 1.056 14.144 1.056 21.344 0 7.232-0.64 14.272-1.056 21.376l29.184 29.184 0.128 0.128 0.192 0.192 54.72 54.72a444.032 444.032 0 0 1-18.4 57.376 449.664 449.664 0 0 1-28.8 61.024c-11.424 19.84-24.576 38.08-38.432 55.456a449.024 449.024 0 0 1-40.48 44.64l-74.752-20.032-0.064-0.032-0.224-0.064-0.16-0.032h-0.032l-39.424-10.56a348.448 348.448 0 0 1-37.472 21.376l-10.624 39.68-0.032 0.064-0.032 0.16-0.064 0.224v0.064l-20.032 74.752a447.68 447.68 0 0 1-58.88 12.736A448.128 448.128 0 0 1 512 832c-22.912 0-45.248-2.24-67.232-5.568-20.096-3.04-39.776-7.136-58.88-12.736l-20.032-74.752-0.032-0.064-0.064-0.224-0.032-0.16v-0.064l-10.656-39.68c-12.928-6.464-25.504-13.472-37.472-21.44l-39.392 10.56-0.064 0.064h-0.16l-0.224 0.096h-0.064l-74.72 20.064c-14.432-13.76-27.84-28.8-40.48-44.64A446.816 446.816 0 0 1 124.032 608c-11.456-19.84-20.672-40.32-28.8-61.024A450.496 450.496 0 0 1 76.8 489.6l54.72-54.72v-0.064l0.224-0.16 0.096-0.128v-0.032l29.216-29.184C160.64 398.24 160 391.2 160 384c0-7.2 0.64-14.208 1.088-21.312l-29.184-29.184-0.032-0.032-0.096-0.128-0.192-0.192-0.032-0.032L76.8 278.4c4.704-19.328 11.008-38.464 18.4-57.344 8.128-20.704 17.344-41.216 28.8-61.056 11.456-19.84 24.576-38.08 38.464-55.424 12.672-15.872 26.048-30.88 40.48-44.64l74.72 20.032h0.064l0.224 0.064 0.16 0.064h0.064l39.36 10.56c12-7.936 24.576-14.912 37.504-21.376l10.656-39.712v-0.224l0.096-0.224v-0.032l20.064-74.752c19.104-5.6 38.784-9.728 58.88-12.736a447.68 447.68 0 0 1 67.2-5.6c22.976 0 45.28 2.24 67.296 5.6a442.56 442.56 0 0 1 58.88 12.736l20.032 74.752 0.064 0.256 0.064 0.192 10.624 39.68c12.928 6.496 25.504 13.504 37.44 21.44l39.456-10.56v-0.032l0.192-0.032 0.224-0.064h0.064l74.752-20.032c14.4 13.76 27.808 28.768 40.48 44.64A449.92 449.92 0 0 1 900 160c11.456 19.84 20.64 40.32 28.768 61.056 7.424 18.88 13.728 37.984 18.432 57.344l-54.72 54.72h-0.032z"  horiz-adv-x="1024" />
      
      <glyph glyph-name="filter" unicode="&#58952;" d="M640 608a64 64 0 1 0 0.032 128.032A64 64 0 0 0 640 608z m123.456 96c-14.304 55.04-64 96-123.456 96s-109.152-40.96-123.456-96H128v-64h388.544c14.304-55.04 64-96 123.456-96s109.152 40.96 123.456 96H896V704h-132.544zM640 32a64 64 0 1 0 0.032 128.032A64 64 0 0 0 640 32m0 192c-59.456 0-109.152-40.96-123.456-96H128v-64h388.544c14.304-55.04 64-96 123.456-96s109.152 40.96 123.456 96H896v64h-132.544c-14.304 55.04-64 96-123.456 96M384 320a64 64 0 1 0 0.032 128.032A64 64 0 0 0 384 320m0 192c-59.456 0-109.152-40.96-123.456-96H128v-64h132.544c14.304-55.04 64-96 123.456-96s109.152 40.96 123.456 96H896v64H507.456c-14.304 55.04-64 96-123.456 96"  horiz-adv-x="1024" />
      
      <glyph glyph-name="list" unicode="&#58959;" d="M128 640h64V704H128zM320 640h576V704H320zM128 352h64v64H128zM320 352h576v64H320zM128 64h64v64H128zM320 64h576v64H320z"  horiz-adv-x="1024" />
      
      <glyph glyph-name="refresh" unicode="&#58960;" d="M816.512 527.808l-55.36-32A285.632 285.632 0 0 0 800 352c0-158.816-129.184-288-288-288-106.368 0-199.264 58.144-249.12 144.16A285.856 285.856 0 0 0 224 352c0 158.816 129.216 288 288 288v-96l192 128-192 128v-96C317.92 704 160 546.1120000000001 160 352c0-64.064 17.504-124 47.52-175.808C268.48 71.03999999999996 381.984 0 512 0c194.112 0 352 157.92 352 352 0 64.064-17.472 124-47.488 175.808"  horiz-adv-x="1024" />
      
      <glyph glyph-name="close-solid" unicode="&#58961;" d="M710.624 230.62400000000002l-45.248-45.248L512 338.75199999999995l-153.376-153.376-45.248 45.248L466.752 384l-153.376 153.376 45.248 45.248L512 429.248l153.376 153.376 45.248-45.248L557.248 384l153.376-153.376zM512 832C264.576 832 64 631.424 64 384s200.576-448 448-448 448 200.576 448 448S759.424 832 512 832z"  horiz-adv-x="1024" />
      
      <glyph glyph-name="right" unicode="&#58962;" d="M512 0C299.936 0 128 171.93600000000004 128 384S299.936 768 512 768s384-171.936 384-384-171.936-384-384-384m0 832C264.96 832 64 631.04 64 384s200.96-448 448-448 448 200.96 448 448S759.04 832 512 832M432 277.24800000000005l-121.376 121.376-45.248-45.248 166.624-166.624 326.624 326.624-45.248 45.248z"  horiz-adv-x="1024" />
      
      <glyph glyph-name="close" unicode="&#58963;" d="M512 0C299.936 0 128 171.93600000000004 128 384S299.936 768 512 768s384-171.936 384-384-171.936-384-384-384m0 832C264.96 832 64 631.04 64 384s200.96-448 448-448 448 200.96 448 448S759.04 832 512 832M665.376 582.624L512 429.248l-153.376 153.376-45.248-45.248L466.752 384l-153.376-153.376 45.248-45.248L512 338.75199999999995l153.376-153.376 45.248 45.248L557.248 384l153.376 153.376z"  horiz-adv-x="1024" />
      
      <glyph glyph-name="right-solid" unicode="&#58964;" d="M432 186.75199999999995l-166.624 166.624 45.248 45.248 121.376-121.376 281.376 281.376 45.248-45.248L432 186.75199999999995zM512 832C264.576 832 64 631.424 64 384s200.576-448 448-448 448 200.576 448 448S759.424 832 512 832z"  horiz-adv-x="1024" />
      
      <glyph glyph-name="forbidden" unicode="&#58965;" d="M805.056 136.192L264.192 677.088A382.24 382.24 0 0 0 512 767.968c212.064 0 384-171.872 384-384 0-94.464-34.24-180.896-90.944-247.776M128 384a382.08 382.08 0 0 0 90.944 247.84l540.864-540.896A381.984 381.984 0 0 0 512 0C299.936 0 128 171.93600000000004 128 384M512 832C264.96 832 64 631.04 64 384s200.96-448 448-448 448 200.96 448 448S759.04 832 512 832"  horiz-adv-x="1024" />
      
      <glyph glyph-name="info-solid" unicode="&#58966;" d="M512 832C265.6 832 64 630.4 64 384s201.6-448 448-448 448 201.6 448 448S758.4 832 512 832z m32-704h-64v288h64v-288z m-32 400c-25.6 0-48 22.4-48 48s22.4 48 48 48 48-22.4 48-48-22.4-48-48-48z"  horiz-adv-x="1024" />
      
      <glyph glyph-name="info" unicode="&#58967;" d="M512 0C299.936 0 128 171.93600000000004 128 384S299.936 768 512 768s384-171.936 384-384-171.936-384-384-384m0 832C264.96 832 64 631.04 64 384s200.96-448 448-448 448 200.96 448 448S759.04 832 512 832M480 128h64v288h-64zM512 624a48 48 0 1 1 0-96 48 48 0 0 1 0 96"  horiz-adv-x="1024" />
      
      <glyph glyph-name="help-solid" unicode="&#58968;" d="M544 323.264V256h-64v128h32c52.928 0 96 43.072 96 96 0 52.96-43.072 96-96 96l-0.288-0.032a96.064 96.064 0 0 1-95.712-96h-64a160.128 160.128 0 0 0 159.712 160H512c88.224 0 160-71.744 160-160a160.224 160.224 0 0 0-128-156.704M511.712 96a48 48 0 1 0 0 96 48 48 0 0 0 0-96M512 832C264.576 832 64 631.456 64 384c0-247.424 200.576-448 448-448s448 200.576 448 448c0 247.456-200.576 448-448 448"  horiz-adv-x="1024" />
      
      <glyph glyph-name="help" unicode="&#58969;" d="M512 0C299.936 0 128 171.93600000000004 128 384S299.936 768 512 768s384-171.936 384-384-171.936-384-384-384m0 832C264.96 832 64 631.04 64 384s200.96-448 448-448 448 200.96 448 448S759.04 832 512 832M511.68 192a48 48 0 1 1 0-96 48 48 0 0 1 0 96M512 640l-0.288-0.032A160.16 160.16 0 0 1 352 480h64a96.096 96.096 0 0 0 95.712 95.968L512 576c52.928 0 96-43.072 96-96s-43.072-96-96-96l-0.288 0.032V384H480v-128h64v67.264A160.224 160.224 0 0 1 672 480c0 88.224-71.776 160-160 160"  horiz-adv-x="1024" />
      
      <glyph glyph-name="caution" unicode="&#58970;" d="M480 256h64v256h-64zM512 96a48 48 0 1 1 0 96 48 48 0 0 1 0-96M512 700.8L874.272 32H149.728L512 700.8z m443.744-685.76l0.384 0.192-416 768-0.384-0.224A31.584 31.584 0 0 1 512 800a31.584 31.584 0 0 1-27.744-16.96l-0.384 0.192-416-768 0.384-0.224A31.2 31.2 0 0 1 64 0a32 32 0 0 1 32-32h832a32 32 0 0 1 32 32 31.2 31.2 0 0 1-4.256 15.04z"  horiz-adv-x="1024" />
      
      <glyph glyph-name="caution-solid" unicode="&#58971;" d="M956.8 16l-416 768c-6.4 9.6-16 16-28.8 16s-22.4-6.4-28.8-16l-416-768c0-6.4-3.2-9.6-3.2-16 0-19.2 12.8-32 32-32h832c19.2 0 32 12.8 32 32 0 6.4-3.2 9.6-3.2 16zM480 512h64v-256h-64v256z m32-416c-25.6 0-48 22.4-48 48S486.4 192 512 192s48-22.4 48-48S537.6 96 512 96z"  horiz-adv-x="1024" />
      
      <glyph glyph-name="star" unicode="&#58972;" d="M212.16 446.432l161.696-138.048-47.072-216.448 186.08 110.336 186.144-110.272-47.2 216.384 161.568 138.08-205.824 23.68-94.72 197.792-94.72-197.824-205.92-23.68zM512 800.032c3.808 0 7.584-2.24 9.024-6.592l129.6-270.784 288.8-33.184c9.184 0 12.992-11.744 5.568-17.152L720 280l65.184-299.52a9.504 9.504 0 0 0-14.592-10.656L512 123.10400000000004l-258.592-153.28a9.536 9.536 0 0 0-14.592 10.624L304 280l-224.992 192.32a9.472 9.472 0 0 0 5.6 17.152l288.736 33.184 129.6 270.784A9.344 9.344 0 0 0 512 800z"  horiz-adv-x="1024" />
      
      <glyph glyph-name="star-solid" unicode="&#58973;" d="M512 800c3.808 0 7.584-2.176 8.992-6.56l129.664-270.784 288.736-33.184c9.216 0 13.024-11.744 5.6-17.152L720 280l65.184-299.52a9.536 9.536 0 0 0-9.056-12.48 9.344 9.344 0 0 0-5.536 1.856L512 123.072l-258.592-153.216a9.344 9.344 0 0 0-5.536-1.856 9.536 9.536 0 0 0-9.056 12.48L304 280l-224.992 192.32a9.472 9.472 0 0 0 5.6 17.152l288.736 33.184 129.632 270.784A9.312 9.312 0 0 0 512 800"  horiz-adv-x="1024" />
      
      <glyph glyph-name="arrow_up" unicode="&#58974;" d="M745.376 233.37599999999998L512 466.752l-233.376-233.376-45.248 45.248L512 557.248l278.624-278.624z"  horiz-adv-x="1024" />
      
      <glyph glyph-name="arrow_left" unicode="&#58975;" d="M589.088 105.37599999999998L310.464 384l278.624 278.624 45.248-45.248L400.96 384l233.376-233.376z"  horiz-adv-x="1024" />
      
      <glyph glyph-name="arrow_down" unicode="&#58976;" d="M512 210.75199999999995l-278.624 278.624 45.248 45.248L512 301.24800000000005l233.376 233.376 45.248-45.248z"  horiz-adv-x="1024" />
      
      <glyph glyph-name="arrow_right" unicode="&#58977;" d="M434.944 105.37599999999998l-45.248 45.248L623.04 384l-233.376 233.376 45.248 45.248L713.568 384z"  horiz-adv-x="1024" />
      
      <glyph glyph-name="page_left" unicode="&#58978;" d="M768 617.376l-45.248 45.248L444.128 384l278.624-278.624L768 150.62400000000002 534.624 384zM288 64h64V704H288z"  horiz-adv-x="1024" />
      
      <glyph glyph-name="page_bottom" unicode="&#58979;" d="M790.624 594.752L745.376 640 512 406.624 278.624 640 233.376 594.752 512 316.12800000000004zM192 160h640v64H192z"  horiz-adv-x="1024" />
      
      <glyph glyph-name="page_top" unicode="&#58980;" d="M233.376 173.24800000000005L278.624 128 512 361.376 745.376 128l45.248 45.248L512 451.872zM192 544h640V608H192z"  horiz-adv-x="1024" />
      
      <glyph glyph-name="page_right" unicode="&#58981;" d="M256 617.376L489.376 384 256 150.62400000000002l45.248-45.248L579.872 384 301.248 662.624zM672 64h64V704h-64z"  horiz-adv-x="1024" />
      
      <glyph glyph-name="arrow_left_solid" unicode="&#58982;" d="M640 128l-256 256 256 256z"  horiz-adv-x="1024" />
      
      <glyph glyph-name="arrow_right_solid" unicode="&#58983;" d="M384 640l256-256-256-256z"  horiz-adv-x="1024" />
      
      <glyph glyph-name="arrow_top_solid" unicode="&#58984;" d="M256.32 256l256 256 256-256z"  horiz-adv-x="1024" />
      
      <glyph glyph-name="arrow_bottom_solid" unicode="&#58985;" d="M768 512l-256-256-256 256z"  horiz-adv-x="1024" />
      
      <glyph glyph-name="arrow-right" unicode="&#58986;" d="M553.6 105.60000000000002l-44.8 44.8 233.6 233.6-233.6 233.6 44.8 44.8L832 384zM192 416h576v-64H192z"  horiz-adv-x="1024" />
      
      <glyph glyph-name="bangzhu" unicode="&#59567;" d="M878.08 164.725333a32 32 0 0 0-54.88 32.938667A360.789333 360.789333 0 0 1 874.666667 384c0 200.298667-162.368 362.666667-362.666667 362.666667S149.333333 584.298667 149.333333 384s162.368-362.666667 362.666667-362.666667a360.789333 360.789333 0 0 1 186.314667 51.445334 32 32 0 0 0 32.928-54.88A424.778667 424.778667 0 0 0 512-42.666667C276.362667-42.666667 85.333333 148.362667 85.333333 384S276.362667 810.666667 512 810.666667s426.666667-191.029333 426.666667-426.666667c0-78.293333-21.152-153.568-60.586667-219.274667zM650.666667 458.666667c0-65.898667-46.72-120.853333-109.194667-135.082667V288a32 32 0 0 0-64 0v64a32 32 0 0 0 32 32C552.266667 384 586.666667 417.6 586.666667 458.666667s-34.4 74.666667-77.194667 74.666666c-26.773333 0-51.082667-13.248-65.173333-34.624a73.088 73.088 0 0 1-8.522667-17.717333 32 32 0 0 0-60.885333 19.690667c3.797333 11.754667 9.173333 22.933333 15.978666 33.237333 25.856 39.253333 70.186667 63.413333 118.613334 63.413333C587.274667 597.333333 650.666667 535.424 650.666667 458.666667zM512 160a32 32 0 1 0 0 64 32 32 0 0 0 0-64z"  horiz-adv-x="1024" />
      
      <glyph glyph-name="buganxingqu" unicode="&#59568;" d="M413.749333 330.954667a32 32 0 1 1 47.168-43.242667l105.088 114.634667a53.333333 53.333333 0 0 1 2.88 68.672 920.672 920.672 0 0 0-61.44 89.44c-17.077333 28.458667 0.821333 73.226667 37.845334 110.250666 10.901333 10.88 17.045333 16.565333 25.813333 23.210667C597.472 713.952 628.074667 725.333333 667.776 725.333333 793.813333 725.333333 874.666667 623.189333 874.666667 475.786667c0-112.405333-113.525333-251.904-344.298667-413.653334a32 32 0 0 0-36.736 0C262.858667 223.893333 149.333333 363.392 149.333333 475.797333 149.333333 623.189333 230.186667 725.333333 356.213333 725.333333c13.781333 0 26.592-2.026667 38.933334-5.930666a32 32 0 0 1 19.36 60.992A191.093333 191.093333 0 0 1 356.213333 789.333333C191.136 789.333333 85.333333 655.68 85.333333 475.786667 85.333333 336.213333 210.432 182.464 456.906667 9.728a96 96 0 0 1 110.186666 0C813.568 182.464 938.666667 336.213333 938.666667 475.786667 938.666667 655.68 832.864 789.333333 667.786667 789.333333c-54.442667 0-98.378667-16.341333-135.392-44.437333-11.669333-8.864-19.541333-16.128-32.352-28.938667-55.424-55.413333-84.16-127.274667-47.477334-188.416a975.872 975.872 0 0 1 60.213334-88.544L413.76 330.954667z"  horiz-adv-x="1024" />
      
      <glyph glyph-name="bofangjilu" unicode="&#59569;" d="M822.496 422.848l52.053333-29.290667C869.461333 589.44 709.098667 746.666667 512 746.666667c-200.298667 0-362.666667-162.368-362.666667-362.666667s162.368-362.666667 362.666667-362.666667c122.538667 0 234.645333 61.194667 301.578667 161.152a32 32 0 1 0 53.173333-35.616C788.064 29.365333 656.117333-42.666667 512-42.666667 276.362667-42.666667 85.333333 148.362667 85.333333 384S276.362667 810.666667 512 810.666667s426.666667-191.029333 426.666667-426.666667c0-10.954667-0.853333-26.357333-2.517334-46.528-1.930667-23.242667-27.274667-36.682667-47.594666-25.248l-97.450667 54.848a32 32 0 1 0 31.392 55.786667z m-493.12-176.213333L480 397.237333V576a32 32 0 0 0 64 0v-192a32 32 0 0 0-9.376-22.624l-160-160a32 32 0 1 0-45.248 45.248z"  horiz-adv-x="1024" />
      
      <glyph glyph-name="chuangzuo" unicode="&#59570;" d="M896 32a32 32 0 0 0 0-64H128a32 32 0 0 0 0 64z m-60.16 733.621333l15.093333-15.093333c45.866667-45.834667 45.866667-120.16 0-166.005333L418.794667 152.661333a160.192 160.192 0 0 0-78.122667-42.986666l-152.245333-34.197334c-23.84-5.365333-44.661333 16.853333-37.749334 40.288l43.338667 146.88a160.042667 160.042667 0 0 0 40.373333 67.925334l435.328 435.050666c45.866667 45.834667 120.245333 45.834667 166.112 0zM636.32 641.696L279.68 285.290667a96.021333 96.021333 0 0 1-24.213333-40.746667l-27.946667-94.656 99.093333 22.261333a96.117333 96.117333 0 0 1 46.869334 25.781334L726.933333 551.157333l-90.602666 90.538667z m78.698667 78.656l-33.397334-33.386667 90.602667-90.538666 33.386667 33.376a53.333333 53.333333 0 0 1 0 75.456l-15.093334 15.093333a53.408 53.408 0 0 1-75.498666 0z"  horiz-adv-x="1024" />
      
      <glyph glyph-name="chenggong" unicode="&#59571;" d="M878.08 164.725333a32 32 0 0 0-54.88 32.938667A360.789333 360.789333 0 0 1 874.666667 384c0 200.298667-162.368 362.666667-362.666667 362.666667S149.333333 584.298667 149.333333 384s162.368-362.666667 362.666667-362.666667a360.789333 360.789333 0 0 1 186.314667 51.445334 32 32 0 0 0 32.928-54.88A424.778667 424.778667 0 0 0 512-42.666667C276.362667-42.666667 85.333333 148.362667 85.333333 384S276.362667 810.666667 512 810.666667s426.666667-191.029333 426.666667-426.666667c0-78.293333-21.152-153.568-60.586667-219.274667zM374.581333 406.549333l84.341334-83.989333 190.432 190.72a32 32 0 0 0 45.290666-45.226667l-213.013333-213.333333a32 32 0 0 0-45.226667-0.064l-106.986666 106.549333a32 32 0 1 0 45.162666 45.344z"  horiz-adv-x="1024" />
      
      <glyph glyph-name="dianhua" unicode="&#59572;" d="M446.272 322.56a509.653333 509.653333 0 0 0-81.92 100.650667c67.786667 30.474667 112.138667 93.461333 112.138667 169.792C476.48 701.408 388.96 789.333333 280.906667 789.333333 170.058667 789.333333 85.333333 707.253333 85.333333 593.002667c0-158.250667 82.56-328.554667 200.618667-439.658667 100.010667-94.122667 258.986667-161.738667 413.461333-174.570667 0.832-0.074667 1.674667-0.106667 2.517334-0.106666h41.162666a30.517333 30.517333 0 0 1 0 61.045333h-39.872c-140.672 11.978667-286.026667 73.930667-375.456 158.090667-106.410667 100.16-181.408 254.837333-181.408 395.2 0 80.106667 56.981333 135.285333 134.549334 135.285333 74.282667 0 134.549333-60.533333 134.549333-135.285333 0-60.309333-40.896-107.989333-103.008-123.349334a30.517333 30.517333 0 0 1-19.786667-43.658666c27.573333-53.312 66.037333-104.426667 111.573334-147.690667 51.264-48.693333 109.941333-86.112 172.053333-108.16a30.506667 30.506667 0 0 1 40.362667 24.064c10.453333 67.093333 61.621333 114.026667 126.442666 114.026667 74.272 0 134.549333-60.544 134.549334-135.285334 0-25.578667-7.04-50.026667-20.149334-71.253333a30.528 30.528 0 0 1 51.925334-32.074667A196.096 196.096 0 0 1 938.666667 172.949333c0 108.394667-87.530667 196.330667-195.573334 196.330667-83.072 0-151.210667-52.384-177.621333-128.864-42.368 19.552-82.773333 47.541333-119.2 82.144z"  horiz-adv-x="1024" />
      
      <glyph glyph-name="dianzan" unicode="&#59573;" d="M621.674667 487.978667c16.618667 74.24 28.224 127.936 34.837333 161.194666C673.152 732.906667 629.941333 810.666667 544.298667 810.666667c-77.226667 0-116.010667-38.378667-138.88-115.093334l-0.586667-2.24c-13.728-62.058667-34.72-110.165333-62.506667-144.586666a158.261333 158.261333 0 0 0-119.733333-58.965334l-21.909333-0.469333C148.437333 488.192 106.666667 445.184 106.666667 392.501333V74.666667c0-64.8 52.106667-117.333333 116.394666-117.333334h412.522667c84.736 0 160.373333 53.568 189.12 133.92l85.696 239.584c21.802667 60.96-9.536 128.202667-70.005333 150.186667a115.552 115.552 0 0 1-39.488 6.954667H621.674667zM544.256 746.666667c39.253333 0 59.498667-36.48 49.888-84.928-7.573333-38.144-21.984-104.426667-43.221333-198.666667-4.512-20.021333 10.56-39.093333 30.912-39.093333h218.666666c6.101333 0 12.16-1.066667 17.909334-3.168 27.445333-9.984 41.674667-40.554667 31.776-68.266667l-85.568-239.573333C744.981333 57.973333 693.301333 21.333333 635.402667 21.333333H223.498667C194.314667 21.333333 170.666667 45.216 170.666667 74.666667V392.501333c0 17.866667 14.144 32.448 31.829333 32.821334l21.866667 0.469333a221.12 221.12 0 0 1 167.381333 82.56c34.346667 42.602667 59.146667 99.306667 74.869333 169.877333C482.101333 729.664 499.552 746.666667 544.266667 746.666667z"  horiz-adv-x="1024" />
      
      <glyph glyph-name="dingwei" unicode="&#59574;" d="M648.256 45.728a32 32 0 1 0-40.704 49.386667C758.304 219.306667 832 329.962667 832 424.928 832 602.656 688.693333 746.666667 512 746.666667c-176.693333 0-320-144.010667-320-321.738667 0-115.232 108.416-253.045333 329.173333-409.493333a32 32 0 0 0-37.013333-52.213334C248.021333 130.570667 128 283.146667 128 424.928 128 637.930667 299.882667 810.666667 512 810.666667s384-172.736 384-385.738667c0-118.378667-83.701333-244.053333-247.744-379.2zM512 277.333333c-82.474667 0-149.333333 66.858667-149.333333 149.333334s66.858667 149.333333 149.333333 149.333333 149.333333-66.858667 149.333333-149.333333-66.858667-149.333333-149.333333-149.333334z m0 64a85.333333 85.333333 0 1 1 0 170.666667 85.333333 85.333333 0 0 1 0-170.666667z"  horiz-adv-x="1024" />
      
      <glyph glyph-name="diantong_guan" unicode="&#59575;" d="M352 262.613333l-123.264 105.653334A74.666667 74.666667 0 0 0 202.666667 424.96V576a74.666667 74.666667 0 0 0 74.666666 74.666667h469.333334a74.666667 74.666667 0 0 0 74.666666-74.666667v-151.04a74.666667 74.666667 0 0 0-26.069333-56.693333L672 262.613333V0a74.666667 74.666667 0 0 0-74.666667-74.666667H426.666667a74.666667 74.666667 0 0 0-74.666667 74.666667V262.613333zM277.333333 586.666667a10.666667 10.666667 0 0 1-10.666666-10.666667v-151.04a10.666667 10.666667 0 0 1 3.733333-8.106667l126.976-108.842666A53.333333 53.333333 0 0 0 416 267.52V0a10.666667 10.666667 0 0 1 10.666667-10.666667h170.666666a10.666667 10.666667 0 0 1 10.666667 10.666667V267.52a53.333333 53.333333 0 0 0 18.624 40.490667L753.610667 416.853333a10.666667 10.666667 0 0 1 3.722666 8.106667V576a10.666667 10.666667 0 0 1-10.666666 10.666667H277.333333z m202.666667-320a32 32 0 0 0 64 0v-85.333334a32 32 0 0 0-64 0v85.333334z"  horiz-adv-x="1024" />
      
      <glyph glyph-name="dianying" unicode="&#59576;" d="M844.832 10.656c-30.485333 20.714667-77.781333 18.965333-144.053333-9.386667A425.024 425.024 0 0 0 512-42.666667C276.362667-42.666667 85.333333 148.362667 85.333333 384S276.362667 810.666667 512 810.666667s426.666667-191.029333 426.666667-426.666667a425.013333 425.013333 0 0 0-44.405334-189.717333 32 32 0 0 0-57.301333 28.490666A361.013333 361.013333 0 0 1 874.666667 384c0 200.298667-162.368 362.666667-362.666667 362.666667S149.333333 584.298667 149.333333 384s162.368-362.666667 362.666667-362.666667c56.704 0 111.488 13.013333 161.12 37.653334l1.6 0.746666c84.746667 36.437333 154.176 39.125333 206.08 3.861334a32 32 0 1 0-35.968-52.938667zM512 480a64 64 0 1 0 0 128 64 64 0 0 0 0-128z m160-160a64 64 0 1 0 0 128 64 64 0 0 0 0-128zM512 160a64 64 0 1 0 0 128 64 64 0 0 0 0-128zM352 320a64 64 0 1 0 0 128 64 64 0 0 0 0-128z"  horiz-adv-x="1024" />
      
      <glyph glyph-name="ditu" unicode="&#59577;" d="M85.333333 426.282667C85.333333 444.170667 99.658667 458.666667 117.333333 458.666667s32-14.506667 32-32.384V109.866667c0-5.962667 4.778667-10.794667 10.666667-10.794667a10.56 10.56 0 0 1 5.045333 1.28l154.848 84.021333a73.898667 73.898667 0 0 0 72.853334-1.290666l252.544-148.842667a10.56 10.56 0 0 1 10.122666-0.341333l213.333334 107.264c3.626667 1.824 5.92 5.568 5.92 9.664V426.282667C874.666667 444.170667 888.992 458.666667 906.666667 458.666667s32-14.506667 32-32.384V150.826667c0-28.682667-16.053333-54.890667-41.44-67.658667l-213.333334-107.264a73.898667 73.898667 0 0 0-70.805333 2.378667L360.533333 127.104a10.56 10.56 0 0 1-10.410666 0.192l-154.848-84.032a73.973333 73.973333 0 0 0-35.285334-8.96c-41.237333 0-74.666667 33.813333-74.666666 75.552V426.282667z m672 132.266666c0-87.808-73.173333-192.917333-217.056-320.288a42.666667 42.666667 0 0 0-56.554666 0C339.829333 365.621333 266.666667 470.741333 266.666667 558.549333 266.666667 692.032 376.64 800 512 800s245.333333-107.968 245.333333-241.450667z m-426.666666 0c0-61.514667 59.712-149.557333 181.333333-259.701333 121.621333 110.144 181.333333 198.186667 181.333333 259.701333C693.333333 656.416 612.277333 736 512 736s-181.333333-79.573333-181.333333-177.450667zM512 490.666667a64 64 0 1 0 0 128 64 64 0 0 0 0-128z"  horiz-adv-x="1024" />
      
      <glyph glyph-name="diantong_kai" unicode="&#59578;" d="M352 262.613333l-123.264 105.653334A74.666667 74.666667 0 0 0 202.666667 424.96V576a74.666667 74.666667 0 0 0 74.666666 74.666667h469.333334a74.666667 74.666667 0 0 0 74.666666-74.666667v-151.04a74.666667 74.666667 0 0 0-26.069333-56.693333L672 262.613333V0a74.666667 74.666667 0 0 0-74.666667-74.666667H426.666667a74.666667 74.666667 0 0 0-74.666667 74.666667V262.613333zM277.333333 586.666667a10.666667 10.666667 0 0 1-10.666666-10.666667v-151.04a10.666667 10.666667 0 0 1 3.733333-8.106667l126.976-108.842666A53.333333 53.333333 0 0 0 416 267.52V0a10.666667 10.666667 0 0 1 10.666667-10.666667h170.666666a10.666667 10.666667 0 0 1 10.666667 10.666667V267.52a53.333333 53.333333 0 0 0 18.624 40.490667L753.610667 416.853333a10.666667 10.666667 0 0 1 3.722666 8.106667V576a10.666667 10.666667 0 0 1-10.666666 10.666667H277.333333z m202.666667-320a32 32 0 0 0 64 0v-85.333334a32 32 0 0 0-64 0v85.333334z m0 544a32 32 0 0 0 64 0v-85.333334a32 32 0 0 0-64 0V810.666667z m260.288-11.050667a32 32 0 1 0 55.424-32l-42.666667-73.898667a32 32 0 1 0-55.424 32l42.666667 73.898667z m-456.576 0l42.666667-73.898667a32 32 0 1 0-55.424-32l-42.666667 73.898667a32 32 0 0 0 55.424 32z"  horiz-adv-x="1024" />
      
      <glyph glyph-name="dianyingpiao" unicode="&#59579;" d="M640 501.333333a32 32 0 0 0 0-64H384a32 32 0 0 0 0 64h256z m0-170.666666a32 32 0 0 0 0-64H384a32 32 0 0 0 0 64h256zM117.333333 458.666667a32 32 0 0 0-32 32V640c0 64.8 52.533333 117.333333 117.333334 117.333333h618.666666c64.8 0 117.333333-52.533333 117.333334-117.333333v-149.333333a32 32 0 0 0-32-32 74.666667 74.666667 0 0 1 0-149.333334 32 32 0 0 0 32-32v-149.333333c0-64.8-52.533333-117.333333-117.333334-117.333333H202.666667c-64.8 0-117.333333 52.533333-117.333334 117.333333V277.333333a32 32 0 0 0 32 32 74.666667 74.666667 0 0 1 0 149.333334z m138.666667-74.666667c0-65.568-45.514667-120.512-106.666667-134.954667V128a53.333333 53.333333 0 0 1 53.333334-53.333333h618.666666a53.333333 53.333333 0 0 1 53.333334 53.333333V249.045333C813.514667 263.488 768 318.432 768 384c0 65.568 45.514667 120.512 106.666667 134.954667V640a53.333333 53.333333 0 0 1-53.333334 53.333333H202.666667a53.333333 53.333333 0 0 1-53.333334-53.333333v-121.045333C210.485333 504.512 256 449.568 256 384z"  horiz-adv-x="1024" />
      
      <glyph glyph-name="dingdan" unicode="&#59580;" d="M821.333333 640a32 32 0 0 0 64 0v-565.333333c0-64.8-52.533333-117.333333-117.333333-117.333334H256c-64.8 0-117.333333 52.533333-117.333333 117.333334V693.333333c0 64.8 52.533333 117.333333 117.333333 117.333334h597.333333a32 32 0 0 0 0-64H256a53.333333 53.333333 0 0 1-53.333333-53.333334v-618.666666a53.333333 53.333333 0 0 1 53.333333-53.333334h512a53.333333 53.333333 0 0 1 53.333333 53.333334V640zM341.333333 458.666667a32 32 0 0 0 0 64h341.333334a32 32 0 0 0 0-64H341.333333z m0-170.666667a32 32 0 0 0 0 64h213.333334a32 32 0 0 0 0-64H341.333333z"  horiz-adv-x="1024" />
      
      <glyph glyph-name="gengduo" unicode="&#59581;" d="M298.666667 309.333333a74.666667 74.666667 0 1 0 0 149.333334 74.666667 74.666667 0 0 0 0-149.333334z m213.333333 0a74.666667 74.666667 0 1 0 0 149.333334 74.666667 74.666667 0 0 0 0-149.333334z m213.333333 0a74.666667 74.666667 0 1 0 0 149.333334 74.666667 74.666667 0 0 0 0-149.333334z"  horiz-adv-x="1024" />
      
      <glyph glyph-name="fanbei" unicode="&#59582;" d="M512 810.666667c235.637333 0 426.666667-191.029333 426.666667-426.666667S747.637333-42.666667 512-42.666667 85.333333 148.362667 85.333333 384 276.362667 810.666667 512 810.666667z m0-64c-200.298667 0-362.666667-162.368-362.666667-362.666667s162.368-362.666667 362.666667-362.666667 362.666667 162.368 362.666667 362.666667-162.368 362.666667-362.666667 362.666667z m117.333333-202.666667c58.912 0 106.666667-47.754667 106.666667-106.666667a98.581333 98.581333 0 0 0-37.002667-76.981333L635.221333 309.333333H714.666667a32 32 0 0 0 0-64H544c-30.250667 0-43.605333 38.090667-19.989333 56.992l135.008 108.010667A34.581333 34.581333 0 0 1 672 437.333333a42.666667 42.666667 0 1 1-85.333333 0 32 32 0 0 0-64 0c0 58.912 47.754667 106.666667 106.666666 106.666667zM286.709333 427.957333a32 32 0 0 0 45.248 0L373.333333 386.592l41.376 41.365333a32 32 0 0 0 43.712 1.44l1.536-1.44a32 32 0 0 0 0-45.248L418.592 341.333333l41.365333-41.376a32 32 0 0 0 1.44-43.712l-1.44-1.536a32 32 0 0 0-45.248 0L373.333333 296.074667l-41.376-41.365334a32 32 0 0 0-43.712-1.44l-1.536 1.44a32 32 0 0 0 0 45.248L328.074667 341.333333l-41.365334 41.376a32 32 0 0 0-1.44 43.712z"  horiz-adv-x="1024" />
      
      <glyph glyph-name="faxian" unicode="&#59583;" d="M512 810.666667c235.637333 0 426.666667-191.029333 426.666667-426.666667S747.637333-42.666667 512-42.666667 85.333333 148.362667 85.333333 384 276.362667 810.666667 512 810.666667z m0-64c-200.298667 0-362.666667-162.368-362.666667-362.666667s162.368-362.666667 362.666667-362.666667 362.666667 162.368 362.666667 362.666667-162.368 362.666667-362.666667 362.666667z m149.162667-158.901334a42.666667 42.666667 0 0 0 54.602666-54.602666L637.642667 316.16a96 96 0 0 0-57.813334-57.802667l-216.992-78.122666a42.666667 42.666667 0 0 0-54.602666 54.602666l78.122666 217.002667a96 96 0 0 0 57.813334 57.802667z m-20.970667-75.573333l-174.346667-62.762667a32 32 0 0 1-19.274666-19.274666l-62.762667-174.346667 174.346667 62.762667a32 32 0 0 1 19.274666 19.274666l62.762667 174.346667z"  horiz-adv-x="1024" />
      
      <glyph glyph-name="hongbao" unicode="&#59584;" d="M380.48 332.074667C398.901333 387.050667 450.826667 426.666667 512 426.666667s113.098667-39.616 131.52-94.592A709.162667 709.162667 0 0 1 821.333333 390.218667V693.333333a53.333333 53.333333 0 0 1-53.333333 53.333334H256a53.333333 53.333333 0 0 1-53.333333-53.333334v-303.114666a709.152 709.152 0 0 1 177.813333-58.144z m268.768-64.010667C639.573333 200.928 581.813333 149.333333 512 149.333333c-69.813333 0-127.573333 51.594667-137.248 118.72A773.109333 773.109333 0 0 0 202.666667 319.882667V74.666667a53.333333 53.333333 0 0 1 53.333333-53.333334h512a53.333333 53.333333 0 0 1 53.333333 53.333334V319.872a773.12 773.12 0 0 0-172.085333-51.808zM256 810.666667h512c64.8 0 117.333333-52.533333 117.333333-117.333334v-618.666666c0-64.8-52.533333-117.333333-117.333333-117.333334H256c-64.8 0-117.333333 52.533333-117.333333 117.333334V693.333333c0 64.8 52.533333 117.333333 117.333333 117.333334z m256-597.333334a74.666667 74.666667 0 1 1 0 149.333334 74.666667 74.666667 0 0 1 0-149.333334z"  horiz-adv-x="1024" />
      
      <glyph glyph-name="fuzhi" unicode="&#59585;" d="M394.666667 789.333333h448a74.666667 74.666667 0 0 0 74.666666-74.666666v-448a74.666667 74.666667 0 0 0-74.666666-74.666667H394.666667a74.666667 74.666667 0 0 0-74.666667 74.666667V714.666667a74.666667 74.666667 0 0 0 74.666667 74.666666z m0-64a10.666667 10.666667 0 0 1-10.666667-10.666666v-448a10.666667 10.666667 0 0 1 10.666667-10.666667h448a10.666667 10.666667 0 0 1 10.666666 10.666667V714.666667a10.666667 10.666667 0 0 1-10.666666 10.666666H394.666667z m245.333333-597.333333a32 32 0 0 0 64 0v-74.666667a74.666667 74.666667 0 0 0-74.666667-74.666666H181.333333a74.666667 74.666667 0 0 0-74.666666 74.666666V501.333333a74.666667 74.666667 0 0 0 74.666666 74.666667h74.666667a32 32 0 0 0 0-64h-74.666667a10.666667 10.666667 0 0 1-10.666666-10.666667v-448a10.666667 10.666667 0 0 1 10.666666-10.666666h448a10.666667 10.666667 0 0 1 10.666667 10.666666v74.666667z"  horiz-adv-x="1024" />
      
      <glyph glyph-name="fenxiang" unicode="&#59586;" d="M853.333333 362.666667a32 32 0 0 0 64 0v-266.666667c0-64.8-52.533333-117.333333-117.333333-117.333333H224c-64.8 0-117.333333 52.533333-117.333333 117.333333V640c0 64.8 52.533333 117.333333 117.333333 117.333333h277.333333a32 32 0 0 0 0-64H224a53.333333 53.333333 0 0 1-53.333333-53.333333v-544a53.333333 53.333333 0 0 1 53.333333-53.333333h576a53.333333 53.333333 0 0 1 53.333333 53.333333V362.666667z m-42.058666 277.333333l-89.792 95.402667a32 32 0 0 0 46.613333 43.861333l140.544-149.333333C927.861333 609.514667 913.376 576 885.333333 576H724.704C643.029333 576 576 504.789333 576 416v-192a32 32 0 1 0-64 0V416c0 123.296 94.784 224 212.704 224h86.570667z"  horiz-adv-x="1024" />
      
      <glyph glyph-name="huatifuhao" unicode="&#59587;" d="M651.424 678.933333a32 32 0 0 0 62.485333-13.866666L682.261333 522.666667H800a32 32 0 0 0 31.946667-30.122667L832 490.666667a32 32 0 0 0-32-32H668.032l-33.184-149.333334H800a32 32 0 0 0 31.946667-30.122666L832 277.333333a32 32 0 0 0-32-32H620.629333l-34.72-156.266666a32 32 0 0 0-36.341333-24.661334l-1.845333 0.352a32 32 0 0 0-24.298667 38.186667L555.061333 245.333333H407.296l-34.72-156.288a32 32 0 0 0-36.341333-24.64l-1.845334 0.341334a32 32 0 0 0-24.298666 38.186666L341.728 245.333333 224 245.333333a32 32 0 0 0-31.946667 30.122667L192 277.333333a32 32 0 0 0 32 32h131.957333l33.184 149.333334H224a32 32 0 0 0-31.946667 30.122666L192 490.666667a32 32 0 0 0 32 32h179.36l34.730667 156.266666a32 32 0 0 0 36.341333 24.661334l1.845333-0.352a32 32 0 0 0 24.298667-38.186667l-31.648-142.378667h147.765333zM602.474667 458.666667H454.698667l-33.184-149.333334h147.776l33.184 149.333334z"  horiz-adv-x="1024" />
      
      <glyph glyph-name="huiyuan" unicode="&#59588;" d="M311.114667 524.757333L471.146667 726.901333a52.106667 52.106667 0 0 0 81.706666 0l160.032-202.144 153.152 65.632a52.106667 52.106667 0 0 0 71.541334-58.474666l-89.44-430.933334a112.416 112.416 0 0 0-110.08-89.568H285.941333a112.416 112.416 0 0 0-110.08 89.568l-89.429333 430.933334a52.106667 52.106667 0 0 0 71.541333 58.474666l153.152-65.632zM512 675.392L355.648 477.898667a52.106667 52.106667 0 0 0-61.376-15.552l-140.544 60.234666 84.8-408.586666a48.416 48.416 0 0 1 47.402667-38.581334h452.138666a48.416 48.416 0 0 1 47.402667 38.581334l84.8 408.586666-140.544-60.234666a52.106667 52.106667 0 0 0-61.376 15.552L512 675.392z"  horiz-adv-x="1024" />
      
      <glyph glyph-name="jianshao" unicode="&#59589;" d="M512-42.666667C276.362667-42.666667 85.333333 148.362667 85.333333 384S276.362667 810.666667 512 810.666667s426.666667-191.029333 426.666667-426.666667-191.029333-426.666667-426.666667-426.666667z m0 64c200.298667 0 362.666667 162.368 362.666667 362.666667S712.298667 746.666667 512 746.666667 149.333333 584.298667 149.333333 384s162.368-362.666667 362.666667-362.666667zM352 416h320a32 32 0 0 0 0-64H352a32 32 0 0 0 0 64z"  horiz-adv-x="1024" />
      
      <glyph glyph-name="huati" unicode="&#59590;" d="M476.021333 352h63.424l8.533334 64h-63.424l-8.533334-64z m-8.533333-64l-9.098667-68.224a32 32 0 0 0-63.445333 8.448L402.912 288H352a32 32 0 0 0 0 64h59.445333l8.533334 64H352a32 32 0 0 0 0 64h76.512l9.098667 68.224a32 32 0 0 0 63.445333-8.448L493.088 480h63.424l9.098667 68.224a32 32 0 0 0 63.445333-8.448L621.088 480H672a32 32 0 0 0 0-64h-59.445333l-8.533334-64H672a32 32 0 0 0 0-64h-76.512l-9.098667-68.224a32 32 0 0 0-63.445333 8.448L530.912 288h-63.424zM157.568 144.704c-11.008 18.688-18.218667 31.221333-21.802667 37.909333A424.885333 424.885333 0 0 0 85.333333 384C85.333333 619.637333 276.362667 810.666667 512 810.666667s426.666667-191.029333 426.666667-426.666667-191.029333-426.666667-426.666667-426.666667a424.778667 424.778667 0 0 0-219.125333 60.501334 2786.56 2786.56 0 0 1-20.053334 11.765333l-104.405333-28.48c-23.893333-6.506667-45.802667 15.413333-39.285333 39.296l28.437333 104.288z m65.301333-3.786667l-17.258666-63.306666 63.306666 17.258666a32 32 0 0 0 24.522667-3.210666 4515.84 4515.84 0 0 0 32.352-18.944A360.789333 360.789333 0 0 1 512 21.333333c200.298667 0 362.666667 162.368 362.666667 362.666667S712.298667 746.666667 512 746.666667 149.333333 584.298667 149.333333 384c0-60.586667 14.848-118.954667 42.826667-171.136 3.712-6.912 12.928-22.826667 27.370667-47.232a32 32 0 0 0 3.338666-24.714667z"  horiz-adv-x="1024" />
      
      <glyph glyph-name="guanzhu" unicode="&#59591;" d="M790.976 705.28a32 32 0 0 0 45.258667 0.021333A457.248 457.248 0 0 0 970.666667 380.885333a457.248 457.248 0 0 0-134.293334-324.277333 32 32 0 1 0-45.258666 45.248A393.258667 393.258667 0 0 1 906.666667 380.885333a393.258667 393.258667 0 0 1-115.68 279.146667 32 32 0 0 0 0 45.258667z m-603.36-0.128a32 32 0 0 0 45.269333-45.248A393.258667 393.258667 0 0 1 117.333333 380.885333a393.258667 393.258667 0 0 1 115.466667-278.944 32 32 0 0 0-45.28-45.237333A457.248 457.248 0 0 0 53.333333 380.885333a457.248 457.248 0 0 0 134.293334 324.266667zM330.794667 610.133333a32 32 0 0 0 0.032-45.248A255.04 255.04 0 0 1 256 384a255.050667 255.050667 0 0 1 75.146667-181.184 32 32 0 1 0-45.216-45.301333A319.04 319.04 0 0 0 192 384a319.04 319.04 0 0 0 93.546667 226.090667 32 32 0 0 0 45.248 0.032z m407.36 0.266667A319.04 319.04 0 0 0 832 384a319.04 319.04 0 0 0-93.653333-226.208 32 32 0 0 0-45.28 45.237333A255.050667 255.050667 0 0 1 768 384a255.050667 255.050667 0 0 1-75.072 181.12 32 32 0 1 0 45.226667 45.269333zM566.752 512C637.408 512 682.666667 454.826667 682.666667 381.077333c0-58.005333-47.946667-116.789333-140.096-181.237333a53.333333 53.333333 0 0 0-61.141334 0C389.28 264.288 341.333333 323.072 341.333333 381.077333 341.333333 454.826667 386.592 512 457.258667 512c21.632 0 37.514667-5.994667 54.741333-18.421333C529.226667 506.005333 545.109333 512 566.741333 512z m0-64c-8.32 0-14.56-3.328-27.52-14.538667l-6.336-5.504a32 32 0 0 0-41.770667 0l-6.336 5.504c-12.96 11.2-19.2 14.538667-27.52 14.538667C425.653333 448 405.333333 422.325333 405.333333 381.077333c0-29.941333 34.410667-72.938667 106.666667-124.48 72.256 51.541333 106.666667 94.538667 106.666667 124.48C618.666667 422.325333 598.346667 448 566.741333 448z"  horiz-adv-x="1024" />
      
      <glyph glyph-name="maiyizengyi" unicode="&#59592;" d="M220.544 701.386667c22.72 62.4 98.858667 88.885333 168.618667 63.498666L790.848 618.666667 821.333333 618.666667c64.8 0 117.333333-52.533333 117.333334-117.333334v-117.333333a32 32 0 0 0-32-32 64 64 0 1 1 0-128 32 32 0 0 0 32-32v-117.333333c0-64.8-52.533333-117.333333-117.333334-117.333334H202.666667c-64.8 0-117.333333 52.533333-117.333334 117.333334V192a32 32 0 0 0 32 32 64 64 0 1 1 0 128 32 32 0 0 0-32 32V501.333333c0 60.586667 45.92 110.453333 104.853334 116.682667zM821.333333 554.666667h-41.226666l-0.064-0.16-0.469334 0.170666L202.666667 554.666667a53.333333 53.333333 0 0 1-53.333334-53.333334v-89.365333c55.210667-14.208 96-64.32 96-123.968s-40.789333-109.76-96-123.968V74.666667a53.333333 53.333333 0 0 1 53.333334-53.333334h618.666666a53.333333 53.333333 0 0 1 53.333334 53.333334v89.365333c-55.210667 14.208-96 64.32-96 123.968s40.789333 109.76 96 123.968V501.333333a53.333333 53.333333 0 0 1-53.333334 53.333334zM640.042667 249.28a32 32 0 0 0 0-64h-256a32 32 0 0 0 0 64z m0 149.333333a32 32 0 0 0 0-64h-256a32 32 0 0 0 0 64z m-272.778667 306.133334c-38.933333 14.165333-77.056 0.917333-86.581333-25.248l-22.144-60.821334H603.733333z"  horiz-adv-x="1024" />
      
      <glyph glyph-name="mima" unicode="&#59593;" d="M288 512v74.666667c0 123.722667 100.266667 224 224 224s224-100.224 224-224v-74.666667h10.677333C811.445333 512 864 459.402667 864 394.666667v-320c0-64.821333-52.469333-117.333333-117.322667-117.333334H277.333333C212.554667-42.666667 160 9.930667 160 74.666667V394.666667c0 64.821333 52.469333 117.333333 117.322667 117.333333H288z m64 0h320v74.666667c0 88.426667-71.605333 160-160 160-88.384 0-160-71.626667-160-160v-74.666667zM224 394.666667v-320c0-29.397333 23.914667-53.333333 53.322667-53.333334H746.666667A53.269333 53.269333 0 0 1 800 74.666667V394.666667c0 29.397333-23.914667 53.333333-53.322667 53.333333H277.333333A53.269333 53.269333 0 0 1 224 394.666667z"  horiz-adv-x="1024" />
      
      <glyph glyph-name="nan" unicode="&#59594;" d="M795.189333 719.082667H682.666667a32 32 0 1 0 0 64h192a32 32 0 0 0 32-32v-192a32 32 0 1 0-64 0V676.053333l-105.866667-105.866666A350.613333 350.613333 0 0 0 821.333333 341.333333c0-194.4-157.6-352-352-352S117.333333 146.933333 117.333333 341.333333s157.6 352 352 352a350.538667 350.538667 0 0 0 221.6-78.506666l104.256 104.256zM469.333333 53.333333c159.061333 0 288 128.938667 288 288S628.394667 629.333333 469.333333 629.333333 181.333333 500.394667 181.333333 341.333333s128.938667-288 288-288z"  horiz-adv-x="1024" />
      
      <glyph glyph-name="nv" unicode="&#59595;" d="M485.333333 128v43.765333C321.077333 185.312 192 322.912 192 490.666667 192 667.402667 335.264 810.666667 512 810.666667c176.736 0 320-143.264 320-320 0-164.106667-123.52-299.349333-282.666667-317.845334V128H640a32 32 0 0 0 0-64h-90.666667v-77.333333a32 32 0 0 0-64 0V64H384a32 32 0 0 0 0 64h101.333333zM512 234.666667c141.386667 0 256 114.613333 256 256S653.386667 746.666667 512 746.666667 256 632.053333 256 490.666667s114.613333-256 256-256z"  horiz-adv-x="1024" />
      
      <glyph glyph-name="lihe" unicode="&#59596;" d="M558.954667 738.645333a101.333333 101.333333 0 1 0 175.509333-101.333333l-19.072-33.034667H864a74.666667 74.666667 0 0 0 74.624-72.106666l0.042667-2.56v-85.333334a74.666667 74.666667 0 0 0-74.666667-74.666666h-10.666667v-288c0-64.810667-52.533333-117.333333-117.333333-117.333334H309.333333c-64.8 0-117.333333 52.522667-117.333333 117.333334v288h-10.666667a74.666667 74.666667 0 0 0-74.624 72.096L106.666667 444.266667v85.333333a74.666667 74.666667 0 0 0 74.666666 74.666667l142.122667 0.010666-19.072 33.034667a101.333333 101.333333 0 1 0 175.509333 101.333333l39.530667-68.448zM789.333333 369.6H256v-288a53.333333 53.333333 0 0 1 53.333333-53.333333h426.666667a53.333333 53.333333 0 0 1 53.333333 53.333333v288z m74.666667 170.666667H181.333333a10.666667 10.666667 0 0 1-10.666666-10.666667v-85.333333a10.666667 10.666667 0 0 1 10.666666-10.666667h682.666667a10.666667 10.666667 0 0 1 10.666667 10.666667v85.333333a10.666667 10.666667 0 0 1-10.666667 10.666667zM373.472 720.32a37.333333 37.333333 0 0 1-13.653333-51.008l37.536-65.034667h84.010666l1.109334 1.92-58.005334 100.448a37.333333 37.333333 0 0 1-50.986666 13.674667z m291.904 0a37.333333 37.333333 0 0 1-50.986667-13.674667L556.373333 606.186667l1.098667-1.909334h84.021333l37.546667 65.034667a37.333333 37.333333 0 0 1-11.861333 49.888z"  horiz-adv-x="1024" />
      
      <glyph glyph-name="paihangbang" unicode="&#59597;" d="M544 234.666667a32 32 0 0 0-64 0V533.333333a32 32 0 0 0 64 0v-298.666666z m160 0a32 32 0 0 0-64 0V405.333333a32 32 0 0 0 64 0v-170.666666z m-320 0a32 32 0 0 0-64 0V448a32 32 0 0 0 64 0v-213.333333zM202.666667 757.333333h618.666666c64.8 0 117.333333-52.533333 117.333334-117.333333v-512c0-64.8-52.533333-117.333333-117.333334-117.333333H202.666667c-64.8 0-117.333333 52.533333-117.333334 117.333333V640c0 64.8 52.533333 117.333333 117.333334 117.333333z m0-64a53.333333 53.333333 0 0 1-53.333334-53.333333v-512a53.333333 53.333333 0 0 1 53.333334-53.333333h618.666666a53.333333 53.333333 0 0 1 53.333334 53.333333V640a53.333333 53.333333 0 0 1-53.333334 53.333333H202.666667z"  horiz-adv-x="1024" />
      
      <glyph glyph-name="lipinka" unicode="&#59598;" d="M384 303.978667c-15.402667-16.426667-36.832-33.834667-64.426667-52.949334a32 32 0 1 0-36.448 52.608c23.957333 16.597333 41.6 31.114667 52.8 42.592-22.4 4.341333-42.453333 11.232-58.08 20.693334-57.322667 34.688-56.362667 111.989333-4.48 143.978666C307.2 531.765333 346.325333 525.76 384 495.68V693.333333H202.666667a53.333333 53.333333 0 0 1-53.333334-53.333333v-512a53.333333 53.333333 0 0 1 53.333334-53.333333h181.333333V303.978667z m64 12.885333V74.666667h373.333333a53.333333 53.333333 0 0 1 53.333334 53.333333V640a53.333333 53.333333 0 0 1-53.333334 53.333333H448v-187.509333c39.893333 23.370667 83.232 18.506667 114.592-12.992l1.92-1.92 1.568-2.24c23.498667-33.386667 22.005333-69.269333-3.296-96.629333-14.325333-15.488-35.456-27.370667-61.418667-35.893334 20.373333-15.114667 45.578667-28.693333 75.765334-40.672a32 32 0 0 0-23.594667-59.498666c-42.368 16.810667-77.621333 37.056-105.536 60.885333z m0 100.693333c1.472-2.528 2.933333-5.098667 4.394667-7.701333l0.074666-0.149333c3.605333 0.661333 7.178667 1.408 10.688 2.208 25.546667 5.888 44.48 14.762667 52.64 23.573333 3.936 4.266667 4.394667 6.634667-0.373333 13.888-16.874667 14.698667-41.92 6.773333-67.424-29.226667v-2.592zM202.666667 757.333333h618.666666c64.8 0 117.333333-52.533333 117.333334-117.333333v-512c0-64.8-52.533333-117.333333-117.333334-117.333333H202.666667c-64.8 0-117.333333 52.533333-117.333334 117.333333V640c0 64.8 52.533333 117.333333 117.333334 117.333333z m108.309333-335.669333c12.821333-7.754667 32.864-13.002667 55.957333-15.413333 1.728 3.626667 3.477333 7.168 5.258667 10.634666-28.32 38.186667-51.968 47.712-65.237333 39.530667-11.626667-7.157333-11.84-25.141333 4.021333-34.752z"  horiz-adv-x="1024" />
      
      <glyph glyph-name="pengyouquan" unicode="&#59599;" d="M177.738667 243.050667A364.074667 364.074667 0 0 1 331.306667 69.482667v310.826666L192.490667 250.848c-4.298667-4.010667-9.397333-6.613333-14.752-7.808z m-19.989334 62.922666l209.706667 195.562667H170.666667c-0.618667 0-1.237333 0.010667-1.845334 0.053333A362.186667 362.186667 0 0 1 149.333333 384c0-26.784 2.901333-52.906667 8.416-78.026667z m302.08 195.562667a32.064 32.064 0 0 0-5.152-6.186667l-62.112-57.909333c1.76-3.957333 2.730667-8.341333 2.730667-12.949333v-79.541334c3.584-1.642667 6.912-3.978667 9.802667-7.008l67.573333-70.848h90.570667l68.298666 72.938667v95.872l-68.181333 66.826667c-2.773333-0.778667-5.685333-1.194667-8.693333-1.194667h-94.837334zM395.232 40.533333A362.218667 362.218667 0 0 1 512 21.333333c32.768 0 64.522667 4.341333 94.72 12.490667l-211.413333 221.653333V42.666667c0-0.714667-0.032-1.418667-0.074667-2.133334z m275.466667 17.269334a364.266667 364.266667 0 0 1 155.690666 145.28H533.706667l131.946666-138.346667c2.026667-2.133333 3.712-4.469333 5.045334-6.933333z m184.693333 209.216A362.208 362.208 0 0 1 874.666667 384c0 36.661333-5.44 72.053333-15.552 105.408L650.912 267.093333H853.333333c0.693333 0 1.376-0.021333 2.058667-0.064zM197.962667 565.536h301.312l-139.733334 136.938667a31.978667 31.978667 0 0 0-5.898666 7.893333A364.266667 364.266667 0 0 1 197.973333 565.525333z m220.373333 168.917333l213.205333-208.938666v195.2c0 1.92 0.170667 3.786667 0.490667 5.621333A362.112 362.112 0 0 1 512 746.666667c-32.384 0-63.786667-4.245333-93.653333-12.213334zM695.552 449.386667V408.362667l134.432 143.573333c0.746667 0.8 1.546667 1.557333 2.346667 2.261333a364.373333 364.373333 0 0 1-136.778667 142.666667v-247.488zM512-42.666667C276.362667-42.666667 85.333333 148.362667 85.333333 384S276.362667 810.666667 512 810.666667s426.666667-191.029333 426.666667-426.666667-191.029333-426.666667-426.666667-426.666667z"  horiz-adv-x="1024" />
      
      <glyph glyph-name="mingxinghuodong" unicode="&#59600;" d="M512 810.666667c235.637333 0 426.666667-191.029333 426.666667-426.666667S747.637333-42.666667 512-42.666667 85.333333 148.362667 85.333333 384 276.362667 810.666667 512 810.666667z m0-64c-200.298667 0-362.666667-162.368-362.666667-362.666667s162.368-362.666667 362.666667-362.666667 362.666667 162.368 362.666667 362.666667-162.368 362.666667-362.666667 362.666667z m21.141333-132.298667a54.762667 54.762667 0 0 0 29.312-29.749333l37.365334-91.456 96.693333-7.893334c30.122667-2.453333 52.352-29.013333 49.984-59.125333a55.104 55.104 0 0 0-18.677333-37.205333l-74.08-64.597334 22.666666-96.746666c6.88-29.333333-11.008-58.944-40.309333-66.058667a54.218667 54.218667 0 0 0-41.44 6.656L512 219.584l-82.666667-51.392a54.325333 54.325333 0 0 0-75.338666 18.346667 55.317333 55.317333 0 0 0-6.4 41.056l22.666666 96.746666-74.08 64.597334a55.253333 55.253333 0 0 0-5.909333 77.098666 54.421333 54.421333 0 0 0 37.216 19.242667l96.693333 7.893333 37.365334 91.445334c11.498667 28.128 43.584 41.6 71.594666 29.749333zM512 538.890667l-30.72-75.178667a54.592 54.592 0 0 0-46.037333-33.856l-81.024-6.613333 62.165333-54.197334a55.210667 55.210667 0 0 0 17.386667-54.186666l-18.805334-80.234667 68.373334 42.506667a54.218667 54.218667 0 0 0 57.312 0l68.373333-42.506667-18.794667 80.234667a55.210667 55.210667 0 0 0 17.386667 54.186666l62.165333 54.197334-81.024 6.613333a54.592 54.592 0 0 0-46.048 33.856L512 538.890667z"  horiz-adv-x="1024" />
      
      <glyph glyph-name="qupiao" unicode="&#59601;" d="M821.333333 810.666667c64.8 0 117.333333-52.533333 117.333334-117.333334v-149.333333c0-64.8-52.533333-117.333333-117.333334-117.333333h-21.333333v-437.333334c0-26.368-30.101333-41.418667-51.2-25.6L682.666667 13.333333l-59.733334-44.8a42.666667 42.666667 0 0 0-51.2 0l-59.733333 44.8-59.733333-44.8a42.666667 42.666667 0 0 0-51.2 0l-59.733334 44.8-66.133333-49.6c-21.098667-15.818667-51.2-0.768-51.2 25.6V426.666667h-21.333333c-63.776 0-115.658667 50.88-117.290667 114.261333L85.333333 544V693.333333c0 64.8 52.533333 117.333333 117.333334 117.333334z m-96-213.333334H298.666667a10.666667 10.666667 0 0 1-10.666667-10.666666v-533.333334l27.733333 20.8a42.666667 42.666667 0 0 0 51.2 0l59.733334-44.8 59.733333 44.8a42.666667 42.666667 0 0 0 51.2 0l59.733333-44.8 59.733334 44.8a42.666667 42.666667 0 0 0 51.2 0L736 53.333333V586.666667a10.666667 10.666667 0 0 1-10.666667 10.666666zM543.978667 307.018667a32 32 0 1 0 0-64h-128a32 32 0 1 0 0 64z m64.032 138.666666a32 32 0 0 0 0-64H415.989333a32 32 0 0 0 0 64zM821.333333 746.666667H202.666667a53.333333 53.333333 0 0 1-53.333334-53.333334v-149.333333a53.333333 53.333333 0 0 1 53.333334-53.333333h21.333333v96a74.666667 74.666667 0 0 0 74.666667 74.666666h426.666666a74.666667 74.666667 0 0 0 74.666667-74.666666v-96h21.333333a53.333333 53.333333 0 0 1 53.28 51.018666L874.666667 544V693.333333a53.333333 53.333333 0 0 1-53.333334 53.333334z"  horiz-adv-x="1024" />
      
      <glyph glyph-name="saoyisao" unicode="&#59602;" d="M693.333333 725.333333a32 32 0 0 0 0 64h149.333334a74.666667 74.666667 0 0 0 74.666666-74.666666v-149.333334a32 32 0 0 0-64 0V714.666667a10.666667 10.666667 0 0 1-10.666666 10.666666H693.333333z m160-522.666666a32 32 0 0 0 64 0v-149.333334a74.666667 74.666667 0 0 0-74.666666-74.666666H693.333333a32 32 0 0 0 0 64h149.333334a10.666667 10.666667 0 0 1 10.666666 10.666666V202.666667zM330.666667 42.666667a32 32 0 0 0 0-64H181.333333a74.666667 74.666667 0 0 0-74.666666 74.666666V202.666667a32 32 0 0 0 64 0v-149.333334a10.666667 10.666667 0 0 1 10.666666-10.666666h149.333334zM170.666667 565.333333a32 32 0 0 0-64 0V714.666667a74.666667 74.666667 0 0 0 74.666666 74.666666h149.333334a32 32 0 0 0 0-64H181.333333a10.666667 10.666667 0 0 1-10.666666-10.666666v-149.333334z m629.333333-149.333333a32 32 0 0 0 0-64H224a32 32 0 0 0 0 64h576z"  horiz-adv-x="1024" />
      
      <glyph glyph-name="rili" unicode="&#59603;" d="M725.333333 725.333333h74.709334C864.853333 725.333333 917.333333 672.810667 917.333333 607.904V96.106667C917.333333 31.242667 864.832-21.333333 800.042667-21.333333H223.957333C159.146667-21.333333 106.666667 31.189333 106.666667 96.096V607.893333C106.666667 672.757333 159.168 725.333333 223.957333 725.333333H298.666667v32a32 32 0 0 0 64 0v-32h298.666666v32a32 32 0 0 0 64 0v-32z m0-64v-32a32 32 0 0 0-64 0v32H362.666667v-32a32 32 0 0 0-64 0v32h-74.709334A53.354667 53.354667 0 0 1 170.666667 607.904V96.106667A53.301333 53.301333 0 0 1 223.957333 42.666667h576.085334A53.354667 53.354667 0 0 1 853.333333 96.096V607.893333A53.301333 53.301333 0 0 1 800.042667 661.333333H725.333333z m-10.666666-224a32 32 0 0 0 0-64H309.333333a32 32 0 0 0 0 64h405.333334zM586.666667 277.333333a32 32 0 0 0 0-64H309.333333a32 32 0 0 0 0 64h277.333334z"  horiz-adv-x="1024" />
      
      <glyph glyph-name="pinglun" unicode="&#59604;" d="M157.568 144.704c-11.008 18.688-18.218667 31.221333-21.802667 37.909333A424.885333 424.885333 0 0 0 85.333333 384C85.333333 619.637333 276.362667 810.666667 512 810.666667s426.666667-191.029333 426.666667-426.666667-191.029333-426.666667-426.666667-426.666667a424.778667 424.778667 0 0 0-219.125333 60.501334 2786.56 2786.56 0 0 1-20.053334 11.765333l-104.405333-28.48c-23.893333-6.506667-45.802667 15.413333-39.285333 39.296l28.437333 104.288z m65.301333-3.786667l-17.258666-63.306666 63.306666 17.258666a32 32 0 0 0 24.522667-3.210666 4515.84 4515.84 0 0 0 32.352-18.944A360.789333 360.789333 0 0 1 512 21.333333c200.298667 0 362.666667 162.368 362.666667 362.666667S712.298667 746.666667 512 746.666667 149.333333 584.298667 149.333333 384c0-60.586667 14.848-118.954667 42.826667-171.136 3.712-6.912 12.928-22.826667 27.370667-47.232a32 32 0 0 0 3.338666-24.714667z m145.994667 70.773334a32 32 0 1 0 40.917333 49.205333A159.189333 159.189333 0 0 1 512 224c37.888 0 73.674667 13.173333 102.186667 36.885333a32 32 0 0 0 40.917333-49.216A223.178667 223.178667 0 0 0 512 160a223.178667 223.178667 0 0 0-143.136 51.690667z"  horiz-adv-x="1024" />
      
      <glyph glyph-name="qinghuiyuan" unicode="&#59605;" d="M267.210667 730.997333c32.106667 55.594667 102.976 74.88 158.901333 43.488L760.501333 617.493333H821.333333c64.8 0 117.333333-52.448 117.333334-117.12v-404.586666C938.666667 31.104 886.133333-21.333333 821.333333-21.333333H202.666667c-64.8 0-117.333333 52.437333-117.333334 117.12V500.373333c0 64.341333 51.989333 116.565333 116.330667 117.109334zM821.333333 553.610667l-63.658666-0.021334a31.872 31.872 0 0 0-7.594667 0L202.666667 553.6c-29.450667 0-53.333333-23.829333-53.333334-53.226667v-404.586666a53.28 53.28 0 0 1 53.333334-53.237334h618.666666c29.450667 0 53.333333 23.829333 53.333334 53.226667V500.373333a53.28 53.28 0 0 1-53.333334 53.237334zM589.536 417.749333a32.021333 32.021333 0 0 0 42.368 15.861334 31.914667 31.914667 0 0 0 15.893333-42.293334l-106.666666-234.24c-11.370667-24.96-46.890667-24.96-58.261334 0l-106.666666 234.24a31.914667 31.914667 0 0 0 15.893333 42.293334 32.021333 32.021333 0 0 0 42.368-15.861334L512 247.498667zM395.445333 718.432a53.28 53.28 0 0 1-72.810666-19.434667l-47.061334-81.504h334.613334l-212.341334 99.68a32.064 32.064 0 0 0-1.216 0.608z"  horiz-adv-x="1024" />
      
      <glyph glyph-name="riqian" unicode="&#59606;" d="M725.333333 725.333333h74.709334C864.853333 725.333333 917.333333 672.810667 917.333333 607.904V96.106667C917.333333 31.242667 864.832-21.333333 800.042667-21.333333H223.957333C159.146667-21.333333 106.666667 31.189333 106.666667 96.096V607.893333C106.666667 672.757333 159.168 725.333333 223.957333 725.333333H298.666667v32a32 32 0 0 0 64 0v-32h298.666666v32a32 32 0 0 0 64 0v-32z m0-64v-32a32 32 0 0 0-64 0v32H362.666667v-32a32 32 0 0 0-64 0v32h-74.709334A53.354667 53.354667 0 0 1 170.666667 607.904V96.106667A53.301333 53.301333 0 0 1 223.957333 42.666667h576.085334A53.354667 53.354667 0 0 1 853.333333 96.096V607.893333A53.301333 53.301333 0 0 1 800.042667 661.333333H725.333333z"  horiz-adv-x="1024" />
      
      <glyph glyph-name="shandian" unicode="&#59607;" d="M395.765333 309.429333h-171.733333c-22.421333 0-37.888 22.442667-29.909333 43.381334L364.768 800.725333A32 32 0 0 0 394.666667 821.333333h287.957333c22.72 0 38.208-23.018667 29.632-44.064l-99.36-243.882666h187.050667c27.509333 0 42.186667-32.426667 24.042666-53.098667l-458.602666-522.56c-22.293333-25.408-63.626667-3.392-54.976 29.28l85.354666 322.421333zM416.714667 757.333333L270.453333 373.418667h166.869334a32 32 0 0 0 30.933333-40.181334l-61.130667-230.954666 322.176 367.114666H565.312c-22.72 0-38.208 23.018667-29.632 44.064l99.36 243.882667H416.714667z"  horiz-adv-x="1024" />
      
      <glyph glyph-name="shaixuan" unicode="&#59608;" d="M646.037333 384.490667l224.874667 307.381333a74.741333 74.741333 0 0 1-16.074667 104.362667A74.485333 74.485333 0 0 1 810.773333 810.666667H213.226667C172.053333 810.666667 138.666667 777.237333 138.666667 736c0-15.872 5.045333-31.328 14.410666-44.128l224.885334-307.381333V-10.666667c0-17.674667 14.304-32 31.957333-32a31.978667 31.978667 0 0 1 31.946667 32V394.965333c0 6.794667-2.165333 13.418667-6.176 18.912L204.629333 729.696A10.677333 10.677333 0 0 0 213.226667 746.666667h597.546666a10.666667 10.666667 0 0 0 8.586667-16.970667L588.298667 413.877333a32.032 32.032 0 0 1-6.176-18.912v-315.413333c0-17.674667 14.304-32 31.957333-32a31.978667 31.978667 0 0 1 31.957333 32V384.490667z"  horiz-adv-x="1024" />
      
      <glyph glyph-name="shangquan" unicode="&#59609;" d="M149.333333 21.333333V693.333333c0 64.8 52.533333 117.333333 117.333334 117.333334h277.333333c64.8 0 117.333333-52.533333 117.333333-117.333334v-65.866666l149.952-77.653334A117.333333 117.333333 0 0 0 874.666667 445.621333V21.333333h32a32 32 0 0 0 0-64H117.333333a32 32 0 0 0 0 64h32z m512 0h149.333334V445.621333a53.333333 53.333333 0 0 1-28.8 47.36L661.333333 555.392V21.333333z m-448 0h384V693.333333a53.333333 53.333333 0 0 1-53.333333 53.333334H266.666667a53.333333 53.333333 0 0 1-53.333334-53.333334v-672z"  horiz-adv-x="1024" />
      
      <glyph glyph-name="shanchu" unicode="&#59610;" d="M202.666667 640h-42.666667a32 32 0 0 0 0 64h704a32 32 0 0 0 0-64H266.666667v-565.333333a53.333333 53.333333 0 0 1 53.333333-53.333334h384a53.333333 53.333333 0 0 1 53.333333 53.333334V544a32 32 0 0 0 64 0v-469.333333c0-64.8-52.533333-117.333333-117.333333-117.333334H320c-64.8 0-117.333333 52.533333-117.333333 117.333334V640z m224 106.666667a32 32 0 0 0 0 64h170.666666a32 32 0 0 0 0-64H426.666667z m-32-288a32 32 0 0 0 64 0v-256a32 32 0 0 0-64 0V458.666667z m170.666666 0a32 32 0 0 0 64 0v-256a32 32 0 0 0-64 0V458.666667z"  horiz-adv-x="1024" />
      
      <glyph glyph-name="shezhi" unicode="&#59611;" d="M944.48 343.541333l-182.357333-330.666666a73.792 73.792 0 0 0-64.565334-38.325334h-362.133333a73.792 73.792 0 0 0-64.565333 38.325334l-182.357334 330.666666a75.338667 75.338667 0 0 0 0 72.682667l182.357334 330.666667a73.792 73.792 0 0 0 64.565333 38.325333h362.133333a73.792 73.792 0 0 0 64.565334-38.325333l182.357333-330.666667a75.338667 75.338667 0 0 0 0-72.682667z m-55.989333 31.146667a10.773333 10.773333 0 0 1 0 10.378667l-182.037334 330.666666a10.517333 10.517333 0 0 1-9.205333 5.482667H335.733333a10.517333 10.517333 0 0 1-9.205333-5.482667l-182.037333-330.666666a10.773333 10.773333 0 0 1 0-10.378667l182.037333-330.666667a10.517333 10.517333 0 0 1 9.205333-5.472h361.514667a10.517333 10.517333 0 0 1 9.205333 5.472l182.037334 330.666667zM513.738667 213.333333c-94.261333 0-170.666667 76.405333-170.666667 170.666667s76.405333 170.666667 170.666667 170.666667c94.250667 0 170.666667-76.405333 170.666666-170.666667s-76.416-170.666667-170.666666-170.666667z m0 64c58.912 0 106.666667 47.754667 106.666666 106.666667s-47.754667 106.666667-106.666666 106.666667-106.666667-47.754667-106.666667-106.666667 47.754667-106.666667 106.666667-106.666667z"  horiz-adv-x="1024" />
      
      <glyph glyph-name="shangchuan" unicode="&#59612;" d="M565.333333 116.085333l51.445334 54.912a31.733333 31.733333 0 0 0 45.226666 1.226667 32.64 32.64 0 0 0 1.216-45.770667l-97.418666-104a37.034667 37.034667 0 0 0-52.821334-1.397333l-108.362666 104.202667a32.64 32.64 0 0 0-1.152 45.770666 31.733333 31.733333 0 0 0 45.248 1.173334L501.333333 121.578667V383.925333c0 17.877333 14.325333 32.373333 32 32.373334s32-14.506667 32-32.373334v-267.84zM512 757.333333c123.018667 0 228.213333-86.709333 259.424-206.88C864.298667 548.853333 938.666667 469.909333 938.666667 373.312c0-97.6-75.914667-177.173333-170.133334-177.173333-17.674667 0-32 14.496-32 32.373333 0 17.877333 14.325333 32.373333 32 32.373333 58.357333 0 106.133333 50.08 106.133334 112.426667 0 62.336-47.776 112.416-106.133334 112.416-5.856 0-11.626667-0.501333-17.301333-1.482667-17.621333-3.050667-34.304 9.098667-37.024 26.986667C698.346667 615.306667 612.714667 692.576 512 692.576c-73.834667 0-140.928-41.536-177.376-107.861333a31.914667 31.914667 0 0 0-30.122667-16.576 140.373333 140.373333 0 0 1-9.568 0.32c-80.149333 0-145.6-68.586667-145.6-153.781334 0-85.184 65.450667-153.792 145.6-153.792 17.674667 0 32-14.496 32-32.373333 0-17.877333-14.325333-32.373333-32-32.373333C178.912 196.138667 85.333333 294.229333 85.333333 414.677333c0 118.314667 90.293333 215.061333 203.456 218.453334C338.090667 709.76 421.013333 757.333333 512 757.333333z"  horiz-adv-x="1024" />
      
      <glyph glyph-name="shequ" unicode="&#59613;" d="M512-42.666667C276.362667-42.666667 85.333333 148.362667 85.333333 384S276.362667 810.666667 512 810.666667s426.666667-191.029333 426.666667-426.666667-191.029333-426.666667-426.666667-426.666667z m0 64c200.298667 0 362.666667 162.368 362.666667 362.666667S712.298667 746.666667 512 746.666667 149.333333 584.298667 149.333333 384s162.368-362.666667 362.666667-362.666667zM368.864 211.690667a32 32 0 1 0 40.917333 49.205333A159.189333 159.189333 0 0 1 512 224c37.888 0 73.674667 13.173333 102.186667 36.885333a32 32 0 0 0 40.917333-49.216A223.178667 223.178667 0 0 0 512 160a223.178667 223.178667 0 0 0-143.136 51.690667z"  horiz-adv-x="1024" />
      
      <glyph glyph-name="shengyinguanbi" unicode="&#59614;" d="M257.493333 573.6l215.573334 133.056c24.981333 15.413333 57.877333 7.914667 73.493333-16.746667 5.301333-8.373333 8.106667-18.048 8.106667-27.914666v-555.989334C554.666667 76.906667 530.784 53.333333 501.333333 53.333333c-9.994667 0-19.786667 2.773333-28.266666 8L257.493333 194.4H160c-41.237333 0-74.666667 33.013333-74.666667 73.738667V499.861333c0 40.725333 33.429333 73.738667 74.666667 73.738667h97.493333z m26.133334-58.4a32.298667 32.298667 0 0 0-16.96-4.8H160c-5.888 0-10.666667-4.714667-10.666667-10.538667v-231.733333c0-5.813333 4.778667-10.538667 10.666667-10.538667h106.666667c5.994667 0 11.872-1.664 16.96-4.8L490.666667 125.013333V642.986667L283.626667 515.2zM832.565333 377.6l86.474667-86.474667a30.570667 30.570667 0 1 0-43.232-43.242666L789.333333 334.346667l-86.474666-86.474667a30.570667 30.570667 0 1 0-43.232 43.242667l86.474666 86.474666-86.474666 86.474667a30.570667 30.570667 0 1 0 43.232 43.232L789.333333 420.821333l86.474667 86.474667a30.570667 30.570667 0 1 0 43.232-43.232l-86.474667-86.474667z"  horiz-adv-x="1024" />
      
      <glyph glyph-name="shibai" unicode="&#59615;" d="M878.08 164.725333a32 32 0 0 0-54.88 32.938667A360.789333 360.789333 0 0 1 874.666667 384c0 200.298667-162.368 362.666667-362.666667 362.666667S149.333333 584.298667 149.333333 384s162.368-362.666667 362.666667-362.666667a360.789333 360.789333 0 0 1 186.314667 51.445334 32 32 0 0 0 32.928-54.88A424.778667 424.778667 0 0 0 512-42.666667C276.362667-42.666667 85.333333 148.362667 85.333333 384S276.362667 810.666667 512 810.666667s426.666667-191.029333 426.666667-426.666667c0-78.293333-21.152-153.568-60.586667-219.274667zM555.232 384l86.474667-86.474667a30.570667 30.570667 0 1 0-43.232-43.232L512 340.768l-86.474667-86.474667a30.570667 30.570667 0 1 0-43.232 43.232L468.768 384l-86.474667 86.474667a30.570667 30.570667 0 1 0 43.232 43.232L512 427.232l86.474667 86.474667a30.570667 30.570667 0 1 0 43.232-43.232L555.232 384z"  horiz-adv-x="1024" />
      
      <glyph glyph-name="shijian" unicode="&#59616;" d="M878.08 164.725333a32 32 0 0 0-54.88 32.938667A360.789333 360.789333 0 0 1 874.666667 384c0 200.298667-162.368 362.666667-362.666667 362.666667S149.333333 584.298667 149.333333 384s162.368-362.666667 362.666667-362.666667a360.789333 360.789333 0 0 1 186.314667 51.445334 32 32 0 0 0 32.928-54.88A424.778667 424.778667 0 0 0 512-42.666667C276.362667-42.666667 85.333333 148.362667 85.333333 384S276.362667 810.666667 512 810.666667s426.666667-191.029333 426.666667-426.666667c0-78.293333-21.152-153.568-60.586667-219.274667z m-548.704 81.898667L480 397.258667V576a32 32 0 0 0 64 0v-192a32 32 0 0 0-9.376-22.624l-160-160a32 32 0 1 0-45.248 45.248z"  horiz-adv-x="1024" />
      
      <glyph glyph-name="shengyin" unicode="&#59617;" d="M257.493333 573.6l215.573334 133.056c24.981333 15.413333 57.877333 7.914667 73.493333-16.746667 5.301333-8.373333 8.106667-18.048 8.106667-27.914666v-555.989334C554.666667 76.906667 530.784 53.333333 501.333333 53.333333c-9.994667 0-19.786667 2.773333-28.266666 8L257.493333 194.4H160c-41.237333 0-74.666667 33.013333-74.666667 73.738667V499.861333c0 40.725333 33.429333 73.738667 74.666667 73.738667h97.493333z m26.133334-58.4a32.298667 32.298667 0 0 0-16.96-4.8H160c-5.888 0-10.666667-4.714667-10.666667-10.538667v-231.733333c0-5.813333 4.778667-10.538667 10.666667-10.538667h106.666667c5.994667 0 11.872-1.664 16.96-4.8L490.666667 125.013333V642.986667L283.626667 515.2zM800.906667 66.346667a32.288 32.288 0 0 0-45.248 0.757333 31.317333 31.317333 0 0 0 0.768 44.693333c157.653333 150.464 157.653333 393.962667 0 544.426667a31.317333 31.317333 0 0 0-0.768 44.682667 32.288 32.288 0 0 0 45.248 0.757333c183.68-175.306667 183.68-460.010667 0-635.317333z m-106.901334 126.186666a32.288 32.288 0 0 0-45.248 1.216 31.328 31.328 0 0 0 1.237334 44.672c86.229333 80.608 86.229333 210.56 0 291.178667a31.328 31.328 0 0 0-1.237334 44.672 32.288 32.288 0 0 0 45.248 1.216c112.885333-105.546667 112.885333-277.418667 0-382.965333z"  horiz-adv-x="1024" />
      
      <glyph glyph-name="shoucang" unicode="&#59618;" d="M335.008-20.629333c-35.914667-22.314667-82.88-10.773333-104.693333 25.557333a77.333333 77.333333 0 0 0-8.96 57.429333l46.485333 198.24a13.141333 13.141333 0 0 1-4.021333 12.864l-152.16 132.586667c-31.605333 27.52-35.253333 75.648-8.234667 107.733333a75.68 75.68 0 0 0 51.733333 26.752L354.848 556.8c4.352 0.362667 8.245333 3.232 10.026667 7.594667l76.938666 188.170666c16.032 39.2 60.618667 57.92 99.52 41.461334a76.309333 76.309333 0 0 0 40.832-41.461334l76.938667-188.16c1.781333-4.373333 5.674667-7.253333 10.026667-7.605333l199.712-16.277333c41.877333-3.413333 72.885333-40.458667 69.568-82.517334a76.938667 76.938667 0 0 0-26.08-51.978666l-152.16-132.586667c-3.541333-3.082667-5.141333-8.074667-4.021334-12.853333l46.485334-198.24c9.621333-41.013333-15.36-82.336-56.138667-92.224a75.285333 75.285333 0 0 0-57.525333 9.237333l-170.976 106.24a11.296 11.296 0 0 1-12.010667 0l-170.986667-106.24zM551.786667 139.968l170.976-106.24c2.624-1.621333 5.717333-2.122667 8.650666-1.408 6.410667 1.557333 10.56 8.426667 8.928 15.424l-46.485333 198.24a77.141333 77.141333 0 0 0 24.277333 75.733333L870.293333 454.293333c2.485333 2.165333 4.053333 5.312 4.330667 8.746667 0.565333 7.136-4.490667 13.173333-10.976 13.696l-199.712 16.288a75.989333 75.989333 0 0 0-64.064 47.168l-76.938667 188.16a12.309333 12.309333 0 0 1-6.538666 6.741333c-5.898667 2.496-12.725333-0.373333-15.328-6.741333l-76.949334-188.16a75.989333 75.989333 0 0 0-64.064-47.168l-199.701333-16.288a11.68 11.68 0 0 1-7.978667-4.181333 13.226667 13.226667 0 0 1 1.333334-18.261334l152.16-132.586666a77.141333 77.141333 0 0 0 24.277333-75.733334l-46.485333-198.229333a13.333333 13.333333 0 0 1 1.514666-9.877333c3.488-5.792 10.581333-7.530667 16.064-4.128l170.986667 106.229333a75.296 75.296 0 0 0 79.562667 0z"  horiz-adv-x="1024" />
      
      <glyph glyph-name="shouji" unicode="&#59619;" d="M256 810.666667h512c64.8 0 117.333333-52.533333 117.333333-117.333334v-618.666666c0-64.8-52.533333-117.333333-117.333333-117.333334H256c-64.8 0-117.333333 52.533333-117.333333 117.333334V693.333333c0 64.8 52.533333 117.333333 117.333333 117.333334z m0-64a53.333333 53.333333 0 0 1-53.333333-53.333334v-618.666666a53.333333 53.333333 0 0 1 53.333333-53.333334h512a53.333333 53.333333 0 0 1 53.333333 53.333334V693.333333a53.333333 53.333333 0 0 1-53.333333 53.333334H256z m170.666667-618.666667a32 32 0 0 0 0 64h170.666666a32 32 0 0 0 0-64H426.666667z"  horiz-adv-x="1024" />
      
      <glyph glyph-name="shouye" unicode="&#59620;" d="M155.584 553.44l312.874667 224.565333a74.666667 74.666667 0 0 0 87.082666 0l312.874667-224.565333A117.333333 117.333333 0 0 0 917.333333 458.133333V96c0-64.8-52.533333-117.333333-117.333333-117.333333H224c-64.8 0-117.333333 52.533333-117.333333 117.333333V458.122667a117.333333 117.333333 0 0 0 48.917333 95.317333z m37.322667-51.989333A53.333333 53.333333 0 0 1 170.666667 458.122667V96a53.333333 53.333333 0 0 1 53.333333-53.333333h576a53.333333 53.333333 0 0 1 53.333333 53.333333V458.122667a53.333333 53.333333 0 0 1-22.24 43.328L518.218667 726.016a10.666667 10.666667 0 0 1-12.437334 0L192.906667 501.44z"  horiz-adv-x="1024" />
      
      <glyph glyph-name="shuju" unicode="&#59621;" d="M512-42.666667C276.362667-42.666667 85.333333 148.362667 85.333333 384S276.362667 810.666667 512 810.666667s426.666667-191.029333 426.666667-426.666667-191.029333-426.666667-426.666667-426.666667z m0 64c200.298667 0 362.666667 162.368 362.666667 362.666667S712.298667 746.666667 512 746.666667 149.333333 584.298667 149.333333 384s162.368-362.666667 362.666667-362.666667z m8.213333 265.674667l-81.429333 88.704-95.754667-99.264a32 32 0 1 0-46.058666 44.437333l119.36 123.733334a32 32 0 0 0 46.613333-0.576l81.792-89.109334 136.608 136.992a32 32 0 1 0 45.312-45.184l-160.213333-160.682666a32 32 0 0 0-46.24 0.96z"  horiz-adv-x="1024" />
      
      <glyph glyph-name="shuaxin" unicode="&#59622;" d="M822.496 422.848a32 32 0 0 1-31.392-55.776l97.450667-54.848c20.32-11.434667 45.653333 2.005333 47.594666 25.248 1.674667 20.16 2.517333 35.573333 2.517334 46.528C938.666667 619.637333 747.637333 810.666667 512 810.666667S85.333333 619.637333 85.333333 384s191.029333-426.666667 426.666667-426.666667c144.106667 0 276.053333 72.032 354.752 189.536a32 32 0 1 1-53.173333 35.616C746.645333 82.538667 634.538667 21.333333 512 21.333333c-200.298667 0-362.666667 162.368-362.666667 362.666667s162.368 362.666667 362.666667 362.666667c197.098667 0 357.472-157.226667 362.538667-353.109334l-52.042667 29.290667z"  horiz-adv-x="1024" />
      
      <glyph glyph-name="sousuo" unicode="&#59623;" d="M797.525333 143.733333c62.069333 72.736 97.28 165.002667 97.28 262.186667C894.816 629.472 713.621333 810.666667 490.08 810.666667 266.538667 810.666667 85.333333 629.461333 85.333333 405.930667 85.333333 182.389333 266.538667 1.173333 490.069333 1.173333a404.693333 404.693333 0 0 1 118.208 17.546667 32 32 0 0 1-18.666666 61.216 340.693333 340.693333 0 0 0-99.541334-14.762667C301.888 65.184 149.333333 217.738667 149.333333 405.930667 149.333333 594.112 301.888 746.666667 490.069333 746.666667 678.261333 746.666667 830.826667 594.112 830.826667 405.930667c0-89.28-35.381333-173.696-97.141334-237.322667a36.992 36.992 0 0 1 0.384-51.925333l149.973334-149.973334a32 32 0 0 1 45.258666 45.248L797.525333 143.733333z"  horiz-adv-x="1024" />
      
      <glyph glyph-name="tanhao" unicode="&#59624;" d="M512 810.666667c235.637333 0 426.666667-191.029333 426.666667-426.666667 0-78.293333-21.152-153.568-60.586667-219.274667a32 32 0 0 0-54.88 32.938667A360.789333 360.789333 0 0 1 874.666667 384c0 200.298667-162.368 362.666667-362.666667 362.666667S149.333333 584.298667 149.333333 384s162.368-362.666667 362.666667-362.666667a360.789333 360.789333 0 0 1 186.314667 51.445334 32 32 0 0 0 32.928-54.88A424.778667 424.778667 0 0 0 512-42.666667C276.362667-42.666667 85.333333 148.362667 85.333333 384S276.362667 810.666667 512 810.666667z m0-565.333334a42.666667 42.666667 0 1 0 0-85.333333 42.666667 42.666667 0 0 0 0 85.333333z m0 362.666667a42.666667 42.666667 0 0 0 42.666667-42.666667v-234.666666a42.666667 42.666667 0 1 0-85.333334 0V565.333333a42.666667 42.666667 0 0 0 42.666667 42.666667z"  horiz-adv-x="1024" />
      
      <glyph glyph-name="taolunqu" unicode="&#59625;" d="M518.965333 48.501333c-21.290667-3.84-43.232-5.834667-65.632-5.834666a366.4 366.4 0 0 0-189.002666 52.181333 2118.4 2118.4 0 0 1-15.306667 8.981333l-86.944-23.712c-23.893333-6.506667-45.813333 15.402667-39.296 39.296l23.68 86.848c-8.821333 15.008-14.656 25.152-17.632 30.709334A366.485333 366.485333 0 0 0 85.333333 410.666667C85.333333 613.909333 250.090667 778.666667 453.333333 778.666667c185.514667 0 338.965333-137.269333 364.32-315.776A255.850667 255.850667 0 0 0 938.666667 245.333333c0-42.709333-10.496-83.978667-30.261334-120.842666-1.792-3.338667-4.992-8.928-9.696-16.96l14.613334-53.557334c6.506667-23.893333-15.402667-45.813333-39.296-39.296l-53.642667 14.634667-6.229333-3.669333A254.933333 254.933333 0 0 0 682.666667-10.666667a255.061333 255.061333 0 0 0-163.701334 59.168z m79.861334 24.042667A191.36 191.36 0 0 1 682.666667 53.333333a190.933333 190.933333 0 0 1 98.570666 27.2c2.208 1.322667 8.288 4.874667 18.517334 10.837334a32 32 0 0 0 24.522666 3.210666l12.565334-3.424-3.424 12.565334a32 32 0 0 0 3.338666 24.725333 996.672 996.672 0 0 1 15.242667 26.293333A190.997333 190.997333 0 0 1 874.666667 245.333333a191.68 191.68 0 0 1-54.634667 134.186667C808.458667 241.429333 720.650667 125.034667 598.826667 72.533333z m-387.050667 129.92l-12.512-45.866667 45.866667 12.512a32 32 0 0 0 24.522666-3.221333c15.253333-8.885333 24.373333-14.218667 27.594667-16.149333A302.4 302.4 0 0 1 453.333333 106.666667C621.226667 106.666667 757.333333 242.773333 757.333333 410.666667S621.226667 714.666667 453.333333 714.666667 149.333333 578.56 149.333333 410.666667c0-50.794667 12.448-99.712 35.904-143.456 3.104-5.792 10.933333-19.306667 23.2-40.021334a32 32 0 0 0 3.338667-24.725333zM586.666667 522.666667a32 32 0 0 0 0-64H320a32 32 0 0 0 0 64h266.666667zM458.666667 362.666667a32 32 0 0 0 0-64H320a32 32 0 0 0 0 64h138.666667z"  horiz-adv-x="1024" />
      
      <glyph glyph-name="tianjiayouhuiquan" unicode="&#59626;" d="M821.333333 757.333333c64.8 0 117.333333-52.533333 117.333334-117.333333v-149.333333a32 32 0 0 0-32-32 74.666667 74.666667 0 0 1 0-149.333334 32 32 0 0 0 32-32v-149.333333c0-64.8-52.533333-117.333333-117.333334-117.333333H202.666667c-64.8 0-117.333333 52.533333-117.333334 117.333333V277.333333a32 32 0 0 0 32 32 74.666667 74.666667 0 0 1 0 149.333334 32 32 0 0 0-32 32V640c0 64.8 52.533333 117.333333 117.333334 117.333333h618.666666z m0-64H202.666667a53.333333 53.333333 0 0 1-53.333334-53.333333v-121.045333C210.485333 504.512 256 449.568 256 384c0-65.568-45.514667-120.512-106.666667-134.954667V128a53.333333 53.333333 0 0 1 53.333334-53.333333h618.666666a53.333333 53.333333 0 0 1 53.333334 53.333333V249.045333C813.514667 263.488 768 318.432 768 384c0 65.568 45.514667 120.512 106.666667 134.954667V640a53.333333 53.333333 0 0 1-53.333334 53.333333zM512 517.333333a32 32 0 0 0 32-32l-0.010667-74.666666H618.666667a32 32 0 0 0 31.946666-30.122667L650.666667 378.666667a32 32 0 0 0-32-32h-74.666667v-74.666667a32 32 0 0 0-30.122667-31.946667L512 240a32 32 0 0 0-32 32v74.666667h-74.666667a32 32 0 0 0-31.946666 30.122666L373.333333 378.666667a32 32 0 0 0 32 32h74.656l0.010667 74.666666a32 32 0 0 0 30.122667 31.946667z"  horiz-adv-x="1024" />
      
      <glyph glyph-name="tishi" unicode="&#59627;" d="M544 106.666667h105.173333a10.666667 10.666667 0 0 1 10.666667 10.666666v0.362667l-3.232 94.304a32 32 0 0 0 14.293333 27.765333C750.933333 292.810667 800 382.208 800 480c0 159.061333-128.938667 288-288 288S224 639.061333 224 480c0-97.813333 49.098667-187.232 129.141333-240.266667a32 32 0 0 0 14.314667-25.578666l3.338667-97.184a10.666667 10.666667 0 0 1 10.666666-10.304H480V323.306667l-76.64 81.429333a32 32 0 0 0 46.613333 43.861333l63.36-67.328 72.693334 68.661334a32 32 0 0 0 43.946666-46.528L544 322.208V106.666667z m320 373.333333a351.530667 351.530667 0 0 0-142.826667-283.146667l2.634667-76.96A74.666667 74.666667 0 0 0 649.173333 42.666667h-267.733333a74.666667 74.666667 0 0 0-74.624 72.106666l-2.784 81.194667A351.541333 351.541333 0 0 0 160 480C160 674.4 317.6 832 512 832s352-157.6 352-352zM416-64a32 32 0 0 0 0 64h192a32 32 0 0 0 0-64H416z"  horiz-adv-x="1024" />
      
      </font>
</defs>
</svg>
